%TF.GenerationSoftware,KiCad,Pcbnew,6.0.10+dfsg-1~bpo11+1*%
%TF.CreationDate,2023-03-03T23:41:05+00:00*%
%TF.ProjectId,PROGLOG01,50524f47-4c4f-4473-9031-2e6b69636164,B*%
%TF.SameCoordinates,Original*%
%TF.FileFunction,Legend,Bot*%
%TF.FilePolarity,Positive*%
%FSLAX46Y46*%
G04 Gerber Fmt 4.6, Leading zero omitted, Abs format (unit mm)*
G04 Created by KiCad (PCBNEW 6.0.10+dfsg-1~bpo11+1) date 2023-03-03 23:41:05*
%MOMM*%
%LPD*%
G01*
G04 APERTURE LIST*
%ADD10C,0.150000*%
%ADD11C,0.099060*%
%ADD12C,0.120000*%
G04 APERTURE END LIST*
D10*
%TO.C,U4*%
X204825504Y-126223780D02*
X204825504Y-127033304D01*
X204777885Y-127128542D01*
X204730266Y-127176161D01*
X204635028Y-127223780D01*
X204444552Y-127223780D01*
X204349314Y-127176161D01*
X204301695Y-127128542D01*
X204254076Y-127033304D01*
X204254076Y-126223780D01*
X203349314Y-126557114D02*
X203349314Y-127223780D01*
X203587409Y-126176161D02*
X203825504Y-126890447D01*
X203206457Y-126890447D01*
%TO.C,C3*%
X164768257Y-121019866D02*
X164720638Y-121067485D01*
X164673019Y-121210342D01*
X164673019Y-121305580D01*
X164720638Y-121448438D01*
X164815876Y-121543676D01*
X164911114Y-121591295D01*
X165101590Y-121638914D01*
X165244447Y-121638914D01*
X165434923Y-121591295D01*
X165530161Y-121543676D01*
X165625400Y-121448438D01*
X165673019Y-121305580D01*
X165673019Y-121210342D01*
X165625400Y-121067485D01*
X165577780Y-121019866D01*
X165673019Y-120686533D02*
X165673019Y-120067485D01*
X165292066Y-120400819D01*
X165292066Y-120257961D01*
X165244447Y-120162723D01*
X165196828Y-120115104D01*
X165101590Y-120067485D01*
X164863495Y-120067485D01*
X164768257Y-120115104D01*
X164720638Y-120162723D01*
X164673019Y-120257961D01*
X164673019Y-120543676D01*
X164720638Y-120638914D01*
X164768257Y-120686533D01*
%TO.C,U1*%
X172785019Y-119405304D02*
X171975495Y-119405304D01*
X171880257Y-119357685D01*
X171832638Y-119310066D01*
X171785019Y-119214828D01*
X171785019Y-119024352D01*
X171832638Y-118929114D01*
X171880257Y-118881495D01*
X171975495Y-118833876D01*
X172785019Y-118833876D01*
X171785019Y-117833876D02*
X171785019Y-118405304D01*
X171785019Y-118119590D02*
X172785019Y-118119590D01*
X172642161Y-118214828D01*
X172546923Y-118310066D01*
X172499304Y-118405304D01*
%TO.C,U2*%
X171551504Y-110729780D02*
X171551504Y-111539304D01*
X171503885Y-111634542D01*
X171456266Y-111682161D01*
X171361028Y-111729780D01*
X171170552Y-111729780D01*
X171075314Y-111682161D01*
X171027695Y-111634542D01*
X170980076Y-111539304D01*
X170980076Y-110729780D01*
X170551504Y-110825019D02*
X170503885Y-110777400D01*
X170408647Y-110729780D01*
X170170552Y-110729780D01*
X170075314Y-110777400D01*
X170027695Y-110825019D01*
X169980076Y-110920257D01*
X169980076Y-111015495D01*
X170027695Y-111158352D01*
X170599123Y-111729780D01*
X169980076Y-111729780D01*
%TO.C,C4*%
X174296857Y-114022166D02*
X174249238Y-114069785D01*
X174201619Y-114212642D01*
X174201619Y-114307880D01*
X174249238Y-114450738D01*
X174344476Y-114545976D01*
X174439714Y-114593595D01*
X174630190Y-114641214D01*
X174773047Y-114641214D01*
X174963523Y-114593595D01*
X175058761Y-114545976D01*
X175154000Y-114450738D01*
X175201619Y-114307880D01*
X175201619Y-114212642D01*
X175154000Y-114069785D01*
X175106380Y-114022166D01*
X174868285Y-113165023D02*
X174201619Y-113165023D01*
X175249238Y-113403119D02*
X174534952Y-113641214D01*
X174534952Y-113022166D01*
%TO.C,R3*%
X177331666Y-111577380D02*
X177665000Y-111101190D01*
X177903095Y-111577380D02*
X177903095Y-110577380D01*
X177522142Y-110577380D01*
X177426904Y-110625000D01*
X177379285Y-110672619D01*
X177331666Y-110767857D01*
X177331666Y-110910714D01*
X177379285Y-111005952D01*
X177426904Y-111053571D01*
X177522142Y-111101190D01*
X177903095Y-111101190D01*
X176998333Y-110577380D02*
X176379285Y-110577380D01*
X176712619Y-110958333D01*
X176569761Y-110958333D01*
X176474523Y-111005952D01*
X176426904Y-111053571D01*
X176379285Y-111148809D01*
X176379285Y-111386904D01*
X176426904Y-111482142D01*
X176474523Y-111529761D01*
X176569761Y-111577380D01*
X176855476Y-111577380D01*
X176950714Y-111529761D01*
X176998333Y-111482142D01*
%TO.C,R2*%
X177331666Y-117597180D02*
X177665000Y-117120990D01*
X177903095Y-117597180D02*
X177903095Y-116597180D01*
X177522142Y-116597180D01*
X177426904Y-116644800D01*
X177379285Y-116692419D01*
X177331666Y-116787657D01*
X177331666Y-116930514D01*
X177379285Y-117025752D01*
X177426904Y-117073371D01*
X177522142Y-117120990D01*
X177903095Y-117120990D01*
X176950714Y-116692419D02*
X176903095Y-116644800D01*
X176807857Y-116597180D01*
X176569761Y-116597180D01*
X176474523Y-116644800D01*
X176426904Y-116692419D01*
X176379285Y-116787657D01*
X176379285Y-116882895D01*
X176426904Y-117025752D01*
X176998333Y-117597180D01*
X176379285Y-117597180D01*
%TO.C,R8*%
X183859466Y-110510580D02*
X184192800Y-110034390D01*
X184430895Y-110510580D02*
X184430895Y-109510580D01*
X184049942Y-109510580D01*
X183954704Y-109558200D01*
X183907085Y-109605819D01*
X183859466Y-109701057D01*
X183859466Y-109843914D01*
X183907085Y-109939152D01*
X183954704Y-109986771D01*
X184049942Y-110034390D01*
X184430895Y-110034390D01*
X183288038Y-109939152D02*
X183383276Y-109891533D01*
X183430895Y-109843914D01*
X183478514Y-109748676D01*
X183478514Y-109701057D01*
X183430895Y-109605819D01*
X183383276Y-109558200D01*
X183288038Y-109510580D01*
X183097561Y-109510580D01*
X183002323Y-109558200D01*
X182954704Y-109605819D01*
X182907085Y-109701057D01*
X182907085Y-109748676D01*
X182954704Y-109843914D01*
X183002323Y-109891533D01*
X183097561Y-109939152D01*
X183288038Y-109939152D01*
X183383276Y-109986771D01*
X183430895Y-110034390D01*
X183478514Y-110129628D01*
X183478514Y-110320104D01*
X183430895Y-110415342D01*
X183383276Y-110462961D01*
X183288038Y-110510580D01*
X183097561Y-110510580D01*
X183002323Y-110462961D01*
X182954704Y-110415342D01*
X182907085Y-110320104D01*
X182907085Y-110129628D01*
X182954704Y-110034390D01*
X183002323Y-109986771D01*
X183097561Y-109939152D01*
%TO.C,R10*%
X207447619Y-113672857D02*
X207923809Y-114006190D01*
X207447619Y-114244285D02*
X208447619Y-114244285D01*
X208447619Y-113863333D01*
X208400000Y-113768095D01*
X208352380Y-113720476D01*
X208257142Y-113672857D01*
X208114285Y-113672857D01*
X208019047Y-113720476D01*
X207971428Y-113768095D01*
X207923809Y-113863333D01*
X207923809Y-114244285D01*
X207447619Y-112720476D02*
X207447619Y-113291904D01*
X207447619Y-113006190D02*
X208447619Y-113006190D01*
X208304761Y-113101428D01*
X208209523Y-113196666D01*
X208161904Y-113291904D01*
X208447619Y-112101428D02*
X208447619Y-112006190D01*
X208400000Y-111910952D01*
X208352380Y-111863333D01*
X208257142Y-111815714D01*
X208066666Y-111768095D01*
X207828571Y-111768095D01*
X207638095Y-111815714D01*
X207542857Y-111863333D01*
X207495238Y-111910952D01*
X207447619Y-112006190D01*
X207447619Y-112101428D01*
X207495238Y-112196666D01*
X207542857Y-112244285D01*
X207638095Y-112291904D01*
X207828571Y-112339523D01*
X208066666Y-112339523D01*
X208257142Y-112291904D01*
X208352380Y-112244285D01*
X208400000Y-112196666D01*
X208447619Y-112101428D01*
%TO.C,R9*%
X193778166Y-132150380D02*
X194111500Y-131674190D01*
X194349595Y-132150380D02*
X194349595Y-131150380D01*
X193968642Y-131150380D01*
X193873404Y-131198000D01*
X193825785Y-131245619D01*
X193778166Y-131340857D01*
X193778166Y-131483714D01*
X193825785Y-131578952D01*
X193873404Y-131626571D01*
X193968642Y-131674190D01*
X194349595Y-131674190D01*
X193301976Y-132150380D02*
X193111500Y-132150380D01*
X193016261Y-132102761D01*
X192968642Y-132055142D01*
X192873404Y-131912285D01*
X192825785Y-131721809D01*
X192825785Y-131340857D01*
X192873404Y-131245619D01*
X192921023Y-131198000D01*
X193016261Y-131150380D01*
X193206738Y-131150380D01*
X193301976Y-131198000D01*
X193349595Y-131245619D01*
X193397214Y-131340857D01*
X193397214Y-131578952D01*
X193349595Y-131674190D01*
X193301976Y-131721809D01*
X193206738Y-131769428D01*
X193016261Y-131769428D01*
X192921023Y-131721809D01*
X192873404Y-131674190D01*
X192825785Y-131578952D01*
%TO.C,R5*%
X167771819Y-123026466D02*
X168248009Y-123359800D01*
X167771819Y-123597895D02*
X168771819Y-123597895D01*
X168771819Y-123216942D01*
X168724200Y-123121704D01*
X168676580Y-123074085D01*
X168581342Y-123026466D01*
X168438485Y-123026466D01*
X168343247Y-123074085D01*
X168295628Y-123121704D01*
X168248009Y-123216942D01*
X168248009Y-123597895D01*
X168771819Y-122121704D02*
X168771819Y-122597895D01*
X168295628Y-122645514D01*
X168343247Y-122597895D01*
X168390866Y-122502657D01*
X168390866Y-122264561D01*
X168343247Y-122169323D01*
X168295628Y-122121704D01*
X168200390Y-122074085D01*
X167962295Y-122074085D01*
X167867057Y-122121704D01*
X167819438Y-122169323D01*
X167771819Y-122264561D01*
X167771819Y-122502657D01*
X167819438Y-122597895D01*
X167867057Y-122645514D01*
%TO.C,X1*%
X191514893Y-120602893D02*
X190336382Y-120838595D01*
X191043489Y-120131489D02*
X190807787Y-121310000D01*
X189696619Y-120198832D02*
X190100680Y-120602893D01*
X189898649Y-120400863D02*
X190605756Y-119693756D01*
X190572084Y-119862115D01*
X190572084Y-119996802D01*
X190605756Y-120097817D01*
X188918974Y-126549025D02*
X189087333Y-126380666D01*
X188851631Y-126279651D02*
X189087333Y-126380666D01*
X189188348Y-126616368D01*
X189121005Y-126144964D02*
X189087333Y-126380666D01*
X189323035Y-126346994D01*
%TO.C,C1*%
X204522857Y-132995966D02*
X204475238Y-133043585D01*
X204427619Y-133186442D01*
X204427619Y-133281680D01*
X204475238Y-133424538D01*
X204570476Y-133519776D01*
X204665714Y-133567395D01*
X204856190Y-133615014D01*
X204999047Y-133615014D01*
X205189523Y-133567395D01*
X205284761Y-133519776D01*
X205380000Y-133424538D01*
X205427619Y-133281680D01*
X205427619Y-133186442D01*
X205380000Y-133043585D01*
X205332380Y-132995966D01*
X204427619Y-132043585D02*
X204427619Y-132615014D01*
X204427619Y-132329300D02*
X205427619Y-132329300D01*
X205284761Y-132424538D01*
X205189523Y-132519776D01*
X205141904Y-132615014D01*
%TO.C,C2*%
X166800257Y-121096066D02*
X166752638Y-121143685D01*
X166705019Y-121286542D01*
X166705019Y-121381780D01*
X166752638Y-121524638D01*
X166847876Y-121619876D01*
X166943114Y-121667495D01*
X167133590Y-121715114D01*
X167276447Y-121715114D01*
X167466923Y-121667495D01*
X167562161Y-121619876D01*
X167657400Y-121524638D01*
X167705019Y-121381780D01*
X167705019Y-121286542D01*
X167657400Y-121143685D01*
X167609780Y-121096066D01*
X167609780Y-120715114D02*
X167657400Y-120667495D01*
X167705019Y-120572257D01*
X167705019Y-120334161D01*
X167657400Y-120238923D01*
X167609780Y-120191304D01*
X167514542Y-120143685D01*
X167419304Y-120143685D01*
X167276447Y-120191304D01*
X166705019Y-120762733D01*
X166705019Y-120143685D01*
%TO.C,R7*%
X190184066Y-112059980D02*
X190517400Y-111583790D01*
X190755495Y-112059980D02*
X190755495Y-111059980D01*
X190374542Y-111059980D01*
X190279304Y-111107600D01*
X190231685Y-111155219D01*
X190184066Y-111250457D01*
X190184066Y-111393314D01*
X190231685Y-111488552D01*
X190279304Y-111536171D01*
X190374542Y-111583790D01*
X190755495Y-111583790D01*
X189850733Y-111059980D02*
X189184066Y-111059980D01*
X189612638Y-112059980D01*
%TO.C,R6*%
X173207419Y-123788466D02*
X173683609Y-124121800D01*
X173207419Y-124359895D02*
X174207419Y-124359895D01*
X174207419Y-123978942D01*
X174159800Y-123883704D01*
X174112180Y-123836085D01*
X174016942Y-123788466D01*
X173874085Y-123788466D01*
X173778847Y-123836085D01*
X173731228Y-123883704D01*
X173683609Y-123978942D01*
X173683609Y-124359895D01*
X174207419Y-122931323D02*
X174207419Y-123121800D01*
X174159800Y-123217038D01*
X174112180Y-123264657D01*
X173969323Y-123359895D01*
X173778847Y-123407514D01*
X173397895Y-123407514D01*
X173302657Y-123359895D01*
X173255038Y-123312276D01*
X173207419Y-123217038D01*
X173207419Y-123026561D01*
X173255038Y-122931323D01*
X173302657Y-122883704D01*
X173397895Y-122836085D01*
X173635990Y-122836085D01*
X173731228Y-122883704D01*
X173778847Y-122931323D01*
X173826466Y-123026561D01*
X173826466Y-123217038D01*
X173778847Y-123312276D01*
X173731228Y-123359895D01*
X173635990Y-123407514D01*
D11*
%TO.C,D3*%
X178453203Y-140095998D02*
X178453203Y-139857721D01*
X178310237Y-140143653D02*
X178810617Y-139976860D01*
X178310237Y-139810066D01*
%TO.C,D2*%
X182517203Y-140095998D02*
X182517203Y-139857721D01*
X182374237Y-140143653D02*
X182874617Y-139976860D01*
X182374237Y-139810066D01*
D10*
%TO.C,D1*%
X166320695Y-110434380D02*
X166320695Y-109434380D01*
X166082600Y-109434380D01*
X165939742Y-109482000D01*
X165844504Y-109577238D01*
X165796885Y-109672476D01*
X165749266Y-109862952D01*
X165749266Y-110005809D01*
X165796885Y-110196285D01*
X165844504Y-110291523D01*
X165939742Y-110386761D01*
X166082600Y-110434380D01*
X166320695Y-110434380D01*
X164796885Y-110434380D02*
X165368314Y-110434380D01*
X165082600Y-110434380D02*
X165082600Y-109434380D01*
X165177838Y-109577238D01*
X165273076Y-109672476D01*
X165368314Y-109720095D01*
%TO.C,C6*%
X195375257Y-110656666D02*
X195327638Y-110704285D01*
X195280019Y-110847142D01*
X195280019Y-110942380D01*
X195327638Y-111085238D01*
X195422876Y-111180476D01*
X195518114Y-111228095D01*
X195708590Y-111275714D01*
X195851447Y-111275714D01*
X196041923Y-111228095D01*
X196137161Y-111180476D01*
X196232400Y-111085238D01*
X196280019Y-110942380D01*
X196280019Y-110847142D01*
X196232400Y-110704285D01*
X196184780Y-110656666D01*
X196280019Y-109799523D02*
X196280019Y-109990000D01*
X196232400Y-110085238D01*
X196184780Y-110132857D01*
X196041923Y-110228095D01*
X195851447Y-110275714D01*
X195470495Y-110275714D01*
X195375257Y-110228095D01*
X195327638Y-110180476D01*
X195280019Y-110085238D01*
X195280019Y-109894761D01*
X195327638Y-109799523D01*
X195375257Y-109751904D01*
X195470495Y-109704285D01*
X195708590Y-109704285D01*
X195803828Y-109751904D01*
X195851447Y-109799523D01*
X195899066Y-109894761D01*
X195899066Y-110085238D01*
X195851447Y-110180476D01*
X195803828Y-110228095D01*
X195708590Y-110275714D01*
%TO.C,C5*%
X193368657Y-109437466D02*
X193321038Y-109485085D01*
X193273419Y-109627942D01*
X193273419Y-109723180D01*
X193321038Y-109866038D01*
X193416276Y-109961276D01*
X193511514Y-110008895D01*
X193701990Y-110056514D01*
X193844847Y-110056514D01*
X194035323Y-110008895D01*
X194130561Y-109961276D01*
X194225800Y-109866038D01*
X194273419Y-109723180D01*
X194273419Y-109627942D01*
X194225800Y-109485085D01*
X194178180Y-109437466D01*
X194273419Y-108532704D02*
X194273419Y-109008895D01*
X193797228Y-109056514D01*
X193844847Y-109008895D01*
X193892466Y-108913657D01*
X193892466Y-108675561D01*
X193844847Y-108580323D01*
X193797228Y-108532704D01*
X193701990Y-108485085D01*
X193463895Y-108485085D01*
X193368657Y-108532704D01*
X193321038Y-108580323D01*
X193273419Y-108675561D01*
X193273419Y-108913657D01*
X193321038Y-109008895D01*
X193368657Y-109056514D01*
%TO.C,C9*%
X186267128Y-119565487D02*
X186334471Y-119565487D01*
X186469158Y-119498143D01*
X186536502Y-119430800D01*
X186603845Y-119296112D01*
X186603845Y-119161425D01*
X186570174Y-119060410D01*
X186469158Y-118892051D01*
X186368143Y-118791036D01*
X186199784Y-118690021D01*
X186098769Y-118656349D01*
X185964082Y-118656349D01*
X185829395Y-118723693D01*
X185762051Y-118791036D01*
X185694708Y-118925723D01*
X185694708Y-118993067D01*
X185997754Y-119969548D02*
X185863067Y-120104235D01*
X185762051Y-120137906D01*
X185694708Y-120137906D01*
X185526349Y-120104235D01*
X185357990Y-120003219D01*
X185088616Y-119733845D01*
X185054945Y-119632830D01*
X185054945Y-119565487D01*
X185088616Y-119464471D01*
X185223303Y-119329784D01*
X185324319Y-119296112D01*
X185391662Y-119296112D01*
X185492677Y-119329784D01*
X185661036Y-119498143D01*
X185694708Y-119599158D01*
X185694708Y-119666502D01*
X185661036Y-119767517D01*
X185526349Y-119902204D01*
X185425334Y-119935876D01*
X185357990Y-119935876D01*
X185256975Y-119902204D01*
%TO.C,U3*%
X172110304Y-131202180D02*
X172110304Y-132011704D01*
X172062685Y-132106942D01*
X172015066Y-132154561D01*
X171919828Y-132202180D01*
X171729352Y-132202180D01*
X171634114Y-132154561D01*
X171586495Y-132106942D01*
X171538876Y-132011704D01*
X171538876Y-131202180D01*
X171157923Y-131202180D02*
X170538876Y-131202180D01*
X170872209Y-131583133D01*
X170729352Y-131583133D01*
X170634114Y-131630752D01*
X170586495Y-131678371D01*
X170538876Y-131773609D01*
X170538876Y-132011704D01*
X170586495Y-132106942D01*
X170634114Y-132154561D01*
X170729352Y-132202180D01*
X171015066Y-132202180D01*
X171110304Y-132154561D01*
X171157923Y-132106942D01*
%TO.C,R1*%
X177560266Y-122524780D02*
X177893600Y-122048590D01*
X178131695Y-122524780D02*
X178131695Y-121524780D01*
X177750742Y-121524780D01*
X177655504Y-121572400D01*
X177607885Y-121620019D01*
X177560266Y-121715257D01*
X177560266Y-121858114D01*
X177607885Y-121953352D01*
X177655504Y-122000971D01*
X177750742Y-122048590D01*
X178131695Y-122048590D01*
X176607885Y-122524780D02*
X177179314Y-122524780D01*
X176893600Y-122524780D02*
X176893600Y-121524780D01*
X176988838Y-121667638D01*
X177084076Y-121762876D01*
X177179314Y-121810495D01*
%TO.C,C10*%
X208412250Y-127623648D02*
X208412250Y-127690992D01*
X208479594Y-127825679D01*
X208546937Y-127893022D01*
X208681624Y-127960366D01*
X208816311Y-127960366D01*
X208917326Y-127926694D01*
X209085685Y-127825679D01*
X209186700Y-127724664D01*
X209287716Y-127556305D01*
X209321387Y-127455290D01*
X209321387Y-127320603D01*
X209254044Y-127185916D01*
X209186700Y-127118572D01*
X209052013Y-127051229D01*
X208984670Y-127051229D01*
X207671471Y-127017557D02*
X208075532Y-127421618D01*
X207873502Y-127219587D02*
X208580609Y-126512480D01*
X208546937Y-126680839D01*
X208546937Y-126815526D01*
X208580609Y-126916541D01*
X207940845Y-125872717D02*
X207873502Y-125805374D01*
X207772487Y-125771702D01*
X207705143Y-125771702D01*
X207604128Y-125805374D01*
X207435769Y-125906389D01*
X207267410Y-126074748D01*
X207166395Y-126243106D01*
X207132723Y-126344122D01*
X207132723Y-126411465D01*
X207166395Y-126512480D01*
X207233739Y-126579824D01*
X207334754Y-126613496D01*
X207402097Y-126613496D01*
X207503113Y-126579824D01*
X207671471Y-126478809D01*
X207839830Y-126310450D01*
X207940845Y-126142091D01*
X207974517Y-126041076D01*
X207974517Y-125973732D01*
X207940845Y-125872717D01*
%TO.C,C7*%
X184421712Y-123001589D02*
X184421712Y-123068932D01*
X184489056Y-123203619D01*
X184556400Y-123270963D01*
X184691087Y-123338306D01*
X184825774Y-123338306D01*
X184926789Y-123304635D01*
X185095148Y-123203619D01*
X185196163Y-123102604D01*
X185297178Y-122934245D01*
X185330850Y-122833230D01*
X185330850Y-122698543D01*
X185263506Y-122563856D01*
X185196163Y-122496512D01*
X185061476Y-122429169D01*
X184994132Y-122429169D01*
X184825774Y-122126123D02*
X184354369Y-121654719D01*
X183950308Y-122664871D01*
%TO.C,C8*%
X189247712Y-114390989D02*
X189247712Y-114458332D01*
X189315056Y-114593019D01*
X189382400Y-114660363D01*
X189517087Y-114727706D01*
X189651774Y-114727706D01*
X189752789Y-114694035D01*
X189921148Y-114593019D01*
X190022163Y-114492004D01*
X190123178Y-114323645D01*
X190156850Y-114222630D01*
X190156850Y-114087943D01*
X190089506Y-113953256D01*
X190022163Y-113885912D01*
X189887476Y-113818569D01*
X189820132Y-113818569D01*
X189180369Y-113650210D02*
X189281384Y-113683882D01*
X189348728Y-113683882D01*
X189449743Y-113650210D01*
X189483415Y-113616538D01*
X189517087Y-113515523D01*
X189517087Y-113448180D01*
X189483415Y-113347164D01*
X189348728Y-113212477D01*
X189247712Y-113178806D01*
X189180369Y-113178806D01*
X189079354Y-113212477D01*
X189045682Y-113246149D01*
X189012010Y-113347164D01*
X189012010Y-113414508D01*
X189045682Y-113515523D01*
X189180369Y-113650210D01*
X189214041Y-113751225D01*
X189214041Y-113818569D01*
X189180369Y-113919584D01*
X189045682Y-114054271D01*
X188944667Y-114087943D01*
X188877323Y-114087943D01*
X188776308Y-114054271D01*
X188641621Y-113919584D01*
X188607949Y-113818569D01*
X188607949Y-113751225D01*
X188641621Y-113650210D01*
X188776308Y-113515523D01*
X188877323Y-113481851D01*
X188944667Y-113481851D01*
X189045682Y-113515523D01*
%TO.C,R4*%
X197286619Y-110631266D02*
X197762809Y-110964600D01*
X197286619Y-111202695D02*
X198286619Y-111202695D01*
X198286619Y-110821742D01*
X198239000Y-110726504D01*
X198191380Y-110678885D01*
X198096142Y-110631266D01*
X197953285Y-110631266D01*
X197858047Y-110678885D01*
X197810428Y-110726504D01*
X197762809Y-110821742D01*
X197762809Y-111202695D01*
X197953285Y-109774123D02*
X197286619Y-109774123D01*
X198334238Y-110012219D02*
X197619952Y-110250314D01*
X197619952Y-109631266D01*
D12*
%TO.C,U4*%
X204701800Y-118144900D02*
X204226800Y-118144900D01*
X197481800Y-118144900D02*
X197956800Y-118144900D01*
X197481800Y-118619900D02*
X197481800Y-118144900D01*
X197481800Y-125364900D02*
X197956800Y-125364900D01*
X204701800Y-118619900D02*
X204701800Y-118144900D01*
X204701800Y-124889900D02*
X204701800Y-125364900D01*
X197481800Y-124889900D02*
X197481800Y-125364900D01*
%TO.C,C3*%
X164365000Y-117848748D02*
X164365000Y-118371252D01*
X165835000Y-117848748D02*
X165835000Y-118371252D01*
%TO.C,U1*%
X171213000Y-117918000D02*
X171213000Y-119318000D01*
X168893000Y-119318000D02*
X168893000Y-117418000D01*
%TO.C,U2*%
X168518000Y-112182000D02*
X170318000Y-112182000D01*
X170318000Y-115402000D02*
X167868000Y-115402000D01*
%TO.C,C4*%
X172239000Y-114116752D02*
X172239000Y-113594248D01*
X173709000Y-114116752D02*
X173709000Y-113594248D01*
%TO.C,R3*%
X176874436Y-112041000D02*
X177328564Y-112041000D01*
X176874436Y-113511000D02*
X177328564Y-113511000D01*
%TO.C,R2*%
X176874436Y-116051000D02*
X177328564Y-116051000D01*
X176874436Y-114581000D02*
X177328564Y-114581000D01*
%TO.C,R8*%
X186934446Y-110269001D02*
X187255563Y-109947884D01*
X185894999Y-109229554D02*
X186216116Y-108908437D01*
%TO.C,R10*%
X208815000Y-112802936D02*
X208815000Y-113257064D01*
X210285000Y-112802936D02*
X210285000Y-113257064D01*
%TO.C,R9*%
X193384436Y-129313000D02*
X193838564Y-129313000D01*
X193384436Y-130783000D02*
X193838564Y-130783000D01*
%TO.C,R5*%
X169191000Y-122518436D02*
X169191000Y-122972564D01*
X170661000Y-122518436D02*
X170661000Y-122972564D01*
D10*
%TO.C,X1*%
X189485396Y-125454138D02*
X191748138Y-123191396D01*
X185949862Y-121918604D02*
X189485396Y-125454138D01*
X191748138Y-123191396D02*
X188212604Y-119655862D01*
X188212604Y-119655862D02*
X185949862Y-121918604D01*
D12*
%TO.C,C1*%
X202465000Y-133090552D02*
X202465000Y-132568048D01*
X203935000Y-133090552D02*
X203935000Y-132568048D01*
%TO.C,C2*%
X166397000Y-117912248D02*
X166397000Y-118434752D01*
X167867000Y-117912248D02*
X167867000Y-118434752D01*
%TO.C,R7*%
X186453799Y-111820354D02*
X186774916Y-111499237D01*
X187493246Y-112859801D02*
X187814363Y-112538684D01*
%TO.C,R6*%
X172693000Y-122518436D02*
X172693000Y-122972564D01*
X171223000Y-122518436D02*
X171223000Y-122972564D01*
%TO.C,D1*%
X166354000Y-111562000D02*
X166354000Y-115862000D01*
X166354000Y-115862000D02*
X164354000Y-115862000D01*
X164354000Y-115862000D02*
X164354000Y-111562000D01*
%TO.C,C6*%
X194972000Y-113545252D02*
X194972000Y-113022748D01*
X196442000Y-113545252D02*
X196442000Y-113022748D01*
%TO.C,C5*%
X194410000Y-112262552D02*
X194410000Y-111740048D01*
X192940000Y-112262552D02*
X192940000Y-111740048D01*
%TO.C,C9*%
X184004343Y-117775010D02*
X184373810Y-117405543D01*
X185043790Y-118814457D02*
X185413257Y-118444990D01*
D10*
%TO.C,U3*%
X169105760Y-130730700D02*
X169105760Y-130585700D01*
X173255760Y-130730700D02*
X173255760Y-130585700D01*
X169105760Y-130730700D02*
X173255760Y-130730700D01*
X169105760Y-125580700D02*
X173255760Y-125580700D01*
X169105760Y-125580700D02*
X169105760Y-125725700D01*
X169105760Y-130585700D02*
X167705760Y-130585700D01*
D12*
%TO.C,R1*%
X176693564Y-124433000D02*
X176239436Y-124433000D01*
X176693564Y-122963000D02*
X176239436Y-122963000D01*
%TO.C,C10*%
X206687291Y-128808938D02*
X206317824Y-128439471D01*
X207726738Y-127769491D02*
X207357271Y-127400024D01*
%TO.C,C7*%
X187242476Y-124544529D02*
X186873009Y-124175062D01*
X186203029Y-125583976D02*
X185833562Y-125214509D01*
%TO.C,C8*%
X187433343Y-115701790D02*
X187802810Y-116071257D01*
X188472790Y-114662343D02*
X188842257Y-115031810D01*
%TO.C,R4*%
X197029400Y-113511064D02*
X197029400Y-113056936D01*
X198499400Y-113511064D02*
X198499400Y-113056936D01*
%TD*%
M02*
