%TF.GenerationSoftware,KiCad,Pcbnew,6.0.10+dfsg-1~bpo11+1*%
%TF.CreationDate,2023-02-14T08:10:15+00:00*%
%TF.ProjectId,PROGLOG01A,50524f47-4c4f-4473-9031-412e6b696361,REV*%
%TF.SameCoordinates,Original*%
%TF.FileFunction,Legend,Bot*%
%TF.FilePolarity,Positive*%
%FSLAX46Y46*%
G04 Gerber Fmt 4.6, Leading zero omitted, Abs format (unit mm)*
G04 Created by KiCad (PCBNEW 6.0.10+dfsg-1~bpo11+1) date 2023-02-14 08:10:15*
%MOMM*%
%LPD*%
G01*
G04 APERTURE LIST*
%ADD10C,0.150000*%
%ADD11C,0.304800*%
%ADD12C,0.099060*%
%ADD13C,0.120000*%
%ADD14C,2.700000*%
G04 APERTURE END LIST*
D10*
%TO.C,U4*%
X205364180Y-120992995D02*
X206173704Y-120992995D01*
X206268942Y-121040614D01*
X206316561Y-121088233D01*
X206364180Y-121183471D01*
X206364180Y-121373947D01*
X206316561Y-121469185D01*
X206268942Y-121516804D01*
X206173704Y-121564423D01*
X205364180Y-121564423D01*
X205697514Y-122469185D02*
X206364180Y-122469185D01*
X205316561Y-122231090D02*
X206030847Y-121992995D01*
X206030847Y-122612042D01*
%TO.C,U1*%
X167505380Y-117856095D02*
X168314904Y-117856095D01*
X168410142Y-117903714D01*
X168457761Y-117951333D01*
X168505380Y-118046571D01*
X168505380Y-118237047D01*
X168457761Y-118332285D01*
X168410142Y-118379904D01*
X168314904Y-118427523D01*
X167505380Y-118427523D01*
X168505380Y-119427523D02*
X168505380Y-118856095D01*
X168505380Y-119141809D02*
X167505380Y-119141809D01*
X167648238Y-119046571D01*
X167743476Y-118951333D01*
X167791095Y-118856095D01*
%TO.C,U2*%
X170179904Y-116144380D02*
X170179904Y-116953904D01*
X170132285Y-117049142D01*
X170084666Y-117096761D01*
X169989428Y-117144380D01*
X169798952Y-117144380D01*
X169703714Y-117096761D01*
X169656095Y-117049142D01*
X169608476Y-116953904D01*
X169608476Y-116144380D01*
X169179904Y-116239619D02*
X169132285Y-116192000D01*
X169037047Y-116144380D01*
X168798952Y-116144380D01*
X168703714Y-116192000D01*
X168656095Y-116239619D01*
X168608476Y-116334857D01*
X168608476Y-116430095D01*
X168656095Y-116572952D01*
X169227523Y-117144380D01*
X168608476Y-117144380D01*
%TO.C,X1*%
X189595604Y-120232504D02*
X190774115Y-119996802D01*
X190067008Y-120703908D02*
X190302710Y-119525397D01*
X191413878Y-120636565D02*
X191009817Y-120232504D01*
X191211848Y-120434534D02*
X190504741Y-121141641D01*
X190538413Y-120973282D01*
X190538413Y-120838595D01*
X190504741Y-120737580D01*
X183494033Y-116488428D02*
X182786926Y-117195534D01*
X183763407Y-116825145D02*
X183898094Y-116892489D01*
X184066453Y-117060847D01*
X184100124Y-117161863D01*
X184100124Y-117229206D01*
X184066453Y-117330221D01*
X183999109Y-117397565D01*
X183898094Y-117431237D01*
X183830750Y-117431237D01*
X183729735Y-117397565D01*
X183561376Y-117296550D01*
X183460361Y-117262878D01*
X183393018Y-117262878D01*
X183292002Y-117296550D01*
X183224659Y-117363893D01*
X183190987Y-117464908D01*
X183190987Y-117532252D01*
X183224659Y-117633267D01*
X183393018Y-117801626D01*
X183527705Y-117868969D01*
X184504185Y-117498580D02*
X183797079Y-118205687D01*
X184537857Y-117936313D01*
X184268483Y-118677091D01*
X184975590Y-117969985D01*
X185345979Y-118340374D02*
X185480666Y-118475061D01*
X185514338Y-118576076D01*
X185514338Y-118643420D01*
X185480666Y-118811778D01*
X185379651Y-118980137D01*
X185110277Y-119249511D01*
X185009262Y-119283183D01*
X184941918Y-119283183D01*
X184840903Y-119249511D01*
X184706216Y-119114824D01*
X184672544Y-119013809D01*
X184672544Y-118946465D01*
X184706216Y-118845450D01*
X184874575Y-118677091D01*
X184975590Y-118643420D01*
X185042933Y-118643420D01*
X185143949Y-118677091D01*
X185278636Y-118811778D01*
X185312307Y-118912794D01*
X185312307Y-118980137D01*
X185278636Y-119081152D01*
X185312307Y-119586229D02*
X185312307Y-119653572D01*
X185345979Y-119754588D01*
X185514338Y-119922946D01*
X185615353Y-119956618D01*
X185682697Y-119956618D01*
X185783712Y-119922946D01*
X185851056Y-119855603D01*
X185918399Y-119720916D01*
X185918399Y-118912794D01*
X186356132Y-119350526D01*
X186389804Y-119922946D02*
X186928552Y-120461694D01*
X186760193Y-121168801D02*
X187197926Y-121606534D01*
X187231597Y-121101458D01*
X187332613Y-121202473D01*
X187433628Y-121236145D01*
X187500971Y-121236145D01*
X187601987Y-121202473D01*
X187770345Y-121034114D01*
X187804017Y-120933099D01*
X187804017Y-120865755D01*
X187770345Y-120764740D01*
X187568315Y-120562710D01*
X187467300Y-120529038D01*
X187399956Y-120529038D01*
X187433628Y-121842236D02*
X187871361Y-122279969D01*
X187905032Y-121774893D01*
X188006048Y-121875908D01*
X188107063Y-121909580D01*
X188174406Y-121909580D01*
X188275422Y-121875908D01*
X188443780Y-121707549D01*
X188477452Y-121606534D01*
X188477452Y-121539190D01*
X188443780Y-121438175D01*
X188241750Y-121236145D01*
X188140735Y-121202473D01*
X188073391Y-121202473D01*
X188511124Y-122919732D02*
X188174406Y-122583015D01*
X188477452Y-122212625D01*
X188477452Y-122279969D01*
X188511124Y-122380984D01*
X188679483Y-122549343D01*
X188780498Y-122583015D01*
X188847841Y-122583015D01*
X188948857Y-122549343D01*
X189117215Y-122380984D01*
X189150887Y-122279969D01*
X189150887Y-122212625D01*
X189117215Y-122111610D01*
X188948857Y-121943251D01*
X188847841Y-121909580D01*
X188780498Y-121909580D01*
X189925337Y-122919732D02*
X189521276Y-122515671D01*
X189723307Y-122717702D02*
X189016200Y-123424808D01*
X189049872Y-123256450D01*
X189049872Y-123121763D01*
X189016200Y-123020747D01*
X189992681Y-123391137D02*
X190329398Y-123727854D01*
X190127368Y-123121763D02*
X189655963Y-124064572D01*
X190598772Y-123593167D01*
X190834475Y-123828869D02*
X190127368Y-124535976D01*
X190464085Y-124199259D02*
X190868146Y-124603320D01*
X191238536Y-124232930D02*
X190531429Y-124940037D01*
X190901818Y-125175740D02*
X190901818Y-125243083D01*
X190935490Y-125344098D01*
X191103849Y-125512457D01*
X191204864Y-125546129D01*
X191272207Y-125546129D01*
X191373223Y-125512457D01*
X191440566Y-125445114D01*
X191507910Y-125310427D01*
X191507910Y-124502304D01*
X191945643Y-124940037D01*
X192080330Y-126017533D02*
X192551734Y-125546129D01*
X191642597Y-126118549D02*
X191979314Y-125445114D01*
X192417047Y-125882846D01*
X192854780Y-125983862D02*
X192922123Y-125983862D01*
X192922123Y-125916518D01*
X192854780Y-125916518D01*
X192854780Y-125983862D01*
X192922123Y-125916518D01*
X192686421Y-127095029D02*
X192753765Y-127162373D01*
X192854780Y-127196045D01*
X192922123Y-127196045D01*
X193023139Y-127162373D01*
X193191497Y-127061358D01*
X193359856Y-126892999D01*
X193460871Y-126724640D01*
X193494543Y-126623625D01*
X193494543Y-126556281D01*
X193460871Y-126455266D01*
X193393528Y-126387923D01*
X193292513Y-126354251D01*
X193225169Y-126354251D01*
X193124154Y-126387923D01*
X192955795Y-126488938D01*
X192787436Y-126657297D01*
X192686421Y-126825655D01*
X192652749Y-126926671D01*
X192652749Y-126994014D01*
X192686421Y-127095029D01*
X193359856Y-127768464D02*
X193427200Y-127835808D01*
X193528215Y-127869480D01*
X193595558Y-127869480D01*
X193696574Y-127835808D01*
X193864932Y-127734793D01*
X194033291Y-127566434D01*
X194134306Y-127398075D01*
X194167978Y-127297060D01*
X194167978Y-127229716D01*
X194134306Y-127128701D01*
X194066963Y-127061358D01*
X193965948Y-127027686D01*
X193898604Y-127027686D01*
X193797589Y-127061358D01*
X193629230Y-127162373D01*
X193460871Y-127330732D01*
X193359856Y-127499090D01*
X193326184Y-127600106D01*
X193326184Y-127667449D01*
X193359856Y-127768464D01*
X188883846Y-125070546D02*
X189052205Y-124902187D01*
X188816503Y-124801172D02*
X189052205Y-124902187D01*
X189153220Y-125137889D01*
X189085877Y-124666485D02*
X189052205Y-124902187D01*
X189287907Y-124868515D01*
D11*
%TO.C,D3*%
X180775428Y-137051142D02*
X179251428Y-137051142D01*
X179251428Y-137414000D01*
X179324000Y-137631714D01*
X179469142Y-137776857D01*
X179614285Y-137849428D01*
X179904571Y-137922000D01*
X180122285Y-137922000D01*
X180412571Y-137849428D01*
X180557714Y-137776857D01*
X180702857Y-137631714D01*
X180775428Y-137414000D01*
X180775428Y-137051142D01*
X179251428Y-138430000D02*
X179251428Y-139373428D01*
X179832000Y-138865428D01*
X179832000Y-139083142D01*
X179904571Y-139228285D01*
X179977142Y-139300857D01*
X180122285Y-139373428D01*
X180485142Y-139373428D01*
X180630285Y-139300857D01*
X180702857Y-139228285D01*
X180775428Y-139083142D01*
X180775428Y-138647714D01*
X180702857Y-138502571D01*
X180630285Y-138430000D01*
D12*
X178619996Y-139857721D02*
X178619996Y-140095998D01*
X178762962Y-139810066D02*
X178262582Y-139976860D01*
X178762962Y-140143653D01*
X178762962Y-136244088D02*
X178262582Y-136244088D01*
X178762962Y-136530019D02*
X178477030Y-136315570D01*
X178262582Y-136530019D02*
X178548513Y-136244088D01*
D11*
%TO.C,D2*%
X184839428Y-137051142D02*
X183315428Y-137051142D01*
X183315428Y-137414000D01*
X183388000Y-137631714D01*
X183533142Y-137776857D01*
X183678285Y-137849428D01*
X183968571Y-137922000D01*
X184186285Y-137922000D01*
X184476571Y-137849428D01*
X184621714Y-137776857D01*
X184766857Y-137631714D01*
X184839428Y-137414000D01*
X184839428Y-137051142D01*
X183460571Y-138502571D02*
X183388000Y-138575142D01*
X183315428Y-138720285D01*
X183315428Y-139083142D01*
X183388000Y-139228285D01*
X183460571Y-139300857D01*
X183605714Y-139373428D01*
X183750857Y-139373428D01*
X183968571Y-139300857D01*
X184839428Y-138430000D01*
X184839428Y-139373428D01*
D12*
X182683996Y-139857721D02*
X182683996Y-140095998D01*
X182826962Y-139810066D02*
X182326582Y-139976860D01*
X182826962Y-140143653D01*
X182826962Y-136244088D02*
X182326582Y-136244088D01*
X182826962Y-136530019D02*
X182541030Y-136315570D01*
X182326582Y-136530019D02*
X182612513Y-136244088D01*
D10*
%TO.C,D1*%
X167806380Y-112573904D02*
X166806380Y-112573904D01*
X166806380Y-112812000D01*
X166854000Y-112954857D01*
X166949238Y-113050095D01*
X167044476Y-113097714D01*
X167234952Y-113145333D01*
X167377809Y-113145333D01*
X167568285Y-113097714D01*
X167663523Y-113050095D01*
X167758761Y-112954857D01*
X167806380Y-112812000D01*
X167806380Y-112573904D01*
X167806380Y-114097714D02*
X167806380Y-113526285D01*
X167806380Y-113812000D02*
X166806380Y-113812000D01*
X166949238Y-113716761D01*
X167044476Y-113621523D01*
X167092095Y-113526285D01*
%TO.C,U3*%
X171942664Y-131108080D02*
X171942664Y-131917604D01*
X171895045Y-132012842D01*
X171847426Y-132060461D01*
X171752188Y-132108080D01*
X171561712Y-132108080D01*
X171466474Y-132060461D01*
X171418855Y-132012842D01*
X171371236Y-131917604D01*
X171371236Y-131108080D01*
X170990283Y-131108080D02*
X170371236Y-131108080D01*
X170704569Y-131489033D01*
X170561712Y-131489033D01*
X170466474Y-131536652D01*
X170418855Y-131584271D01*
X170371236Y-131679509D01*
X170371236Y-131917604D01*
X170418855Y-132012842D01*
X170466474Y-132060461D01*
X170561712Y-132108080D01*
X170847426Y-132108080D01*
X170942664Y-132060461D01*
X170990283Y-132012842D01*
X178775998Y-124822366D02*
X178299807Y-124822366D01*
X178871236Y-125108080D02*
X178537902Y-124108080D01*
X178204569Y-125108080D01*
X178014093Y-124108080D02*
X177442664Y-124108080D01*
X177728379Y-125108080D02*
X177728379Y-124108080D01*
X177156950Y-124203319D02*
X177109331Y-124155700D01*
X177014093Y-124108080D01*
X176775998Y-124108080D01*
X176680760Y-124155700D01*
X176633140Y-124203319D01*
X176585521Y-124298557D01*
X176585521Y-124393795D01*
X176633140Y-124536652D01*
X177204569Y-125108080D01*
X176585521Y-125108080D01*
X175680760Y-124108080D02*
X176156950Y-124108080D01*
X176204569Y-124584271D01*
X176156950Y-124536652D01*
X176061712Y-124489033D01*
X175823617Y-124489033D01*
X175728379Y-124536652D01*
X175680760Y-124584271D01*
X175633140Y-124679509D01*
X175633140Y-124917604D01*
X175680760Y-125012842D01*
X175728379Y-125060461D01*
X175823617Y-125108080D01*
X176061712Y-125108080D01*
X176156950Y-125060461D01*
X176204569Y-125012842D01*
X175252188Y-125060461D02*
X175109331Y-125108080D01*
X174871236Y-125108080D01*
X174775998Y-125060461D01*
X174728379Y-125012842D01*
X174680760Y-124917604D01*
X174680760Y-124822366D01*
X174728379Y-124727128D01*
X174775998Y-124679509D01*
X174871236Y-124631890D01*
X175061712Y-124584271D01*
X175156950Y-124536652D01*
X175204569Y-124489033D01*
X175252188Y-124393795D01*
X175252188Y-124298557D01*
X175204569Y-124203319D01*
X175156950Y-124155700D01*
X175061712Y-124108080D01*
X174823617Y-124108080D01*
X174680760Y-124155700D01*
X173918855Y-124584271D02*
X174252188Y-124584271D01*
X174252188Y-125108080D02*
X174252188Y-124108080D01*
X173775998Y-124108080D01*
X173204569Y-124108080D02*
X173109331Y-124108080D01*
X173014093Y-124155700D01*
X172966474Y-124203319D01*
X172918855Y-124298557D01*
X172871236Y-124489033D01*
X172871236Y-124727128D01*
X172918855Y-124917604D01*
X172966474Y-125012842D01*
X173014093Y-125060461D01*
X173109331Y-125108080D01*
X173204569Y-125108080D01*
X173299807Y-125060461D01*
X173347426Y-125012842D01*
X173395045Y-124917604D01*
X173442664Y-124727128D01*
X173442664Y-124489033D01*
X173395045Y-124298557D01*
X173347426Y-124203319D01*
X173299807Y-124155700D01*
X173204569Y-124108080D01*
X172299807Y-124536652D02*
X172395045Y-124489033D01*
X172442664Y-124441414D01*
X172490283Y-124346176D01*
X172490283Y-124298557D01*
X172442664Y-124203319D01*
X172395045Y-124155700D01*
X172299807Y-124108080D01*
X172109331Y-124108080D01*
X172014093Y-124155700D01*
X171966474Y-124203319D01*
X171918855Y-124298557D01*
X171918855Y-124346176D01*
X171966474Y-124441414D01*
X172014093Y-124489033D01*
X172109331Y-124536652D01*
X172299807Y-124536652D01*
X172395045Y-124584271D01*
X172442664Y-124631890D01*
X172490283Y-124727128D01*
X172490283Y-124917604D01*
X172442664Y-125012842D01*
X172395045Y-125060461D01*
X172299807Y-125108080D01*
X172109331Y-125108080D01*
X172014093Y-125060461D01*
X171966474Y-125012842D01*
X171918855Y-124917604D01*
X171918855Y-124727128D01*
X171966474Y-124631890D01*
X172014093Y-124584271D01*
X172109331Y-124536652D01*
X170966474Y-125108080D02*
X171537902Y-125108080D01*
X171252188Y-125108080D02*
X171252188Y-124108080D01*
X171347426Y-124250938D01*
X171442664Y-124346176D01*
X171537902Y-124393795D01*
X170537902Y-124727128D02*
X169775998Y-124727128D01*
X169347426Y-125060461D02*
X169204569Y-125108080D01*
X168966474Y-125108080D01*
X168871236Y-125060461D01*
X168823617Y-125012842D01*
X168775998Y-124917604D01*
X168775998Y-124822366D01*
X168823617Y-124727128D01*
X168871236Y-124679509D01*
X168966474Y-124631890D01*
X169156950Y-124584271D01*
X169252188Y-124536652D01*
X169299807Y-124489033D01*
X169347426Y-124393795D01*
X169347426Y-124298557D01*
X169299807Y-124203319D01*
X169252188Y-124155700D01*
X169156950Y-124108080D01*
X168918855Y-124108080D01*
X168775998Y-124155700D01*
X168395045Y-125060461D02*
X168252188Y-125108080D01*
X168014093Y-125108080D01*
X167918855Y-125060461D01*
X167871236Y-125012842D01*
X167823617Y-124917604D01*
X167823617Y-124822366D01*
X167871236Y-124727128D01*
X167918855Y-124679509D01*
X168014093Y-124631890D01*
X168204569Y-124584271D01*
X168299807Y-124536652D01*
X168347426Y-124489033D01*
X168395045Y-124393795D01*
X168395045Y-124298557D01*
X168347426Y-124203319D01*
X168299807Y-124155700D01*
X168204569Y-124108080D01*
X167966474Y-124108080D01*
X167823617Y-124155700D01*
X167395045Y-125108080D02*
X167395045Y-124108080D01*
X167395045Y-124584271D02*
X166823617Y-124584271D01*
X166823617Y-125108080D02*
X166823617Y-124108080D01*
X166347426Y-125108080D02*
X166347426Y-124108080D01*
X166109331Y-124108080D01*
X165966474Y-124155700D01*
X165871236Y-124250938D01*
X165823617Y-124346176D01*
X165775998Y-124536652D01*
X165775998Y-124679509D01*
X165823617Y-124869985D01*
X165871236Y-124965223D01*
X165966474Y-125060461D01*
X166109331Y-125108080D01*
X166347426Y-125108080D01*
X165347426Y-124727128D02*
X164585521Y-124727128D01*
X164204569Y-124108080D02*
X163537902Y-125108080D01*
X163537902Y-124108080D02*
X164204569Y-125108080D01*
D13*
%TO.C,U4*%
X204701800Y-124889900D02*
X204701800Y-125364900D01*
X204701800Y-118144900D02*
X204226800Y-118144900D01*
X197481800Y-118619900D02*
X197481800Y-118144900D01*
X197481800Y-118144900D02*
X197956800Y-118144900D01*
X197481800Y-124889900D02*
X197481800Y-125364900D01*
X197481800Y-125364900D02*
X197956800Y-125364900D01*
X204701800Y-118619900D02*
X204701800Y-118144900D01*
D10*
%TO.C,C3*%
X165862000Y-119634000D02*
X165862000Y-118618000D01*
X165862000Y-117602000D02*
X165862000Y-116586000D01*
X164338000Y-118618000D02*
X164338000Y-119634000D01*
X165862000Y-116586000D02*
X164338000Y-116586000D01*
X164338000Y-116586000D02*
X164338000Y-117602000D01*
X164338000Y-119634000D02*
X165862000Y-119634000D01*
X165989000Y-116459000D02*
G75*
G03*
X165989000Y-116459000I-127000J0D01*
G01*
D13*
%TO.C,U1*%
X168893000Y-119318000D02*
X168893000Y-117418000D01*
X171213000Y-117918000D02*
X171213000Y-119318000D01*
%TO.C,U2*%
X170318000Y-115402000D02*
X167868000Y-115402000D01*
X168518000Y-112182000D02*
X170318000Y-112182000D01*
D10*
%TO.C,C4*%
X173736000Y-112331500D02*
X172212000Y-112331500D01*
X173736000Y-115379500D02*
X173736000Y-114363500D01*
X172212000Y-112331500D02*
X172212000Y-113347500D01*
X172212000Y-114363500D02*
X172212000Y-115379500D01*
X172212000Y-115379500D02*
X173736000Y-115379500D01*
X173736000Y-113347500D02*
X173736000Y-112331500D01*
X172339000Y-115506500D02*
G75*
G03*
X172339000Y-115506500I-127000J0D01*
G01*
%TO.C,R3*%
X178625500Y-113538000D02*
X178625500Y-112014000D01*
X177609500Y-113538000D02*
X178625500Y-113538000D01*
X175577500Y-112014000D02*
X175577500Y-113538000D01*
X176593500Y-112014000D02*
X175577500Y-112014000D01*
X175577500Y-113538000D02*
X176593500Y-113538000D01*
X178625500Y-112014000D02*
X177609500Y-112014000D01*
X175577500Y-112014000D02*
G75*
G03*
X175577500Y-112014000I-127000J0D01*
G01*
%TO.C,R2*%
X175577500Y-114554000D02*
X175577500Y-116078000D01*
X175577500Y-116078000D02*
X176593500Y-116078000D01*
X176593500Y-114554000D02*
X175577500Y-114554000D01*
X177609500Y-116078000D02*
X178625500Y-116078000D01*
X178625500Y-116078000D02*
X178625500Y-114554000D01*
X178625500Y-114554000D02*
X177609500Y-114554000D01*
X175577500Y-114554000D02*
G75*
G03*
X175577500Y-114554000I-127000J0D01*
G01*
%TO.C,R8*%
X185677255Y-109409114D02*
X184958835Y-110127534D01*
X187114096Y-107972273D02*
X186395676Y-108690693D01*
X186036466Y-111205165D02*
X186754886Y-110486745D01*
X188191727Y-109049904D02*
X187114096Y-107972273D01*
X184958835Y-110127534D02*
X186036466Y-111205165D01*
X187473307Y-109768324D02*
X188191727Y-109049904D01*
X184996032Y-110217337D02*
G75*
G03*
X184996032Y-110217337I-127000J0D01*
G01*
%TO.C,R10*%
X208788000Y-114554000D02*
X210312000Y-114554000D01*
X208788000Y-111506000D02*
X208788000Y-112522000D01*
X210312000Y-111506000D02*
X208788000Y-111506000D01*
X210312000Y-114554000D02*
X210312000Y-113538000D01*
X208788000Y-113538000D02*
X208788000Y-114554000D01*
X210312000Y-112522000D02*
X210312000Y-111506000D01*
X210439000Y-111379000D02*
G75*
G03*
X210439000Y-111379000I-127000J0D01*
G01*
%TO.C,R9*%
X192087500Y-129286000D02*
X192087500Y-130810000D01*
X195135500Y-130810000D02*
X195135500Y-129286000D01*
X195135500Y-129286000D02*
X194119500Y-129286000D01*
X192087500Y-130810000D02*
X193103500Y-130810000D01*
X193103500Y-129286000D02*
X192087500Y-129286000D01*
X194119500Y-130810000D02*
X195135500Y-130810000D01*
X192087500Y-129286000D02*
G75*
G03*
X192087500Y-129286000I-127000J0D01*
G01*
%TO.C,R5*%
X170688000Y-122237500D02*
X170688000Y-121221500D01*
X169164000Y-123253500D02*
X169164000Y-124269500D01*
X169164000Y-121221500D02*
X169164000Y-122237500D01*
X170688000Y-124269500D02*
X170688000Y-123253500D01*
X170688000Y-121221500D02*
X169164000Y-121221500D01*
X169164000Y-124269500D02*
X170688000Y-124269500D01*
X170815000Y-121094500D02*
G75*
G03*
X170815000Y-121094500I-127000J0D01*
G01*
%TO.C,X1*%
X191748138Y-123191396D02*
X188212604Y-119655862D01*
X188212604Y-119655862D02*
X185949862Y-121918604D01*
X185949862Y-121918604D02*
X189485396Y-125454138D01*
X189485396Y-125454138D02*
X191748138Y-123191396D01*
%TO.C,C1*%
X202438000Y-133337300D02*
X202438000Y-134353300D01*
X203962000Y-132321300D02*
X203962000Y-131305300D01*
X202438000Y-131305300D02*
X202438000Y-132321300D01*
X203962000Y-131305300D02*
X202438000Y-131305300D01*
X203962000Y-134353300D02*
X203962000Y-133337300D01*
X202438000Y-134353300D02*
X203962000Y-134353300D01*
X202565000Y-134480300D02*
G75*
G03*
X202565000Y-134480300I-127000J0D01*
G01*
%TO.C,C2*%
X167894000Y-116649500D02*
X166370000Y-116649500D01*
X166370000Y-119697500D02*
X167894000Y-119697500D01*
X166370000Y-118681500D02*
X166370000Y-119697500D01*
X167894000Y-119697500D02*
X167894000Y-118681500D01*
X166370000Y-116649500D02*
X166370000Y-117665500D01*
X167894000Y-117665500D02*
X167894000Y-116649500D01*
X168021000Y-116522500D02*
G75*
G03*
X168021000Y-116522500I-127000J0D01*
G01*
%TO.C,R7*%
X185517635Y-112718334D02*
X186595266Y-113795965D01*
X187672896Y-110563073D02*
X186954476Y-111281493D01*
X188750527Y-111640704D02*
X187672896Y-110563073D01*
X186236055Y-111999914D02*
X185517635Y-112718334D01*
X188032107Y-112359124D02*
X188750527Y-111640704D01*
X186595266Y-113795965D02*
X187313686Y-113077545D01*
X185554832Y-112808137D02*
G75*
G03*
X185554832Y-112808137I-127000J0D01*
G01*
%TO.C,R6*%
X172720000Y-124269500D02*
X172720000Y-123253500D01*
X171196000Y-123253500D02*
X171196000Y-124269500D01*
X171196000Y-124269500D02*
X172720000Y-124269500D01*
X171196000Y-121221500D02*
X171196000Y-122237500D01*
X172720000Y-122237500D02*
X172720000Y-121221500D01*
X172720000Y-121221500D02*
X171196000Y-121221500D01*
X172847000Y-121094500D02*
G75*
G03*
X172847000Y-121094500I-127000J0D01*
G01*
D13*
%TO.C,D1*%
X166354000Y-115862000D02*
X164354000Y-115862000D01*
X166354000Y-111562000D02*
X166354000Y-115862000D01*
X164354000Y-115862000D02*
X164354000Y-111562000D01*
D10*
%TO.C,C6*%
X196469000Y-112776000D02*
X196469000Y-111760000D01*
X196469000Y-111760000D02*
X194945000Y-111760000D01*
X194945000Y-113792000D02*
X194945000Y-114808000D01*
X194945000Y-111760000D02*
X194945000Y-112776000D01*
X196469000Y-114808000D02*
X196469000Y-113792000D01*
X194945000Y-114808000D02*
X196469000Y-114808000D01*
X195072000Y-114935000D02*
G75*
G03*
X195072000Y-114935000I-127000J0D01*
G01*
%TO.C,C5*%
X192913000Y-112509300D02*
X192913000Y-113525300D01*
X192913000Y-113525300D02*
X194437000Y-113525300D01*
X194437000Y-111493300D02*
X194437000Y-110477300D01*
X194437000Y-110477300D02*
X192913000Y-110477300D01*
X192913000Y-110477300D02*
X192913000Y-111493300D01*
X194437000Y-113525300D02*
X194437000Y-112509300D01*
X193040000Y-113652300D02*
G75*
G03*
X193040000Y-113652300I-127000J0D01*
G01*
%TO.C,C9*%
X186325246Y-117571185D02*
X185247615Y-116493554D01*
X184169985Y-119726446D02*
X184888405Y-119008026D01*
X183092354Y-118648815D02*
X184169985Y-119726446D01*
X185247615Y-116493554D02*
X184529195Y-117211974D01*
X185606826Y-118289605D02*
X186325246Y-117571185D01*
X183810774Y-117930395D02*
X183092354Y-118648815D01*
X183129551Y-118738618D02*
G75*
G03*
X183129551Y-118738618I-127000J0D01*
G01*
%TO.C,U3*%
X169105760Y-130730700D02*
X173255760Y-130730700D01*
X169105760Y-125580700D02*
X169105760Y-125725700D01*
X169105760Y-130730700D02*
X169105760Y-130585700D01*
X169105760Y-130585700D02*
X167705760Y-130585700D01*
X169105760Y-125580700D02*
X173255760Y-125580700D01*
X173255760Y-130730700D02*
X173255760Y-130585700D01*
%TO.C,R1*%
X177990500Y-122936000D02*
X176974500Y-122936000D01*
X177990500Y-124460000D02*
X177990500Y-122936000D01*
X176974500Y-124460000D02*
X177990500Y-124460000D01*
X174942500Y-124460000D02*
X175958500Y-124460000D01*
X174942500Y-122936000D02*
X174942500Y-124460000D01*
X175958500Y-122936000D02*
X174942500Y-122936000D01*
X178244500Y-124460000D02*
G75*
G03*
X178244500Y-124460000I-127000J0D01*
G01*
%TO.C,C10*%
X206842676Y-129002507D02*
X207561096Y-129720927D01*
X207201886Y-127206455D02*
X206483466Y-126488035D01*
X206483466Y-126488035D02*
X205405835Y-127565666D01*
X207561096Y-129720927D02*
X208638727Y-128643296D01*
X205405835Y-127565666D02*
X206124255Y-128284086D01*
X208638727Y-128643296D02*
X207920307Y-127924876D01*
X207777899Y-129810730D02*
G75*
G03*
X207777899Y-129810730I-127000J0D01*
G01*
%TO.C,C7*%
X188154465Y-125418334D02*
X187436045Y-124699914D01*
X185999204Y-123263073D02*
X184921573Y-124340704D01*
X187076834Y-126495965D02*
X188154465Y-125418334D01*
X186358414Y-125777545D02*
X187076834Y-126495965D01*
X184921573Y-124340704D02*
X185639993Y-125059124D01*
X186717624Y-123981493D02*
X185999204Y-123263073D01*
X187293637Y-126585768D02*
G75*
G03*
X187293637Y-126585768I-127000J0D01*
G01*
%TO.C,C8*%
X186220100Y-116840000D02*
X187236100Y-116840000D01*
X188252100Y-116840000D02*
X189268100Y-116840000D01*
X187236100Y-115316000D02*
X186220100Y-115316000D01*
X189268100Y-115316000D02*
X188252100Y-115316000D01*
X186220100Y-115316000D02*
X186220100Y-116840000D01*
X189268100Y-116840000D02*
X189268100Y-115316000D01*
X186220100Y-115316000D02*
G75*
G03*
X186220100Y-115316000I-127000J0D01*
G01*
%TO.C,R4*%
X196850000Y-113792000D02*
X196850000Y-114808000D01*
X198374000Y-114808000D02*
X198374000Y-113792000D01*
X198374000Y-112776000D02*
X198374000Y-111760000D01*
X196850000Y-111760000D02*
X196850000Y-112776000D01*
X198374000Y-111760000D02*
X196850000Y-111760000D01*
X196850000Y-114808000D02*
X198374000Y-114808000D01*
X196977000Y-114935000D02*
G75*
G03*
X196977000Y-114935000I-127000J0D01*
G01*
%TD*%
D14*
%TO.C,D3*%
X180086000Y-138176000D03*
%TD*%
%TO.C,D2*%
X184150000Y-138176000D03*
%TD*%
M02*
