%TF.GenerationSoftware,KiCad,Pcbnew,6.0.10+dfsg-1~bpo11+1*%
%TF.CreationDate,2023-03-03T23:41:05+00:00*%
%TF.ProjectId,PROGLOG01,50524f47-4c4f-4473-9031-2e6b69636164,B*%
%TF.SameCoordinates,Original*%
%TF.FileFunction,Soldermask,Bot*%
%TF.FilePolarity,Negative*%
%FSLAX46Y46*%
G04 Gerber Fmt 4.6, Leading zero omitted, Abs format (unit mm)*
G04 Created by KiCad (PCBNEW 6.0.10+dfsg-1~bpo11+1) date 2023-03-03 23:41:05*
%MOMM*%
%LPD*%
G01*
G04 APERTURE LIST*
G04 Aperture macros list*
%AMRoundRect*
0 Rectangle with rounded corners*
0 $1 Rounding radius*
0 $2 $3 $4 $5 $6 $7 $8 $9 X,Y pos of 4 corners*
0 Add a 4 corners polygon primitive as box body*
4,1,4,$2,$3,$4,$5,$6,$7,$8,$9,$2,$3,0*
0 Add four circle primitives for the rounded corners*
1,1,$1+$1,$2,$3*
1,1,$1+$1,$4,$5*
1,1,$1+$1,$6,$7*
1,1,$1+$1,$8,$9*
0 Add four rect primitives between the rounded corners*
20,1,$1+$1,$2,$3,$4,$5,0*
20,1,$1+$1,$4,$5,$6,$7,0*
20,1,$1+$1,$6,$7,$8,$9,0*
20,1,$1+$1,$8,$9,$2,$3,0*%
%AMFreePoly0*
4,1,40,0.421970,0.946127,0.500227,0.935912,0.583668,0.905069,0.658160,0.856442,0.719973,0.792464,0.766009,0.716341,0.793962,0.631887,0.802432,0.543330,0.790995,0.455108,0.776627,0.416134,0.778473,0.415601,0.731082,0.251586,0.707434,0.084928,0.707327,-0.083407,0.730765,-0.250102,0.778057,-0.414553,0.776229,-0.415079,0.790746,-0.455046,0.801763,-0.543321,0.792872,-0.631837,
0.764517,-0.716157,0.718121,-0.792057,0.656006,-0.855740,0.581282,-0.904014,0.497694,-0.934460,0.462061,-0.938939,0.449504,-0.944986,0.405000,-0.950000,-0.645000,-0.950000,-0.731777,-0.930194,-0.801366,-0.874698,-0.839986,-0.794504,-0.845000,-0.750000,-0.845000,0.750000,-0.825194,0.836777,-0.769698,0.906366,-0.689504,0.944986,-0.645000,0.950000,0.405000,0.950000,0.421970,0.946127,
0.421970,0.946127,$1*%
G04 Aperture macros list end*
%ADD10RoundRect,0.200000X-0.762000X0.762000X-0.762000X-0.762000X0.762000X-0.762000X0.762000X0.762000X0*%
%ADD11RoundRect,0.200000X-0.762000X-0.762000X0.762000X-0.762000X0.762000X0.762000X-0.762000X0.762000X0*%
%ADD12C,6.400000*%
%ADD13RoundRect,0.200000X-0.838200X-0.838200X0.838200X-0.838200X0.838200X0.838200X-0.838200X0.838200X0*%
%ADD14RoundRect,0.200000X0.762000X-0.762000X0.762000X0.762000X-0.762000X0.762000X-0.762000X-0.762000X0*%
%ADD15O,1.500000X1.700000*%
%ADD16C,2.900000*%
%ADD17RoundRect,0.262500X0.062500X-0.375000X0.062500X0.375000X-0.062500X0.375000X-0.062500X-0.375000X0*%
%ADD18RoundRect,0.262500X0.375000X-0.062500X0.375000X0.062500X-0.375000X0.062500X-0.375000X-0.062500X0*%
%ADD19RoundRect,0.200000X2.800000X-2.800000X2.800000X2.800000X-2.800000X2.800000X-2.800000X-2.800000X0*%
%ADD20RoundRect,0.450000X-0.475000X0.250000X-0.475000X-0.250000X0.475000X-0.250000X0.475000X0.250000X0*%
%ADD21RoundRect,0.200000X-0.200000X0.750000X-0.200000X-0.750000X0.200000X-0.750000X0.200000X0.750000X0*%
%ADD22RoundRect,0.200000X-0.780000X-0.325000X0.780000X-0.325000X0.780000X0.325000X-0.780000X0.325000X0*%
%ADD23RoundRect,0.450000X0.475000X-0.250000X0.475000X0.250000X-0.475000X0.250000X-0.475000X-0.250000X0*%
%ADD24RoundRect,0.450000X-0.262500X-0.450000X0.262500X-0.450000X0.262500X0.450000X-0.262500X0.450000X0*%
%ADD25RoundRect,0.450000X0.132583X-0.503814X0.503814X-0.132583X-0.132583X0.503814X-0.503814X0.132583X0*%
%ADD26RoundRect,0.450000X-0.450000X0.262500X-0.450000X-0.262500X0.450000X-0.262500X0.450000X0.262500X0*%
%ADD27RoundRect,0.200000X1.042983X-0.088388X-0.088388X1.042983X-1.042983X0.088388X0.088388X-1.042983X0*%
%ADD28C,2.700000*%
%ADD29FreePoly0,270.000000*%
%ADD30FreePoly0,90.000000*%
%ADD31RoundRect,0.200000X0.850000X-0.650000X0.850000X0.650000X-0.850000X0.650000X-0.850000X-0.650000X0*%
%ADD32RoundRect,0.450000X0.159099X-0.512652X0.512652X-0.159099X-0.159099X0.512652X-0.512652X0.159099X0*%
%ADD33RoundRect,0.200000X-0.775000X-0.300000X0.775000X-0.300000X0.775000X0.300000X-0.775000X0.300000X0*%
%ADD34RoundRect,0.450000X0.262500X0.450000X-0.262500X0.450000X-0.262500X-0.450000X0.262500X-0.450000X0*%
%ADD35RoundRect,0.450000X0.512652X0.159099X0.159099X0.512652X-0.512652X-0.159099X-0.159099X-0.512652X0*%
%ADD36RoundRect,0.450000X-0.512652X-0.159099X-0.159099X-0.512652X0.512652X0.159099X0.159099X0.512652X0*%
%ADD37RoundRect,0.450000X0.450000X-0.262500X0.450000X0.262500X-0.450000X0.262500X-0.450000X-0.262500X0*%
G04 APERTURE END LIST*
D10*
%TO.C,J23*%
X204470000Y-103886000D03*
X204470000Y-106426000D03*
%TD*%
%TO.C,J21*%
X199390000Y-103886000D03*
X199390000Y-106426000D03*
%TD*%
D11*
%TO.C,J1*%
X159766000Y-112522000D03*
X162306000Y-112522000D03*
X159766000Y-115062000D03*
X162306000Y-115062000D03*
X159766000Y-117602000D03*
X162306000Y-117602000D03*
%TD*%
D10*
%TO.C,J18*%
X194310000Y-103886000D03*
X194310000Y-106426000D03*
%TD*%
%TO.C,J25*%
X207010000Y-103886000D03*
X207010000Y-106426000D03*
%TD*%
D11*
%TO.C,J24*%
X213106000Y-112776000D03*
X215646000Y-112776000D03*
%TD*%
D10*
%TO.C,J16*%
X189230000Y-103886000D03*
X189230000Y-106426000D03*
%TD*%
%TO.C,J6*%
X199390000Y-136906000D03*
X199390000Y-139446000D03*
%TD*%
%TO.C,J20*%
X196850000Y-103886000D03*
X196850000Y-106426000D03*
%TD*%
D12*
%TO.C,M4*%
X162306000Y-136906000D03*
%TD*%
D11*
%TO.C,J4*%
X159766000Y-123190000D03*
X162306000Y-123190000D03*
X159766000Y-125730000D03*
X162306000Y-125730000D03*
X159766000Y-128270000D03*
X162306000Y-128270000D03*
X159766000Y-130810000D03*
X162306000Y-130810000D03*
%TD*%
D10*
%TO.C,J5*%
X201930000Y-136906000D03*
X201930000Y-139446000D03*
%TD*%
D13*
%TO.C,SW1*%
X168909600Y-134402000D03*
X175209600Y-134402000D03*
X168909600Y-138902000D03*
X175209600Y-138902000D03*
%TD*%
D11*
%TO.C,J31*%
X213106000Y-120396000D03*
X215646000Y-120396000D03*
%TD*%
%TO.C,J29*%
X213106000Y-117856000D03*
X215646000Y-117856000D03*
%TD*%
%TO.C,J27*%
X213106000Y-122936000D03*
X215646000Y-122936000D03*
%TD*%
D10*
%TO.C,J19*%
X201930000Y-103886000D03*
X201930000Y-106426000D03*
%TD*%
D11*
%TO.C,J28*%
X213106000Y-125476000D03*
X215646000Y-125476000D03*
%TD*%
%TO.C,J30*%
X213106000Y-128016000D03*
X215646000Y-128016000D03*
%TD*%
D10*
%TO.C,J7*%
X196850000Y-136906000D03*
X196850000Y-139446000D03*
%TD*%
D12*
%TO.C,M2*%
X213106000Y-106426000D03*
%TD*%
%TO.C,M1*%
X213106000Y-136906000D03*
%TD*%
D14*
%TO.C,J2*%
X175006000Y-121412000D03*
X175006000Y-118872000D03*
%TD*%
D10*
%TO.C,J34*%
X207010000Y-136906000D03*
X207010000Y-139446000D03*
%TD*%
D11*
%TO.C,J32*%
X213106000Y-130556000D03*
X215646000Y-130556000D03*
%TD*%
%TO.C,J13*%
X180594000Y-128016000D03*
X183134000Y-128016000D03*
%TD*%
D10*
%TO.C,J11*%
X189230000Y-136906000D03*
X189230000Y-139446000D03*
%TD*%
D11*
%TO.C,J14*%
X180594000Y-130556000D03*
X183134000Y-130556000D03*
%TD*%
D10*
%TO.C,J15*%
X186690000Y-103886000D03*
X186690000Y-106426000D03*
%TD*%
D11*
%TO.C,J22*%
X213106000Y-115316000D03*
X215646000Y-115316000D03*
%TD*%
D10*
%TO.C,J33*%
X204470000Y-136906000D03*
X204470000Y-139446000D03*
%TD*%
%TO.C,J17*%
X191770000Y-103886000D03*
X191770000Y-106426000D03*
%TD*%
%TO.C,J8*%
X194310000Y-136906000D03*
X194310000Y-139446000D03*
%TD*%
%TO.C,J9*%
X191770000Y-136906000D03*
X191770000Y-139446000D03*
%TD*%
D15*
%TO.C,J26*%
X171958000Y-103632000D03*
X173228000Y-105132000D03*
X174498000Y-105132000D03*
X175768000Y-103632000D03*
X177038000Y-105132000D03*
X178308000Y-105132000D03*
X179578000Y-103632000D03*
D16*
X182328000Y-106132000D03*
X169498000Y-105132000D03*
%TD*%
D12*
%TO.C,M3*%
X162306000Y-106426000D03*
%TD*%
D11*
%TO.C,J10*%
X180594000Y-125476000D03*
X183134000Y-125476000D03*
%TD*%
%TO.C,J3*%
X180594000Y-112776000D03*
X183134000Y-112776000D03*
X180594000Y-115316000D03*
X183134000Y-115316000D03*
%TD*%
D17*
%TO.C,U4*%
X203841800Y-125192400D03*
X203341800Y-125192400D03*
X202841800Y-125192400D03*
X202341800Y-125192400D03*
X201841800Y-125192400D03*
X201341800Y-125192400D03*
X200841800Y-125192400D03*
X200341800Y-125192400D03*
X199841800Y-125192400D03*
X199341800Y-125192400D03*
X198841800Y-125192400D03*
X198341800Y-125192400D03*
D18*
X197654300Y-124504900D03*
X197654300Y-124004900D03*
X197654300Y-123504900D03*
X197654300Y-123004900D03*
X197654300Y-122504900D03*
X197654300Y-122004900D03*
X197654300Y-121504900D03*
X197654300Y-121004900D03*
X197654300Y-120504900D03*
X197654300Y-120004900D03*
X197654300Y-119504900D03*
X197654300Y-119004900D03*
D17*
X198341800Y-118317400D03*
X198841800Y-118317400D03*
X199341800Y-118317400D03*
X199841800Y-118317400D03*
X200341800Y-118317400D03*
X200841800Y-118317400D03*
X201341800Y-118317400D03*
X201841800Y-118317400D03*
X202341800Y-118317400D03*
X202841800Y-118317400D03*
X203341800Y-118317400D03*
X203841800Y-118317400D03*
D18*
X204529300Y-119004900D03*
X204529300Y-119504900D03*
X204529300Y-120004900D03*
X204529300Y-120504900D03*
X204529300Y-121004900D03*
X204529300Y-121504900D03*
X204529300Y-122004900D03*
X204529300Y-122504900D03*
X204529300Y-123004900D03*
X204529300Y-123504900D03*
X204529300Y-124004900D03*
X204529300Y-124504900D03*
D19*
X201091800Y-121754900D03*
%TD*%
D20*
%TO.C,C3*%
X165100000Y-117160000D03*
X165100000Y-119060000D03*
%TD*%
D21*
%TO.C,U1*%
X169403000Y-117288000D03*
X170053000Y-117288000D03*
X170703000Y-117288000D03*
X170703000Y-119948000D03*
X170053000Y-119948000D03*
X169403000Y-119948000D03*
%TD*%
D22*
%TO.C,U2*%
X168068000Y-114742000D03*
X168068000Y-113792000D03*
X168068000Y-112842000D03*
X170768000Y-112842000D03*
X170768000Y-114742000D03*
%TD*%
D23*
%TO.C,C4*%
X172974000Y-114805500D03*
X172974000Y-112905500D03*
%TD*%
D24*
%TO.C,R3*%
X176189000Y-112776000D03*
X178014000Y-112776000D03*
%TD*%
%TO.C,R2*%
X176189000Y-115316000D03*
X178014000Y-115316000D03*
%TD*%
D25*
%TO.C,R8*%
X185930046Y-110233954D03*
X187220516Y-108943484D03*
%TD*%
D26*
%TO.C,R10*%
X209550000Y-112117500D03*
X209550000Y-113942500D03*
%TD*%
D24*
%TO.C,R9*%
X192699000Y-130048000D03*
X194524000Y-130048000D03*
%TD*%
D26*
%TO.C,R5*%
X169926000Y-121833000D03*
X169926000Y-123658000D03*
%TD*%
D27*
%TO.C,X1*%
X188990421Y-124464188D03*
X186939812Y-122413579D03*
X188707579Y-120645812D03*
X190758188Y-122696421D03*
%TD*%
D23*
%TO.C,C1*%
X203200000Y-133779300D03*
X203200000Y-131879300D03*
%TD*%
D20*
%TO.C,C2*%
X167132000Y-117223500D03*
X167132000Y-119123500D03*
%TD*%
D25*
%TO.C,R7*%
X186488846Y-112824754D03*
X187779316Y-111534284D03*
%TD*%
D26*
%TO.C,R6*%
X171958000Y-121833000D03*
X171958000Y-123658000D03*
%TD*%
D28*
%TO.C,D3*%
X180086000Y-138176000D03*
D29*
X180086000Y-136271000D03*
D30*
X180086000Y-140081000D03*
%TD*%
D28*
%TO.C,D2*%
X184150000Y-138176000D03*
D29*
X184150000Y-136271000D03*
D30*
X184150000Y-140081000D03*
%TD*%
D31*
%TO.C,D1*%
X165354000Y-115062000D03*
X165354000Y-111562000D03*
%TD*%
D23*
%TO.C,C6*%
X195707000Y-114234000D03*
X195707000Y-112334000D03*
%TD*%
%TO.C,C5*%
X193675000Y-112951300D03*
X193675000Y-111051300D03*
%TD*%
D32*
%TO.C,C9*%
X184037049Y-118781751D03*
X185380551Y-117438249D03*
%TD*%
D33*
%TO.C,U3*%
X168480760Y-130060700D03*
X168480760Y-128790700D03*
X168480760Y-127520700D03*
X168480760Y-126250700D03*
X173880760Y-126250700D03*
X173880760Y-127520700D03*
X173880760Y-128790700D03*
X173880760Y-130060700D03*
%TD*%
D34*
%TO.C,R1*%
X177379000Y-123698000D03*
X175554000Y-123698000D03*
%TD*%
D35*
%TO.C,C10*%
X207694032Y-128776232D03*
X206350530Y-127432730D03*
%TD*%
%TO.C,C7*%
X187209770Y-125551270D03*
X185866268Y-124207768D03*
%TD*%
D36*
%TO.C,C8*%
X187466049Y-114695049D03*
X188809551Y-116038551D03*
%TD*%
D37*
%TO.C,R4*%
X197764400Y-114196500D03*
X197764400Y-112371500D03*
%TD*%
G36*
X187775423Y-124467834D02*
G01*
X187807571Y-124515947D01*
X188312797Y-125021173D01*
X188313315Y-125023105D01*
X188311901Y-125024519D01*
X188310425Y-125024342D01*
X188249125Y-124990871D01*
X188180043Y-124995811D01*
X188124599Y-125037316D01*
X188100375Y-125102262D01*
X188109450Y-125158261D01*
X188131353Y-125211139D01*
X188131092Y-125213122D01*
X188129244Y-125213887D01*
X188127702Y-125212770D01*
X188092912Y-125140320D01*
X188039136Y-125075317D01*
X187685723Y-124721904D01*
X187620580Y-124668012D01*
X187619883Y-124666137D01*
X187621158Y-124664596D01*
X187622576Y-124664606D01*
X187673913Y-124684453D01*
X187741759Y-124670537D01*
X187791312Y-124622149D01*
X187806834Y-124554667D01*
X187781538Y-124486848D01*
X187775275Y-124478685D01*
X187774983Y-124478152D01*
X187771881Y-124469629D01*
X187772228Y-124467659D01*
X187774107Y-124466975D01*
X187775423Y-124467834D01*
G37*
G36*
X171063762Y-123350619D02*
G01*
X171064124Y-123351967D01*
X171060000Y-123395593D01*
X171060000Y-123920407D01*
X171064092Y-123963691D01*
X171063260Y-123965509D01*
X171061268Y-123965697D01*
X171060272Y-123964688D01*
X171035844Y-123909471D01*
X170978030Y-123871336D01*
X170908777Y-123870512D01*
X170850083Y-123907252D01*
X170823686Y-123965052D01*
X170822057Y-123966212D01*
X170820238Y-123965381D01*
X170819876Y-123964033D01*
X170824000Y-123920407D01*
X170824000Y-123395593D01*
X170819908Y-123352309D01*
X170820740Y-123350491D01*
X170822732Y-123350303D01*
X170823728Y-123351312D01*
X170848156Y-123406529D01*
X170905970Y-123444664D01*
X170975223Y-123445488D01*
X171033917Y-123408748D01*
X171060314Y-123350948D01*
X171061943Y-123349788D01*
X171063762Y-123350619D01*
G37*
G36*
X186396368Y-123104744D02*
G01*
X186888053Y-123596429D01*
X186936166Y-123628577D01*
X186937051Y-123630371D01*
X186935940Y-123632034D01*
X186934371Y-123632119D01*
X186925848Y-123629017D01*
X186925315Y-123628725D01*
X186924800Y-123628330D01*
X186859923Y-123603249D01*
X186792077Y-123617165D01*
X186742524Y-123665552D01*
X186727002Y-123733034D01*
X186747783Y-123788749D01*
X186747451Y-123790721D01*
X186745577Y-123791420D01*
X186744368Y-123790723D01*
X186695634Y-123731815D01*
X186342221Y-123378402D01*
X186277218Y-123324626D01*
X186204755Y-123289830D01*
X186203627Y-123288179D01*
X186204493Y-123286376D01*
X186206386Y-123286179D01*
X186259226Y-123308067D01*
X186328389Y-123315502D01*
X186390318Y-123284502D01*
X186425659Y-123224939D01*
X186423185Y-123155668D01*
X186393252Y-123107209D01*
X186393193Y-123105210D01*
X186394895Y-123104159D01*
X186396368Y-123104744D01*
G37*
G36*
X171063762Y-121525619D02*
G01*
X171064124Y-121526967D01*
X171060000Y-121570593D01*
X171060000Y-122095407D01*
X171064092Y-122138691D01*
X171063260Y-122140509D01*
X171061268Y-122140697D01*
X171060272Y-122139688D01*
X171035844Y-122084471D01*
X170978030Y-122046336D01*
X170908777Y-122045512D01*
X170850083Y-122082252D01*
X170823686Y-122140052D01*
X170822057Y-122141212D01*
X170820238Y-122140381D01*
X170819876Y-122139033D01*
X170824000Y-122095407D01*
X170824000Y-121570593D01*
X170819908Y-121527309D01*
X170820740Y-121525491D01*
X170822732Y-121525303D01*
X170823728Y-121526312D01*
X170848156Y-121581529D01*
X170905970Y-121619664D01*
X170975223Y-121620488D01*
X171033917Y-121583748D01*
X171060314Y-121525948D01*
X171061943Y-121524788D01*
X171063762Y-121525619D01*
G37*
G36*
X169667264Y-120884197D02*
G01*
X169667654Y-120886159D01*
X169667082Y-120887017D01*
X169618411Y-120929870D01*
X169599425Y-120996474D01*
X169619462Y-121062769D01*
X169672223Y-121107762D01*
X169722748Y-121118544D01*
X169724234Y-121119884D01*
X169723816Y-121121839D01*
X169722331Y-121122500D01*
X169476093Y-121122500D01*
X169392111Y-121130439D01*
X169316267Y-121157073D01*
X169314301Y-121156703D01*
X169313638Y-121154816D01*
X169314839Y-121153338D01*
X169354899Y-121136745D01*
X169409058Y-121093101D01*
X169430931Y-121027386D01*
X169413803Y-120960280D01*
X169363071Y-120913046D01*
X169307635Y-120899946D01*
X169306179Y-120898575D01*
X169306639Y-120896628D01*
X169308095Y-120896000D01*
X169602801Y-120896000D01*
X169665370Y-120883554D01*
X169667264Y-120884197D01*
G37*
G36*
X170317266Y-120884197D02*
G01*
X170317656Y-120886159D01*
X170317084Y-120887017D01*
X170268414Y-120929868D01*
X170249427Y-120996471D01*
X170269463Y-121062767D01*
X170322224Y-121107761D01*
X170360306Y-121115887D01*
X170361792Y-121117226D01*
X170361835Y-121117696D01*
X170368066Y-121118517D01*
X170369653Y-121119735D01*
X170369392Y-121121718D01*
X170367805Y-121122500D01*
X169733667Y-121122500D01*
X169731935Y-121121500D01*
X169731935Y-121119500D01*
X169733104Y-121118581D01*
X169800116Y-121098905D01*
X169845471Y-121046562D01*
X169855328Y-120978009D01*
X169826523Y-120914936D01*
X169789883Y-120887281D01*
X169789103Y-120885440D01*
X169790308Y-120883843D01*
X169791478Y-120883723D01*
X169853199Y-120896000D01*
X170252801Y-120896000D01*
X170315372Y-120883554D01*
X170317266Y-120884197D01*
G37*
G36*
X165992162Y-118648840D02*
G01*
X166015405Y-118704954D01*
X166059049Y-118759113D01*
X166124764Y-118780986D01*
X166191870Y-118763858D01*
X166239244Y-118712975D01*
X166240873Y-118709409D01*
X166242502Y-118708249D01*
X166244321Y-118709080D01*
X166244579Y-118710903D01*
X166216939Y-118789611D01*
X166209000Y-118873593D01*
X166209000Y-119373407D01*
X166216939Y-119457389D01*
X166243573Y-119533232D01*
X166243203Y-119535198D01*
X166241316Y-119535861D01*
X166239838Y-119534660D01*
X166216595Y-119478546D01*
X166172951Y-119424387D01*
X166107236Y-119402514D01*
X166040130Y-119419642D01*
X165992756Y-119470525D01*
X165991127Y-119474091D01*
X165989498Y-119475251D01*
X165987679Y-119474420D01*
X165987421Y-119472597D01*
X166015061Y-119393889D01*
X166023000Y-119309907D01*
X166023000Y-118810093D01*
X166015061Y-118726111D01*
X165988427Y-118650268D01*
X165988797Y-118648302D01*
X165990684Y-118647639D01*
X165992162Y-118648840D01*
G37*
G36*
X165992162Y-116748840D02*
G01*
X166015405Y-116804954D01*
X166059049Y-116859113D01*
X166124764Y-116880986D01*
X166191870Y-116863858D01*
X166239244Y-116812975D01*
X166240873Y-116809409D01*
X166242502Y-116808249D01*
X166244321Y-116809080D01*
X166244579Y-116810903D01*
X166216939Y-116889611D01*
X166209000Y-116973593D01*
X166209000Y-117473407D01*
X166216939Y-117557389D01*
X166243573Y-117633232D01*
X166243203Y-117635198D01*
X166241316Y-117635861D01*
X166239838Y-117634660D01*
X166216595Y-117578546D01*
X166172951Y-117524387D01*
X166107236Y-117502514D01*
X166040130Y-117519642D01*
X165992756Y-117570525D01*
X165991127Y-117574091D01*
X165989498Y-117575251D01*
X165987679Y-117574420D01*
X165987421Y-117572597D01*
X166015061Y-117493889D01*
X166023000Y-117409907D01*
X166023000Y-116910093D01*
X166015061Y-116826111D01*
X165988427Y-116750268D01*
X165988797Y-116748302D01*
X165990684Y-116747639D01*
X165992162Y-116748840D01*
G37*
G36*
X196867912Y-113912918D02*
G01*
X196868274Y-113914266D01*
X196866400Y-113934093D01*
X196866400Y-114458907D01*
X196871419Y-114512000D01*
X196870587Y-114513818D01*
X196868595Y-114514006D01*
X196867599Y-114512997D01*
X196843691Y-114458953D01*
X196785877Y-114420817D01*
X196716623Y-114419993D01*
X196657929Y-114456732D01*
X196630875Y-114515971D01*
X196629246Y-114517131D01*
X196627427Y-114516300D01*
X196627065Y-114514952D01*
X196630000Y-114483907D01*
X196630000Y-113984093D01*
X196623926Y-113919834D01*
X196624758Y-113918016D01*
X196626750Y-113917828D01*
X196627746Y-113918837D01*
X196651064Y-113971549D01*
X196708875Y-114009683D01*
X196778130Y-114010508D01*
X196836824Y-113973768D01*
X196864464Y-113913247D01*
X196866093Y-113912087D01*
X196867912Y-113912918D01*
G37*
G36*
X194783372Y-112434167D02*
G01*
X194784000Y-112435623D01*
X194784000Y-112583907D01*
X194791939Y-112667889D01*
X194835950Y-112793217D01*
X194835580Y-112795183D01*
X194833693Y-112795846D01*
X194832506Y-112795135D01*
X194795099Y-112748716D01*
X194729383Y-112726845D01*
X194662278Y-112743974D01*
X194615044Y-112794706D01*
X194601946Y-112850137D01*
X194600575Y-112851593D01*
X194598628Y-112851133D01*
X194598000Y-112849677D01*
X194598000Y-112701393D01*
X194590061Y-112617411D01*
X194546050Y-112492083D01*
X194546420Y-112490117D01*
X194548307Y-112489454D01*
X194549494Y-112490165D01*
X194586901Y-112536584D01*
X194652617Y-112558455D01*
X194719722Y-112541326D01*
X194766956Y-112490594D01*
X194780054Y-112435163D01*
X194781425Y-112433707D01*
X194783372Y-112434167D01*
G37*
G36*
X196630912Y-112052337D02*
G01*
X196656000Y-112109048D01*
X196713814Y-112147184D01*
X196783068Y-112148009D01*
X196841761Y-112111269D01*
X196867646Y-112054592D01*
X196869275Y-112053432D01*
X196871094Y-112054263D01*
X196871456Y-112055611D01*
X196866400Y-112109093D01*
X196866400Y-112633907D01*
X196868252Y-112653501D01*
X196867420Y-112655319D01*
X196865428Y-112655507D01*
X196864432Y-112654498D01*
X196838754Y-112596451D01*
X196780940Y-112558316D01*
X196711686Y-112557492D01*
X196652992Y-112594231D01*
X196627694Y-112649626D01*
X196626065Y-112650786D01*
X196624246Y-112649955D01*
X196623884Y-112648607D01*
X196630000Y-112583907D01*
X196630000Y-112084093D01*
X196627092Y-112053334D01*
X196627924Y-112051516D01*
X196629916Y-112051328D01*
X196630912Y-112052337D01*
G37*
M02*
