M48
; DRILL file {KiCad 6.0.11+dfsg-1~bpo11+1} date Thu Apr 13 00:33:39 2023
; FORMAT={-:-/ absolute / metric / decimal}
; #@! TF.CreationDate,2023-04-13T00:33:39+00:00
; #@! TF.GenerationSoftware,Kicad,Pcbnew,6.0.11+dfsg-1~bpo11+1
; #@! TF.FileFunction,Plated,1,2,PTH
FMAT,2
METRIC
; #@! TA.AperFunction,Plated,PTH,ViaDrill
T1C0.400
; #@! TA.AperFunction,Plated,PTH,ComponentDrill
T2C0.740
; #@! TA.AperFunction,Plated,PTH,ComponentDrill
T3C0.889
; #@! TA.AperFunction,Plated,PTH,ComponentDrill
T4C1.000
; #@! TA.AperFunction,Plated,PTH,ComponentDrill
T5C1.350
; #@! TA.AperFunction,Plated,PTH,ComponentDrill
T6C3.000
%
G90
G05
T1
X159.004Y-120.396
X160.528Y-120.396
X162.56Y-120.396
X164.059Y-127.686
X166.573Y-121.361
X166.624Y-123.19
X166.865Y-128.791
X167.132Y-109.22
X167.589Y-111.481
X168.481Y-131.854
X168.656Y-109.22
X169.393Y-111.735
X170.18Y-109.22
X170.434Y-130.048
X171.766Y-125.16
X173.101Y-120.167
X174.498Y-111.506
X175.527Y-128.791
X175.729Y-130.061
X176.276Y-125.222
X177.038Y-125.984
X177.235Y-132.515
X177.343Y-131.496
X177.546Y-135.636
X178.206Y-108.128
X178.308Y-126.619
X178.964Y-130.709
X179.98Y-134.62
X181.356Y-118.872
X182.626Y-120.269
X184.76Y-106.782
X184.861Y-115.316
X184.912Y-121.666
X185.064Y-126.644
X187.96Y-126.746
X188.925Y-114.517
X190.348Y-116.357
X191.034Y-130.81
X192.278Y-111.76
X192.595Y-121.285
X194.564Y-128.778
X195.467Y-119.766
X196.342Y-118.364
X199.136Y-119.888
X199.136Y-121.412
X199.136Y-122.936
X200.152Y-114.046
X201.016Y-131.902
X201.842Y-127.012
X202.567Y-116.434
X203.2Y-119.888
X203.2Y-121.412
X203.2Y-122.936
X203.2Y-135.001
X205.486Y-126.238
X207.968Y-116.847
X209.503Y-129.163
X209.55Y-110.744
T2
X171.958Y-103.632
X173.228Y-105.132
X174.498Y-105.132
X175.768Y-103.632
X177.038Y-105.132
X178.308Y-105.132
X179.578Y-103.632
T3
X159.766Y-112.522
X159.766Y-115.062
X159.766Y-117.602
X159.766Y-123.19
X159.766Y-125.73
X159.766Y-128.27
X159.766Y-130.81
X162.306Y-112.522
X162.306Y-115.062
X162.306Y-117.602
X162.306Y-123.19
X162.306Y-125.73
X162.306Y-128.27
X162.306Y-130.81
X175.006Y-118.872
X175.006Y-121.412
X180.594Y-112.776
X180.594Y-115.316
X180.594Y-125.476
X180.594Y-128.016
X180.594Y-130.556
X183.134Y-112.776
X183.134Y-115.316
X183.134Y-125.476
X183.134Y-128.016
X183.134Y-130.556
X186.69Y-103.886
X186.69Y-106.426
X189.23Y-103.886
X189.23Y-106.426
X189.23Y-136.906
X189.23Y-139.446
X191.77Y-103.886
X191.77Y-106.426
X191.77Y-136.906
X191.77Y-139.446
X194.31Y-103.886
X194.31Y-106.426
X194.31Y-136.906
X194.31Y-139.446
X196.85Y-103.886
X196.85Y-106.426
X196.85Y-136.906
X196.85Y-139.446
X199.39Y-103.886
X199.39Y-106.426
X199.39Y-136.906
X199.39Y-139.446
X201.93Y-103.886
X201.93Y-106.426
X201.93Y-136.906
X201.93Y-139.446
X204.47Y-103.886
X204.47Y-106.426
X204.47Y-136.906
X204.47Y-139.446
X207.01Y-103.886
X207.01Y-106.426
X207.01Y-136.906
X207.01Y-139.446
X213.106Y-112.776
X213.106Y-115.316
X213.106Y-117.856
X213.106Y-120.396
X213.106Y-122.936
X213.106Y-125.476
X213.106Y-128.016
X213.106Y-130.556
X215.646Y-112.776
X215.646Y-115.316
X215.646Y-117.856
X215.646Y-120.396
X215.646Y-122.936
X215.646Y-125.476
X215.646Y-128.016
X215.646Y-130.556
T4
X168.91Y-134.402
X168.91Y-138.902
X175.21Y-134.402
X175.21Y-138.902
T5
X169.498Y-105.132
X182.328Y-106.132
T6
X162.306Y-106.426
X162.306Y-136.906
X213.106Y-106.426
X213.106Y-136.906
T0
M30
