%TF.GenerationSoftware,KiCad,Pcbnew,6.0.10+dfsg-1~bpo11+1*%
%TF.CreationDate,2023-02-19T23:01:33+00:00*%
%TF.ProjectId,PROGLOG01,50524f47-4c4f-4473-9031-2e6b69636164,B*%
%TF.SameCoordinates,Original*%
%TF.FileFunction,Legend,Top*%
%TF.FilePolarity,Positive*%
%FSLAX46Y46*%
G04 Gerber Fmt 4.6, Leading zero omitted, Abs format (unit mm)*
G04 Created by KiCad (PCBNEW 6.0.10+dfsg-1~bpo11+1) date 2023-02-19 23:01:33*
%MOMM*%
%LPD*%
G01*
G04 APERTURE LIST*
%ADD10C,0.200000*%
%ADD11C,0.300000*%
%ADD12C,0.203200*%
%ADD13C,0.050000*%
%ADD14C,0.150000*%
%ADD15C,0.127000*%
%ADD16C,0.120000*%
%ADD17R,1.524000X1.524000*%
%ADD18R,1.676400X1.676400*%
G04 APERTURE END LIST*
D10*
X169926000Y-125730000D02*
X167386000Y-125730000D01*
X190246000Y-129286000D02*
X190246000Y-128524000D01*
X182626000Y-133096000D02*
X182372000Y-133096000D01*
X186436000Y-133096000D02*
X190246000Y-129286000D01*
X182626000Y-133096000D02*
X186182000Y-133096000D01*
X172466000Y-124460000D02*
X169926000Y-124460000D01*
X172466000Y-118364000D02*
X169926000Y-118364000D01*
X169926000Y-118364000D02*
X167386000Y-118364000D01*
X167767000Y-129413000D02*
X167767000Y-126111000D01*
X186690000Y-133858000D02*
X191008000Y-129540000D01*
X191008000Y-129540000D02*
X191008000Y-128524000D01*
X169926000Y-129794000D02*
X169926000Y-118364000D01*
X170307000Y-121031000D02*
X170307000Y-118999000D01*
X186182000Y-133096000D02*
X186436000Y-133096000D01*
X185674000Y-133858000D02*
X184150000Y-135382000D01*
X167386000Y-129794000D02*
X172466000Y-129794000D01*
X169926000Y-120015000D02*
X167386000Y-120015000D01*
X172466000Y-129794000D02*
X172466000Y-118364000D01*
X165481000Y-120777000D02*
X165989000Y-120777000D01*
X166497000Y-119761000D02*
X165481000Y-120777000D01*
X182372000Y-133096000D02*
X180086000Y-135382000D01*
X184150000Y-135382000D02*
X184150000Y-135890000D01*
X165481000Y-120396000D02*
X165481000Y-120269000D01*
X166497000Y-119761000D02*
X167005000Y-119761000D01*
X165989000Y-120777000D02*
X165481000Y-120777000D01*
X167386000Y-118364000D02*
X167386000Y-129794000D01*
X180086000Y-135382000D02*
X180086000Y-135890000D01*
X172466000Y-128016000D02*
X169926000Y-128016000D01*
X185674000Y-133858000D02*
X186690000Y-133858000D01*
X172466000Y-121666000D02*
X169926000Y-121666000D01*
X165481000Y-120777000D02*
X165481000Y-120396000D01*
X169926000Y-121539000D02*
X167386000Y-121539000D01*
D11*
X199111428Y-110800523D02*
X199978095Y-110800523D01*
X198616190Y-111110047D02*
X199544761Y-111419571D01*
X199544761Y-110614809D01*
X199235238Y-109933857D02*
X199173333Y-110057666D01*
X199111428Y-110119571D01*
X198987619Y-110181476D01*
X198925714Y-110181476D01*
X198801904Y-110119571D01*
X198740000Y-110057666D01*
X198678095Y-109933857D01*
X198678095Y-109686238D01*
X198740000Y-109562428D01*
X198801904Y-109500523D01*
X198925714Y-109438619D01*
X198987619Y-109438619D01*
X199111428Y-109500523D01*
X199173333Y-109562428D01*
X199235238Y-109686238D01*
X199235238Y-109933857D01*
X199297142Y-110057666D01*
X199359047Y-110119571D01*
X199482857Y-110181476D01*
X199730476Y-110181476D01*
X199854285Y-110119571D01*
X199916190Y-110057666D01*
X199978095Y-109933857D01*
X199978095Y-109686238D01*
X199916190Y-109562428D01*
X199854285Y-109500523D01*
X199730476Y-109438619D01*
X199482857Y-109438619D01*
X199359047Y-109500523D01*
X199297142Y-109562428D01*
X199235238Y-109686238D01*
X199297142Y-108448142D02*
X199359047Y-108262428D01*
X199420952Y-108200523D01*
X199544761Y-108138619D01*
X199730476Y-108138619D01*
X199854285Y-108200523D01*
X199916190Y-108262428D01*
X199978095Y-108386238D01*
X199978095Y-108881476D01*
X198678095Y-108881476D01*
X198678095Y-108448142D01*
X198740000Y-108324333D01*
X198801904Y-108262428D01*
X198925714Y-108200523D01*
X199049523Y-108200523D01*
X199173333Y-108262428D01*
X199235238Y-108324333D01*
X199297142Y-108448142D01*
X199297142Y-108881476D01*
X204211071Y-131364857D02*
X205711071Y-131364857D01*
X204282500Y-131364857D02*
X204211071Y-131222000D01*
X204211071Y-130936285D01*
X204282500Y-130793428D01*
X204353928Y-130722000D01*
X204496785Y-130650571D01*
X204925357Y-130650571D01*
X205068214Y-130722000D01*
X205139642Y-130793428D01*
X205211071Y-130936285D01*
X205211071Y-131222000D01*
X205139642Y-131364857D01*
X205211071Y-129793428D02*
X205139642Y-129936285D01*
X205068214Y-130007714D01*
X204925357Y-130079142D01*
X204496785Y-130079142D01*
X204353928Y-130007714D01*
X204282500Y-129936285D01*
X204211071Y-129793428D01*
X204211071Y-129579142D01*
X204282500Y-129436285D01*
X204353928Y-129364857D01*
X204496785Y-129293428D01*
X204925357Y-129293428D01*
X205068214Y-129364857D01*
X205139642Y-129436285D01*
X205211071Y-129579142D01*
X205211071Y-129793428D01*
X204211071Y-128793428D02*
X205211071Y-128436285D01*
X204211071Y-128079142D01*
X205211071Y-127507714D02*
X204211071Y-127507714D01*
X203711071Y-127507714D02*
X203782500Y-127579142D01*
X203853928Y-127507714D01*
X203782500Y-127436285D01*
X203711071Y-127507714D01*
X203853928Y-127507714D01*
X205211071Y-126793428D02*
X203711071Y-126793428D01*
X204639642Y-126650571D02*
X205211071Y-126222000D01*
X204211071Y-126222000D02*
X204782500Y-126793428D01*
X205139642Y-125507714D02*
X205211071Y-125507714D01*
X205353928Y-125579142D01*
X205425357Y-125650571D01*
X205211071Y-124864857D02*
X203711071Y-124864857D01*
X204639642Y-124722000D02*
X205211071Y-124293428D01*
X204211071Y-124293428D02*
X204782500Y-124864857D01*
X205211071Y-123007714D02*
X204425357Y-123007714D01*
X204282500Y-123079142D01*
X204211071Y-123222000D01*
X204211071Y-123507714D01*
X204282500Y-123650571D01*
X205139642Y-123007714D02*
X205211071Y-123150571D01*
X205211071Y-123507714D01*
X205139642Y-123650571D01*
X204996785Y-123722000D01*
X204853928Y-123722000D01*
X204711071Y-123650571D01*
X204639642Y-123507714D01*
X204639642Y-123150571D01*
X204568214Y-123007714D01*
X205211071Y-122293428D02*
X203711071Y-122293428D01*
X204639642Y-122150571D02*
X205211071Y-121722000D01*
X204211071Y-121722000D02*
X204782500Y-122293428D01*
X205211071Y-120864857D02*
X205139642Y-121007714D01*
X204996785Y-121079142D01*
X203711071Y-121079142D01*
X205211071Y-120293428D02*
X204211071Y-120293428D01*
X203711071Y-120293428D02*
X203782500Y-120364857D01*
X203853928Y-120293428D01*
X203782500Y-120222000D01*
X203711071Y-120293428D01*
X203853928Y-120293428D01*
X205211071Y-119579142D02*
X203711071Y-119579142D01*
X204639642Y-119436285D02*
X205211071Y-119007714D01*
X204211071Y-119007714D02*
X204782500Y-119579142D01*
X206268928Y-127793428D02*
X206197500Y-127722000D01*
X206126071Y-127579142D01*
X206126071Y-127222000D01*
X206197500Y-127079142D01*
X206268928Y-127007714D01*
X206411785Y-126936285D01*
X206554642Y-126936285D01*
X206768928Y-127007714D01*
X207626071Y-127864857D01*
X207626071Y-126936285D01*
X206126071Y-126007714D02*
X206126071Y-125864857D01*
X206197500Y-125722000D01*
X206268928Y-125650571D01*
X206411785Y-125579142D01*
X206697500Y-125507714D01*
X207054642Y-125507714D01*
X207340357Y-125579142D01*
X207483214Y-125650571D01*
X207554642Y-125722000D01*
X207626071Y-125864857D01*
X207626071Y-126007714D01*
X207554642Y-126150571D01*
X207483214Y-126222000D01*
X207340357Y-126293428D01*
X207054642Y-126364857D01*
X206697500Y-126364857D01*
X206411785Y-126293428D01*
X206268928Y-126222000D01*
X206197500Y-126150571D01*
X206126071Y-126007714D01*
X206268928Y-124936285D02*
X206197500Y-124864857D01*
X206126071Y-124722000D01*
X206126071Y-124364857D01*
X206197500Y-124222000D01*
X206268928Y-124150571D01*
X206411785Y-124079142D01*
X206554642Y-124079142D01*
X206768928Y-124150571D01*
X207626071Y-125007714D01*
X207626071Y-124079142D01*
X206126071Y-123579142D02*
X206126071Y-122650571D01*
X206697500Y-123150571D01*
X206697500Y-122936285D01*
X206768928Y-122793428D01*
X206840357Y-122722000D01*
X206983214Y-122650571D01*
X207340357Y-122650571D01*
X207483214Y-122722000D01*
X207554642Y-122793428D01*
X207626071Y-122936285D01*
X207626071Y-123364857D01*
X207554642Y-123507714D01*
X207483214Y-123579142D01*
X208979095Y-112064095D02*
X208360047Y-112064095D01*
X208298142Y-112683142D01*
X208360047Y-112621238D01*
X208483857Y-112559333D01*
X208793380Y-112559333D01*
X208917190Y-112621238D01*
X208979095Y-112683142D01*
X209041000Y-112806952D01*
X209041000Y-113116476D01*
X208979095Y-113240285D01*
X208917190Y-113302190D01*
X208793380Y-113364095D01*
X208483857Y-113364095D01*
X208360047Y-113302190D01*
X208298142Y-113240285D01*
X210279095Y-113364095D02*
X209536238Y-113364095D01*
X209907666Y-113364095D02*
X209907666Y-112064095D01*
X209783857Y-112249809D01*
X209660047Y-112373619D01*
X209536238Y-112435523D01*
X210774333Y-112992666D02*
X211393380Y-112992666D01*
X210650523Y-113364095D02*
X211083857Y-112064095D01*
X211517190Y-113364095D01*
X184784714Y-129844095D02*
X185589476Y-129844095D01*
X185156142Y-130339333D01*
X185341857Y-130339333D01*
X185465666Y-130401238D01*
X185527571Y-130463142D01*
X185589476Y-130586952D01*
X185589476Y-130896476D01*
X185527571Y-131020285D01*
X185465666Y-131082190D01*
X185341857Y-131144095D01*
X184970428Y-131144095D01*
X184846619Y-131082190D01*
X184784714Y-131020285D01*
X186827571Y-131144095D02*
X186084714Y-131144095D01*
X186456142Y-131144095D02*
X186456142Y-129844095D01*
X186332333Y-130029809D01*
X186208523Y-130153619D01*
X186084714Y-130215523D01*
X187818047Y-130463142D02*
X188003761Y-130525047D01*
X188065666Y-130586952D01*
X188127571Y-130710761D01*
X188127571Y-130896476D01*
X188065666Y-131020285D01*
X188003761Y-131082190D01*
X187879952Y-131144095D01*
X187384714Y-131144095D01*
X187384714Y-129844095D01*
X187818047Y-129844095D01*
X187941857Y-129906000D01*
X188003761Y-129967904D01*
X188065666Y-130091714D01*
X188065666Y-130215523D01*
X188003761Y-130339333D01*
X187941857Y-130401238D01*
X187818047Y-130463142D01*
X187384714Y-130463142D01*
X210031476Y-119684095D02*
X209412428Y-119684095D01*
X209350523Y-120303142D01*
X209412428Y-120241238D01*
X209536238Y-120179333D01*
X209845761Y-120179333D01*
X209969571Y-120241238D01*
X210031476Y-120303142D01*
X210093380Y-120426952D01*
X210093380Y-120736476D01*
X210031476Y-120860285D01*
X209969571Y-120922190D01*
X209845761Y-120984095D01*
X209536238Y-120984095D01*
X209412428Y-120922190D01*
X209350523Y-120860285D01*
X211083857Y-120303142D02*
X211269571Y-120365047D01*
X211331476Y-120426952D01*
X211393380Y-120550761D01*
X211393380Y-120736476D01*
X211331476Y-120860285D01*
X211269571Y-120922190D01*
X211145761Y-120984095D01*
X210650523Y-120984095D01*
X210650523Y-119684095D01*
X211083857Y-119684095D01*
X211207666Y-119746000D01*
X211269571Y-119807904D01*
X211331476Y-119931714D01*
X211331476Y-120055523D01*
X211269571Y-120179333D01*
X211207666Y-120241238D01*
X211083857Y-120303142D01*
X210650523Y-120303142D01*
X210155285Y-129844095D02*
X209907666Y-129844095D01*
X209783857Y-129906000D01*
X209721952Y-129967904D01*
X209598142Y-130153619D01*
X209536238Y-130401238D01*
X209536238Y-130896476D01*
X209598142Y-131020285D01*
X209660047Y-131082190D01*
X209783857Y-131144095D01*
X210031476Y-131144095D01*
X210155285Y-131082190D01*
X210217190Y-131020285D01*
X210279095Y-130896476D01*
X210279095Y-130586952D01*
X210217190Y-130463142D01*
X210155285Y-130401238D01*
X210031476Y-130339333D01*
X209783857Y-130339333D01*
X209660047Y-130401238D01*
X209598142Y-130463142D01*
X209536238Y-130586952D01*
X210774333Y-130772666D02*
X211393380Y-130772666D01*
X210650523Y-131144095D02*
X211083857Y-129844095D01*
X211517190Y-131144095D01*
X184846619Y-124887904D02*
X184908523Y-124826000D01*
X185032333Y-124764095D01*
X185341857Y-124764095D01*
X185465666Y-124826000D01*
X185527571Y-124887904D01*
X185589476Y-125011714D01*
X185589476Y-125135523D01*
X185527571Y-125321238D01*
X184784714Y-126064095D01*
X185589476Y-126064095D01*
X186022809Y-124764095D02*
X186827571Y-124764095D01*
X186394238Y-125259333D01*
X186579952Y-125259333D01*
X186703761Y-125321238D01*
X186765666Y-125383142D01*
X186827571Y-125506952D01*
X186827571Y-125816476D01*
X186765666Y-125940285D01*
X186703761Y-126002190D01*
X186579952Y-126064095D01*
X186208523Y-126064095D01*
X186084714Y-126002190D01*
X186022809Y-125940285D01*
X187818047Y-125383142D02*
X188003761Y-125445047D01*
X188065666Y-125506952D01*
X188127571Y-125630761D01*
X188127571Y-125816476D01*
X188065666Y-125940285D01*
X188003761Y-126002190D01*
X187879952Y-126064095D01*
X187384714Y-126064095D01*
X187384714Y-124764095D01*
X187818047Y-124764095D01*
X187941857Y-124826000D01*
X188003761Y-124887904D01*
X188065666Y-125011714D01*
X188065666Y-125135523D01*
X188003761Y-125259333D01*
X187941857Y-125321238D01*
X187818047Y-125383142D01*
X187384714Y-125383142D01*
X191491428Y-110614809D02*
X192358095Y-110614809D01*
X190996190Y-110924333D02*
X191924761Y-111233857D01*
X191924761Y-110429095D01*
X191058095Y-110057666D02*
X191058095Y-109252904D01*
X191553333Y-109686238D01*
X191553333Y-109500523D01*
X191615238Y-109376714D01*
X191677142Y-109314809D01*
X191800952Y-109252904D01*
X192110476Y-109252904D01*
X192234285Y-109314809D01*
X192296190Y-109376714D01*
X192358095Y-109500523D01*
X192358095Y-109871952D01*
X192296190Y-109995761D01*
X192234285Y-110057666D01*
X191986666Y-108757666D02*
X191986666Y-108138619D01*
X192358095Y-108881476D02*
X191058095Y-108448142D01*
X192358095Y-108014809D01*
X165778571Y-131928571D02*
X164278571Y-131928571D01*
X164278571Y-131357142D01*
X164350000Y-131214285D01*
X164421428Y-131142857D01*
X164564285Y-131071428D01*
X164778571Y-131071428D01*
X164921428Y-131142857D01*
X164992857Y-131214285D01*
X165064285Y-131357142D01*
X165064285Y-131928571D01*
X165778571Y-129571428D02*
X165064285Y-130071428D01*
X165778571Y-130428571D02*
X164278571Y-130428571D01*
X164278571Y-129857142D01*
X164350000Y-129714285D01*
X164421428Y-129642857D01*
X164564285Y-129571428D01*
X164778571Y-129571428D01*
X164921428Y-129642857D01*
X164992857Y-129714285D01*
X165064285Y-129857142D01*
X165064285Y-130428571D01*
X164278571Y-128642857D02*
X164278571Y-128357142D01*
X164350000Y-128214285D01*
X164492857Y-128071428D01*
X164778571Y-128000000D01*
X165278571Y-128000000D01*
X165564285Y-128071428D01*
X165707142Y-128214285D01*
X165778571Y-128357142D01*
X165778571Y-128642857D01*
X165707142Y-128785714D01*
X165564285Y-128928571D01*
X165278571Y-129000000D01*
X164778571Y-129000000D01*
X164492857Y-128928571D01*
X164350000Y-128785714D01*
X164278571Y-128642857D01*
X164350000Y-126571428D02*
X164278571Y-126714285D01*
X164278571Y-126928571D01*
X164350000Y-127142857D01*
X164492857Y-127285714D01*
X164635714Y-127357142D01*
X164921428Y-127428571D01*
X165135714Y-127428571D01*
X165421428Y-127357142D01*
X165564285Y-127285714D01*
X165707142Y-127142857D01*
X165778571Y-126928571D01*
X165778571Y-126785714D01*
X165707142Y-126571428D01*
X165635714Y-126500000D01*
X165135714Y-126500000D01*
X165135714Y-126785714D01*
X165778571Y-125000000D02*
X165064285Y-125500000D01*
X165778571Y-125857142D02*
X164278571Y-125857142D01*
X164278571Y-125285714D01*
X164350000Y-125142857D01*
X164421428Y-125071428D01*
X164564285Y-125000000D01*
X164778571Y-125000000D01*
X164921428Y-125071428D01*
X164992857Y-125142857D01*
X165064285Y-125285714D01*
X165064285Y-125857142D01*
X165350000Y-124428571D02*
X165350000Y-123714285D01*
X165778571Y-124571428D02*
X164278571Y-124071428D01*
X165778571Y-123571428D01*
X165778571Y-123071428D02*
X164278571Y-123071428D01*
X165350000Y-122571428D01*
X164278571Y-122071428D01*
X165778571Y-122071428D01*
X171916595Y-111232261D02*
X171916595Y-110427500D01*
X172411833Y-110860833D01*
X172411833Y-110675119D01*
X172473738Y-110551309D01*
X172535642Y-110489404D01*
X172659452Y-110427500D01*
X172968976Y-110427500D01*
X173092785Y-110489404D01*
X173154690Y-110551309D01*
X173216595Y-110675119D01*
X173216595Y-111046547D01*
X173154690Y-111170357D01*
X173092785Y-111232261D01*
X171916595Y-109994166D02*
X171916595Y-109127500D01*
X173216595Y-109684642D01*
X172845166Y-108694166D02*
X172845166Y-108075119D01*
X173216595Y-108817976D02*
X171916595Y-108384642D01*
X173216595Y-107951309D01*
X174009595Y-111417976D02*
X174009595Y-110613214D01*
X174504833Y-111046547D01*
X174504833Y-110860833D01*
X174566738Y-110737023D01*
X174628642Y-110675119D01*
X174752452Y-110613214D01*
X175061976Y-110613214D01*
X175185785Y-110675119D01*
X175247690Y-110737023D01*
X175309595Y-110860833D01*
X175309595Y-111232261D01*
X175247690Y-111356071D01*
X175185785Y-111417976D01*
X174009595Y-109498928D02*
X174009595Y-109746547D01*
X174071500Y-109870357D01*
X174133404Y-109932261D01*
X174319119Y-110056071D01*
X174566738Y-110117976D01*
X175061976Y-110117976D01*
X175185785Y-110056071D01*
X175247690Y-109994166D01*
X175309595Y-109870357D01*
X175309595Y-109622738D01*
X175247690Y-109498928D01*
X175185785Y-109437023D01*
X175061976Y-109375119D01*
X174752452Y-109375119D01*
X174628642Y-109437023D01*
X174566738Y-109498928D01*
X174504833Y-109622738D01*
X174504833Y-109870357D01*
X174566738Y-109994166D01*
X174628642Y-110056071D01*
X174752452Y-110117976D01*
X174628642Y-108384642D02*
X174690547Y-108198928D01*
X174752452Y-108137023D01*
X174876261Y-108075119D01*
X175061976Y-108075119D01*
X175185785Y-108137023D01*
X175247690Y-108198928D01*
X175309595Y-108322738D01*
X175309595Y-108817976D01*
X174009595Y-108817976D01*
X174009595Y-108384642D01*
X174071500Y-108260833D01*
X174133404Y-108198928D01*
X174257214Y-108137023D01*
X174381023Y-108137023D01*
X174504833Y-108198928D01*
X174566738Y-108260833D01*
X174628642Y-108384642D01*
X174628642Y-108817976D01*
X176102595Y-111232261D02*
X176102595Y-110427500D01*
X176597833Y-110860833D01*
X176597833Y-110675119D01*
X176659738Y-110551309D01*
X176721642Y-110489404D01*
X176845452Y-110427500D01*
X177154976Y-110427500D01*
X177278785Y-110489404D01*
X177340690Y-110551309D01*
X177402595Y-110675119D01*
X177402595Y-111046547D01*
X177340690Y-111170357D01*
X177278785Y-111232261D01*
X177402595Y-109808452D02*
X177402595Y-109560833D01*
X177340690Y-109437023D01*
X177278785Y-109375119D01*
X177093071Y-109251309D01*
X176845452Y-109189404D01*
X176350214Y-109189404D01*
X176226404Y-109251309D01*
X176164500Y-109313214D01*
X176102595Y-109437023D01*
X176102595Y-109684642D01*
X176164500Y-109808452D01*
X176226404Y-109870357D01*
X176350214Y-109932261D01*
X176659738Y-109932261D01*
X176783547Y-109870357D01*
X176845452Y-109808452D01*
X176907357Y-109684642D01*
X176907357Y-109437023D01*
X176845452Y-109313214D01*
X176783547Y-109251309D01*
X176659738Y-109189404D01*
X177031166Y-108694166D02*
X177031166Y-108075119D01*
X177402595Y-108817976D02*
X176102595Y-108384642D01*
X177402595Y-107951309D01*
X178195595Y-111417976D02*
X178195595Y-110613214D01*
X178690833Y-111046547D01*
X178690833Y-110860833D01*
X178752738Y-110737023D01*
X178814642Y-110675119D01*
X178938452Y-110613214D01*
X179247976Y-110613214D01*
X179371785Y-110675119D01*
X179433690Y-110737023D01*
X179495595Y-110860833D01*
X179495595Y-111232261D01*
X179433690Y-111356071D01*
X179371785Y-111417976D01*
X178752738Y-109870357D02*
X178690833Y-109994166D01*
X178628928Y-110056071D01*
X178505119Y-110117976D01*
X178443214Y-110117976D01*
X178319404Y-110056071D01*
X178257500Y-109994166D01*
X178195595Y-109870357D01*
X178195595Y-109622738D01*
X178257500Y-109498928D01*
X178319404Y-109437023D01*
X178443214Y-109375119D01*
X178505119Y-109375119D01*
X178628928Y-109437023D01*
X178690833Y-109498928D01*
X178752738Y-109622738D01*
X178752738Y-109870357D01*
X178814642Y-109994166D01*
X178876547Y-110056071D01*
X179000357Y-110117976D01*
X179247976Y-110117976D01*
X179371785Y-110056071D01*
X179433690Y-109994166D01*
X179495595Y-109870357D01*
X179495595Y-109622738D01*
X179433690Y-109498928D01*
X179371785Y-109437023D01*
X179247976Y-109375119D01*
X179000357Y-109375119D01*
X178876547Y-109437023D01*
X178814642Y-109498928D01*
X178752738Y-109622738D01*
X178814642Y-108384642D02*
X178876547Y-108198928D01*
X178938452Y-108137023D01*
X179062261Y-108075119D01*
X179247976Y-108075119D01*
X179371785Y-108137023D01*
X179433690Y-108198928D01*
X179495595Y-108322738D01*
X179495595Y-108817976D01*
X178195595Y-108817976D01*
X178195595Y-108384642D01*
X178257500Y-108260833D01*
X178319404Y-108198928D01*
X178443214Y-108137023D01*
X178567023Y-108137023D01*
X178690833Y-108198928D01*
X178752738Y-108260833D01*
X178814642Y-108384642D01*
X178814642Y-108817976D01*
X188641904Y-135193380D02*
X188580000Y-135131476D01*
X188518095Y-135007666D01*
X188518095Y-134698142D01*
X188580000Y-134574333D01*
X188641904Y-134512428D01*
X188765714Y-134450523D01*
X188889523Y-134450523D01*
X189075238Y-134512428D01*
X189818095Y-135255285D01*
X189818095Y-134450523D01*
X188951428Y-133336238D02*
X189818095Y-133336238D01*
X188456190Y-133645761D02*
X189384761Y-133955285D01*
X189384761Y-133150523D01*
X189446666Y-132717190D02*
X189446666Y-132098142D01*
X189818095Y-132841000D02*
X188518095Y-132407666D01*
X189818095Y-131974333D01*
X204315238Y-134945761D02*
X204253333Y-135069571D01*
X204191428Y-135131476D01*
X204067619Y-135193380D01*
X204005714Y-135193380D01*
X203881904Y-135131476D01*
X203820000Y-135069571D01*
X203758095Y-134945761D01*
X203758095Y-134698142D01*
X203820000Y-134574333D01*
X203881904Y-134512428D01*
X204005714Y-134450523D01*
X204067619Y-134450523D01*
X204191428Y-134512428D01*
X204253333Y-134574333D01*
X204315238Y-134698142D01*
X204315238Y-134945761D01*
X204377142Y-135069571D01*
X204439047Y-135131476D01*
X204562857Y-135193380D01*
X204810476Y-135193380D01*
X204934285Y-135131476D01*
X204996190Y-135069571D01*
X205058095Y-134945761D01*
X205058095Y-134698142D01*
X204996190Y-134574333D01*
X204934285Y-134512428D01*
X204810476Y-134450523D01*
X204562857Y-134450523D01*
X204439047Y-134512428D01*
X204377142Y-134574333D01*
X204315238Y-134698142D01*
X204686666Y-133955285D02*
X204686666Y-133336238D01*
X205058095Y-134079095D02*
X203758095Y-133645761D01*
X205058095Y-133212428D01*
X209536238Y-124887904D02*
X209598142Y-124826000D01*
X209721952Y-124764095D01*
X210031476Y-124764095D01*
X210155285Y-124826000D01*
X210217190Y-124887904D01*
X210279095Y-125011714D01*
X210279095Y-125135523D01*
X210217190Y-125321238D01*
X209474333Y-126064095D01*
X210279095Y-126064095D01*
X210774333Y-125692666D02*
X211393380Y-125692666D01*
X210650523Y-126064095D02*
X211083857Y-124764095D01*
X211517190Y-126064095D01*
X171976190Y-123743952D02*
X172038095Y-123558238D01*
X172038095Y-123248714D01*
X171976190Y-123124904D01*
X171914285Y-123063000D01*
X171790476Y-123001095D01*
X171666666Y-123001095D01*
X171542857Y-123063000D01*
X171480952Y-123124904D01*
X171419047Y-123248714D01*
X171357142Y-123496333D01*
X171295238Y-123620142D01*
X171233333Y-123682047D01*
X171109523Y-123743952D01*
X170985714Y-123743952D01*
X170861904Y-123682047D01*
X170800000Y-123620142D01*
X170738095Y-123496333D01*
X170738095Y-123186809D01*
X170800000Y-123001095D01*
X172038095Y-122443952D02*
X170738095Y-122443952D01*
X171329000Y-112064095D02*
X171762333Y-113364095D01*
X172195666Y-112064095D01*
X173371857Y-113240285D02*
X173309952Y-113302190D01*
X173124238Y-113364095D01*
X173000428Y-113364095D01*
X172814714Y-113302190D01*
X172690904Y-113178380D01*
X172629000Y-113054571D01*
X172567095Y-112806952D01*
X172567095Y-112621238D01*
X172629000Y-112373619D01*
X172690904Y-112249809D01*
X172814714Y-112126000D01*
X173000428Y-112064095D01*
X173124238Y-112064095D01*
X173309952Y-112126000D01*
X173371857Y-112187904D01*
X174671857Y-113240285D02*
X174609952Y-113302190D01*
X174424238Y-113364095D01*
X174300428Y-113364095D01*
X174114714Y-113302190D01*
X173990904Y-113178380D01*
X173929000Y-113054571D01*
X173867095Y-112806952D01*
X173867095Y-112621238D01*
X173929000Y-112373619D01*
X173990904Y-112249809D01*
X174114714Y-112126000D01*
X174300428Y-112064095D01*
X174424238Y-112064095D01*
X174609952Y-112126000D01*
X174671857Y-112187904D01*
X175229000Y-113364095D02*
X175229000Y-112064095D01*
X176095666Y-112064095D02*
X176343285Y-112064095D01*
X176467095Y-112126000D01*
X176590904Y-112249809D01*
X176652809Y-112497428D01*
X176652809Y-112930761D01*
X176590904Y-113178380D01*
X176467095Y-113302190D01*
X176343285Y-113364095D01*
X176095666Y-113364095D01*
X175971857Y-113302190D01*
X175848047Y-113178380D01*
X175786142Y-112930761D01*
X175786142Y-112497428D01*
X175848047Y-112249809D01*
X175971857Y-112126000D01*
X176095666Y-112064095D01*
X176900428Y-113487904D02*
X177890904Y-113487904D01*
X178448047Y-112064095D02*
X178571857Y-112064095D01*
X178695666Y-112126000D01*
X178757571Y-112187904D01*
X178819476Y-112311714D01*
X178881380Y-112559333D01*
X178881380Y-112868857D01*
X178819476Y-113116476D01*
X178757571Y-113240285D01*
X178695666Y-113302190D01*
X178571857Y-113364095D01*
X178448047Y-113364095D01*
X178324238Y-113302190D01*
X178262333Y-113240285D01*
X178200428Y-113116476D01*
X178138523Y-112868857D01*
X178138523Y-112559333D01*
X178200428Y-112311714D01*
X178262333Y-112187904D01*
X178324238Y-112126000D01*
X178448047Y-112064095D01*
X165778571Y-118490571D02*
X164278571Y-118490571D01*
X165778571Y-117776285D02*
X164278571Y-117776285D01*
X165778571Y-116919142D01*
X164278571Y-116919142D01*
X164278571Y-115204857D02*
X164278571Y-114276285D01*
X164850000Y-114776285D01*
X164850000Y-114562000D01*
X164921428Y-114419142D01*
X164992857Y-114347714D01*
X165135714Y-114276285D01*
X165492857Y-114276285D01*
X165635714Y-114347714D01*
X165707142Y-114419142D01*
X165778571Y-114562000D01*
X165778571Y-114990571D01*
X165707142Y-115133428D01*
X165635714Y-115204857D01*
X164278571Y-113847714D02*
X165778571Y-113347714D01*
X164278571Y-112847714D01*
X164278571Y-112490571D02*
X164278571Y-111562000D01*
X164850000Y-112062000D01*
X164850000Y-111847714D01*
X164921428Y-111704857D01*
X164992857Y-111633428D01*
X165135714Y-111562000D01*
X165492857Y-111562000D01*
X165635714Y-111633428D01*
X165707142Y-111704857D01*
X165778571Y-111847714D01*
X165778571Y-112276285D01*
X165707142Y-112419142D01*
X165635714Y-112490571D01*
X207598095Y-111976714D02*
X206979047Y-112410047D01*
X207598095Y-112719571D02*
X206298095Y-112719571D01*
X206298095Y-112224333D01*
X206360000Y-112100523D01*
X206421904Y-112038619D01*
X206545714Y-111976714D01*
X206731428Y-111976714D01*
X206855238Y-112038619D01*
X206917142Y-112100523D01*
X206979047Y-112224333D01*
X206979047Y-112719571D01*
X206360000Y-110738619D02*
X206298095Y-110862428D01*
X206298095Y-111048142D01*
X206360000Y-111233857D01*
X206483809Y-111357666D01*
X206607619Y-111419571D01*
X206855238Y-111481476D01*
X207040952Y-111481476D01*
X207288571Y-111419571D01*
X207412380Y-111357666D01*
X207536190Y-111233857D01*
X207598095Y-111048142D01*
X207598095Y-110924333D01*
X207536190Y-110738619D01*
X207474285Y-110676714D01*
X207040952Y-110676714D01*
X207040952Y-110924333D01*
X206917142Y-109686238D02*
X206979047Y-109500523D01*
X207040952Y-109438619D01*
X207164761Y-109376714D01*
X207350476Y-109376714D01*
X207474285Y-109438619D01*
X207536190Y-109500523D01*
X207598095Y-109624333D01*
X207598095Y-110119571D01*
X206298095Y-110119571D01*
X206298095Y-109686238D01*
X206360000Y-109562428D01*
X206421904Y-109500523D01*
X206545714Y-109438619D01*
X206669523Y-109438619D01*
X206793333Y-109500523D01*
X206855238Y-109562428D01*
X206917142Y-109686238D01*
X206917142Y-110119571D01*
X206298095Y-108571952D02*
X206298095Y-108448142D01*
X206360000Y-108324333D01*
X206421904Y-108262428D01*
X206545714Y-108200523D01*
X206793333Y-108138619D01*
X207102857Y-108138619D01*
X207350476Y-108200523D01*
X207474285Y-108262428D01*
X207536190Y-108324333D01*
X207598095Y-108448142D01*
X207598095Y-108571952D01*
X207536190Y-108695761D01*
X207474285Y-108757666D01*
X207350476Y-108819571D01*
X207102857Y-108881476D01*
X206793333Y-108881476D01*
X206545714Y-108819571D01*
X206421904Y-108757666D01*
X206360000Y-108695761D01*
X206298095Y-108571952D01*
X199978095Y-134450523D02*
X199978095Y-135193380D01*
X199978095Y-134821952D02*
X198678095Y-134821952D01*
X198863809Y-134945761D01*
X198987619Y-135069571D01*
X199049523Y-135193380D01*
X198678095Y-133336238D02*
X198678095Y-133583857D01*
X198740000Y-133707666D01*
X198801904Y-133769571D01*
X198987619Y-133893380D01*
X199235238Y-133955285D01*
X199730476Y-133955285D01*
X199854285Y-133893380D01*
X199916190Y-133831476D01*
X199978095Y-133707666D01*
X199978095Y-133460047D01*
X199916190Y-133336238D01*
X199854285Y-133274333D01*
X199730476Y-133212428D01*
X199420952Y-133212428D01*
X199297142Y-133274333D01*
X199235238Y-133336238D01*
X199173333Y-133460047D01*
X199173333Y-133707666D01*
X199235238Y-133831476D01*
X199297142Y-133893380D01*
X199420952Y-133955285D01*
X199606666Y-132717190D02*
X199606666Y-132098142D01*
X199978095Y-132841000D02*
X198678095Y-132407666D01*
X199978095Y-131974333D01*
X207598095Y-135069571D02*
X207598095Y-134821952D01*
X207536190Y-134698142D01*
X207474285Y-134636238D01*
X207288571Y-134512428D01*
X207040952Y-134450523D01*
X206545714Y-134450523D01*
X206421904Y-134512428D01*
X206360000Y-134574333D01*
X206298095Y-134698142D01*
X206298095Y-134945761D01*
X206360000Y-135069571D01*
X206421904Y-135131476D01*
X206545714Y-135193380D01*
X206855238Y-135193380D01*
X206979047Y-135131476D01*
X207040952Y-135069571D01*
X207102857Y-134945761D01*
X207102857Y-134698142D01*
X207040952Y-134574333D01*
X206979047Y-134512428D01*
X206855238Y-134450523D01*
X206917142Y-133460047D02*
X206979047Y-133274333D01*
X207040952Y-133212428D01*
X207164761Y-133150523D01*
X207350476Y-133150523D01*
X207474285Y-133212428D01*
X207536190Y-133274333D01*
X207598095Y-133398142D01*
X207598095Y-133893380D01*
X206298095Y-133893380D01*
X206298095Y-133460047D01*
X206360000Y-133336238D01*
X206421904Y-133274333D01*
X206545714Y-133212428D01*
X206669523Y-133212428D01*
X206793333Y-133274333D01*
X206855238Y-133336238D01*
X206917142Y-133460047D01*
X206917142Y-133893380D01*
X198734071Y-129872500D02*
X197234071Y-129872500D01*
X197234071Y-129301071D01*
X197305500Y-129158214D01*
X197376928Y-129086785D01*
X197519785Y-129015357D01*
X197734071Y-129015357D01*
X197876928Y-129086785D01*
X197948357Y-129158214D01*
X198019785Y-129301071D01*
X198019785Y-129872500D01*
X198734071Y-127515357D02*
X198019785Y-128015357D01*
X198734071Y-128372500D02*
X197234071Y-128372500D01*
X197234071Y-127801071D01*
X197305500Y-127658214D01*
X197376928Y-127586785D01*
X197519785Y-127515357D01*
X197734071Y-127515357D01*
X197876928Y-127586785D01*
X197948357Y-127658214D01*
X198019785Y-127801071D01*
X198019785Y-128372500D01*
X197234071Y-126586785D02*
X197234071Y-126301071D01*
X197305500Y-126158214D01*
X197448357Y-126015357D01*
X197734071Y-125943928D01*
X198234071Y-125943928D01*
X198519785Y-126015357D01*
X198662642Y-126158214D01*
X198734071Y-126301071D01*
X198734071Y-126586785D01*
X198662642Y-126729642D01*
X198519785Y-126872500D01*
X198234071Y-126943928D01*
X197734071Y-126943928D01*
X197448357Y-126872500D01*
X197305500Y-126729642D01*
X197234071Y-126586785D01*
X197305500Y-124515357D02*
X197234071Y-124658214D01*
X197234071Y-124872500D01*
X197305500Y-125086785D01*
X197448357Y-125229642D01*
X197591214Y-125301071D01*
X197876928Y-125372500D01*
X198091214Y-125372500D01*
X198376928Y-125301071D01*
X198519785Y-125229642D01*
X198662642Y-125086785D01*
X198734071Y-124872500D01*
X198734071Y-124729642D01*
X198662642Y-124515357D01*
X198591214Y-124443928D01*
X198091214Y-124443928D01*
X198091214Y-124729642D01*
X198734071Y-123086785D02*
X198734071Y-123801071D01*
X197234071Y-123801071D01*
X197234071Y-122301071D02*
X197234071Y-122015357D01*
X197305500Y-121872500D01*
X197448357Y-121729642D01*
X197734071Y-121658214D01*
X198234071Y-121658214D01*
X198519785Y-121729642D01*
X198662642Y-121872500D01*
X198734071Y-122015357D01*
X198734071Y-122301071D01*
X198662642Y-122443928D01*
X198519785Y-122586785D01*
X198234071Y-122658214D01*
X197734071Y-122658214D01*
X197448357Y-122586785D01*
X197305500Y-122443928D01*
X197234071Y-122301071D01*
X197305500Y-120229642D02*
X197234071Y-120372500D01*
X197234071Y-120586785D01*
X197305500Y-120801071D01*
X197448357Y-120943928D01*
X197591214Y-121015357D01*
X197876928Y-121086785D01*
X198091214Y-121086785D01*
X198376928Y-121015357D01*
X198519785Y-120943928D01*
X198662642Y-120801071D01*
X198734071Y-120586785D01*
X198734071Y-120443928D01*
X198662642Y-120229642D01*
X198591214Y-120158214D01*
X198091214Y-120158214D01*
X198091214Y-120443928D01*
X197234071Y-119229642D02*
X197234071Y-119086785D01*
X197305500Y-118943928D01*
X197376928Y-118872500D01*
X197519785Y-118801071D01*
X197805500Y-118729642D01*
X198162642Y-118729642D01*
X198448357Y-118801071D01*
X198591214Y-118872500D01*
X198662642Y-118943928D01*
X198734071Y-119086785D01*
X198734071Y-119229642D01*
X198662642Y-119372500D01*
X198591214Y-119443928D01*
X198448357Y-119515357D01*
X198162642Y-119586785D01*
X197805500Y-119586785D01*
X197519785Y-119515357D01*
X197376928Y-119443928D01*
X197305500Y-119372500D01*
X197234071Y-119229642D01*
X198734071Y-117301071D02*
X198734071Y-118158214D01*
X198734071Y-117729642D02*
X197234071Y-117729642D01*
X197448357Y-117872500D01*
X197591214Y-118015357D01*
X197662642Y-118158214D01*
X197948357Y-116158214D02*
X198019785Y-115943928D01*
X198091214Y-115872500D01*
X198234071Y-115801071D01*
X198448357Y-115801071D01*
X198591214Y-115872500D01*
X198662642Y-115943928D01*
X198734071Y-116086785D01*
X198734071Y-116658214D01*
X197234071Y-116658214D01*
X197234071Y-116158214D01*
X197305500Y-116015357D01*
X197376928Y-115943928D01*
X197519785Y-115872500D01*
X197662642Y-115872500D01*
X197805500Y-115943928D01*
X197876928Y-116015357D01*
X197948357Y-116158214D01*
X197948357Y-116658214D01*
X201149071Y-126979642D02*
X199649071Y-126979642D01*
X200720500Y-126479642D01*
X199649071Y-125979642D01*
X201149071Y-125979642D01*
X201149071Y-124551071D02*
X201149071Y-125265357D01*
X199649071Y-125265357D01*
X200720500Y-124122500D02*
X200720500Y-123408214D01*
X201149071Y-124265357D02*
X199649071Y-123765357D01*
X201149071Y-123265357D01*
X200363357Y-122265357D02*
X200434785Y-122051071D01*
X200506214Y-121979642D01*
X200649071Y-121908214D01*
X200863357Y-121908214D01*
X201006214Y-121979642D01*
X201077642Y-122051071D01*
X201149071Y-122193928D01*
X201149071Y-122765357D01*
X199649071Y-122765357D01*
X199649071Y-122265357D01*
X199720500Y-122122500D01*
X199791928Y-122051071D01*
X199934785Y-121979642D01*
X200077642Y-121979642D01*
X200220500Y-122051071D01*
X200291928Y-122122500D01*
X200363357Y-122265357D01*
X200363357Y-122765357D01*
X201006214Y-121265357D02*
X201077642Y-121193928D01*
X201149071Y-121265357D01*
X201077642Y-121336785D01*
X201006214Y-121265357D01*
X201149071Y-121265357D01*
X201077642Y-119908214D02*
X201149071Y-120051071D01*
X201149071Y-120336785D01*
X201077642Y-120479642D01*
X201006214Y-120551071D01*
X200863357Y-120622500D01*
X200434785Y-120622500D01*
X200291928Y-120551071D01*
X200220500Y-120479642D01*
X200149071Y-120336785D01*
X200149071Y-120051071D01*
X200220500Y-119908214D01*
X200149071Y-119408214D02*
X200149071Y-118622500D01*
X201149071Y-119408214D01*
X201149071Y-118622500D01*
X197438095Y-134450523D02*
X197438095Y-135193380D01*
X197438095Y-134821952D02*
X196138095Y-134821952D01*
X196323809Y-134945761D01*
X196447619Y-135069571D01*
X196509523Y-135193380D01*
X196695238Y-133707666D02*
X196633333Y-133831476D01*
X196571428Y-133893380D01*
X196447619Y-133955285D01*
X196385714Y-133955285D01*
X196261904Y-133893380D01*
X196200000Y-133831476D01*
X196138095Y-133707666D01*
X196138095Y-133460047D01*
X196200000Y-133336238D01*
X196261904Y-133274333D01*
X196385714Y-133212428D01*
X196447619Y-133212428D01*
X196571428Y-133274333D01*
X196633333Y-133336238D01*
X196695238Y-133460047D01*
X196695238Y-133707666D01*
X196757142Y-133831476D01*
X196819047Y-133893380D01*
X196942857Y-133955285D01*
X197190476Y-133955285D01*
X197314285Y-133893380D01*
X197376190Y-133831476D01*
X197438095Y-133707666D01*
X197438095Y-133460047D01*
X197376190Y-133336238D01*
X197314285Y-133274333D01*
X197190476Y-133212428D01*
X196942857Y-133212428D01*
X196819047Y-133274333D01*
X196757142Y-133336238D01*
X196695238Y-133460047D01*
X197066666Y-132717190D02*
X197066666Y-132098142D01*
X197438095Y-132841000D02*
X196138095Y-132407666D01*
X197438095Y-131974333D01*
X210155285Y-127737428D02*
X210155285Y-128604095D01*
X209845761Y-127242190D02*
X209536238Y-128170761D01*
X210341000Y-128170761D01*
X210774333Y-128232666D02*
X211393380Y-128232666D01*
X210650523Y-128604095D02*
X211083857Y-127304095D01*
X211517190Y-128604095D01*
X171976190Y-127290380D02*
X172038095Y-127104666D01*
X172038095Y-126795142D01*
X171976190Y-126671333D01*
X171914285Y-126609428D01*
X171790476Y-126547523D01*
X171666666Y-126547523D01*
X171542857Y-126609428D01*
X171480952Y-126671333D01*
X171419047Y-126795142D01*
X171357142Y-127042761D01*
X171295238Y-127166571D01*
X171233333Y-127228476D01*
X171109523Y-127290380D01*
X170985714Y-127290380D01*
X170861904Y-127228476D01*
X170800000Y-127166571D01*
X170738095Y-127042761D01*
X170738095Y-126733238D01*
X170800000Y-126547523D01*
X170738095Y-125742761D02*
X170738095Y-125495142D01*
X170800000Y-125371333D01*
X170923809Y-125247523D01*
X171171428Y-125185619D01*
X171604761Y-125185619D01*
X171852380Y-125247523D01*
X171976190Y-125371333D01*
X172038095Y-125495142D01*
X172038095Y-125742761D01*
X171976190Y-125866571D01*
X171852380Y-125990380D01*
X171604761Y-126052285D01*
X171171428Y-126052285D01*
X170923809Y-125990380D01*
X170800000Y-125866571D01*
X170738095Y-125742761D01*
X191181904Y-135193380D02*
X191120000Y-135131476D01*
X191058095Y-135007666D01*
X191058095Y-134698142D01*
X191120000Y-134574333D01*
X191181904Y-134512428D01*
X191305714Y-134450523D01*
X191429523Y-134450523D01*
X191615238Y-134512428D01*
X192358095Y-135255285D01*
X192358095Y-134450523D01*
X191181904Y-133955285D02*
X191120000Y-133893380D01*
X191058095Y-133769571D01*
X191058095Y-133460047D01*
X191120000Y-133336238D01*
X191181904Y-133274333D01*
X191305714Y-133212428D01*
X191429523Y-133212428D01*
X191615238Y-133274333D01*
X192358095Y-134017190D01*
X192358095Y-133212428D01*
X191677142Y-132221952D02*
X191739047Y-132036238D01*
X191800952Y-131974333D01*
X191924761Y-131912428D01*
X192110476Y-131912428D01*
X192234285Y-131974333D01*
X192296190Y-132036238D01*
X192358095Y-132160047D01*
X192358095Y-132655285D01*
X191058095Y-132655285D01*
X191058095Y-132221952D01*
X191120000Y-132098142D01*
X191181904Y-132036238D01*
X191305714Y-131974333D01*
X191429523Y-131974333D01*
X191553333Y-132036238D01*
X191615238Y-132098142D01*
X191677142Y-132221952D01*
X191677142Y-132655285D01*
X178357595Y-123961904D02*
X177057595Y-123961904D01*
X177057595Y-123652380D01*
X177119500Y-123466666D01*
X177243309Y-123342857D01*
X177367119Y-123280952D01*
X177614738Y-123219047D01*
X177800452Y-123219047D01*
X178048071Y-123280952D01*
X178171880Y-123342857D01*
X178295690Y-123466666D01*
X178357595Y-123652380D01*
X178357595Y-123961904D01*
X177676642Y-122661904D02*
X177676642Y-122228571D01*
X178357595Y-122042857D02*
X178357595Y-122661904D01*
X177057595Y-122661904D01*
X177057595Y-122042857D01*
X177057595Y-121671428D02*
X177057595Y-120928571D01*
X178357595Y-121300000D02*
X177057595Y-121300000D01*
X177986166Y-120557142D02*
X177986166Y-119938095D01*
X178357595Y-120680952D02*
X177057595Y-120247619D01*
X178357595Y-119814285D01*
X178233785Y-118638095D02*
X178295690Y-118700000D01*
X178357595Y-118885714D01*
X178357595Y-119009523D01*
X178295690Y-119195238D01*
X178171880Y-119319047D01*
X178048071Y-119380952D01*
X177800452Y-119442857D01*
X177614738Y-119442857D01*
X177367119Y-119380952D01*
X177243309Y-119319047D01*
X177119500Y-119195238D01*
X177057595Y-119009523D01*
X177057595Y-118885714D01*
X177119500Y-118700000D01*
X177181404Y-118638095D01*
X178357595Y-118080952D02*
X177057595Y-118080952D01*
X177676642Y-118080952D02*
X177676642Y-117338095D01*
X178357595Y-117338095D02*
X177057595Y-117338095D01*
X179769642Y-122847619D02*
X179769642Y-123280952D01*
X180450595Y-123280952D02*
X179150595Y-123280952D01*
X179150595Y-122661904D01*
X180450595Y-121547619D02*
X180450595Y-122166666D01*
X179150595Y-122166666D01*
X180079166Y-121176190D02*
X180079166Y-120557142D01*
X180450595Y-121300000D02*
X179150595Y-120866666D01*
X180450595Y-120433333D01*
X180388690Y-120061904D02*
X180450595Y-119876190D01*
X180450595Y-119566666D01*
X180388690Y-119442857D01*
X180326785Y-119380952D01*
X180202976Y-119319047D01*
X180079166Y-119319047D01*
X179955357Y-119380952D01*
X179893452Y-119442857D01*
X179831547Y-119566666D01*
X179769642Y-119814285D01*
X179707738Y-119938095D01*
X179645833Y-120000000D01*
X179522023Y-120061904D01*
X179398214Y-120061904D01*
X179274404Y-120000000D01*
X179212500Y-119938095D01*
X179150595Y-119814285D01*
X179150595Y-119504761D01*
X179212500Y-119319047D01*
X180450595Y-118761904D02*
X179150595Y-118761904D01*
X179769642Y-118761904D02*
X179769642Y-118019047D01*
X180450595Y-118019047D02*
X179150595Y-118019047D01*
X170800000Y-128608523D02*
X170738095Y-128732333D01*
X170738095Y-128918047D01*
X170800000Y-129103761D01*
X170923809Y-129227571D01*
X171047619Y-129289476D01*
X171295238Y-129351380D01*
X171480952Y-129351380D01*
X171728571Y-129289476D01*
X171852380Y-129227571D01*
X171976190Y-129103761D01*
X172038095Y-128918047D01*
X172038095Y-128794238D01*
X171976190Y-128608523D01*
X171914285Y-128546619D01*
X171480952Y-128546619D01*
X171480952Y-128794238D01*
X202518095Y-134450523D02*
X202518095Y-135193380D01*
X202518095Y-134821952D02*
X201218095Y-134821952D01*
X201403809Y-134945761D01*
X201527619Y-135069571D01*
X201589523Y-135193380D01*
X201218095Y-134017190D02*
X201218095Y-133212428D01*
X201713333Y-133645761D01*
X201713333Y-133460047D01*
X201775238Y-133336238D01*
X201837142Y-133274333D01*
X201960952Y-133212428D01*
X202270476Y-133212428D01*
X202394285Y-133274333D01*
X202456190Y-133336238D01*
X202518095Y-133460047D01*
X202518095Y-133831476D01*
X202456190Y-133955285D01*
X202394285Y-134017190D01*
X201837142Y-132221952D02*
X201899047Y-132036238D01*
X201960952Y-131974333D01*
X202084761Y-131912428D01*
X202270476Y-131912428D01*
X202394285Y-131974333D01*
X202456190Y-132036238D01*
X202518095Y-132160047D01*
X202518095Y-132655285D01*
X201218095Y-132655285D01*
X201218095Y-132221952D01*
X201280000Y-132098142D01*
X201341904Y-132036238D01*
X201465714Y-131974333D01*
X201589523Y-131974333D01*
X201713333Y-132036238D01*
X201775238Y-132098142D01*
X201837142Y-132221952D01*
X201837142Y-132655285D01*
X184846619Y-127427904D02*
X184908523Y-127366000D01*
X185032333Y-127304095D01*
X185341857Y-127304095D01*
X185465666Y-127366000D01*
X185527571Y-127427904D01*
X185589476Y-127551714D01*
X185589476Y-127675523D01*
X185527571Y-127861238D01*
X184784714Y-128604095D01*
X185589476Y-128604095D01*
X186208523Y-128604095D02*
X186456142Y-128604095D01*
X186579952Y-128542190D01*
X186641857Y-128480285D01*
X186765666Y-128294571D01*
X186827571Y-128046952D01*
X186827571Y-127551714D01*
X186765666Y-127427904D01*
X186703761Y-127366000D01*
X186579952Y-127304095D01*
X186332333Y-127304095D01*
X186208523Y-127366000D01*
X186146619Y-127427904D01*
X186084714Y-127551714D01*
X186084714Y-127861238D01*
X186146619Y-127985047D01*
X186208523Y-128046952D01*
X186332333Y-128108857D01*
X186579952Y-128108857D01*
X186703761Y-128046952D01*
X186765666Y-127985047D01*
X186827571Y-127861238D01*
X187818047Y-127923142D02*
X188003761Y-127985047D01*
X188065666Y-128046952D01*
X188127571Y-128170761D01*
X188127571Y-128356476D01*
X188065666Y-128480285D01*
X188003761Y-128542190D01*
X187879952Y-128604095D01*
X187384714Y-128604095D01*
X187384714Y-127304095D01*
X187818047Y-127304095D01*
X187941857Y-127366000D01*
X188003761Y-127427904D01*
X188065666Y-127551714D01*
X188065666Y-127675523D01*
X188003761Y-127799333D01*
X187941857Y-127861238D01*
X187818047Y-127923142D01*
X187384714Y-127923142D01*
X192104095Y-127276619D02*
X191485047Y-127709952D01*
X192104095Y-128019476D02*
X190804095Y-128019476D01*
X190804095Y-127524238D01*
X190866000Y-127400428D01*
X190927904Y-127338523D01*
X191051714Y-127276619D01*
X191237428Y-127276619D01*
X191361238Y-127338523D01*
X191423142Y-127400428D01*
X191485047Y-127524238D01*
X191485047Y-128019476D01*
X190866000Y-126038523D02*
X190804095Y-126162333D01*
X190804095Y-126348047D01*
X190866000Y-126533761D01*
X190989809Y-126657571D01*
X191113619Y-126719476D01*
X191361238Y-126781380D01*
X191546952Y-126781380D01*
X191794571Y-126719476D01*
X191918380Y-126657571D01*
X192042190Y-126533761D01*
X192104095Y-126348047D01*
X192104095Y-126224238D01*
X192042190Y-126038523D01*
X191980285Y-125976619D01*
X191546952Y-125976619D01*
X191546952Y-126224238D01*
X191423142Y-124986142D02*
X191485047Y-124800428D01*
X191546952Y-124738523D01*
X191670761Y-124676619D01*
X191856476Y-124676619D01*
X191980285Y-124738523D01*
X192042190Y-124800428D01*
X192104095Y-124924238D01*
X192104095Y-125419476D01*
X190804095Y-125419476D01*
X190804095Y-124986142D01*
X190866000Y-124862333D01*
X190927904Y-124800428D01*
X191051714Y-124738523D01*
X191175523Y-124738523D01*
X191299333Y-124800428D01*
X191361238Y-124862333D01*
X191423142Y-124986142D01*
X191423142Y-125419476D01*
X192104095Y-123438523D02*
X192104095Y-124181380D01*
X192104095Y-123809952D02*
X190804095Y-123809952D01*
X190989809Y-123933761D01*
X191113619Y-124057571D01*
X191175523Y-124181380D01*
X186411428Y-110614809D02*
X187278095Y-110614809D01*
X185916190Y-110924333D02*
X186844761Y-111233857D01*
X186844761Y-110429095D01*
X187278095Y-109252904D02*
X187278095Y-109995761D01*
X187278095Y-109624333D02*
X185978095Y-109624333D01*
X186163809Y-109748142D01*
X186287619Y-109871952D01*
X186349523Y-109995761D01*
X186906666Y-108757666D02*
X186906666Y-108138619D01*
X187278095Y-108881476D02*
X185978095Y-108448142D01*
X187278095Y-108014809D01*
X188951428Y-110800523D02*
X189818095Y-110800523D01*
X188456190Y-111110047D02*
X189384761Y-111419571D01*
X189384761Y-110614809D01*
X188641904Y-110181476D02*
X188580000Y-110119571D01*
X188518095Y-109995761D01*
X188518095Y-109686238D01*
X188580000Y-109562428D01*
X188641904Y-109500523D01*
X188765714Y-109438619D01*
X188889523Y-109438619D01*
X189075238Y-109500523D01*
X189818095Y-110243380D01*
X189818095Y-109438619D01*
X189137142Y-108448142D02*
X189199047Y-108262428D01*
X189260952Y-108200523D01*
X189384761Y-108138619D01*
X189570476Y-108138619D01*
X189694285Y-108200523D01*
X189756190Y-108262428D01*
X189818095Y-108386238D01*
X189818095Y-108881476D01*
X188518095Y-108881476D01*
X188518095Y-108448142D01*
X188580000Y-108324333D01*
X188641904Y-108262428D01*
X188765714Y-108200523D01*
X188889523Y-108200523D01*
X189013333Y-108262428D01*
X189075238Y-108324333D01*
X189137142Y-108448142D01*
X189137142Y-108881476D01*
X206193380Y-117206000D02*
X206069571Y-117144095D01*
X205883857Y-117144095D01*
X205698142Y-117206000D01*
X205574333Y-117329809D01*
X205512428Y-117453619D01*
X205450523Y-117701238D01*
X205450523Y-117886952D01*
X205512428Y-118134571D01*
X205574333Y-118258380D01*
X205698142Y-118382190D01*
X205883857Y-118444095D01*
X206007666Y-118444095D01*
X206193380Y-118382190D01*
X206255285Y-118320285D01*
X206255285Y-117886952D01*
X206007666Y-117886952D01*
X207369571Y-117144095D02*
X207121952Y-117144095D01*
X206998142Y-117206000D01*
X206936238Y-117267904D01*
X206812428Y-117453619D01*
X206750523Y-117701238D01*
X206750523Y-118196476D01*
X206812428Y-118320285D01*
X206874333Y-118382190D01*
X206998142Y-118444095D01*
X207245761Y-118444095D01*
X207369571Y-118382190D01*
X207431476Y-118320285D01*
X207493380Y-118196476D01*
X207493380Y-117886952D01*
X207431476Y-117763142D01*
X207369571Y-117701238D01*
X207245761Y-117639333D01*
X206998142Y-117639333D01*
X206874333Y-117701238D01*
X206812428Y-117763142D01*
X206750523Y-117886952D01*
X208979095Y-117082190D02*
X207864809Y-118753619D01*
X209288619Y-117144095D02*
X210093380Y-117144095D01*
X209660047Y-117639333D01*
X209845761Y-117639333D01*
X209969571Y-117701238D01*
X210031476Y-117763142D01*
X210093380Y-117886952D01*
X210093380Y-118196476D01*
X210031476Y-118320285D01*
X209969571Y-118382190D01*
X209845761Y-118444095D01*
X209474333Y-118444095D01*
X209350523Y-118382190D01*
X209288619Y-118320285D01*
X211083857Y-117763142D02*
X211269571Y-117825047D01*
X211331476Y-117886952D01*
X211393380Y-118010761D01*
X211393380Y-118196476D01*
X211331476Y-118320285D01*
X211269571Y-118382190D01*
X211145761Y-118444095D01*
X210650523Y-118444095D01*
X210650523Y-117144095D01*
X211083857Y-117144095D01*
X211207666Y-117206000D01*
X211269571Y-117267904D01*
X211331476Y-117391714D01*
X211331476Y-117515523D01*
X211269571Y-117639333D01*
X211207666Y-117701238D01*
X211083857Y-117763142D01*
X210650523Y-117763142D01*
X171976190Y-121041571D02*
X172038095Y-120855857D01*
X172038095Y-120546333D01*
X171976190Y-120422523D01*
X171914285Y-120360619D01*
X171790476Y-120298714D01*
X171666666Y-120298714D01*
X171542857Y-120360619D01*
X171480952Y-120422523D01*
X171419047Y-120546333D01*
X171357142Y-120793952D01*
X171295238Y-120917761D01*
X171233333Y-120979666D01*
X171109523Y-121041571D01*
X170985714Y-121041571D01*
X170861904Y-120979666D01*
X170800000Y-120917761D01*
X170738095Y-120793952D01*
X170738095Y-120484428D01*
X170800000Y-120298714D01*
X171976190Y-119803476D02*
X172038095Y-119617761D01*
X172038095Y-119308238D01*
X171976190Y-119184428D01*
X171914285Y-119122523D01*
X171790476Y-119060619D01*
X171666666Y-119060619D01*
X171542857Y-119122523D01*
X171480952Y-119184428D01*
X171419047Y-119308238D01*
X171357142Y-119555857D01*
X171295238Y-119679666D01*
X171233333Y-119741571D01*
X171109523Y-119803476D01*
X170985714Y-119803476D01*
X170861904Y-119741571D01*
X170800000Y-119679666D01*
X170738095Y-119555857D01*
X170738095Y-119246333D01*
X170800000Y-119060619D01*
X209845761Y-122224095D02*
X209969571Y-122224095D01*
X210093380Y-122286000D01*
X210155285Y-122347904D01*
X210217190Y-122471714D01*
X210279095Y-122719333D01*
X210279095Y-123028857D01*
X210217190Y-123276476D01*
X210155285Y-123400285D01*
X210093380Y-123462190D01*
X209969571Y-123524095D01*
X209845761Y-123524095D01*
X209721952Y-123462190D01*
X209660047Y-123400285D01*
X209598142Y-123276476D01*
X209536238Y-123028857D01*
X209536238Y-122719333D01*
X209598142Y-122471714D01*
X209660047Y-122347904D01*
X209721952Y-122286000D01*
X209845761Y-122224095D01*
X210774333Y-123152666D02*
X211393380Y-123152666D01*
X210650523Y-123524095D02*
X211083857Y-122224095D01*
X211517190Y-123524095D01*
X194031428Y-110800523D02*
X194898095Y-110800523D01*
X193536190Y-111110047D02*
X194464761Y-111419571D01*
X194464761Y-110614809D01*
X194031428Y-109562428D02*
X194898095Y-109562428D01*
X193536190Y-109871952D02*
X194464761Y-110181476D01*
X194464761Y-109376714D01*
X194217142Y-108448142D02*
X194279047Y-108262428D01*
X194340952Y-108200523D01*
X194464761Y-108138619D01*
X194650476Y-108138619D01*
X194774285Y-108200523D01*
X194836190Y-108262428D01*
X194898095Y-108386238D01*
X194898095Y-108881476D01*
X193598095Y-108881476D01*
X193598095Y-108448142D01*
X193660000Y-108324333D01*
X193721904Y-108262428D01*
X193845714Y-108200523D01*
X193969523Y-108200523D01*
X194093333Y-108262428D01*
X194155238Y-108324333D01*
X194217142Y-108448142D01*
X194217142Y-108881476D01*
X168260000Y-118912523D02*
X168198095Y-119036333D01*
X168198095Y-119222047D01*
X168260000Y-119407761D01*
X168383809Y-119531571D01*
X168507619Y-119593476D01*
X168755238Y-119655380D01*
X168940952Y-119655380D01*
X169188571Y-119593476D01*
X169312380Y-119531571D01*
X169436190Y-119407761D01*
X169498095Y-119222047D01*
X169498095Y-119098238D01*
X169436190Y-118912523D01*
X169374285Y-118850619D01*
X168940952Y-118850619D01*
X168940952Y-119098238D01*
X193721904Y-135193380D02*
X193660000Y-135131476D01*
X193598095Y-135007666D01*
X193598095Y-134698142D01*
X193660000Y-134574333D01*
X193721904Y-134512428D01*
X193845714Y-134450523D01*
X193969523Y-134450523D01*
X194155238Y-134512428D01*
X194898095Y-135255285D01*
X194898095Y-134450523D01*
X193598095Y-133645761D02*
X193598095Y-133521952D01*
X193660000Y-133398142D01*
X193721904Y-133336238D01*
X193845714Y-133274333D01*
X194093333Y-133212428D01*
X194402857Y-133212428D01*
X194650476Y-133274333D01*
X194774285Y-133336238D01*
X194836190Y-133398142D01*
X194898095Y-133521952D01*
X194898095Y-133645761D01*
X194836190Y-133769571D01*
X194774285Y-133831476D01*
X194650476Y-133893380D01*
X194402857Y-133955285D01*
X194093333Y-133955285D01*
X193845714Y-133893380D01*
X193721904Y-133831476D01*
X193660000Y-133769571D01*
X193598095Y-133645761D01*
X194526666Y-132717190D02*
X194526666Y-132098142D01*
X194898095Y-132841000D02*
X193598095Y-132407666D01*
X194898095Y-131974333D01*
X170033428Y-132250571D02*
X169533428Y-131536285D01*
X169176285Y-132250571D02*
X169176285Y-130750571D01*
X169747714Y-130750571D01*
X169890571Y-130822000D01*
X169962000Y-130893428D01*
X170033428Y-131036285D01*
X170033428Y-131250571D01*
X169962000Y-131393428D01*
X169890571Y-131464857D01*
X169747714Y-131536285D01*
X169176285Y-131536285D01*
X170676285Y-131464857D02*
X171176285Y-131464857D01*
X171390571Y-132250571D02*
X170676285Y-132250571D01*
X170676285Y-130750571D01*
X171390571Y-130750571D01*
X171962000Y-132179142D02*
X172176285Y-132250571D01*
X172533428Y-132250571D01*
X172676285Y-132179142D01*
X172747714Y-132107714D01*
X172819142Y-131964857D01*
X172819142Y-131822000D01*
X172747714Y-131679142D01*
X172676285Y-131607714D01*
X172533428Y-131536285D01*
X172247714Y-131464857D01*
X172104857Y-131393428D01*
X172033428Y-131322000D01*
X171962000Y-131179142D01*
X171962000Y-131036285D01*
X172033428Y-130893428D01*
X172104857Y-130822000D01*
X172247714Y-130750571D01*
X172604857Y-130750571D01*
X172819142Y-130822000D01*
X173462000Y-131464857D02*
X173962000Y-131464857D01*
X174176285Y-132250571D02*
X173462000Y-132250571D01*
X173462000Y-130750571D01*
X174176285Y-130750571D01*
X174604857Y-130750571D02*
X175462000Y-130750571D01*
X175033428Y-132250571D02*
X175033428Y-130750571D01*
X168260000Y-120436523D02*
X168198095Y-120560333D01*
X168198095Y-120746047D01*
X168260000Y-120931761D01*
X168383809Y-121055571D01*
X168507619Y-121117476D01*
X168755238Y-121179380D01*
X168940952Y-121179380D01*
X169188571Y-121117476D01*
X169312380Y-121055571D01*
X169436190Y-120931761D01*
X169498095Y-120746047D01*
X169498095Y-120622238D01*
X169436190Y-120436523D01*
X169374285Y-120374619D01*
X168940952Y-120374619D01*
X168940952Y-120622238D01*
X208917190Y-115037428D02*
X208917190Y-115904095D01*
X208607666Y-114542190D02*
X208298142Y-115470761D01*
X209102904Y-115470761D01*
X209660047Y-115904095D02*
X209907666Y-115904095D01*
X210031476Y-115842190D01*
X210093380Y-115780285D01*
X210217190Y-115594571D01*
X210279095Y-115346952D01*
X210279095Y-114851714D01*
X210217190Y-114727904D01*
X210155285Y-114666000D01*
X210031476Y-114604095D01*
X209783857Y-114604095D01*
X209660047Y-114666000D01*
X209598142Y-114727904D01*
X209536238Y-114851714D01*
X209536238Y-115161238D01*
X209598142Y-115285047D01*
X209660047Y-115346952D01*
X209783857Y-115408857D01*
X210031476Y-115408857D01*
X210155285Y-115346952D01*
X210217190Y-115285047D01*
X210279095Y-115161238D01*
X210774333Y-115532666D02*
X211393380Y-115532666D01*
X210650523Y-115904095D02*
X211083857Y-114604095D01*
X211517190Y-115904095D01*
X190326095Y-127276619D02*
X189707047Y-127709952D01*
X190326095Y-128019476D02*
X189026095Y-128019476D01*
X189026095Y-127524238D01*
X189088000Y-127400428D01*
X189149904Y-127338523D01*
X189273714Y-127276619D01*
X189459428Y-127276619D01*
X189583238Y-127338523D01*
X189645142Y-127400428D01*
X189707047Y-127524238D01*
X189707047Y-128019476D01*
X189088000Y-126038523D02*
X189026095Y-126162333D01*
X189026095Y-126348047D01*
X189088000Y-126533761D01*
X189211809Y-126657571D01*
X189335619Y-126719476D01*
X189583238Y-126781380D01*
X189768952Y-126781380D01*
X190016571Y-126719476D01*
X190140380Y-126657571D01*
X190264190Y-126533761D01*
X190326095Y-126348047D01*
X190326095Y-126224238D01*
X190264190Y-126038523D01*
X190202285Y-125976619D01*
X189768952Y-125976619D01*
X189768952Y-126224238D01*
X189645142Y-124986142D02*
X189707047Y-124800428D01*
X189768952Y-124738523D01*
X189892761Y-124676619D01*
X190078476Y-124676619D01*
X190202285Y-124738523D01*
X190264190Y-124800428D01*
X190326095Y-124924238D01*
X190326095Y-125419476D01*
X189026095Y-125419476D01*
X189026095Y-124986142D01*
X189088000Y-124862333D01*
X189149904Y-124800428D01*
X189273714Y-124738523D01*
X189397523Y-124738523D01*
X189521333Y-124800428D01*
X189583238Y-124862333D01*
X189645142Y-124986142D01*
X189645142Y-125419476D01*
X189149904Y-124181380D02*
X189088000Y-124119476D01*
X189026095Y-123995666D01*
X189026095Y-123686142D01*
X189088000Y-123562333D01*
X189149904Y-123500428D01*
X189273714Y-123438523D01*
X189397523Y-123438523D01*
X189583238Y-123500428D01*
X190326095Y-124243285D01*
X190326095Y-123438523D01*
X203758095Y-110738619D02*
X203758095Y-111357666D01*
X204377142Y-111419571D01*
X204315238Y-111357666D01*
X204253333Y-111233857D01*
X204253333Y-110924333D01*
X204315238Y-110800523D01*
X204377142Y-110738619D01*
X204500952Y-110676714D01*
X204810476Y-110676714D01*
X204934285Y-110738619D01*
X204996190Y-110800523D01*
X205058095Y-110924333D01*
X205058095Y-111233857D01*
X204996190Y-111357666D01*
X204934285Y-111419571D01*
X203758095Y-109871952D02*
X203758095Y-109748142D01*
X203820000Y-109624333D01*
X203881904Y-109562428D01*
X204005714Y-109500523D01*
X204253333Y-109438619D01*
X204562857Y-109438619D01*
X204810476Y-109500523D01*
X204934285Y-109562428D01*
X204996190Y-109624333D01*
X205058095Y-109748142D01*
X205058095Y-109871952D01*
X204996190Y-109995761D01*
X204934285Y-110057666D01*
X204810476Y-110119571D01*
X204562857Y-110181476D01*
X204253333Y-110181476D01*
X204005714Y-110119571D01*
X203881904Y-110057666D01*
X203820000Y-109995761D01*
X203758095Y-109871952D01*
X204377142Y-108448142D02*
X204439047Y-108262428D01*
X204500952Y-108200523D01*
X204624761Y-108138619D01*
X204810476Y-108138619D01*
X204934285Y-108200523D01*
X204996190Y-108262428D01*
X205058095Y-108386238D01*
X205058095Y-108881476D01*
X203758095Y-108881476D01*
X203758095Y-108448142D01*
X203820000Y-108324333D01*
X203881904Y-108262428D01*
X204005714Y-108200523D01*
X204129523Y-108200523D01*
X204253333Y-108262428D01*
X204315238Y-108324333D01*
X204377142Y-108448142D01*
X204377142Y-108881476D01*
X196200000Y-114576714D02*
X196138095Y-114700523D01*
X196138095Y-114886238D01*
X196200000Y-115071952D01*
X196323809Y-115195761D01*
X196447619Y-115257666D01*
X196695238Y-115319571D01*
X196880952Y-115319571D01*
X197128571Y-115257666D01*
X197252380Y-115195761D01*
X197376190Y-115071952D01*
X197438095Y-114886238D01*
X197438095Y-114762428D01*
X197376190Y-114576714D01*
X197314285Y-114514809D01*
X196880952Y-114514809D01*
X196880952Y-114762428D01*
X196138095Y-113710047D02*
X196138095Y-113586238D01*
X196200000Y-113462428D01*
X196261904Y-113400523D01*
X196385714Y-113338619D01*
X196633333Y-113276714D01*
X196942857Y-113276714D01*
X197190476Y-113338619D01*
X197314285Y-113400523D01*
X197376190Y-113462428D01*
X197438095Y-113586238D01*
X197438095Y-113710047D01*
X197376190Y-113833857D01*
X197314285Y-113895761D01*
X197190476Y-113957666D01*
X196942857Y-114019571D01*
X196633333Y-114019571D01*
X196385714Y-113957666D01*
X196261904Y-113895761D01*
X196200000Y-113833857D01*
X196138095Y-113710047D01*
X196076190Y-111791000D02*
X197747619Y-112905285D01*
X196571428Y-110800523D02*
X197438095Y-110800523D01*
X196076190Y-111110047D02*
X197004761Y-111419571D01*
X197004761Y-110614809D01*
X196138095Y-109562428D02*
X196138095Y-109810047D01*
X196200000Y-109933857D01*
X196261904Y-109995761D01*
X196447619Y-110119571D01*
X196695238Y-110181476D01*
X197190476Y-110181476D01*
X197314285Y-110119571D01*
X197376190Y-110057666D01*
X197438095Y-109933857D01*
X197438095Y-109686238D01*
X197376190Y-109562428D01*
X197314285Y-109500523D01*
X197190476Y-109438619D01*
X196880952Y-109438619D01*
X196757142Y-109500523D01*
X196695238Y-109562428D01*
X196633333Y-109686238D01*
X196633333Y-109933857D01*
X196695238Y-110057666D01*
X196757142Y-110119571D01*
X196880952Y-110181476D01*
X196757142Y-108448142D02*
X196819047Y-108262428D01*
X196880952Y-108200523D01*
X197004761Y-108138619D01*
X197190476Y-108138619D01*
X197314285Y-108200523D01*
X197376190Y-108262428D01*
X197438095Y-108386238D01*
X197438095Y-108881476D01*
X196138095Y-108881476D01*
X196138095Y-108448142D01*
X196200000Y-108324333D01*
X196261904Y-108262428D01*
X196385714Y-108200523D01*
X196509523Y-108200523D01*
X196633333Y-108262428D01*
X196695238Y-108324333D01*
X196757142Y-108448142D01*
X196757142Y-108881476D01*
X201280000Y-114391000D02*
X201218095Y-114514809D01*
X201218095Y-114700523D01*
X201280000Y-114886238D01*
X201403809Y-115010047D01*
X201527619Y-115071952D01*
X201775238Y-115133857D01*
X201960952Y-115133857D01*
X202208571Y-115071952D01*
X202332380Y-115010047D01*
X202456190Y-114886238D01*
X202518095Y-114700523D01*
X202518095Y-114576714D01*
X202456190Y-114391000D01*
X202394285Y-114329095D01*
X201960952Y-114329095D01*
X201960952Y-114576714D01*
X202518095Y-113091000D02*
X202518095Y-113833857D01*
X202518095Y-113462428D02*
X201218095Y-113462428D01*
X201403809Y-113586238D01*
X201527619Y-113710047D01*
X201589523Y-113833857D01*
X201156190Y-111605285D02*
X202827619Y-112719571D01*
X201651428Y-110614809D02*
X202518095Y-110614809D01*
X201156190Y-110924333D02*
X202084761Y-111233857D01*
X202084761Y-110429095D01*
X201218095Y-109314809D02*
X201218095Y-109933857D01*
X201837142Y-109995761D01*
X201775238Y-109933857D01*
X201713333Y-109810047D01*
X201713333Y-109500523D01*
X201775238Y-109376714D01*
X201837142Y-109314809D01*
X201960952Y-109252904D01*
X202270476Y-109252904D01*
X202394285Y-109314809D01*
X202456190Y-109376714D01*
X202518095Y-109500523D01*
X202518095Y-109810047D01*
X202456190Y-109933857D01*
X202394285Y-109995761D01*
X202146666Y-108757666D02*
X202146666Y-108138619D01*
X202518095Y-108881476D02*
X201218095Y-108448142D01*
X202518095Y-108014809D01*
X169498095Y-128546619D02*
X168879047Y-128979952D01*
X169498095Y-129289476D02*
X168198095Y-129289476D01*
X168198095Y-128794238D01*
X168260000Y-128670428D01*
X168321904Y-128608523D01*
X168445714Y-128546619D01*
X168631428Y-128546619D01*
X168755238Y-128608523D01*
X168817142Y-128670428D01*
X168879047Y-128794238D01*
X168879047Y-129289476D01*
X169436190Y-128051380D02*
X169498095Y-127865666D01*
X169498095Y-127556142D01*
X169436190Y-127432333D01*
X169374285Y-127370428D01*
X169250476Y-127308523D01*
X169126666Y-127308523D01*
X169002857Y-127370428D01*
X168940952Y-127432333D01*
X168879047Y-127556142D01*
X168817142Y-127803761D01*
X168755238Y-127927571D01*
X168693333Y-127989476D01*
X168569523Y-128051380D01*
X168445714Y-128051380D01*
X168321904Y-127989476D01*
X168260000Y-127927571D01*
X168198095Y-127803761D01*
X168198095Y-127494238D01*
X168260000Y-127308523D01*
X168198095Y-126937095D02*
X168198095Y-126194238D01*
X169498095Y-126565666D02*
X168198095Y-126565666D01*
X171329000Y-114604095D02*
X171762333Y-115904095D01*
X172195666Y-114604095D01*
X173371857Y-115780285D02*
X173309952Y-115842190D01*
X173124238Y-115904095D01*
X173000428Y-115904095D01*
X172814714Y-115842190D01*
X172690904Y-115718380D01*
X172629000Y-115594571D01*
X172567095Y-115346952D01*
X172567095Y-115161238D01*
X172629000Y-114913619D01*
X172690904Y-114789809D01*
X172814714Y-114666000D01*
X173000428Y-114604095D01*
X173124238Y-114604095D01*
X173309952Y-114666000D01*
X173371857Y-114727904D01*
X174671857Y-115780285D02*
X174609952Y-115842190D01*
X174424238Y-115904095D01*
X174300428Y-115904095D01*
X174114714Y-115842190D01*
X173990904Y-115718380D01*
X173929000Y-115594571D01*
X173867095Y-115346952D01*
X173867095Y-115161238D01*
X173929000Y-114913619D01*
X173990904Y-114789809D01*
X174114714Y-114666000D01*
X174300428Y-114604095D01*
X174424238Y-114604095D01*
X174609952Y-114666000D01*
X174671857Y-114727904D01*
X175229000Y-115904095D02*
X175229000Y-114604095D01*
X176095666Y-114604095D02*
X176343285Y-114604095D01*
X176467095Y-114666000D01*
X176590904Y-114789809D01*
X176652809Y-115037428D01*
X176652809Y-115470761D01*
X176590904Y-115718380D01*
X176467095Y-115842190D01*
X176343285Y-115904095D01*
X176095666Y-115904095D01*
X175971857Y-115842190D01*
X175848047Y-115718380D01*
X175786142Y-115470761D01*
X175786142Y-115037428D01*
X175848047Y-114789809D01*
X175971857Y-114666000D01*
X176095666Y-114604095D01*
X176900428Y-116027904D02*
X177890904Y-116027904D01*
X178138523Y-114727904D02*
X178200428Y-114666000D01*
X178324238Y-114604095D01*
X178633761Y-114604095D01*
X178757571Y-114666000D01*
X178819476Y-114727904D01*
X178881380Y-114851714D01*
X178881380Y-114975523D01*
X178819476Y-115161238D01*
X178076619Y-115904095D01*
X178881380Y-115904095D01*
X169436190Y-125242428D02*
X169498095Y-125056714D01*
X169498095Y-124747190D01*
X169436190Y-124623380D01*
X169374285Y-124561476D01*
X169250476Y-124499571D01*
X169126666Y-124499571D01*
X169002857Y-124561476D01*
X168940952Y-124623380D01*
X168879047Y-124747190D01*
X168817142Y-124994809D01*
X168755238Y-125118619D01*
X168693333Y-125180523D01*
X168569523Y-125242428D01*
X168445714Y-125242428D01*
X168321904Y-125180523D01*
X168260000Y-125118619D01*
X168198095Y-124994809D01*
X168198095Y-124685285D01*
X168260000Y-124499571D01*
X169374285Y-123199571D02*
X169436190Y-123261476D01*
X169498095Y-123447190D01*
X169498095Y-123571000D01*
X169436190Y-123756714D01*
X169312380Y-123880523D01*
X169188571Y-123942428D01*
X168940952Y-124004333D01*
X168755238Y-124004333D01*
X168507619Y-123942428D01*
X168383809Y-123880523D01*
X168260000Y-123756714D01*
X168198095Y-123571000D01*
X168198095Y-123447190D01*
X168260000Y-123261476D01*
X168321904Y-123199571D01*
X169498095Y-122642428D02*
X168198095Y-122642428D01*
X169498095Y-121899571D02*
X168755238Y-122456714D01*
X168198095Y-121899571D02*
X168940952Y-122642428D01*
D12*
%TO.C,SW1*%
X170704933Y-137063238D02*
X170850076Y-137111619D01*
X171091980Y-137111619D01*
X171188742Y-137063238D01*
X171237123Y-137014857D01*
X171285504Y-136918095D01*
X171285504Y-136821333D01*
X171237123Y-136724571D01*
X171188742Y-136676190D01*
X171091980Y-136627809D01*
X170898457Y-136579428D01*
X170801695Y-136531047D01*
X170753314Y-136482666D01*
X170704933Y-136385904D01*
X170704933Y-136289142D01*
X170753314Y-136192380D01*
X170801695Y-136144000D01*
X170898457Y-136095619D01*
X171140361Y-136095619D01*
X171285504Y-136144000D01*
X171624171Y-136095619D02*
X171866076Y-137111619D01*
X172059600Y-136385904D01*
X172253123Y-137111619D01*
X172495028Y-136095619D01*
X173414266Y-137111619D02*
X172833695Y-137111619D01*
X173123980Y-137111619D02*
X173123980Y-136095619D01*
X173027219Y-136240761D01*
X172930457Y-136337523D01*
X172833695Y-136385904D01*
D13*
%TO.C,J3*%
X179085857Y-113002190D02*
X178800142Y-113002190D01*
X178943000Y-113002190D02*
X178943000Y-112502190D01*
X178895380Y-112573619D01*
X178847761Y-112621238D01*
X178800142Y-112645047D01*
D14*
%TO.C,J23*%
X203200000Y-102616000D02*
X205740000Y-102616000D01*
X203200000Y-107696000D02*
X203200000Y-102616000D01*
X205740000Y-102616000D02*
X205740000Y-107696000D01*
X205740000Y-107696000D02*
X203200000Y-107696000D01*
%TO.C,J21*%
X200660000Y-107696000D02*
X198120000Y-107696000D01*
X200660000Y-102616000D02*
X200660000Y-107696000D01*
X198120000Y-107696000D02*
X198120000Y-102616000D01*
X198120000Y-102616000D02*
X200660000Y-102616000D01*
%TO.C,J1*%
X158496000Y-111252000D02*
X163576000Y-111252000D01*
X163576000Y-118872000D02*
X158496000Y-118872000D01*
X163576000Y-111252000D02*
X163576000Y-118872000D01*
X158496000Y-118872000D02*
X158496000Y-111252000D01*
%TO.C,J18*%
X193040000Y-102616000D02*
X195580000Y-102616000D01*
X193040000Y-107696000D02*
X193040000Y-102616000D01*
X195580000Y-102616000D02*
X195580000Y-107696000D01*
X195580000Y-107696000D02*
X193040000Y-107696000D01*
%TO.C,J25*%
X208280000Y-102616000D02*
X208280000Y-107696000D01*
X208280000Y-107696000D02*
X205740000Y-107696000D01*
X205740000Y-107696000D02*
X205740000Y-102616000D01*
X205740000Y-102616000D02*
X208280000Y-102616000D01*
%TO.C,J24*%
X211836000Y-111506000D02*
X216916000Y-111506000D01*
X216916000Y-114046000D02*
X211836000Y-114046000D01*
X216916000Y-111506000D02*
X216916000Y-114046000D01*
X211836000Y-114046000D02*
X211836000Y-111506000D01*
%TO.C,J16*%
X190500000Y-107696000D02*
X187960000Y-107696000D01*
X187960000Y-107696000D02*
X187960000Y-102616000D01*
X187960000Y-102616000D02*
X190500000Y-102616000D01*
X190500000Y-102616000D02*
X190500000Y-107696000D01*
%TO.C,J6*%
X198120000Y-135636000D02*
X200660000Y-135636000D01*
X200660000Y-140716000D02*
X198120000Y-140716000D01*
X200660000Y-135636000D02*
X200660000Y-140716000D01*
X198120000Y-140716000D02*
X198120000Y-135636000D01*
%TO.C,J20*%
X198120000Y-102616000D02*
X198120000Y-107696000D01*
X195580000Y-107696000D02*
X195580000Y-102616000D01*
X195580000Y-102616000D02*
X198120000Y-102616000D01*
X198120000Y-107696000D02*
X195580000Y-107696000D01*
%TO.C,J4*%
X163576000Y-132080000D02*
X158496000Y-132080000D01*
X158496000Y-121920000D02*
X163576000Y-121920000D01*
X158496000Y-132080000D02*
X158496000Y-121920000D01*
X163576000Y-121920000D02*
X163576000Y-132080000D01*
%TO.C,J5*%
X200660000Y-135636000D02*
X203200000Y-135636000D01*
X203200000Y-140716000D02*
X200660000Y-140716000D01*
X203200000Y-135636000D02*
X203200000Y-140716000D01*
X200660000Y-140716000D02*
X200660000Y-135636000D01*
D15*
%TO.C,SW1*%
X175869600Y-140462000D02*
X168249600Y-140462000D01*
X168249600Y-132842000D02*
X168249600Y-140462000D01*
X168249600Y-132842000D02*
X175869600Y-132842000D01*
X175869600Y-132842000D02*
X175869600Y-140462000D01*
X174599600Y-136652000D02*
G75*
G03*
X174599600Y-136652000I-2540000J0D01*
G01*
D14*
%TO.C,J31*%
X211836000Y-121666000D02*
X211836000Y-119126000D01*
X211836000Y-119126000D02*
X216916000Y-119126000D01*
X216916000Y-119126000D02*
X216916000Y-121666000D01*
X216916000Y-121666000D02*
X211836000Y-121666000D01*
%TO.C,J29*%
X216916000Y-119126000D02*
X211836000Y-119126000D01*
X211836000Y-116586000D02*
X216916000Y-116586000D01*
X216916000Y-116586000D02*
X216916000Y-119126000D01*
X211836000Y-119126000D02*
X211836000Y-116586000D01*
%TO.C,J27*%
X211836000Y-121666000D02*
X216916000Y-121666000D01*
X216916000Y-124206000D02*
X211836000Y-124206000D01*
X216916000Y-121666000D02*
X216916000Y-124206000D01*
X211836000Y-124206000D02*
X211836000Y-121666000D01*
%TO.C,J19*%
X203200000Y-107696000D02*
X200660000Y-107696000D01*
X200660000Y-107696000D02*
X200660000Y-102616000D01*
X203200000Y-102616000D02*
X203200000Y-107696000D01*
X200660000Y-102616000D02*
X203200000Y-102616000D01*
%TO.C,J28*%
X211836000Y-124206000D02*
X216916000Y-124206000D01*
X216916000Y-124206000D02*
X216916000Y-126746000D01*
X216916000Y-126746000D02*
X211836000Y-126746000D01*
X211836000Y-126746000D02*
X211836000Y-124206000D01*
%TO.C,J30*%
X211836000Y-129286000D02*
X211836000Y-126746000D01*
X216916000Y-126746000D02*
X216916000Y-129286000D01*
X211836000Y-126746000D02*
X216916000Y-126746000D01*
X216916000Y-129286000D02*
X211836000Y-129286000D01*
%TO.C,J7*%
X198120000Y-135636000D02*
X198120000Y-140716000D01*
X198120000Y-140716000D02*
X195580000Y-140716000D01*
X195580000Y-135636000D02*
X198120000Y-135636000D01*
X195580000Y-140716000D02*
X195580000Y-135636000D01*
%TO.C,J2*%
X176276000Y-117602000D02*
X176276000Y-122682000D01*
X173736000Y-122682000D02*
X173736000Y-117602000D01*
X173736000Y-117602000D02*
X176276000Y-117602000D01*
X176276000Y-122682000D02*
X173736000Y-122682000D01*
%TO.C,J34*%
X208280000Y-140716000D02*
X205740000Y-140716000D01*
X205740000Y-135636000D02*
X208280000Y-135636000D01*
X208280000Y-135636000D02*
X208280000Y-140716000D01*
X205740000Y-140716000D02*
X205740000Y-135636000D01*
%TO.C,J32*%
X211836000Y-129286000D02*
X216916000Y-129286000D01*
X216916000Y-129286000D02*
X216916000Y-131826000D01*
X216916000Y-131826000D02*
X211836000Y-131826000D01*
X211836000Y-131826000D02*
X211836000Y-129286000D01*
%TO.C,J13*%
X179324000Y-126746000D02*
X184404000Y-126746000D01*
X184404000Y-126746000D02*
X184404000Y-129286000D01*
X184404000Y-129286000D02*
X179324000Y-129286000D01*
X179324000Y-129286000D02*
X179324000Y-126746000D01*
%TO.C,J11*%
X187960000Y-135636000D02*
X190500000Y-135636000D01*
X190500000Y-135636000D02*
X190500000Y-140716000D01*
X187960000Y-140716000D02*
X187960000Y-135636000D01*
X190500000Y-140716000D02*
X187960000Y-140716000D01*
%TO.C,J14*%
X184404000Y-131826000D02*
X179324000Y-131826000D01*
X184404000Y-129286000D02*
X184404000Y-131826000D01*
X179324000Y-129286000D02*
X184404000Y-129286000D01*
X179324000Y-131826000D02*
X179324000Y-129286000D01*
%TO.C,J15*%
X187960000Y-102616000D02*
X187960000Y-107696000D01*
X185420000Y-107696000D02*
X185420000Y-102616000D01*
X187960000Y-107696000D02*
X185420000Y-107696000D01*
X185420000Y-102616000D02*
X187960000Y-102616000D01*
%TO.C,J22*%
X216916000Y-114046000D02*
X216916000Y-116586000D01*
X216916000Y-116586000D02*
X211836000Y-116586000D01*
X211836000Y-114046000D02*
X216916000Y-114046000D01*
X211836000Y-116586000D02*
X211836000Y-114046000D01*
%TO.C,J33*%
X203200000Y-140716000D02*
X203200000Y-135636000D01*
X205740000Y-135636000D02*
X205740000Y-140716000D01*
X205740000Y-140716000D02*
X203200000Y-140716000D01*
X203200000Y-135636000D02*
X205740000Y-135636000D01*
%TO.C,J17*%
X190500000Y-107696000D02*
X190500000Y-102616000D01*
X190500000Y-102616000D02*
X193040000Y-102616000D01*
X193040000Y-107696000D02*
X190500000Y-107696000D01*
X193040000Y-102616000D02*
X193040000Y-107696000D01*
%TO.C,J8*%
X195580000Y-140716000D02*
X193040000Y-140716000D01*
X195580000Y-135636000D02*
X195580000Y-140716000D01*
X193040000Y-140716000D02*
X193040000Y-135636000D01*
X193040000Y-135636000D02*
X195580000Y-135636000D01*
%TO.C,J9*%
X193040000Y-140716000D02*
X190500000Y-140716000D01*
X190500000Y-140716000D02*
X190500000Y-135636000D01*
X193040000Y-135636000D02*
X193040000Y-140716000D01*
X190500000Y-135636000D02*
X193040000Y-135636000D01*
D16*
%TO.C,J26*%
X167468000Y-107632000D02*
X167468000Y-102632000D01*
X184068000Y-107632000D02*
X167468000Y-107632000D01*
X184068000Y-102632000D02*
X184068000Y-107632000D01*
X167468000Y-102632000D02*
X184068000Y-102632000D01*
D14*
%TO.C,J10*%
X184404000Y-126746000D02*
X179324000Y-126746000D01*
X184404000Y-124206000D02*
X184404000Y-126746000D01*
X179324000Y-126746000D02*
X179324000Y-124206000D01*
X179324000Y-124206000D02*
X184404000Y-124206000D01*
%TO.C,J3*%
X184404000Y-111506000D02*
X184404000Y-116586000D01*
X179324000Y-116586000D02*
X179324000Y-111506000D01*
X184404000Y-116586000D02*
X179324000Y-116586000D01*
X179324000Y-111506000D02*
X184404000Y-111506000D01*
%TD*%
D17*
%TO.C,J23*%
X204470000Y-103886000D03*
X204470000Y-106426000D03*
%TD*%
%TO.C,J21*%
X199390000Y-103886000D03*
X199390000Y-106426000D03*
%TD*%
%TO.C,J1*%
X159766000Y-112522000D03*
X162306000Y-112522000D03*
X159766000Y-115062000D03*
X162306000Y-115062000D03*
X159766000Y-117602000D03*
X162306000Y-117602000D03*
%TD*%
%TO.C,J18*%
X194310000Y-103886000D03*
X194310000Y-106426000D03*
%TD*%
%TO.C,J25*%
X207010000Y-103886000D03*
X207010000Y-106426000D03*
%TD*%
%TO.C,J24*%
X213106000Y-112776000D03*
X215646000Y-112776000D03*
%TD*%
%TO.C,J16*%
X189230000Y-103886000D03*
X189230000Y-106426000D03*
%TD*%
%TO.C,J6*%
X199390000Y-136906000D03*
X199390000Y-139446000D03*
%TD*%
%TO.C,J20*%
X196850000Y-103886000D03*
X196850000Y-106426000D03*
%TD*%
%TO.C,J4*%
X159766000Y-123190000D03*
X162306000Y-123190000D03*
X159766000Y-125730000D03*
X162306000Y-125730000D03*
X159766000Y-128270000D03*
X162306000Y-128270000D03*
X159766000Y-130810000D03*
X162306000Y-130810000D03*
%TD*%
%TO.C,J5*%
X201930000Y-136906000D03*
X201930000Y-139446000D03*
%TD*%
D18*
%TO.C,SW1*%
X175209600Y-134402000D03*
X168909600Y-134402000D03*
X175209600Y-138902000D03*
X168909600Y-138902000D03*
%TD*%
D17*
%TO.C,J31*%
X213106000Y-120396000D03*
X215646000Y-120396000D03*
%TD*%
%TO.C,J29*%
X213106000Y-117856000D03*
X215646000Y-117856000D03*
%TD*%
%TO.C,J27*%
X213106000Y-122936000D03*
X215646000Y-122936000D03*
%TD*%
%TO.C,J19*%
X201930000Y-103886000D03*
X201930000Y-106426000D03*
%TD*%
%TO.C,J28*%
X213106000Y-125476000D03*
X215646000Y-125476000D03*
%TD*%
%TO.C,J30*%
X213106000Y-128016000D03*
X215646000Y-128016000D03*
%TD*%
%TO.C,J7*%
X196850000Y-136906000D03*
X196850000Y-139446000D03*
%TD*%
%TO.C,J2*%
X175006000Y-121412000D03*
X175006000Y-118872000D03*
%TD*%
%TO.C,J34*%
X207010000Y-136906000D03*
X207010000Y-139446000D03*
%TD*%
%TO.C,J32*%
X213106000Y-130556000D03*
X215646000Y-130556000D03*
%TD*%
%TO.C,J13*%
X180594000Y-128016000D03*
X183134000Y-128016000D03*
%TD*%
%TO.C,J11*%
X189230000Y-136906000D03*
X189230000Y-139446000D03*
%TD*%
%TO.C,J14*%
X183134000Y-130556000D03*
X180594000Y-130556000D03*
%TD*%
%TO.C,J15*%
X186690000Y-103886000D03*
X186690000Y-106426000D03*
%TD*%
%TO.C,J22*%
X213106000Y-115316000D03*
X215646000Y-115316000D03*
%TD*%
%TO.C,J33*%
X204470000Y-136906000D03*
X204470000Y-139446000D03*
%TD*%
%TO.C,J17*%
X191770000Y-103886000D03*
X191770000Y-106426000D03*
%TD*%
%TO.C,J8*%
X194310000Y-136906000D03*
X194310000Y-139446000D03*
%TD*%
%TO.C,J9*%
X191770000Y-136906000D03*
X191770000Y-139446000D03*
%TD*%
%TO.C,J10*%
X180594000Y-125476000D03*
X183134000Y-125476000D03*
%TD*%
%TO.C,J3*%
X180594000Y-112776000D03*
X183134000Y-112776000D03*
X180594000Y-115316000D03*
X183134000Y-115316000D03*
%TD*%
M02*
