%TF.GenerationSoftware,KiCad,Pcbnew,6.0.4-6f826c9f35~116~ubuntu20.04.1*%
%TF.CreationDate,2022-04-06T12:55:40+00:00*%
%TF.ProjectId,PROGLOG01A,50524f47-4c4f-4473-9031-412e6b696361,REV*%
%TF.SameCoordinates,Original*%
%TF.FileFunction,Paste,Bot*%
%TF.FilePolarity,Positive*%
%FSLAX46Y46*%
G04 Gerber Fmt 4.6, Leading zero omitted, Abs format (unit mm)*
G04 Created by KiCad (PCBNEW 6.0.4-6f826c9f35~116~ubuntu20.04.1) date 2022-04-06 12:55:40*
%MOMM*%
%LPD*%
G01*
G04 APERTURE LIST*
G04 Aperture macros list*
%AMRoundRect*
0 Rectangle with rounded corners*
0 $1 Rounding radius*
0 $2 $3 $4 $5 $6 $7 $8 $9 X,Y pos of 4 corners*
0 Add a 4 corners polygon primitive as box body*
4,1,4,$2,$3,$4,$5,$6,$7,$8,$9,$2,$3,0*
0 Add four circle primitives for the rounded corners*
1,1,$1+$1,$2,$3*
1,1,$1+$1,$4,$5*
1,1,$1+$1,$6,$7*
1,1,$1+$1,$8,$9*
0 Add four rect primitives between the rounded corners*
20,1,$1+$1,$2,$3,$4,$5,0*
20,1,$1+$1,$4,$5,$6,$7,0*
20,1,$1+$1,$6,$7,$8,$9,0*
20,1,$1+$1,$8,$9,$2,$3,0*%
%AMRotRect*
0 Rectangle, with rotation*
0 The origin of the aperture is its center*
0 $1 length*
0 $2 width*
0 $3 Rotation angle, in degrees counterclockwise*
0 Add horizontal line*
21,1,$1,$2,0,0,$3*%
G04 Aperture macros list end*
%ADD10RoundRect,0.250000X0.315000X-0.315000X0.315000X0.315000X-0.315000X0.315000X-0.315000X-0.315000X0*%
%ADD11RoundRect,0.062500X0.062500X-0.375000X0.062500X0.375000X-0.062500X0.375000X-0.062500X-0.375000X0*%
%ADD12RoundRect,0.062500X0.375000X-0.062500X0.375000X0.062500X-0.375000X0.062500X-0.375000X-0.062500X0*%
%ADD13R,1.397000X0.889000*%
%ADD14R,0.400000X1.500000*%
%ADD15R,1.560000X0.650000*%
%ADD16R,0.889000X1.397000*%
%ADD17RotRect,0.889000X1.397000X45.000000*%
%ADD18RotRect,1.600000X1.350000X135.000000*%
%ADD19R,1.500000X1.050000*%
%ADD20R,1.700000X1.300000*%
%ADD21R,1.550000X0.600000*%
%ADD22RotRect,0.889000X1.397000X135.000000*%
G04 APERTURE END LIST*
D10*
%TO.C,U4*%
X203191800Y-119654900D03*
X203191800Y-122454900D03*
X198991800Y-122454900D03*
X203191800Y-121054900D03*
X201791800Y-122454900D03*
X203191800Y-123854900D03*
X198991800Y-123854900D03*
X201791800Y-123854900D03*
X201791800Y-119654900D03*
X200391800Y-123854900D03*
X198991800Y-121054900D03*
X200391800Y-121054900D03*
X201791800Y-121054900D03*
X198991800Y-119654900D03*
X200391800Y-122454900D03*
X200391800Y-119654900D03*
D11*
X203841800Y-125192400D03*
X203341800Y-125192400D03*
X202841800Y-125192400D03*
X202341800Y-125192400D03*
X201841800Y-125192400D03*
X201341800Y-125192400D03*
X200841800Y-125192400D03*
X200341800Y-125192400D03*
X199841800Y-125192400D03*
X199341800Y-125192400D03*
X198841800Y-125192400D03*
X198341800Y-125192400D03*
D12*
X197654300Y-124504900D03*
X197654300Y-124004900D03*
X197654300Y-123504900D03*
X197654300Y-123004900D03*
X197654300Y-122504900D03*
X197654300Y-122004900D03*
X197654300Y-121504900D03*
X197654300Y-121004900D03*
X197654300Y-120504900D03*
X197654300Y-120004900D03*
X197654300Y-119504900D03*
X197654300Y-119004900D03*
D11*
X198341800Y-118317400D03*
X198841800Y-118317400D03*
X199341800Y-118317400D03*
X199841800Y-118317400D03*
X200341800Y-118317400D03*
X200841800Y-118317400D03*
X201341800Y-118317400D03*
X201841800Y-118317400D03*
X202341800Y-118317400D03*
X202841800Y-118317400D03*
X203341800Y-118317400D03*
X203841800Y-118317400D03*
D12*
X204529300Y-119004900D03*
X204529300Y-119504900D03*
X204529300Y-120004900D03*
X204529300Y-120504900D03*
X204529300Y-121004900D03*
X204529300Y-121504900D03*
X204529300Y-122004900D03*
X204529300Y-122504900D03*
X204529300Y-123004900D03*
X204529300Y-123504900D03*
X204529300Y-124004900D03*
X204529300Y-124504900D03*
%TD*%
D13*
%TO.C,C3*%
X165100000Y-117157500D03*
X165100000Y-119062500D03*
%TD*%
D14*
%TO.C,U1*%
X169403000Y-117288000D03*
X170053000Y-117288000D03*
X170703000Y-117288000D03*
X170703000Y-119948000D03*
X170053000Y-119948000D03*
X169403000Y-119948000D03*
%TD*%
D15*
%TO.C,U2*%
X168068000Y-114742000D03*
X168068000Y-113792000D03*
X168068000Y-112842000D03*
X170768000Y-112842000D03*
X170768000Y-114742000D03*
%TD*%
D13*
%TO.C,C4*%
X172974000Y-114808000D03*
X172974000Y-112903000D03*
%TD*%
D16*
%TO.C,R3*%
X176149000Y-112776000D03*
X178054000Y-112776000D03*
%TD*%
%TO.C,R2*%
X176149000Y-115316000D03*
X178054000Y-115316000D03*
%TD*%
D17*
%TO.C,R8*%
X185901762Y-110262238D03*
X187248800Y-108915200D03*
%TD*%
D13*
%TO.C,R10*%
X209550000Y-112077500D03*
X209550000Y-113982500D03*
%TD*%
D16*
%TO.C,R9*%
X192659000Y-130048000D03*
X194564000Y-130048000D03*
%TD*%
D13*
%TO.C,R5*%
X169926000Y-121793000D03*
X169926000Y-123698000D03*
%TD*%
D18*
%TO.C,X1*%
X188990421Y-124464188D03*
X186939812Y-122413579D03*
X188707579Y-120645812D03*
X190758188Y-122696421D03*
%TD*%
D13*
%TO.C,C1*%
X203200000Y-133781800D03*
X203200000Y-131876800D03*
%TD*%
%TO.C,C2*%
X167132000Y-117221000D03*
X167132000Y-119126000D03*
%TD*%
D17*
%TO.C,R7*%
X186460562Y-112853038D03*
X187807600Y-111506000D03*
%TD*%
D13*
%TO.C,R6*%
X171958000Y-121793000D03*
X171958000Y-123698000D03*
%TD*%
D19*
%TO.C,D3*%
X180086000Y-136176000D03*
X180086000Y-140176000D03*
%TD*%
%TO.C,D2*%
X184150000Y-136176000D03*
X184150000Y-140176000D03*
%TD*%
D20*
%TO.C,D1*%
X165354000Y-115062000D03*
X165354000Y-111562000D03*
%TD*%
D13*
%TO.C,C6*%
X195707000Y-114236500D03*
X195707000Y-112331500D03*
%TD*%
%TO.C,C5*%
X193675000Y-112953800D03*
X193675000Y-111048800D03*
%TD*%
D17*
%TO.C,C9*%
X184035281Y-118783519D03*
X185382319Y-117436481D03*
%TD*%
D21*
%TO.C,U3*%
X168480760Y-130060700D03*
X168480760Y-128790700D03*
X168480760Y-127520700D03*
X168480760Y-126250700D03*
X173880760Y-126250700D03*
X173880760Y-127520700D03*
X173880760Y-128790700D03*
X173880760Y-130060700D03*
%TD*%
D16*
%TO.C,R1*%
X177419000Y-123698000D03*
X175514000Y-123698000D03*
%TD*%
D22*
%TO.C,C10*%
X207695800Y-128778000D03*
X206348762Y-127430962D03*
%TD*%
%TO.C,C7*%
X187211538Y-125553038D03*
X185864500Y-124206000D03*
%TD*%
D16*
%TO.C,C8*%
X186791600Y-116078000D03*
X188696600Y-116078000D03*
%TD*%
D13*
%TO.C,R4*%
X197612000Y-114236500D03*
X197612000Y-112331500D03*
%TD*%
M02*
