  0
SECTION
  2
HEADER
  9
$ANGBASE
  50
0.0
  9
$ANGDIR
  70
1
  9
$MEASUREMENT
  70
0
  0
ENDSEC
  0
SECTION
  2
TABLES
  0
TABLE
  2
LTYPE
  70
4
  0
LTYPE
  5
40F
  2
CONTINUOUS
  70
0
  3
Solid line
  72
65
  73
0
  40
0.0
  0
LTYPE
  5
410
  2
DASHDOT
 70
0
  3
Dash Dot ____ _ ____ _
 72
65
 73
4
 40
2.0
 49
1.25
 49
-0.25
 49
0.25
 49
-0.25
  0
LTYPE
  5
411
  2
DASHED
 70
0
  3
Dashed __ __ __ __ __
 72
65
 73
2
 40
0.75
 49
0.5
 49
-0.25
  0
LTYPE
  5
43B
  2
DOTTED
 70
0
  3
Dotted .  .  .  .
 72
65
 73
2
 40
0.2
 49
0.0
 49
-0.2
  0
ENDTAB
  0
TABLE
  2
STYLE
  70
4
  0
STYLE
  2
KICAD
  70
0
  40
0
  41
1
  42
1
  50
0
  71
0
  3
isocp.shx
  0
STYLE
  2
KICADB
  70
0
  40
0
  41
1
  42
1
  50
0
  71
0
  3
isocp.shx
  0
STYLE
  2
KICADI
  70
0
  40
0
  41
1
  42
1
  50
15
  71
0
  3
isocp.shx
  0
STYLE
  2
KICADBI
  70
0
  40
0
  41
1
  42
1
  50
15
  71
0
  3
isocp.shx
  0
ENDTAB
  0
TABLE
  2
LAYER
  70
1
  0
LAYER
  2
BLACK
  70
0
  62
7
  6
CONTINUOUS
  0
ENDTAB
  0
ENDSEC
  0
SECTION
  2
ENTITIES
0
LINE
8
BLACK
6
CONTINUOUS
10
8.03858
20
-5.16159
11
8.03928
21
-5.16187
0
LINE
8
BLACK
6
CONTINUOUS
10
8.03928
20
-5.16187
11
8.03957
21
-5.16257
0
LINE
8
BLACK
6
CONTINUOUS
10
8.03957
20
-5.16257
11
8.03957
21
-5.29643
0
LINE
8
BLACK
6
CONTINUOUS
10
8.03957
20
-5.29643
11
8.03928
21
-5.29713
0
LINE
8
BLACK
6
CONTINUOUS
10
8.03928
20
-5.29713
11
8.03858
21
-5.29741
0
LINE
8
BLACK
6
CONTINUOUS
10
8.03858
20
-5.29741
11
7.96142
21
-5.29741
0
LINE
8
BLACK
6
CONTINUOUS
10
7.96142
20
-5.29741
11
7.96072
21
-5.29713
0
LINE
8
BLACK
6
CONTINUOUS
10
7.96072
20
-5.29713
11
7.96043
21
-5.29643
0
LINE
8
BLACK
6
CONTINUOUS
10
7.96043
20
-5.29643
11
7.96043
21
-5.16257
0
LINE
8
BLACK
6
CONTINUOUS
10
7.96043
20
-5.16257
11
7.96072
21
-5.16187
0
LINE
8
BLACK
6
CONTINUOUS
10
7.96072
20
-5.16187
11
7.96142
21
-5.16159
0
LINE
8
BLACK
6
CONTINUOUS
10
7.96142
20
-5.16159
11
8.03858
21
-5.16159
0
LINE
8
BLACK
6
CONTINUOUS
10
7.9624
20
-5.16356
11
7.9624
21
-5.29544
0
LINE
8
BLACK
6
CONTINUOUS
10
7.9624
20
-5.29544
11
8.0376
21
-5.29544
0
LINE
8
BLACK
6
CONTINUOUS
10
8.0376
20
-5.29544
11
8.0376
21
-5.16356
0
LINE
8
BLACK
6
CONTINUOUS
10
8.0376
20
-5.16356
11
7.9624
21
-5.16356
0
LINE
8
BLACK
6
CONTINUOUS
10
7.68864
20
-5.08161
11
7.68934
21
-5.0819
0
LINE
8
BLACK
6
CONTINUOUS
10
7.68934
20
-5.0819
11
7.68963
21
-5.0826
0
LINE
8
BLACK
6
CONTINUOUS
10
7.68963
20
-5.0826
11
7.68963
21
-5.1574
0
LINE
8
BLACK
6
CONTINUOUS
10
7.68963
20
-5.1574
11
7.68934
21
-5.1581
0
LINE
8
BLACK
6
CONTINUOUS
10
7.68934
20
-5.1581
11
7.68864
21
-5.15839
0
LINE
8
BLACK
6
CONTINUOUS
10
7.68864
20
-5.15839
11
7.55636
21
-5.15839
0
LINE
8
BLACK
6
CONTINUOUS
10
7.55636
20
-5.15839
11
7.55566
21
-5.1581
0
LINE
8
BLACK
6
CONTINUOUS
10
7.55566
20
-5.1581
11
7.55537
21
-5.1574
0
LINE
8
BLACK
6
CONTINUOUS
10
7.55537
20
-5.1574
11
7.55537
21
-5.0826
0
LINE
8
BLACK
6
CONTINUOUS
10
7.55537
20
-5.0826
11
7.55566
21
-5.0819
0
LINE
8
BLACK
6
CONTINUOUS
10
7.55566
20
-5.0819
11
7.55636
21
-5.08161
0
LINE
8
BLACK
6
CONTINUOUS
10
7.55636
20
-5.08161
11
7.68864
21
-5.08161
0
LINE
8
BLACK
6
CONTINUOUS
10
7.55734
20
-5.08358
11
7.55734
21
-5.15642
0
LINE
8
BLACK
6
CONTINUOUS
10
7.55734
20
-5.15642
11
7.68766
21
-5.15642
0
LINE
8
BLACK
6
CONTINUOUS
10
7.68766
20
-5.15642
11
7.68766
21
-5.08358
0
LINE
8
BLACK
6
CONTINUOUS
10
7.68766
20
-5.08358
11
7.55734
21
-5.08358
0
LINE
8
BLACK
6
CONTINUOUS
10
6.88704
20
-4.93625
11
6.88773
21
-4.93654
0
LINE
8
BLACK
6
CONTINUOUS
10
6.88773
20
-4.93654
11
6.88802
21
-4.93723
0
LINE
8
BLACK
6
CONTINUOUS
10
6.88802
20
-4.93723
11
6.88802
21
-5.15377
0
LINE
8
BLACK
6
CONTINUOUS
10
6.88802
20
-5.15377
11
6.88773
21
-5.15446
0
LINE
8
BLACK
6
CONTINUOUS
10
6.88773
20
-5.15446
11
6.88704
21
-5.15475
0
LINE
8
BLACK
6
CONTINUOUS
10
6.88704
20
-5.15475
11
6.59176
21
-5.15475
0
LINE
8
BLACK
6
CONTINUOUS
10
6.59176
20
-5.15475
11
6.59107
21
-5.15446
0
LINE
8
BLACK
6
CONTINUOUS
10
6.59107
20
-5.15446
11
6.59078
21
-5.15377
0
LINE
8
BLACK
6
CONTINUOUS
10
6.59078
20
-5.15377
11
6.59078
21
-4.93723
0
LINE
8
BLACK
6
CONTINUOUS
10
6.59078
20
-4.93723
11
6.59107
21
-4.93654
0
LINE
8
BLACK
6
CONTINUOUS
10
6.59107
20
-4.93654
11
6.59176
21
-4.93625
0
LINE
8
BLACK
6
CONTINUOUS
10
6.59176
20
-4.93625
11
6.88704
21
-4.93625
0
LINE
8
BLACK
6
CONTINUOUS
10
6.59275
20
-4.93822
11
6.59275
21
-5.15278
0
LINE
8
BLACK
6
CONTINUOUS
10
6.59275
20
-5.15278
11
6.88605
21
-5.15278
0
LINE
8
BLACK
6
CONTINUOUS
10
6.88605
20
-5.15278
11
6.88605
21
-4.93822
0
LINE
8
BLACK
6
CONTINUOUS
10
6.88605
20
-4.93822
11
6.59275
21
-4.93822
0
LINE
8
BLACK
6
CONTINUOUS
10
8.13114
20
-4.96818
11
8.22579
21
-5.06283
0
LINE
8
BLACK
6
CONTINUOUS
10
8.22579
20
-5.06283
11
8.22608
21
-5.06353
0
LINE
8
BLACK
6
CONTINUOUS
10
8.22608
20
-5.06353
11
8.22579
21
-5.06422
0
LINE
8
BLACK
6
CONTINUOUS
10
8.22579
20
-5.06422
11
8.22579
21
-5.06422
0
LINE
8
BLACK
6
CONTINUOUS
10
8.22579
20
-5.06422
11
8.17122
21
-5.11879
0
LINE
8
BLACK
6
CONTINUOUS
10
8.17122
20
-5.11879
11
8.17122
21
-5.11879
0
LINE
8
BLACK
6
CONTINUOUS
10
8.17122
20
-5.11879
11
8.17053
21
-5.11908
0
LINE
8
BLACK
6
CONTINUOUS
10
8.17053
20
-5.11908
11
8.16983
21
-5.11879
0
LINE
8
BLACK
6
CONTINUOUS
10
8.16983
20
-5.11879
11
8.07518
21
-5.02414
0
LINE
8
BLACK
6
CONTINUOUS
10
8.07518
20
-5.02414
11
8.07489
21
-5.02344
0
LINE
8
BLACK
6
CONTINUOUS
10
8.07489
20
-5.02344
11
8.07518
21
-5.02274
0
LINE
8
BLACK
6
CONTINUOUS
10
8.07518
20
-5.02274
11
8.07518
21
-5.02274
0
LINE
8
BLACK
6
CONTINUOUS
10
8.07518
20
-5.02274
11
8.12974
21
-4.96818
0
LINE
8
BLACK
6
CONTINUOUS
10
8.12974
20
-4.96818
11
8.12974
21
-4.96818
0
LINE
8
BLACK
6
CONTINUOUS
10
8.12974
20
-4.96818
11
8.12995
21
-4.96809
0
LINE
8
BLACK
6
CONTINUOUS
10
8.12995
20
-4.96809
11
8.13044
21
-4.96789
0
LINE
8
BLACK
6
CONTINUOUS
10
8.13044
20
-4.96789
11
8.13114
21
-4.96818
0
LINE
8
BLACK
6
CONTINUOUS
10
8.07727
20
-5.02344
11
8.17053
21
-5.1167
0
LINE
8
BLACK
6
CONTINUOUS
10
8.17053
20
-5.1167
11
8.2237
21
-5.06353
0
LINE
8
BLACK
6
CONTINUOUS
10
8.2237
20
-5.06353
11
8.13044
21
-4.97027
0
LINE
8
BLACK
6
CONTINUOUS
10
8.13044
20
-4.97027
11
8.07727
21
-5.02344
0
LINE
8
BLACK
6
CONTINUOUS
10
7.32467
20
-4.84121
11
7.41932
21
-4.93586
0
LINE
8
BLACK
6
CONTINUOUS
10
7.41932
20
-4.93586
11
7.41961
21
-4.93656
0
LINE
8
BLACK
6
CONTINUOUS
10
7.41961
20
-4.93656
11
7.41932
21
-4.93726
0
LINE
8
BLACK
6
CONTINUOUS
10
7.41932
20
-4.93726
11
7.41932
21
-4.93726
0
LINE
8
BLACK
6
CONTINUOUS
10
7.41932
20
-4.93726
11
7.36476
21
-4.99182
0
LINE
8
BLACK
6
CONTINUOUS
10
7.36476
20
-4.99182
11
7.36476
21
-4.99182
0
LINE
8
BLACK
6
CONTINUOUS
10
7.36476
20
-4.99182
11
7.36406
21
-4.99211
0
LINE
8
BLACK
6
CONTINUOUS
10
7.36406
20
-4.99211
11
7.36336
21
-4.99182
0
LINE
8
BLACK
6
CONTINUOUS
10
7.36336
20
-4.99182
11
7.26871
21
-4.89717
0
LINE
8
BLACK
6
CONTINUOUS
10
7.26871
20
-4.89717
11
7.26842
21
-4.89647
0
LINE
8
BLACK
6
CONTINUOUS
10
7.26842
20
-4.89647
11
7.26871
21
-4.89578
0
LINE
8
BLACK
6
CONTINUOUS
10
7.26871
20
-4.89578
11
7.32328
21
-4.84121
0
LINE
8
BLACK
6
CONTINUOUS
10
7.32328
20
-4.84121
11
7.32328
21
-4.84121
0
LINE
8
BLACK
6
CONTINUOUS
10
7.32328
20
-4.84121
11
7.32348
21
-4.84113
0
LINE
8
BLACK
6
CONTINUOUS
10
7.32348
20
-4.84113
11
7.32397
21
-4.84092
0
LINE
8
BLACK
6
CONTINUOUS
10
7.32397
20
-4.84092
11
7.32467
21
-4.84121
0
LINE
8
BLACK
6
CONTINUOUS
10
7.2708
20
-4.89647
11
7.36406
21
-4.98973
0
LINE
8
BLACK
6
CONTINUOUS
10
7.36406
20
-4.98973
11
7.41723
21
-4.93656
0
LINE
8
BLACK
6
CONTINUOUS
10
7.41723
20
-4.93656
11
7.32397
21
-4.8433
0
LINE
8
BLACK
6
CONTINUOUS
10
7.32397
20
-4.8433
11
7.2708
21
-4.89647
0
LINE
8
BLACK
6
CONTINUOUS
10
8.0792
20
-4.63031
11
8.0799
21
-4.6306
0
LINE
8
BLACK
6
CONTINUOUS
10
8.0799
20
-4.6306
11
8.08019
21
-4.6313
0
LINE
8
BLACK
6
CONTINUOUS
10
8.08019
20
-4.6313
11
8.08019
21
-4.9557
0
LINE
8
BLACK
6
CONTINUOUS
10
8.08019
20
-4.9557
11
8.0799
21
-4.9564
0
LINE
8
BLACK
6
CONTINUOUS
10
8.0799
20
-4.9564
11
8.0792
21
-4.95669
0
LINE
8
BLACK
6
CONTINUOUS
10
8.0792
20
-4.95669
11
7.7548
21
-4.95669
0
LINE
8
BLACK
6
CONTINUOUS
10
7.7548
20
-4.95669
11
7.7541
21
-4.9564
0
LINE
8
BLACK
6
CONTINUOUS
10
7.7541
20
-4.9564
11
7.75381
21
-4.9557
0
LINE
8
BLACK
6
CONTINUOUS
10
7.75381
20
-4.9557
11
7.75381
21
-4.6313
0
LINE
8
BLACK
6
CONTINUOUS
10
7.75381
20
-4.6313
11
7.7541
21
-4.6306
0
LINE
8
BLACK
6
CONTINUOUS
10
7.7541
20
-4.6306
11
7.7548
21
-4.63031
0
LINE
8
BLACK
6
CONTINUOUS
10
7.7548
20
-4.63031
11
8.0792
21
-4.63031
0
LINE
8
BLACK
6
CONTINUOUS
10
7.75578
20
-4.63228
11
7.75578
21
-4.95472
0
LINE
8
BLACK
6
CONTINUOUS
10
7.75578
20
-4.95472
11
8.07822
21
-4.95472
0
LINE
8
BLACK
6
CONTINUOUS
10
8.07822
20
-4.95472
11
8.07822
21
-4.63228
0
LINE
8
BLACK
6
CONTINUOUS
10
8.07822
20
-4.63228
11
7.75578
21
-4.63228
0
LINE
8
BLACK
6
CONTINUOUS
10
7.01364
20
-4.83161
11
7.01434
21
-4.8319
0
LINE
8
BLACK
6
CONTINUOUS
10
7.01434
20
-4.8319
11
7.01463
21
-4.8326
0
LINE
8
BLACK
6
CONTINUOUS
10
7.01463
20
-4.8326
11
7.01463
21
-4.9074
0
LINE
8
BLACK
6
CONTINUOUS
10
7.01463
20
-4.9074
11
7.01434
21
-4.9081
0
LINE
8
BLACK
6
CONTINUOUS
10
7.01434
20
-4.9081
11
7.01364
21
-4.90839
0
LINE
8
BLACK
6
CONTINUOUS
10
7.01364
20
-4.90839
11
6.88136
21
-4.90839
0
LINE
8
BLACK
6
CONTINUOUS
10
6.88136
20
-4.90839
11
6.88066
21
-4.9081
0
LINE
8
BLACK
6
CONTINUOUS
10
6.88066
20
-4.9081
11
6.88037
21
-4.9074
0
LINE
8
BLACK
6
CONTINUOUS
10
6.88037
20
-4.9074
11
6.88037
21
-4.9074
0
LINE
8
BLACK
6
CONTINUOUS
10
6.88037
20
-4.9074
11
6.88037
21
-4.8326
0
LINE
8
BLACK
6
CONTINUOUS
10
6.88037
20
-4.8326
11
6.88066
21
-4.8319
0
LINE
8
BLACK
6
CONTINUOUS
10
6.88066
20
-4.8319
11
6.88136
21
-4.83161
0
LINE
8
BLACK
6
CONTINUOUS
10
6.88136
20
-4.83161
11
7.01364
21
-4.83161
0
LINE
8
BLACK
6
CONTINUOUS
10
6.88234
20
-4.83358
11
6.88234
21
-4.90642
0
LINE
8
BLACK
6
CONTINUOUS
10
6.88234
20
-4.90642
11
7.01266
21
-4.90642
0
LINE
8
BLACK
6
CONTINUOUS
10
7.01266
20
-4.90642
11
7.01266
21
-4.83358
0
LINE
8
BLACK
6
CONTINUOUS
10
7.01266
20
-4.83358
11
6.88234
21
-4.83358
0
LINE
8
BLACK
6
CONTINUOUS
10
6.75012
20
-4.57453
11
6.75081
21
-4.57482
0
LINE
8
BLACK
6
CONTINUOUS
10
6.75081
20
-4.57482
11
6.7511
21
-4.57551
0
LINE
8
BLACK
6
CONTINUOUS
10
6.7511
20
-4.57551
11
6.7511
21
-4.76449
0
LINE
8
BLACK
6
CONTINUOUS
10
6.7511
20
-4.76449
11
6.75081
21
-4.76518
0
LINE
8
BLACK
6
CONTINUOUS
10
6.75081
20
-4.76518
11
6.75036
21
-4.76537
0
LINE
8
BLACK
6
CONTINUOUS
10
6.75036
20
-4.76537
11
6.8074
21
-4.76537
0
LINE
8
BLACK
6
CONTINUOUS
10
6.8074
20
-4.76537
11
6.8081
21
-4.76566
0
LINE
8
BLACK
6
CONTINUOUS
10
6.8081
20
-4.76566
11
6.80839
21
-4.76636
0
LINE
8
BLACK
6
CONTINUOUS
10
6.80839
20
-4.76636
11
6.80839
21
-4.89864
0
LINE
8
BLACK
6
CONTINUOUS
10
6.80839
20
-4.89864
11
6.8081
21
-4.89934
0
LINE
8
BLACK
6
CONTINUOUS
10
6.8081
20
-4.89934
11
6.8074
21
-4.89963
0
LINE
8
BLACK
6
CONTINUOUS
10
6.8074
20
-4.89963
11
6.7326
21
-4.89963
0
LINE
8
BLACK
6
CONTINUOUS
10
6.7326
20
-4.89963
11
6.7319
21
-4.89934
0
LINE
8
BLACK
6
CONTINUOUS
10
6.7319
20
-4.89934
11
6.73161
21
-4.89864
0
LINE
8
BLACK
6
CONTINUOUS
10
6.73161
20
-4.89864
11
6.73161
21
-4.76636
0
LINE
8
BLACK
6
CONTINUOUS
10
6.73161
20
-4.76636
11
6.7319
21
-4.76566
0
LINE
8
BLACK
6
CONTINUOUS
10
6.7319
20
-4.76566
11
6.73236
21
-4.76547
0
LINE
8
BLACK
6
CONTINUOUS
10
6.73236
20
-4.76547
11
6.72764
21
-4.76547
0
LINE
8
BLACK
6
CONTINUOUS
10
6.72764
20
-4.76547
11
6.7281
21
-4.76566
0
LINE
8
BLACK
6
CONTINUOUS
10
6.7281
20
-4.76566
11
6.72839
21
-4.76636
0
LINE
8
BLACK
6
CONTINUOUS
10
6.72839
20
-4.76636
11
6.72839
21
-4.89864
0
LINE
8
BLACK
6
CONTINUOUS
10
6.72839
20
-4.89864
11
6.7281
21
-4.89934
0
LINE
8
BLACK
6
CONTINUOUS
10
6.7281
20
-4.89934
11
6.7274
21
-4.89963
0
LINE
8
BLACK
6
CONTINUOUS
10
6.7274
20
-4.89963
11
6.6526
21
-4.89963
0
LINE
8
BLACK
6
CONTINUOUS
10
6.6526
20
-4.89963
11
6.6519
21
-4.89934
0
LINE
8
BLACK
6
CONTINUOUS
10
6.6519
20
-4.89934
11
6.65161
21
-4.89864
0
LINE
8
BLACK
6
CONTINUOUS
10
6.65161
20
-4.89864
11
6.65161
21
-4.76636
0
LINE
8
BLACK
6
CONTINUOUS
10
6.65161
20
-4.76636
11
6.6519
21
-4.76566
0
LINE
8
BLACK
6
CONTINUOUS
10
6.6519
20
-4.76566
11
6.65236
21
-4.76547
0
LINE
8
BLACK
6
CONTINUOUS
10
6.65236
20
-4.76547
11
6.63988
21
-4.76547
0
LINE
8
BLACK
6
CONTINUOUS
10
6.63988
20
-4.76547
11
6.63919
21
-4.76518
0
LINE
8
BLACK
6
CONTINUOUS
10
6.63919
20
-4.76518
11
6.6389
21
-4.76449
0
LINE
8
BLACK
6
CONTINUOUS
10
6.6389
20
-4.76449
11
6.6389
21
-4.57551
0
LINE
8
BLACK
6
CONTINUOUS
10
6.6389
20
-4.57551
11
6.63919
21
-4.57482
0
LINE
8
BLACK
6
CONTINUOUS
10
6.63919
20
-4.57482
11
6.63988
21
-4.57453
0
LINE
8
BLACK
6
CONTINUOUS
10
6.63988
20
-4.57453
11
6.75012
21
-4.57453
0
LINE
8
BLACK
6
CONTINUOUS
10
6.73358
20
-4.76734
11
6.73358
21
-4.89766
0
LINE
8
BLACK
6
CONTINUOUS
10
6.73358
20
-4.89766
11
6.80642
21
-4.89766
0
LINE
8
BLACK
6
CONTINUOUS
10
6.80642
20
-4.89766
11
6.80642
21
-4.76734
0
LINE
8
BLACK
6
CONTINUOUS
10
6.80642
20
-4.76734
11
6.73358
21
-4.76734
0
LINE
8
BLACK
6
CONTINUOUS
10
6.65358
20
-4.76734
11
6.65358
21
-4.89766
0
LINE
8
BLACK
6
CONTINUOUS
10
6.65358
20
-4.89766
11
6.72642
21
-4.89766
0
LINE
8
BLACK
6
CONTINUOUS
10
6.72642
20
-4.89766
11
6.72642
21
-4.76734
0
LINE
8
BLACK
6
CONTINUOUS
10
6.72642
20
-4.76734
11
6.65358
21
-4.76734
0
LINE
8
BLACK
6
CONTINUOUS
10
6.64087
20
-4.5765
11
6.64087
21
-4.7635
0
LINE
8
BLACK
6
CONTINUOUS
10
6.64087
20
-4.7635
11
6.74913
21
-4.7635
0
LINE
8
BLACK
6
CONTINUOUS
10
6.74913
20
-4.7635
11
6.74913
21
-4.5765
0
LINE
8
BLACK
6
CONTINUOUS
10
6.74913
20
-4.5765
11
6.64087
21
-4.5765
0
LINE
8
BLACK
6
CONTINUOUS
10
7.29274
20
-4.5747
11
7.3473
21
-4.62926
0
LINE
8
BLACK
6
CONTINUOUS
10
7.3473
20
-4.62926
11
7.3473
21
-4.62926
0
LINE
8
BLACK
6
CONTINUOUS
10
7.3473
20
-4.62926
11
7.34759
21
-4.62996
0
LINE
8
BLACK
6
CONTINUOUS
10
7.34759
20
-4.62996
11
7.3473
21
-4.63065
0
LINE
8
BLACK
6
CONTINUOUS
10
7.3473
20
-4.63065
11
7.25265
21
-4.7253
0
LINE
8
BLACK
6
CONTINUOUS
10
7.25265
20
-4.7253
11
7.25265
21
-4.7253
0
LINE
8
BLACK
6
CONTINUOUS
10
7.25265
20
-4.7253
11
7.25196
21
-4.72559
0
LINE
8
BLACK
6
CONTINUOUS
10
7.25196
20
-4.72559
11
7.25146
21
-4.72539
0
LINE
8
BLACK
6
CONTINUOUS
10
7.25146
20
-4.72539
11
7.25126
21
-4.7253
0
LINE
8
BLACK
6
CONTINUOUS
10
7.25126
20
-4.7253
11
7.25126
21
-4.7253
0
LINE
8
BLACK
6
CONTINUOUS
10
7.25126
20
-4.7253
11
7.1967
21
-4.67074
0
LINE
8
BLACK
6
CONTINUOUS
10
7.1967
20
-4.67074
11
7.19641
21
-4.67004
0
LINE
8
BLACK
6
CONTINUOUS
10
7.19641
20
-4.67004
11
7.1967
21
-4.66935
0
LINE
8
BLACK
6
CONTINUOUS
10
7.1967
20
-4.66935
11
7.29135
21
-4.5747
0
LINE
8
BLACK
6
CONTINUOUS
10
7.29135
20
-4.5747
11
7.29204
21
-4.57441
0
LINE
8
BLACK
6
CONTINUOUS
10
7.29204
20
-4.57441
11
7.29274
21
-4.5747
0
LINE
8
BLACK
6
CONTINUOUS
10
7.19878
20
-4.67004
11
7.25196
21
-4.72322
0
LINE
8
BLACK
6
CONTINUOUS
10
7.25196
20
-4.72322
11
7.34522
21
-4.62996
0
LINE
8
BLACK
6
CONTINUOUS
10
7.34522
20
-4.62996
11
7.29204
21
-4.57678
0
LINE
8
BLACK
6
CONTINUOUS
10
7.29204
20
-4.57678
11
7.19878
21
-4.67004
0
LINE
8
BLACK
6
CONTINUOUS
10
6.61858
20
-4.58459
11
6.61928
21
-4.58487
0
LINE
8
BLACK
6
CONTINUOUS
10
6.61928
20
-4.58487
11
6.61957
21
-4.58557
0
LINE
8
BLACK
6
CONTINUOUS
10
6.61957
20
-4.58557
11
6.61957
21
-4.71943
0
LINE
8
BLACK
6
CONTINUOUS
10
6.61957
20
-4.71943
11
6.61928
21
-4.72013
0
LINE
8
BLACK
6
CONTINUOUS
10
6.61928
20
-4.72013
11
6.61858
21
-4.72041
0
LINE
8
BLACK
6
CONTINUOUS
10
6.61858
20
-4.72041
11
6.54142
21
-4.72041
0
LINE
8
BLACK
6
CONTINUOUS
10
6.54142
20
-4.72041
11
6.54072
21
-4.72013
0
LINE
8
BLACK
6
CONTINUOUS
10
6.54072
20
-4.72013
11
6.54043
21
-4.71943
0
LINE
8
BLACK
6
CONTINUOUS
10
6.54043
20
-4.71943
11
6.54043
21
-4.58557
0
LINE
8
BLACK
6
CONTINUOUS
10
6.54043
20
-4.58557
11
6.54072
21
-4.58487
0
LINE
8
BLACK
6
CONTINUOUS
10
6.54072
20
-4.58487
11
6.54142
21
-4.58459
0
LINE
8
BLACK
6
CONTINUOUS
10
6.54142
20
-4.58459
11
6.61858
21
-4.58459
0
LINE
8
BLACK
6
CONTINUOUS
10
6.5424
20
-4.58656
11
6.5424
21
-4.71844
0
LINE
8
BLACK
6
CONTINUOUS
10
6.5424
20
-4.71844
11
6.6176
21
-4.71844
0
LINE
8
BLACK
6
CONTINUOUS
10
6.6176
20
-4.71844
11
6.6176
21
-4.58656
0
LINE
8
BLACK
6
CONTINUOUS
10
6.6176
20
-4.58656
11
6.5424
21
-4.58656
0
LINE
8
BLACK
6
CONTINUOUS
10
6.53858
20
-4.58209
11
6.53928
21
-4.58237
0
LINE
8
BLACK
6
CONTINUOUS
10
6.53928
20
-4.58237
11
6.53957
21
-4.58307
0
LINE
8
BLACK
6
CONTINUOUS
10
6.53957
20
-4.58307
11
6.53957
21
-4.71693
0
LINE
8
BLACK
6
CONTINUOUS
10
6.53957
20
-4.71693
11
6.53928
21
-4.71763
0
LINE
8
BLACK
6
CONTINUOUS
10
6.53928
20
-4.71763
11
6.53858
21
-4.71791
0
LINE
8
BLACK
6
CONTINUOUS
10
6.53858
20
-4.71791
11
6.46142
21
-4.71791
0
LINE
8
BLACK
6
CONTINUOUS
10
6.46142
20
-4.71791
11
6.46072
21
-4.71763
0
LINE
8
BLACK
6
CONTINUOUS
10
6.46072
20
-4.71763
11
6.46043
21
-4.71693
0
LINE
8
BLACK
6
CONTINUOUS
10
6.46043
20
-4.71693
11
6.46043
21
-4.58307
0
LINE
8
BLACK
6
CONTINUOUS
10
6.46043
20
-4.58307
11
6.46072
21
-4.58237
0
LINE
8
BLACK
6
CONTINUOUS
10
6.46072
20
-4.58237
11
6.46142
21
-4.58209
0
LINE
8
BLACK
6
CONTINUOUS
10
6.46142
20
-4.58209
11
6.53858
21
-4.58209
0
LINE
8
BLACK
6
CONTINUOUS
10
6.4624
20
-4.58406
11
6.4624
21
-4.71594
0
LINE
8
BLACK
6
CONTINUOUS
10
6.4624
20
-4.71594
11
6.5376
21
-4.71594
0
LINE
8
BLACK
6
CONTINUOUS
10
6.5376
20
-4.71594
11
6.5376
21
-4.58406
0
LINE
8
BLACK
6
CONTINUOUS
10
6.5376
20
-4.58406
11
6.4624
21
-4.58406
0
LINE
8
BLACK
6
CONTINUOUS
10
7.38765
20
-4.4667
11
7.4823
21
-4.56135
0
LINE
8
BLACK
6
CONTINUOUS
10
7.4823
20
-4.56135
11
7.48259
21
-4.56204
0
LINE
8
BLACK
6
CONTINUOUS
10
7.48259
20
-4.56204
11
7.4823
21
-4.56274
0
LINE
8
BLACK
6
CONTINUOUS
10
7.4823
20
-4.56274
11
7.4823
21
-4.56274
0
LINE
8
BLACK
6
CONTINUOUS
10
7.4823
20
-4.56274
11
7.42774
21
-4.6173
0
LINE
8
BLACK
6
CONTINUOUS
10
7.42774
20
-4.6173
11
7.42774
21
-4.6173
0
LINE
8
BLACK
6
CONTINUOUS
10
7.42774
20
-4.6173
11
7.42704
21
-4.61759
0
LINE
8
BLACK
6
CONTINUOUS
10
7.42704
20
-4.61759
11
7.42635
21
-4.6173
0
LINE
8
BLACK
6
CONTINUOUS
10
7.42635
20
-4.6173
11
7.3317
21
-4.52265
0
LINE
8
BLACK
6
CONTINUOUS
10
7.3317
20
-4.52265
11
7.33141
21
-4.52196
0
LINE
8
BLACK
6
CONTINUOUS
10
7.33141
20
-4.52196
11
7.3317
21
-4.52126
0
LINE
8
BLACK
6
CONTINUOUS
10
7.3317
20
-4.52126
11
7.3317
21
-4.52126
0
LINE
8
BLACK
6
CONTINUOUS
10
7.3317
20
-4.52126
11
7.38626
21
-4.4667
0
LINE
8
BLACK
6
CONTINUOUS
10
7.38626
20
-4.4667
11
7.38626
21
-4.4667
0
LINE
8
BLACK
6
CONTINUOUS
10
7.38626
20
-4.4667
11
7.38646
21
-4.46661
0
LINE
8
BLACK
6
CONTINUOUS
10
7.38646
20
-4.46661
11
7.38696
21
-4.46641
0
LINE
8
BLACK
6
CONTINUOUS
10
7.38696
20
-4.46641
11
7.38765
21
-4.4667
0
LINE
8
BLACK
6
CONTINUOUS
10
7.33378
20
-4.52196
11
7.42704
21
-4.61522
0
LINE
8
BLACK
6
CONTINUOUS
10
7.42704
20
-4.61522
11
7.48022
21
-4.56204
0
LINE
8
BLACK
6
CONTINUOUS
10
7.48022
20
-4.56204
11
7.38696
21
-4.46878
0
LINE
8
BLACK
6
CONTINUOUS
10
7.38696
20
-4.46878
11
7.33378
21
-4.52196
0
LINE
8
BLACK
6
CONTINUOUS
10
7.03864
20
-4.50161
11
7.03934
21
-4.5019
0
LINE
8
BLACK
6
CONTINUOUS
10
7.03934
20
-4.5019
11
7.03963
21
-4.5026
0
LINE
8
BLACK
6
CONTINUOUS
10
7.03963
20
-4.5026
11
7.03963
21
-4.5774
0
LINE
8
BLACK
6
CONTINUOUS
10
7.03963
20
-4.5774
11
7.03934
21
-4.5781
0
LINE
8
BLACK
6
CONTINUOUS
10
7.03934
20
-4.5781
11
7.03864
21
-4.57839
0
LINE
8
BLACK
6
CONTINUOUS
10
7.03864
20
-4.57839
11
6.90636
21
-4.57839
0
LINE
8
BLACK
6
CONTINUOUS
10
6.90636
20
-4.57839
11
6.90566
21
-4.5781
0
LINE
8
BLACK
6
CONTINUOUS
10
6.90566
20
-4.5781
11
6.90537
21
-4.5774
0
LINE
8
BLACK
6
CONTINUOUS
10
6.90537
20
-4.5774
11
6.90537
21
-4.5026
0
LINE
8
BLACK
6
CONTINUOUS
10
6.90537
20
-4.5026
11
6.90566
21
-4.5019
0
LINE
8
BLACK
6
CONTINUOUS
10
6.90566
20
-4.5019
11
6.90636
21
-4.50161
0
LINE
8
BLACK
6
CONTINUOUS
10
6.90636
20
-4.50161
11
7.03864
21
-4.50161
0
LINE
8
BLACK
6
CONTINUOUS
10
6.90734
20
-4.50358
11
6.90734
21
-4.57642
0
LINE
8
BLACK
6
CONTINUOUS
10
6.90734
20
-4.57642
11
7.03766
21
-4.57642
0
LINE
8
BLACK
6
CONTINUOUS
10
7.03766
20
-4.57642
11
7.03766
21
-4.50358
0
LINE
8
BLACK
6
CONTINUOUS
10
7.03766
20
-4.50358
11
6.90734
21
-4.50358
0
LINE
8
BLACK
6
CONTINUOUS
10
6.55331
20
-4.35579
11
6.554
21
-4.35608
0
LINE
8
BLACK
6
CONTINUOUS
10
6.554
20
-4.35608
11
6.55429
21
-4.35677
0
LINE
8
BLACK
6
CONTINUOUS
10
6.55429
20
-4.35677
11
6.55429
21
-4.56543
0
LINE
8
BLACK
6
CONTINUOUS
10
6.55429
20
-4.56543
11
6.554
21
-4.56613
0
LINE
8
BLACK
6
CONTINUOUS
10
6.554
20
-4.56613
11
6.55331
21
-4.56642
0
LINE
8
BLACK
6
CONTINUOUS
10
6.55331
20
-4.56642
11
6.46669
21
-4.56642
0
LINE
8
BLACK
6
CONTINUOUS
10
6.46669
20
-4.56642
11
6.466
21
-4.56613
0
LINE
8
BLACK
6
CONTINUOUS
10
6.466
20
-4.56613
11
6.46571
21
-4.56543
0
LINE
8
BLACK
6
CONTINUOUS
10
6.46571
20
-4.56543
11
6.46571
21
-4.56543
0
LINE
8
BLACK
6
CONTINUOUS
10
6.46571
20
-4.56543
11
6.46571
21
-4.35677
0
LINE
8
BLACK
6
CONTINUOUS
10
6.46571
20
-4.35677
11
6.466
21
-4.35608
0
LINE
8
BLACK
6
CONTINUOUS
10
6.466
20
-4.35608
11
6.46669
21
-4.35579
0
LINE
8
BLACK
6
CONTINUOUS
10
6.46669
20
-4.35579
11
6.55331
21
-4.35579
0
LINE
8
BLACK
6
CONTINUOUS
10
6.46768
20
-4.35776
11
6.46768
21
-4.56445
0
LINE
8
BLACK
6
CONTINUOUS
10
6.46768
20
-4.56445
11
6.55232
21
-4.56445
0
LINE
8
BLACK
6
CONTINUOUS
10
6.55232
20
-4.56445
11
6.55232
21
-4.35776
0
LINE
8
BLACK
6
CONTINUOUS
10
6.55232
20
-4.35776
11
6.46768
21
-4.35776
0
LINE
8
BLACK
6
CONTINUOUS
10
6.7637
20
-4.40815
11
6.7644
21
-4.40844
0
LINE
8
BLACK
6
CONTINUOUS
10
6.7644
20
-4.40844
11
6.76469
21
-4.40913
0
LINE
8
BLACK
6
CONTINUOUS
10
6.76469
20
-4.40913
11
6.76469
21
-4.55087
0
LINE
8
BLACK
6
CONTINUOUS
10
6.76469
20
-4.55087
11
6.7644
21
-4.55156
0
LINE
8
BLACK
6
CONTINUOUS
10
6.7644
20
-4.55156
11
6.7637
21
-4.55185
0
LINE
8
BLACK
6
CONTINUOUS
10
6.7637
20
-4.55185
11
6.5763
21
-4.55185
0
LINE
8
BLACK
6
CONTINUOUS
10
6.5763
20
-4.55185
11
6.5756
21
-4.55156
0
LINE
8
BLACK
6
CONTINUOUS
10
6.5756
20
-4.55156
11
6.57531
21
-4.55087
0
LINE
8
BLACK
6
CONTINUOUS
10
6.57531
20
-4.55087
11
6.57531
21
-4.40913
0
LINE
8
BLACK
6
CONTINUOUS
10
6.57531
20
-4.40913
11
6.5756
21
-4.40844
0
LINE
8
BLACK
6
CONTINUOUS
10
6.5756
20
-4.40844
11
6.5763
21
-4.40815
0
LINE
8
BLACK
6
CONTINUOUS
10
6.5763
20
-4.40815
11
6.7637
21
-4.40815
0
LINE
8
BLACK
6
CONTINUOUS
10
6.57728
20
-4.41012
11
6.57728
21
-4.54988
0
LINE
8
BLACK
6
CONTINUOUS
10
6.57728
20
-4.54988
11
6.76272
21
-4.54988
0
LINE
8
BLACK
6
CONTINUOUS
10
6.76272
20
-4.54988
11
6.76272
21
-4.41012
0
LINE
8
BLACK
6
CONTINUOUS
10
6.76272
20
-4.41012
11
6.57728
21
-4.41012
0
LINE
8
BLACK
6
CONTINUOUS
10
6.84858
20
-4.41459
11
6.84928
21
-4.41487
0
LINE
8
BLACK
6
CONTINUOUS
10
6.84928
20
-4.41487
11
6.84957
21
-4.41557
0
LINE
8
BLACK
6
CONTINUOUS
10
6.84957
20
-4.41557
11
6.84957
21
-4.54943
0
LINE
8
BLACK
6
CONTINUOUS
10
6.84957
20
-4.54943
11
6.84928
21
-4.55013
0
LINE
8
BLACK
6
CONTINUOUS
10
6.84928
20
-4.55013
11
6.84858
21
-4.55041
0
LINE
8
BLACK
6
CONTINUOUS
10
6.84858
20
-4.55041
11
6.77142
21
-4.55041
0
LINE
8
BLACK
6
CONTINUOUS
10
6.77142
20
-4.55041
11
6.77072
21
-4.55013
0
LINE
8
BLACK
6
CONTINUOUS
10
6.77072
20
-4.55013
11
6.77043
21
-4.54943
0
LINE
8
BLACK
6
CONTINUOUS
10
6.77043
20
-4.54943
11
6.77043
21
-4.54943
0
LINE
8
BLACK
6
CONTINUOUS
10
6.77043
20
-4.54943
11
6.77043
21
-4.41557
0
LINE
8
BLACK
6
CONTINUOUS
10
6.77043
20
-4.41557
11
6.77072
21
-4.41487
0
LINE
8
BLACK
6
CONTINUOUS
10
6.77072
20
-4.41487
11
6.77142
21
-4.41459
0
LINE
8
BLACK
6
CONTINUOUS
10
6.77142
20
-4.41459
11
6.84858
21
-4.41459
0
LINE
8
BLACK
6
CONTINUOUS
10
6.7724
20
-4.41656
11
6.7724
21
-4.54844
0
LINE
8
BLACK
6
CONTINUOUS
10
6.7724
20
-4.54844
11
6.8476
21
-4.54844
0
LINE
8
BLACK
6
CONTINUOUS
10
6.8476
20
-4.54844
11
6.8476
21
-4.41656
0
LINE
8
BLACK
6
CONTINUOUS
10
6.8476
20
-4.41656
11
6.7724
21
-4.41656
0
LINE
8
BLACK
6
CONTINUOUS
10
7.74358
20
-4.39209
11
7.74428
21
-4.39237
0
LINE
8
BLACK
6
CONTINUOUS
10
7.74428
20
-4.39237
11
7.74457
21
-4.39307
0
LINE
8
BLACK
6
CONTINUOUS
10
7.74457
20
-4.39307
11
7.74457
21
-4.52693
0
LINE
8
BLACK
6
CONTINUOUS
10
7.74457
20
-4.52693
11
7.74428
21
-4.52763
0
LINE
8
BLACK
6
CONTINUOUS
10
7.74428
20
-4.52763
11
7.74358
21
-4.52791
0
LINE
8
BLACK
6
CONTINUOUS
10
7.74358
20
-4.52791
11
7.66642
21
-4.52791
0
LINE
8
BLACK
6
CONTINUOUS
10
7.66642
20
-4.52791
11
7.66572
21
-4.52763
0
LINE
8
BLACK
6
CONTINUOUS
10
7.66572
20
-4.52763
11
7.66543
21
-4.52693
0
LINE
8
BLACK
6
CONTINUOUS
10
7.66543
20
-4.52693
11
7.66543
21
-4.39307
0
LINE
8
BLACK
6
CONTINUOUS
10
7.66543
20
-4.39307
11
7.66572
21
-4.39237
0
LINE
8
BLACK
6
CONTINUOUS
10
7.66572
20
-4.39237
11
7.66642
21
-4.39209
0
LINE
8
BLACK
6
CONTINUOUS
10
7.66642
20
-4.39209
11
7.74358
21
-4.39209
0
LINE
8
BLACK
6
CONTINUOUS
10
7.6674
20
-4.39406
11
7.6674
21
-4.52594
0
LINE
8
BLACK
6
CONTINUOUS
10
7.6674
20
-4.52594
11
7.7426
21
-4.52594
0
LINE
8
BLACK
6
CONTINUOUS
10
7.7426
20
-4.52594
11
7.7426
21
-4.39406
0
LINE
8
BLACK
6
CONTINUOUS
10
7.7426
20
-4.39406
11
7.6674
21
-4.39406
0
LINE
8
BLACK
6
CONTINUOUS
10
7.8234
20
-4.39287
11
7.8241
21
-4.39316
0
LINE
8
BLACK
6
CONTINUOUS
10
7.8241
20
-4.39316
11
7.82439
21
-4.39386
0
LINE
8
BLACK
6
CONTINUOUS
10
7.82439
20
-4.39386
11
7.82439
21
-4.52614
0
LINE
8
BLACK
6
CONTINUOUS
10
7.82439
20
-4.52614
11
7.8241
21
-4.52684
0
LINE
8
BLACK
6
CONTINUOUS
10
7.8241
20
-4.52684
11
7.8234
21
-4.52713
0
LINE
8
BLACK
6
CONTINUOUS
10
7.8234
20
-4.52713
11
7.7486
21
-4.52713
0
LINE
8
BLACK
6
CONTINUOUS
10
7.7486
20
-4.52713
11
7.7479
21
-4.52684
0
LINE
8
BLACK
6
CONTINUOUS
10
7.7479
20
-4.52684
11
7.74761
21
-4.52614
0
LINE
8
BLACK
6
CONTINUOUS
10
7.74761
20
-4.52614
11
7.74761
21
-4.39386
0
LINE
8
BLACK
6
CONTINUOUS
10
7.74761
20
-4.39386
11
7.7479
21
-4.39316
0
LINE
8
BLACK
6
CONTINUOUS
10
7.7479
20
-4.39316
11
7.7486
21
-4.39287
0
LINE
8
BLACK
6
CONTINUOUS
10
7.7486
20
-4.39287
11
7.8234
21
-4.39287
0
LINE
8
BLACK
6
CONTINUOUS
10
7.74958
20
-4.39484
11
7.74958
21
-4.52516
0
LINE
8
BLACK
6
CONTINUOUS
10
7.74958
20
-4.52516
11
7.82242
21
-4.52516
0
LINE
8
BLACK
6
CONTINUOUS
10
7.82242
20
-4.52516
11
7.82242
21
-4.39484
0
LINE
8
BLACK
6
CONTINUOUS
10
7.82242
20
-4.39484
11
7.74958
21
-4.39484
0
LINE
8
BLACK
6
CONTINUOUS
10
8.2874
20
-4.38287
11
8.2881
21
-4.38316
0
LINE
8
BLACK
6
CONTINUOUS
10
8.2881
20
-4.38316
11
8.28839
21
-4.38386
0
LINE
8
BLACK
6
CONTINUOUS
10
8.28839
20
-4.38386
11
8.28839
21
-4.51614
0
LINE
8
BLACK
6
CONTINUOUS
10
8.28839
20
-4.51614
11
8.2881
21
-4.51684
0
LINE
8
BLACK
6
CONTINUOUS
10
8.2881
20
-4.51684
11
8.2874
21
-4.51713
0
LINE
8
BLACK
6
CONTINUOUS
10
8.2874
20
-4.51713
11
8.2126
21
-4.51713
0
LINE
8
BLACK
6
CONTINUOUS
10
8.2126
20
-4.51713
11
8.2119
21
-4.51684
0
LINE
8
BLACK
6
CONTINUOUS
10
8.2119
20
-4.51684
11
8.21161
21
-4.51614
0
LINE
8
BLACK
6
CONTINUOUS
10
8.21161
20
-4.51614
11
8.21161
21
-4.38386
0
LINE
8
BLACK
6
CONTINUOUS
10
8.21161
20
-4.38386
11
8.2119
21
-4.38316
0
LINE
8
BLACK
6
CONTINUOUS
10
8.2119
20
-4.38316
11
8.2126
21
-4.38287
0
LINE
8
BLACK
6
CONTINUOUS
10
8.2126
20
-4.38287
11
8.2874
21
-4.38287
0
LINE
8
BLACK
6
CONTINUOUS
10
8.21358
20
-4.38484
11
8.21358
21
-4.51516
0
LINE
8
BLACK
6
CONTINUOUS
10
8.21358
20
-4.51516
11
8.28642
21
-4.51516
0
LINE
8
BLACK
6
CONTINUOUS
10
8.28642
20
-4.51516
11
8.28642
21
-4.38484
0
LINE
8
BLACK
6
CONTINUOUS
10
8.28642
20
-4.38484
11
8.21358
21
-4.38484
0
LINE
8
BLACK
6
CONTINUOUS
10
7.38781
20
-4.34232
11
7.3885
21
-4.3426
0
LINE
8
BLACK
6
CONTINUOUS
10
7.3885
20
-4.3426
11
7.4414
21
-4.3955
0
LINE
8
BLACK
6
CONTINUOUS
10
7.4414
20
-4.3955
11
7.44168
21
-4.39619
0
LINE
8
BLACK
6
CONTINUOUS
10
7.44168
20
-4.39619
11
7.4414
21
-4.39689
0
LINE
8
BLACK
6
CONTINUOUS
10
7.4414
20
-4.39689
11
7.4414
21
-4.39689
0
LINE
8
BLACK
6
CONTINUOUS
10
7.4414
20
-4.39689
11
7.34786
21
-4.49043
0
LINE
8
BLACK
6
CONTINUOUS
10
7.34786
20
-4.49043
11
7.34716
21
-4.49072
0
LINE
8
BLACK
6
CONTINUOUS
10
7.34716
20
-4.49072
11
7.34647
21
-4.49043
0
LINE
8
BLACK
6
CONTINUOUS
10
7.34647
20
-4.49043
11
7.29357
21
-4.43753
0
LINE
8
BLACK
6
CONTINUOUS
10
7.29357
20
-4.43753
11
7.29328
21
-4.43684
0
LINE
8
BLACK
6
CONTINUOUS
10
7.29328
20
-4.43684
11
7.29357
21
-4.43614
0
LINE
8
BLACK
6
CONTINUOUS
10
7.29357
20
-4.43614
11
7.29357
21
-4.43614
0
LINE
8
BLACK
6
CONTINUOUS
10
7.29357
20
-4.43614
11
7.38711
21
-4.3426
0
LINE
8
BLACK
6
CONTINUOUS
10
7.38711
20
-4.3426
11
7.38711
21
-4.3426
0
LINE
8
BLACK
6
CONTINUOUS
10
7.38711
20
-4.3426
11
7.38711
21
-4.3426
0
LINE
8
BLACK
6
CONTINUOUS
10
7.38711
20
-4.3426
11
7.38781
21
-4.34232
0
LINE
8
BLACK
6
CONTINUOUS
10
7.29566
20
-4.43684
11
7.34716
21
-4.48834
0
LINE
8
BLACK
6
CONTINUOUS
10
7.34716
20
-4.48834
11
7.43931
21
-4.39619
0
LINE
8
BLACK
6
CONTINUOUS
10
7.43931
20
-4.39619
11
7.38781
21
-4.34469
0
LINE
8
BLACK
6
CONTINUOUS
10
7.38781
20
-4.34469
11
7.29566
21
-4.43684
0
LINE
8
BLACK
6
CONTINUOUS
10
7.03864
20
-4.40161
11
7.03934
21
-4.4019
0
LINE
8
BLACK
6
CONTINUOUS
10
7.03934
20
-4.4019
11
7.03963
21
-4.4026
0
LINE
8
BLACK
6
CONTINUOUS
10
7.03963
20
-4.4026
11
7.03963
21
-4.4774
0
LINE
8
BLACK
6
CONTINUOUS
10
7.03963
20
-4.4774
11
7.03934
21
-4.4781
0
LINE
8
BLACK
6
CONTINUOUS
10
7.03934
20
-4.4781
11
7.03864
21
-4.47839
0
LINE
8
BLACK
6
CONTINUOUS
10
7.03864
20
-4.47839
11
6.90636
21
-4.47839
0
LINE
8
BLACK
6
CONTINUOUS
10
6.90636
20
-4.47839
11
6.90566
21
-4.4781
0
LINE
8
BLACK
6
CONTINUOUS
10
6.90566
20
-4.4781
11
6.90537
21
-4.4774
0
LINE
8
BLACK
6
CONTINUOUS
10
6.90537
20
-4.4774
11
6.90537
21
-4.4026
0
LINE
8
BLACK
6
CONTINUOUS
10
6.90537
20
-4.4026
11
6.90566
21
-4.4019
0
LINE
8
BLACK
6
CONTINUOUS
10
6.90566
20
-4.4019
11
6.90636
21
-4.40161
0
LINE
8
BLACK
6
CONTINUOUS
10
6.90636
20
-4.40161
11
7.03864
21
-4.40161
0
LINE
8
BLACK
6
CONTINUOUS
10
6.90734
20
-4.40358
11
6.90734
21
-4.47642
0
LINE
8
BLACK
6
CONTINUOUS
10
6.90734
20
-4.47642
11
7.03766
21
-4.47642
0
LINE
8
BLACK
6
CONTINUOUS
10
7.03766
20
-4.47642
11
7.03766
21
-4.40358
0
LINE
8
BLACK
6
CONTINUOUS
10
7.03766
20
-4.40358
11
6.90734
21
-4.40358
0
LINE
8
BLACK
6
CONTINUOUS
10
7.66358
20
-4.34159
11
7.66428
21
-4.34187
0
LINE
8
BLACK
6
CONTINUOUS
10
7.66428
20
-4.34187
11
7.66457
21
-4.34257
0
LINE
8
BLACK
6
CONTINUOUS
10
7.66457
20
-4.34257
11
7.66457
21
-4.47643
0
LINE
8
BLACK
6
CONTINUOUS
10
7.66457
20
-4.47643
11
7.66428
21
-4.47713
0
LINE
8
BLACK
6
CONTINUOUS
10
7.66428
20
-4.47713
11
7.66358
21
-4.47741
0
LINE
8
BLACK
6
CONTINUOUS
10
7.66358
20
-4.47741
11
7.58642
21
-4.47741
0
LINE
8
BLACK
6
CONTINUOUS
10
7.58642
20
-4.47741
11
7.58572
21
-4.47713
0
LINE
8
BLACK
6
CONTINUOUS
10
7.58572
20
-4.47713
11
7.58543
21
-4.47643
0
LINE
8
BLACK
6
CONTINUOUS
10
7.58543
20
-4.47643
11
7.58543
21
-4.47643
0
LINE
8
BLACK
6
CONTINUOUS
10
7.58543
20
-4.47643
11
7.58543
21
-4.34257
0
LINE
8
BLACK
6
CONTINUOUS
10
7.58543
20
-4.34257
11
7.58572
21
-4.34187
0
LINE
8
BLACK
6
CONTINUOUS
10
7.58572
20
-4.34187
11
7.58642
21
-4.34159
0
LINE
8
BLACK
6
CONTINUOUS
10
7.58642
20
-4.34159
11
7.66358
21
-4.34159
0
LINE
8
BLACK
6
CONTINUOUS
10
7.5874
20
-4.34356
11
7.5874
21
-4.47544
0
LINE
8
BLACK
6
CONTINUOUS
10
7.5874
20
-4.47544
11
7.6626
21
-4.47544
0
LINE
8
BLACK
6
CONTINUOUS
10
7.6626
20
-4.47544
11
7.6626
21
-4.34356
0
LINE
8
BLACK
6
CONTINUOUS
10
7.6626
20
-4.34356
11
7.5874
21
-4.34356
0
LINE
8
BLACK
6
CONTINUOUS
10
7.36581
20
-4.24032
11
7.3665
21
-4.2406
0
LINE
8
BLACK
6
CONTINUOUS
10
7.3665
20
-4.2406
11
7.4194
21
-4.2935
0
LINE
8
BLACK
6
CONTINUOUS
10
7.4194
20
-4.2935
11
7.41968
21
-4.29419
0
LINE
8
BLACK
6
CONTINUOUS
10
7.41968
20
-4.29419
11
7.4194
21
-4.29489
0
LINE
8
BLACK
6
CONTINUOUS
10
7.4194
20
-4.29489
11
7.4194
21
-4.29489
0
LINE
8
BLACK
6
CONTINUOUS
10
7.4194
20
-4.29489
11
7.32586
21
-4.38843
0
LINE
8
BLACK
6
CONTINUOUS
10
7.32586
20
-4.38843
11
7.32516
21
-4.38872
0
LINE
8
BLACK
6
CONTINUOUS
10
7.32516
20
-4.38872
11
7.32447
21
-4.38843
0
LINE
8
BLACK
6
CONTINUOUS
10
7.32447
20
-4.38843
11
7.27157
21
-4.33553
0
LINE
8
BLACK
6
CONTINUOUS
10
7.27157
20
-4.33553
11
7.27128
21
-4.33484
0
LINE
8
BLACK
6
CONTINUOUS
10
7.27128
20
-4.33484
11
7.27157
21
-4.33414
0
LINE
8
BLACK
6
CONTINUOUS
10
7.27157
20
-4.33414
11
7.36511
21
-4.2406
0
LINE
8
BLACK
6
CONTINUOUS
10
7.36511
20
-4.2406
11
7.36511
21
-4.2406
0
LINE
8
BLACK
6
CONTINUOUS
10
7.36511
20
-4.2406
11
7.36511
21
-4.2406
0
LINE
8
BLACK
6
CONTINUOUS
10
7.36511
20
-4.2406
11
7.36581
21
-4.24032
0
LINE
8
BLACK
6
CONTINUOUS
10
7.27366
20
-4.33484
11
7.32516
21
-4.38634
0
LINE
8
BLACK
6
CONTINUOUS
10
7.32516
20
-4.38634
11
7.41731
21
-4.29419
0
LINE
8
BLACK
6
CONTINUOUS
10
7.41731
20
-4.29419
11
7.36581
21
-4.24269
0
LINE
8
BLACK
6
CONTINUOUS
10
7.36581
20
-4.24269
11
7.27366
21
-4.33484
  0
ENDSEC
  0
EOF
