  0
SECTION
  2
HEADER
  9
$ANGBASE
  50
0.0
  9
$ANGDIR
  70
1
  9
$MEASUREMENT
  70
0
  0
ENDSEC
  0
SECTION
  2
TABLES
  0
TABLE
  2
LTYPE
  70
4
  0
LTYPE
  5
40F
  2
CONTINUOUS
  70
0
  3
Solid line
  72
65
  73
0
  40
0.0
  0
LTYPE
  5
410
  2
DASHDOT
 70
0
  3
Dash Dot ____ _ ____ _
 72
65
 73
4
 40
2.0
 49
1.25
 49
-0.25
 49
0.25
 49
-0.25
  0
LTYPE
  5
411
  2
DASHED
 70
0
  3
Dashed __ __ __ __ __
 72
65
 73
2
 40
0.75
 49
0.5
 49
-0.25
  0
LTYPE
  5
43B
  2
DOTTED
 70
0
  3
Dotted .  .  .  .
 72
65
 73
2
 40
0.2
 49
0.0
 49
-0.2
  0
ENDTAB
  0
TABLE
  2
STYLE
  70
4
  0
STYLE
  2
KICAD
  70
0
  40
0
  41
1
  42
1
  50
0
  71
0
  3
isocp.shx
  0
STYLE
  2
KICADB
  70
0
  40
0
  41
1
  42
1
  50
0
  71
0
  3
isocp.shx
  0
STYLE
  2
KICADI
  70
0
  40
0
  41
1
  42
1
  50
15
  71
0
  3
isocp.shx
  0
STYLE
  2
KICADBI
  70
0
  40
0
  41
1
  42
1
  50
15
  71
0
  3
isocp.shx
  0
ENDTAB
  0
TABLE
  2
LAYER
  70
1
  0
LAYER
  2
BLACK
  70
0
  62
7
  6
CONTINUOUS
  0
ENDTAB
  0
ENDSEC
  0
SECTION
  2
ENTITIES
0
LINE
8
BLACK
6
CONTINUOUS
10
6.19711
20
-3.99962
11
6.19709
21
-3.99949
0
LINE
8
BLACK
6
CONTINUOUS
10
6.19709
20
-3.99949
11
6.19716
21
-3.99937
0
LINE
8
BLACK
6
CONTINUOUS
10
6.19716
20
-3.99937
11
6.19723
21
-3.99899
0
LINE
8
BLACK
6
CONTINUOUS
10
6.19723
20
-3.99899
11
6.19772
21
-3.9984
0
LINE
8
BLACK
6
CONTINUOUS
10
6.19772
20
-3.9984
11
6.1981
21
-3.99774
0
LINE
8
BLACK
6
CONTINUOUS
10
6.1981
20
-3.99774
11
6.19835
21
-3.99765
0
LINE
8
BLACK
6
CONTINUOUS
10
6.19835
20
-3.99765
11
6.19852
21
-3.99744
0
LINE
8
BLACK
6
CONTINUOUS
10
6.19852
20
-3.99744
11
6.19928
21
-3.99731
0
LINE
8
BLACK
6
CONTINUOUS
10
6.19928
20
-3.99731
11
6.2
21
-3.99705
0
LINE
8
BLACK
6
CONTINUOUS
10
6.2
20
-3.99705
11
8.58
21
-3.99705
0
LINE
8
BLACK
6
CONTINUOUS
10
8.58
20
-3.99705
11
8.58038
21
-3.99711
0
LINE
8
BLACK
6
CONTINUOUS
10
8.58038
20
-3.99711
11
8.58051
21
-3.99709
0
LINE
8
BLACK
6
CONTINUOUS
10
8.58051
20
-3.99709
11
8.58063
21
-3.99716
0
LINE
8
BLACK
6
CONTINUOUS
10
8.58063
20
-3.99716
11
8.58101
21
-3.99723
0
LINE
8
BLACK
6
CONTINUOUS
10
8.58101
20
-3.99723
11
8.5816
21
-3.99772
0
LINE
8
BLACK
6
CONTINUOUS
10
8.5816
20
-3.99772
11
8.58226
21
-3.9981
0
LINE
8
BLACK
6
CONTINUOUS
10
8.58226
20
-3.9981
11
8.58235
21
-3.99835
0
LINE
8
BLACK
6
CONTINUOUS
10
8.58235
20
-3.99835
11
8.58256
21
-3.99852
0
LINE
8
BLACK
6
CONTINUOUS
10
8.58256
20
-3.99852
11
8.58269
21
-3.99928
0
LINE
8
BLACK
6
CONTINUOUS
10
8.58269
20
-3.99928
11
8.58295
21
-4
0
LINE
8
BLACK
6
CONTINUOUS
10
8.58295
20
-4
11
8.58295
21
-5.58
0
LINE
8
BLACK
6
CONTINUOUS
10
8.58295
20
-5.58
11
8.58289
21
-5.58038
0
LINE
8
BLACK
6
CONTINUOUS
10
8.58289
20
-5.58038
11
8.58291
21
-5.58051
0
LINE
8
BLACK
6
CONTINUOUS
10
8.58291
20
-5.58051
11
8.58284
21
-5.58063
0
LINE
8
BLACK
6
CONTINUOUS
10
8.58284
20
-5.58063
11
8.58277
21
-5.58101
0
LINE
8
BLACK
6
CONTINUOUS
10
8.58277
20
-5.58101
11
8.58228
21
-5.5816
0
LINE
8
BLACK
6
CONTINUOUS
10
8.58228
20
-5.5816
11
8.5819
21
-5.58226
0
LINE
8
BLACK
6
CONTINUOUS
10
8.5819
20
-5.58226
11
8.58165
21
-5.58235
0
LINE
8
BLACK
6
CONTINUOUS
10
8.58165
20
-5.58235
11
8.58148
21
-5.58256
0
LINE
8
BLACK
6
CONTINUOUS
10
8.58148
20
-5.58256
11
8.58072
21
-5.58269
0
LINE
8
BLACK
6
CONTINUOUS
10
8.58072
20
-5.58269
11
8.58
21
-5.58295
0
LINE
8
BLACK
6
CONTINUOUS
10
8.58
20
-5.58295
11
6.2
21
-5.58295
0
LINE
8
BLACK
6
CONTINUOUS
10
6.2
20
-5.58295
11
6.19962
21
-5.58289
0
LINE
8
BLACK
6
CONTINUOUS
10
6.19962
20
-5.58289
11
6.19949
21
-5.58291
0
LINE
8
BLACK
6
CONTINUOUS
10
6.19949
20
-5.58291
11
6.19937
21
-5.58284
0
LINE
8
BLACK
6
CONTINUOUS
10
6.19937
20
-5.58284
11
6.19899
21
-5.58277
0
LINE
8
BLACK
6
CONTINUOUS
10
6.19899
20
-5.58277
11
6.1984
21
-5.58228
0
LINE
8
BLACK
6
CONTINUOUS
10
6.1984
20
-5.58228
11
6.19774
21
-5.5819
0
LINE
8
BLACK
6
CONTINUOUS
10
6.19774
20
-5.5819
11
6.19765
21
-5.58165
0
LINE
8
BLACK
6
CONTINUOUS
10
6.19765
20
-5.58165
11
6.19744
21
-5.58148
0
LINE
8
BLACK
6
CONTINUOUS
10
6.19744
20
-5.58148
11
6.19731
21
-5.58072
0
LINE
8
BLACK
6
CONTINUOUS
10
6.19731
20
-5.58072
11
6.19705
21
-5.58
0
LINE
8
BLACK
6
CONTINUOUS
10
6.19705
20
-5.58
11
6.19705
21
-4
0
LINE
8
BLACK
6
CONTINUOUS
10
6.19705
20
-4
11
6.19711
21
-3.99962
0
LINE
8
BLACK
6
CONTINUOUS
10
8.57705
20
-5.57705
11
8.57705
21
-4.00295
0
LINE
8
BLACK
6
CONTINUOUS
10
8.57705
20
-4.00295
11
6.20295
21
-4.00295
0
LINE
8
BLACK
6
CONTINUOUS
10
6.20295
20
-4.00295
11
6.20295
21
-5.57705
0
LINE
8
BLACK
6
CONTINUOUS
10
6.20295
20
-5.57705
11
8.57705
21
-5.57705
  0
ENDSEC
  0
EOF
