  0
SECTION
  2
HEADER
  9
$ANGBASE
  50
0.0
  9
$ANGDIR
  70
1
  9
$MEASUREMENT
  70
0
  0
ENDSEC
  0
SECTION
  2
TABLES
  0
TABLE
  2
LTYPE
  70
4
  0
LTYPE
  5
40F
  2
CONTINUOUS
  70
0
  3
Solid line
  72
65
  73
0
  40
0.0
  0
LTYPE
  5
410
  2
DASHDOT
 70
0
  3
Dash Dot ____ _ ____ _
 72
65
 73
4
 40
2.0
 49
1.25
 49
-0.25
 49
0.25
 49
-0.25
  0
LTYPE
  5
411
  2
DASHED
 70
0
  3
Dashed __ __ __ __ __
 72
65
 73
2
 40
0.75
 49
0.5
 49
-0.25
  0
LTYPE
  5
43B
  2
DOTTED
 70
0
  3
Dotted .  .  .  .
 72
65
 73
2
 40
0.2
 49
0.0
 49
-0.2
  0
ENDTAB
  0
TABLE
  2
STYLE
  70
4
  0
STYLE
  2
KICAD
  70
0
  40
0
  41
1
  42
1
  50
0
  71
0
  3
isocp.shx
  0
STYLE
  2
KICADB
  70
0
  40
0
  41
1
  42
1
  50
0
  71
0
  3
isocp.shx
  0
STYLE
  2
KICADI
  70
0
  40
0
  41
1
  42
1
  50
15
  71
0
  3
isocp.shx
  0
STYLE
  2
KICADBI
  70
0
  40
0
  41
1
  42
1
  50
15
  71
0
  3
isocp.shx
  0
ENDTAB
  0
TABLE
  2
LAYER
  70
1
  0
LAYER
  2
BLACK
  70
0
  62
7
  6
CONTINUOUS
  0
ENDTAB
  0
ENDSEC
  0
SECTION
  2
ENTITIES
0
LINE
8
BLACK
6
CONTINUOUS
10
6.74519
20
-4.84856
11
6.74456
21
-4.84704
0
LINE
8
BLACK
6
CONTINUOUS
10
6.74456
20
-4.84704
11
6.74456
21
-4.83954
0
LINE
8
BLACK
6
CONTINUOUS
10
6.74456
20
-4.83954
11
6.74475
21
-4.83907
0
LINE
8
BLACK
6
CONTINUOUS
10
6.74475
20
-4.83907
11
6.74479
21
-4.83857
0
LINE
8
BLACK
6
CONTINUOUS
10
6.74479
20
-4.83857
11
6.74573
21
-4.8367
0
LINE
8
BLACK
6
CONTINUOUS
10
6.74573
20
-4.8367
11
6.74599
21
-4.83647
0
LINE
8
BLACK
6
CONTINUOUS
10
6.74599
20
-4.83647
11
6.74613
21
-4.83614
0
LINE
8
BLACK
6
CONTINUOUS
10
6.74613
20
-4.83614
11
6.74707
21
-4.8352
0
LINE
8
BLACK
6
CONTINUOUS
10
6.74707
20
-4.8352
11
6.74739
21
-4.83507
0
LINE
8
BLACK
6
CONTINUOUS
10
6.74739
20
-4.83507
11
6.74763
21
-4.8348
0
LINE
8
BLACK
6
CONTINUOUS
10
6.74763
20
-4.8348
11
6.7495
21
-4.83386
0
LINE
8
BLACK
6
CONTINUOUS
10
6.7495
20
-4.83386
11
6.75
21
-4.83382
0
LINE
8
BLACK
6
CONTINUOUS
10
6.75
20
-4.83382
11
6.75046
21
-4.83363
0
LINE
8
BLACK
6
CONTINUOUS
10
6.75046
20
-4.83363
11
6.75328
21
-4.83363
0
LINE
8
BLACK
6
CONTINUOUS
10
6.75328
20
-4.83363
11
6.75374
21
-4.83382
0
LINE
8
BLACK
6
CONTINUOUS
10
6.75374
20
-4.83382
11
6.75424
21
-4.83386
0
LINE
8
BLACK
6
CONTINUOUS
10
6.75424
20
-4.83386
11
6.75612
21
-4.8348
0
LINE
8
BLACK
6
CONTINUOUS
10
6.75612
20
-4.8348
11
6.75635
21
-4.83507
0
LINE
8
BLACK
6
CONTINUOUS
10
6.75635
20
-4.83507
11
6.75667
21
-4.8352
0
LINE
8
BLACK
6
CONTINUOUS
10
6.75667
20
-4.8352
11
6.75761
21
-4.83614
0
LINE
8
BLACK
6
CONTINUOUS
10
6.75761
20
-4.83614
11
6.75775
21
-4.83647
0
LINE
8
BLACK
6
CONTINUOUS
10
6.75775
20
-4.83647
11
6.75802
21
-4.8367
0
LINE
8
BLACK
6
CONTINUOUS
10
6.75802
20
-4.8367
11
6.75888
21
-4.83843
0
LINE
8
BLACK
6
CONTINUOUS
10
6.75888
20
-4.83843
11
6.76518
21
-4.83402
0
LINE
8
BLACK
6
CONTINUOUS
10
6.76518
20
-4.83402
11
6.76679
21
-4.83367
0
LINE
8
BLACK
6
CONTINUOUS
10
6.76679
20
-4.83367
11
6.76817
21
-4.83455
0
LINE
8
BLACK
6
CONTINUOUS
10
6.76817
20
-4.83455
11
6.76853
21
-4.83616
0
LINE
8
BLACK
6
CONTINUOUS
10
6.76853
20
-4.83616
11
6.76764
21
-4.83754
0
LINE
8
BLACK
6
CONTINUOUS
10
6.76764
20
-4.83754
11
6.75918
21
-4.84347
0
LINE
8
BLACK
6
CONTINUOUS
10
6.75918
20
-4.84347
11
6.75918
21
-4.84489
0
LINE
8
BLACK
6
CONTINUOUS
10
6.75918
20
-4.84489
11
6.76641
21
-4.84489
0
LINE
8
BLACK
6
CONTINUOUS
10
6.76641
20
-4.84489
11
6.76793
21
-4.84552
0
LINE
8
BLACK
6
CONTINUOUS
10
6.76793
20
-4.84552
11
6.76856
21
-4.84704
0
LINE
8
BLACK
6
CONTINUOUS
10
6.76856
20
-4.84704
11
6.76793
21
-4.84856
0
LINE
8
BLACK
6
CONTINUOUS
10
6.76793
20
-4.84856
11
6.76641
21
-4.84919
0
LINE
8
BLACK
6
CONTINUOUS
10
6.76641
20
-4.84919
11
6.74671
21
-4.84919
0
LINE
8
BLACK
6
CONTINUOUS
10
6.74671
20
-4.84919
11
6.74519
21
-4.84856
0
LINE
8
BLACK
6
CONTINUOUS
10
6.75097
20
-4.83793
11
6.74986
21
-4.83849
0
LINE
8
BLACK
6
CONTINUOUS
10
6.74986
20
-4.83849
11
6.74942
21
-4.83893
0
LINE
8
BLACK
6
CONTINUOUS
10
6.74942
20
-4.83893
11
6.74886
21
-4.84004
0
LINE
8
BLACK
6
CONTINUOUS
10
6.74886
20
-4.84004
11
6.74886
21
-4.84489
0
LINE
8
BLACK
6
CONTINUOUS
10
6.74886
20
-4.84489
11
6.75488
21
-4.84489
0
LINE
8
BLACK
6
CONTINUOUS
10
6.75488
20
-4.84489
11
6.75488
21
-4.84004
0
LINE
8
BLACK
6
CONTINUOUS
10
6.75488
20
-4.84004
11
6.75433
21
-4.83893
0
LINE
8
BLACK
6
CONTINUOUS
10
6.75433
20
-4.83893
11
6.75388
21
-4.83849
0
LINE
8
BLACK
6
CONTINUOUS
10
6.75388
20
-4.83849
11
6.75277
21
-4.83793
0
LINE
8
BLACK
6
CONTINUOUS
10
6.75277
20
-4.83793
11
6.75097
21
-4.83793
0
LINE
8
BLACK
6
CONTINUOUS
10
6.76312
20
-4.81506
11
6.76362
21
-4.8151
0
LINE
8
BLACK
6
CONTINUOUS
10
6.76362
20
-4.8151
11
6.7655
21
-4.81604
0
LINE
8
BLACK
6
CONTINUOUS
10
6.7655
20
-4.81604
11
6.76573
21
-4.8163
0
LINE
8
BLACK
6
CONTINUOUS
10
6.76573
20
-4.8163
11
6.76606
21
-4.81644
0
LINE
8
BLACK
6
CONTINUOUS
10
6.76606
20
-4.81644
11
6.76699
21
-4.81738
0
LINE
8
BLACK
6
CONTINUOUS
10
6.76699
20
-4.81738
11
6.76713
21
-4.8177
0
LINE
8
BLACK
6
CONTINUOUS
10
6.76713
20
-4.8177
11
6.7674
21
-4.81794
0
LINE
8
BLACK
6
CONTINUOUS
10
6.7674
20
-4.81794
11
6.76833
21
-4.81981
0
LINE
8
BLACK
6
CONTINUOUS
10
6.76833
20
-4.81981
11
6.76837
21
-4.82031
0
LINE
8
BLACK
6
CONTINUOUS
10
6.76837
20
-4.82031
11
6.76856
21
-4.82077
0
LINE
8
BLACK
6
CONTINUOUS
10
6.76856
20
-4.82077
11
6.76856
21
-4.82453
0
LINE
8
BLACK
6
CONTINUOUS
10
6.76856
20
-4.82453
11
6.76837
21
-4.82499
0
LINE
8
BLACK
6
CONTINUOUS
10
6.76837
20
-4.82499
11
6.76833
21
-4.82549
0
LINE
8
BLACK
6
CONTINUOUS
10
6.76833
20
-4.82549
11
6.7674
21
-4.82736
0
LINE
8
BLACK
6
CONTINUOUS
10
6.7674
20
-4.82736
11
6.76713
21
-4.8276
0
LINE
8
BLACK
6
CONTINUOUS
10
6.76713
20
-4.8276
11
6.76699
21
-4.82792
0
LINE
8
BLACK
6
CONTINUOUS
10
6.76699
20
-4.82792
11
6.76606
21
-4.82886
0
LINE
8
BLACK
6
CONTINUOUS
10
6.76606
20
-4.82886
11
6.76573
21
-4.829
0
LINE
8
BLACK
6
CONTINUOUS
10
6.76573
20
-4.829
11
6.7655
21
-4.82926
0
LINE
8
BLACK
6
CONTINUOUS
10
6.7655
20
-4.82926
11
6.76362
21
-4.8302
0
LINE
8
BLACK
6
CONTINUOUS
10
6.76362
20
-4.8302
11
6.76312
21
-4.83024
0
LINE
8
BLACK
6
CONTINUOUS
10
6.76312
20
-4.83024
11
6.76266
21
-4.83043
0
LINE
8
BLACK
6
CONTINUOUS
10
6.76266
20
-4.83043
11
6.75515
21
-4.83043
0
LINE
8
BLACK
6
CONTINUOUS
10
6.75515
20
-4.83043
11
6.7549
21
-4.83032
0
LINE
8
BLACK
6
CONTINUOUS
10
6.7549
20
-4.83032
11
6.75463
21
-4.83036
0
LINE
8
BLACK
6
CONTINUOUS
10
6.75463
20
-4.83036
11
6.75088
21
-4.82943
0
LINE
8
BLACK
6
CONTINUOUS
10
6.75088
20
-4.82943
11
6.75058
21
-4.8292
0
LINE
8
BLACK
6
CONTINUOUS
10
6.75058
20
-4.8292
11
6.75021
21
-4.82913
0
LINE
8
BLACK
6
CONTINUOUS
10
6.75021
20
-4.82913
11
6.7474
21
-4.82725
0
LINE
8
BLACK
6
CONTINUOUS
10
6.7474
20
-4.82725
11
6.74727
21
-4.82707
0
LINE
8
BLACK
6
CONTINUOUS
10
6.74727
20
-4.82707
11
6.74707
21
-4.82698
0
LINE
8
BLACK
6
CONTINUOUS
10
6.74707
20
-4.82698
11
6.74613
21
-4.82605
0
LINE
8
BLACK
6
CONTINUOUS
10
6.74613
20
-4.82605
11
6.74599
21
-4.82572
0
LINE
8
BLACK
6
CONTINUOUS
10
6.74599
20
-4.82572
11
6.74573
21
-4.82549
0
LINE
8
BLACK
6
CONTINUOUS
10
6.74573
20
-4.82549
11
6.74479
21
-4.82361
0
LINE
8
BLACK
6
CONTINUOUS
10
6.74479
20
-4.82361
11
6.74475
21
-4.82311
0
LINE
8
BLACK
6
CONTINUOUS
10
6.74475
20
-4.82311
11
6.74456
21
-4.82265
0
LINE
8
BLACK
6
CONTINUOUS
10
6.74456
20
-4.82265
11
6.74456
21
-4.8189
0
LINE
8
BLACK
6
CONTINUOUS
10
6.74456
20
-4.8189
11
6.74519
21
-4.81738
0
LINE
8
BLACK
6
CONTINUOUS
10
6.74519
20
-4.81738
11
6.74671
21
-4.81675
0
LINE
8
BLACK
6
CONTINUOUS
10
6.74671
20
-4.81675
11
6.74823
21
-4.81738
0
LINE
8
BLACK
6
CONTINUOUS
10
6.74823
20
-4.81738
11
6.74886
21
-4.8189
0
LINE
8
BLACK
6
CONTINUOUS
10
6.74886
20
-4.8189
11
6.74886
21
-4.82214
0
LINE
8
BLACK
6
CONTINUOUS
10
6.74886
20
-4.82214
11
6.74942
21
-4.82325
0
LINE
8
BLACK
6
CONTINUOUS
10
6.74942
20
-4.82325
11
6.74996
21
-4.82379
0
LINE
8
BLACK
6
CONTINUOUS
10
6.74996
20
-4.82379
11
6.75228
21
-4.82534
0
LINE
8
BLACK
6
CONTINUOUS
10
6.75228
20
-4.82534
11
6.75226
21
-4.82499
0
LINE
8
BLACK
6
CONTINUOUS
10
6.75226
20
-4.82499
11
6.75207
21
-4.82453
0
LINE
8
BLACK
6
CONTINUOUS
10
6.75207
20
-4.82453
11
6.75207
21
-4.82077
0
LINE
8
BLACK
6
CONTINUOUS
10
6.75207
20
-4.82077
11
6.75226
21
-4.82031
0
LINE
8
BLACK
6
CONTINUOUS
10
6.75226
20
-4.82031
11
6.75229
21
-4.81981
0
LINE
8
BLACK
6
CONTINUOUS
10
6.75229
20
-4.81981
11
6.75323
21
-4.81794
0
LINE
8
BLACK
6
CONTINUOUS
10
6.75323
20
-4.81794
11
6.7535
21
-4.8177
0
LINE
8
BLACK
6
CONTINUOUS
10
6.7535
20
-4.8177
11
6.75363
21
-4.81738
0
LINE
8
BLACK
6
CONTINUOUS
10
6.75363
20
-4.81738
11
6.75457
21
-4.81644
0
LINE
8
BLACK
6
CONTINUOUS
10
6.75457
20
-4.81644
11
6.7549
21
-4.8163
0
LINE
8
BLACK
6
CONTINUOUS
10
6.7549
20
-4.8163
11
6.75513
21
-4.81604
0
LINE
8
BLACK
6
CONTINUOUS
10
6.75513
20
-4.81604
11
6.75701
21
-4.8151
0
LINE
8
BLACK
6
CONTINUOUS
10
6.75701
20
-4.8151
11
6.75751
21
-4.81506
0
LINE
8
BLACK
6
CONTINUOUS
10
6.75751
20
-4.81506
11
6.75797
21
-4.81487
0
LINE
8
BLACK
6
CONTINUOUS
10
6.75797
20
-4.81487
11
6.76266
21
-4.81487
0
LINE
8
BLACK
6
CONTINUOUS
10
6.76266
20
-4.81487
11
6.76312
21
-4.81506
0
LINE
8
BLACK
6
CONTINUOUS
10
6.75848
20
-4.81917
11
6.75737
21
-4.81973
0
LINE
8
BLACK
6
CONTINUOUS
10
6.75737
20
-4.81973
11
6.75692
21
-4.82017
0
LINE
8
BLACK
6
CONTINUOUS
10
6.75692
20
-4.82017
11
6.75637
21
-4.82128
0
LINE
8
BLACK
6
CONTINUOUS
10
6.75637
20
-4.82128
11
6.75637
21
-4.82402
0
LINE
8
BLACK
6
CONTINUOUS
10
6.75637
20
-4.82402
11
6.75692
21
-4.82513
0
LINE
8
BLACK
6
CONTINUOUS
10
6.75692
20
-4.82513
11
6.75737
21
-4.82557
0
LINE
8
BLACK
6
CONTINUOUS
10
6.75737
20
-4.82557
11
6.75848
21
-4.82613
0
LINE
8
BLACK
6
CONTINUOUS
10
6.75848
20
-4.82613
11
6.76215
21
-4.82613
0
LINE
8
BLACK
6
CONTINUOUS
10
6.76215
20
-4.82613
11
6.76326
21
-4.82557
0
LINE
8
BLACK
6
CONTINUOUS
10
6.76326
20
-4.82557
11
6.76371
21
-4.82513
0
LINE
8
BLACK
6
CONTINUOUS
10
6.76371
20
-4.82513
11
6.76426
21
-4.82402
0
LINE
8
BLACK
6
CONTINUOUS
10
6.76426
20
-4.82402
11
6.76426
21
-4.82128
0
LINE
8
BLACK
6
CONTINUOUS
10
6.76426
20
-4.82128
11
6.76371
21
-4.82017
0
LINE
8
BLACK
6
CONTINUOUS
10
6.76371
20
-4.82017
11
6.76326
21
-4.81973
0
LINE
8
BLACK
6
CONTINUOUS
10
6.76326
20
-4.81973
11
6.76215
21
-4.81917
0
LINE
8
BLACK
6
CONTINUOUS
10
6.76215
20
-4.81917
11
6.75848
21
-4.81917
0
LINE
8
BLACK
6
CONTINUOUS
10
6.58861
20
-4.24139
11
6.58803
21
-4.24
0
LINE
8
BLACK
6
CONTINUOUS
10
6.58803
20
-4.24
11
6.58803
21
-4.035
0
LINE
8
BLACK
6
CONTINUOUS
10
6.58803
20
-4.035
11
6.58861
21
-4.03361
0
LINE
8
BLACK
6
CONTINUOUS
10
6.58861
20
-4.03361
11
6.59
21
-4.03303
0
LINE
8
BLACK
6
CONTINUOUS
10
6.59
20
-4.03303
11
7.25
21
-4.03303
0
LINE
8
BLACK
6
CONTINUOUS
10
7.25
20
-4.03303
11
7.25139
21
-4.03361
0
LINE
8
BLACK
6
CONTINUOUS
10
7.25139
20
-4.03361
11
7.25197
21
-4.035
0
LINE
8
BLACK
6
CONTINUOUS
10
7.25197
20
-4.035
11
7.25197
21
-4.24
0
LINE
8
BLACK
6
CONTINUOUS
10
7.25197
20
-4.24
11
7.25139
21
-4.24139
0
LINE
8
BLACK
6
CONTINUOUS
10
7.25139
20
-4.24139
11
7.25
21
-4.24197
0
LINE
8
BLACK
6
CONTINUOUS
10
7.25
20
-4.24197
11
6.59
21
-4.24197
0
LINE
8
BLACK
6
CONTINUOUS
10
6.59
20
-4.24197
11
6.58861
21
-4.24139
0
LINE
8
BLACK
6
CONTINUOUS
10
6.59197
20
-4.03697
11
6.59197
21
-4.23803
0
LINE
8
BLACK
6
CONTINUOUS
10
6.59197
20
-4.23803
11
7.24803
21
-4.23803
0
LINE
8
BLACK
6
CONTINUOUS
10
7.24803
20
-4.23803
11
7.24803
21
-4.03697
0
LINE
8
BLACK
6
CONTINUOUS
10
7.24803
20
-4.03697
11
6.59197
21
-4.03697
0
LINE
8
BLACK
6
CONTINUOUS
10
6.89039
20
-4.17154
11
6.89108
21
-4.17344
0
LINE
8
BLACK
6
CONTINUOUS
10
6.89108
20
-4.17344
11
6.89108
21
-4.20156
0
LINE
8
BLACK
6
CONTINUOUS
10
6.89108
20
-4.20156
11
6.89093
21
-4.20243
0
LINE
8
BLACK
6
CONTINUOUS
10
6.89093
20
-4.20243
11
6.89093
21
-4.2025
0
LINE
8
BLACK
6
CONTINUOUS
10
6.89093
20
-4.2025
11
6.88906
21
-4.20812
0
LINE
8
BLACK
6
CONTINUOUS
10
6.88906
20
-4.20812
11
6.88857
21
-4.20902
0
LINE
8
BLACK
6
CONTINUOUS
10
6.88857
20
-4.20902
11
6.88842
21
-4.20911
0
LINE
8
BLACK
6
CONTINUOUS
10
6.88842
20
-4.20911
11
6.88834
21
-4.20927
0
LINE
8
BLACK
6
CONTINUOUS
10
6.88834
20
-4.20927
11
6.88459
21
-4.21302
0
LINE
8
BLACK
6
CONTINUOUS
10
6.88459
20
-4.21302
11
6.88375
21
-4.21361
0
LINE
8
BLACK
6
CONTINUOUS
10
6.88375
20
-4.21361
11
6.88358
21
-4.21363
0
LINE
8
BLACK
6
CONTINUOUS
10
6.88358
20
-4.21363
11
6.88344
21
-4.21374
0
LINE
8
BLACK
6
CONTINUOUS
10
6.88344
20
-4.21374
11
6.87781
21
-4.21561
0
LINE
8
BLACK
6
CONTINUOUS
10
6.87781
20
-4.21561
11
6.87694
21
-4.21574
0
LINE
8
BLACK
6
CONTINUOUS
10
6.87694
20
-4.21574
11
6.87688
21
-4.21576
0
LINE
8
BLACK
6
CONTINUOUS
10
6.87688
20
-4.21576
11
6.87313
21
-4.21576
0
LINE
8
BLACK
6
CONTINUOUS
10
6.87313
20
-4.21576
11
6.87212
21
-4.21558
0
LINE
8
BLACK
6
CONTINUOUS
10
6.87212
20
-4.21558
11
6.87057
21
-4.21429
0
LINE
8
BLACK
6
CONTINUOUS
10
6.87057
20
-4.21429
11
6.87022
21
-4.2123
0
LINE
8
BLACK
6
CONTINUOUS
10
6.87022
20
-4.2123
11
6.87123
21
-4.21055
0
LINE
8
BLACK
6
CONTINUOUS
10
6.87123
20
-4.21055
11
6.87313
21
-4.20986
0
LINE
8
BLACK
6
CONTINUOUS
10
6.87313
20
-4.20986
11
6.8764
21
-4.20986
0
LINE
8
BLACK
6
CONTINUOUS
10
6.8764
20
-4.20986
11
6.88091
21
-4.20835
0
LINE
8
BLACK
6
CONTINUOUS
10
6.88091
20
-4.20835
11
6.88367
21
-4.20559
0
LINE
8
BLACK
6
CONTINUOUS
10
6.88367
20
-4.20559
11
6.88518
21
-4.20108
0
LINE
8
BLACK
6
CONTINUOUS
10
6.88518
20
-4.20108
11
6.88518
21
-4.17344
0
LINE
8
BLACK
6
CONTINUOUS
10
6.88518
20
-4.17344
11
6.88535
21
-4.17243
0
LINE
8
BLACK
6
CONTINUOUS
10
6.88535
20
-4.17243
11
6.88665
21
-4.17088
0
LINE
8
BLACK
6
CONTINUOUS
10
6.88665
20
-4.17088
11
6.88864
21
-4.17053
0
LINE
8
BLACK
6
CONTINUOUS
10
6.88864
20
-4.17053
11
6.89039
21
-4.17154
0
LINE
8
BLACK
6
CONTINUOUS
10
6.92101
20
-4.17067
11
6.92115
21
-4.17078
0
LINE
8
BLACK
6
CONTINUOUS
10
6.92115
20
-4.17078
11
6.92132
21
-4.1708
0
LINE
8
BLACK
6
CONTINUOUS
10
6.92132
20
-4.1708
11
6.92507
21
-4.17267
0
LINE
8
BLACK
6
CONTINUOUS
10
6.92507
20
-4.17267
11
6.92578
21
-4.1732
0
LINE
8
BLACK
6
CONTINUOUS
10
6.92578
20
-4.1732
11
6.92584
21
-4.17323
0
LINE
8
BLACK
6
CONTINUOUS
10
6.92584
20
-4.17323
11
6.92771
21
-4.1751
0
LINE
8
BLACK
6
CONTINUOUS
10
6.92771
20
-4.1751
11
6.92822
21
-4.17582
0
LINE
8
BLACK
6
CONTINUOUS
10
6.92822
20
-4.17582
11
6.92827
21
-4.17587
0
LINE
8
BLACK
6
CONTINUOUS
10
6.92827
20
-4.17587
11
6.93014
21
-4.17962
0
LINE
8
BLACK
6
CONTINUOUS
10
6.93014
20
-4.17962
11
6.93043
21
-4.1806
0
LINE
8
BLACK
6
CONTINUOUS
10
6.93043
20
-4.1806
11
6.93039
21
-4.18077
0
LINE
8
BLACK
6
CONTINUOUS
10
6.93039
20
-4.18077
11
6.93045
21
-4.18094
0
LINE
8
BLACK
6
CONTINUOUS
10
6.93045
20
-4.18094
11
6.93045
21
-4.18469
0
LINE
8
BLACK
6
CONTINUOUS
10
6.93045
20
-4.18469
11
6.9303
21
-4.18556
0
LINE
8
BLACK
6
CONTINUOUS
10
6.9303
20
-4.18556
11
6.9303
21
-4.18562
0
LINE
8
BLACK
6
CONTINUOUS
10
6.9303
20
-4.18562
11
6.92843
21
-4.19125
0
LINE
8
BLACK
6
CONTINUOUS
10
6.92843
20
-4.19125
11
6.92794
21
-4.19215
0
LINE
8
BLACK
6
CONTINUOUS
10
6.92794
20
-4.19215
11
6.92779
21
-4.19224
0
LINE
8
BLACK
6
CONTINUOUS
10
6.92779
20
-4.19224
11
6.92771
21
-4.1924
0
LINE
8
BLACK
6
CONTINUOUS
10
6.92771
20
-4.1924
11
6.91026
21
-4.20986
0
LINE
8
BLACK
6
CONTINUOUS
10
6.91026
20
-4.20986
11
6.9275
21
-4.20986
0
LINE
8
BLACK
6
CONTINUOUS
10
6.9275
20
-4.20986
11
6.92851
21
-4.21004
0
LINE
8
BLACK
6
CONTINUOUS
10
6.92851
20
-4.21004
11
6.93006
21
-4.21133
0
LINE
8
BLACK
6
CONTINUOUS
10
6.93006
20
-4.21133
11
6.93041
21
-4.21332
0
LINE
8
BLACK
6
CONTINUOUS
10
6.93041
20
-4.21332
11
6.9294
21
-4.21507
0
LINE
8
BLACK
6
CONTINUOUS
10
6.9294
20
-4.21507
11
6.9275
21
-4.21576
0
LINE
8
BLACK
6
CONTINUOUS
10
6.9275
20
-4.21576
11
6.90313
21
-4.21576
0
LINE
8
BLACK
6
CONTINUOUS
10
6.90313
20
-4.21576
11
6.90249
21
-4.21565
0
LINE
8
BLACK
6
CONTINUOUS
10
6.90249
20
-4.21565
11
6.90236
21
-4.21566
0
LINE
8
BLACK
6
CONTINUOUS
10
6.90236
20
-4.21566
11
6.9023
21
-4.21562
0
LINE
8
BLACK
6
CONTINUOUS
10
6.9023
20
-4.21562
11
6.90212
21
-4.21558
0
LINE
8
BLACK
6
CONTINUOUS
10
6.90212
20
-4.21558
11
6.90144
21
-4.21501
0
LINE
8
BLACK
6
CONTINUOUS
10
6.90144
20
-4.21501
11
6.90071
21
-4.2145
0
LINE
8
BLACK
6
CONTINUOUS
10
6.90071
20
-4.2145
11
6.90067
21
-4.21437
0
LINE
8
BLACK
6
CONTINUOUS
10
6.90067
20
-4.21437
11
6.90057
21
-4.21429
0
LINE
8
BLACK
6
CONTINUOUS
10
6.90057
20
-4.21429
11
6.90042
21
-4.21341
0
LINE
8
BLACK
6
CONTINUOUS
10
6.90042
20
-4.21341
11
6.90019
21
-4.21255
0
LINE
8
BLACK
6
CONTINUOUS
10
6.90019
20
-4.21255
11
6.90024
21
-4.21243
0
LINE
8
BLACK
6
CONTINUOUS
10
6.90024
20
-4.21243
11
6.90022
21
-4.2123
0
LINE
8
BLACK
6
CONTINUOUS
10
6.90022
20
-4.2123
11
6.90066
21
-4.21153
0
LINE
8
BLACK
6
CONTINUOUS
10
6.90066
20
-4.21153
11
6.90104
21
-4.21072
0
LINE
8
BLACK
6
CONTINUOUS
10
6.90104
20
-4.21072
11
6.92304
21
-4.18872
0
LINE
8
BLACK
6
CONTINUOUS
10
6.92304
20
-4.18872
11
6.92455
21
-4.18421
0
LINE
8
BLACK
6
CONTINUOUS
10
6.92455
20
-4.18421
11
6.92455
21
-4.18164
0
LINE
8
BLACK
6
CONTINUOUS
10
6.92455
20
-4.18164
11
6.9232
21
-4.17894
0
LINE
8
BLACK
6
CONTINUOUS
10
6.9232
20
-4.17894
11
6.922
21
-4.17774
0
LINE
8
BLACK
6
CONTINUOUS
10
6.922
20
-4.17774
11
6.9193
21
-4.17639
0
LINE
8
BLACK
6
CONTINUOUS
10
6.9193
20
-4.17639
11
6.91132
21
-4.17639
0
LINE
8
BLACK
6
CONTINUOUS
10
6.91132
20
-4.17639
11
6.90863
21
-4.17774
0
LINE
8
BLACK
6
CONTINUOUS
10
6.90863
20
-4.17774
11
6.90709
21
-4.17928
0
LINE
8
BLACK
6
CONTINUOUS
10
6.90709
20
-4.17928
11
6.90625
21
-4.17987
0
LINE
8
BLACK
6
CONTINUOUS
10
6.90625
20
-4.17987
11
6.90424
21
-4.18004
0
LINE
8
BLACK
6
CONTINUOUS
10
6.90424
20
-4.18004
11
6.90258
21
-4.17888
0
LINE
8
BLACK
6
CONTINUOUS
10
6.90258
20
-4.17888
11
6.90206
21
-4.17693
0
LINE
8
BLACK
6
CONTINUOUS
10
6.90206
20
-4.17693
11
6.90291
21
-4.1751
0
LINE
8
BLACK
6
CONTINUOUS
10
6.90291
20
-4.1751
11
6.90479
21
-4.17323
0
LINE
8
BLACK
6
CONTINUOUS
10
6.90479
20
-4.17323
11
6.90551
21
-4.17272
0
LINE
8
BLACK
6
CONTINUOUS
10
6.90551
20
-4.17272
11
6.90556
21
-4.17267
0
LINE
8
BLACK
6
CONTINUOUS
10
6.90556
20
-4.17267
11
6.90931
21
-4.1708
0
LINE
8
BLACK
6
CONTINUOUS
10
6.90931
20
-4.1708
11
6.91029
21
-4.17051
0
LINE
8
BLACK
6
CONTINUOUS
10
6.91029
20
-4.17051
11
6.91046
21
-4.17055
0
LINE
8
BLACK
6
CONTINUOUS
10
6.91046
20
-4.17055
11
6.91063
21
-4.17049
0
LINE
8
BLACK
6
CONTINUOUS
10
6.91063
20
-4.17049
11
6.92
21
-4.17049
0
LINE
8
BLACK
6
CONTINUOUS
10
6.92
20
-4.17049
11
6.92101
21
-4.17067
0
LINE
8
BLACK
6
CONTINUOUS
10
6.96225
20
-4.17067
11
6.9638
21
-4.17196
0
LINE
8
BLACK
6
CONTINUOUS
10
6.9638
20
-4.17196
11
6.96415
21
-4.17395
0
LINE
8
BLACK
6
CONTINUOUS
10
6.96415
20
-4.17395
11
6.96314
21
-4.1757
0
LINE
8
BLACK
6
CONTINUOUS
10
6.96314
20
-4.1757
11
6.96124
21
-4.17639
0
LINE
8
BLACK
6
CONTINUOUS
10
6.96124
20
-4.17639
11
6.95444
21
-4.17639
0
LINE
8
BLACK
6
CONTINUOUS
10
6.95444
20
-4.17639
11
6.95175
21
-4.17774
0
LINE
8
BLACK
6
CONTINUOUS
10
6.95175
20
-4.17774
11
6.95042
21
-4.17907
0
LINE
8
BLACK
6
CONTINUOUS
10
6.95042
20
-4.17907
11
6.94711
21
-4.18403
0
LINE
8
BLACK
6
CONTINUOUS
10
6.94711
20
-4.18403
11
6.94638
21
-4.18694
0
LINE
8
BLACK
6
CONTINUOUS
10
6.94638
20
-4.18694
11
6.94868
21
-4.1858
0
LINE
8
BLACK
6
CONTINUOUS
10
6.94868
20
-4.1858
11
6.94966
21
-4.1855
0
LINE
8
BLACK
6
CONTINUOUS
10
6.94966
20
-4.1855
11
6.94983
21
-4.18555
0
LINE
8
BLACK
6
CONTINUOUS
10
6.94983
20
-4.18555
11
6.95
21
-4.18549
0
LINE
8
BLACK
6
CONTINUOUS
10
6.95
20
-4.18549
11
6.9575
21
-4.18549
0
LINE
8
BLACK
6
CONTINUOUS
10
6.9575
20
-4.18549
11
6.95851
21
-4.18566
0
LINE
8
BLACK
6
CONTINUOUS
10
6.95851
20
-4.18566
11
6.95864
21
-4.18578
0
LINE
8
BLACK
6
CONTINUOUS
10
6.95864
20
-4.18578
11
6.95882
21
-4.1858
0
LINE
8
BLACK
6
CONTINUOUS
10
6.95882
20
-4.1858
11
6.96257
21
-4.18767
0
LINE
8
BLACK
6
CONTINUOUS
10
6.96257
20
-4.18767
11
6.96327
21
-4.1882
0
LINE
8
BLACK
6
CONTINUOUS
10
6.96327
20
-4.1882
11
6.96333
21
-4.18823
0
LINE
8
BLACK
6
CONTINUOUS
10
6.96333
20
-4.18823
11
6.96521
21
-4.1901
0
LINE
8
BLACK
6
CONTINUOUS
10
6.96521
20
-4.1901
11
6.96571
21
-4.19082
0
LINE
8
BLACK
6
CONTINUOUS
10
6.96571
20
-4.19082
11
6.96576
21
-4.19087
0
LINE
8
BLACK
6
CONTINUOUS
10
6.96576
20
-4.19087
11
6.96764
21
-4.19462
0
LINE
8
BLACK
6
CONTINUOUS
10
6.96764
20
-4.19462
11
6.96793
21
-4.1956
0
LINE
8
BLACK
6
CONTINUOUS
10
6.96793
20
-4.1956
11
6.96789
21
-4.19577
0
LINE
8
BLACK
6
CONTINUOUS
10
6.96789
20
-4.19577
11
6.96795
21
-4.19594
0
LINE
8
BLACK
6
CONTINUOUS
10
6.96795
20
-4.19594
11
6.96795
21
-4.20531
0
LINE
8
BLACK
6
CONTINUOUS
10
6.96795
20
-4.20531
11
6.96777
21
-4.20632
0
LINE
8
BLACK
6
CONTINUOUS
10
6.96777
20
-4.20632
11
6.96766
21
-4.20646
0
LINE
8
BLACK
6
CONTINUOUS
10
6.96766
20
-4.20646
11
6.96764
21
-4.20663
0
LINE
8
BLACK
6
CONTINUOUS
10
6.96764
20
-4.20663
11
6.96576
21
-4.21038
0
LINE
8
BLACK
6
CONTINUOUS
10
6.96576
20
-4.21038
11
6.96523
21
-4.21109
0
LINE
8
BLACK
6
CONTINUOUS
10
6.96523
20
-4.21109
11
6.96521
21
-4.21115
0
LINE
8
BLACK
6
CONTINUOUS
10
6.96521
20
-4.21115
11
6.96333
21
-4.21302
0
LINE
8
BLACK
6
CONTINUOUS
10
6.96333
20
-4.21302
11
6.96261
21
-4.21353
0
LINE
8
BLACK
6
CONTINUOUS
10
6.96261
20
-4.21353
11
6.96257
21
-4.21358
0
LINE
8
BLACK
6
CONTINUOUS
10
6.96257
20
-4.21358
11
6.95882
21
-4.21545
0
LINE
8
BLACK
6
CONTINUOUS
10
6.95882
20
-4.21545
11
6.95783
21
-4.21574
0
LINE
8
BLACK
6
CONTINUOUS
10
6.95783
20
-4.21574
11
6.95766
21
-4.2157
0
LINE
8
BLACK
6
CONTINUOUS
10
6.95766
20
-4.2157
11
6.9575
21
-4.21576
0
LINE
8
BLACK
6
CONTINUOUS
10
6.9575
20
-4.21576
11
6.95
21
-4.21576
0
LINE
8
BLACK
6
CONTINUOUS
10
6.95
20
-4.21576
11
6.94899
21
-4.21558
0
LINE
8
BLACK
6
CONTINUOUS
10
6.94899
20
-4.21558
11
6.94885
21
-4.21547
0
LINE
8
BLACK
6
CONTINUOUS
10
6.94885
20
-4.21547
11
6.94868
21
-4.21545
0
LINE
8
BLACK
6
CONTINUOUS
10
6.94868
20
-4.21545
11
6.94493
21
-4.21358
0
LINE
8
BLACK
6
CONTINUOUS
10
6.94493
20
-4.21358
11
6.94422
21
-4.21305
0
LINE
8
BLACK
6
CONTINUOUS
10
6.94422
20
-4.21305
11
6.94416
21
-4.21302
0
LINE
8
BLACK
6
CONTINUOUS
10
6.94416
20
-4.21302
11
6.94228
21
-4.21115
0
LINE
8
BLACK
6
CONTINUOUS
10
6.94228
20
-4.21115
11
6.94178
21
-4.21043
0
LINE
8
BLACK
6
CONTINUOUS
10
6.94178
20
-4.21043
11
6.94173
21
-4.21038
0
LINE
8
BLACK
6
CONTINUOUS
10
6.94173
20
-4.21038
11
6.93986
21
-4.20663
0
LINE
8
BLACK
6
CONTINUOUS
10
6.93986
20
-4.20663
11
6.93956
21
-4.20565
0
LINE
8
BLACK
6
CONTINUOUS
10
6.93956
20
-4.20565
11
6.9396
21
-4.20548
0
LINE
8
BLACK
6
CONTINUOUS
10
6.9396
20
-4.20548
11
6.93954
21
-4.20531
0
LINE
8
BLACK
6
CONTINUOUS
10
6.93954
20
-4.20531
11
6.93954
21
-4.19031
0
LINE
8
BLACK
6
CONTINUOUS
10
6.93954
20
-4.19031
11
6.93965
21
-4.18973
0
LINE
8
BLACK
6
CONTINUOUS
10
6.93965
20
-4.18973
11
6.93963
21
-4.1896
0
LINE
8
BLACK
6
CONTINUOUS
10
6.93963
20
-4.1896
11
6.94151
21
-4.1821
0
LINE
8
BLACK
6
CONTINUOUS
10
6.94151
20
-4.1821
11
6.94191
21
-4.18119
0
LINE
8
BLACK
6
CONTINUOUS
10
6.94191
20
-4.18119
11
6.94192
21
-4.18118
0
LINE
8
BLACK
6
CONTINUOUS
10
6.94192
20
-4.18118
11
6.94566
21
-4.17555
0
LINE
8
BLACK
6
CONTINUOUS
10
6.94566
20
-4.17555
11
6.94598
21
-4.17523
0
LINE
8
BLACK
6
CONTINUOUS
10
6.94598
20
-4.17523
11
6.94603
21
-4.1751
0
LINE
8
BLACK
6
CONTINUOUS
10
6.94603
20
-4.1751
11
6.94791
21
-4.17323
0
LINE
8
BLACK
6
CONTINUOUS
10
6.94791
20
-4.17323
11
6.94863
21
-4.17272
0
LINE
8
BLACK
6
CONTINUOUS
10
6.94863
20
-4.17272
11
6.94868
21
-4.17267
0
LINE
8
BLACK
6
CONTINUOUS
10
6.94868
20
-4.17267
11
6.95243
21
-4.1708
0
LINE
8
BLACK
6
CONTINUOUS
10
6.95243
20
-4.1708
11
6.95341
21
-4.17051
0
LINE
8
BLACK
6
CONTINUOUS
10
6.95341
20
-4.17051
11
6.95358
21
-4.17055
0
LINE
8
BLACK
6
CONTINUOUS
10
6.95358
20
-4.17055
11
6.95375
21
-4.17049
0
LINE
8
BLACK
6
CONTINUOUS
10
6.95375
20
-4.17049
11
6.96124
21
-4.17049
0
LINE
8
BLACK
6
CONTINUOUS
10
6.96124
20
-4.17049
11
6.96225
21
-4.17067
0
LINE
8
BLACK
6
CONTINUOUS
10
6.95069
20
-4.19139
11
6.948
21
-4.19274
0
LINE
8
BLACK
6
CONTINUOUS
10
6.948
20
-4.19274
11
6.9468
21
-4.19394
0
LINE
8
BLACK
6
CONTINUOUS
10
6.9468
20
-4.19394
11
6.94545
21
-4.19663
0
LINE
8
BLACK
6
CONTINUOUS
10
6.94545
20
-4.19663
11
6.94545
21
-4.20461
0
LINE
8
BLACK
6
CONTINUOUS
10
6.94545
20
-4.20461
11
6.9468
21
-4.20731
0
LINE
8
BLACK
6
CONTINUOUS
10
6.9468
20
-4.20731
11
6.948
21
-4.20851
0
LINE
8
BLACK
6
CONTINUOUS
10
6.948
20
-4.20851
11
6.95069
21
-4.20986
0
LINE
8
BLACK
6
CONTINUOUS
10
6.95069
20
-4.20986
11
6.9568
21
-4.20986
0
LINE
8
BLACK
6
CONTINUOUS
10
6.9568
20
-4.20986
11
6.9595
21
-4.20851
0
LINE
8
BLACK
6
CONTINUOUS
10
6.9595
20
-4.20851
11
6.96069
21
-4.20731
0
LINE
8
BLACK
6
CONTINUOUS
10
6.96069
20
-4.20731
11
6.96204
21
-4.20461
0
LINE
8
BLACK
6
CONTINUOUS
10
6.96204
20
-4.20461
11
6.96204
21
-4.19663
0
LINE
8
BLACK
6
CONTINUOUS
10
6.96204
20
-4.19663
11
6.96069
21
-4.19394
0
LINE
8
BLACK
6
CONTINUOUS
10
6.96069
20
-4.19394
11
6.9595
21
-4.19274
0
LINE
8
BLACK
6
CONTINUOUS
10
6.9595
20
-4.19274
11
6.9568
21
-4.19139
0
LINE
8
BLACK
6
CONTINUOUS
10
6.9568
20
-4.19139
11
6.95069
21
-4.19139
  0
ENDSEC
  0
EOF
