  0
SECTION
  2
HEADER
  9
$ANGBASE
  50
0.0
  9
$ANGDIR
  70
1
  9
$MEASUREMENT
  70
0
  0
ENDSEC
  0
SECTION
  2
TABLES
  0
TABLE
  2
LTYPE
  70
4
  0
LTYPE
  5
40F
  2
CONTINUOUS
  70
0
  3
Solid line
  72
65
  73
0
  40
0.0
  0
LTYPE
  5
410
  2
DASHDOT
 70
0
  3
Dash Dot ____ _ ____ _
 72
65
 73
4
 40
2.0
 49
1.25
 49
-0.25
 49
0.25
 49
-0.25
  0
LTYPE
  5
411
  2
DASHED
 70
0
  3
Dashed __ __ __ __ __
 72
65
 73
2
 40
0.75
 49
0.5
 49
-0.25
  0
LTYPE
  5
43B
  2
DOTTED
 70
0
  3
Dotted .  .  .  .
 72
65
 73
2
 40
0.2
 49
0.0
 49
-0.2
  0
ENDTAB
  0
TABLE
  2
STYLE
  70
4
  0
STYLE
  2
KICAD
  70
0
  40
0
  41
1
  42
1
  50
0
  71
0
  3
isocp.shx
  0
STYLE
  2
KICADB
  70
0
  40
0
  41
1
  42
1
  50
0
  71
0
  3
isocp.shx
  0
STYLE
  2
KICADI
  70
0
  40
0
  41
1
  42
1
  50
15
  71
0
  3
isocp.shx
  0
STYLE
  2
KICADBI
  70
0
  40
0
  41
1
  42
1
  50
15
  71
0
  3
isocp.shx
  0
ENDTAB
  0
TABLE
  2
LAYER
  70
1
  0
LAYER
  2
BLACK
  70
0
  62
7
  6
CONTINUOUS
  0
ENDTAB
  0
ENDSEC
  0
SECTION
  2
ENTITIES
0
LINE
8
BLACK
6
CONTINUOUS
10
8.08
20
-4.05213
11
8.08301
21
-4.05273
0
LINE
8
BLACK
6
CONTINUOUS
10
8.08301
20
-4.05273
11
8.08557
21
-4.05443
0
LINE
8
BLACK
6
CONTINUOUS
10
8.08557
20
-4.05443
11
8.08727
21
-4.05699
0
LINE
8
BLACK
6
CONTINUOUS
10
8.08727
20
-4.05699
11
8.08787
21
-4.06
0
LINE
8
BLACK
6
CONTINUOUS
10
8.08787
20
-4.06
11
8.08787
21
-4.12
0
LINE
8
BLACK
6
CONTINUOUS
10
8.08787
20
-4.12
11
8.08727
21
-4.12301
0
LINE
8
BLACK
6
CONTINUOUS
10
8.08727
20
-4.12301
11
8.08557
21
-4.12557
0
LINE
8
BLACK
6
CONTINUOUS
10
8.08557
20
-4.12557
11
8.08301
21
-4.12727
0
LINE
8
BLACK
6
CONTINUOUS
10
8.08301
20
-4.12727
11
8.08
21
-4.12787
0
LINE
8
BLACK
6
CONTINUOUS
10
8.08
20
-4.12787
11
8.02
21
-4.12787
0
LINE
8
BLACK
6
CONTINUOUS
10
8.02
20
-4.12787
11
8.01699
21
-4.12727
0
LINE
8
BLACK
6
CONTINUOUS
10
8.01699
20
-4.12727
11
8.01443
21
-4.12557
0
LINE
8
BLACK
6
CONTINUOUS
10
8.01443
20
-4.12557
11
8.01273
21
-4.12301
0
LINE
8
BLACK
6
CONTINUOUS
10
8.01273
20
-4.12301
11
8.01213
21
-4.12
0
LINE
8
BLACK
6
CONTINUOUS
10
8.01213
20
-4.12
11
8.01213
21
-4.06
0
LINE
8
BLACK
6
CONTINUOUS
10
8.01213
20
-4.06
11
8.01273
21
-4.05699
0
LINE
8
BLACK
6
CONTINUOUS
10
8.01273
20
-4.05699
11
8.01443
21
-4.05443
0
LINE
8
BLACK
6
CONTINUOUS
10
8.01443
20
-4.05443
11
8.01699
21
-4.05273
0
LINE
8
BLACK
6
CONTINUOUS
10
8.01699
20
-4.05273
11
8.02
21
-4.05213
0
LINE
8
BLACK
6
CONTINUOUS
10
8.02
20
-4.05213
11
8.08
21
-4.05213
0
LINE
8
BLACK
6
CONTINUOUS
10
8.08
20
-4.15213
11
8.08301
21
-4.15273
0
LINE
8
BLACK
6
CONTINUOUS
10
8.08301
20
-4.15273
11
8.08557
21
-4.15443
0
LINE
8
BLACK
6
CONTINUOUS
10
8.08557
20
-4.15443
11
8.08727
21
-4.15699
0
LINE
8
BLACK
6
CONTINUOUS
10
8.08727
20
-4.15699
11
8.08787
21
-4.16
0
LINE
8
BLACK
6
CONTINUOUS
10
8.08787
20
-4.16
11
8.08787
21
-4.22
0
LINE
8
BLACK
6
CONTINUOUS
10
8.08787
20
-4.22
11
8.08727
21
-4.22301
0
LINE
8
BLACK
6
CONTINUOUS
10
8.08727
20
-4.22301
11
8.08557
21
-4.22557
0
LINE
8
BLACK
6
CONTINUOUS
10
8.08557
20
-4.22557
11
8.08301
21
-4.22727
0
LINE
8
BLACK
6
CONTINUOUS
10
8.08301
20
-4.22727
11
8.08
21
-4.22787
0
LINE
8
BLACK
6
CONTINUOUS
10
8.08
20
-4.22787
11
8.02
21
-4.22787
0
LINE
8
BLACK
6
CONTINUOUS
10
8.02
20
-4.22787
11
8.01699
21
-4.22727
0
LINE
8
BLACK
6
CONTINUOUS
10
8.01699
20
-4.22727
11
8.01443
21
-4.22557
0
LINE
8
BLACK
6
CONTINUOUS
10
8.01443
20
-4.22557
11
8.01273
21
-4.22301
0
LINE
8
BLACK
6
CONTINUOUS
10
8.01273
20
-4.22301
11
8.01213
21
-4.22
0
LINE
8
BLACK
6
CONTINUOUS
10
8.01213
20
-4.22
11
8.01213
21
-4.16
0
LINE
8
BLACK
6
CONTINUOUS
10
8.01213
20
-4.16
11
8.01273
21
-4.15699
0
LINE
8
BLACK
6
CONTINUOUS
10
8.01273
20
-4.15699
11
8.01443
21
-4.15443
0
LINE
8
BLACK
6
CONTINUOUS
10
8.01443
20
-4.15443
11
8.01699
21
-4.15273
0
LINE
8
BLACK
6
CONTINUOUS
10
8.01699
20
-4.15273
11
8.02
21
-4.15213
0
LINE
8
BLACK
6
CONTINUOUS
10
8.02
20
-4.15213
11
8.08
21
-4.15213
0
LINE
8
BLACK
6
CONTINUOUS
10
7.88
20
-4.05213
11
7.88301
21
-4.05273
0
LINE
8
BLACK
6
CONTINUOUS
10
7.88301
20
-4.05273
11
7.88557
21
-4.05443
0
LINE
8
BLACK
6
CONTINUOUS
10
7.88557
20
-4.05443
11
7.88727
21
-4.05699
0
LINE
8
BLACK
6
CONTINUOUS
10
7.88727
20
-4.05699
11
7.88787
21
-4.06
0
LINE
8
BLACK
6
CONTINUOUS
10
7.88787
20
-4.06
11
7.88787
21
-4.12
0
LINE
8
BLACK
6
CONTINUOUS
10
7.88787
20
-4.12
11
7.88727
21
-4.12301
0
LINE
8
BLACK
6
CONTINUOUS
10
7.88727
20
-4.12301
11
7.88557
21
-4.12557
0
LINE
8
BLACK
6
CONTINUOUS
10
7.88557
20
-4.12557
11
7.88301
21
-4.12727
0
LINE
8
BLACK
6
CONTINUOUS
10
7.88301
20
-4.12727
11
7.88
21
-4.12787
0
LINE
8
BLACK
6
CONTINUOUS
10
7.88
20
-4.12787
11
7.82
21
-4.12787
0
LINE
8
BLACK
6
CONTINUOUS
10
7.82
20
-4.12787
11
7.81699
21
-4.12727
0
LINE
8
BLACK
6
CONTINUOUS
10
7.81699
20
-4.12727
11
7.81443
21
-4.12557
0
LINE
8
BLACK
6
CONTINUOUS
10
7.81443
20
-4.12557
11
7.81273
21
-4.12301
0
LINE
8
BLACK
6
CONTINUOUS
10
7.81273
20
-4.12301
11
7.81213
21
-4.12
0
LINE
8
BLACK
6
CONTINUOUS
10
7.81213
20
-4.12
11
7.81213
21
-4.06
0
LINE
8
BLACK
6
CONTINUOUS
10
7.81213
20
-4.06
11
7.81273
21
-4.05699
0
LINE
8
BLACK
6
CONTINUOUS
10
7.81273
20
-4.05699
11
7.81443
21
-4.05443
0
LINE
8
BLACK
6
CONTINUOUS
10
7.81443
20
-4.05443
11
7.81699
21
-4.05273
0
LINE
8
BLACK
6
CONTINUOUS
10
7.81699
20
-4.05273
11
7.82
21
-4.05213
0
LINE
8
BLACK
6
CONTINUOUS
10
7.82
20
-4.05213
11
7.88
21
-4.05213
0
LINE
8
BLACK
6
CONTINUOUS
10
7.88
20
-4.15213
11
7.88301
21
-4.15273
0
LINE
8
BLACK
6
CONTINUOUS
10
7.88301
20
-4.15273
11
7.88557
21
-4.15443
0
LINE
8
BLACK
6
CONTINUOUS
10
7.88557
20
-4.15443
11
7.88727
21
-4.15699
0
LINE
8
BLACK
6
CONTINUOUS
10
7.88727
20
-4.15699
11
7.88787
21
-4.16
0
LINE
8
BLACK
6
CONTINUOUS
10
7.88787
20
-4.16
11
7.88787
21
-4.22
0
LINE
8
BLACK
6
CONTINUOUS
10
7.88787
20
-4.22
11
7.88727
21
-4.22301
0
LINE
8
BLACK
6
CONTINUOUS
10
7.88727
20
-4.22301
11
7.88557
21
-4.22557
0
LINE
8
BLACK
6
CONTINUOUS
10
7.88557
20
-4.22557
11
7.88301
21
-4.22727
0
LINE
8
BLACK
6
CONTINUOUS
10
7.88301
20
-4.22727
11
7.88
21
-4.22787
0
LINE
8
BLACK
6
CONTINUOUS
10
7.88
20
-4.22787
11
7.82
21
-4.22787
0
LINE
8
BLACK
6
CONTINUOUS
10
7.82
20
-4.22787
11
7.81699
21
-4.22727
0
LINE
8
BLACK
6
CONTINUOUS
10
7.81699
20
-4.22727
11
7.81443
21
-4.22557
0
LINE
8
BLACK
6
CONTINUOUS
10
7.81443
20
-4.22557
11
7.81273
21
-4.22301
0
LINE
8
BLACK
6
CONTINUOUS
10
7.81273
20
-4.22301
11
7.81213
21
-4.22
0
LINE
8
BLACK
6
CONTINUOUS
10
7.81213
20
-4.22
11
7.81213
21
-4.16
0
LINE
8
BLACK
6
CONTINUOUS
10
7.81213
20
-4.16
11
7.81273
21
-4.15699
0
LINE
8
BLACK
6
CONTINUOUS
10
7.81273
20
-4.15699
11
7.81443
21
-4.15443
0
LINE
8
BLACK
6
CONTINUOUS
10
7.81443
20
-4.15443
11
7.81699
21
-4.15273
0
LINE
8
BLACK
6
CONTINUOUS
10
7.81699
20
-4.15273
11
7.82
21
-4.15213
0
LINE
8
BLACK
6
CONTINUOUS
10
7.82
20
-4.15213
11
7.88
21
-4.15213
0
LINE
8
BLACK
6
CONTINUOUS
10
6.25213
20
-4.4
11
6.25273
21
-4.39699
0
LINE
8
BLACK
6
CONTINUOUS
10
6.25273
20
-4.39699
11
6.25443
21
-4.39443
0
LINE
8
BLACK
6
CONTINUOUS
10
6.25443
20
-4.39443
11
6.25699
21
-4.39273
0
LINE
8
BLACK
6
CONTINUOUS
10
6.25699
20
-4.39273
11
6.26
21
-4.39213
0
LINE
8
BLACK
6
CONTINUOUS
10
6.26
20
-4.39213
11
6.32
21
-4.39213
0
LINE
8
BLACK
6
CONTINUOUS
10
6.32
20
-4.39213
11
6.32301
21
-4.39273
0
LINE
8
BLACK
6
CONTINUOUS
10
6.32301
20
-4.39273
11
6.32557
21
-4.39443
0
LINE
8
BLACK
6
CONTINUOUS
10
6.32557
20
-4.39443
11
6.32727
21
-4.39699
0
LINE
8
BLACK
6
CONTINUOUS
10
6.32727
20
-4.39699
11
6.32787
21
-4.4
0
LINE
8
BLACK
6
CONTINUOUS
10
6.32787
20
-4.4
11
6.32787
21
-4.46
0
LINE
8
BLACK
6
CONTINUOUS
10
6.32787
20
-4.46
11
6.32727
21
-4.46301
0
LINE
8
BLACK
6
CONTINUOUS
10
6.32727
20
-4.46301
11
6.32557
21
-4.46557
0
LINE
8
BLACK
6
CONTINUOUS
10
6.32557
20
-4.46557
11
6.32301
21
-4.46727
0
LINE
8
BLACK
6
CONTINUOUS
10
6.32301
20
-4.46727
11
6.32
21
-4.46787
0
LINE
8
BLACK
6
CONTINUOUS
10
6.32
20
-4.46787
11
6.26
21
-4.46787
0
LINE
8
BLACK
6
CONTINUOUS
10
6.26
20
-4.46787
11
6.25699
21
-4.46727
0
LINE
8
BLACK
6
CONTINUOUS
10
6.25699
20
-4.46727
11
6.25443
21
-4.46557
0
LINE
8
BLACK
6
CONTINUOUS
10
6.25443
20
-4.46557
11
6.25273
21
-4.46301
0
LINE
8
BLACK
6
CONTINUOUS
10
6.25273
20
-4.46301
11
6.25213
21
-4.46
0
LINE
8
BLACK
6
CONTINUOUS
10
6.25213
20
-4.46
11
6.25213
21
-4.4
0
LINE
8
BLACK
6
CONTINUOUS
10
6.35213
20
-4.4
11
6.35273
21
-4.39699
0
LINE
8
BLACK
6
CONTINUOUS
10
6.35273
20
-4.39699
11
6.35443
21
-4.39443
0
LINE
8
BLACK
6
CONTINUOUS
10
6.35443
20
-4.39443
11
6.35699
21
-4.39273
0
LINE
8
BLACK
6
CONTINUOUS
10
6.35699
20
-4.39273
11
6.36
21
-4.39213
0
LINE
8
BLACK
6
CONTINUOUS
10
6.36
20
-4.39213
11
6.42
21
-4.39213
0
LINE
8
BLACK
6
CONTINUOUS
10
6.42
20
-4.39213
11
6.42301
21
-4.39273
0
LINE
8
BLACK
6
CONTINUOUS
10
6.42301
20
-4.39273
11
6.42557
21
-4.39443
0
LINE
8
BLACK
6
CONTINUOUS
10
6.42557
20
-4.39443
11
6.42727
21
-4.39699
0
LINE
8
BLACK
6
CONTINUOUS
10
6.42727
20
-4.39699
11
6.42787
21
-4.4
0
LINE
8
BLACK
6
CONTINUOUS
10
6.42787
20
-4.4
11
6.42787
21
-4.46
0
LINE
8
BLACK
6
CONTINUOUS
10
6.42787
20
-4.46
11
6.42727
21
-4.46301
0
LINE
8
BLACK
6
CONTINUOUS
10
6.42727
20
-4.46301
11
6.42557
21
-4.46557
0
LINE
8
BLACK
6
CONTINUOUS
10
6.42557
20
-4.46557
11
6.42301
21
-4.46727
0
LINE
8
BLACK
6
CONTINUOUS
10
6.42301
20
-4.46727
11
6.42
21
-4.46787
0
LINE
8
BLACK
6
CONTINUOUS
10
6.42
20
-4.46787
11
6.36
21
-4.46787
0
LINE
8
BLACK
6
CONTINUOUS
10
6.36
20
-4.46787
11
6.35699
21
-4.46727
0
LINE
8
BLACK
6
CONTINUOUS
10
6.35699
20
-4.46727
11
6.35443
21
-4.46557
0
LINE
8
BLACK
6
CONTINUOUS
10
6.35443
20
-4.46557
11
6.35273
21
-4.46301
0
LINE
8
BLACK
6
CONTINUOUS
10
6.35273
20
-4.46301
11
6.35213
21
-4.46
0
LINE
8
BLACK
6
CONTINUOUS
10
6.35213
20
-4.46
11
6.35213
21
-4.4
0
LINE
8
BLACK
6
CONTINUOUS
10
6.25213
20
-4.5
11
6.25273
21
-4.49699
0
LINE
8
BLACK
6
CONTINUOUS
10
6.25273
20
-4.49699
11
6.25443
21
-4.49443
0
LINE
8
BLACK
6
CONTINUOUS
10
6.25443
20
-4.49443
11
6.25699
21
-4.49273
0
LINE
8
BLACK
6
CONTINUOUS
10
6.25699
20
-4.49273
11
6.26
21
-4.49213
0
LINE
8
BLACK
6
CONTINUOUS
10
6.26
20
-4.49213
11
6.32
21
-4.49213
0
LINE
8
BLACK
6
CONTINUOUS
10
6.32
20
-4.49213
11
6.32301
21
-4.49273
0
LINE
8
BLACK
6
CONTINUOUS
10
6.32301
20
-4.49273
11
6.32557
21
-4.49443
0
LINE
8
BLACK
6
CONTINUOUS
10
6.32557
20
-4.49443
11
6.32727
21
-4.49699
0
LINE
8
BLACK
6
CONTINUOUS
10
6.32727
20
-4.49699
11
6.32787
21
-4.5
0
LINE
8
BLACK
6
CONTINUOUS
10
6.32787
20
-4.5
11
6.32787
21
-4.56
0
LINE
8
BLACK
6
CONTINUOUS
10
6.32787
20
-4.56
11
6.32727
21
-4.56301
0
LINE
8
BLACK
6
CONTINUOUS
10
6.32727
20
-4.56301
11
6.32557
21
-4.56557
0
LINE
8
BLACK
6
CONTINUOUS
10
6.32557
20
-4.56557
11
6.32301
21
-4.56727
0
LINE
8
BLACK
6
CONTINUOUS
10
6.32301
20
-4.56727
11
6.32
21
-4.56787
0
LINE
8
BLACK
6
CONTINUOUS
10
6.32
20
-4.56787
11
6.26
21
-4.56787
0
LINE
8
BLACK
6
CONTINUOUS
10
6.26
20
-4.56787
11
6.25699
21
-4.56727
0
LINE
8
BLACK
6
CONTINUOUS
10
6.25699
20
-4.56727
11
6.25443
21
-4.56557
0
LINE
8
BLACK
6
CONTINUOUS
10
6.25443
20
-4.56557
11
6.25273
21
-4.56301
0
LINE
8
BLACK
6
CONTINUOUS
10
6.25273
20
-4.56301
11
6.25213
21
-4.56
0
LINE
8
BLACK
6
CONTINUOUS
10
6.25213
20
-4.56
11
6.25213
21
-4.5
0
LINE
8
BLACK
6
CONTINUOUS
10
6.35213
20
-4.5
11
6.35273
21
-4.49699
0
LINE
8
BLACK
6
CONTINUOUS
10
6.35273
20
-4.49699
11
6.35443
21
-4.49443
0
LINE
8
BLACK
6
CONTINUOUS
10
6.35443
20
-4.49443
11
6.35699
21
-4.49273
0
LINE
8
BLACK
6
CONTINUOUS
10
6.35699
20
-4.49273
11
6.36
21
-4.49213
0
LINE
8
BLACK
6
CONTINUOUS
10
6.36
20
-4.49213
11
6.42
21
-4.49213
0
LINE
8
BLACK
6
CONTINUOUS
10
6.42
20
-4.49213
11
6.42301
21
-4.49273
0
LINE
8
BLACK
6
CONTINUOUS
10
6.42301
20
-4.49273
11
6.42557
21
-4.49443
0
LINE
8
BLACK
6
CONTINUOUS
10
6.42557
20
-4.49443
11
6.42727
21
-4.49699
0
LINE
8
BLACK
6
CONTINUOUS
10
6.42727
20
-4.49699
11
6.42787
21
-4.5
0
LINE
8
BLACK
6
CONTINUOUS
10
6.42787
20
-4.5
11
6.42787
21
-4.56
0
LINE
8
BLACK
6
CONTINUOUS
10
6.42787
20
-4.56
11
6.42727
21
-4.56301
0
LINE
8
BLACK
6
CONTINUOUS
10
6.42727
20
-4.56301
11
6.42557
21
-4.56557
0
LINE
8
BLACK
6
CONTINUOUS
10
6.42557
20
-4.56557
11
6.42301
21
-4.56727
0
LINE
8
BLACK
6
CONTINUOUS
10
6.42301
20
-4.56727
11
6.42
21
-4.56787
0
LINE
8
BLACK
6
CONTINUOUS
10
6.42
20
-4.56787
11
6.36
21
-4.56787
0
LINE
8
BLACK
6
CONTINUOUS
10
6.36
20
-4.56787
11
6.35699
21
-4.56727
0
LINE
8
BLACK
6
CONTINUOUS
10
6.35699
20
-4.56727
11
6.35443
21
-4.56557
0
LINE
8
BLACK
6
CONTINUOUS
10
6.35443
20
-4.56557
11
6.35273
21
-4.56301
0
LINE
8
BLACK
6
CONTINUOUS
10
6.35273
20
-4.56301
11
6.35213
21
-4.56
0
LINE
8
BLACK
6
CONTINUOUS
10
6.35213
20
-4.56
11
6.35213
21
-4.5
0
LINE
8
BLACK
6
CONTINUOUS
10
6.25213
20
-4.6
11
6.25273
21
-4.59699
0
LINE
8
BLACK
6
CONTINUOUS
10
6.25273
20
-4.59699
11
6.25443
21
-4.59443
0
LINE
8
BLACK
6
CONTINUOUS
10
6.25443
20
-4.59443
11
6.25699
21
-4.59273
0
LINE
8
BLACK
6
CONTINUOUS
10
6.25699
20
-4.59273
11
6.26
21
-4.59213
0
LINE
8
BLACK
6
CONTINUOUS
10
6.26
20
-4.59213
11
6.32
21
-4.59213
0
LINE
8
BLACK
6
CONTINUOUS
10
6.32
20
-4.59213
11
6.32301
21
-4.59273
0
LINE
8
BLACK
6
CONTINUOUS
10
6.32301
20
-4.59273
11
6.32557
21
-4.59443
0
LINE
8
BLACK
6
CONTINUOUS
10
6.32557
20
-4.59443
11
6.32727
21
-4.59699
0
LINE
8
BLACK
6
CONTINUOUS
10
6.32727
20
-4.59699
11
6.32787
21
-4.6
0
LINE
8
BLACK
6
CONTINUOUS
10
6.32787
20
-4.6
11
6.32787
21
-4.66
0
LINE
8
BLACK
6
CONTINUOUS
10
6.32787
20
-4.66
11
6.32727
21
-4.66301
0
LINE
8
BLACK
6
CONTINUOUS
10
6.32727
20
-4.66301
11
6.32557
21
-4.66557
0
LINE
8
BLACK
6
CONTINUOUS
10
6.32557
20
-4.66557
11
6.32301
21
-4.66727
0
LINE
8
BLACK
6
CONTINUOUS
10
6.32301
20
-4.66727
11
6.32
21
-4.66787
0
LINE
8
BLACK
6
CONTINUOUS
10
6.32
20
-4.66787
11
6.26
21
-4.66787
0
LINE
8
BLACK
6
CONTINUOUS
10
6.26
20
-4.66787
11
6.25699
21
-4.66727
0
LINE
8
BLACK
6
CONTINUOUS
10
6.25699
20
-4.66727
11
6.25443
21
-4.66557
0
LINE
8
BLACK
6
CONTINUOUS
10
6.25443
20
-4.66557
11
6.25273
21
-4.66301
0
LINE
8
BLACK
6
CONTINUOUS
10
6.25273
20
-4.66301
11
6.25213
21
-4.66
0
LINE
8
BLACK
6
CONTINUOUS
10
6.25213
20
-4.66
11
6.25213
21
-4.6
0
LINE
8
BLACK
6
CONTINUOUS
10
6.35213
20
-4.6
11
6.35273
21
-4.59699
0
LINE
8
BLACK
6
CONTINUOUS
10
6.35273
20
-4.59699
11
6.35443
21
-4.59443
0
LINE
8
BLACK
6
CONTINUOUS
10
6.35443
20
-4.59443
11
6.35699
21
-4.59273
0
LINE
8
BLACK
6
CONTINUOUS
10
6.35699
20
-4.59273
11
6.36
21
-4.59213
0
LINE
8
BLACK
6
CONTINUOUS
10
6.36
20
-4.59213
11
6.42
21
-4.59213
0
LINE
8
BLACK
6
CONTINUOUS
10
6.42
20
-4.59213
11
6.42301
21
-4.59273
0
LINE
8
BLACK
6
CONTINUOUS
10
6.42301
20
-4.59273
11
6.42557
21
-4.59443
0
LINE
8
BLACK
6
CONTINUOUS
10
6.42557
20
-4.59443
11
6.42727
21
-4.59699
0
LINE
8
BLACK
6
CONTINUOUS
10
6.42727
20
-4.59699
11
6.42787
21
-4.6
0
LINE
8
BLACK
6
CONTINUOUS
10
6.42787
20
-4.6
11
6.42787
21
-4.66
0
LINE
8
BLACK
6
CONTINUOUS
10
6.42787
20
-4.66
11
6.42727
21
-4.66301
0
LINE
8
BLACK
6
CONTINUOUS
10
6.42727
20
-4.66301
11
6.42557
21
-4.66557
0
LINE
8
BLACK
6
CONTINUOUS
10
6.42557
20
-4.66557
11
6.42301
21
-4.66727
0
LINE
8
BLACK
6
CONTINUOUS
10
6.42301
20
-4.66727
11
6.42
21
-4.66787
0
LINE
8
BLACK
6
CONTINUOUS
10
6.42
20
-4.66787
11
6.36
21
-4.66787
0
LINE
8
BLACK
6
CONTINUOUS
10
6.36
20
-4.66787
11
6.35699
21
-4.66727
0
LINE
8
BLACK
6
CONTINUOUS
10
6.35699
20
-4.66727
11
6.35443
21
-4.66557
0
LINE
8
BLACK
6
CONTINUOUS
10
6.35443
20
-4.66557
11
6.35273
21
-4.66301
0
LINE
8
BLACK
6
CONTINUOUS
10
6.35273
20
-4.66301
11
6.35213
21
-4.66
0
LINE
8
BLACK
6
CONTINUOUS
10
6.35213
20
-4.66
11
6.35213
21
-4.6
0
LINE
8
BLACK
6
CONTINUOUS
10
7.68
20
-4.05213
11
7.68301
21
-4.05273
0
LINE
8
BLACK
6
CONTINUOUS
10
7.68301
20
-4.05273
11
7.68557
21
-4.05443
0
LINE
8
BLACK
6
CONTINUOUS
10
7.68557
20
-4.05443
11
7.68727
21
-4.05699
0
LINE
8
BLACK
6
CONTINUOUS
10
7.68727
20
-4.05699
11
7.68787
21
-4.06
0
LINE
8
BLACK
6
CONTINUOUS
10
7.68787
20
-4.06
11
7.68787
21
-4.12
0
LINE
8
BLACK
6
CONTINUOUS
10
7.68787
20
-4.12
11
7.68727
21
-4.12301
0
LINE
8
BLACK
6
CONTINUOUS
10
7.68727
20
-4.12301
11
7.68557
21
-4.12557
0
LINE
8
BLACK
6
CONTINUOUS
10
7.68557
20
-4.12557
11
7.68301
21
-4.12727
0
LINE
8
BLACK
6
CONTINUOUS
10
7.68301
20
-4.12727
11
7.68
21
-4.12787
0
LINE
8
BLACK
6
CONTINUOUS
10
7.68
20
-4.12787
11
7.62
21
-4.12787
0
LINE
8
BLACK
6
CONTINUOUS
10
7.62
20
-4.12787
11
7.61699
21
-4.12727
0
LINE
8
BLACK
6
CONTINUOUS
10
7.61699
20
-4.12727
11
7.61443
21
-4.12557
0
LINE
8
BLACK
6
CONTINUOUS
10
7.61443
20
-4.12557
11
7.61273
21
-4.12301
0
LINE
8
BLACK
6
CONTINUOUS
10
7.61273
20
-4.12301
11
7.61213
21
-4.12
0
LINE
8
BLACK
6
CONTINUOUS
10
7.61213
20
-4.12
11
7.61213
21
-4.06
0
LINE
8
BLACK
6
CONTINUOUS
10
7.61213
20
-4.06
11
7.61273
21
-4.05699
0
LINE
8
BLACK
6
CONTINUOUS
10
7.61273
20
-4.05699
11
7.61443
21
-4.05443
0
LINE
8
BLACK
6
CONTINUOUS
10
7.61443
20
-4.05443
11
7.61699
21
-4.05273
0
LINE
8
BLACK
6
CONTINUOUS
10
7.61699
20
-4.05273
11
7.62
21
-4.05213
0
LINE
8
BLACK
6
CONTINUOUS
10
7.62
20
-4.05213
11
7.68
21
-4.05213
0
LINE
8
BLACK
6
CONTINUOUS
10
7.68
20
-4.15213
11
7.68301
21
-4.15273
0
LINE
8
BLACK
6
CONTINUOUS
10
7.68301
20
-4.15273
11
7.68557
21
-4.15443
0
LINE
8
BLACK
6
CONTINUOUS
10
7.68557
20
-4.15443
11
7.68727
21
-4.15699
0
LINE
8
BLACK
6
CONTINUOUS
10
7.68727
20
-4.15699
11
7.68787
21
-4.16
0
LINE
8
BLACK
6
CONTINUOUS
10
7.68787
20
-4.16
11
7.68787
21
-4.22
0
LINE
8
BLACK
6
CONTINUOUS
10
7.68787
20
-4.22
11
7.68727
21
-4.22301
0
LINE
8
BLACK
6
CONTINUOUS
10
7.68727
20
-4.22301
11
7.68557
21
-4.22557
0
LINE
8
BLACK
6
CONTINUOUS
10
7.68557
20
-4.22557
11
7.68301
21
-4.22727
0
LINE
8
BLACK
6
CONTINUOUS
10
7.68301
20
-4.22727
11
7.68
21
-4.22787
0
LINE
8
BLACK
6
CONTINUOUS
10
7.68
20
-4.22787
11
7.62
21
-4.22787
0
LINE
8
BLACK
6
CONTINUOUS
10
7.62
20
-4.22787
11
7.61699
21
-4.22727
0
LINE
8
BLACK
6
CONTINUOUS
10
7.61699
20
-4.22727
11
7.61443
21
-4.22557
0
LINE
8
BLACK
6
CONTINUOUS
10
7.61443
20
-4.22557
11
7.61273
21
-4.22301
0
LINE
8
BLACK
6
CONTINUOUS
10
7.61273
20
-4.22301
11
7.61213
21
-4.22
0
LINE
8
BLACK
6
CONTINUOUS
10
7.61213
20
-4.22
11
7.61213
21
-4.16
0
LINE
8
BLACK
6
CONTINUOUS
10
7.61213
20
-4.16
11
7.61273
21
-4.15699
0
LINE
8
BLACK
6
CONTINUOUS
10
7.61273
20
-4.15699
11
7.61443
21
-4.15443
0
LINE
8
BLACK
6
CONTINUOUS
10
7.61443
20
-4.15443
11
7.61699
21
-4.15273
0
LINE
8
BLACK
6
CONTINUOUS
10
7.61699
20
-4.15273
11
7.62
21
-4.15213
0
LINE
8
BLACK
6
CONTINUOUS
10
7.62
20
-4.15213
11
7.68
21
-4.15213
0
LINE
8
BLACK
6
CONTINUOUS
10
8.18
20
-4.05213
11
8.18301
21
-4.05273
0
LINE
8
BLACK
6
CONTINUOUS
10
8.18301
20
-4.05273
11
8.18557
21
-4.05443
0
LINE
8
BLACK
6
CONTINUOUS
10
8.18557
20
-4.05443
11
8.18727
21
-4.05699
0
LINE
8
BLACK
6
CONTINUOUS
10
8.18727
20
-4.05699
11
8.18787
21
-4.06
0
LINE
8
BLACK
6
CONTINUOUS
10
8.18787
20
-4.06
11
8.18787
21
-4.12
0
LINE
8
BLACK
6
CONTINUOUS
10
8.18787
20
-4.12
11
8.18727
21
-4.12301
0
LINE
8
BLACK
6
CONTINUOUS
10
8.18727
20
-4.12301
11
8.18557
21
-4.12557
0
LINE
8
BLACK
6
CONTINUOUS
10
8.18557
20
-4.12557
11
8.18301
21
-4.12727
0
LINE
8
BLACK
6
CONTINUOUS
10
8.18301
20
-4.12727
11
8.18
21
-4.12787
0
LINE
8
BLACK
6
CONTINUOUS
10
8.18
20
-4.12787
11
8.12
21
-4.12787
0
LINE
8
BLACK
6
CONTINUOUS
10
8.12
20
-4.12787
11
8.11699
21
-4.12727
0
LINE
8
BLACK
6
CONTINUOUS
10
8.11699
20
-4.12727
11
8.11443
21
-4.12557
0
LINE
8
BLACK
6
CONTINUOUS
10
8.11443
20
-4.12557
11
8.11273
21
-4.12301
0
LINE
8
BLACK
6
CONTINUOUS
10
8.11273
20
-4.12301
11
8.11213
21
-4.12
0
LINE
8
BLACK
6
CONTINUOUS
10
8.11213
20
-4.12
11
8.11213
21
-4.06
0
LINE
8
BLACK
6
CONTINUOUS
10
8.11213
20
-4.06
11
8.11273
21
-4.05699
0
LINE
8
BLACK
6
CONTINUOUS
10
8.11273
20
-4.05699
11
8.11443
21
-4.05443
0
LINE
8
BLACK
6
CONTINUOUS
10
8.11443
20
-4.05443
11
8.11699
21
-4.05273
0
LINE
8
BLACK
6
CONTINUOUS
10
8.11699
20
-4.05273
11
8.12
21
-4.05213
0
LINE
8
BLACK
6
CONTINUOUS
10
8.12
20
-4.05213
11
8.18
21
-4.05213
0
LINE
8
BLACK
6
CONTINUOUS
10
8.18
20
-4.15213
11
8.18301
21
-4.15273
0
LINE
8
BLACK
6
CONTINUOUS
10
8.18301
20
-4.15273
11
8.18557
21
-4.15443
0
LINE
8
BLACK
6
CONTINUOUS
10
8.18557
20
-4.15443
11
8.18727
21
-4.15699
0
LINE
8
BLACK
6
CONTINUOUS
10
8.18727
20
-4.15699
11
8.18787
21
-4.16
0
LINE
8
BLACK
6
CONTINUOUS
10
8.18787
20
-4.16
11
8.18787
21
-4.22
0
LINE
8
BLACK
6
CONTINUOUS
10
8.18787
20
-4.22
11
8.18727
21
-4.22301
0
LINE
8
BLACK
6
CONTINUOUS
10
8.18727
20
-4.22301
11
8.18557
21
-4.22557
0
LINE
8
BLACK
6
CONTINUOUS
10
8.18557
20
-4.22557
11
8.18301
21
-4.22727
0
LINE
8
BLACK
6
CONTINUOUS
10
8.18301
20
-4.22727
11
8.18
21
-4.22787
0
LINE
8
BLACK
6
CONTINUOUS
10
8.18
20
-4.22787
11
8.12
21
-4.22787
0
LINE
8
BLACK
6
CONTINUOUS
10
8.12
20
-4.22787
11
8.11699
21
-4.22727
0
LINE
8
BLACK
6
CONTINUOUS
10
8.11699
20
-4.22727
11
8.11443
21
-4.22557
0
LINE
8
BLACK
6
CONTINUOUS
10
8.11443
20
-4.22557
11
8.11273
21
-4.22301
0
LINE
8
BLACK
6
CONTINUOUS
10
8.11273
20
-4.22301
11
8.11213
21
-4.22
0
LINE
8
BLACK
6
CONTINUOUS
10
8.11213
20
-4.22
11
8.11213
21
-4.16
0
LINE
8
BLACK
6
CONTINUOUS
10
8.11213
20
-4.16
11
8.11273
21
-4.15699
0
LINE
8
BLACK
6
CONTINUOUS
10
8.11273
20
-4.15699
11
8.11443
21
-4.15443
0
LINE
8
BLACK
6
CONTINUOUS
10
8.11443
20
-4.15443
11
8.11699
21
-4.15273
0
LINE
8
BLACK
6
CONTINUOUS
10
8.11699
20
-4.15273
11
8.12
21
-4.15213
0
LINE
8
BLACK
6
CONTINUOUS
10
8.12
20
-4.15213
11
8.18
21
-4.15213
0
LINE
8
BLACK
6
CONTINUOUS
10
8.35213
20
-4.41
11
8.35273
21
-4.40699
0
LINE
8
BLACK
6
CONTINUOUS
10
8.35273
20
-4.40699
11
8.35443
21
-4.40443
0
LINE
8
BLACK
6
CONTINUOUS
10
8.35443
20
-4.40443
11
8.35699
21
-4.40273
0
LINE
8
BLACK
6
CONTINUOUS
10
8.35699
20
-4.40273
11
8.36
21
-4.40213
0
LINE
8
BLACK
6
CONTINUOUS
10
8.36
20
-4.40213
11
8.42
21
-4.40213
0
LINE
8
BLACK
6
CONTINUOUS
10
8.42
20
-4.40213
11
8.42301
21
-4.40273
0
LINE
8
BLACK
6
CONTINUOUS
10
8.42301
20
-4.40273
11
8.42557
21
-4.40443
0
LINE
8
BLACK
6
CONTINUOUS
10
8.42557
20
-4.40443
11
8.42727
21
-4.40699
0
LINE
8
BLACK
6
CONTINUOUS
10
8.42727
20
-4.40699
11
8.42787
21
-4.41
0
LINE
8
BLACK
6
CONTINUOUS
10
8.42787
20
-4.41
11
8.42787
21
-4.47
0
LINE
8
BLACK
6
CONTINUOUS
10
8.42787
20
-4.47
11
8.42727
21
-4.47301
0
LINE
8
BLACK
6
CONTINUOUS
10
8.42727
20
-4.47301
11
8.42557
21
-4.47557
0
LINE
8
BLACK
6
CONTINUOUS
10
8.42557
20
-4.47557
11
8.42301
21
-4.47727
0
LINE
8
BLACK
6
CONTINUOUS
10
8.42301
20
-4.47727
11
8.42
21
-4.47787
0
LINE
8
BLACK
6
CONTINUOUS
10
8.42
20
-4.47787
11
8.36
21
-4.47787
0
LINE
8
BLACK
6
CONTINUOUS
10
8.36
20
-4.47787
11
8.35699
21
-4.47727
0
LINE
8
BLACK
6
CONTINUOUS
10
8.35699
20
-4.47727
11
8.35443
21
-4.47557
0
LINE
8
BLACK
6
CONTINUOUS
10
8.35443
20
-4.47557
11
8.35273
21
-4.47301
0
LINE
8
BLACK
6
CONTINUOUS
10
8.35273
20
-4.47301
11
8.35213
21
-4.47
0
LINE
8
BLACK
6
CONTINUOUS
10
8.35213
20
-4.47
11
8.35213
21
-4.41
0
LINE
8
BLACK
6
CONTINUOUS
10
8.45213
20
-4.41
11
8.45273
21
-4.40699
0
LINE
8
BLACK
6
CONTINUOUS
10
8.45273
20
-4.40699
11
8.45443
21
-4.40443
0
LINE
8
BLACK
6
CONTINUOUS
10
8.45443
20
-4.40443
11
8.45699
21
-4.40273
0
LINE
8
BLACK
6
CONTINUOUS
10
8.45699
20
-4.40273
11
8.46
21
-4.40213
0
LINE
8
BLACK
6
CONTINUOUS
10
8.46
20
-4.40213
11
8.52
21
-4.40213
0
LINE
8
BLACK
6
CONTINUOUS
10
8.52
20
-4.40213
11
8.52301
21
-4.40273
0
LINE
8
BLACK
6
CONTINUOUS
10
8.52301
20
-4.40273
11
8.52557
21
-4.40443
0
LINE
8
BLACK
6
CONTINUOUS
10
8.52557
20
-4.40443
11
8.52727
21
-4.40699
0
LINE
8
BLACK
6
CONTINUOUS
10
8.52727
20
-4.40699
11
8.52787
21
-4.41
0
LINE
8
BLACK
6
CONTINUOUS
10
8.52787
20
-4.41
11
8.52787
21
-4.47
0
LINE
8
BLACK
6
CONTINUOUS
10
8.52787
20
-4.47
11
8.52727
21
-4.47301
0
LINE
8
BLACK
6
CONTINUOUS
10
8.52727
20
-4.47301
11
8.52557
21
-4.47557
0
LINE
8
BLACK
6
CONTINUOUS
10
8.52557
20
-4.47557
11
8.52301
21
-4.47727
0
LINE
8
BLACK
6
CONTINUOUS
10
8.52301
20
-4.47727
11
8.52
21
-4.47787
0
LINE
8
BLACK
6
CONTINUOUS
10
8.52
20
-4.47787
11
8.46
21
-4.47787
0
LINE
8
BLACK
6
CONTINUOUS
10
8.46
20
-4.47787
11
8.45699
21
-4.47727
0
LINE
8
BLACK
6
CONTINUOUS
10
8.45699
20
-4.47727
11
8.45443
21
-4.47557
0
LINE
8
BLACK
6
CONTINUOUS
10
8.45443
20
-4.47557
11
8.45273
21
-4.47301
0
LINE
8
BLACK
6
CONTINUOUS
10
8.45273
20
-4.47301
11
8.45213
21
-4.47
0
LINE
8
BLACK
6
CONTINUOUS
10
8.45213
20
-4.47
11
8.45213
21
-4.41
0
LINE
8
BLACK
6
CONTINUOUS
10
7.48
20
-4.05213
11
7.48301
21
-4.05273
0
LINE
8
BLACK
6
CONTINUOUS
10
7.48301
20
-4.05273
11
7.48557
21
-4.05443
0
LINE
8
BLACK
6
CONTINUOUS
10
7.48557
20
-4.05443
11
7.48727
21
-4.05699
0
LINE
8
BLACK
6
CONTINUOUS
10
7.48727
20
-4.05699
11
7.48787
21
-4.06
0
LINE
8
BLACK
6
CONTINUOUS
10
7.48787
20
-4.06
11
7.48787
21
-4.12
0
LINE
8
BLACK
6
CONTINUOUS
10
7.48787
20
-4.12
11
7.48727
21
-4.12301
0
LINE
8
BLACK
6
CONTINUOUS
10
7.48727
20
-4.12301
11
7.48557
21
-4.12557
0
LINE
8
BLACK
6
CONTINUOUS
10
7.48557
20
-4.12557
11
7.48301
21
-4.12727
0
LINE
8
BLACK
6
CONTINUOUS
10
7.48301
20
-4.12727
11
7.48
21
-4.12787
0
LINE
8
BLACK
6
CONTINUOUS
10
7.48
20
-4.12787
11
7.42
21
-4.12787
0
LINE
8
BLACK
6
CONTINUOUS
10
7.42
20
-4.12787
11
7.41699
21
-4.12727
0
LINE
8
BLACK
6
CONTINUOUS
10
7.41699
20
-4.12727
11
7.41443
21
-4.12557
0
LINE
8
BLACK
6
CONTINUOUS
10
7.41443
20
-4.12557
11
7.41273
21
-4.12301
0
LINE
8
BLACK
6
CONTINUOUS
10
7.41273
20
-4.12301
11
7.41213
21
-4.12
0
LINE
8
BLACK
6
CONTINUOUS
10
7.41213
20
-4.12
11
7.41213
21
-4.06
0
LINE
8
BLACK
6
CONTINUOUS
10
7.41213
20
-4.06
11
7.41273
21
-4.05699
0
LINE
8
BLACK
6
CONTINUOUS
10
7.41273
20
-4.05699
11
7.41443
21
-4.05443
0
LINE
8
BLACK
6
CONTINUOUS
10
7.41443
20
-4.05443
11
7.41699
21
-4.05273
0
LINE
8
BLACK
6
CONTINUOUS
10
7.41699
20
-4.05273
11
7.42
21
-4.05213
0
LINE
8
BLACK
6
CONTINUOUS
10
7.42
20
-4.05213
11
7.48
21
-4.05213
0
LINE
8
BLACK
6
CONTINUOUS
10
7.48
20
-4.15213
11
7.48301
21
-4.15273
0
LINE
8
BLACK
6
CONTINUOUS
10
7.48301
20
-4.15273
11
7.48557
21
-4.15443
0
LINE
8
BLACK
6
CONTINUOUS
10
7.48557
20
-4.15443
11
7.48727
21
-4.15699
0
LINE
8
BLACK
6
CONTINUOUS
10
7.48727
20
-4.15699
11
7.48787
21
-4.16
0
LINE
8
BLACK
6
CONTINUOUS
10
7.48787
20
-4.16
11
7.48787
21
-4.22
0
LINE
8
BLACK
6
CONTINUOUS
10
7.48787
20
-4.22
11
7.48727
21
-4.22301
0
LINE
8
BLACK
6
CONTINUOUS
10
7.48727
20
-4.22301
11
7.48557
21
-4.22557
0
LINE
8
BLACK
6
CONTINUOUS
10
7.48557
20
-4.22557
11
7.48301
21
-4.22727
0
LINE
8
BLACK
6
CONTINUOUS
10
7.48301
20
-4.22727
11
7.48
21
-4.22787
0
LINE
8
BLACK
6
CONTINUOUS
10
7.48
20
-4.22787
11
7.42
21
-4.22787
0
LINE
8
BLACK
6
CONTINUOUS
10
7.42
20
-4.22787
11
7.41699
21
-4.22727
0
LINE
8
BLACK
6
CONTINUOUS
10
7.41699
20
-4.22727
11
7.41443
21
-4.22557
0
LINE
8
BLACK
6
CONTINUOUS
10
7.41443
20
-4.22557
11
7.41273
21
-4.22301
0
LINE
8
BLACK
6
CONTINUOUS
10
7.41273
20
-4.22301
11
7.41213
21
-4.22
0
LINE
8
BLACK
6
CONTINUOUS
10
7.41213
20
-4.22
11
7.41213
21
-4.16
0
LINE
8
BLACK
6
CONTINUOUS
10
7.41213
20
-4.16
11
7.41273
21
-4.15699
0
LINE
8
BLACK
6
CONTINUOUS
10
7.41273
20
-4.15699
11
7.41443
21
-4.15443
0
LINE
8
BLACK
6
CONTINUOUS
10
7.41443
20
-4.15443
11
7.41699
21
-4.15273
0
LINE
8
BLACK
6
CONTINUOUS
10
7.41699
20
-4.15273
11
7.42
21
-4.15213
0
LINE
8
BLACK
6
CONTINUOUS
10
7.42
20
-4.15213
11
7.48
21
-4.15213
0
LINE
8
BLACK
6
CONTINUOUS
10
7.88
20
-5.35213
11
7.88301
21
-5.35273
0
LINE
8
BLACK
6
CONTINUOUS
10
7.88301
20
-5.35273
11
7.88557
21
-5.35443
0
LINE
8
BLACK
6
CONTINUOUS
10
7.88557
20
-5.35443
11
7.88727
21
-5.35699
0
LINE
8
BLACK
6
CONTINUOUS
10
7.88727
20
-5.35699
11
7.88787
21
-5.36
0
LINE
8
BLACK
6
CONTINUOUS
10
7.88787
20
-5.36
11
7.88787
21
-5.42
0
LINE
8
BLACK
6
CONTINUOUS
10
7.88787
20
-5.42
11
7.88727
21
-5.42301
0
LINE
8
BLACK
6
CONTINUOUS
10
7.88727
20
-5.42301
11
7.88557
21
-5.42557
0
LINE
8
BLACK
6
CONTINUOUS
10
7.88557
20
-5.42557
11
7.88301
21
-5.42727
0
LINE
8
BLACK
6
CONTINUOUS
10
7.88301
20
-5.42727
11
7.88
21
-5.42787
0
LINE
8
BLACK
6
CONTINUOUS
10
7.88
20
-5.42787
11
7.82
21
-5.42787
0
LINE
8
BLACK
6
CONTINUOUS
10
7.82
20
-5.42787
11
7.81699
21
-5.42727
0
LINE
8
BLACK
6
CONTINUOUS
10
7.81699
20
-5.42727
11
7.81443
21
-5.42557
0
LINE
8
BLACK
6
CONTINUOUS
10
7.81443
20
-5.42557
11
7.81273
21
-5.42301
0
LINE
8
BLACK
6
CONTINUOUS
10
7.81273
20
-5.42301
11
7.81213
21
-5.42
0
LINE
8
BLACK
6
CONTINUOUS
10
7.81213
20
-5.42
11
7.81213
21
-5.36
0
LINE
8
BLACK
6
CONTINUOUS
10
7.81213
20
-5.36
11
7.81273
21
-5.35699
0
LINE
8
BLACK
6
CONTINUOUS
10
7.81273
20
-5.35699
11
7.81443
21
-5.35443
0
LINE
8
BLACK
6
CONTINUOUS
10
7.81443
20
-5.35443
11
7.81699
21
-5.35273
0
LINE
8
BLACK
6
CONTINUOUS
10
7.81699
20
-5.35273
11
7.82
21
-5.35213
0
LINE
8
BLACK
6
CONTINUOUS
10
7.82
20
-5.35213
11
7.88
21
-5.35213
0
LINE
8
BLACK
6
CONTINUOUS
10
7.88
20
-5.45213
11
7.88301
21
-5.45273
0
LINE
8
BLACK
6
CONTINUOUS
10
7.88301
20
-5.45273
11
7.88557
21
-5.45443
0
LINE
8
BLACK
6
CONTINUOUS
10
7.88557
20
-5.45443
11
7.88727
21
-5.45699
0
LINE
8
BLACK
6
CONTINUOUS
10
7.88727
20
-5.45699
11
7.88787
21
-5.46
0
LINE
8
BLACK
6
CONTINUOUS
10
7.88787
20
-5.46
11
7.88787
21
-5.52
0
LINE
8
BLACK
6
CONTINUOUS
10
7.88787
20
-5.52
11
7.88727
21
-5.52301
0
LINE
8
BLACK
6
CONTINUOUS
10
7.88727
20
-5.52301
11
7.88557
21
-5.52557
0
LINE
8
BLACK
6
CONTINUOUS
10
7.88557
20
-5.52557
11
7.88301
21
-5.52727
0
LINE
8
BLACK
6
CONTINUOUS
10
7.88301
20
-5.52727
11
7.88
21
-5.52787
0
LINE
8
BLACK
6
CONTINUOUS
10
7.88
20
-5.52787
11
7.82
21
-5.52787
0
LINE
8
BLACK
6
CONTINUOUS
10
7.82
20
-5.52787
11
7.81699
21
-5.52727
0
LINE
8
BLACK
6
CONTINUOUS
10
7.81699
20
-5.52727
11
7.81443
21
-5.52557
0
LINE
8
BLACK
6
CONTINUOUS
10
7.81443
20
-5.52557
11
7.81273
21
-5.52301
0
LINE
8
BLACK
6
CONTINUOUS
10
7.81273
20
-5.52301
11
7.81213
21
-5.52
0
LINE
8
BLACK
6
CONTINUOUS
10
7.81213
20
-5.52
11
7.81213
21
-5.46
0
LINE
8
BLACK
6
CONTINUOUS
10
7.81213
20
-5.46
11
7.81273
21
-5.45699
0
LINE
8
BLACK
6
CONTINUOUS
10
7.81273
20
-5.45699
11
7.81443
21
-5.45443
0
LINE
8
BLACK
6
CONTINUOUS
10
7.81443
20
-5.45443
11
7.81699
21
-5.45273
0
LINE
8
BLACK
6
CONTINUOUS
10
7.81699
20
-5.45273
11
7.82
21
-5.45213
0
LINE
8
BLACK
6
CONTINUOUS
10
7.82
20
-5.45213
11
7.88
21
-5.45213
0
LINE
8
BLACK
6
CONTINUOUS
10
7.78
20
-4.05213
11
7.78301
21
-4.05273
0
LINE
8
BLACK
6
CONTINUOUS
10
7.78301
20
-4.05273
11
7.78557
21
-4.05443
0
LINE
8
BLACK
6
CONTINUOUS
10
7.78557
20
-4.05443
11
7.78727
21
-4.05699
0
LINE
8
BLACK
6
CONTINUOUS
10
7.78727
20
-4.05699
11
7.78787
21
-4.06
0
LINE
8
BLACK
6
CONTINUOUS
10
7.78787
20
-4.06
11
7.78787
21
-4.12
0
LINE
8
BLACK
6
CONTINUOUS
10
7.78787
20
-4.12
11
7.78727
21
-4.12301
0
LINE
8
BLACK
6
CONTINUOUS
10
7.78727
20
-4.12301
11
7.78557
21
-4.12557
0
LINE
8
BLACK
6
CONTINUOUS
10
7.78557
20
-4.12557
11
7.78301
21
-4.12727
0
LINE
8
BLACK
6
CONTINUOUS
10
7.78301
20
-4.12727
11
7.78
21
-4.12787
0
LINE
8
BLACK
6
CONTINUOUS
10
7.78
20
-4.12787
11
7.72
21
-4.12787
0
LINE
8
BLACK
6
CONTINUOUS
10
7.72
20
-4.12787
11
7.71699
21
-4.12727
0
LINE
8
BLACK
6
CONTINUOUS
10
7.71699
20
-4.12727
11
7.71443
21
-4.12557
0
LINE
8
BLACK
6
CONTINUOUS
10
7.71443
20
-4.12557
11
7.71273
21
-4.12301
0
LINE
8
BLACK
6
CONTINUOUS
10
7.71273
20
-4.12301
11
7.71213
21
-4.12
0
LINE
8
BLACK
6
CONTINUOUS
10
7.71213
20
-4.12
11
7.71213
21
-4.06
0
LINE
8
BLACK
6
CONTINUOUS
10
7.71213
20
-4.06
11
7.71273
21
-4.05699
0
LINE
8
BLACK
6
CONTINUOUS
10
7.71273
20
-4.05699
11
7.71443
21
-4.05443
0
LINE
8
BLACK
6
CONTINUOUS
10
7.71443
20
-4.05443
11
7.71699
21
-4.05273
0
LINE
8
BLACK
6
CONTINUOUS
10
7.71699
20
-4.05273
11
7.72
21
-4.05213
0
LINE
8
BLACK
6
CONTINUOUS
10
7.72
20
-4.05213
11
7.78
21
-4.05213
0
LINE
8
BLACK
6
CONTINUOUS
10
7.78
20
-4.15213
11
7.78301
21
-4.15273
0
LINE
8
BLACK
6
CONTINUOUS
10
7.78301
20
-4.15273
11
7.78557
21
-4.15443
0
LINE
8
BLACK
6
CONTINUOUS
10
7.78557
20
-4.15443
11
7.78727
21
-4.15699
0
LINE
8
BLACK
6
CONTINUOUS
10
7.78727
20
-4.15699
11
7.78787
21
-4.16
0
LINE
8
BLACK
6
CONTINUOUS
10
7.78787
20
-4.16
11
7.78787
21
-4.22
0
LINE
8
BLACK
6
CONTINUOUS
10
7.78787
20
-4.22
11
7.78727
21
-4.22301
0
LINE
8
BLACK
6
CONTINUOUS
10
7.78727
20
-4.22301
11
7.78557
21
-4.22557
0
LINE
8
BLACK
6
CONTINUOUS
10
7.78557
20
-4.22557
11
7.78301
21
-4.22727
0
LINE
8
BLACK
6
CONTINUOUS
10
7.78301
20
-4.22727
11
7.78
21
-4.22787
0
LINE
8
BLACK
6
CONTINUOUS
10
7.78
20
-4.22787
11
7.72
21
-4.22787
0
LINE
8
BLACK
6
CONTINUOUS
10
7.72
20
-4.22787
11
7.71699
21
-4.22727
0
LINE
8
BLACK
6
CONTINUOUS
10
7.71699
20
-4.22727
11
7.71443
21
-4.22557
0
LINE
8
BLACK
6
CONTINUOUS
10
7.71443
20
-4.22557
11
7.71273
21
-4.22301
0
LINE
8
BLACK
6
CONTINUOUS
10
7.71273
20
-4.22301
11
7.71213
21
-4.22
0
LINE
8
BLACK
6
CONTINUOUS
10
7.71213
20
-4.22
11
7.71213
21
-4.16
0
LINE
8
BLACK
6
CONTINUOUS
10
7.71213
20
-4.16
11
7.71273
21
-4.15699
0
LINE
8
BLACK
6
CONTINUOUS
10
7.71273
20
-4.15699
11
7.71443
21
-4.15443
0
LINE
8
BLACK
6
CONTINUOUS
10
7.71443
20
-4.15443
11
7.71699
21
-4.15273
0
LINE
8
BLACK
6
CONTINUOUS
10
7.71699
20
-4.15273
11
7.72
21
-4.15213
0
LINE
8
BLACK
6
CONTINUOUS
10
7.72
20
-4.15213
11
7.78
21
-4.15213
0
CIRCLE
8
BLACK
10
6.39
20
-5.39
40
0.125984
0
LINE
8
BLACK
6
CONTINUOUS
10
6.25213
20
-4.82
11
6.25273
21
-4.81699
0
LINE
8
BLACK
6
CONTINUOUS
10
6.25273
20
-4.81699
11
6.25443
21
-4.81443
0
LINE
8
BLACK
6
CONTINUOUS
10
6.25443
20
-4.81443
11
6.25699
21
-4.81273
0
LINE
8
BLACK
6
CONTINUOUS
10
6.25699
20
-4.81273
11
6.26
21
-4.81213
0
LINE
8
BLACK
6
CONTINUOUS
10
6.26
20
-4.81213
11
6.32
21
-4.81213
0
LINE
8
BLACK
6
CONTINUOUS
10
6.32
20
-4.81213
11
6.32301
21
-4.81273
0
LINE
8
BLACK
6
CONTINUOUS
10
6.32301
20
-4.81273
11
6.32557
21
-4.81443
0
LINE
8
BLACK
6
CONTINUOUS
10
6.32557
20
-4.81443
11
6.32727
21
-4.81699
0
LINE
8
BLACK
6
CONTINUOUS
10
6.32727
20
-4.81699
11
6.32787
21
-4.82
0
LINE
8
BLACK
6
CONTINUOUS
10
6.32787
20
-4.82
11
6.32787
21
-4.88
0
LINE
8
BLACK
6
CONTINUOUS
10
6.32787
20
-4.88
11
6.32727
21
-4.88301
0
LINE
8
BLACK
6
CONTINUOUS
10
6.32727
20
-4.88301
11
6.32557
21
-4.88557
0
LINE
8
BLACK
6
CONTINUOUS
10
6.32557
20
-4.88557
11
6.32301
21
-4.88727
0
LINE
8
BLACK
6
CONTINUOUS
10
6.32301
20
-4.88727
11
6.32
21
-4.88787
0
LINE
8
BLACK
6
CONTINUOUS
10
6.32
20
-4.88787
11
6.26
21
-4.88787
0
LINE
8
BLACK
6
CONTINUOUS
10
6.26
20
-4.88787
11
6.25699
21
-4.88727
0
LINE
8
BLACK
6
CONTINUOUS
10
6.25699
20
-4.88727
11
6.25443
21
-4.88557
0
LINE
8
BLACK
6
CONTINUOUS
10
6.25443
20
-4.88557
11
6.25273
21
-4.88301
0
LINE
8
BLACK
6
CONTINUOUS
10
6.25273
20
-4.88301
11
6.25213
21
-4.88
0
LINE
8
BLACK
6
CONTINUOUS
10
6.25213
20
-4.88
11
6.25213
21
-4.82
0
LINE
8
BLACK
6
CONTINUOUS
10
6.35213
20
-4.82
11
6.35273
21
-4.81699
0
LINE
8
BLACK
6
CONTINUOUS
10
6.35273
20
-4.81699
11
6.35443
21
-4.81443
0
LINE
8
BLACK
6
CONTINUOUS
10
6.35443
20
-4.81443
11
6.35699
21
-4.81273
0
LINE
8
BLACK
6
CONTINUOUS
10
6.35699
20
-4.81273
11
6.36
21
-4.81213
0
LINE
8
BLACK
6
CONTINUOUS
10
6.36
20
-4.81213
11
6.42
21
-4.81213
0
LINE
8
BLACK
6
CONTINUOUS
10
6.42
20
-4.81213
11
6.42301
21
-4.81273
0
LINE
8
BLACK
6
CONTINUOUS
10
6.42301
20
-4.81273
11
6.42557
21
-4.81443
0
LINE
8
BLACK
6
CONTINUOUS
10
6.42557
20
-4.81443
11
6.42727
21
-4.81699
0
LINE
8
BLACK
6
CONTINUOUS
10
6.42727
20
-4.81699
11
6.42787
21
-4.82
0
LINE
8
BLACK
6
CONTINUOUS
10
6.42787
20
-4.82
11
6.42787
21
-4.88
0
LINE
8
BLACK
6
CONTINUOUS
10
6.42787
20
-4.88
11
6.42727
21
-4.88301
0
LINE
8
BLACK
6
CONTINUOUS
10
6.42727
20
-4.88301
11
6.42557
21
-4.88557
0
LINE
8
BLACK
6
CONTINUOUS
10
6.42557
20
-4.88557
11
6.42301
21
-4.88727
0
LINE
8
BLACK
6
CONTINUOUS
10
6.42301
20
-4.88727
11
6.42
21
-4.88787
0
LINE
8
BLACK
6
CONTINUOUS
10
6.42
20
-4.88787
11
6.36
21
-4.88787
0
LINE
8
BLACK
6
CONTINUOUS
10
6.36
20
-4.88787
11
6.35699
21
-4.88727
0
LINE
8
BLACK
6
CONTINUOUS
10
6.35699
20
-4.88727
11
6.35443
21
-4.88557
0
LINE
8
BLACK
6
CONTINUOUS
10
6.35443
20
-4.88557
11
6.35273
21
-4.88301
0
LINE
8
BLACK
6
CONTINUOUS
10
6.35273
20
-4.88301
11
6.35213
21
-4.88
0
LINE
8
BLACK
6
CONTINUOUS
10
6.35213
20
-4.88
11
6.35213
21
-4.82
0
LINE
8
BLACK
6
CONTINUOUS
10
6.25213
20
-4.92
11
6.25273
21
-4.91699
0
LINE
8
BLACK
6
CONTINUOUS
10
6.25273
20
-4.91699
11
6.25443
21
-4.91443
0
LINE
8
BLACK
6
CONTINUOUS
10
6.25443
20
-4.91443
11
6.25699
21
-4.91273
0
LINE
8
BLACK
6
CONTINUOUS
10
6.25699
20
-4.91273
11
6.26
21
-4.91213
0
LINE
8
BLACK
6
CONTINUOUS
10
6.26
20
-4.91213
11
6.32
21
-4.91213
0
LINE
8
BLACK
6
CONTINUOUS
10
6.32
20
-4.91213
11
6.32301
21
-4.91273
0
LINE
8
BLACK
6
CONTINUOUS
10
6.32301
20
-4.91273
11
6.32557
21
-4.91443
0
LINE
8
BLACK
6
CONTINUOUS
10
6.32557
20
-4.91443
11
6.32727
21
-4.91699
0
LINE
8
BLACK
6
CONTINUOUS
10
6.32727
20
-4.91699
11
6.32787
21
-4.92
0
LINE
8
BLACK
6
CONTINUOUS
10
6.32787
20
-4.92
11
6.32787
21
-4.98
0
LINE
8
BLACK
6
CONTINUOUS
10
6.32787
20
-4.98
11
6.32727
21
-4.98301
0
LINE
8
BLACK
6
CONTINUOUS
10
6.32727
20
-4.98301
11
6.32557
21
-4.98557
0
LINE
8
BLACK
6
CONTINUOUS
10
6.32557
20
-4.98557
11
6.32301
21
-4.98727
0
LINE
8
BLACK
6
CONTINUOUS
10
6.32301
20
-4.98727
11
6.32
21
-4.98787
0
LINE
8
BLACK
6
CONTINUOUS
10
6.32
20
-4.98787
11
6.26
21
-4.98787
0
LINE
8
BLACK
6
CONTINUOUS
10
6.26
20
-4.98787
11
6.25699
21
-4.98727
0
LINE
8
BLACK
6
CONTINUOUS
10
6.25699
20
-4.98727
11
6.25443
21
-4.98557
0
LINE
8
BLACK
6
CONTINUOUS
10
6.25443
20
-4.98557
11
6.25273
21
-4.98301
0
LINE
8
BLACK
6
CONTINUOUS
10
6.25273
20
-4.98301
11
6.25213
21
-4.98
0
LINE
8
BLACK
6
CONTINUOUS
10
6.25213
20
-4.98
11
6.25213
21
-4.92
0
LINE
8
BLACK
6
CONTINUOUS
10
6.35213
20
-4.92
11
6.35273
21
-4.91699
0
LINE
8
BLACK
6
CONTINUOUS
10
6.35273
20
-4.91699
11
6.35443
21
-4.91443
0
LINE
8
BLACK
6
CONTINUOUS
10
6.35443
20
-4.91443
11
6.35699
21
-4.91273
0
LINE
8
BLACK
6
CONTINUOUS
10
6.35699
20
-4.91273
11
6.36
21
-4.91213
0
LINE
8
BLACK
6
CONTINUOUS
10
6.36
20
-4.91213
11
6.42
21
-4.91213
0
LINE
8
BLACK
6
CONTINUOUS
10
6.42
20
-4.91213
11
6.42301
21
-4.91273
0
LINE
8
BLACK
6
CONTINUOUS
10
6.42301
20
-4.91273
11
6.42557
21
-4.91443
0
LINE
8
BLACK
6
CONTINUOUS
10
6.42557
20
-4.91443
11
6.42727
21
-4.91699
0
LINE
8
BLACK
6
CONTINUOUS
10
6.42727
20
-4.91699
11
6.42787
21
-4.92
0
LINE
8
BLACK
6
CONTINUOUS
10
6.42787
20
-4.92
11
6.42787
21
-4.98
0
LINE
8
BLACK
6
CONTINUOUS
10
6.42787
20
-4.98
11
6.42727
21
-4.98301
0
LINE
8
BLACK
6
CONTINUOUS
10
6.42727
20
-4.98301
11
6.42557
21
-4.98557
0
LINE
8
BLACK
6
CONTINUOUS
10
6.42557
20
-4.98557
11
6.42301
21
-4.98727
0
LINE
8
BLACK
6
CONTINUOUS
10
6.42301
20
-4.98727
11
6.42
21
-4.98787
0
LINE
8
BLACK
6
CONTINUOUS
10
6.42
20
-4.98787
11
6.36
21
-4.98787
0
LINE
8
BLACK
6
CONTINUOUS
10
6.36
20
-4.98787
11
6.35699
21
-4.98727
0
LINE
8
BLACK
6
CONTINUOUS
10
6.35699
20
-4.98727
11
6.35443
21
-4.98557
0
LINE
8
BLACK
6
CONTINUOUS
10
6.35443
20
-4.98557
11
6.35273
21
-4.98301
0
LINE
8
BLACK
6
CONTINUOUS
10
6.35273
20
-4.98301
11
6.35213
21
-4.98
0
LINE
8
BLACK
6
CONTINUOUS
10
6.35213
20
-4.98
11
6.35213
21
-4.92
0
LINE
8
BLACK
6
CONTINUOUS
10
6.25213
20
-5.02
11
6.25273
21
-5.01699
0
LINE
8
BLACK
6
CONTINUOUS
10
6.25273
20
-5.01699
11
6.25443
21
-5.01443
0
LINE
8
BLACK
6
CONTINUOUS
10
6.25443
20
-5.01443
11
6.25699
21
-5.01273
0
LINE
8
BLACK
6
CONTINUOUS
10
6.25699
20
-5.01273
11
6.26
21
-5.01213
0
LINE
8
BLACK
6
CONTINUOUS
10
6.26
20
-5.01213
11
6.32
21
-5.01213
0
LINE
8
BLACK
6
CONTINUOUS
10
6.32
20
-5.01213
11
6.32301
21
-5.01273
0
LINE
8
BLACK
6
CONTINUOUS
10
6.32301
20
-5.01273
11
6.32557
21
-5.01443
0
LINE
8
BLACK
6
CONTINUOUS
10
6.32557
20
-5.01443
11
6.32727
21
-5.01699
0
LINE
8
BLACK
6
CONTINUOUS
10
6.32727
20
-5.01699
11
6.32787
21
-5.02
0
LINE
8
BLACK
6
CONTINUOUS
10
6.32787
20
-5.02
11
6.32787
21
-5.08
0
LINE
8
BLACK
6
CONTINUOUS
10
6.32787
20
-5.08
11
6.32727
21
-5.08301
0
LINE
8
BLACK
6
CONTINUOUS
10
6.32727
20
-5.08301
11
6.32557
21
-5.08557
0
LINE
8
BLACK
6
CONTINUOUS
10
6.32557
20
-5.08557
11
6.32301
21
-5.08727
0
LINE
8
BLACK
6
CONTINUOUS
10
6.32301
20
-5.08727
11
6.32
21
-5.08787
0
LINE
8
BLACK
6
CONTINUOUS
10
6.32
20
-5.08787
11
6.26
21
-5.08787
0
LINE
8
BLACK
6
CONTINUOUS
10
6.26
20
-5.08787
11
6.25699
21
-5.08727
0
LINE
8
BLACK
6
CONTINUOUS
10
6.25699
20
-5.08727
11
6.25443
21
-5.08557
0
LINE
8
BLACK
6
CONTINUOUS
10
6.25443
20
-5.08557
11
6.25273
21
-5.08301
0
LINE
8
BLACK
6
CONTINUOUS
10
6.25273
20
-5.08301
11
6.25213
21
-5.08
0
LINE
8
BLACK
6
CONTINUOUS
10
6.25213
20
-5.08
11
6.25213
21
-5.02
0
LINE
8
BLACK
6
CONTINUOUS
10
6.35213
20
-5.02
11
6.35273
21
-5.01699
0
LINE
8
BLACK
6
CONTINUOUS
10
6.35273
20
-5.01699
11
6.35443
21
-5.01443
0
LINE
8
BLACK
6
CONTINUOUS
10
6.35443
20
-5.01443
11
6.35699
21
-5.01273
0
LINE
8
BLACK
6
CONTINUOUS
10
6.35699
20
-5.01273
11
6.36
21
-5.01213
0
LINE
8
BLACK
6
CONTINUOUS
10
6.36
20
-5.01213
11
6.42
21
-5.01213
0
LINE
8
BLACK
6
CONTINUOUS
10
6.42
20
-5.01213
11
6.42301
21
-5.01273
0
LINE
8
BLACK
6
CONTINUOUS
10
6.42301
20
-5.01273
11
6.42557
21
-5.01443
0
LINE
8
BLACK
6
CONTINUOUS
10
6.42557
20
-5.01443
11
6.42727
21
-5.01699
0
LINE
8
BLACK
6
CONTINUOUS
10
6.42727
20
-5.01699
11
6.42787
21
-5.02
0
LINE
8
BLACK
6
CONTINUOUS
10
6.42787
20
-5.02
11
6.42787
21
-5.08
0
LINE
8
BLACK
6
CONTINUOUS
10
6.42787
20
-5.08
11
6.42727
21
-5.08301
0
LINE
8
BLACK
6
CONTINUOUS
10
6.42727
20
-5.08301
11
6.42557
21
-5.08557
0
LINE
8
BLACK
6
CONTINUOUS
10
6.42557
20
-5.08557
11
6.42301
21
-5.08727
0
LINE
8
BLACK
6
CONTINUOUS
10
6.42301
20
-5.08727
11
6.42
21
-5.08787
0
LINE
8
BLACK
6
CONTINUOUS
10
6.42
20
-5.08787
11
6.36
21
-5.08787
0
LINE
8
BLACK
6
CONTINUOUS
10
6.36
20
-5.08787
11
6.35699
21
-5.08727
0
LINE
8
BLACK
6
CONTINUOUS
10
6.35699
20
-5.08727
11
6.35443
21
-5.08557
0
LINE
8
BLACK
6
CONTINUOUS
10
6.35443
20
-5.08557
11
6.35273
21
-5.08301
0
LINE
8
BLACK
6
CONTINUOUS
10
6.35273
20
-5.08301
11
6.35213
21
-5.08
0
LINE
8
BLACK
6
CONTINUOUS
10
6.35213
20
-5.08
11
6.35213
21
-5.02
0
LINE
8
BLACK
6
CONTINUOUS
10
6.25213
20
-5.12
11
6.25273
21
-5.11699
0
LINE
8
BLACK
6
CONTINUOUS
10
6.25273
20
-5.11699
11
6.25443
21
-5.11443
0
LINE
8
BLACK
6
CONTINUOUS
10
6.25443
20
-5.11443
11
6.25699
21
-5.11273
0
LINE
8
BLACK
6
CONTINUOUS
10
6.25699
20
-5.11273
11
6.26
21
-5.11213
0
LINE
8
BLACK
6
CONTINUOUS
10
6.26
20
-5.11213
11
6.32
21
-5.11213
0
LINE
8
BLACK
6
CONTINUOUS
10
6.32
20
-5.11213
11
6.32301
21
-5.11273
0
LINE
8
BLACK
6
CONTINUOUS
10
6.32301
20
-5.11273
11
6.32557
21
-5.11443
0
LINE
8
BLACK
6
CONTINUOUS
10
6.32557
20
-5.11443
11
6.32727
21
-5.11699
0
LINE
8
BLACK
6
CONTINUOUS
10
6.32727
20
-5.11699
11
6.32787
21
-5.12
0
LINE
8
BLACK
6
CONTINUOUS
10
6.32787
20
-5.12
11
6.32787
21
-5.18
0
LINE
8
BLACK
6
CONTINUOUS
10
6.32787
20
-5.18
11
6.32727
21
-5.18301
0
LINE
8
BLACK
6
CONTINUOUS
10
6.32727
20
-5.18301
11
6.32557
21
-5.18557
0
LINE
8
BLACK
6
CONTINUOUS
10
6.32557
20
-5.18557
11
6.32301
21
-5.18727
0
LINE
8
BLACK
6
CONTINUOUS
10
6.32301
20
-5.18727
11
6.32
21
-5.18787
0
LINE
8
BLACK
6
CONTINUOUS
10
6.32
20
-5.18787
11
6.26
21
-5.18787
0
LINE
8
BLACK
6
CONTINUOUS
10
6.26
20
-5.18787
11
6.25699
21
-5.18727
0
LINE
8
BLACK
6
CONTINUOUS
10
6.25699
20
-5.18727
11
6.25443
21
-5.18557
0
LINE
8
BLACK
6
CONTINUOUS
10
6.25443
20
-5.18557
11
6.25273
21
-5.18301
0
LINE
8
BLACK
6
CONTINUOUS
10
6.25273
20
-5.18301
11
6.25213
21
-5.18
0
LINE
8
BLACK
6
CONTINUOUS
10
6.25213
20
-5.18
11
6.25213
21
-5.12
0
LINE
8
BLACK
6
CONTINUOUS
10
6.35213
20
-5.12
11
6.35273
21
-5.11699
0
LINE
8
BLACK
6
CONTINUOUS
10
6.35273
20
-5.11699
11
6.35443
21
-5.11443
0
LINE
8
BLACK
6
CONTINUOUS
10
6.35443
20
-5.11443
11
6.35699
21
-5.11273
0
LINE
8
BLACK
6
CONTINUOUS
10
6.35699
20
-5.11273
11
6.36
21
-5.11213
0
LINE
8
BLACK
6
CONTINUOUS
10
6.36
20
-5.11213
11
6.42
21
-5.11213
0
LINE
8
BLACK
6
CONTINUOUS
10
6.42
20
-5.11213
11
6.42301
21
-5.11273
0
LINE
8
BLACK
6
CONTINUOUS
10
6.42301
20
-5.11273
11
6.42557
21
-5.11443
0
LINE
8
BLACK
6
CONTINUOUS
10
6.42557
20
-5.11443
11
6.42727
21
-5.11699
0
LINE
8
BLACK
6
CONTINUOUS
10
6.42727
20
-5.11699
11
6.42787
21
-5.12
0
LINE
8
BLACK
6
CONTINUOUS
10
6.42787
20
-5.12
11
6.42787
21
-5.18
0
LINE
8
BLACK
6
CONTINUOUS
10
6.42787
20
-5.18
11
6.42727
21
-5.18301
0
LINE
8
BLACK
6
CONTINUOUS
10
6.42727
20
-5.18301
11
6.42557
21
-5.18557
0
LINE
8
BLACK
6
CONTINUOUS
10
6.42557
20
-5.18557
11
6.42301
21
-5.18727
0
LINE
8
BLACK
6
CONTINUOUS
10
6.42301
20
-5.18727
11
6.42
21
-5.18787
0
LINE
8
BLACK
6
CONTINUOUS
10
6.42
20
-5.18787
11
6.36
21
-5.18787
0
LINE
8
BLACK
6
CONTINUOUS
10
6.36
20
-5.18787
11
6.35699
21
-5.18727
0
LINE
8
BLACK
6
CONTINUOUS
10
6.35699
20
-5.18727
11
6.35443
21
-5.18557
0
LINE
8
BLACK
6
CONTINUOUS
10
6.35443
20
-5.18557
11
6.35273
21
-5.18301
0
LINE
8
BLACK
6
CONTINUOUS
10
6.35273
20
-5.18301
11
6.35213
21
-5.18
0
LINE
8
BLACK
6
CONTINUOUS
10
6.35213
20
-5.18
11
6.35213
21
-5.12
0
LINE
8
BLACK
6
CONTINUOUS
10
7.98
20
-5.35213
11
7.98301
21
-5.35273
0
LINE
8
BLACK
6
CONTINUOUS
10
7.98301
20
-5.35273
11
7.98557
21
-5.35443
0
LINE
8
BLACK
6
CONTINUOUS
10
7.98557
20
-5.35443
11
7.98727
21
-5.35699
0
LINE
8
BLACK
6
CONTINUOUS
10
7.98727
20
-5.35699
11
7.98787
21
-5.36
0
LINE
8
BLACK
6
CONTINUOUS
10
7.98787
20
-5.36
11
7.98787
21
-5.42
0
LINE
8
BLACK
6
CONTINUOUS
10
7.98787
20
-5.42
11
7.98727
21
-5.42301
0
LINE
8
BLACK
6
CONTINUOUS
10
7.98727
20
-5.42301
11
7.98557
21
-5.42557
0
LINE
8
BLACK
6
CONTINUOUS
10
7.98557
20
-5.42557
11
7.98301
21
-5.42727
0
LINE
8
BLACK
6
CONTINUOUS
10
7.98301
20
-5.42727
11
7.98
21
-5.42787
0
LINE
8
BLACK
6
CONTINUOUS
10
7.98
20
-5.42787
11
7.92
21
-5.42787
0
LINE
8
BLACK
6
CONTINUOUS
10
7.92
20
-5.42787
11
7.91699
21
-5.42727
0
LINE
8
BLACK
6
CONTINUOUS
10
7.91699
20
-5.42727
11
7.91443
21
-5.42557
0
LINE
8
BLACK
6
CONTINUOUS
10
7.91443
20
-5.42557
11
7.91273
21
-5.42301
0
LINE
8
BLACK
6
CONTINUOUS
10
7.91273
20
-5.42301
11
7.91213
21
-5.42
0
LINE
8
BLACK
6
CONTINUOUS
10
7.91213
20
-5.42
11
7.91213
21
-5.36
0
LINE
8
BLACK
6
CONTINUOUS
10
7.91213
20
-5.36
11
7.91273
21
-5.35699
0
LINE
8
BLACK
6
CONTINUOUS
10
7.91273
20
-5.35699
11
7.91443
21
-5.35443
0
LINE
8
BLACK
6
CONTINUOUS
10
7.91443
20
-5.35443
11
7.91699
21
-5.35273
0
LINE
8
BLACK
6
CONTINUOUS
10
7.91699
20
-5.35273
11
7.92
21
-5.35213
0
LINE
8
BLACK
6
CONTINUOUS
10
7.92
20
-5.35213
11
7.98
21
-5.35213
0
LINE
8
BLACK
6
CONTINUOUS
10
7.98
20
-5.45213
11
7.98301
21
-5.45273
0
LINE
8
BLACK
6
CONTINUOUS
10
7.98301
20
-5.45273
11
7.98557
21
-5.45443
0
LINE
8
BLACK
6
CONTINUOUS
10
7.98557
20
-5.45443
11
7.98727
21
-5.45699
0
LINE
8
BLACK
6
CONTINUOUS
10
7.98727
20
-5.45699
11
7.98787
21
-5.46
0
LINE
8
BLACK
6
CONTINUOUS
10
7.98787
20
-5.46
11
7.98787
21
-5.52
0
LINE
8
BLACK
6
CONTINUOUS
10
7.98787
20
-5.52
11
7.98727
21
-5.52301
0
LINE
8
BLACK
6
CONTINUOUS
10
7.98727
20
-5.52301
11
7.98557
21
-5.52557
0
LINE
8
BLACK
6
CONTINUOUS
10
7.98557
20
-5.52557
11
7.98301
21
-5.52727
0
LINE
8
BLACK
6
CONTINUOUS
10
7.98301
20
-5.52727
11
7.98
21
-5.52787
0
LINE
8
BLACK
6
CONTINUOUS
10
7.98
20
-5.52787
11
7.92
21
-5.52787
0
LINE
8
BLACK
6
CONTINUOUS
10
7.92
20
-5.52787
11
7.91699
21
-5.52727
0
LINE
8
BLACK
6
CONTINUOUS
10
7.91699
20
-5.52727
11
7.91443
21
-5.52557
0
LINE
8
BLACK
6
CONTINUOUS
10
7.91443
20
-5.52557
11
7.91273
21
-5.52301
0
LINE
8
BLACK
6
CONTINUOUS
10
7.91273
20
-5.52301
11
7.91213
21
-5.52
0
LINE
8
BLACK
6
CONTINUOUS
10
7.91213
20
-5.52
11
7.91213
21
-5.46
0
LINE
8
BLACK
6
CONTINUOUS
10
7.91213
20
-5.46
11
7.91273
21
-5.45699
0
LINE
8
BLACK
6
CONTINUOUS
10
7.91273
20
-5.45699
11
7.91443
21
-5.45443
0
LINE
8
BLACK
6
CONTINUOUS
10
7.91443
20
-5.45443
11
7.91699
21
-5.45273
0
LINE
8
BLACK
6
CONTINUOUS
10
7.91699
20
-5.45273
11
7.92
21
-5.45213
0
LINE
8
BLACK
6
CONTINUOUS
10
7.92
20
-5.45213
11
7.98
21
-5.45213
0
LINE
8
BLACK
6
CONTINUOUS
10
6.85714
20
-5.25842
11
6.85774
21
-5.2554
0
LINE
8
BLACK
6
CONTINUOUS
10
6.85774
20
-5.2554
11
6.85945
21
-5.25285
0
LINE
8
BLACK
6
CONTINUOUS
10
6.85945
20
-5.25285
11
6.862
21
-5.25114
0
LINE
8
BLACK
6
CONTINUOUS
10
6.862
20
-5.25114
11
6.86502
21
-5.25054
0
LINE
8
BLACK
6
CONTINUOUS
10
6.86502
20
-5.25054
11
6.93102
21
-5.25054
0
LINE
8
BLACK
6
CONTINUOUS
10
6.93102
20
-5.25054
11
6.93403
21
-5.25114
0
LINE
8
BLACK
6
CONTINUOUS
10
6.93403
20
-5.25114
11
6.93658
21
-5.25285
0
LINE
8
BLACK
6
CONTINUOUS
10
6.93658
20
-5.25285
11
6.93829
21
-5.2554
0
LINE
8
BLACK
6
CONTINUOUS
10
6.93829
20
-5.2554
11
6.93889
21
-5.25842
0
LINE
8
BLACK
6
CONTINUOUS
10
6.93889
20
-5.25842
11
6.93889
21
-5.32442
0
LINE
8
BLACK
6
CONTINUOUS
10
6.93889
20
-5.32442
11
6.93829
21
-5.32743
0
LINE
8
BLACK
6
CONTINUOUS
10
6.93829
20
-5.32743
11
6.93658
21
-5.32999
0
LINE
8
BLACK
6
CONTINUOUS
10
6.93658
20
-5.32999
11
6.93403
21
-5.33169
0
LINE
8
BLACK
6
CONTINUOUS
10
6.93403
20
-5.33169
11
6.93102
21
-5.33229
0
LINE
8
BLACK
6
CONTINUOUS
10
6.93102
20
-5.33229
11
6.86502
21
-5.33229
0
LINE
8
BLACK
6
CONTINUOUS
10
6.86502
20
-5.33229
11
6.862
21
-5.33169
0
LINE
8
BLACK
6
CONTINUOUS
10
6.862
20
-5.33169
11
6.85945
21
-5.32999
0
LINE
8
BLACK
6
CONTINUOUS
10
6.85945
20
-5.32999
11
6.85774
21
-5.32743
0
LINE
8
BLACK
6
CONTINUOUS
10
6.85774
20
-5.32743
11
6.85714
21
-5.32442
0
LINE
8
BLACK
6
CONTINUOUS
10
6.85714
20
-5.32442
11
6.85714
21
-5.25842
0
LINE
8
BLACK
6
CONTINUOUS
10
6.60911
20
-5.25842
11
6.60971
21
-5.2554
0
LINE
8
BLACK
6
CONTINUOUS
10
6.60971
20
-5.2554
11
6.61142
21
-5.25285
0
LINE
8
BLACK
6
CONTINUOUS
10
6.61142
20
-5.25285
11
6.61397
21
-5.25114
0
LINE
8
BLACK
6
CONTINUOUS
10
6.61397
20
-5.25114
11
6.61698
21
-5.25054
0
LINE
8
BLACK
6
CONTINUOUS
10
6.61698
20
-5.25054
11
6.68298
21
-5.25054
0
LINE
8
BLACK
6
CONTINUOUS
10
6.68298
20
-5.25054
11
6.686
21
-5.25114
0
LINE
8
BLACK
6
CONTINUOUS
10
6.686
20
-5.25114
11
6.68855
21
-5.25285
0
LINE
8
BLACK
6
CONTINUOUS
10
6.68855
20
-5.25285
11
6.69026
21
-5.2554
0
LINE
8
BLACK
6
CONTINUOUS
10
6.69026
20
-5.2554
11
6.69086
21
-5.25842
0
LINE
8
BLACK
6
CONTINUOUS
10
6.69086
20
-5.25842
11
6.69086
21
-5.32442
0
LINE
8
BLACK
6
CONTINUOUS
10
6.69086
20
-5.32442
11
6.69026
21
-5.32743
0
LINE
8
BLACK
6
CONTINUOUS
10
6.69026
20
-5.32743
11
6.68855
21
-5.32999
0
LINE
8
BLACK
6
CONTINUOUS
10
6.68855
20
-5.32999
11
6.686
21
-5.33169
0
LINE
8
BLACK
6
CONTINUOUS
10
6.686
20
-5.33169
11
6.68298
21
-5.33229
0
LINE
8
BLACK
6
CONTINUOUS
10
6.68298
20
-5.33229
11
6.61698
21
-5.33229
0
LINE
8
BLACK
6
CONTINUOUS
10
6.61698
20
-5.33229
11
6.61397
21
-5.33169
0
LINE
8
BLACK
6
CONTINUOUS
10
6.61397
20
-5.33169
11
6.61142
21
-5.32999
0
LINE
8
BLACK
6
CONTINUOUS
10
6.61142
20
-5.32999
11
6.60971
21
-5.32743
0
LINE
8
BLACK
6
CONTINUOUS
10
6.60971
20
-5.32743
11
6.60911
21
-5.32442
0
LINE
8
BLACK
6
CONTINUOUS
10
6.60911
20
-5.32442
11
6.60911
21
-5.25842
0
LINE
8
BLACK
6
CONTINUOUS
10
6.85714
20
-5.43558
11
6.85774
21
-5.43257
0
LINE
8
BLACK
6
CONTINUOUS
10
6.85774
20
-5.43257
11
6.85945
21
-5.43001
0
LINE
8
BLACK
6
CONTINUOUS
10
6.85945
20
-5.43001
11
6.862
21
-5.42831
0
LINE
8
BLACK
6
CONTINUOUS
10
6.862
20
-5.42831
11
6.86502
21
-5.42771
0
LINE
8
BLACK
6
CONTINUOUS
10
6.86502
20
-5.42771
11
6.93102
21
-5.42771
0
LINE
8
BLACK
6
CONTINUOUS
10
6.93102
20
-5.42771
11
6.93403
21
-5.42831
0
LINE
8
BLACK
6
CONTINUOUS
10
6.93403
20
-5.42831
11
6.93658
21
-5.43001
0
LINE
8
BLACK
6
CONTINUOUS
10
6.93658
20
-5.43001
11
6.93829
21
-5.43257
0
LINE
8
BLACK
6
CONTINUOUS
10
6.93829
20
-5.43257
11
6.93889
21
-5.43558
0
LINE
8
BLACK
6
CONTINUOUS
10
6.93889
20
-5.43558
11
6.93889
21
-5.50158
0
LINE
8
BLACK
6
CONTINUOUS
10
6.93889
20
-5.50158
11
6.93829
21
-5.5046
0
LINE
8
BLACK
6
CONTINUOUS
10
6.93829
20
-5.5046
11
6.93658
21
-5.50715
0
LINE
8
BLACK
6
CONTINUOUS
10
6.93658
20
-5.50715
11
6.93403
21
-5.50886
0
LINE
8
BLACK
6
CONTINUOUS
10
6.93403
20
-5.50886
11
6.93102
21
-5.50946
0
LINE
8
BLACK
6
CONTINUOUS
10
6.93102
20
-5.50946
11
6.86502
21
-5.50946
0
LINE
8
BLACK
6
CONTINUOUS
10
6.86502
20
-5.50946
11
6.862
21
-5.50886
0
LINE
8
BLACK
6
CONTINUOUS
10
6.862
20
-5.50886
11
6.85945
21
-5.50715
0
LINE
8
BLACK
6
CONTINUOUS
10
6.85945
20
-5.50715
11
6.85774
21
-5.5046
0
LINE
8
BLACK
6
CONTINUOUS
10
6.85774
20
-5.5046
11
6.85714
21
-5.50158
0
LINE
8
BLACK
6
CONTINUOUS
10
6.85714
20
-5.50158
11
6.85714
21
-5.43558
0
LINE
8
BLACK
6
CONTINUOUS
10
6.60911
20
-5.43558
11
6.60971
21
-5.43257
0
LINE
8
BLACK
6
CONTINUOUS
10
6.60971
20
-5.43257
11
6.61142
21
-5.43001
0
LINE
8
BLACK
6
CONTINUOUS
10
6.61142
20
-5.43001
11
6.61397
21
-5.42831
0
LINE
8
BLACK
6
CONTINUOUS
10
6.61397
20
-5.42831
11
6.61698
21
-5.42771
0
LINE
8
BLACK
6
CONTINUOUS
10
6.61698
20
-5.42771
11
6.68298
21
-5.42771
0
LINE
8
BLACK
6
CONTINUOUS
10
6.68298
20
-5.42771
11
6.686
21
-5.42831
0
LINE
8
BLACK
6
CONTINUOUS
10
6.686
20
-5.42831
11
6.68855
21
-5.43001
0
LINE
8
BLACK
6
CONTINUOUS
10
6.68855
20
-5.43001
11
6.69026
21
-5.43257
0
LINE
8
BLACK
6
CONTINUOUS
10
6.69026
20
-5.43257
11
6.69086
21
-5.43558
0
LINE
8
BLACK
6
CONTINUOUS
10
6.69086
20
-5.43558
11
6.69086
21
-5.50158
0
LINE
8
BLACK
6
CONTINUOUS
10
6.69086
20
-5.50158
11
6.69026
21
-5.5046
0
LINE
8
BLACK
6
CONTINUOUS
10
6.69026
20
-5.5046
11
6.68855
21
-5.50715
0
LINE
8
BLACK
6
CONTINUOUS
10
6.68855
20
-5.50715
11
6.686
21
-5.50886
0
LINE
8
BLACK
6
CONTINUOUS
10
6.686
20
-5.50886
11
6.68298
21
-5.50946
0
LINE
8
BLACK
6
CONTINUOUS
10
6.68298
20
-5.50946
11
6.61698
21
-5.50946
0
LINE
8
BLACK
6
CONTINUOUS
10
6.61698
20
-5.50946
11
6.61397
21
-5.50886
0
LINE
8
BLACK
6
CONTINUOUS
10
6.61397
20
-5.50886
11
6.61142
21
-5.50715
0
LINE
8
BLACK
6
CONTINUOUS
10
6.61142
20
-5.50715
11
6.60971
21
-5.5046
0
LINE
8
BLACK
6
CONTINUOUS
10
6.60971
20
-5.5046
11
6.60911
21
-5.50158
0
LINE
8
BLACK
6
CONTINUOUS
10
6.60911
20
-5.50158
11
6.60911
21
-5.43558
0
LINE
8
BLACK
6
CONTINUOUS
10
8.35213
20
-4.71
11
8.35273
21
-4.70699
0
LINE
8
BLACK
6
CONTINUOUS
10
8.35273
20
-4.70699
11
8.35443
21
-4.70443
0
LINE
8
BLACK
6
CONTINUOUS
10
8.35443
20
-4.70443
11
8.35699
21
-4.70273
0
LINE
8
BLACK
6
CONTINUOUS
10
8.35699
20
-4.70273
11
8.36
21
-4.70213
0
LINE
8
BLACK
6
CONTINUOUS
10
8.36
20
-4.70213
11
8.42
21
-4.70213
0
LINE
8
BLACK
6
CONTINUOUS
10
8.42
20
-4.70213
11
8.42301
21
-4.70273
0
LINE
8
BLACK
6
CONTINUOUS
10
8.42301
20
-4.70273
11
8.42557
21
-4.70443
0
LINE
8
BLACK
6
CONTINUOUS
10
8.42557
20
-4.70443
11
8.42727
21
-4.70699
0
LINE
8
BLACK
6
CONTINUOUS
10
8.42727
20
-4.70699
11
8.42787
21
-4.71
0
LINE
8
BLACK
6
CONTINUOUS
10
8.42787
20
-4.71
11
8.42787
21
-4.77
0
LINE
8
BLACK
6
CONTINUOUS
10
8.42787
20
-4.77
11
8.42727
21
-4.77301
0
LINE
8
BLACK
6
CONTINUOUS
10
8.42727
20
-4.77301
11
8.42557
21
-4.77557
0
LINE
8
BLACK
6
CONTINUOUS
10
8.42557
20
-4.77557
11
8.42301
21
-4.77727
0
LINE
8
BLACK
6
CONTINUOUS
10
8.42301
20
-4.77727
11
8.42
21
-4.77787
0
LINE
8
BLACK
6
CONTINUOUS
10
8.42
20
-4.77787
11
8.36
21
-4.77787
0
LINE
8
BLACK
6
CONTINUOUS
10
8.36
20
-4.77787
11
8.35699
21
-4.77727
0
LINE
8
BLACK
6
CONTINUOUS
10
8.35699
20
-4.77727
11
8.35443
21
-4.77557
0
LINE
8
BLACK
6
CONTINUOUS
10
8.35443
20
-4.77557
11
8.35273
21
-4.77301
0
LINE
8
BLACK
6
CONTINUOUS
10
8.35273
20
-4.77301
11
8.35213
21
-4.77
0
LINE
8
BLACK
6
CONTINUOUS
10
8.35213
20
-4.77
11
8.35213
21
-4.71
0
LINE
8
BLACK
6
CONTINUOUS
10
8.45213
20
-4.71
11
8.45273
21
-4.70699
0
LINE
8
BLACK
6
CONTINUOUS
10
8.45273
20
-4.70699
11
8.45443
21
-4.70443
0
LINE
8
BLACK
6
CONTINUOUS
10
8.45443
20
-4.70443
11
8.45699
21
-4.70273
0
LINE
8
BLACK
6
CONTINUOUS
10
8.45699
20
-4.70273
11
8.46
21
-4.70213
0
LINE
8
BLACK
6
CONTINUOUS
10
8.46
20
-4.70213
11
8.52
21
-4.70213
0
LINE
8
BLACK
6
CONTINUOUS
10
8.52
20
-4.70213
11
8.52301
21
-4.70273
0
LINE
8
BLACK
6
CONTINUOUS
10
8.52301
20
-4.70273
11
8.52557
21
-4.70443
0
LINE
8
BLACK
6
CONTINUOUS
10
8.52557
20
-4.70443
11
8.52727
21
-4.70699
0
LINE
8
BLACK
6
CONTINUOUS
10
8.52727
20
-4.70699
11
8.52787
21
-4.71
0
LINE
8
BLACK
6
CONTINUOUS
10
8.52787
20
-4.71
11
8.52787
21
-4.77
0
LINE
8
BLACK
6
CONTINUOUS
10
8.52787
20
-4.77
11
8.52727
21
-4.77301
0
LINE
8
BLACK
6
CONTINUOUS
10
8.52727
20
-4.77301
11
8.52557
21
-4.77557
0
LINE
8
BLACK
6
CONTINUOUS
10
8.52557
20
-4.77557
11
8.52301
21
-4.77727
0
LINE
8
BLACK
6
CONTINUOUS
10
8.52301
20
-4.77727
11
8.52
21
-4.77787
0
LINE
8
BLACK
6
CONTINUOUS
10
8.52
20
-4.77787
11
8.46
21
-4.77787
0
LINE
8
BLACK
6
CONTINUOUS
10
8.46
20
-4.77787
11
8.45699
21
-4.77727
0
LINE
8
BLACK
6
CONTINUOUS
10
8.45699
20
-4.77727
11
8.45443
21
-4.77557
0
LINE
8
BLACK
6
CONTINUOUS
10
8.45443
20
-4.77557
11
8.45273
21
-4.77301
0
LINE
8
BLACK
6
CONTINUOUS
10
8.45273
20
-4.77301
11
8.45213
21
-4.77
0
LINE
8
BLACK
6
CONTINUOUS
10
8.45213
20
-4.77
11
8.45213
21
-4.71
0
LINE
8
BLACK
6
CONTINUOUS
10
8.35213
20
-4.61
11
8.35273
21
-4.60699
0
LINE
8
BLACK
6
CONTINUOUS
10
8.35273
20
-4.60699
11
8.35443
21
-4.60443
0
LINE
8
BLACK
6
CONTINUOUS
10
8.35443
20
-4.60443
11
8.35699
21
-4.60273
0
LINE
8
BLACK
6
CONTINUOUS
10
8.35699
20
-4.60273
11
8.36
21
-4.60213
0
LINE
8
BLACK
6
CONTINUOUS
10
8.36
20
-4.60213
11
8.42
21
-4.60213
0
LINE
8
BLACK
6
CONTINUOUS
10
8.42
20
-4.60213
11
8.42301
21
-4.60273
0
LINE
8
BLACK
6
CONTINUOUS
10
8.42301
20
-4.60273
11
8.42557
21
-4.60443
0
LINE
8
BLACK
6
CONTINUOUS
10
8.42557
20
-4.60443
11
8.42727
21
-4.60699
0
LINE
8
BLACK
6
CONTINUOUS
10
8.42727
20
-4.60699
11
8.42787
21
-4.61
0
LINE
8
BLACK
6
CONTINUOUS
10
8.42787
20
-4.61
11
8.42787
21
-4.67
0
LINE
8
BLACK
6
CONTINUOUS
10
8.42787
20
-4.67
11
8.42727
21
-4.67301
0
LINE
8
BLACK
6
CONTINUOUS
10
8.42727
20
-4.67301
11
8.42557
21
-4.67557
0
LINE
8
BLACK
6
CONTINUOUS
10
8.42557
20
-4.67557
11
8.42301
21
-4.67727
0
LINE
8
BLACK
6
CONTINUOUS
10
8.42301
20
-4.67727
11
8.42
21
-4.67787
0
LINE
8
BLACK
6
CONTINUOUS
10
8.42
20
-4.67787
11
8.36
21
-4.67787
0
LINE
8
BLACK
6
CONTINUOUS
10
8.36
20
-4.67787
11
8.35699
21
-4.67727
0
LINE
8
BLACK
6
CONTINUOUS
10
8.35699
20
-4.67727
11
8.35443
21
-4.67557
0
LINE
8
BLACK
6
CONTINUOUS
10
8.35443
20
-4.67557
11
8.35273
21
-4.67301
0
LINE
8
BLACK
6
CONTINUOUS
10
8.35273
20
-4.67301
11
8.35213
21
-4.67
0
LINE
8
BLACK
6
CONTINUOUS
10
8.35213
20
-4.67
11
8.35213
21
-4.61
0
LINE
8
BLACK
6
CONTINUOUS
10
8.45213
20
-4.61
11
8.45273
21
-4.60699
0
LINE
8
BLACK
6
CONTINUOUS
10
8.45273
20
-4.60699
11
8.45443
21
-4.60443
0
LINE
8
BLACK
6
CONTINUOUS
10
8.45443
20
-4.60443
11
8.45699
21
-4.60273
0
LINE
8
BLACK
6
CONTINUOUS
10
8.45699
20
-4.60273
11
8.46
21
-4.60213
0
LINE
8
BLACK
6
CONTINUOUS
10
8.46
20
-4.60213
11
8.52
21
-4.60213
0
LINE
8
BLACK
6
CONTINUOUS
10
8.52
20
-4.60213
11
8.52301
21
-4.60273
0
LINE
8
BLACK
6
CONTINUOUS
10
8.52301
20
-4.60273
11
8.52557
21
-4.60443
0
LINE
8
BLACK
6
CONTINUOUS
10
8.52557
20
-4.60443
11
8.52727
21
-4.60699
0
LINE
8
BLACK
6
CONTINUOUS
10
8.52727
20
-4.60699
11
8.52787
21
-4.61
0
LINE
8
BLACK
6
CONTINUOUS
10
8.52787
20
-4.61
11
8.52787
21
-4.67
0
LINE
8
BLACK
6
CONTINUOUS
10
8.52787
20
-4.67
11
8.52727
21
-4.67301
0
LINE
8
BLACK
6
CONTINUOUS
10
8.52727
20
-4.67301
11
8.52557
21
-4.67557
0
LINE
8
BLACK
6
CONTINUOUS
10
8.52557
20
-4.67557
11
8.52301
21
-4.67727
0
LINE
8
BLACK
6
CONTINUOUS
10
8.52301
20
-4.67727
11
8.52
21
-4.67787
0
LINE
8
BLACK
6
CONTINUOUS
10
8.52
20
-4.67787
11
8.46
21
-4.67787
0
LINE
8
BLACK
6
CONTINUOUS
10
8.46
20
-4.67787
11
8.45699
21
-4.67727
0
LINE
8
BLACK
6
CONTINUOUS
10
8.45699
20
-4.67727
11
8.45443
21
-4.67557
0
LINE
8
BLACK
6
CONTINUOUS
10
8.45443
20
-4.67557
11
8.45273
21
-4.67301
0
LINE
8
BLACK
6
CONTINUOUS
10
8.45273
20
-4.67301
11
8.45213
21
-4.67
0
LINE
8
BLACK
6
CONTINUOUS
10
8.45213
20
-4.67
11
8.45213
21
-4.61
0
LINE
8
BLACK
6
CONTINUOUS
10
8.35213
20
-4.81
11
8.35273
21
-4.80699
0
LINE
8
BLACK
6
CONTINUOUS
10
8.35273
20
-4.80699
11
8.35443
21
-4.80443
0
LINE
8
BLACK
6
CONTINUOUS
10
8.35443
20
-4.80443
11
8.35699
21
-4.80273
0
LINE
8
BLACK
6
CONTINUOUS
10
8.35699
20
-4.80273
11
8.36
21
-4.80213
0
LINE
8
BLACK
6
CONTINUOUS
10
8.36
20
-4.80213
11
8.42
21
-4.80213
0
LINE
8
BLACK
6
CONTINUOUS
10
8.42
20
-4.80213
11
8.42301
21
-4.80273
0
LINE
8
BLACK
6
CONTINUOUS
10
8.42301
20
-4.80273
11
8.42557
21
-4.80443
0
LINE
8
BLACK
6
CONTINUOUS
10
8.42557
20
-4.80443
11
8.42727
21
-4.80699
0
LINE
8
BLACK
6
CONTINUOUS
10
8.42727
20
-4.80699
11
8.42787
21
-4.81
0
LINE
8
BLACK
6
CONTINUOUS
10
8.42787
20
-4.81
11
8.42787
21
-4.87
0
LINE
8
BLACK
6
CONTINUOUS
10
8.42787
20
-4.87
11
8.42727
21
-4.87301
0
LINE
8
BLACK
6
CONTINUOUS
10
8.42727
20
-4.87301
11
8.42557
21
-4.87557
0
LINE
8
BLACK
6
CONTINUOUS
10
8.42557
20
-4.87557
11
8.42301
21
-4.87727
0
LINE
8
BLACK
6
CONTINUOUS
10
8.42301
20
-4.87727
11
8.42
21
-4.87787
0
LINE
8
BLACK
6
CONTINUOUS
10
8.42
20
-4.87787
11
8.36
21
-4.87787
0
LINE
8
BLACK
6
CONTINUOUS
10
8.36
20
-4.87787
11
8.35699
21
-4.87727
0
LINE
8
BLACK
6
CONTINUOUS
10
8.35699
20
-4.87727
11
8.35443
21
-4.87557
0
LINE
8
BLACK
6
CONTINUOUS
10
8.35443
20
-4.87557
11
8.35273
21
-4.87301
0
LINE
8
BLACK
6
CONTINUOUS
10
8.35273
20
-4.87301
11
8.35213
21
-4.87
0
LINE
8
BLACK
6
CONTINUOUS
10
8.35213
20
-4.87
11
8.35213
21
-4.81
0
LINE
8
BLACK
6
CONTINUOUS
10
8.45213
20
-4.81
11
8.45273
21
-4.80699
0
LINE
8
BLACK
6
CONTINUOUS
10
8.45273
20
-4.80699
11
8.45443
21
-4.80443
0
LINE
8
BLACK
6
CONTINUOUS
10
8.45443
20
-4.80443
11
8.45699
21
-4.80273
0
LINE
8
BLACK
6
CONTINUOUS
10
8.45699
20
-4.80273
11
8.46
21
-4.80213
0
LINE
8
BLACK
6
CONTINUOUS
10
8.46
20
-4.80213
11
8.52
21
-4.80213
0
LINE
8
BLACK
6
CONTINUOUS
10
8.52
20
-4.80213
11
8.52301
21
-4.80273
0
LINE
8
BLACK
6
CONTINUOUS
10
8.52301
20
-4.80273
11
8.52557
21
-4.80443
0
LINE
8
BLACK
6
CONTINUOUS
10
8.52557
20
-4.80443
11
8.52727
21
-4.80699
0
LINE
8
BLACK
6
CONTINUOUS
10
8.52727
20
-4.80699
11
8.52787
21
-4.81
0
LINE
8
BLACK
6
CONTINUOUS
10
8.52787
20
-4.81
11
8.52787
21
-4.87
0
LINE
8
BLACK
6
CONTINUOUS
10
8.52787
20
-4.87
11
8.52727
21
-4.87301
0
LINE
8
BLACK
6
CONTINUOUS
10
8.52727
20
-4.87301
11
8.52557
21
-4.87557
0
LINE
8
BLACK
6
CONTINUOUS
10
8.52557
20
-4.87557
11
8.52301
21
-4.87727
0
LINE
8
BLACK
6
CONTINUOUS
10
8.52301
20
-4.87727
11
8.52
21
-4.87787
0
LINE
8
BLACK
6
CONTINUOUS
10
8.52
20
-4.87787
11
8.46
21
-4.87787
0
LINE
8
BLACK
6
CONTINUOUS
10
8.46
20
-4.87787
11
8.45699
21
-4.87727
0
LINE
8
BLACK
6
CONTINUOUS
10
8.45699
20
-4.87727
11
8.45443
21
-4.87557
0
LINE
8
BLACK
6
CONTINUOUS
10
8.45443
20
-4.87557
11
8.45273
21
-4.87301
0
LINE
8
BLACK
6
CONTINUOUS
10
8.45273
20
-4.87301
11
8.45213
21
-4.87
0
LINE
8
BLACK
6
CONTINUOUS
10
8.45213
20
-4.87
11
8.45213
21
-4.81
0
LINE
8
BLACK
6
CONTINUOUS
10
7.98
20
-4.05213
11
7.98301
21
-4.05273
0
LINE
8
BLACK
6
CONTINUOUS
10
7.98301
20
-4.05273
11
7.98557
21
-4.05443
0
LINE
8
BLACK
6
CONTINUOUS
10
7.98557
20
-4.05443
11
7.98727
21
-4.05699
0
LINE
8
BLACK
6
CONTINUOUS
10
7.98727
20
-4.05699
11
7.98787
21
-4.06
0
LINE
8
BLACK
6
CONTINUOUS
10
7.98787
20
-4.06
11
7.98787
21
-4.12
0
LINE
8
BLACK
6
CONTINUOUS
10
7.98787
20
-4.12
11
7.98727
21
-4.12301
0
LINE
8
BLACK
6
CONTINUOUS
10
7.98727
20
-4.12301
11
7.98557
21
-4.12557
0
LINE
8
BLACK
6
CONTINUOUS
10
7.98557
20
-4.12557
11
7.98301
21
-4.12727
0
LINE
8
BLACK
6
CONTINUOUS
10
7.98301
20
-4.12727
11
7.98
21
-4.12787
0
LINE
8
BLACK
6
CONTINUOUS
10
7.98
20
-4.12787
11
7.92
21
-4.12787
0
LINE
8
BLACK
6
CONTINUOUS
10
7.92
20
-4.12787
11
7.91699
21
-4.12727
0
LINE
8
BLACK
6
CONTINUOUS
10
7.91699
20
-4.12727
11
7.91443
21
-4.12557
0
LINE
8
BLACK
6
CONTINUOUS
10
7.91443
20
-4.12557
11
7.91273
21
-4.12301
0
LINE
8
BLACK
6
CONTINUOUS
10
7.91273
20
-4.12301
11
7.91213
21
-4.12
0
LINE
8
BLACK
6
CONTINUOUS
10
7.91213
20
-4.12
11
7.91213
21
-4.06
0
LINE
8
BLACK
6
CONTINUOUS
10
7.91213
20
-4.06
11
7.91273
21
-4.05699
0
LINE
8
BLACK
6
CONTINUOUS
10
7.91273
20
-4.05699
11
7.91443
21
-4.05443
0
LINE
8
BLACK
6
CONTINUOUS
10
7.91443
20
-4.05443
11
7.91699
21
-4.05273
0
LINE
8
BLACK
6
CONTINUOUS
10
7.91699
20
-4.05273
11
7.92
21
-4.05213
0
LINE
8
BLACK
6
CONTINUOUS
10
7.92
20
-4.05213
11
7.98
21
-4.05213
0
LINE
8
BLACK
6
CONTINUOUS
10
7.98
20
-4.15213
11
7.98301
21
-4.15273
0
LINE
8
BLACK
6
CONTINUOUS
10
7.98301
20
-4.15273
11
7.98557
21
-4.15443
0
LINE
8
BLACK
6
CONTINUOUS
10
7.98557
20
-4.15443
11
7.98727
21
-4.15699
0
LINE
8
BLACK
6
CONTINUOUS
10
7.98727
20
-4.15699
11
7.98787
21
-4.16
0
LINE
8
BLACK
6
CONTINUOUS
10
7.98787
20
-4.16
11
7.98787
21
-4.22
0
LINE
8
BLACK
6
CONTINUOUS
10
7.98787
20
-4.22
11
7.98727
21
-4.22301
0
LINE
8
BLACK
6
CONTINUOUS
10
7.98727
20
-4.22301
11
7.98557
21
-4.22557
0
LINE
8
BLACK
6
CONTINUOUS
10
7.98557
20
-4.22557
11
7.98301
21
-4.22727
0
LINE
8
BLACK
6
CONTINUOUS
10
7.98301
20
-4.22727
11
7.98
21
-4.22787
0
LINE
8
BLACK
6
CONTINUOUS
10
7.98
20
-4.22787
11
7.92
21
-4.22787
0
LINE
8
BLACK
6
CONTINUOUS
10
7.92
20
-4.22787
11
7.91699
21
-4.22727
0
LINE
8
BLACK
6
CONTINUOUS
10
7.91699
20
-4.22727
11
7.91443
21
-4.22557
0
LINE
8
BLACK
6
CONTINUOUS
10
7.91443
20
-4.22557
11
7.91273
21
-4.22301
0
LINE
8
BLACK
6
CONTINUOUS
10
7.91273
20
-4.22301
11
7.91213
21
-4.22
0
LINE
8
BLACK
6
CONTINUOUS
10
7.91213
20
-4.22
11
7.91213
21
-4.16
0
LINE
8
BLACK
6
CONTINUOUS
10
7.91213
20
-4.16
11
7.91273
21
-4.15699
0
LINE
8
BLACK
6
CONTINUOUS
10
7.91273
20
-4.15699
11
7.91443
21
-4.15443
0
LINE
8
BLACK
6
CONTINUOUS
10
7.91443
20
-4.15443
11
7.91699
21
-4.15273
0
LINE
8
BLACK
6
CONTINUOUS
10
7.91699
20
-4.15273
11
7.92
21
-4.15213
0
LINE
8
BLACK
6
CONTINUOUS
10
7.92
20
-4.15213
11
7.98
21
-4.15213
0
LINE
8
BLACK
6
CONTINUOUS
10
8.35213
20
-4.91
11
8.35273
21
-4.90699
0
LINE
8
BLACK
6
CONTINUOUS
10
8.35273
20
-4.90699
11
8.35443
21
-4.90443
0
LINE
8
BLACK
6
CONTINUOUS
10
8.35443
20
-4.90443
11
8.35699
21
-4.90273
0
LINE
8
BLACK
6
CONTINUOUS
10
8.35699
20
-4.90273
11
8.36
21
-4.90213
0
LINE
8
BLACK
6
CONTINUOUS
10
8.36
20
-4.90213
11
8.42
21
-4.90213
0
LINE
8
BLACK
6
CONTINUOUS
10
8.42
20
-4.90213
11
8.42301
21
-4.90273
0
LINE
8
BLACK
6
CONTINUOUS
10
8.42301
20
-4.90273
11
8.42557
21
-4.90443
0
LINE
8
BLACK
6
CONTINUOUS
10
8.42557
20
-4.90443
11
8.42727
21
-4.90699
0
LINE
8
BLACK
6
CONTINUOUS
10
8.42727
20
-4.90699
11
8.42787
21
-4.91
0
LINE
8
BLACK
6
CONTINUOUS
10
8.42787
20
-4.91
11
8.42787
21
-4.97
0
LINE
8
BLACK
6
CONTINUOUS
10
8.42787
20
-4.97
11
8.42727
21
-4.97301
0
LINE
8
BLACK
6
CONTINUOUS
10
8.42727
20
-4.97301
11
8.42557
21
-4.97557
0
LINE
8
BLACK
6
CONTINUOUS
10
8.42557
20
-4.97557
11
8.42301
21
-4.97727
0
LINE
8
BLACK
6
CONTINUOUS
10
8.42301
20
-4.97727
11
8.42
21
-4.97787
0
LINE
8
BLACK
6
CONTINUOUS
10
8.42
20
-4.97787
11
8.36
21
-4.97787
0
LINE
8
BLACK
6
CONTINUOUS
10
8.36
20
-4.97787
11
8.35699
21
-4.97727
0
LINE
8
BLACK
6
CONTINUOUS
10
8.35699
20
-4.97727
11
8.35443
21
-4.97557
0
LINE
8
BLACK
6
CONTINUOUS
10
8.35443
20
-4.97557
11
8.35273
21
-4.97301
0
LINE
8
BLACK
6
CONTINUOUS
10
8.35273
20
-4.97301
11
8.35213
21
-4.97
0
LINE
8
BLACK
6
CONTINUOUS
10
8.35213
20
-4.97
11
8.35213
21
-4.91
0
LINE
8
BLACK
6
CONTINUOUS
10
8.45213
20
-4.91
11
8.45273
21
-4.90699
0
LINE
8
BLACK
6
CONTINUOUS
10
8.45273
20
-4.90699
11
8.45443
21
-4.90443
0
LINE
8
BLACK
6
CONTINUOUS
10
8.45443
20
-4.90443
11
8.45699
21
-4.90273
0
LINE
8
BLACK
6
CONTINUOUS
10
8.45699
20
-4.90273
11
8.46
21
-4.90213
0
LINE
8
BLACK
6
CONTINUOUS
10
8.46
20
-4.90213
11
8.52
21
-4.90213
0
LINE
8
BLACK
6
CONTINUOUS
10
8.52
20
-4.90213
11
8.52301
21
-4.90273
0
LINE
8
BLACK
6
CONTINUOUS
10
8.52301
20
-4.90273
11
8.52557
21
-4.90443
0
LINE
8
BLACK
6
CONTINUOUS
10
8.52557
20
-4.90443
11
8.52727
21
-4.90699
0
LINE
8
BLACK
6
CONTINUOUS
10
8.52727
20
-4.90699
11
8.52787
21
-4.91
0
LINE
8
BLACK
6
CONTINUOUS
10
8.52787
20
-4.91
11
8.52787
21
-4.97
0
LINE
8
BLACK
6
CONTINUOUS
10
8.52787
20
-4.97
11
8.52727
21
-4.97301
0
LINE
8
BLACK
6
CONTINUOUS
10
8.52727
20
-4.97301
11
8.52557
21
-4.97557
0
LINE
8
BLACK
6
CONTINUOUS
10
8.52557
20
-4.97557
11
8.52301
21
-4.97727
0
LINE
8
BLACK
6
CONTINUOUS
10
8.52301
20
-4.97727
11
8.52
21
-4.97787
0
LINE
8
BLACK
6
CONTINUOUS
10
8.52
20
-4.97787
11
8.46
21
-4.97787
0
LINE
8
BLACK
6
CONTINUOUS
10
8.46
20
-4.97787
11
8.45699
21
-4.97727
0
LINE
8
BLACK
6
CONTINUOUS
10
8.45699
20
-4.97727
11
8.45443
21
-4.97557
0
LINE
8
BLACK
6
CONTINUOUS
10
8.45443
20
-4.97557
11
8.45273
21
-4.97301
0
LINE
8
BLACK
6
CONTINUOUS
10
8.45273
20
-4.97301
11
8.45213
21
-4.97
0
LINE
8
BLACK
6
CONTINUOUS
10
8.45213
20
-4.97
11
8.45213
21
-4.91
0
LINE
8
BLACK
6
CONTINUOUS
10
8.35213
20
-5.01
11
8.35273
21
-5.00699
0
LINE
8
BLACK
6
CONTINUOUS
10
8.35273
20
-5.00699
11
8.35443
21
-5.00443
0
LINE
8
BLACK
6
CONTINUOUS
10
8.35443
20
-5.00443
11
8.35699
21
-5.00273
0
LINE
8
BLACK
6
CONTINUOUS
10
8.35699
20
-5.00273
11
8.36
21
-5.00213
0
LINE
8
BLACK
6
CONTINUOUS
10
8.36
20
-5.00213
11
8.42
21
-5.00213
0
LINE
8
BLACK
6
CONTINUOUS
10
8.42
20
-5.00213
11
8.42301
21
-5.00273
0
LINE
8
BLACK
6
CONTINUOUS
10
8.42301
20
-5.00273
11
8.42557
21
-5.00443
0
LINE
8
BLACK
6
CONTINUOUS
10
8.42557
20
-5.00443
11
8.42727
21
-5.00699
0
LINE
8
BLACK
6
CONTINUOUS
10
8.42727
20
-5.00699
11
8.42787
21
-5.01
0
LINE
8
BLACK
6
CONTINUOUS
10
8.42787
20
-5.01
11
8.42787
21
-5.07
0
LINE
8
BLACK
6
CONTINUOUS
10
8.42787
20
-5.07
11
8.42727
21
-5.07301
0
LINE
8
BLACK
6
CONTINUOUS
10
8.42727
20
-5.07301
11
8.42557
21
-5.07557
0
LINE
8
BLACK
6
CONTINUOUS
10
8.42557
20
-5.07557
11
8.42301
21
-5.07727
0
LINE
8
BLACK
6
CONTINUOUS
10
8.42301
20
-5.07727
11
8.42
21
-5.07787
0
LINE
8
BLACK
6
CONTINUOUS
10
8.42
20
-5.07787
11
8.36
21
-5.07787
0
LINE
8
BLACK
6
CONTINUOUS
10
8.36
20
-5.07787
11
8.35699
21
-5.07727
0
LINE
8
BLACK
6
CONTINUOUS
10
8.35699
20
-5.07727
11
8.35443
21
-5.07557
0
LINE
8
BLACK
6
CONTINUOUS
10
8.35443
20
-5.07557
11
8.35273
21
-5.07301
0
LINE
8
BLACK
6
CONTINUOUS
10
8.35273
20
-5.07301
11
8.35213
21
-5.07
0
LINE
8
BLACK
6
CONTINUOUS
10
8.35213
20
-5.07
11
8.35213
21
-5.01
0
LINE
8
BLACK
6
CONTINUOUS
10
8.45213
20
-5.01
11
8.45273
21
-5.00699
0
LINE
8
BLACK
6
CONTINUOUS
10
8.45273
20
-5.00699
11
8.45443
21
-5.00443
0
LINE
8
BLACK
6
CONTINUOUS
10
8.45443
20
-5.00443
11
8.45699
21
-5.00273
0
LINE
8
BLACK
6
CONTINUOUS
10
8.45699
20
-5.00273
11
8.46
21
-5.00213
0
LINE
8
BLACK
6
CONTINUOUS
10
8.46
20
-5.00213
11
8.52
21
-5.00213
0
LINE
8
BLACK
6
CONTINUOUS
10
8.52
20
-5.00213
11
8.52301
21
-5.00273
0
LINE
8
BLACK
6
CONTINUOUS
10
8.52301
20
-5.00273
11
8.52557
21
-5.00443
0
LINE
8
BLACK
6
CONTINUOUS
10
8.52557
20
-5.00443
11
8.52727
21
-5.00699
0
LINE
8
BLACK
6
CONTINUOUS
10
8.52727
20
-5.00699
11
8.52787
21
-5.01
0
LINE
8
BLACK
6
CONTINUOUS
10
8.52787
20
-5.01
11
8.52787
21
-5.07
0
LINE
8
BLACK
6
CONTINUOUS
10
8.52787
20
-5.07
11
8.52727
21
-5.07301
0
LINE
8
BLACK
6
CONTINUOUS
10
8.52727
20
-5.07301
11
8.52557
21
-5.07557
0
LINE
8
BLACK
6
CONTINUOUS
10
8.52557
20
-5.07557
11
8.52301
21
-5.07727
0
LINE
8
BLACK
6
CONTINUOUS
10
8.52301
20
-5.07727
11
8.52
21
-5.07787
0
LINE
8
BLACK
6
CONTINUOUS
10
8.52
20
-5.07787
11
8.46
21
-5.07787
0
LINE
8
BLACK
6
CONTINUOUS
10
8.46
20
-5.07787
11
8.45699
21
-5.07727
0
LINE
8
BLACK
6
CONTINUOUS
10
8.45699
20
-5.07727
11
8.45443
21
-5.07557
0
LINE
8
BLACK
6
CONTINUOUS
10
8.45443
20
-5.07557
11
8.45273
21
-5.07301
0
LINE
8
BLACK
6
CONTINUOUS
10
8.45273
20
-5.07301
11
8.45213
21
-5.07
0
LINE
8
BLACK
6
CONTINUOUS
10
8.45213
20
-5.07
11
8.45213
21
-5.01
0
LINE
8
BLACK
6
CONTINUOUS
10
7.78
20
-5.35213
11
7.78301
21
-5.35273
0
LINE
8
BLACK
6
CONTINUOUS
10
7.78301
20
-5.35273
11
7.78557
21
-5.35443
0
LINE
8
BLACK
6
CONTINUOUS
10
7.78557
20
-5.35443
11
7.78727
21
-5.35699
0
LINE
8
BLACK
6
CONTINUOUS
10
7.78727
20
-5.35699
11
7.78787
21
-5.36
0
LINE
8
BLACK
6
CONTINUOUS
10
7.78787
20
-5.36
11
7.78787
21
-5.42
0
LINE
8
BLACK
6
CONTINUOUS
10
7.78787
20
-5.42
11
7.78727
21
-5.42301
0
LINE
8
BLACK
6
CONTINUOUS
10
7.78727
20
-5.42301
11
7.78557
21
-5.42557
0
LINE
8
BLACK
6
CONTINUOUS
10
7.78557
20
-5.42557
11
7.78301
21
-5.42727
0
LINE
8
BLACK
6
CONTINUOUS
10
7.78301
20
-5.42727
11
7.78
21
-5.42787
0
LINE
8
BLACK
6
CONTINUOUS
10
7.78
20
-5.42787
11
7.72
21
-5.42787
0
LINE
8
BLACK
6
CONTINUOUS
10
7.72
20
-5.42787
11
7.71699
21
-5.42727
0
LINE
8
BLACK
6
CONTINUOUS
10
7.71699
20
-5.42727
11
7.71443
21
-5.42557
0
LINE
8
BLACK
6
CONTINUOUS
10
7.71443
20
-5.42557
11
7.71273
21
-5.42301
0
LINE
8
BLACK
6
CONTINUOUS
10
7.71273
20
-5.42301
11
7.71213
21
-5.42
0
LINE
8
BLACK
6
CONTINUOUS
10
7.71213
20
-5.42
11
7.71213
21
-5.36
0
LINE
8
BLACK
6
CONTINUOUS
10
7.71213
20
-5.36
11
7.71273
21
-5.35699
0
LINE
8
BLACK
6
CONTINUOUS
10
7.71273
20
-5.35699
11
7.71443
21
-5.35443
0
LINE
8
BLACK
6
CONTINUOUS
10
7.71443
20
-5.35443
11
7.71699
21
-5.35273
0
LINE
8
BLACK
6
CONTINUOUS
10
7.71699
20
-5.35273
11
7.72
21
-5.35213
0
LINE
8
BLACK
6
CONTINUOUS
10
7.72
20
-5.35213
11
7.78
21
-5.35213
0
LINE
8
BLACK
6
CONTINUOUS
10
7.78
20
-5.45213
11
7.78301
21
-5.45273
0
LINE
8
BLACK
6
CONTINUOUS
10
7.78301
20
-5.45273
11
7.78557
21
-5.45443
0
LINE
8
BLACK
6
CONTINUOUS
10
7.78557
20
-5.45443
11
7.78727
21
-5.45699
0
LINE
8
BLACK
6
CONTINUOUS
10
7.78727
20
-5.45699
11
7.78787
21
-5.46
0
LINE
8
BLACK
6
CONTINUOUS
10
7.78787
20
-5.46
11
7.78787
21
-5.52
0
LINE
8
BLACK
6
CONTINUOUS
10
7.78787
20
-5.52
11
7.78727
21
-5.52301
0
LINE
8
BLACK
6
CONTINUOUS
10
7.78727
20
-5.52301
11
7.78557
21
-5.52557
0
LINE
8
BLACK
6
CONTINUOUS
10
7.78557
20
-5.52557
11
7.78301
21
-5.52727
0
LINE
8
BLACK
6
CONTINUOUS
10
7.78301
20
-5.52727
11
7.78
21
-5.52787
0
LINE
8
BLACK
6
CONTINUOUS
10
7.78
20
-5.52787
11
7.72
21
-5.52787
0
LINE
8
BLACK
6
CONTINUOUS
10
7.72
20
-5.52787
11
7.71699
21
-5.52727
0
LINE
8
BLACK
6
CONTINUOUS
10
7.71699
20
-5.52727
11
7.71443
21
-5.52557
0
LINE
8
BLACK
6
CONTINUOUS
10
7.71443
20
-5.52557
11
7.71273
21
-5.52301
0
LINE
8
BLACK
6
CONTINUOUS
10
7.71273
20
-5.52301
11
7.71213
21
-5.52
0
LINE
8
BLACK
6
CONTINUOUS
10
7.71213
20
-5.52
11
7.71213
21
-5.46
0
LINE
8
BLACK
6
CONTINUOUS
10
7.71213
20
-5.46
11
7.71273
21
-5.45699
0
LINE
8
BLACK
6
CONTINUOUS
10
7.71273
20
-5.45699
11
7.71443
21
-5.45443
0
LINE
8
BLACK
6
CONTINUOUS
10
7.71443
20
-5.45443
11
7.71699
21
-5.45273
0
LINE
8
BLACK
6
CONTINUOUS
10
7.71699
20
-5.45273
11
7.72
21
-5.45213
0
LINE
8
BLACK
6
CONTINUOUS
10
7.72
20
-5.45213
11
7.78
21
-5.45213
0
CIRCLE
8
BLACK
10
8.39
20
-4.19
40
0.125984
0
CIRCLE
8
BLACK
10
8.39
20
-5.39
40
0.125984
0
LINE
8
BLACK
6
CONTINUOUS
10
6.86
20
-4.81787
11
6.85699
21
-4.81727
0
LINE
8
BLACK
6
CONTINUOUS
10
6.85699
20
-4.81727
11
6.85443
21
-4.81557
0
LINE
8
BLACK
6
CONTINUOUS
10
6.85443
20
-4.81557
11
6.85273
21
-4.81301
0
LINE
8
BLACK
6
CONTINUOUS
10
6.85273
20
-4.81301
11
6.85213
21
-4.81
0
LINE
8
BLACK
6
CONTINUOUS
10
6.85213
20
-4.81
11
6.85213
21
-4.75
0
LINE
8
BLACK
6
CONTINUOUS
10
6.85213
20
-4.75
11
6.85273
21
-4.74699
0
LINE
8
BLACK
6
CONTINUOUS
10
6.85273
20
-4.74699
11
6.85443
21
-4.74443
0
LINE
8
BLACK
6
CONTINUOUS
10
6.85443
20
-4.74443
11
6.85699
21
-4.74273
0
LINE
8
BLACK
6
CONTINUOUS
10
6.85699
20
-4.74273
11
6.86
21
-4.74213
0
LINE
8
BLACK
6
CONTINUOUS
10
6.86
20
-4.74213
11
6.92
21
-4.74213
0
LINE
8
BLACK
6
CONTINUOUS
10
6.92
20
-4.74213
11
6.92301
21
-4.74273
0
LINE
8
BLACK
6
CONTINUOUS
10
6.92301
20
-4.74273
11
6.92557
21
-4.74443
0
LINE
8
BLACK
6
CONTINUOUS
10
6.92557
20
-4.74443
11
6.92727
21
-4.74699
0
LINE
8
BLACK
6
CONTINUOUS
10
6.92727
20
-4.74699
11
6.92787
21
-4.75
0
LINE
8
BLACK
6
CONTINUOUS
10
6.92787
20
-4.75
11
6.92787
21
-4.81
0
LINE
8
BLACK
6
CONTINUOUS
10
6.92787
20
-4.81
11
6.92727
21
-4.81301
0
LINE
8
BLACK
6
CONTINUOUS
10
6.92727
20
-4.81301
11
6.92557
21
-4.81557
0
LINE
8
BLACK
6
CONTINUOUS
10
6.92557
20
-4.81557
11
6.92301
21
-4.81727
0
LINE
8
BLACK
6
CONTINUOUS
10
6.92301
20
-4.81727
11
6.92
21
-4.81787
0
LINE
8
BLACK
6
CONTINUOUS
10
6.92
20
-4.81787
11
6.86
21
-4.81787
0
LINE
8
BLACK
6
CONTINUOUS
10
6.86
20
-4.71787
11
6.85699
21
-4.71727
0
LINE
8
BLACK
6
CONTINUOUS
10
6.85699
20
-4.71727
11
6.85443
21
-4.71557
0
LINE
8
BLACK
6
CONTINUOUS
10
6.85443
20
-4.71557
11
6.85273
21
-4.71301
0
LINE
8
BLACK
6
CONTINUOUS
10
6.85273
20
-4.71301
11
6.85213
21
-4.71
0
LINE
8
BLACK
6
CONTINUOUS
10
6.85213
20
-4.71
11
6.85213
21
-4.65
0
LINE
8
BLACK
6
CONTINUOUS
10
6.85213
20
-4.65
11
6.85273
21
-4.64699
0
LINE
8
BLACK
6
CONTINUOUS
10
6.85273
20
-4.64699
11
6.85443
21
-4.64443
0
LINE
8
BLACK
6
CONTINUOUS
10
6.85443
20
-4.64443
11
6.85699
21
-4.64273
0
LINE
8
BLACK
6
CONTINUOUS
10
6.85699
20
-4.64273
11
6.86
21
-4.64213
0
LINE
8
BLACK
6
CONTINUOUS
10
6.86
20
-4.64213
11
6.92
21
-4.64213
0
LINE
8
BLACK
6
CONTINUOUS
10
6.92
20
-4.64213
11
6.92301
21
-4.64273
0
LINE
8
BLACK
6
CONTINUOUS
10
6.92301
20
-4.64273
11
6.92557
21
-4.64443
0
LINE
8
BLACK
6
CONTINUOUS
10
6.92557
20
-4.64443
11
6.92727
21
-4.64699
0
LINE
8
BLACK
6
CONTINUOUS
10
6.92727
20
-4.64699
11
6.92787
21
-4.65
0
LINE
8
BLACK
6
CONTINUOUS
10
6.92787
20
-4.65
11
6.92787
21
-4.71
0
LINE
8
BLACK
6
CONTINUOUS
10
6.92787
20
-4.71
11
6.92727
21
-4.71301
0
LINE
8
BLACK
6
CONTINUOUS
10
6.92727
20
-4.71301
11
6.92557
21
-4.71557
0
LINE
8
BLACK
6
CONTINUOUS
10
6.92557
20
-4.71557
11
6.92301
21
-4.71727
0
LINE
8
BLACK
6
CONTINUOUS
10
6.92301
20
-4.71727
11
6.92
21
-4.71787
0
LINE
8
BLACK
6
CONTINUOUS
10
6.92
20
-4.71787
11
6.86
21
-4.71787
0
LINE
8
BLACK
6
CONTINUOUS
10
8.18
20
-5.35213
11
8.18301
21
-5.35273
0
LINE
8
BLACK
6
CONTINUOUS
10
8.18301
20
-5.35273
11
8.18557
21
-5.35443
0
LINE
8
BLACK
6
CONTINUOUS
10
8.18557
20
-5.35443
11
8.18727
21
-5.35699
0
LINE
8
BLACK
6
CONTINUOUS
10
8.18727
20
-5.35699
11
8.18787
21
-5.36
0
LINE
8
BLACK
6
CONTINUOUS
10
8.18787
20
-5.36
11
8.18787
21
-5.42
0
LINE
8
BLACK
6
CONTINUOUS
10
8.18787
20
-5.42
11
8.18727
21
-5.42301
0
LINE
8
BLACK
6
CONTINUOUS
10
8.18727
20
-5.42301
11
8.18557
21
-5.42557
0
LINE
8
BLACK
6
CONTINUOUS
10
8.18557
20
-5.42557
11
8.18301
21
-5.42727
0
LINE
8
BLACK
6
CONTINUOUS
10
8.18301
20
-5.42727
11
8.18
21
-5.42787
0
LINE
8
BLACK
6
CONTINUOUS
10
8.18
20
-5.42787
11
8.12
21
-5.42787
0
LINE
8
BLACK
6
CONTINUOUS
10
8.12
20
-5.42787
11
8.11699
21
-5.42727
0
LINE
8
BLACK
6
CONTINUOUS
10
8.11699
20
-5.42727
11
8.11443
21
-5.42557
0
LINE
8
BLACK
6
CONTINUOUS
10
8.11443
20
-5.42557
11
8.11273
21
-5.42301
0
LINE
8
BLACK
6
CONTINUOUS
10
8.11273
20
-5.42301
11
8.11213
21
-5.42
0
LINE
8
BLACK
6
CONTINUOUS
10
8.11213
20
-5.42
11
8.11213
21
-5.36
0
LINE
8
BLACK
6
CONTINUOUS
10
8.11213
20
-5.36
11
8.11273
21
-5.35699
0
LINE
8
BLACK
6
CONTINUOUS
10
8.11273
20
-5.35699
11
8.11443
21
-5.35443
0
LINE
8
BLACK
6
CONTINUOUS
10
8.11443
20
-5.35443
11
8.11699
21
-5.35273
0
LINE
8
BLACK
6
CONTINUOUS
10
8.11699
20
-5.35273
11
8.12
21
-5.35213
0
LINE
8
BLACK
6
CONTINUOUS
10
8.12
20
-5.35213
11
8.18
21
-5.35213
0
LINE
8
BLACK
6
CONTINUOUS
10
8.18
20
-5.45213
11
8.18301
21
-5.45273
0
LINE
8
BLACK
6
CONTINUOUS
10
8.18301
20
-5.45273
11
8.18557
21
-5.45443
0
LINE
8
BLACK
6
CONTINUOUS
10
8.18557
20
-5.45443
11
8.18727
21
-5.45699
0
LINE
8
BLACK
6
CONTINUOUS
10
8.18727
20
-5.45699
11
8.18787
21
-5.46
0
LINE
8
BLACK
6
CONTINUOUS
10
8.18787
20
-5.46
11
8.18787
21
-5.52
0
LINE
8
BLACK
6
CONTINUOUS
10
8.18787
20
-5.52
11
8.18727
21
-5.52301
0
LINE
8
BLACK
6
CONTINUOUS
10
8.18727
20
-5.52301
11
8.18557
21
-5.52557
0
LINE
8
BLACK
6
CONTINUOUS
10
8.18557
20
-5.52557
11
8.18301
21
-5.52727
0
LINE
8
BLACK
6
CONTINUOUS
10
8.18301
20
-5.52727
11
8.18
21
-5.52787
0
LINE
8
BLACK
6
CONTINUOUS
10
8.18
20
-5.52787
11
8.12
21
-5.52787
0
LINE
8
BLACK
6
CONTINUOUS
10
8.12
20
-5.52787
11
8.11699
21
-5.52727
0
LINE
8
BLACK
6
CONTINUOUS
10
8.11699
20
-5.52727
11
8.11443
21
-5.52557
0
LINE
8
BLACK
6
CONTINUOUS
10
8.11443
20
-5.52557
11
8.11273
21
-5.52301
0
LINE
8
BLACK
6
CONTINUOUS
10
8.11273
20
-5.52301
11
8.11213
21
-5.52
0
LINE
8
BLACK
6
CONTINUOUS
10
8.11213
20
-5.52
11
8.11213
21
-5.46
0
LINE
8
BLACK
6
CONTINUOUS
10
8.11213
20
-5.46
11
8.11273
21
-5.45699
0
LINE
8
BLACK
6
CONTINUOUS
10
8.11273
20
-5.45699
11
8.11443
21
-5.45443
0
LINE
8
BLACK
6
CONTINUOUS
10
8.11443
20
-5.45443
11
8.11699
21
-5.45273
0
LINE
8
BLACK
6
CONTINUOUS
10
8.11699
20
-5.45273
11
8.12
21
-5.45213
0
LINE
8
BLACK
6
CONTINUOUS
10
8.12
20
-5.45213
11
8.18
21
-5.45213
0
LINE
8
BLACK
6
CONTINUOUS
10
8.35213
20
-5.11
11
8.35273
21
-5.10699
0
LINE
8
BLACK
6
CONTINUOUS
10
8.35273
20
-5.10699
11
8.35443
21
-5.10443
0
LINE
8
BLACK
6
CONTINUOUS
10
8.35443
20
-5.10443
11
8.35699
21
-5.10273
0
LINE
8
BLACK
6
CONTINUOUS
10
8.35699
20
-5.10273
11
8.36
21
-5.10213
0
LINE
8
BLACK
6
CONTINUOUS
10
8.36
20
-5.10213
11
8.42
21
-5.10213
0
LINE
8
BLACK
6
CONTINUOUS
10
8.42
20
-5.10213
11
8.42301
21
-5.10273
0
LINE
8
BLACK
6
CONTINUOUS
10
8.42301
20
-5.10273
11
8.42557
21
-5.10443
0
LINE
8
BLACK
6
CONTINUOUS
10
8.42557
20
-5.10443
11
8.42727
21
-5.10699
0
LINE
8
BLACK
6
CONTINUOUS
10
8.42727
20
-5.10699
11
8.42787
21
-5.11
0
LINE
8
BLACK
6
CONTINUOUS
10
8.42787
20
-5.11
11
8.42787
21
-5.17
0
LINE
8
BLACK
6
CONTINUOUS
10
8.42787
20
-5.17
11
8.42727
21
-5.17301
0
LINE
8
BLACK
6
CONTINUOUS
10
8.42727
20
-5.17301
11
8.42557
21
-5.17557
0
LINE
8
BLACK
6
CONTINUOUS
10
8.42557
20
-5.17557
11
8.42301
21
-5.17727
0
LINE
8
BLACK
6
CONTINUOUS
10
8.42301
20
-5.17727
11
8.42
21
-5.17787
0
LINE
8
BLACK
6
CONTINUOUS
10
8.42
20
-5.17787
11
8.36
21
-5.17787
0
LINE
8
BLACK
6
CONTINUOUS
10
8.36
20
-5.17787
11
8.35699
21
-5.17727
0
LINE
8
BLACK
6
CONTINUOUS
10
8.35699
20
-5.17727
11
8.35443
21
-5.17557
0
LINE
8
BLACK
6
CONTINUOUS
10
8.35443
20
-5.17557
11
8.35273
21
-5.17301
0
LINE
8
BLACK
6
CONTINUOUS
10
8.35273
20
-5.17301
11
8.35213
21
-5.17
0
LINE
8
BLACK
6
CONTINUOUS
10
8.35213
20
-5.17
11
8.35213
21
-5.11
0
LINE
8
BLACK
6
CONTINUOUS
10
8.45213
20
-5.11
11
8.45273
21
-5.10699
0
LINE
8
BLACK
6
CONTINUOUS
10
8.45273
20
-5.10699
11
8.45443
21
-5.10443
0
LINE
8
BLACK
6
CONTINUOUS
10
8.45443
20
-5.10443
11
8.45699
21
-5.10273
0
LINE
8
BLACK
6
CONTINUOUS
10
8.45699
20
-5.10273
11
8.46
21
-5.10213
0
LINE
8
BLACK
6
CONTINUOUS
10
8.46
20
-5.10213
11
8.52
21
-5.10213
0
LINE
8
BLACK
6
CONTINUOUS
10
8.52
20
-5.10213
11
8.52301
21
-5.10273
0
LINE
8
BLACK
6
CONTINUOUS
10
8.52301
20
-5.10273
11
8.52557
21
-5.10443
0
LINE
8
BLACK
6
CONTINUOUS
10
8.52557
20
-5.10443
11
8.52727
21
-5.10699
0
LINE
8
BLACK
6
CONTINUOUS
10
8.52727
20
-5.10699
11
8.52787
21
-5.11
0
LINE
8
BLACK
6
CONTINUOUS
10
8.52787
20
-5.11
11
8.52787
21
-5.17
0
LINE
8
BLACK
6
CONTINUOUS
10
8.52787
20
-5.17
11
8.52727
21
-5.17301
0
LINE
8
BLACK
6
CONTINUOUS
10
8.52727
20
-5.17301
11
8.52557
21
-5.17557
0
LINE
8
BLACK
6
CONTINUOUS
10
8.52557
20
-5.17557
11
8.52301
21
-5.17727
0
LINE
8
BLACK
6
CONTINUOUS
10
8.52301
20
-5.17727
11
8.52
21
-5.17787
0
LINE
8
BLACK
6
CONTINUOUS
10
8.52
20
-5.17787
11
8.46
21
-5.17787
0
LINE
8
BLACK
6
CONTINUOUS
10
8.46
20
-5.17787
11
8.45699
21
-5.17727
0
LINE
8
BLACK
6
CONTINUOUS
10
8.45699
20
-5.17727
11
8.45443
21
-5.17557
0
LINE
8
BLACK
6
CONTINUOUS
10
8.45443
20
-5.17557
11
8.45273
21
-5.17301
0
LINE
8
BLACK
6
CONTINUOUS
10
8.45273
20
-5.17301
11
8.45213
21
-5.17
0
LINE
8
BLACK
6
CONTINUOUS
10
8.45213
20
-5.17
11
8.45213
21
-5.11
0
LINE
8
BLACK
6
CONTINUOUS
10
7.07213
20
-5.01
11
7.07273
21
-5.00699
0
LINE
8
BLACK
6
CONTINUOUS
10
7.07273
20
-5.00699
11
7.07443
21
-5.00443
0
LINE
8
BLACK
6
CONTINUOUS
10
7.07443
20
-5.00443
11
7.07699
21
-5.00273
0
LINE
8
BLACK
6
CONTINUOUS
10
7.07699
20
-5.00273
11
7.08
21
-5.00213
0
LINE
8
BLACK
6
CONTINUOUS
10
7.08
20
-5.00213
11
7.14
21
-5.00213
0
LINE
8
BLACK
6
CONTINUOUS
10
7.14
20
-5.00213
11
7.14301
21
-5.00273
0
LINE
8
BLACK
6
CONTINUOUS
10
7.14301
20
-5.00273
11
7.14557
21
-5.00443
0
LINE
8
BLACK
6
CONTINUOUS
10
7.14557
20
-5.00443
11
7.14727
21
-5.00699
0
LINE
8
BLACK
6
CONTINUOUS
10
7.14727
20
-5.00699
11
7.14787
21
-5.01
0
LINE
8
BLACK
6
CONTINUOUS
10
7.14787
20
-5.01
11
7.14787
21
-5.07
0
LINE
8
BLACK
6
CONTINUOUS
10
7.14787
20
-5.07
11
7.14727
21
-5.07301
0
LINE
8
BLACK
6
CONTINUOUS
10
7.14727
20
-5.07301
11
7.14557
21
-5.07557
0
LINE
8
BLACK
6
CONTINUOUS
10
7.14557
20
-5.07557
11
7.14301
21
-5.07727
0
LINE
8
BLACK
6
CONTINUOUS
10
7.14301
20
-5.07727
11
7.14
21
-5.07787
0
LINE
8
BLACK
6
CONTINUOUS
10
7.14
20
-5.07787
11
7.08
21
-5.07787
0
LINE
8
BLACK
6
CONTINUOUS
10
7.08
20
-5.07787
11
7.07699
21
-5.07727
0
LINE
8
BLACK
6
CONTINUOUS
10
7.07699
20
-5.07727
11
7.07443
21
-5.07557
0
LINE
8
BLACK
6
CONTINUOUS
10
7.07443
20
-5.07557
11
7.07273
21
-5.07301
0
LINE
8
BLACK
6
CONTINUOUS
10
7.07273
20
-5.07301
11
7.07213
21
-5.07
0
LINE
8
BLACK
6
CONTINUOUS
10
7.07213
20
-5.07
11
7.07213
21
-5.01
0
LINE
8
BLACK
6
CONTINUOUS
10
7.17213
20
-5.01
11
7.17273
21
-5.00699
0
LINE
8
BLACK
6
CONTINUOUS
10
7.17273
20
-5.00699
11
7.17443
21
-5.00443
0
LINE
8
BLACK
6
CONTINUOUS
10
7.17443
20
-5.00443
11
7.17699
21
-5.00273
0
LINE
8
BLACK
6
CONTINUOUS
10
7.17699
20
-5.00273
11
7.18
21
-5.00213
0
LINE
8
BLACK
6
CONTINUOUS
10
7.18
20
-5.00213
11
7.24
21
-5.00213
0
LINE
8
BLACK
6
CONTINUOUS
10
7.24
20
-5.00213
11
7.24301
21
-5.00273
0
LINE
8
BLACK
6
CONTINUOUS
10
7.24301
20
-5.00273
11
7.24557
21
-5.00443
0
LINE
8
BLACK
6
CONTINUOUS
10
7.24557
20
-5.00443
11
7.24727
21
-5.00699
0
LINE
8
BLACK
6
CONTINUOUS
10
7.24727
20
-5.00699
11
7.24787
21
-5.01
0
LINE
8
BLACK
6
CONTINUOUS
10
7.24787
20
-5.01
11
7.24787
21
-5.07
0
LINE
8
BLACK
6
CONTINUOUS
10
7.24787
20
-5.07
11
7.24727
21
-5.07301
0
LINE
8
BLACK
6
CONTINUOUS
10
7.24727
20
-5.07301
11
7.24557
21
-5.07557
0
LINE
8
BLACK
6
CONTINUOUS
10
7.24557
20
-5.07557
11
7.24301
21
-5.07727
0
LINE
8
BLACK
6
CONTINUOUS
10
7.24301
20
-5.07727
11
7.24
21
-5.07787
0
LINE
8
BLACK
6
CONTINUOUS
10
7.24
20
-5.07787
11
7.18
21
-5.07787
0
LINE
8
BLACK
6
CONTINUOUS
10
7.18
20
-5.07787
11
7.17699
21
-5.07727
0
LINE
8
BLACK
6
CONTINUOUS
10
7.17699
20
-5.07727
11
7.17443
21
-5.07557
0
LINE
8
BLACK
6
CONTINUOUS
10
7.17443
20
-5.07557
11
7.17273
21
-5.07301
0
LINE
8
BLACK
6
CONTINUOUS
10
7.17273
20
-5.07301
11
7.17213
21
-5.07
0
LINE
8
BLACK
6
CONTINUOUS
10
7.17213
20
-5.07
11
7.17213
21
-5.01
0
LINE
8
BLACK
6
CONTINUOUS
10
7.48
20
-5.35213
11
7.48301
21
-5.35273
0
LINE
8
BLACK
6
CONTINUOUS
10
7.48301
20
-5.35273
11
7.48557
21
-5.35443
0
LINE
8
BLACK
6
CONTINUOUS
10
7.48557
20
-5.35443
11
7.48727
21
-5.35699
0
LINE
8
BLACK
6
CONTINUOUS
10
7.48727
20
-5.35699
11
7.48787
21
-5.36
0
LINE
8
BLACK
6
CONTINUOUS
10
7.48787
20
-5.36
11
7.48787
21
-5.42
0
LINE
8
BLACK
6
CONTINUOUS
10
7.48787
20
-5.42
11
7.48727
21
-5.42301
0
LINE
8
BLACK
6
CONTINUOUS
10
7.48727
20
-5.42301
11
7.48557
21
-5.42557
0
LINE
8
BLACK
6
CONTINUOUS
10
7.48557
20
-5.42557
11
7.48301
21
-5.42727
0
LINE
8
BLACK
6
CONTINUOUS
10
7.48301
20
-5.42727
11
7.48
21
-5.42787
0
LINE
8
BLACK
6
CONTINUOUS
10
7.48
20
-5.42787
11
7.42
21
-5.42787
0
LINE
8
BLACK
6
CONTINUOUS
10
7.42
20
-5.42787
11
7.41699
21
-5.42727
0
LINE
8
BLACK
6
CONTINUOUS
10
7.41699
20
-5.42727
11
7.41443
21
-5.42557
0
LINE
8
BLACK
6
CONTINUOUS
10
7.41443
20
-5.42557
11
7.41273
21
-5.42301
0
LINE
8
BLACK
6
CONTINUOUS
10
7.41273
20
-5.42301
11
7.41213
21
-5.42
0
LINE
8
BLACK
6
CONTINUOUS
10
7.41213
20
-5.42
11
7.41213
21
-5.36
0
LINE
8
BLACK
6
CONTINUOUS
10
7.41213
20
-5.36
11
7.41273
21
-5.35699
0
LINE
8
BLACK
6
CONTINUOUS
10
7.41273
20
-5.35699
11
7.41443
21
-5.35443
0
LINE
8
BLACK
6
CONTINUOUS
10
7.41443
20
-5.35443
11
7.41699
21
-5.35273
0
LINE
8
BLACK
6
CONTINUOUS
10
7.41699
20
-5.35273
11
7.42
21
-5.35213
0
LINE
8
BLACK
6
CONTINUOUS
10
7.42
20
-5.35213
11
7.48
21
-5.35213
0
LINE
8
BLACK
6
CONTINUOUS
10
7.48
20
-5.45213
11
7.48301
21
-5.45273
0
LINE
8
BLACK
6
CONTINUOUS
10
7.48301
20
-5.45273
11
7.48557
21
-5.45443
0
LINE
8
BLACK
6
CONTINUOUS
10
7.48557
20
-5.45443
11
7.48727
21
-5.45699
0
LINE
8
BLACK
6
CONTINUOUS
10
7.48727
20
-5.45699
11
7.48787
21
-5.46
0
LINE
8
BLACK
6
CONTINUOUS
10
7.48787
20
-5.46
11
7.48787
21
-5.52
0
LINE
8
BLACK
6
CONTINUOUS
10
7.48787
20
-5.52
11
7.48727
21
-5.52301
0
LINE
8
BLACK
6
CONTINUOUS
10
7.48727
20
-5.52301
11
7.48557
21
-5.52557
0
LINE
8
BLACK
6
CONTINUOUS
10
7.48557
20
-5.52557
11
7.48301
21
-5.52727
0
LINE
8
BLACK
6
CONTINUOUS
10
7.48301
20
-5.52727
11
7.48
21
-5.52787
0
LINE
8
BLACK
6
CONTINUOUS
10
7.48
20
-5.52787
11
7.42
21
-5.52787
0
LINE
8
BLACK
6
CONTINUOUS
10
7.42
20
-5.52787
11
7.41699
21
-5.52727
0
LINE
8
BLACK
6
CONTINUOUS
10
7.41699
20
-5.52727
11
7.41443
21
-5.52557
0
LINE
8
BLACK
6
CONTINUOUS
10
7.41443
20
-5.52557
11
7.41273
21
-5.52301
0
LINE
8
BLACK
6
CONTINUOUS
10
7.41273
20
-5.52301
11
7.41213
21
-5.52
0
LINE
8
BLACK
6
CONTINUOUS
10
7.41213
20
-5.52
11
7.41213
21
-5.46
0
LINE
8
BLACK
6
CONTINUOUS
10
7.41213
20
-5.46
11
7.41273
21
-5.45699
0
LINE
8
BLACK
6
CONTINUOUS
10
7.41273
20
-5.45699
11
7.41443
21
-5.45443
0
LINE
8
BLACK
6
CONTINUOUS
10
7.41443
20
-5.45443
11
7.41699
21
-5.45273
0
LINE
8
BLACK
6
CONTINUOUS
10
7.41699
20
-5.45273
11
7.42
21
-5.45213
0
LINE
8
BLACK
6
CONTINUOUS
10
7.42
20
-5.45213
11
7.48
21
-5.45213
0
LINE
8
BLACK
6
CONTINUOUS
10
7.24787
20
-5.17
11
7.24727
21
-5.17301
0
LINE
8
BLACK
6
CONTINUOUS
10
7.24727
20
-5.17301
11
7.24557
21
-5.17557
0
LINE
8
BLACK
6
CONTINUOUS
10
7.24557
20
-5.17557
11
7.24301
21
-5.17727
0
LINE
8
BLACK
6
CONTINUOUS
10
7.24301
20
-5.17727
11
7.24
21
-5.17787
0
LINE
8
BLACK
6
CONTINUOUS
10
7.24
20
-5.17787
11
7.18
21
-5.17787
0
LINE
8
BLACK
6
CONTINUOUS
10
7.18
20
-5.17787
11
7.17699
21
-5.17727
0
LINE
8
BLACK
6
CONTINUOUS
10
7.17699
20
-5.17727
11
7.17443
21
-5.17557
0
LINE
8
BLACK
6
CONTINUOUS
10
7.17443
20
-5.17557
11
7.17273
21
-5.17301
0
LINE
8
BLACK
6
CONTINUOUS
10
7.17273
20
-5.17301
11
7.17213
21
-5.17
0
LINE
8
BLACK
6
CONTINUOUS
10
7.17213
20
-5.17
11
7.17213
21
-5.11
0
LINE
8
BLACK
6
CONTINUOUS
10
7.17213
20
-5.11
11
7.17273
21
-5.10699
0
LINE
8
BLACK
6
CONTINUOUS
10
7.17273
20
-5.10699
11
7.17443
21
-5.10443
0
LINE
8
BLACK
6
CONTINUOUS
10
7.17443
20
-5.10443
11
7.17699
21
-5.10273
0
LINE
8
BLACK
6
CONTINUOUS
10
7.17699
20
-5.10273
11
7.18
21
-5.10213
0
LINE
8
BLACK
6
CONTINUOUS
10
7.18
20
-5.10213
11
7.24
21
-5.10213
0
LINE
8
BLACK
6
CONTINUOUS
10
7.24
20
-5.10213
11
7.24301
21
-5.10273
0
LINE
8
BLACK
6
CONTINUOUS
10
7.24301
20
-5.10273
11
7.24557
21
-5.10443
0
LINE
8
BLACK
6
CONTINUOUS
10
7.24557
20
-5.10443
11
7.24727
21
-5.10699
0
LINE
8
BLACK
6
CONTINUOUS
10
7.24727
20
-5.10699
11
7.24787
21
-5.11
0
LINE
8
BLACK
6
CONTINUOUS
10
7.24787
20
-5.11
11
7.24787
21
-5.17
0
LINE
8
BLACK
6
CONTINUOUS
10
7.14787
20
-5.17
11
7.14727
21
-5.17301
0
LINE
8
BLACK
6
CONTINUOUS
10
7.14727
20
-5.17301
11
7.14557
21
-5.17557
0
LINE
8
BLACK
6
CONTINUOUS
10
7.14557
20
-5.17557
11
7.14301
21
-5.17727
0
LINE
8
BLACK
6
CONTINUOUS
10
7.14301
20
-5.17727
11
7.14
21
-5.17787
0
LINE
8
BLACK
6
CONTINUOUS
10
7.14
20
-5.17787
11
7.08
21
-5.17787
0
LINE
8
BLACK
6
CONTINUOUS
10
7.08
20
-5.17787
11
7.07699
21
-5.17727
0
LINE
8
BLACK
6
CONTINUOUS
10
7.07699
20
-5.17727
11
7.07443
21
-5.17557
0
LINE
8
BLACK
6
CONTINUOUS
10
7.07443
20
-5.17557
11
7.07273
21
-5.17301
0
LINE
8
BLACK
6
CONTINUOUS
10
7.07273
20
-5.17301
11
7.07213
21
-5.17
0
LINE
8
BLACK
6
CONTINUOUS
10
7.07213
20
-5.17
11
7.07213
21
-5.11
0
LINE
8
BLACK
6
CONTINUOUS
10
7.07213
20
-5.11
11
7.07273
21
-5.10699
0
LINE
8
BLACK
6
CONTINUOUS
10
7.07273
20
-5.10699
11
7.07443
21
-5.10443
0
LINE
8
BLACK
6
CONTINUOUS
10
7.07443
20
-5.10443
11
7.07699
21
-5.10273
0
LINE
8
BLACK
6
CONTINUOUS
10
7.07699
20
-5.10273
11
7.08
21
-5.10213
0
LINE
8
BLACK
6
CONTINUOUS
10
7.08
20
-5.10213
11
7.14
21
-5.10213
0
LINE
8
BLACK
6
CONTINUOUS
10
7.14
20
-5.10213
11
7.14301
21
-5.10273
0
LINE
8
BLACK
6
CONTINUOUS
10
7.14301
20
-5.10273
11
7.14557
21
-5.10443
0
LINE
8
BLACK
6
CONTINUOUS
10
7.14557
20
-5.10443
11
7.14727
21
-5.10699
0
LINE
8
BLACK
6
CONTINUOUS
10
7.14727
20
-5.10699
11
7.14787
21
-5.11
0
LINE
8
BLACK
6
CONTINUOUS
10
7.14787
20
-5.11
11
7.14787
21
-5.17
0
LINE
8
BLACK
6
CONTINUOUS
10
7.38
20
-4.05213
11
7.38301
21
-4.05273
0
LINE
8
BLACK
6
CONTINUOUS
10
7.38301
20
-4.05273
11
7.38557
21
-4.05443
0
LINE
8
BLACK
6
CONTINUOUS
10
7.38557
20
-4.05443
11
7.38727
21
-4.05699
0
LINE
8
BLACK
6
CONTINUOUS
10
7.38727
20
-4.05699
11
7.38787
21
-4.06
0
LINE
8
BLACK
6
CONTINUOUS
10
7.38787
20
-4.06
11
7.38787
21
-4.12
0
LINE
8
BLACK
6
CONTINUOUS
10
7.38787
20
-4.12
11
7.38727
21
-4.12301
0
LINE
8
BLACK
6
CONTINUOUS
10
7.38727
20
-4.12301
11
7.38557
21
-4.12557
0
LINE
8
BLACK
6
CONTINUOUS
10
7.38557
20
-4.12557
11
7.38301
21
-4.12727
0
LINE
8
BLACK
6
CONTINUOUS
10
7.38301
20
-4.12727
11
7.38
21
-4.12787
0
LINE
8
BLACK
6
CONTINUOUS
10
7.38
20
-4.12787
11
7.32
21
-4.12787
0
LINE
8
BLACK
6
CONTINUOUS
10
7.32
20
-4.12787
11
7.31699
21
-4.12727
0
LINE
8
BLACK
6
CONTINUOUS
10
7.31699
20
-4.12727
11
7.31443
21
-4.12557
0
LINE
8
BLACK
6
CONTINUOUS
10
7.31443
20
-4.12557
11
7.31273
21
-4.12301
0
LINE
8
BLACK
6
CONTINUOUS
10
7.31273
20
-4.12301
11
7.31213
21
-4.12
0
LINE
8
BLACK
6
CONTINUOUS
10
7.31213
20
-4.12
11
7.31213
21
-4.06
0
LINE
8
BLACK
6
CONTINUOUS
10
7.31213
20
-4.06
11
7.31273
21
-4.05699
0
LINE
8
BLACK
6
CONTINUOUS
10
7.31273
20
-4.05699
11
7.31443
21
-4.05443
0
LINE
8
BLACK
6
CONTINUOUS
10
7.31443
20
-4.05443
11
7.31699
21
-4.05273
0
LINE
8
BLACK
6
CONTINUOUS
10
7.31699
20
-4.05273
11
7.32
21
-4.05213
0
LINE
8
BLACK
6
CONTINUOUS
10
7.32
20
-4.05213
11
7.38
21
-4.05213
0
LINE
8
BLACK
6
CONTINUOUS
10
7.38
20
-4.15213
11
7.38301
21
-4.15273
0
LINE
8
BLACK
6
CONTINUOUS
10
7.38301
20
-4.15273
11
7.38557
21
-4.15443
0
LINE
8
BLACK
6
CONTINUOUS
10
7.38557
20
-4.15443
11
7.38727
21
-4.15699
0
LINE
8
BLACK
6
CONTINUOUS
10
7.38727
20
-4.15699
11
7.38787
21
-4.16
0
LINE
8
BLACK
6
CONTINUOUS
10
7.38787
20
-4.16
11
7.38787
21
-4.22
0
LINE
8
BLACK
6
CONTINUOUS
10
7.38787
20
-4.22
11
7.38727
21
-4.22301
0
LINE
8
BLACK
6
CONTINUOUS
10
7.38727
20
-4.22301
11
7.38557
21
-4.22557
0
LINE
8
BLACK
6
CONTINUOUS
10
7.38557
20
-4.22557
11
7.38301
21
-4.22727
0
LINE
8
BLACK
6
CONTINUOUS
10
7.38301
20
-4.22727
11
7.38
21
-4.22787
0
LINE
8
BLACK
6
CONTINUOUS
10
7.38
20
-4.22787
11
7.32
21
-4.22787
0
LINE
8
BLACK
6
CONTINUOUS
10
7.32
20
-4.22787
11
7.31699
21
-4.22727
0
LINE
8
BLACK
6
CONTINUOUS
10
7.31699
20
-4.22727
11
7.31443
21
-4.22557
0
LINE
8
BLACK
6
CONTINUOUS
10
7.31443
20
-4.22557
11
7.31273
21
-4.22301
0
LINE
8
BLACK
6
CONTINUOUS
10
7.31273
20
-4.22301
11
7.31213
21
-4.22
0
LINE
8
BLACK
6
CONTINUOUS
10
7.31213
20
-4.22
11
7.31213
21
-4.16
0
LINE
8
BLACK
6
CONTINUOUS
10
7.31213
20
-4.16
11
7.31273
21
-4.15699
0
LINE
8
BLACK
6
CONTINUOUS
10
7.31273
20
-4.15699
11
7.31443
21
-4.15443
0
LINE
8
BLACK
6
CONTINUOUS
10
7.31443
20
-4.15443
11
7.31699
21
-4.15273
0
LINE
8
BLACK
6
CONTINUOUS
10
7.31699
20
-4.15273
11
7.32
21
-4.15213
0
LINE
8
BLACK
6
CONTINUOUS
10
7.32
20
-4.15213
11
7.38
21
-4.15213
0
LINE
8
BLACK
6
CONTINUOUS
10
8.35213
20
-4.51
11
8.35273
21
-4.50699
0
LINE
8
BLACK
6
CONTINUOUS
10
8.35273
20
-4.50699
11
8.35443
21
-4.50443
0
LINE
8
BLACK
6
CONTINUOUS
10
8.35443
20
-4.50443
11
8.35699
21
-4.50273
0
LINE
8
BLACK
6
CONTINUOUS
10
8.35699
20
-4.50273
11
8.36
21
-4.50213
0
LINE
8
BLACK
6
CONTINUOUS
10
8.36
20
-4.50213
11
8.42
21
-4.50213
0
LINE
8
BLACK
6
CONTINUOUS
10
8.42
20
-4.50213
11
8.42301
21
-4.50273
0
LINE
8
BLACK
6
CONTINUOUS
10
8.42301
20
-4.50273
11
8.42557
21
-4.50443
0
LINE
8
BLACK
6
CONTINUOUS
10
8.42557
20
-4.50443
11
8.42727
21
-4.50699
0
LINE
8
BLACK
6
CONTINUOUS
10
8.42727
20
-4.50699
11
8.42787
21
-4.51
0
LINE
8
BLACK
6
CONTINUOUS
10
8.42787
20
-4.51
11
8.42787
21
-4.57
0
LINE
8
BLACK
6
CONTINUOUS
10
8.42787
20
-4.57
11
8.42727
21
-4.57301
0
LINE
8
BLACK
6
CONTINUOUS
10
8.42727
20
-4.57301
11
8.42557
21
-4.57557
0
LINE
8
BLACK
6
CONTINUOUS
10
8.42557
20
-4.57557
11
8.42301
21
-4.57727
0
LINE
8
BLACK
6
CONTINUOUS
10
8.42301
20
-4.57727
11
8.42
21
-4.57787
0
LINE
8
BLACK
6
CONTINUOUS
10
8.42
20
-4.57787
11
8.36
21
-4.57787
0
LINE
8
BLACK
6
CONTINUOUS
10
8.36
20
-4.57787
11
8.35699
21
-4.57727
0
LINE
8
BLACK
6
CONTINUOUS
10
8.35699
20
-4.57727
11
8.35443
21
-4.57557
0
LINE
8
BLACK
6
CONTINUOUS
10
8.35443
20
-4.57557
11
8.35273
21
-4.57301
0
LINE
8
BLACK
6
CONTINUOUS
10
8.35273
20
-4.57301
11
8.35213
21
-4.57
0
LINE
8
BLACK
6
CONTINUOUS
10
8.35213
20
-4.57
11
8.35213
21
-4.51
0
LINE
8
BLACK
6
CONTINUOUS
10
8.45213
20
-4.51
11
8.45273
21
-4.50699
0
LINE
8
BLACK
6
CONTINUOUS
10
8.45273
20
-4.50699
11
8.45443
21
-4.50443
0
LINE
8
BLACK
6
CONTINUOUS
10
8.45443
20
-4.50443
11
8.45699
21
-4.50273
0
LINE
8
BLACK
6
CONTINUOUS
10
8.45699
20
-4.50273
11
8.46
21
-4.50213
0
LINE
8
BLACK
6
CONTINUOUS
10
8.46
20
-4.50213
11
8.52
21
-4.50213
0
LINE
8
BLACK
6
CONTINUOUS
10
8.52
20
-4.50213
11
8.52301
21
-4.50273
0
LINE
8
BLACK
6
CONTINUOUS
10
8.52301
20
-4.50273
11
8.52557
21
-4.50443
0
LINE
8
BLACK
6
CONTINUOUS
10
8.52557
20
-4.50443
11
8.52727
21
-4.50699
0
LINE
8
BLACK
6
CONTINUOUS
10
8.52727
20
-4.50699
11
8.52787
21
-4.51
0
LINE
8
BLACK
6
CONTINUOUS
10
8.52787
20
-4.51
11
8.52787
21
-4.57
0
LINE
8
BLACK
6
CONTINUOUS
10
8.52787
20
-4.57
11
8.52727
21
-4.57301
0
LINE
8
BLACK
6
CONTINUOUS
10
8.52727
20
-4.57301
11
8.52557
21
-4.57557
0
LINE
8
BLACK
6
CONTINUOUS
10
8.52557
20
-4.57557
11
8.52301
21
-4.57727
0
LINE
8
BLACK
6
CONTINUOUS
10
8.52301
20
-4.57727
11
8.52
21
-4.57787
0
LINE
8
BLACK
6
CONTINUOUS
10
8.52
20
-4.57787
11
8.46
21
-4.57787
0
LINE
8
BLACK
6
CONTINUOUS
10
8.46
20
-4.57787
11
8.45699
21
-4.57727
0
LINE
8
BLACK
6
CONTINUOUS
10
8.45699
20
-4.57727
11
8.45443
21
-4.57557
0
LINE
8
BLACK
6
CONTINUOUS
10
8.45443
20
-4.57557
11
8.45273
21
-4.57301
0
LINE
8
BLACK
6
CONTINUOUS
10
8.45273
20
-4.57301
11
8.45213
21
-4.57
0
LINE
8
BLACK
6
CONTINUOUS
10
8.45213
20
-4.57
11
8.45213
21
-4.51
0
LINE
8
BLACK
6
CONTINUOUS
10
8.08
20
-5.35213
11
8.08301
21
-5.35273
0
LINE
8
BLACK
6
CONTINUOUS
10
8.08301
20
-5.35273
11
8.08557
21
-5.35443
0
LINE
8
BLACK
6
CONTINUOUS
10
8.08557
20
-5.35443
11
8.08727
21
-5.35699
0
LINE
8
BLACK
6
CONTINUOUS
10
8.08727
20
-5.35699
11
8.08787
21
-5.36
0
LINE
8
BLACK
6
CONTINUOUS
10
8.08787
20
-5.36
11
8.08787
21
-5.42
0
LINE
8
BLACK
6
CONTINUOUS
10
8.08787
20
-5.42
11
8.08727
21
-5.42301
0
LINE
8
BLACK
6
CONTINUOUS
10
8.08727
20
-5.42301
11
8.08557
21
-5.42557
0
LINE
8
BLACK
6
CONTINUOUS
10
8.08557
20
-5.42557
11
8.08301
21
-5.42727
0
LINE
8
BLACK
6
CONTINUOUS
10
8.08301
20
-5.42727
11
8.08
21
-5.42787
0
LINE
8
BLACK
6
CONTINUOUS
10
8.08
20
-5.42787
11
8.02
21
-5.42787
0
LINE
8
BLACK
6
CONTINUOUS
10
8.02
20
-5.42787
11
8.01699
21
-5.42727
0
LINE
8
BLACK
6
CONTINUOUS
10
8.01699
20
-5.42727
11
8.01443
21
-5.42557
0
LINE
8
BLACK
6
CONTINUOUS
10
8.01443
20
-5.42557
11
8.01273
21
-5.42301
0
LINE
8
BLACK
6
CONTINUOUS
10
8.01273
20
-5.42301
11
8.01213
21
-5.42
0
LINE
8
BLACK
6
CONTINUOUS
10
8.01213
20
-5.42
11
8.01213
21
-5.36
0
LINE
8
BLACK
6
CONTINUOUS
10
8.01213
20
-5.36
11
8.01273
21
-5.35699
0
LINE
8
BLACK
6
CONTINUOUS
10
8.01273
20
-5.35699
11
8.01443
21
-5.35443
0
LINE
8
BLACK
6
CONTINUOUS
10
8.01443
20
-5.35443
11
8.01699
21
-5.35273
0
LINE
8
BLACK
6
CONTINUOUS
10
8.01699
20
-5.35273
11
8.02
21
-5.35213
0
LINE
8
BLACK
6
CONTINUOUS
10
8.02
20
-5.35213
11
8.08
21
-5.35213
0
LINE
8
BLACK
6
CONTINUOUS
10
8.08
20
-5.45213
11
8.08301
21
-5.45273
0
LINE
8
BLACK
6
CONTINUOUS
10
8.08301
20
-5.45273
11
8.08557
21
-5.45443
0
LINE
8
BLACK
6
CONTINUOUS
10
8.08557
20
-5.45443
11
8.08727
21
-5.45699
0
LINE
8
BLACK
6
CONTINUOUS
10
8.08727
20
-5.45699
11
8.08787
21
-5.46
0
LINE
8
BLACK
6
CONTINUOUS
10
8.08787
20
-5.46
11
8.08787
21
-5.52
0
LINE
8
BLACK
6
CONTINUOUS
10
8.08787
20
-5.52
11
8.08727
21
-5.52301
0
LINE
8
BLACK
6
CONTINUOUS
10
8.08727
20
-5.52301
11
8.08557
21
-5.52557
0
LINE
8
BLACK
6
CONTINUOUS
10
8.08557
20
-5.52557
11
8.08301
21
-5.52727
0
LINE
8
BLACK
6
CONTINUOUS
10
8.08301
20
-5.52727
11
8.08
21
-5.52787
0
LINE
8
BLACK
6
CONTINUOUS
10
8.08
20
-5.52787
11
8.02
21
-5.52787
0
LINE
8
BLACK
6
CONTINUOUS
10
8.02
20
-5.52787
11
8.01699
21
-5.52727
0
LINE
8
BLACK
6
CONTINUOUS
10
8.01699
20
-5.52727
11
8.01443
21
-5.52557
0
LINE
8
BLACK
6
CONTINUOUS
10
8.01443
20
-5.52557
11
8.01273
21
-5.52301
0
LINE
8
BLACK
6
CONTINUOUS
10
8.01273
20
-5.52301
11
8.01213
21
-5.52
0
LINE
8
BLACK
6
CONTINUOUS
10
8.01213
20
-5.52
11
8.01213
21
-5.46
0
LINE
8
BLACK
6
CONTINUOUS
10
8.01213
20
-5.46
11
8.01273
21
-5.45699
0
LINE
8
BLACK
6
CONTINUOUS
10
8.01273
20
-5.45699
11
8.01443
21
-5.45443
0
LINE
8
BLACK
6
CONTINUOUS
10
8.01443
20
-5.45443
11
8.01699
21
-5.45273
0
LINE
8
BLACK
6
CONTINUOUS
10
8.01699
20
-5.45273
11
8.02
21
-5.45213
0
LINE
8
BLACK
6
CONTINUOUS
10
8.02
20
-5.45213
11
8.08
21
-5.45213
0
LINE
8
BLACK
6
CONTINUOUS
10
7.58
20
-4.05213
11
7.58301
21
-4.05273
0
LINE
8
BLACK
6
CONTINUOUS
10
7.58301
20
-4.05273
11
7.58557
21
-4.05443
0
LINE
8
BLACK
6
CONTINUOUS
10
7.58557
20
-4.05443
11
7.58727
21
-4.05699
0
LINE
8
BLACK
6
CONTINUOUS
10
7.58727
20
-4.05699
11
7.58787
21
-4.06
0
LINE
8
BLACK
6
CONTINUOUS
10
7.58787
20
-4.06
11
7.58787
21
-4.12
0
LINE
8
BLACK
6
CONTINUOUS
10
7.58787
20
-4.12
11
7.58727
21
-4.12301
0
LINE
8
BLACK
6
CONTINUOUS
10
7.58727
20
-4.12301
11
7.58557
21
-4.12557
0
LINE
8
BLACK
6
CONTINUOUS
10
7.58557
20
-4.12557
11
7.58301
21
-4.12727
0
LINE
8
BLACK
6
CONTINUOUS
10
7.58301
20
-4.12727
11
7.58
21
-4.12787
0
LINE
8
BLACK
6
CONTINUOUS
10
7.58
20
-4.12787
11
7.52
21
-4.12787
0
LINE
8
BLACK
6
CONTINUOUS
10
7.52
20
-4.12787
11
7.51699
21
-4.12727
0
LINE
8
BLACK
6
CONTINUOUS
10
7.51699
20
-4.12727
11
7.51443
21
-4.12557
0
LINE
8
BLACK
6
CONTINUOUS
10
7.51443
20
-4.12557
11
7.51273
21
-4.12301
0
LINE
8
BLACK
6
CONTINUOUS
10
7.51273
20
-4.12301
11
7.51213
21
-4.12
0
LINE
8
BLACK
6
CONTINUOUS
10
7.51213
20
-4.12
11
7.51213
21
-4.06
0
LINE
8
BLACK
6
CONTINUOUS
10
7.51213
20
-4.06
11
7.51273
21
-4.05699
0
LINE
8
BLACK
6
CONTINUOUS
10
7.51273
20
-4.05699
11
7.51443
21
-4.05443
0
LINE
8
BLACK
6
CONTINUOUS
10
7.51443
20
-4.05443
11
7.51699
21
-4.05273
0
LINE
8
BLACK
6
CONTINUOUS
10
7.51699
20
-4.05273
11
7.52
21
-4.05213
0
LINE
8
BLACK
6
CONTINUOUS
10
7.52
20
-4.05213
11
7.58
21
-4.05213
0
LINE
8
BLACK
6
CONTINUOUS
10
7.58
20
-4.15213
11
7.58301
21
-4.15273
0
LINE
8
BLACK
6
CONTINUOUS
10
7.58301
20
-4.15273
11
7.58557
21
-4.15443
0
LINE
8
BLACK
6
CONTINUOUS
10
7.58557
20
-4.15443
11
7.58727
21
-4.15699
0
LINE
8
BLACK
6
CONTINUOUS
10
7.58727
20
-4.15699
11
7.58787
21
-4.16
0
LINE
8
BLACK
6
CONTINUOUS
10
7.58787
20
-4.16
11
7.58787
21
-4.22
0
LINE
8
BLACK
6
CONTINUOUS
10
7.58787
20
-4.22
11
7.58727
21
-4.22301
0
LINE
8
BLACK
6
CONTINUOUS
10
7.58727
20
-4.22301
11
7.58557
21
-4.22557
0
LINE
8
BLACK
6
CONTINUOUS
10
7.58557
20
-4.22557
11
7.58301
21
-4.22727
0
LINE
8
BLACK
6
CONTINUOUS
10
7.58301
20
-4.22727
11
7.58
21
-4.22787
0
LINE
8
BLACK
6
CONTINUOUS
10
7.58
20
-4.22787
11
7.52
21
-4.22787
0
LINE
8
BLACK
6
CONTINUOUS
10
7.52
20
-4.22787
11
7.51699
21
-4.22727
0
LINE
8
BLACK
6
CONTINUOUS
10
7.51699
20
-4.22727
11
7.51443
21
-4.22557
0
LINE
8
BLACK
6
CONTINUOUS
10
7.51443
20
-4.22557
11
7.51273
21
-4.22301
0
LINE
8
BLACK
6
CONTINUOUS
10
7.51273
20
-4.22301
11
7.51213
21
-4.22
0
LINE
8
BLACK
6
CONTINUOUS
10
7.51213
20
-4.22
11
7.51213
21
-4.16
0
LINE
8
BLACK
6
CONTINUOUS
10
7.51213
20
-4.16
11
7.51273
21
-4.15699
0
LINE
8
BLACK
6
CONTINUOUS
10
7.51273
20
-4.15699
11
7.51443
21
-4.15443
0
LINE
8
BLACK
6
CONTINUOUS
10
7.51443
20
-4.15443
11
7.51699
21
-4.15273
0
LINE
8
BLACK
6
CONTINUOUS
10
7.51699
20
-4.15273
11
7.52
21
-4.15213
0
LINE
8
BLACK
6
CONTINUOUS
10
7.52
20
-4.15213
11
7.58
21
-4.15213
0
LINE
8
BLACK
6
CONTINUOUS
10
7.68
20
-5.35213
11
7.68301
21
-5.35273
0
LINE
8
BLACK
6
CONTINUOUS
10
7.68301
20
-5.35273
11
7.68557
21
-5.35443
0
LINE
8
BLACK
6
CONTINUOUS
10
7.68557
20
-5.35443
11
7.68727
21
-5.35699
0
LINE
8
BLACK
6
CONTINUOUS
10
7.68727
20
-5.35699
11
7.68787
21
-5.36
0
LINE
8
BLACK
6
CONTINUOUS
10
7.68787
20
-5.36
11
7.68787
21
-5.42
0
LINE
8
BLACK
6
CONTINUOUS
10
7.68787
20
-5.42
11
7.68727
21
-5.42301
0
LINE
8
BLACK
6
CONTINUOUS
10
7.68727
20
-5.42301
11
7.68557
21
-5.42557
0
LINE
8
BLACK
6
CONTINUOUS
10
7.68557
20
-5.42557
11
7.68301
21
-5.42727
0
LINE
8
BLACK
6
CONTINUOUS
10
7.68301
20
-5.42727
11
7.68
21
-5.42787
0
LINE
8
BLACK
6
CONTINUOUS
10
7.68
20
-5.42787
11
7.62
21
-5.42787
0
LINE
8
BLACK
6
CONTINUOUS
10
7.62
20
-5.42787
11
7.61699
21
-5.42727
0
LINE
8
BLACK
6
CONTINUOUS
10
7.61699
20
-5.42727
11
7.61443
21
-5.42557
0
LINE
8
BLACK
6
CONTINUOUS
10
7.61443
20
-5.42557
11
7.61273
21
-5.42301
0
LINE
8
BLACK
6
CONTINUOUS
10
7.61273
20
-5.42301
11
7.61213
21
-5.42
0
LINE
8
BLACK
6
CONTINUOUS
10
7.61213
20
-5.42
11
7.61213
21
-5.36
0
LINE
8
BLACK
6
CONTINUOUS
10
7.61213
20
-5.36
11
7.61273
21
-5.35699
0
LINE
8
BLACK
6
CONTINUOUS
10
7.61273
20
-5.35699
11
7.61443
21
-5.35443
0
LINE
8
BLACK
6
CONTINUOUS
10
7.61443
20
-5.35443
11
7.61699
21
-5.35273
0
LINE
8
BLACK
6
CONTINUOUS
10
7.61699
20
-5.35273
11
7.62
21
-5.35213
0
LINE
8
BLACK
6
CONTINUOUS
10
7.62
20
-5.35213
11
7.68
21
-5.35213
0
LINE
8
BLACK
6
CONTINUOUS
10
7.68
20
-5.45213
11
7.68301
21
-5.45273
0
LINE
8
BLACK
6
CONTINUOUS
10
7.68301
20
-5.45273
11
7.68557
21
-5.45443
0
LINE
8
BLACK
6
CONTINUOUS
10
7.68557
20
-5.45443
11
7.68727
21
-5.45699
0
LINE
8
BLACK
6
CONTINUOUS
10
7.68727
20
-5.45699
11
7.68787
21
-5.46
0
LINE
8
BLACK
6
CONTINUOUS
10
7.68787
20
-5.46
11
7.68787
21
-5.52
0
LINE
8
BLACK
6
CONTINUOUS
10
7.68787
20
-5.52
11
7.68727
21
-5.52301
0
LINE
8
BLACK
6
CONTINUOUS
10
7.68727
20
-5.52301
11
7.68557
21
-5.52557
0
LINE
8
BLACK
6
CONTINUOUS
10
7.68557
20
-5.52557
11
7.68301
21
-5.52727
0
LINE
8
BLACK
6
CONTINUOUS
10
7.68301
20
-5.52727
11
7.68
21
-5.52787
0
LINE
8
BLACK
6
CONTINUOUS
10
7.68
20
-5.52787
11
7.62
21
-5.52787
0
LINE
8
BLACK
6
CONTINUOUS
10
7.62
20
-5.52787
11
7.61699
21
-5.52727
0
LINE
8
BLACK
6
CONTINUOUS
10
7.61699
20
-5.52727
11
7.61443
21
-5.52557
0
LINE
8
BLACK
6
CONTINUOUS
10
7.61443
20
-5.52557
11
7.61273
21
-5.52301
0
LINE
8
BLACK
6
CONTINUOUS
10
7.61273
20
-5.52301
11
7.61213
21
-5.52
0
LINE
8
BLACK
6
CONTINUOUS
10
7.61213
20
-5.52
11
7.61213
21
-5.46
0
LINE
8
BLACK
6
CONTINUOUS
10
7.61213
20
-5.46
11
7.61273
21
-5.45699
0
LINE
8
BLACK
6
CONTINUOUS
10
7.61273
20
-5.45699
11
7.61443
21
-5.45443
0
LINE
8
BLACK
6
CONTINUOUS
10
7.61443
20
-5.45443
11
7.61699
21
-5.45273
0
LINE
8
BLACK
6
CONTINUOUS
10
7.61699
20
-5.45273
11
7.62
21
-5.45213
0
LINE
8
BLACK
6
CONTINUOUS
10
7.62
20
-5.45213
11
7.68
21
-5.45213
0
LINE
8
BLACK
6
CONTINUOUS
10
7.58
20
-5.35213
11
7.58301
21
-5.35273
0
LINE
8
BLACK
6
CONTINUOUS
10
7.58301
20
-5.35273
11
7.58557
21
-5.35443
0
LINE
8
BLACK
6
CONTINUOUS
10
7.58557
20
-5.35443
11
7.58727
21
-5.35699
0
LINE
8
BLACK
6
CONTINUOUS
10
7.58727
20
-5.35699
11
7.58787
21
-5.36
0
LINE
8
BLACK
6
CONTINUOUS
10
7.58787
20
-5.36
11
7.58787
21
-5.42
0
LINE
8
BLACK
6
CONTINUOUS
10
7.58787
20
-5.42
11
7.58727
21
-5.42301
0
LINE
8
BLACK
6
CONTINUOUS
10
7.58727
20
-5.42301
11
7.58557
21
-5.42557
0
LINE
8
BLACK
6
CONTINUOUS
10
7.58557
20
-5.42557
11
7.58301
21
-5.42727
0
LINE
8
BLACK
6
CONTINUOUS
10
7.58301
20
-5.42727
11
7.58
21
-5.42787
0
LINE
8
BLACK
6
CONTINUOUS
10
7.58
20
-5.42787
11
7.52
21
-5.42787
0
LINE
8
BLACK
6
CONTINUOUS
10
7.52
20
-5.42787
11
7.51699
21
-5.42727
0
LINE
8
BLACK
6
CONTINUOUS
10
7.51699
20
-5.42727
11
7.51443
21
-5.42557
0
LINE
8
BLACK
6
CONTINUOUS
10
7.51443
20
-5.42557
11
7.51273
21
-5.42301
0
LINE
8
BLACK
6
CONTINUOUS
10
7.51273
20
-5.42301
11
7.51213
21
-5.42
0
LINE
8
BLACK
6
CONTINUOUS
10
7.51213
20
-5.42
11
7.51213
21
-5.36
0
LINE
8
BLACK
6
CONTINUOUS
10
7.51213
20
-5.36
11
7.51273
21
-5.35699
0
LINE
8
BLACK
6
CONTINUOUS
10
7.51273
20
-5.35699
11
7.51443
21
-5.35443
0
LINE
8
BLACK
6
CONTINUOUS
10
7.51443
20
-5.35443
11
7.51699
21
-5.35273
0
LINE
8
BLACK
6
CONTINUOUS
10
7.51699
20
-5.35273
11
7.52
21
-5.35213
0
LINE
8
BLACK
6
CONTINUOUS
10
7.52
20
-5.35213
11
7.58
21
-5.35213
0
LINE
8
BLACK
6
CONTINUOUS
10
7.58
20
-5.45213
11
7.58301
21
-5.45273
0
LINE
8
BLACK
6
CONTINUOUS
10
7.58301
20
-5.45273
11
7.58557
21
-5.45443
0
LINE
8
BLACK
6
CONTINUOUS
10
7.58557
20
-5.45443
11
7.58727
21
-5.45699
0
LINE
8
BLACK
6
CONTINUOUS
10
7.58727
20
-5.45699
11
7.58787
21
-5.46
0
LINE
8
BLACK
6
CONTINUOUS
10
7.58787
20
-5.46
11
7.58787
21
-5.52
0
LINE
8
BLACK
6
CONTINUOUS
10
7.58787
20
-5.52
11
7.58727
21
-5.52301
0
LINE
8
BLACK
6
CONTINUOUS
10
7.58727
20
-5.52301
11
7.58557
21
-5.52557
0
LINE
8
BLACK
6
CONTINUOUS
10
7.58557
20
-5.52557
11
7.58301
21
-5.52727
0
LINE
8
BLACK
6
CONTINUOUS
10
7.58301
20
-5.52727
11
7.58
21
-5.52787
0
LINE
8
BLACK
6
CONTINUOUS
10
7.58
20
-5.52787
11
7.52
21
-5.52787
0
LINE
8
BLACK
6
CONTINUOUS
10
7.52
20
-5.52787
11
7.51699
21
-5.52727
0
LINE
8
BLACK
6
CONTINUOUS
10
7.51699
20
-5.52727
11
7.51443
21
-5.52557
0
LINE
8
BLACK
6
CONTINUOUS
10
7.51443
20
-5.52557
11
7.51273
21
-5.52301
0
LINE
8
BLACK
6
CONTINUOUS
10
7.51273
20
-5.52301
11
7.51213
21
-5.52
0
LINE
8
BLACK
6
CONTINUOUS
10
7.51213
20
-5.52
11
7.51213
21
-5.46
0
LINE
8
BLACK
6
CONTINUOUS
10
7.51213
20
-5.46
11
7.51273
21
-5.45699
0
LINE
8
BLACK
6
CONTINUOUS
10
7.51273
20
-5.45699
11
7.51443
21
-5.45443
0
LINE
8
BLACK
6
CONTINUOUS
10
7.51443
20
-5.45443
11
7.51699
21
-5.45273
0
LINE
8
BLACK
6
CONTINUOUS
10
7.51699
20
-5.45273
11
7.52
21
-5.45213
0
LINE
8
BLACK
6
CONTINUOUS
10
7.52
20
-5.45213
11
7.58
21
-5.45213
0
LINE
8
BLACK
6
CONTINUOUS
10
6.79953
20
-4.08394
11
6.79953
21
-4.07606
0
LINE
8
BLACK
6
CONTINUOUS
10
6.74047
20
-4.08394
11
6.74047
21
-4.07606
0
ARC
8
BLACK
10
6.77
20
-4.07606
40
0.0295276
50
360
51
540
0
ARC
8
BLACK
10
6.77
20
-4.08394
40
0.0295276
50
180
51
360
0
LINE
8
BLACK
6
CONTINUOUS
10
6.84953
20
-4.14299
11
6.84953
21
-4.13512
0
LINE
8
BLACK
6
CONTINUOUS
10
6.79047
20
-4.14299
11
6.79047
21
-4.13512
0
ARC
8
BLACK
10
6.82
20
-4.13512
40
0.0295276
50
360
51
540
0
ARC
8
BLACK
10
6.82
20
-4.14299
40
0.0295276
50
180
51
360
0
LINE
8
BLACK
6
CONTINUOUS
10
6.89953
20
-4.14299
11
6.89953
21
-4.13512
0
LINE
8
BLACK
6
CONTINUOUS
10
6.84047
20
-4.14299
11
6.84047
21
-4.13512
0
ARC
8
BLACK
10
6.87
20
-4.13512
40
0.0295276
50
360
51
540
0
ARC
8
BLACK
10
6.87
20
-4.14299
40
0.0295276
50
180
51
360
0
LINE
8
BLACK
6
CONTINUOUS
10
6.94953
20
-4.08394
11
6.94953
21
-4.07606
0
LINE
8
BLACK
6
CONTINUOUS
10
6.89047
20
-4.08394
11
6.89047
21
-4.07606
0
ARC
8
BLACK
10
6.92
20
-4.07606
40
0.0295276
50
360
51
540
0
ARC
8
BLACK
10
6.92
20
-4.08394
40
0.0295276
50
180
51
360
0
LINE
8
BLACK
6
CONTINUOUS
10
6.99953
20
-4.14299
11
6.99953
21
-4.13512
0
LINE
8
BLACK
6
CONTINUOUS
10
6.94047
20
-4.14299
11
6.94047
21
-4.13512
0
ARC
8
BLACK
10
6.97
20
-4.13512
40
0.0295276
50
360
51
540
0
ARC
8
BLACK
10
6.97
20
-4.14299
40
0.0295276
50
180
51
360
0
LINE
8
BLACK
6
CONTINUOUS
10
7.04953
20
-4.14299
11
7.04953
21
-4.13512
0
LINE
8
BLACK
6
CONTINUOUS
10
6.99047
20
-4.14299
11
6.99047
21
-4.13512
0
ARC
8
BLACK
10
7.02
20
-4.13512
40
0.0295276
50
360
51
540
0
ARC
8
BLACK
10
7.02
20
-4.14299
40
0.0295276
50
180
51
360
0
LINE
8
BLACK
6
CONTINUOUS
10
7.09953
20
-4.08394
11
7.09953
21
-4.07606
0
LINE
8
BLACK
6
CONTINUOUS
10
7.04047
20
-4.08394
11
7.04047
21
-4.07606
0
ARC
8
BLACK
10
7.07
20
-4.07606
40
0.0295276
50
360
51
540
0
ARC
8
BLACK
10
7.07
20
-4.08394
40
0.0295276
50
180
51
360
0
CIRCLE
8
BLACK
10
7.17827
20
-4.17843
40
0.0570866
0
CIRCLE
8
BLACK
10
6.67315
20
-4.13906
40
0.0570866
0
CIRCLE
8
BLACK
10
6.39
20
-4.19
40
0.125984
0
LINE
8
BLACK
6
CONTINUOUS
10
7.07213
20
-4.91
11
7.07273
21
-4.90699
0
LINE
8
BLACK
6
CONTINUOUS
10
7.07273
20
-4.90699
11
7.07443
21
-4.90443
0
LINE
8
BLACK
6
CONTINUOUS
10
7.07443
20
-4.90443
11
7.07699
21
-4.90273
0
LINE
8
BLACK
6
CONTINUOUS
10
7.07699
20
-4.90273
11
7.08
21
-4.90213
0
LINE
8
BLACK
6
CONTINUOUS
10
7.08
20
-4.90213
11
7.14
21
-4.90213
0
LINE
8
BLACK
6
CONTINUOUS
10
7.14
20
-4.90213
11
7.14301
21
-4.90273
0
LINE
8
BLACK
6
CONTINUOUS
10
7.14301
20
-4.90273
11
7.14557
21
-4.90443
0
LINE
8
BLACK
6
CONTINUOUS
10
7.14557
20
-4.90443
11
7.14727
21
-4.90699
0
LINE
8
BLACK
6
CONTINUOUS
10
7.14727
20
-4.90699
11
7.14787
21
-4.91
0
LINE
8
BLACK
6
CONTINUOUS
10
7.14787
20
-4.91
11
7.14787
21
-4.97
0
LINE
8
BLACK
6
CONTINUOUS
10
7.14787
20
-4.97
11
7.14727
21
-4.97301
0
LINE
8
BLACK
6
CONTINUOUS
10
7.14727
20
-4.97301
11
7.14557
21
-4.97557
0
LINE
8
BLACK
6
CONTINUOUS
10
7.14557
20
-4.97557
11
7.14301
21
-4.97727
0
LINE
8
BLACK
6
CONTINUOUS
10
7.14301
20
-4.97727
11
7.14
21
-4.97787
0
LINE
8
BLACK
6
CONTINUOUS
10
7.14
20
-4.97787
11
7.08
21
-4.97787
0
LINE
8
BLACK
6
CONTINUOUS
10
7.08
20
-4.97787
11
7.07699
21
-4.97727
0
LINE
8
BLACK
6
CONTINUOUS
10
7.07699
20
-4.97727
11
7.07443
21
-4.97557
0
LINE
8
BLACK
6
CONTINUOUS
10
7.07443
20
-4.97557
11
7.07273
21
-4.97301
0
LINE
8
BLACK
6
CONTINUOUS
10
7.07273
20
-4.97301
11
7.07213
21
-4.97
0
LINE
8
BLACK
6
CONTINUOUS
10
7.07213
20
-4.97
11
7.07213
21
-4.91
0
LINE
8
BLACK
6
CONTINUOUS
10
7.17213
20
-4.91
11
7.17273
21
-4.90699
0
LINE
8
BLACK
6
CONTINUOUS
10
7.17273
20
-4.90699
11
7.17443
21
-4.90443
0
LINE
8
BLACK
6
CONTINUOUS
10
7.17443
20
-4.90443
11
7.17699
21
-4.90273
0
LINE
8
BLACK
6
CONTINUOUS
10
7.17699
20
-4.90273
11
7.18
21
-4.90213
0
LINE
8
BLACK
6
CONTINUOUS
10
7.18
20
-4.90213
11
7.24
21
-4.90213
0
LINE
8
BLACK
6
CONTINUOUS
10
7.24
20
-4.90213
11
7.24301
21
-4.90273
0
LINE
8
BLACK
6
CONTINUOUS
10
7.24301
20
-4.90273
11
7.24557
21
-4.90443
0
LINE
8
BLACK
6
CONTINUOUS
10
7.24557
20
-4.90443
11
7.24727
21
-4.90699
0
LINE
8
BLACK
6
CONTINUOUS
10
7.24727
20
-4.90699
11
7.24787
21
-4.91
0
LINE
8
BLACK
6
CONTINUOUS
10
7.24787
20
-4.91
11
7.24787
21
-4.97
0
LINE
8
BLACK
6
CONTINUOUS
10
7.24787
20
-4.97
11
7.24727
21
-4.97301
0
LINE
8
BLACK
6
CONTINUOUS
10
7.24727
20
-4.97301
11
7.24557
21
-4.97557
0
LINE
8
BLACK
6
CONTINUOUS
10
7.24557
20
-4.97557
11
7.24301
21
-4.97727
0
LINE
8
BLACK
6
CONTINUOUS
10
7.24301
20
-4.97727
11
7.24
21
-4.97787
0
LINE
8
BLACK
6
CONTINUOUS
10
7.24
20
-4.97787
11
7.18
21
-4.97787
0
LINE
8
BLACK
6
CONTINUOUS
10
7.18
20
-4.97787
11
7.17699
21
-4.97727
0
LINE
8
BLACK
6
CONTINUOUS
10
7.17699
20
-4.97727
11
7.17443
21
-4.97557
0
LINE
8
BLACK
6
CONTINUOUS
10
7.17443
20
-4.97557
11
7.17273
21
-4.97301
0
LINE
8
BLACK
6
CONTINUOUS
10
7.17273
20
-4.97301
11
7.17213
21
-4.97
0
LINE
8
BLACK
6
CONTINUOUS
10
7.17213
20
-4.97
11
7.17213
21
-4.91
0
LINE
8
BLACK
6
CONTINUOUS
10
7.07213
20
-4.41
11
7.07273
21
-4.40699
0
LINE
8
BLACK
6
CONTINUOUS
10
7.07273
20
-4.40699
11
7.07443
21
-4.40443
0
LINE
8
BLACK
6
CONTINUOUS
10
7.07443
20
-4.40443
11
7.07699
21
-4.40273
0
LINE
8
BLACK
6
CONTINUOUS
10
7.07699
20
-4.40273
11
7.08
21
-4.40213
0
LINE
8
BLACK
6
CONTINUOUS
10
7.08
20
-4.40213
11
7.14
21
-4.40213
0
LINE
8
BLACK
6
CONTINUOUS
10
7.14
20
-4.40213
11
7.14301
21
-4.40273
0
LINE
8
BLACK
6
CONTINUOUS
10
7.14301
20
-4.40273
11
7.14557
21
-4.40443
0
LINE
8
BLACK
6
CONTINUOUS
10
7.14557
20
-4.40443
11
7.14727
21
-4.40699
0
LINE
8
BLACK
6
CONTINUOUS
10
7.14727
20
-4.40699
11
7.14787
21
-4.41
0
LINE
8
BLACK
6
CONTINUOUS
10
7.14787
20
-4.41
11
7.14787
21
-4.47
0
LINE
8
BLACK
6
CONTINUOUS
10
7.14787
20
-4.47
11
7.14727
21
-4.47301
0
LINE
8
BLACK
6
CONTINUOUS
10
7.14727
20
-4.47301
11
7.14557
21
-4.47557
0
LINE
8
BLACK
6
CONTINUOUS
10
7.14557
20
-4.47557
11
7.14301
21
-4.47727
0
LINE
8
BLACK
6
CONTINUOUS
10
7.14301
20
-4.47727
11
7.14
21
-4.47787
0
LINE
8
BLACK
6
CONTINUOUS
10
7.14
20
-4.47787
11
7.08
21
-4.47787
0
LINE
8
BLACK
6
CONTINUOUS
10
7.08
20
-4.47787
11
7.07699
21
-4.47727
0
LINE
8
BLACK
6
CONTINUOUS
10
7.07699
20
-4.47727
11
7.07443
21
-4.47557
0
LINE
8
BLACK
6
CONTINUOUS
10
7.07443
20
-4.47557
11
7.07273
21
-4.47301
0
LINE
8
BLACK
6
CONTINUOUS
10
7.07273
20
-4.47301
11
7.07213
21
-4.47
0
LINE
8
BLACK
6
CONTINUOUS
10
7.07213
20
-4.47
11
7.07213
21
-4.41
0
LINE
8
BLACK
6
CONTINUOUS
10
7.17213
20
-4.41
11
7.17273
21
-4.40699
0
LINE
8
BLACK
6
CONTINUOUS
10
7.17273
20
-4.40699
11
7.17443
21
-4.40443
0
LINE
8
BLACK
6
CONTINUOUS
10
7.17443
20
-4.40443
11
7.17699
21
-4.40273
0
LINE
8
BLACK
6
CONTINUOUS
10
7.17699
20
-4.40273
11
7.18
21
-4.40213
0
LINE
8
BLACK
6
CONTINUOUS
10
7.18
20
-4.40213
11
7.24
21
-4.40213
0
LINE
8
BLACK
6
CONTINUOUS
10
7.24
20
-4.40213
11
7.24301
21
-4.40273
0
LINE
8
BLACK
6
CONTINUOUS
10
7.24301
20
-4.40273
11
7.24557
21
-4.40443
0
LINE
8
BLACK
6
CONTINUOUS
10
7.24557
20
-4.40443
11
7.24727
21
-4.40699
0
LINE
8
BLACK
6
CONTINUOUS
10
7.24727
20
-4.40699
11
7.24787
21
-4.41
0
LINE
8
BLACK
6
CONTINUOUS
10
7.24787
20
-4.41
11
7.24787
21
-4.47
0
LINE
8
BLACK
6
CONTINUOUS
10
7.24787
20
-4.47
11
7.24727
21
-4.47301
0
LINE
8
BLACK
6
CONTINUOUS
10
7.24727
20
-4.47301
11
7.24557
21
-4.47557
0
LINE
8
BLACK
6
CONTINUOUS
10
7.24557
20
-4.47557
11
7.24301
21
-4.47727
0
LINE
8
BLACK
6
CONTINUOUS
10
7.24301
20
-4.47727
11
7.24
21
-4.47787
0
LINE
8
BLACK
6
CONTINUOUS
10
7.24
20
-4.47787
11
7.18
21
-4.47787
0
LINE
8
BLACK
6
CONTINUOUS
10
7.18
20
-4.47787
11
7.17699
21
-4.47727
0
LINE
8
BLACK
6
CONTINUOUS
10
7.17699
20
-4.47727
11
7.17443
21
-4.47557
0
LINE
8
BLACK
6
CONTINUOUS
10
7.17443
20
-4.47557
11
7.17273
21
-4.47301
0
LINE
8
BLACK
6
CONTINUOUS
10
7.17273
20
-4.47301
11
7.17213
21
-4.47
0
LINE
8
BLACK
6
CONTINUOUS
10
7.17213
20
-4.47
11
7.17213
21
-4.41
0
LINE
8
BLACK
6
CONTINUOUS
10
7.07213
20
-4.51
11
7.07273
21
-4.50699
0
LINE
8
BLACK
6
CONTINUOUS
10
7.07273
20
-4.50699
11
7.07443
21
-4.50443
0
LINE
8
BLACK
6
CONTINUOUS
10
7.07443
20
-4.50443
11
7.07699
21
-4.50273
0
LINE
8
BLACK
6
CONTINUOUS
10
7.07699
20
-4.50273
11
7.08
21
-4.50213
0
LINE
8
BLACK
6
CONTINUOUS
10
7.08
20
-4.50213
11
7.14
21
-4.50213
0
LINE
8
BLACK
6
CONTINUOUS
10
7.14
20
-4.50213
11
7.14301
21
-4.50273
0
LINE
8
BLACK
6
CONTINUOUS
10
7.14301
20
-4.50273
11
7.14557
21
-4.50443
0
LINE
8
BLACK
6
CONTINUOUS
10
7.14557
20
-4.50443
11
7.14727
21
-4.50699
0
LINE
8
BLACK
6
CONTINUOUS
10
7.14727
20
-4.50699
11
7.14787
21
-4.51
0
LINE
8
BLACK
6
CONTINUOUS
10
7.14787
20
-4.51
11
7.14787
21
-4.57
0
LINE
8
BLACK
6
CONTINUOUS
10
7.14787
20
-4.57
11
7.14727
21
-4.57301
0
LINE
8
BLACK
6
CONTINUOUS
10
7.14727
20
-4.57301
11
7.14557
21
-4.57557
0
LINE
8
BLACK
6
CONTINUOUS
10
7.14557
20
-4.57557
11
7.14301
21
-4.57727
0
LINE
8
BLACK
6
CONTINUOUS
10
7.14301
20
-4.57727
11
7.14
21
-4.57787
0
LINE
8
BLACK
6
CONTINUOUS
10
7.14
20
-4.57787
11
7.08
21
-4.57787
0
LINE
8
BLACK
6
CONTINUOUS
10
7.08
20
-4.57787
11
7.07699
21
-4.57727
0
LINE
8
BLACK
6
CONTINUOUS
10
7.07699
20
-4.57727
11
7.07443
21
-4.57557
0
LINE
8
BLACK
6
CONTINUOUS
10
7.07443
20
-4.57557
11
7.07273
21
-4.57301
0
LINE
8
BLACK
6
CONTINUOUS
10
7.07273
20
-4.57301
11
7.07213
21
-4.57
0
LINE
8
BLACK
6
CONTINUOUS
10
7.07213
20
-4.57
11
7.07213
21
-4.51
0
LINE
8
BLACK
6
CONTINUOUS
10
7.17213
20
-4.51
11
7.17273
21
-4.50699
0
LINE
8
BLACK
6
CONTINUOUS
10
7.17273
20
-4.50699
11
7.17443
21
-4.50443
0
LINE
8
BLACK
6
CONTINUOUS
10
7.17443
20
-4.50443
11
7.17699
21
-4.50273
0
LINE
8
BLACK
6
CONTINUOUS
10
7.17699
20
-4.50273
11
7.18
21
-4.50213
0
LINE
8
BLACK
6
CONTINUOUS
10
7.18
20
-4.50213
11
7.24
21
-4.50213
0
LINE
8
BLACK
6
CONTINUOUS
10
7.24
20
-4.50213
11
7.24301
21
-4.50273
0
LINE
8
BLACK
6
CONTINUOUS
10
7.24301
20
-4.50273
11
7.24557
21
-4.50443
0
LINE
8
BLACK
6
CONTINUOUS
10
7.24557
20
-4.50443
11
7.24727
21
-4.50699
0
LINE
8
BLACK
6
CONTINUOUS
10
7.24727
20
-4.50699
11
7.24787
21
-4.51
0
LINE
8
BLACK
6
CONTINUOUS
10
7.24787
20
-4.51
11
7.24787
21
-4.57
0
LINE
8
BLACK
6
CONTINUOUS
10
7.24787
20
-4.57
11
7.24727
21
-4.57301
0
LINE
8
BLACK
6
CONTINUOUS
10
7.24727
20
-4.57301
11
7.24557
21
-4.57557
0
LINE
8
BLACK
6
CONTINUOUS
10
7.24557
20
-4.57557
11
7.24301
21
-4.57727
0
LINE
8
BLACK
6
CONTINUOUS
10
7.24301
20
-4.57727
11
7.24
21
-4.57787
0
LINE
8
BLACK
6
CONTINUOUS
10
7.24
20
-4.57787
11
7.18
21
-4.57787
0
LINE
8
BLACK
6
CONTINUOUS
10
7.18
20
-4.57787
11
7.17699
21
-4.57727
0
LINE
8
BLACK
6
CONTINUOUS
10
7.17699
20
-4.57727
11
7.17443
21
-4.57557
0
LINE
8
BLACK
6
CONTINUOUS
10
7.17443
20
-4.57557
11
7.17273
21
-4.57301
0
LINE
8
BLACK
6
CONTINUOUS
10
7.17273
20
-4.57301
11
7.17213
21
-4.57
0
LINE
8
BLACK
6
CONTINUOUS
10
7.17213
20
-4.57
11
7.17213
21
-4.51
0
CIRCLE
8
BLACK
10
7.09
20
-5.44
40
0.0610236
0
CIRCLE
8
BLACK
10
7.25
20
-5.44
40
0.0610236
  0
ENDSEC
  0
EOF
