  0
SECTION
  2
HEADER
  9
$ANGBASE
  50
0.0
  9
$ANGDIR
  70
1
  9
$MEASUREMENT
  70
0
  0
ENDSEC
  0
SECTION
  2
TABLES
  0
TABLE
  2
LTYPE
  70
4
  0
LTYPE
  5
40F
  2
CONTINUOUS
  70
0
  3
Solid line
  72
65
  73
0
  40
0.0
  0
LTYPE
  5
410
  2
DASHDOT
 70
0
  3
Dash Dot ____ _ ____ _
 72
65
 73
4
 40
2.0
 49
1.25
 49
-0.25
 49
0.25
 49
-0.25
  0
LTYPE
  5
411
  2
DASHED
 70
0
  3
Dashed __ __ __ __ __
 72
65
 73
2
 40
0.75
 49
0.5
 49
-0.25
  0
LTYPE
  5
43B
  2
DOTTED
 70
0
  3
Dotted .  .  .  .
 72
65
 73
2
 40
0.2
 49
0.0
 49
-0.2
  0
ENDTAB
  0
TABLE
  2
STYLE
  70
4
  0
STYLE
  2
KICAD
  70
0
  40
0
  41
1
  42
1
  50
0
  71
0
  3
isocp.shx
  0
STYLE
  2
KICADB
  70
0
  40
0
  41
1
  42
1
  50
0
  71
0
  3
isocp.shx
  0
STYLE
  2
KICADI
  70
0
  40
0
  41
1
  42
1
  50
15
  71
0
  3
isocp.shx
  0
STYLE
  2
KICADBI
  70
0
  40
0
  41
1
  42
1
  50
15
  71
0
  3
isocp.shx
  0
ENDTAB
  0
TABLE
  2
LAYER
  70
1
  0
LAYER
  2
BLACK
  70
0
  62
7
  6
CONTINUOUS
  0
ENDTAB
  0
ENDSEC
  0
SECTION
  2
ENTITIES
0
LINE
8
BLACK
6
CONTINUOUS
10
6.22034
20
-4.02305
11
6.22143
21
-4.02143
0
LINE
8
BLACK
6
CONTINUOUS
10
6.22143
20
-4.02143
11
6.22305
21
-4.02034
0
LINE
8
BLACK
6
CONTINUOUS
10
6.22305
20
-4.02034
11
6.22496
21
-4.01996
0
LINE
8
BLACK
6
CONTINUOUS
10
6.22496
20
-4.01996
11
8.55504
21
-4.01996
0
LINE
8
BLACK
6
CONTINUOUS
10
8.55504
20
-4.01996
11
8.55695
21
-4.02034
0
LINE
8
BLACK
6
CONTINUOUS
10
8.55695
20
-4.02034
11
8.55857
21
-4.02143
0
LINE
8
BLACK
6
CONTINUOUS
10
8.55857
20
-4.02143
11
8.55966
21
-4.02305
0
LINE
8
BLACK
6
CONTINUOUS
10
8.55966
20
-4.02305
11
8.56004
21
-4.02496
0
LINE
8
BLACK
6
CONTINUOUS
10
8.56004
20
-4.02496
11
8.56004
21
-5.55504
0
LINE
8
BLACK
6
CONTINUOUS
10
8.56004
20
-5.55504
11
8.55966
21
-5.55695
0
LINE
8
BLACK
6
CONTINUOUS
10
8.55966
20
-5.55695
11
8.55857
21
-5.55857
0
LINE
8
BLACK
6
CONTINUOUS
10
8.55857
20
-5.55857
11
8.55695
21
-5.55966
0
LINE
8
BLACK
6
CONTINUOUS
10
8.55695
20
-5.55966
11
8.55504
21
-5.56004
0
LINE
8
BLACK
6
CONTINUOUS
10
8.55504
20
-5.56004
11
6.22496
21
-5.56004
0
LINE
8
BLACK
6
CONTINUOUS
10
6.22496
20
-5.56004
11
6.22305
21
-5.55966
0
LINE
8
BLACK
6
CONTINUOUS
10
6.22305
20
-5.55966
11
6.22143
21
-5.55857
0
LINE
8
BLACK
6
CONTINUOUS
10
6.22143
20
-5.55857
11
6.22034
21
-5.55695
0
LINE
8
BLACK
6
CONTINUOUS
10
6.22034
20
-5.55695
11
6.21996
21
-5.55504
0
LINE
8
BLACK
6
CONTINUOUS
10
6.21996
20
-5.55504
11
6.21996
21
-4.02496
0
LINE
8
BLACK
6
CONTINUOUS
10
6.21996
20
-4.02496
11
6.22034
21
-4.02305
0
LINE
8
BLACK
6
CONTINUOUS
10
6.84697
20
-4.82553
11
6.85307
21
-4.82905
0
LINE
8
BLACK
6
CONTINUOUS
10
6.85307
20
-4.82905
11
6.86
21
-4.83027
0
LINE
8
BLACK
6
CONTINUOUS
10
6.86
20
-4.83027
11
6.91999
21
-4.83027
0
LINE
8
BLACK
6
CONTINUOUS
10
6.91999
20
-4.83027
11
6.93014
21
-4.82755
0
LINE
8
BLACK
6
CONTINUOUS
10
6.93014
20
-4.82755
11
6.93553
21
-4.82303
0
LINE
8
BLACK
6
CONTINUOUS
10
6.93553
20
-4.82303
11
6.93905
21
-4.81693
0
LINE
8
BLACK
6
CONTINUOUS
10
6.93905
20
-4.81693
11
6.94027
21
-4.81
0
LINE
8
BLACK
6
CONTINUOUS
10
6.94027
20
-4.81
11
6.94027
21
-4.75001
0
LINE
8
BLACK
6
CONTINUOUS
10
6.94027
20
-4.75001
11
6.93755
21
-4.73986
0
LINE
8
BLACK
6
CONTINUOUS
10
6.93755
20
-4.73986
11
6.93303
21
-4.73447
0
LINE
8
BLACK
6
CONTINUOUS
10
6.93303
20
-4.73447
11
6.93261
21
-4.73423
0
LINE
8
BLACK
6
CONTINUOUS
10
6.93261
20
-4.73423
11
6.93115
21
-4.73295
0
LINE
8
BLACK
6
CONTINUOUS
10
6.93115
20
-4.73295
11
6.93028
21
-4.7312
0
LINE
8
BLACK
6
CONTINUOUS
10
6.93028
20
-4.7312
11
6.93016
21
-4.72925
0
LINE
8
BLACK
6
CONTINUOUS
10
6.93016
20
-4.72925
11
6.93078
21
-4.7274
0
LINE
8
BLACK
6
CONTINUOUS
10
6.93078
20
-4.7274
11
6.9319
21
-4.72607
0
LINE
8
BLACK
6
CONTINUOUS
10
6.9319
20
-4.72607
11
6.93553
21
-4.72303
0
LINE
8
BLACK
6
CONTINUOUS
10
6.93553
20
-4.72303
11
6.93905
21
-4.71693
0
LINE
8
BLACK
6
CONTINUOUS
10
6.93905
20
-4.71693
11
6.94027
21
-4.71
0
LINE
8
BLACK
6
CONTINUOUS
10
6.94027
20
-4.71
11
6.94027
21
-4.69004
0
LINE
8
BLACK
6
CONTINUOUS
10
6.94027
20
-4.69004
11
6.92
21
-4.69004
0
LINE
8
BLACK
6
CONTINUOUS
10
6.92
20
-4.69004
11
6.92
21
-4.71
0
LINE
8
BLACK
6
CONTINUOUS
10
6.92
20
-4.71
11
6.86
21
-4.71
0
LINE
8
BLACK
6
CONTINUOUS
10
6.86
20
-4.71
11
6.86
21
-4.69004
0
LINE
8
BLACK
6
CONTINUOUS
10
6.86
20
-4.69004
11
6.83973
21
-4.69004
0
LINE
8
BLACK
6
CONTINUOUS
10
6.83973
20
-4.69004
11
6.83973
21
-4.70999
0
LINE
8
BLACK
6
CONTINUOUS
10
6.83973
20
-4.70999
11
6.84245
21
-4.72014
0
LINE
8
BLACK
6
CONTINUOUS
10
6.84245
20
-4.72014
11
6.84697
21
-4.72553
0
LINE
8
BLACK
6
CONTINUOUS
10
6.84697
20
-4.72553
11
6.84739
21
-4.72577
0
LINE
8
BLACK
6
CONTINUOUS
10
6.84739
20
-4.72577
11
6.84885
21
-4.72705
0
LINE
8
BLACK
6
CONTINUOUS
10
6.84885
20
-4.72705
11
6.84972
21
-4.7288
0
LINE
8
BLACK
6
CONTINUOUS
10
6.84972
20
-4.7288
11
6.84984
21
-4.73075
0
LINE
8
BLACK
6
CONTINUOUS
10
6.84984
20
-4.73075
11
6.84922
21
-4.7326
0
LINE
8
BLACK
6
CONTINUOUS
10
6.84922
20
-4.7326
11
6.8481
21
-4.73393
0
LINE
8
BLACK
6
CONTINUOUS
10
6.8481
20
-4.73393
11
6.84447
21
-4.73697
0
LINE
8
BLACK
6
CONTINUOUS
10
6.84447
20
-4.73697
11
6.84095
21
-4.74307
0
LINE
8
BLACK
6
CONTINUOUS
10
6.84095
20
-4.74307
11
6.83973
21
-4.75
0
LINE
8
BLACK
6
CONTINUOUS
10
6.83973
20
-4.75
11
6.83973
21
-4.80999
0
LINE
8
BLACK
6
CONTINUOUS
10
6.83973
20
-4.80999
11
6.84245
21
-4.82014
0
LINE
8
BLACK
6
CONTINUOUS
10
6.84245
20
-4.82014
11
6.84697
21
-4.82553
0
LINE
8
BLACK
6
CONTINUOUS
10
6.60396
20
-5.51711
11
6.61005
21
-5.52063
0
LINE
8
BLACK
6
CONTINUOUS
10
6.61005
20
-5.52063
11
6.61699
21
-5.52185
0
LINE
8
BLACK
6
CONTINUOUS
10
6.61699
20
-5.52185
11
6.63994
21
-5.52185
0
LINE
8
BLACK
6
CONTINUOUS
10
6.63994
20
-5.52185
11
6.63994
21
-5.50158
0
LINE
8
BLACK
6
CONTINUOUS
10
6.63994
20
-5.50158
11
6.61698
21
-5.50158
0
LINE
8
BLACK
6
CONTINUOUS
10
6.61698
20
-5.50158
11
6.61698
21
-5.47862
0
LINE
8
BLACK
6
CONTINUOUS
10
6.61698
20
-5.47862
11
6.59672
21
-5.47862
0
LINE
8
BLACK
6
CONTINUOUS
10
6.59672
20
-5.47862
11
6.59672
21
-5.50158
0
LINE
8
BLACK
6
CONTINUOUS
10
6.59672
20
-5.50158
11
6.59943
21
-5.51172
0
LINE
8
BLACK
6
CONTINUOUS
10
6.59943
20
-5.51172
11
6.60396
21
-5.51711
0
LINE
8
BLACK
6
CONTINUOUS
10
6.85199
20
-5.51711
11
6.85808
21
-5.52063
0
LINE
8
BLACK
6
CONTINUOUS
10
6.85808
20
-5.52063
11
6.86502
21
-5.52185
0
LINE
8
BLACK
6
CONTINUOUS
10
6.86502
20
-5.52185
11
6.88798
21
-5.52185
0
LINE
8
BLACK
6
CONTINUOUS
10
6.88798
20
-5.52185
11
6.88798
21
-5.50158
0
LINE
8
BLACK
6
CONTINUOUS
10
6.88798
20
-5.50158
11
6.86502
21
-5.50158
0
LINE
8
BLACK
6
CONTINUOUS
10
6.86502
20
-5.50158
11
6.86502
21
-5.47862
0
LINE
8
BLACK
6
CONTINUOUS
10
6.86502
20
-5.47862
11
6.84475
21
-5.47862
0
LINE
8
BLACK
6
CONTINUOUS
10
6.84475
20
-5.47862
11
6.84475
21
-5.50158
0
LINE
8
BLACK
6
CONTINUOUS
10
6.84475
20
-5.50158
11
6.84746
21
-5.51172
0
LINE
8
BLACK
6
CONTINUOUS
10
6.84746
20
-5.51172
11
6.85199
21
-5.51711
0
LINE
8
BLACK
6
CONTINUOUS
10
6.93102
20
-5.47862
11
6.93102
21
-5.50158
0
LINE
8
BLACK
6
CONTINUOUS
10
6.93102
20
-5.50158
11
6.90806
21
-5.50158
0
LINE
8
BLACK
6
CONTINUOUS
10
6.90806
20
-5.50158
11
6.90806
21
-5.52185
0
LINE
8
BLACK
6
CONTINUOUS
10
6.90806
20
-5.52185
11
6.93101
21
-5.52185
0
LINE
8
BLACK
6
CONTINUOUS
10
6.93101
20
-5.52185
11
6.94115
21
-5.51913
0
LINE
8
BLACK
6
CONTINUOUS
10
6.94115
20
-5.51913
11
6.94654
21
-5.51461
0
LINE
8
BLACK
6
CONTINUOUS
10
6.94654
20
-5.51461
11
6.95006
21
-5.50852
0
LINE
8
BLACK
6
CONTINUOUS
10
6.95006
20
-5.50852
11
6.95128
21
-5.50158
0
LINE
8
BLACK
6
CONTINUOUS
10
6.95128
20
-5.50158
11
6.95128
21
-5.47862
0
LINE
8
BLACK
6
CONTINUOUS
10
6.95128
20
-5.47862
11
6.93102
21
-5.47862
0
LINE
8
BLACK
6
CONTINUOUS
10
6.43014
20
-5.19755
11
6.43553
21
-5.19303
0
LINE
8
BLACK
6
CONTINUOUS
10
6.43553
20
-5.19303
11
6.43905
21
-5.18693
0
LINE
8
BLACK
6
CONTINUOUS
10
6.43905
20
-5.18693
11
6.44027
21
-5.18
0
LINE
8
BLACK
6
CONTINUOUS
10
6.44027
20
-5.18
11
6.44027
21
-5.16004
0
LINE
8
BLACK
6
CONTINUOUS
10
6.44027
20
-5.16004
11
6.42
21
-5.16004
0
LINE
8
BLACK
6
CONTINUOUS
10
6.42
20
-5.16004
11
6.42
21
-5.18
0
LINE
8
BLACK
6
CONTINUOUS
10
6.42
20
-5.18
11
6.40004
21
-5.18
0
LINE
8
BLACK
6
CONTINUOUS
10
6.40004
20
-5.18
11
6.40004
21
-5.20027
0
LINE
8
BLACK
6
CONTINUOUS
10
6.40004
20
-5.20027
11
6.41999
21
-5.20027
0
LINE
8
BLACK
6
CONTINUOUS
10
6.41999
20
-5.20027
11
6.43014
21
-5.19755
0
LINE
8
BLACK
6
CONTINUOUS
10
8.34697
20
-5.18553
11
8.35307
21
-5.18905
0
LINE
8
BLACK
6
CONTINUOUS
10
8.35307
20
-5.18905
11
8.36
21
-5.19027
0
LINE
8
BLACK
6
CONTINUOUS
10
8.36
20
-5.19027
11
8.41999
21
-5.19027
0
LINE
8
BLACK
6
CONTINUOUS
10
8.41999
20
-5.19027
11
8.43014
21
-5.18755
0
LINE
8
BLACK
6
CONTINUOUS
10
8.43014
20
-5.18755
11
8.43553
21
-5.18303
0
LINE
8
BLACK
6
CONTINUOUS
10
8.43553
20
-5.18303
11
8.43577
21
-5.18261
0
LINE
8
BLACK
6
CONTINUOUS
10
8.43577
20
-5.18261
11
8.43705
21
-5.18115
0
LINE
8
BLACK
6
CONTINUOUS
10
8.43705
20
-5.18115
11
8.4388
21
-5.18028
0
LINE
8
BLACK
6
CONTINUOUS
10
8.4388
20
-5.18028
11
8.44075
21
-5.18016
0
LINE
8
BLACK
6
CONTINUOUS
10
8.44075
20
-5.18016
11
8.4426
21
-5.18078
0
LINE
8
BLACK
6
CONTINUOUS
10
8.4426
20
-5.18078
11
8.44393
21
-5.1819
0
LINE
8
BLACK
6
CONTINUOUS
10
8.44393
20
-5.1819
11
8.44697
21
-5.18553
0
LINE
8
BLACK
6
CONTINUOUS
10
8.44697
20
-5.18553
11
8.45307
21
-5.18905
0
LINE
8
BLACK
6
CONTINUOUS
10
8.45307
20
-5.18905
11
8.46
21
-5.19027
0
LINE
8
BLACK
6
CONTINUOUS
10
8.46
20
-5.19027
11
8.51999
21
-5.19027
0
LINE
8
BLACK
6
CONTINUOUS
10
8.51999
20
-5.19027
11
8.53014
21
-5.18755
0
LINE
8
BLACK
6
CONTINUOUS
10
8.53014
20
-5.18755
11
8.53553
21
-5.18303
0
LINE
8
BLACK
6
CONTINUOUS
10
8.53553
20
-5.18303
11
8.53905
21
-5.17693
0
LINE
8
BLACK
6
CONTINUOUS
10
8.53905
20
-5.17693
11
8.54027
21
-5.17
0
LINE
8
BLACK
6
CONTINUOUS
10
8.54027
20
-5.17
11
8.54027
21
-5.11001
0
LINE
8
BLACK
6
CONTINUOUS
10
8.54027
20
-5.11001
11
8.53755
21
-5.09986
0
LINE
8
BLACK
6
CONTINUOUS
10
8.53755
20
-5.09986
11
8.53303
21
-5.09447
0
LINE
8
BLACK
6
CONTINUOUS
10
8.53303
20
-5.09447
11
8.53261
21
-5.09423
0
LINE
8
BLACK
6
CONTINUOUS
10
8.53261
20
-5.09423
11
8.53115
21
-5.09295
0
LINE
8
BLACK
6
CONTINUOUS
10
8.53115
20
-5.09295
11
8.53028
21
-5.0912
0
LINE
8
BLACK
6
CONTINUOUS
10
8.53028
20
-5.0912
11
8.53016
21
-5.08925
0
LINE
8
BLACK
6
CONTINUOUS
10
8.53016
20
-5.08925
11
8.53078
21
-5.0874
0
LINE
8
BLACK
6
CONTINUOUS
10
8.53078
20
-5.0874
11
8.5319
21
-5.08607
0
LINE
8
BLACK
6
CONTINUOUS
10
8.5319
20
-5.08607
11
8.53553
21
-5.08303
0
LINE
8
BLACK
6
CONTINUOUS
10
8.53553
20
-5.08303
11
8.53905
21
-5.07693
0
LINE
8
BLACK
6
CONTINUOUS
10
8.53905
20
-5.07693
11
8.54027
21
-5.07
0
LINE
8
BLACK
6
CONTINUOUS
10
8.54027
20
-5.07
11
8.54027
21
-5.01001
0
LINE
8
BLACK
6
CONTINUOUS
10
8.54027
20
-5.01001
11
8.53755
21
-4.99986
0
LINE
8
BLACK
6
CONTINUOUS
10
8.53755
20
-4.99986
11
8.53303
21
-4.99447
0
LINE
8
BLACK
6
CONTINUOUS
10
8.53303
20
-4.99447
11
8.53261
21
-4.99423
0
LINE
8
BLACK
6
CONTINUOUS
10
8.53261
20
-4.99423
11
8.53115
21
-4.99295
0
LINE
8
BLACK
6
CONTINUOUS
10
8.53115
20
-4.99295
11
8.53028
21
-4.9912
0
LINE
8
BLACK
6
CONTINUOUS
10
8.53028
20
-4.9912
11
8.53016
21
-4.98925
0
LINE
8
BLACK
6
CONTINUOUS
10
8.53016
20
-4.98925
11
8.53078
21
-4.9874
0
LINE
8
BLACK
6
CONTINUOUS
10
8.53078
20
-4.9874
11
8.5319
21
-4.98607
0
LINE
8
BLACK
6
CONTINUOUS
10
8.5319
20
-4.98607
11
8.53553
21
-4.98303
0
LINE
8
BLACK
6
CONTINUOUS
10
8.53553
20
-4.98303
11
8.53905
21
-4.97693
0
LINE
8
BLACK
6
CONTINUOUS
10
8.53905
20
-4.97693
11
8.54027
21
-4.97
0
LINE
8
BLACK
6
CONTINUOUS
10
8.54027
20
-4.97
11
8.54027
21
-4.91001
0
LINE
8
BLACK
6
CONTINUOUS
10
8.54027
20
-4.91001
11
8.53755
21
-4.89986
0
LINE
8
BLACK
6
CONTINUOUS
10
8.53755
20
-4.89986
11
8.53303
21
-4.89447
0
LINE
8
BLACK
6
CONTINUOUS
10
8.53303
20
-4.89447
11
8.53261
21
-4.89423
0
LINE
8
BLACK
6
CONTINUOUS
10
8.53261
20
-4.89423
11
8.53115
21
-4.89295
0
LINE
8
BLACK
6
CONTINUOUS
10
8.53115
20
-4.89295
11
8.53028
21
-4.8912
0
LINE
8
BLACK
6
CONTINUOUS
10
8.53028
20
-4.8912
11
8.53016
21
-4.88925
0
LINE
8
BLACK
6
CONTINUOUS
10
8.53016
20
-4.88925
11
8.53078
21
-4.8874
0
LINE
8
BLACK
6
CONTINUOUS
10
8.53078
20
-4.8874
11
8.5319
21
-4.88607
0
LINE
8
BLACK
6
CONTINUOUS
10
8.5319
20
-4.88607
11
8.53553
21
-4.88303
0
LINE
8
BLACK
6
CONTINUOUS
10
8.53553
20
-4.88303
11
8.53905
21
-4.87693
0
LINE
8
BLACK
6
CONTINUOUS
10
8.53905
20
-4.87693
11
8.54027
21
-4.87
0
LINE
8
BLACK
6
CONTINUOUS
10
8.54027
20
-4.87
11
8.54027
21
-4.81001
0
LINE
8
BLACK
6
CONTINUOUS
10
8.54027
20
-4.81001
11
8.53755
21
-4.79986
0
LINE
8
BLACK
6
CONTINUOUS
10
8.53755
20
-4.79986
11
8.53303
21
-4.79447
0
LINE
8
BLACK
6
CONTINUOUS
10
8.53303
20
-4.79447
11
8.53261
21
-4.79423
0
LINE
8
BLACK
6
CONTINUOUS
10
8.53261
20
-4.79423
11
8.53115
21
-4.79295
0
LINE
8
BLACK
6
CONTINUOUS
10
8.53115
20
-4.79295
11
8.53028
21
-4.7912
0
LINE
8
BLACK
6
CONTINUOUS
10
8.53028
20
-4.7912
11
8.53016
21
-4.78925
0
LINE
8
BLACK
6
CONTINUOUS
10
8.53016
20
-4.78925
11
8.53078
21
-4.7874
0
LINE
8
BLACK
6
CONTINUOUS
10
8.53078
20
-4.7874
11
8.5319
21
-4.78607
0
LINE
8
BLACK
6
CONTINUOUS
10
8.5319
20
-4.78607
11
8.53553
21
-4.78303
0
LINE
8
BLACK
6
CONTINUOUS
10
8.53553
20
-4.78303
11
8.53905
21
-4.77693
0
LINE
8
BLACK
6
CONTINUOUS
10
8.53905
20
-4.77693
11
8.54027
21
-4.77
0
LINE
8
BLACK
6
CONTINUOUS
10
8.54027
20
-4.77
11
8.54027
21
-4.71001
0
LINE
8
BLACK
6
CONTINUOUS
10
8.54027
20
-4.71001
11
8.53755
21
-4.69986
0
LINE
8
BLACK
6
CONTINUOUS
10
8.53755
20
-4.69986
11
8.53303
21
-4.69447
0
LINE
8
BLACK
6
CONTINUOUS
10
8.53303
20
-4.69447
11
8.53261
21
-4.69423
0
LINE
8
BLACK
6
CONTINUOUS
10
8.53261
20
-4.69423
11
8.53115
21
-4.69295
0
LINE
8
BLACK
6
CONTINUOUS
10
8.53115
20
-4.69295
11
8.53028
21
-4.6912
0
LINE
8
BLACK
6
CONTINUOUS
10
8.53028
20
-4.6912
11
8.53016
21
-4.68925
0
LINE
8
BLACK
6
CONTINUOUS
10
8.53016
20
-4.68925
11
8.53078
21
-4.6874
0
LINE
8
BLACK
6
CONTINUOUS
10
8.53078
20
-4.6874
11
8.5319
21
-4.68607
0
LINE
8
BLACK
6
CONTINUOUS
10
8.5319
20
-4.68607
11
8.53553
21
-4.68303
0
LINE
8
BLACK
6
CONTINUOUS
10
8.53553
20
-4.68303
11
8.53905
21
-4.67693
0
LINE
8
BLACK
6
CONTINUOUS
10
8.53905
20
-4.67693
11
8.54027
21
-4.67
0
LINE
8
BLACK
6
CONTINUOUS
10
8.54027
20
-4.67
11
8.54027
21
-4.61001
0
LINE
8
BLACK
6
CONTINUOUS
10
8.54027
20
-4.61001
11
8.53755
21
-4.59986
0
LINE
8
BLACK
6
CONTINUOUS
10
8.53755
20
-4.59986
11
8.53303
21
-4.59447
0
LINE
8
BLACK
6
CONTINUOUS
10
8.53303
20
-4.59447
11
8.53261
21
-4.59423
0
LINE
8
BLACK
6
CONTINUOUS
10
8.53261
20
-4.59423
11
8.53115
21
-4.59295
0
LINE
8
BLACK
6
CONTINUOUS
10
8.53115
20
-4.59295
11
8.53028
21
-4.5912
0
LINE
8
BLACK
6
CONTINUOUS
10
8.53028
20
-4.5912
11
8.53016
21
-4.58925
0
LINE
8
BLACK
6
CONTINUOUS
10
8.53016
20
-4.58925
11
8.53078
21
-4.5874
0
LINE
8
BLACK
6
CONTINUOUS
10
8.53078
20
-4.5874
11
8.5319
21
-4.58607
0
LINE
8
BLACK
6
CONTINUOUS
10
8.5319
20
-4.58607
11
8.53553
21
-4.58303
0
LINE
8
BLACK
6
CONTINUOUS
10
8.53553
20
-4.58303
11
8.53905
21
-4.57693
0
LINE
8
BLACK
6
CONTINUOUS
10
8.53905
20
-4.57693
11
8.54027
21
-4.57
0
LINE
8
BLACK
6
CONTINUOUS
10
8.54027
20
-4.57
11
8.54027
21
-4.51001
0
LINE
8
BLACK
6
CONTINUOUS
10
8.54027
20
-4.51001
11
8.53755
21
-4.49986
0
LINE
8
BLACK
6
CONTINUOUS
10
8.53755
20
-4.49986
11
8.53303
21
-4.49447
0
LINE
8
BLACK
6
CONTINUOUS
10
8.53303
20
-4.49447
11
8.53261
21
-4.49423
0
LINE
8
BLACK
6
CONTINUOUS
10
8.53261
20
-4.49423
11
8.53115
21
-4.49295
0
LINE
8
BLACK
6
CONTINUOUS
10
8.53115
20
-4.49295
11
8.53028
21
-4.4912
0
LINE
8
BLACK
6
CONTINUOUS
10
8.53028
20
-4.4912
11
8.53016
21
-4.48925
0
LINE
8
BLACK
6
CONTINUOUS
10
8.53016
20
-4.48925
11
8.53078
21
-4.4874
0
LINE
8
BLACK
6
CONTINUOUS
10
8.53078
20
-4.4874
11
8.5319
21
-4.48607
0
LINE
8
BLACK
6
CONTINUOUS
10
8.5319
20
-4.48607
11
8.53553
21
-4.48303
0
LINE
8
BLACK
6
CONTINUOUS
10
8.53553
20
-4.48303
11
8.53905
21
-4.47693
0
LINE
8
BLACK
6
CONTINUOUS
10
8.53905
20
-4.47693
11
8.54027
21
-4.47
0
LINE
8
BLACK
6
CONTINUOUS
10
8.54027
20
-4.47
11
8.54027
21
-4.41001
0
LINE
8
BLACK
6
CONTINUOUS
10
8.54027
20
-4.41001
11
8.53755
21
-4.39986
0
LINE
8
BLACK
6
CONTINUOUS
10
8.53755
20
-4.39986
11
8.53303
21
-4.39447
0
LINE
8
BLACK
6
CONTINUOUS
10
8.53303
20
-4.39447
11
8.52693
21
-4.39095
0
LINE
8
BLACK
6
CONTINUOUS
10
8.52693
20
-4.39095
11
8.52
21
-4.38973
0
LINE
8
BLACK
6
CONTINUOUS
10
8.52
20
-4.38973
11
8.46001
21
-4.38973
0
LINE
8
BLACK
6
CONTINUOUS
10
8.46001
20
-4.38973
11
8.44986
21
-4.39245
0
LINE
8
BLACK
6
CONTINUOUS
10
8.44986
20
-4.39245
11
8.44447
21
-4.39697
0
LINE
8
BLACK
6
CONTINUOUS
10
8.44447
20
-4.39697
11
8.44423
21
-4.39739
0
LINE
8
BLACK
6
CONTINUOUS
10
8.44423
20
-4.39739
11
8.44295
21
-4.39885
0
LINE
8
BLACK
6
CONTINUOUS
10
8.44295
20
-4.39885
11
8.4412
21
-4.39972
0
LINE
8
BLACK
6
CONTINUOUS
10
8.4412
20
-4.39972
11
8.43925
21
-4.39984
0
LINE
8
BLACK
6
CONTINUOUS
10
8.43925
20
-4.39984
11
8.4374
21
-4.39922
0
LINE
8
BLACK
6
CONTINUOUS
10
8.4374
20
-4.39922
11
8.43607
21
-4.3981
0
LINE
8
BLACK
6
CONTINUOUS
10
8.43607
20
-4.3981
11
8.43303
21
-4.39447
0
LINE
8
BLACK
6
CONTINUOUS
10
8.43303
20
-4.39447
11
8.42693
21
-4.39095
0
LINE
8
BLACK
6
CONTINUOUS
10
8.42693
20
-4.39095
11
8.42
21
-4.38973
0
LINE
8
BLACK
6
CONTINUOUS
10
8.42
20
-4.38973
11
8.36001
21
-4.38973
0
LINE
8
BLACK
6
CONTINUOUS
10
8.36001
20
-4.38973
11
8.34986
21
-4.39245
0
LINE
8
BLACK
6
CONTINUOUS
10
8.34986
20
-4.39245
11
8.34447
21
-4.39697
0
LINE
8
BLACK
6
CONTINUOUS
10
8.34447
20
-4.39697
11
8.34095
21
-4.40307
0
LINE
8
BLACK
6
CONTINUOUS
10
8.34095
20
-4.40307
11
8.33973
21
-4.41
0
LINE
8
BLACK
6
CONTINUOUS
10
8.33973
20
-4.41
11
8.33973
21
-4.46999
0
LINE
8
BLACK
6
CONTINUOUS
10
8.33973
20
-4.46999
11
8.34245
21
-4.48014
0
LINE
8
BLACK
6
CONTINUOUS
10
8.34245
20
-4.48014
11
8.34697
21
-4.48553
0
LINE
8
BLACK
6
CONTINUOUS
10
8.34697
20
-4.48553
11
8.34739
21
-4.48577
0
LINE
8
BLACK
6
CONTINUOUS
10
8.34739
20
-4.48577
11
8.34885
21
-4.48705
0
LINE
8
BLACK
6
CONTINUOUS
10
8.34885
20
-4.48705
11
8.34972
21
-4.4888
0
LINE
8
BLACK
6
CONTINUOUS
10
8.34972
20
-4.4888
11
8.34984
21
-4.49075
0
LINE
8
BLACK
6
CONTINUOUS
10
8.34984
20
-4.49075
11
8.34922
21
-4.4926
0
LINE
8
BLACK
6
CONTINUOUS
10
8.34922
20
-4.4926
11
8.3481
21
-4.49393
0
LINE
8
BLACK
6
CONTINUOUS
10
8.3481
20
-4.49393
11
8.34447
21
-4.49697
0
LINE
8
BLACK
6
CONTINUOUS
10
8.34447
20
-4.49697
11
8.34095
21
-4.50307
0
LINE
8
BLACK
6
CONTINUOUS
10
8.34095
20
-4.50307
11
8.33973
21
-4.51
0
LINE
8
BLACK
6
CONTINUOUS
10
8.33973
20
-4.51
11
8.33973
21
-4.56999
0
LINE
8
BLACK
6
CONTINUOUS
10
8.33973
20
-4.56999
11
8.34245
21
-4.58014
0
LINE
8
BLACK
6
CONTINUOUS
10
8.34245
20
-4.58014
11
8.34697
21
-4.58553
0
LINE
8
BLACK
6
CONTINUOUS
10
8.34697
20
-4.58553
11
8.34739
21
-4.58577
0
LINE
8
BLACK
6
CONTINUOUS
10
8.34739
20
-4.58577
11
8.34885
21
-4.58705
0
LINE
8
BLACK
6
CONTINUOUS
10
8.34885
20
-4.58705
11
8.34972
21
-4.5888
0
LINE
8
BLACK
6
CONTINUOUS
10
8.34972
20
-4.5888
11
8.34984
21
-4.59075
0
LINE
8
BLACK
6
CONTINUOUS
10
8.34984
20
-4.59075
11
8.34922
21
-4.5926
0
LINE
8
BLACK
6
CONTINUOUS
10
8.34922
20
-4.5926
11
8.3481
21
-4.59393
0
LINE
8
BLACK
6
CONTINUOUS
10
8.3481
20
-4.59393
11
8.34447
21
-4.59697
0
LINE
8
BLACK
6
CONTINUOUS
10
8.34447
20
-4.59697
11
8.34095
21
-4.60307
0
LINE
8
BLACK
6
CONTINUOUS
10
8.34095
20
-4.60307
11
8.33973
21
-4.61
0
LINE
8
BLACK
6
CONTINUOUS
10
8.33973
20
-4.61
11
8.33973
21
-4.66999
0
LINE
8
BLACK
6
CONTINUOUS
10
8.33973
20
-4.66999
11
8.34245
21
-4.68014
0
LINE
8
BLACK
6
CONTINUOUS
10
8.34245
20
-4.68014
11
8.34697
21
-4.68553
0
LINE
8
BLACK
6
CONTINUOUS
10
8.34697
20
-4.68553
11
8.34739
21
-4.68577
0
LINE
8
BLACK
6
CONTINUOUS
10
8.34739
20
-4.68577
11
8.34885
21
-4.68705
0
LINE
8
BLACK
6
CONTINUOUS
10
8.34885
20
-4.68705
11
8.34972
21
-4.6888
0
LINE
8
BLACK
6
CONTINUOUS
10
8.34972
20
-4.6888
11
8.34984
21
-4.69075
0
LINE
8
BLACK
6
CONTINUOUS
10
8.34984
20
-4.69075
11
8.34922
21
-4.6926
0
LINE
8
BLACK
6
CONTINUOUS
10
8.34922
20
-4.6926
11
8.3481
21
-4.69393
0
LINE
8
BLACK
6
CONTINUOUS
10
8.3481
20
-4.69393
11
8.34447
21
-4.69697
0
LINE
8
BLACK
6
CONTINUOUS
10
8.34447
20
-4.69697
11
8.34095
21
-4.70307
0
LINE
8
BLACK
6
CONTINUOUS
10
8.34095
20
-4.70307
11
8.33973
21
-4.71
0
LINE
8
BLACK
6
CONTINUOUS
10
8.33973
20
-4.71
11
8.33973
21
-4.76999
0
LINE
8
BLACK
6
CONTINUOUS
10
8.33973
20
-4.76999
11
8.34245
21
-4.78014
0
LINE
8
BLACK
6
CONTINUOUS
10
8.34245
20
-4.78014
11
8.34697
21
-4.78553
0
LINE
8
BLACK
6
CONTINUOUS
10
8.34697
20
-4.78553
11
8.34739
21
-4.78577
0
LINE
8
BLACK
6
CONTINUOUS
10
8.34739
20
-4.78577
11
8.34885
21
-4.78705
0
LINE
8
BLACK
6
CONTINUOUS
10
8.34885
20
-4.78705
11
8.34972
21
-4.7888
0
LINE
8
BLACK
6
CONTINUOUS
10
8.34972
20
-4.7888
11
8.34984
21
-4.79075
0
LINE
8
BLACK
6
CONTINUOUS
10
8.34984
20
-4.79075
11
8.34922
21
-4.7926
0
LINE
8
BLACK
6
CONTINUOUS
10
8.34922
20
-4.7926
11
8.3481
21
-4.79393
0
LINE
8
BLACK
6
CONTINUOUS
10
8.3481
20
-4.79393
11
8.34447
21
-4.79697
0
LINE
8
BLACK
6
CONTINUOUS
10
8.34447
20
-4.79697
11
8.34095
21
-4.80307
0
LINE
8
BLACK
6
CONTINUOUS
10
8.34095
20
-4.80307
11
8.33973
21
-4.81
0
LINE
8
BLACK
6
CONTINUOUS
10
8.33973
20
-4.81
11
8.33973
21
-4.86999
0
LINE
8
BLACK
6
CONTINUOUS
10
8.33973
20
-4.86999
11
8.34245
21
-4.88014
0
LINE
8
BLACK
6
CONTINUOUS
10
8.34245
20
-4.88014
11
8.34697
21
-4.88553
0
LINE
8
BLACK
6
CONTINUOUS
10
8.34697
20
-4.88553
11
8.34739
21
-4.88577
0
LINE
8
BLACK
6
CONTINUOUS
10
8.34739
20
-4.88577
11
8.34885
21
-4.88705
0
LINE
8
BLACK
6
CONTINUOUS
10
8.34885
20
-4.88705
11
8.34972
21
-4.8888
0
LINE
8
BLACK
6
CONTINUOUS
10
8.34972
20
-4.8888
11
8.34984
21
-4.89075
0
LINE
8
BLACK
6
CONTINUOUS
10
8.34984
20
-4.89075
11
8.34922
21
-4.8926
0
LINE
8
BLACK
6
CONTINUOUS
10
8.34922
20
-4.8926
11
8.3481
21
-4.89393
0
LINE
8
BLACK
6
CONTINUOUS
10
8.3481
20
-4.89393
11
8.34447
21
-4.89697
0
LINE
8
BLACK
6
CONTINUOUS
10
8.34447
20
-4.89697
11
8.34095
21
-4.90307
0
LINE
8
BLACK
6
CONTINUOUS
10
8.34095
20
-4.90307
11
8.33973
21
-4.91
0
LINE
8
BLACK
6
CONTINUOUS
10
8.33973
20
-4.91
11
8.33973
21
-4.96999
0
LINE
8
BLACK
6
CONTINUOUS
10
8.33973
20
-4.96999
11
8.34245
21
-4.98014
0
LINE
8
BLACK
6
CONTINUOUS
10
8.34245
20
-4.98014
11
8.34697
21
-4.98553
0
LINE
8
BLACK
6
CONTINUOUS
10
8.34697
20
-4.98553
11
8.34739
21
-4.98577
0
LINE
8
BLACK
6
CONTINUOUS
10
8.34739
20
-4.98577
11
8.34885
21
-4.98705
0
LINE
8
BLACK
6
CONTINUOUS
10
8.34885
20
-4.98705
11
8.34972
21
-4.9888
0
LINE
8
BLACK
6
CONTINUOUS
10
8.34972
20
-4.9888
11
8.34984
21
-4.99075
0
LINE
8
BLACK
6
CONTINUOUS
10
8.34984
20
-4.99075
11
8.34922
21
-4.9926
0
LINE
8
BLACK
6
CONTINUOUS
10
8.34922
20
-4.9926
11
8.3481
21
-4.99393
0
LINE
8
BLACK
6
CONTINUOUS
10
8.3481
20
-4.99393
11
8.34447
21
-4.99697
0
LINE
8
BLACK
6
CONTINUOUS
10
8.34447
20
-4.99697
11
8.34095
21
-5.00307
0
LINE
8
BLACK
6
CONTINUOUS
10
8.34095
20
-5.00307
11
8.33973
21
-5.01
0
LINE
8
BLACK
6
CONTINUOUS
10
8.33973
20
-5.01
11
8.33973
21
-5.06999
0
LINE
8
BLACK
6
CONTINUOUS
10
8.33973
20
-5.06999
11
8.34245
21
-5.08014
0
LINE
8
BLACK
6
CONTINUOUS
10
8.34245
20
-5.08014
11
8.34697
21
-5.08553
0
LINE
8
BLACK
6
CONTINUOUS
10
8.34697
20
-5.08553
11
8.34739
21
-5.08577
0
LINE
8
BLACK
6
CONTINUOUS
10
8.34739
20
-5.08577
11
8.34885
21
-5.08705
0
LINE
8
BLACK
6
CONTINUOUS
10
8.34885
20
-5.08705
11
8.34972
21
-5.0888
0
LINE
8
BLACK
6
CONTINUOUS
10
8.34972
20
-5.0888
11
8.34984
21
-5.09075
0
LINE
8
BLACK
6
CONTINUOUS
10
8.34984
20
-5.09075
11
8.34922
21
-5.0926
0
LINE
8
BLACK
6
CONTINUOUS
10
8.34922
20
-5.0926
11
8.3481
21
-5.09393
0
LINE
8
BLACK
6
CONTINUOUS
10
8.3481
20
-5.09393
11
8.34447
21
-5.09697
0
LINE
8
BLACK
6
CONTINUOUS
10
8.34447
20
-5.09697
11
8.34095
21
-5.10307
0
LINE
8
BLACK
6
CONTINUOUS
10
8.34095
20
-5.10307
11
8.33973
21
-5.11
0
LINE
8
BLACK
6
CONTINUOUS
10
8.33973
20
-5.11
11
8.33973
21
-5.16999
0
LINE
8
BLACK
6
CONTINUOUS
10
8.33973
20
-5.16999
11
8.34245
21
-5.18014
0
LINE
8
BLACK
6
CONTINUOUS
10
8.34245
20
-5.18014
11
8.34697
21
-5.18553
0
LINE
8
BLACK
6
CONTINUOUS
10
6.42022
20
-4.68021
11
6.43014
21
-4.67755
0
LINE
8
BLACK
6
CONTINUOUS
10
6.43014
20
-4.67755
11
6.43553
21
-4.67303
0
LINE
8
BLACK
6
CONTINUOUS
10
6.43553
20
-4.67303
11
6.43905
21
-4.66693
0
LINE
8
BLACK
6
CONTINUOUS
10
6.43905
20
-4.66693
11
6.44027
21
-4.66
0
LINE
8
BLACK
6
CONTINUOUS
10
6.44027
20
-4.66
11
6.44027
21
-4.64004
0
LINE
8
BLACK
6
CONTINUOUS
10
6.44027
20
-4.64004
11
6.42
21
-4.64004
0
LINE
8
BLACK
6
CONTINUOUS
10
6.42
20
-4.64004
11
6.42
21
-4.66
0
LINE
8
BLACK
6
CONTINUOUS
10
6.42
20
-4.66
11
6.40004
21
-4.66
0
LINE
8
BLACK
6
CONTINUOUS
10
6.40004
20
-4.66
11
6.40004
21
-4.68027
0
LINE
8
BLACK
6
CONTINUOUS
10
6.40004
20
-4.68027
11
6.41999
21
-4.68027
0
LINE
8
BLACK
6
CONTINUOUS
10
6.41999
20
-4.68027
11
6.42022
21
-4.68021
0
LINE
8
BLACK
6
CONTINUOUS
10
6.40004
20
-4.37973
11
6.40004
21
-4.4
0
LINE
8
BLACK
6
CONTINUOUS
10
6.40004
20
-4.4
11
6.42
21
-4.4
0
LINE
8
BLACK
6
CONTINUOUS
10
6.42
20
-4.4
11
6.42
21
-4.41996
0
LINE
8
BLACK
6
CONTINUOUS
10
6.42
20
-4.41996
11
6.44027
21
-4.41996
0
LINE
8
BLACK
6
CONTINUOUS
10
6.44027
20
-4.41996
11
6.44027
21
-4.40001
0
LINE
8
BLACK
6
CONTINUOUS
10
6.44027
20
-4.40001
11
6.43755
21
-4.38986
0
LINE
8
BLACK
6
CONTINUOUS
10
6.43755
20
-4.38986
11
6.43303
21
-4.38447
0
LINE
8
BLACK
6
CONTINUOUS
10
6.43303
20
-4.38447
11
6.42693
21
-4.38095
0
LINE
8
BLACK
6
CONTINUOUS
10
6.42693
20
-4.38095
11
6.42
21
-4.37973
0
LINE
8
BLACK
6
CONTINUOUS
10
6.42
20
-4.37973
11
6.40004
21
-4.37973
0
LINE
8
BLACK
6
CONTINUOUS
10
6.68298
20
-5.47862
11
6.68298
21
-5.50158
0
LINE
8
BLACK
6
CONTINUOUS
10
6.68298
20
-5.50158
11
6.66002
21
-5.50158
0
LINE
8
BLACK
6
CONTINUOUS
10
6.66002
20
-5.50158
11
6.66002
21
-5.52185
0
LINE
8
BLACK
6
CONTINUOUS
10
6.66002
20
-5.52185
11
6.68298
21
-5.52185
0
LINE
8
BLACK
6
CONTINUOUS
10
6.68298
20
-5.52185
11
6.69312
21
-5.51913
0
LINE
8
BLACK
6
CONTINUOUS
10
6.69312
20
-5.51913
11
6.69851
21
-5.51461
0
LINE
8
BLACK
6
CONTINUOUS
10
6.69851
20
-5.51461
11
6.70203
21
-5.50852
0
LINE
8
BLACK
6
CONTINUOUS
10
6.70203
20
-5.50852
11
6.70325
21
-5.50158
0
LINE
8
BLACK
6
CONTINUOUS
10
6.70325
20
-5.50158
11
6.70325
21
-5.47862
0
LINE
8
BLACK
6
CONTINUOUS
10
6.70325
20
-5.47862
11
6.68298
21
-5.47862
0
LINE
8
BLACK
6
CONTINUOUS
10
6.24697
20
-4.67553
11
6.25307
21
-4.67905
0
LINE
8
BLACK
6
CONTINUOUS
10
6.25307
20
-4.67905
11
6.26
21
-4.68027
0
LINE
8
BLACK
6
CONTINUOUS
10
6.26
20
-4.68027
11
6.27996
21
-4.68027
0
LINE
8
BLACK
6
CONTINUOUS
10
6.27996
20
-4.68027
11
6.27996
21
-4.66
0
LINE
8
BLACK
6
CONTINUOUS
10
6.27996
20
-4.66
11
6.26
21
-4.66
0
LINE
8
BLACK
6
CONTINUOUS
10
6.26
20
-4.66
11
6.26
21
-4.64004
0
LINE
8
BLACK
6
CONTINUOUS
10
6.26
20
-4.64004
11
6.23973
21
-4.64004
0
LINE
8
BLACK
6
CONTINUOUS
10
6.23973
20
-4.64004
11
6.23973
21
-4.65999
0
LINE
8
BLACK
6
CONTINUOUS
10
6.23973
20
-4.65999
11
6.24245
21
-4.67014
0
LINE
8
BLACK
6
CONTINUOUS
10
6.24245
20
-4.67014
11
6.24697
21
-4.67553
0
LINE
8
BLACK
6
CONTINUOUS
10
6.24697
20
-5.19553
11
6.25307
21
-5.19905
0
LINE
8
BLACK
6
CONTINUOUS
10
6.25307
20
-5.19905
11
6.26
21
-5.20027
0
LINE
8
BLACK
6
CONTINUOUS
10
6.26
20
-5.20027
11
6.31999
21
-5.20027
0
LINE
8
BLACK
6
CONTINUOUS
10
6.31999
20
-5.20027
11
6.33014
21
-5.19755
0
LINE
8
BLACK
6
CONTINUOUS
10
6.33014
20
-5.19755
11
6.33553
21
-5.19303
0
LINE
8
BLACK
6
CONTINUOUS
10
6.33553
20
-5.19303
11
6.33577
21
-5.19261
0
LINE
8
BLACK
6
CONTINUOUS
10
6.33577
20
-5.19261
11
6.33705
21
-5.19115
0
LINE
8
BLACK
6
CONTINUOUS
10
6.33705
20
-5.19115
11
6.3388
21
-5.19028
0
LINE
8
BLACK
6
CONTINUOUS
10
6.3388
20
-5.19028
11
6.34075
21
-5.19016
0
LINE
8
BLACK
6
CONTINUOUS
10
6.34075
20
-5.19016
11
6.3426
21
-5.19078
0
LINE
8
BLACK
6
CONTINUOUS
10
6.3426
20
-5.19078
11
6.34393
21
-5.1919
0
LINE
8
BLACK
6
CONTINUOUS
10
6.34393
20
-5.1919
11
6.34697
21
-5.19553
0
LINE
8
BLACK
6
CONTINUOUS
10
6.34697
20
-5.19553
11
6.35307
21
-5.19905
0
LINE
8
BLACK
6
CONTINUOUS
10
6.35307
20
-5.19905
11
6.36
21
-5.20027
0
LINE
8
BLACK
6
CONTINUOUS
10
6.36
20
-5.20027
11
6.37996
21
-5.20027
0
LINE
8
BLACK
6
CONTINUOUS
10
6.37996
20
-5.20027
11
6.37996
21
-5.18
0
LINE
8
BLACK
6
CONTINUOUS
10
6.37996
20
-5.18
11
6.36
21
-5.18
0
LINE
8
BLACK
6
CONTINUOUS
10
6.36
20
-5.18
11
6.36
21
-5.12
0
LINE
8
BLACK
6
CONTINUOUS
10
6.36
20
-5.12
11
6.42
21
-5.12
0
LINE
8
BLACK
6
CONTINUOUS
10
6.42
20
-5.12
11
6.42
21
-5.13996
0
LINE
8
BLACK
6
CONTINUOUS
10
6.42
20
-5.13996
11
6.44027
21
-5.13996
0
LINE
8
BLACK
6
CONTINUOUS
10
6.44027
20
-5.13996
11
6.44027
21
-5.12001
0
LINE
8
BLACK
6
CONTINUOUS
10
6.44027
20
-5.12001
11
6.43755
21
-5.10986
0
LINE
8
BLACK
6
CONTINUOUS
10
6.43755
20
-5.10986
11
6.43303
21
-5.10447
0
LINE
8
BLACK
6
CONTINUOUS
10
6.43303
20
-5.10447
11
6.43261
21
-5.10423
0
LINE
8
BLACK
6
CONTINUOUS
10
6.43261
20
-5.10423
11
6.43115
21
-5.10295
0
LINE
8
BLACK
6
CONTINUOUS
10
6.43115
20
-5.10295
11
6.43028
21
-5.1012
0
LINE
8
BLACK
6
CONTINUOUS
10
6.43028
20
-5.1012
11
6.43016
21
-5.09925
0
LINE
8
BLACK
6
CONTINUOUS
10
6.43016
20
-5.09925
11
6.43078
21
-5.0974
0
LINE
8
BLACK
6
CONTINUOUS
10
6.43078
20
-5.0974
11
6.4319
21
-5.09607
0
LINE
8
BLACK
6
CONTINUOUS
10
6.4319
20
-5.09607
11
6.43553
21
-5.09303
0
LINE
8
BLACK
6
CONTINUOUS
10
6.43553
20
-5.09303
11
6.43905
21
-5.08693
0
LINE
8
BLACK
6
CONTINUOUS
10
6.43905
20
-5.08693
11
6.44027
21
-5.08
0
LINE
8
BLACK
6
CONTINUOUS
10
6.44027
20
-5.08
11
6.44027
21
-5.02001
0
LINE
8
BLACK
6
CONTINUOUS
10
6.44027
20
-5.02001
11
6.43755
21
-5.00986
0
LINE
8
BLACK
6
CONTINUOUS
10
6.43755
20
-5.00986
11
6.43303
21
-5.00447
0
LINE
8
BLACK
6
CONTINUOUS
10
6.43303
20
-5.00447
11
6.43261
21
-5.00423
0
LINE
8
BLACK
6
CONTINUOUS
10
6.43261
20
-5.00423
11
6.43115
21
-5.00295
0
LINE
8
BLACK
6
CONTINUOUS
10
6.43115
20
-5.00295
11
6.43028
21
-5.0012
0
LINE
8
BLACK
6
CONTINUOUS
10
6.43028
20
-5.0012
11
6.43016
21
-4.99925
0
LINE
8
BLACK
6
CONTINUOUS
10
6.43016
20
-4.99925
11
6.43078
21
-4.9974
0
LINE
8
BLACK
6
CONTINUOUS
10
6.43078
20
-4.9974
11
6.4319
21
-4.99607
0
LINE
8
BLACK
6
CONTINUOUS
10
6.4319
20
-4.99607
11
6.43553
21
-4.99303
0
LINE
8
BLACK
6
CONTINUOUS
10
6.43553
20
-4.99303
11
6.43905
21
-4.98693
0
LINE
8
BLACK
6
CONTINUOUS
10
6.43905
20
-4.98693
11
6.44027
21
-4.98
0
LINE
8
BLACK
6
CONTINUOUS
10
6.44027
20
-4.98
11
6.44027
21
-4.92001
0
LINE
8
BLACK
6
CONTINUOUS
10
6.44027
20
-4.92001
11
6.43755
21
-4.90986
0
LINE
8
BLACK
6
CONTINUOUS
10
6.43755
20
-4.90986
11
6.43303
21
-4.90447
0
LINE
8
BLACK
6
CONTINUOUS
10
6.43303
20
-4.90447
11
6.43261
21
-4.90423
0
LINE
8
BLACK
6
CONTINUOUS
10
6.43261
20
-4.90423
11
6.43115
21
-4.90295
0
LINE
8
BLACK
6
CONTINUOUS
10
6.43115
20
-4.90295
11
6.43028
21
-4.9012
0
LINE
8
BLACK
6
CONTINUOUS
10
6.43028
20
-4.9012
11
6.43016
21
-4.89925
0
LINE
8
BLACK
6
CONTINUOUS
10
6.43016
20
-4.89925
11
6.43078
21
-4.8974
0
LINE
8
BLACK
6
CONTINUOUS
10
6.43078
20
-4.8974
11
6.4319
21
-4.89607
0
LINE
8
BLACK
6
CONTINUOUS
10
6.4319
20
-4.89607
11
6.43553
21
-4.89303
0
LINE
8
BLACK
6
CONTINUOUS
10
6.43553
20
-4.89303
11
6.43905
21
-4.88693
0
LINE
8
BLACK
6
CONTINUOUS
10
6.43905
20
-4.88693
11
6.44027
21
-4.88
0
LINE
8
BLACK
6
CONTINUOUS
10
6.44027
20
-4.88
11
6.44027
21
-4.82001
0
LINE
8
BLACK
6
CONTINUOUS
10
6.44027
20
-4.82001
11
6.43759
21
-4.80999
0
LINE
8
BLACK
6
CONTINUOUS
10
6.43759
20
-4.80999
11
6.43755
21
-4.80986
0
LINE
8
BLACK
6
CONTINUOUS
10
6.43755
20
-4.80986
11
6.43303
21
-4.80447
0
LINE
8
BLACK
6
CONTINUOUS
10
6.43303
20
-4.80447
11
6.42693
21
-4.80095
0
LINE
8
BLACK
6
CONTINUOUS
10
6.42693
20
-4.80095
11
6.42
21
-4.79973
0
LINE
8
BLACK
6
CONTINUOUS
10
6.42
20
-4.79973
11
6.36001
21
-4.79973
0
LINE
8
BLACK
6
CONTINUOUS
10
6.36001
20
-4.79973
11
6.34986
21
-4.80245
0
LINE
8
BLACK
6
CONTINUOUS
10
6.34986
20
-4.80245
11
6.34447
21
-4.80697
0
LINE
8
BLACK
6
CONTINUOUS
10
6.34447
20
-4.80697
11
6.34423
21
-4.80739
0
LINE
8
BLACK
6
CONTINUOUS
10
6.34423
20
-4.80739
11
6.34295
21
-4.80885
0
LINE
8
BLACK
6
CONTINUOUS
10
6.34295
20
-4.80885
11
6.3412
21
-4.80972
0
LINE
8
BLACK
6
CONTINUOUS
10
6.3412
20
-4.80972
11
6.33925
21
-4.80984
0
LINE
8
BLACK
6
CONTINUOUS
10
6.33925
20
-4.80984
11
6.3374
21
-4.80922
0
LINE
8
BLACK
6
CONTINUOUS
10
6.3374
20
-4.80922
11
6.33607
21
-4.8081
0
LINE
8
BLACK
6
CONTINUOUS
10
6.33607
20
-4.8081
11
6.33303
21
-4.80447
0
LINE
8
BLACK
6
CONTINUOUS
10
6.33303
20
-4.80447
11
6.32693
21
-4.80095
0
LINE
8
BLACK
6
CONTINUOUS
10
6.32693
20
-4.80095
11
6.32
21
-4.79973
0
LINE
8
BLACK
6
CONTINUOUS
10
6.32
20
-4.79973
11
6.30004
21
-4.79973
0
LINE
8
BLACK
6
CONTINUOUS
10
6.30004
20
-4.79973
11
6.30004
21
-4.82
0
LINE
8
BLACK
6
CONTINUOUS
10
6.30004
20
-4.82
11
6.32
21
-4.82
0
LINE
8
BLACK
6
CONTINUOUS
10
6.32
20
-4.82
11
6.32
21
-4.88
0
LINE
8
BLACK
6
CONTINUOUS
10
6.32
20
-4.88
11
6.26
21
-4.88
0
LINE
8
BLACK
6
CONTINUOUS
10
6.26
20
-4.88
11
6.26
21
-4.86004
0
LINE
8
BLACK
6
CONTINUOUS
10
6.26
20
-4.86004
11
6.23973
21
-4.86004
0
LINE
8
BLACK
6
CONTINUOUS
10
6.23973
20
-4.86004
11
6.23973
21
-4.87999
0
LINE
8
BLACK
6
CONTINUOUS
10
6.23973
20
-4.87999
11
6.24245
21
-4.89014
0
LINE
8
BLACK
6
CONTINUOUS
10
6.24245
20
-4.89014
11
6.24697
21
-4.89553
0
LINE
8
BLACK
6
CONTINUOUS
10
6.24697
20
-4.89553
11
6.24739
21
-4.89577
0
LINE
8
BLACK
6
CONTINUOUS
10
6.24739
20
-4.89577
11
6.24885
21
-4.89705
0
LINE
8
BLACK
6
CONTINUOUS
10
6.24885
20
-4.89705
11
6.24972
21
-4.8988
0
LINE
8
BLACK
6
CONTINUOUS
10
6.24972
20
-4.8988
11
6.24984
21
-4.90075
0
LINE
8
BLACK
6
CONTINUOUS
10
6.24984
20
-4.90075
11
6.24922
21
-4.9026
0
LINE
8
BLACK
6
CONTINUOUS
10
6.24922
20
-4.9026
11
6.2481
21
-4.90393
0
LINE
8
BLACK
6
CONTINUOUS
10
6.2481
20
-4.90393
11
6.24447
21
-4.90697
0
LINE
8
BLACK
6
CONTINUOUS
10
6.24447
20
-4.90697
11
6.24095
21
-4.91307
0
LINE
8
BLACK
6
CONTINUOUS
10
6.24095
20
-4.91307
11
6.23973
21
-4.92
0
LINE
8
BLACK
6
CONTINUOUS
10
6.23973
20
-4.92
11
6.23973
21
-4.93996
0
LINE
8
BLACK
6
CONTINUOUS
10
6.23973
20
-4.93996
11
6.26
21
-4.93996
0
LINE
8
BLACK
6
CONTINUOUS
10
6.26
20
-4.93996
11
6.26
21
-4.92
0
LINE
8
BLACK
6
CONTINUOUS
10
6.26
20
-4.92
11
6.32
21
-4.92
0
LINE
8
BLACK
6
CONTINUOUS
10
6.32
20
-4.92
11
6.32
21
-4.98
0
LINE
8
BLACK
6
CONTINUOUS
10
6.32
20
-4.98
11
6.26
21
-4.98
0
LINE
8
BLACK
6
CONTINUOUS
10
6.26
20
-4.98
11
6.26
21
-4.96004
0
LINE
8
BLACK
6
CONTINUOUS
10
6.26
20
-4.96004
11
6.23973
21
-4.96004
0
LINE
8
BLACK
6
CONTINUOUS
10
6.23973
20
-4.96004
11
6.23973
21
-4.97999
0
LINE
8
BLACK
6
CONTINUOUS
10
6.23973
20
-4.97999
11
6.24245
21
-4.99014
0
LINE
8
BLACK
6
CONTINUOUS
10
6.24245
20
-4.99014
11
6.24697
21
-4.99553
0
LINE
8
BLACK
6
CONTINUOUS
10
6.24697
20
-4.99553
11
6.24739
21
-4.99577
0
LINE
8
BLACK
6
CONTINUOUS
10
6.24739
20
-4.99577
11
6.24885
21
-4.99705
0
LINE
8
BLACK
6
CONTINUOUS
10
6.24885
20
-4.99705
11
6.24972
21
-4.9988
0
LINE
8
BLACK
6
CONTINUOUS
10
6.24972
20
-4.9988
11
6.24984
21
-5.00075
0
LINE
8
BLACK
6
CONTINUOUS
10
6.24984
20
-5.00075
11
6.24922
21
-5.0026
0
LINE
8
BLACK
6
CONTINUOUS
10
6.24922
20
-5.0026
11
6.2481
21
-5.00393
0
LINE
8
BLACK
6
CONTINUOUS
10
6.2481
20
-5.00393
11
6.24447
21
-5.00697
0
LINE
8
BLACK
6
CONTINUOUS
10
6.24447
20
-5.00697
11
6.24095
21
-5.01307
0
LINE
8
BLACK
6
CONTINUOUS
10
6.24095
20
-5.01307
11
6.23973
21
-5.02
0
LINE
8
BLACK
6
CONTINUOUS
10
6.23973
20
-5.02
11
6.23973
21
-5.07999
0
LINE
8
BLACK
6
CONTINUOUS
10
6.23973
20
-5.07999
11
6.24245
21
-5.09014
0
LINE
8
BLACK
6
CONTINUOUS
10
6.24245
20
-5.09014
11
6.24697
21
-5.09553
0
LINE
8
BLACK
6
CONTINUOUS
10
6.24697
20
-5.09553
11
6.24739
21
-5.09577
0
LINE
8
BLACK
6
CONTINUOUS
10
6.24739
20
-5.09577
11
6.24885
21
-5.09705
0
LINE
8
BLACK
6
CONTINUOUS
10
6.24885
20
-5.09705
11
6.24972
21
-5.0988
0
LINE
8
BLACK
6
CONTINUOUS
10
6.24972
20
-5.0988
11
6.24984
21
-5.10075
0
LINE
8
BLACK
6
CONTINUOUS
10
6.24984
20
-5.10075
11
6.24922
21
-5.1026
0
LINE
8
BLACK
6
CONTINUOUS
10
6.24922
20
-5.1026
11
6.2481
21
-5.10393
0
LINE
8
BLACK
6
CONTINUOUS
10
6.2481
20
-5.10393
11
6.24447
21
-5.10697
0
LINE
8
BLACK
6
CONTINUOUS
10
6.24447
20
-5.10697
11
6.24095
21
-5.11307
0
LINE
8
BLACK
6
CONTINUOUS
10
6.24095
20
-5.11307
11
6.23973
21
-5.12
0
LINE
8
BLACK
6
CONTINUOUS
10
6.23973
20
-5.12
11
6.23973
21
-5.17999
0
LINE
8
BLACK
6
CONTINUOUS
10
6.23973
20
-5.17999
11
6.24245
21
-5.19014
0
LINE
8
BLACK
6
CONTINUOUS
10
6.24245
20
-5.19014
11
6.24697
21
-5.19553
0
LINE
8
BLACK
6
CONTINUOUS
10
6.36
20
-4.46
11
6.36
21
-4.4
0
LINE
8
BLACK
6
CONTINUOUS
10
6.36
20
-4.4
11
6.37996
21
-4.4
0
LINE
8
BLACK
6
CONTINUOUS
10
6.37996
20
-4.4
11
6.37996
21
-4.37973
0
LINE
8
BLACK
6
CONTINUOUS
10
6.37996
20
-4.37973
11
6.36001
21
-4.37973
0
LINE
8
BLACK
6
CONTINUOUS
10
6.36001
20
-4.37973
11
6.34986
21
-4.38245
0
LINE
8
BLACK
6
CONTINUOUS
10
6.34986
20
-4.38245
11
6.34447
21
-4.38697
0
LINE
8
BLACK
6
CONTINUOUS
10
6.34447
20
-4.38697
11
6.34423
21
-4.38739
0
LINE
8
BLACK
6
CONTINUOUS
10
6.34423
20
-4.38739
11
6.34295
21
-4.38885
0
LINE
8
BLACK
6
CONTINUOUS
10
6.34295
20
-4.38885
11
6.3412
21
-4.38972
0
LINE
8
BLACK
6
CONTINUOUS
10
6.3412
20
-4.38972
11
6.33925
21
-4.38984
0
LINE
8
BLACK
6
CONTINUOUS
10
6.33925
20
-4.38984
11
6.3374
21
-4.38922
0
LINE
8
BLACK
6
CONTINUOUS
10
6.3374
20
-4.38922
11
6.33607
21
-4.3881
0
LINE
8
BLACK
6
CONTINUOUS
10
6.33607
20
-4.3881
11
6.33303
21
-4.38447
0
LINE
8
BLACK
6
CONTINUOUS
10
6.33303
20
-4.38447
11
6.32693
21
-4.38095
0
LINE
8
BLACK
6
CONTINUOUS
10
6.32693
20
-4.38095
11
6.32
21
-4.37973
0
LINE
8
BLACK
6
CONTINUOUS
10
6.32
20
-4.37973
11
6.30004
21
-4.37973
0
LINE
8
BLACK
6
CONTINUOUS
10
6.30004
20
-4.37973
11
6.30004
21
-4.4
0
LINE
8
BLACK
6
CONTINUOUS
10
6.30004
20
-4.4
11
6.32
21
-4.4
0
LINE
8
BLACK
6
CONTINUOUS
10
6.32
20
-4.4
11
6.32
21
-4.46
0
LINE
8
BLACK
6
CONTINUOUS
10
6.32
20
-4.46
11
6.26
21
-4.46
0
LINE
8
BLACK
6
CONTINUOUS
10
6.26
20
-4.46
11
6.26
21
-4.44004
0
LINE
8
BLACK
6
CONTINUOUS
10
6.26
20
-4.44004
11
6.23973
21
-4.44004
0
LINE
8
BLACK
6
CONTINUOUS
10
6.23973
20
-4.44004
11
6.23973
21
-4.45999
0
LINE
8
BLACK
6
CONTINUOUS
10
6.23973
20
-4.45999
11
6.24245
21
-4.47014
0
LINE
8
BLACK
6
CONTINUOUS
10
6.24245
20
-4.47014
11
6.24697
21
-4.47553
0
LINE
8
BLACK
6
CONTINUOUS
10
6.24697
20
-4.47553
11
6.24739
21
-4.47577
0
LINE
8
BLACK
6
CONTINUOUS
10
6.24739
20
-4.47577
11
6.24885
21
-4.47705
0
LINE
8
BLACK
6
CONTINUOUS
10
6.24885
20
-4.47705
11
6.24972
21
-4.4788
0
LINE
8
BLACK
6
CONTINUOUS
10
6.24972
20
-4.4788
11
6.24984
21
-4.48075
0
LINE
8
BLACK
6
CONTINUOUS
10
6.24984
20
-4.48075
11
6.24922
21
-4.4826
0
LINE
8
BLACK
6
CONTINUOUS
10
6.24922
20
-4.4826
11
6.2481
21
-4.48393
0
LINE
8
BLACK
6
CONTINUOUS
10
6.2481
20
-4.48393
11
6.24447
21
-4.48697
0
LINE
8
BLACK
6
CONTINUOUS
10
6.24447
20
-4.48697
11
6.24095
21
-4.49307
0
LINE
8
BLACK
6
CONTINUOUS
10
6.24095
20
-4.49307
11
6.23973
21
-4.5
0
LINE
8
BLACK
6
CONTINUOUS
10
6.23973
20
-4.5
11
6.23973
21
-4.55999
0
LINE
8
BLACK
6
CONTINUOUS
10
6.23973
20
-4.55999
11
6.24245
21
-4.57014
0
LINE
8
BLACK
6
CONTINUOUS
10
6.24245
20
-4.57014
11
6.24697
21
-4.57553
0
LINE
8
BLACK
6
CONTINUOUS
10
6.24697
20
-4.57553
11
6.24739
21
-4.57577
0
LINE
8
BLACK
6
CONTINUOUS
10
6.24739
20
-4.57577
11
6.24885
21
-4.57705
0
LINE
8
BLACK
6
CONTINUOUS
10
6.24885
20
-4.57705
11
6.24972
21
-4.5788
0
LINE
8
BLACK
6
CONTINUOUS
10
6.24972
20
-4.5788
11
6.24984
21
-4.58075
0
LINE
8
BLACK
6
CONTINUOUS
10
6.24984
20
-4.58075
11
6.24922
21
-4.5826
0
LINE
8
BLACK
6
CONTINUOUS
10
6.24922
20
-4.5826
11
6.2481
21
-4.58393
0
LINE
8
BLACK
6
CONTINUOUS
10
6.2481
20
-4.58393
11
6.24447
21
-4.58697
0
LINE
8
BLACK
6
CONTINUOUS
10
6.24447
20
-4.58697
11
6.24095
21
-4.59307
0
LINE
8
BLACK
6
CONTINUOUS
10
6.24095
20
-4.59307
11
6.23973
21
-4.6
0
LINE
8
BLACK
6
CONTINUOUS
10
6.23973
20
-4.6
11
6.23973
21
-4.61996
0
LINE
8
BLACK
6
CONTINUOUS
10
6.23973
20
-4.61996
11
6.26
21
-4.61996
0
LINE
8
BLACK
6
CONTINUOUS
10
6.26
20
-4.61996
11
6.26
21
-4.6
0
LINE
8
BLACK
6
CONTINUOUS
10
6.26
20
-4.6
11
6.32
21
-4.6
0
LINE
8
BLACK
6
CONTINUOUS
10
6.32
20
-4.6
11
6.32
21
-4.66
0
LINE
8
BLACK
6
CONTINUOUS
10
6.32
20
-4.66
11
6.30004
21
-4.66
0
LINE
8
BLACK
6
CONTINUOUS
10
6.30004
20
-4.66
11
6.30004
21
-4.68027
0
LINE
8
BLACK
6
CONTINUOUS
10
6.30004
20
-4.68027
11
6.31999
21
-4.68027
0
LINE
8
BLACK
6
CONTINUOUS
10
6.31999
20
-4.68027
11
6.33014
21
-4.67755
0
LINE
8
BLACK
6
CONTINUOUS
10
6.33014
20
-4.67755
11
6.33553
21
-4.67303
0
LINE
8
BLACK
6
CONTINUOUS
10
6.33553
20
-4.67303
11
6.33577
21
-4.67261
0
LINE
8
BLACK
6
CONTINUOUS
10
6.33577
20
-4.67261
11
6.33705
21
-4.67115
0
LINE
8
BLACK
6
CONTINUOUS
10
6.33705
20
-4.67115
11
6.3388
21
-4.67028
0
LINE
8
BLACK
6
CONTINUOUS
10
6.3388
20
-4.67028
11
6.34075
21
-4.67016
0
LINE
8
BLACK
6
CONTINUOUS
10
6.34075
20
-4.67016
11
6.3426
21
-4.67078
0
LINE
8
BLACK
6
CONTINUOUS
10
6.3426
20
-4.67078
11
6.34393
21
-4.6719
0
LINE
8
BLACK
6
CONTINUOUS
10
6.34393
20
-4.6719
11
6.34697
21
-4.67553
0
LINE
8
BLACK
6
CONTINUOUS
10
6.34697
20
-4.67553
11
6.35307
21
-4.67905
0
LINE
8
BLACK
6
CONTINUOUS
10
6.35307
20
-4.67905
11
6.36
21
-4.68027
0
LINE
8
BLACK
6
CONTINUOUS
10
6.36
20
-4.68027
11
6.37996
21
-4.68027
0
LINE
8
BLACK
6
CONTINUOUS
10
6.37996
20
-4.68027
11
6.37996
21
-4.66
0
LINE
8
BLACK
6
CONTINUOUS
10
6.37996
20
-4.66
11
6.36
21
-4.66
0
LINE
8
BLACK
6
CONTINUOUS
10
6.36
20
-4.66
11
6.36
21
-4.6
0
LINE
8
BLACK
6
CONTINUOUS
10
6.36
20
-4.6
11
6.42
21
-4.6
0
LINE
8
BLACK
6
CONTINUOUS
10
6.42
20
-4.6
11
6.42
21
-4.61996
0
LINE
8
BLACK
6
CONTINUOUS
10
6.42
20
-4.61996
11
6.44027
21
-4.61996
0
LINE
8
BLACK
6
CONTINUOUS
10
6.44027
20
-4.61996
11
6.44027
21
-4.60001
0
LINE
8
BLACK
6
CONTINUOUS
10
6.44027
20
-4.60001
11
6.43755
21
-4.58986
0
LINE
8
BLACK
6
CONTINUOUS
10
6.43755
20
-4.58986
11
6.43303
21
-4.58447
0
LINE
8
BLACK
6
CONTINUOUS
10
6.43303
20
-4.58447
11
6.43261
21
-4.58423
0
LINE
8
BLACK
6
CONTINUOUS
10
6.43261
20
-4.58423
11
6.43115
21
-4.58295
0
LINE
8
BLACK
6
CONTINUOUS
10
6.43115
20
-4.58295
11
6.43028
21
-4.5812
0
LINE
8
BLACK
6
CONTINUOUS
10
6.43028
20
-4.5812
11
6.43016
21
-4.57925
0
LINE
8
BLACK
6
CONTINUOUS
10
6.43016
20
-4.57925
11
6.43078
21
-4.5774
0
LINE
8
BLACK
6
CONTINUOUS
10
6.43078
20
-4.5774
11
6.4319
21
-4.57607
0
LINE
8
BLACK
6
CONTINUOUS
10
6.4319
20
-4.57607
11
6.43553
21
-4.57303
0
LINE
8
BLACK
6
CONTINUOUS
10
6.43553
20
-4.57303
11
6.43905
21
-4.56693
0
LINE
8
BLACK
6
CONTINUOUS
10
6.43905
20
-4.56693
11
6.44027
21
-4.56
0
LINE
8
BLACK
6
CONTINUOUS
10
6.44027
20
-4.56
11
6.44027
21
-4.50001
0
LINE
8
BLACK
6
CONTINUOUS
10
6.44027
20
-4.50001
11
6.43755
21
-4.48986
0
LINE
8
BLACK
6
CONTINUOUS
10
6.43755
20
-4.48986
11
6.43303
21
-4.48447
0
LINE
8
BLACK
6
CONTINUOUS
10
6.43303
20
-4.48447
11
6.43261
21
-4.48423
0
LINE
8
BLACK
6
CONTINUOUS
10
6.43261
20
-4.48423
11
6.43115
21
-4.48295
0
LINE
8
BLACK
6
CONTINUOUS
10
6.43115
20
-4.48295
11
6.43028
21
-4.4812
0
LINE
8
BLACK
6
CONTINUOUS
10
6.43028
20
-4.4812
11
6.43016
21
-4.47925
0
LINE
8
BLACK
6
CONTINUOUS
10
6.43016
20
-4.47925
11
6.43078
21
-4.4774
0
LINE
8
BLACK
6
CONTINUOUS
10
6.43078
20
-4.4774
11
6.4319
21
-4.47607
0
LINE
8
BLACK
6
CONTINUOUS
10
6.4319
20
-4.47607
11
6.43553
21
-4.47303
0
LINE
8
BLACK
6
CONTINUOUS
10
6.43553
20
-4.47303
11
6.43905
21
-4.46693
0
LINE
8
BLACK
6
CONTINUOUS
10
6.43905
20
-4.46693
11
6.44027
21
-4.46
0
LINE
8
BLACK
6
CONTINUOUS
10
6.44027
20
-4.46
11
6.44027
21
-4.44004
0
LINE
8
BLACK
6
CONTINUOUS
10
6.44027
20
-4.44004
11
6.42
21
-4.44004
0
LINE
8
BLACK
6
CONTINUOUS
10
6.42
20
-4.44004
11
6.42
21
-4.46
0
LINE
8
BLACK
6
CONTINUOUS
10
6.42
20
-4.46
11
6.36
21
-4.46
0
LINE
8
BLACK
6
CONTINUOUS
10
6.92
20
-4.81
11
6.86
21
-4.81
0
LINE
8
BLACK
6
CONTINUOUS
10
6.86
20
-4.81
11
6.86
21
-4.75
0
LINE
8
BLACK
6
CONTINUOUS
10
6.86
20
-4.75
11
6.92
21
-4.75
0
LINE
8
BLACK
6
CONTINUOUS
10
6.92
20
-4.75
11
6.92
21
-4.81
0
LINE
8
BLACK
6
CONTINUOUS
10
8.52
20
-5.17
11
8.46
21
-5.17
0
LINE
8
BLACK
6
CONTINUOUS
10
8.46
20
-5.17
11
8.46
21
-5.11
0
LINE
8
BLACK
6
CONTINUOUS
10
8.46
20
-5.11
11
8.52
21
-5.11
0
LINE
8
BLACK
6
CONTINUOUS
10
8.52
20
-5.11
11
8.52
21
-5.17
0
LINE
8
BLACK
6
CONTINUOUS
10
8.42
20
-5.17
11
8.36
21
-5.17
0
LINE
8
BLACK
6
CONTINUOUS
10
8.36
20
-5.17
11
8.36
21
-5.11
0
LINE
8
BLACK
6
CONTINUOUS
10
8.36
20
-5.11
11
8.42
21
-5.11
0
LINE
8
BLACK
6
CONTINUOUS
10
8.42
20
-5.11
11
8.42
21
-5.17
0
LINE
8
BLACK
6
CONTINUOUS
10
8.52
20
-5.07
11
8.46
21
-5.07
0
LINE
8
BLACK
6
CONTINUOUS
10
8.46
20
-5.07
11
8.46
21
-5.01
0
LINE
8
BLACK
6
CONTINUOUS
10
8.46
20
-5.01
11
8.52
21
-5.01
0
LINE
8
BLACK
6
CONTINUOUS
10
8.52
20
-5.01
11
8.52
21
-5.07
0
LINE
8
BLACK
6
CONTINUOUS
10
8.42
20
-5.07
11
8.36
21
-5.07
0
LINE
8
BLACK
6
CONTINUOUS
10
8.36
20
-5.07
11
8.36
21
-5.01
0
LINE
8
BLACK
6
CONTINUOUS
10
8.36
20
-5.01
11
8.42
21
-5.01
0
LINE
8
BLACK
6
CONTINUOUS
10
8.42
20
-5.01
11
8.42
21
-5.07
0
LINE
8
BLACK
6
CONTINUOUS
10
8.42
20
-4.97
11
8.36
21
-4.97
0
LINE
8
BLACK
6
CONTINUOUS
10
8.36
20
-4.97
11
8.36
21
-4.91
0
LINE
8
BLACK
6
CONTINUOUS
10
8.36
20
-4.91
11
8.42
21
-4.91
0
LINE
8
BLACK
6
CONTINUOUS
10
8.42
20
-4.91
11
8.42
21
-4.97
0
LINE
8
BLACK
6
CONTINUOUS
10
8.52
20
-4.97
11
8.46
21
-4.97
0
LINE
8
BLACK
6
CONTINUOUS
10
8.46
20
-4.97
11
8.46
21
-4.91
0
LINE
8
BLACK
6
CONTINUOUS
10
8.46
20
-4.91
11
8.52
21
-4.91
0
LINE
8
BLACK
6
CONTINUOUS
10
8.52
20
-4.91
11
8.52
21
-4.97
0
LINE
8
BLACK
6
CONTINUOUS
10
8.42
20
-4.87
11
8.36
21
-4.87
0
LINE
8
BLACK
6
CONTINUOUS
10
8.36
20
-4.87
11
8.36
21
-4.81
0
LINE
8
BLACK
6
CONTINUOUS
10
8.36
20
-4.81
11
8.42
21
-4.81
0
LINE
8
BLACK
6
CONTINUOUS
10
8.42
20
-4.81
11
8.42
21
-4.87
0
LINE
8
BLACK
6
CONTINUOUS
10
8.52
20
-4.87
11
8.46
21
-4.87
0
LINE
8
BLACK
6
CONTINUOUS
10
8.46
20
-4.87
11
8.46
21
-4.81
0
LINE
8
BLACK
6
CONTINUOUS
10
8.46
20
-4.81
11
8.52
21
-4.81
0
LINE
8
BLACK
6
CONTINUOUS
10
8.52
20
-4.81
11
8.52
21
-4.87
0
LINE
8
BLACK
6
CONTINUOUS
10
8.52
20
-4.77
11
8.46
21
-4.77
0
LINE
8
BLACK
6
CONTINUOUS
10
8.46
20
-4.77
11
8.46
21
-4.71
0
LINE
8
BLACK
6
CONTINUOUS
10
8.46
20
-4.71
11
8.52
21
-4.71
0
LINE
8
BLACK
6
CONTINUOUS
10
8.52
20
-4.71
11
8.52
21
-4.77
0
LINE
8
BLACK
6
CONTINUOUS
10
8.42
20
-4.77
11
8.36
21
-4.77
0
LINE
8
BLACK
6
CONTINUOUS
10
8.36
20
-4.77
11
8.36
21
-4.71
0
LINE
8
BLACK
6
CONTINUOUS
10
8.36
20
-4.71
11
8.42
21
-4.71
0
LINE
8
BLACK
6
CONTINUOUS
10
8.42
20
-4.71
11
8.42
21
-4.77
0
LINE
8
BLACK
6
CONTINUOUS
10
8.42
20
-4.67
11
8.36
21
-4.67
0
LINE
8
BLACK
6
CONTINUOUS
10
8.36
20
-4.67
11
8.36
21
-4.61
0
LINE
8
BLACK
6
CONTINUOUS
10
8.36
20
-4.61
11
8.42
21
-4.61
0
LINE
8
BLACK
6
CONTINUOUS
10
8.42
20
-4.61
11
8.42
21
-4.67
0
LINE
8
BLACK
6
CONTINUOUS
10
8.52
20
-4.67
11
8.46
21
-4.67
0
LINE
8
BLACK
6
CONTINUOUS
10
8.46
20
-4.67
11
8.46
21
-4.61
0
LINE
8
BLACK
6
CONTINUOUS
10
8.46
20
-4.61
11
8.52
21
-4.61
0
LINE
8
BLACK
6
CONTINUOUS
10
8.52
20
-4.61
11
8.52
21
-4.67
0
LINE
8
BLACK
6
CONTINUOUS
10
8.52
20
-4.57
11
8.46
21
-4.57
0
LINE
8
BLACK
6
CONTINUOUS
10
8.46
20
-4.57
11
8.46
21
-4.51
0
LINE
8
BLACK
6
CONTINUOUS
10
8.46
20
-4.51
11
8.52
21
-4.51
0
LINE
8
BLACK
6
CONTINUOUS
10
8.52
20
-4.51
11
8.52
21
-4.57
0
LINE
8
BLACK
6
CONTINUOUS
10
8.42
20
-4.57
11
8.36
21
-4.57
0
LINE
8
BLACK
6
CONTINUOUS
10
8.36
20
-4.57
11
8.36
21
-4.51
0
LINE
8
BLACK
6
CONTINUOUS
10
8.36
20
-4.51
11
8.42
21
-4.51
0
LINE
8
BLACK
6
CONTINUOUS
10
8.42
20
-4.51
11
8.42
21
-4.57
0
LINE
8
BLACK
6
CONTINUOUS
10
8.42
20
-4.47
11
8.36
21
-4.47
0
LINE
8
BLACK
6
CONTINUOUS
10
8.36
20
-4.47
11
8.36
21
-4.41
0
LINE
8
BLACK
6
CONTINUOUS
10
8.36
20
-4.41
11
8.42
21
-4.41
0
LINE
8
BLACK
6
CONTINUOUS
10
8.42
20
-4.41
11
8.42
21
-4.47
0
LINE
8
BLACK
6
CONTINUOUS
10
8.52
20
-4.47
11
8.46
21
-4.47
0
LINE
8
BLACK
6
CONTINUOUS
10
8.46
20
-4.47
11
8.46
21
-4.41
0
LINE
8
BLACK
6
CONTINUOUS
10
8.46
20
-4.41
11
8.52
21
-4.41
0
LINE
8
BLACK
6
CONTINUOUS
10
8.52
20
-4.41
11
8.52
21
-4.47
0
LINE
8
BLACK
6
CONTINUOUS
10
6.32
20
-5.18
11
6.26
21
-5.18
0
LINE
8
BLACK
6
CONTINUOUS
10
6.26
20
-5.18
11
6.26
21
-5.12
0
LINE
8
BLACK
6
CONTINUOUS
10
6.26
20
-5.12
11
6.32
21
-5.12
0
LINE
8
BLACK
6
CONTINUOUS
10
6.32
20
-5.12
11
6.32
21
-5.18
0
LINE
8
BLACK
6
CONTINUOUS
10
6.42
20
-5.08
11
6.36
21
-5.08
0
LINE
8
BLACK
6
CONTINUOUS
10
6.36
20
-5.08
11
6.36
21
-5.02
0
LINE
8
BLACK
6
CONTINUOUS
10
6.36
20
-5.02
11
6.42
21
-5.02
0
LINE
8
BLACK
6
CONTINUOUS
10
6.42
20
-5.02
11
6.42
21
-5.08
0
LINE
8
BLACK
6
CONTINUOUS
10
6.32
20
-5.08
11
6.26
21
-5.08
0
LINE
8
BLACK
6
CONTINUOUS
10
6.26
20
-5.08
11
6.26
21
-5.02
0
LINE
8
BLACK
6
CONTINUOUS
10
6.26
20
-5.02
11
6.32
21
-5.02
0
LINE
8
BLACK
6
CONTINUOUS
10
6.32
20
-5.02
11
6.32
21
-5.08
0
LINE
8
BLACK
6
CONTINUOUS
10
6.42
20
-4.98
11
6.36
21
-4.98
0
LINE
8
BLACK
6
CONTINUOUS
10
6.36
20
-4.98
11
6.36
21
-4.92
0
LINE
8
BLACK
6
CONTINUOUS
10
6.36
20
-4.92
11
6.42
21
-4.92
0
LINE
8
BLACK
6
CONTINUOUS
10
6.42
20
-4.92
11
6.42
21
-4.98
0
LINE
8
BLACK
6
CONTINUOUS
10
6.42
20
-4.88
11
6.36
21
-4.88
0
LINE
8
BLACK
6
CONTINUOUS
10
6.36
20
-4.88
11
6.36
21
-4.82
0
LINE
8
BLACK
6
CONTINUOUS
10
6.36
20
-4.82
11
6.42
21
-4.82
0
LINE
8
BLACK
6
CONTINUOUS
10
6.42
20
-4.82
11
6.42
21
-4.88
0
LINE
8
BLACK
6
CONTINUOUS
10
6.32
20
-4.56
11
6.26
21
-4.56
0
LINE
8
BLACK
6
CONTINUOUS
10
6.26
20
-4.56
11
6.26
21
-4.5
0
LINE
8
BLACK
6
CONTINUOUS
10
6.26
20
-4.5
11
6.32
21
-4.5
0
LINE
8
BLACK
6
CONTINUOUS
10
6.32
20
-4.5
11
6.32
21
-4.56
0
LINE
8
BLACK
6
CONTINUOUS
10
6.42
20
-4.56
11
6.36
21
-4.56
0
LINE
8
BLACK
6
CONTINUOUS
10
6.36
20
-4.56
11
6.36
21
-4.5
0
LINE
8
BLACK
6
CONTINUOUS
10
6.36
20
-4.5
11
6.42
21
-4.5
0
LINE
8
BLACK
6
CONTINUOUS
10
6.42
20
-4.5
11
6.42
21
-4.56
0
CIRCLE
8
BLACK
10
6.9195
20
-5.1205
40
0.00787402
0
CIRCLE
8
BLACK
10
6.66
20
-4.39
40
0.00787402
0
CIRCLE
8
BLACK
10
7.4
20
-4.99
40
0.00787402
0
CIRCLE
8
BLACK
10
6.99
20
-5.34
40
0.00787402
0
CIRCLE
8
BLACK
10
6.97
20
-4.96
40
0.00787402
0
CIRCLE
8
BLACK
10
6.58
20
-4.3
40
0.00787402
0
CIRCLE
8
BLACK
10
6.558
20
-4.778
40
0.00787402
0
CIRCLE
8
BLACK
10
7.84
20
-4.84
40
0.00787402
0
CIRCLE
8
BLACK
10
7.84
20
-4.78
40
0.00787402
0
CIRCLE
8
BLACK
10
7.274
20
-4.204
40
0.00787402
0
CIRCLE
8
BLACK
10
7.19
20
-4.735
40
0.00787402
0
CIRCLE
8
BLACK
10
7.84
20
-4.72
40
0.00787402
0
CIRCLE
8
BLACK
10
7.5825
20
-4.775
40
0.00787402
0
CIRCLE
8
BLACK
10
6.5
20
-5.01
40
0.00787402
0
CIRCLE
8
BLACK
10
7.016
20
-4.257
40
0.00787402
0
CIRCLE
8
BLACK
10
8.24816
20
-5.08516
40
0.00787402
0
CIRCLE
8
BLACK
10
6.26
20
-4.74
40
0.00787402
0
CIRCLE
8
BLACK
10
8
20
-4.72
40
0.00787402
0
CIRCLE
8
BLACK
10
8.222
20
-5.234
40
0.00787402
0
CIRCLE
8
BLACK
10
8
20
-5.315
40
0.00787402
0
CIRCLE
8
BLACK
10
6.4
20
-4.74
40
0.00787402
0
CIRCLE
8
BLACK
10
7.48
20
-4.582
40
0.00787402
0
CIRCLE
8
BLACK
10
7.28
20
-4.79
40
0.00787402
0
CIRCLE
8
BLACK
10
6.598
20
-4.389
40
0.00787402
0
CIRCLE
8
BLACK
10
7.14
20
-4.68
40
0.00787402
0
CIRCLE
8
BLACK
10
8
20
-4.84
40
0.00787402
0
CIRCLE
8
BLACK
10
7.57
20
-4.4
40
0.00787402
0
CIRCLE
8
BLACK
10
8
20
-4.78
40
0.00787402
0
CIRCLE
8
BLACK
10
7.286
20
-4.986
40
0.00787402
0
CIRCLE
8
BLACK
10
6.32
20
-4.74
40
0.00787402
0
CIRCLE
8
BLACK
10
8.314
20
-4.362
40
0.00787402
0
CIRCLE
8
BLACK
10
7.02
20
-4.985
40
0.00787402
0
CIRCLE
8
BLACK
10
6.815
20
-4.731
40
0.00787402
0
CIRCLE
8
BLACK
10
6.64
20
-4.3
40
0.00787402
0
CIRCLE
8
BLACK
10
6.7
20
-4.3
40
0.00787402
0
CIRCLE
8
BLACK
10
7.9336
20
-5.0286
40
0.00787402
0
CIRCLE
8
BLACK
10
7.88
20
-4.49
40
0.00787402
0
CIRCLE
8
BLACK
10
6.87
20
-4.39
40
0.00787402
0
CIRCLE
8
BLACK
10
7.73
20
-4.66
40
0.00787402
0
CIRCLE
8
BLACK
10
7.69556
20
-4.71519
40
0.00787402
0
CIRCLE
8
BLACK
10
7.278
20
-4.54
40
0.00787402
0
CIRCLE
8
BLACK
10
8.09
20
-4.97
40
0.00787402
0
CIRCLE
8
BLACK
10
7.08584
20
-5.3
40
0.00787402
0
CIRCLE
8
BLACK
10
7.03
20
-5.14
40
0.00787402
0
CIRCLE
8
BLACK
10
7.914
20
-5.15205
40
0.00787402
0
CIRCLE
8
BLACK
10
6.56
20
-5.02
40
0.00787402
0
CIRCLE
8
BLACK
10
6.56
20
-4.85
40
0.00787402
0
CIRCLE
8
BLACK
10
6.61
20
-5.19
40
0.00787402
0
CIRCLE
8
BLACK
10
6.98482
20
-5.19518
40
0.00787402
0
CIRCLE
8
BLACK
10
7.97507
20
-4.584
40
0.00787402
0
CIRCLE
8
BLACK
10
7.438
20
-4.50854
40
0.00787402
0
CIRCLE
8
BLACK
10
7.65
20
-5.06
40
0.00787402
0
CIRCLE
8
BLACK
10
8.21
20
-4.35
40
0.00787402
0
CIRCLE
8
BLACK
10
6.94
20
-4.93
40
0.00787402
0
CIRCLE
8
BLACK
10
6.92
20
-5.08
40
0.00787402
0
CIRCLE
8
BLACK
10
7.53
20
-5.15
40
0.00787402
0
CIRCLE
8
BLACK
10
8.25
20
-4.36
40
0.00787402
  0
ENDSEC
  0
EOF
