  0
SECTION
  2
HEADER
  9
$ANGBASE
  50
0.0
  9
$ANGDIR
  70
1
  9
$MEASUREMENT
  70
0
  0
ENDSEC
  0
SECTION
  2
TABLES
  0
TABLE
  2
LTYPE
  70
4
  0
LTYPE
  5
40F
  2
CONTINUOUS
  70
0
  3
Solid line
  72
65
  73
0
  40
0.0
  0
LTYPE
  5
410
  2
DASHDOT
 70
0
  3
Dash Dot ____ _ ____ _
 72
65
 73
4
 40
2.0
 49
1.25
 49
-0.25
 49
0.25
 49
-0.25
  0
LTYPE
  5
411
  2
DASHED
 70
0
  3
Dashed __ __ __ __ __
 72
65
 73
2
 40
0.75
 49
0.5
 49
-0.25
  0
LTYPE
  5
43B
  2
DOTTED
 70
0
  3
Dotted .  .  .  .
 72
65
 73
2
 40
0.2
 49
0.0
 49
-0.2
  0
ENDTAB
  0
TABLE
  2
STYLE
  70
4
  0
STYLE
  2
KICAD
  70
0
  40
0
  41
1
  42
1
  50
0
  71
0
  3
isocp.shx
  0
STYLE
  2
KICADB
  70
0
  40
0
  41
1
  42
1
  50
0
  71
0
  3
isocp.shx
  0
STYLE
  2
KICADI
  70
0
  40
0
  41
1
  42
1
  50
15
  71
0
  3
isocp.shx
  0
STYLE
  2
KICADBI
  70
0
  40
0
  41
1
  42
1
  50
15
  71
0
  3
isocp.shx
  0
ENDTAB
  0
TABLE
  2
LAYER
  70
1
  0
LAYER
  2
BLACK
  70
0
  62
7
  6
CONTINUOUS
  0
ENDTAB
  0
ENDSEC
  0
SECTION
  2
ENTITIES
0
LINE
8
BLACK
6
CONTINUOUS
10
7.27953
20
-5.53941
11
7.22047
21
-5.53941
0
LINE
8
BLACK
6
CONTINUOUS
10
7.22047
20
-5.53941
11
7.22047
21
-5.49807
0
LINE
8
BLACK
6
CONTINUOUS
10
7.22047
20
-5.49807
11
7.27953
21
-5.49807
0
LINE
8
BLACK
6
CONTINUOUS
10
7.27953
20
-5.49807
11
7.27953
21
-5.53941
0
LINE
8
BLACK
6
CONTINUOUS
10
7.11953
20
-5.53941
11
7.06047
21
-5.53941
0
LINE
8
BLACK
6
CONTINUOUS
10
7.06047
20
-5.53941
11
7.06047
21
-5.49807
0
LINE
8
BLACK
6
CONTINUOUS
10
7.06047
20
-5.49807
11
7.11953
21
-5.49807
0
LINE
8
BLACK
6
CONTINUOUS
10
7.11953
20
-5.49807
11
7.11953
21
-5.53941
0
LINE
8
BLACK
6
CONTINUOUS
10
7.27953
20
-5.38193
11
7.22047
21
-5.38193
0
LINE
8
BLACK
6
CONTINUOUS
10
7.22047
20
-5.38193
11
7.22047
21
-5.34059
0
LINE
8
BLACK
6
CONTINUOUS
10
7.22047
20
-5.34059
11
7.27953
21
-5.34059
0
LINE
8
BLACK
6
CONTINUOUS
10
7.27953
20
-5.34059
11
7.27953
21
-5.38193
0
LINE
8
BLACK
6
CONTINUOUS
10
7.11953
20
-5.38193
11
7.06047
21
-5.38193
0
LINE
8
BLACK
6
CONTINUOUS
10
7.06047
20
-5.38193
11
7.06047
21
-5.34059
0
LINE
8
BLACK
6
CONTINUOUS
10
7.06047
20
-5.34059
11
7.11953
21
-5.34059
0
LINE
8
BLACK
6
CONTINUOUS
10
7.11953
20
-5.34059
11
7.11953
21
-5.38193
0
LINE
8
BLACK
6
CONTINUOUS
10
8.0275
20
-5.2845
11
7.9725
21
-5.2845
0
LINE
8
BLACK
6
CONTINUOUS
10
7.9725
20
-5.2845
11
7.9725
21
-5.2495
0
LINE
8
BLACK
6
CONTINUOUS
10
7.9725
20
-5.2495
11
8.0275
21
-5.2495
0
LINE
8
BLACK
6
CONTINUOUS
10
8.0275
20
-5.2495
11
8.0275
21
-5.2845
0
LINE
8
BLACK
6
CONTINUOUS
10
8.0275
20
-5.2095
11
7.9725
21
-5.2095
0
LINE
8
BLACK
6
CONTINUOUS
10
7.9725
20
-5.2095
11
7.9725
21
-5.1745
0
LINE
8
BLACK
6
CONTINUOUS
10
7.9725
20
-5.1745
11
8.0275
21
-5.1745
0
LINE
8
BLACK
6
CONTINUOUS
10
8.0275
20
-5.1745
11
8.0275
21
-5.2095
0
LINE
8
BLACK
6
CONTINUOUS
10
7.6775
20
-5.1475
11
7.6425
21
-5.1475
0
LINE
8
BLACK
6
CONTINUOUS
10
7.6425
20
-5.1475
11
7.6425
21
-5.0925
0
LINE
8
BLACK
6
CONTINUOUS
10
7.6425
20
-5.0925
11
7.6775
21
-5.0925
0
LINE
8
BLACK
6
CONTINUOUS
10
7.6775
20
-5.0925
11
7.6775
21
-5.1475
0
LINE
8
BLACK
6
CONTINUOUS
10
7.6025
20
-5.1475
11
7.5675
21
-5.1475
0
LINE
8
BLACK
6
CONTINUOUS
10
7.5675
20
-5.1475
11
7.5675
21
-5.0925
0
LINE
8
BLACK
6
CONTINUOUS
10
7.5675
20
-5.0925
11
7.6025
21
-5.0925
0
LINE
8
BLACK
6
CONTINUOUS
10
7.6025
20
-5.0925
11
7.6025
21
-5.1475
0
LINE
8
BLACK
6
CONTINUOUS
10
6.87621
20
-5.13231
11
6.81519
21
-5.13231
0
LINE
8
BLACK
6
CONTINUOUS
10
6.81519
20
-5.13231
11
6.81519
21
-5.10869
0
LINE
8
BLACK
6
CONTINUOUS
10
6.81519
20
-5.10869
11
6.87621
21
-5.10869
0
LINE
8
BLACK
6
CONTINUOUS
10
6.87621
20
-5.10869
11
6.87621
21
-5.13231
0
LINE
8
BLACK
6
CONTINUOUS
10
6.66361
20
-5.13231
11
6.60259
21
-5.13231
0
LINE
8
BLACK
6
CONTINUOUS
10
6.60259
20
-5.13231
11
6.60259
21
-5.10869
0
LINE
8
BLACK
6
CONTINUOUS
10
6.60259
20
-5.10869
11
6.66361
21
-5.10869
0
LINE
8
BLACK
6
CONTINUOUS
10
6.66361
20
-5.10869
11
6.66361
21
-5.13231
0
LINE
8
BLACK
6
CONTINUOUS
10
8.20882
20
-5.06293
11
8.16993
21
-5.10182
0
LINE
8
BLACK
6
CONTINUOUS
10
8.16993
20
-5.10182
11
8.14518
21
-5.07707
0
LINE
8
BLACK
6
CONTINUOUS
10
8.14518
20
-5.07707
11
8.18407
21
-5.03818
0
LINE
8
BLACK
6
CONTINUOUS
10
8.18407
20
-5.03818
11
8.20882
21
-5.06293
0
LINE
8
BLACK
6
CONTINUOUS
10
6.87621
20
-5.08231
11
6.81519
21
-5.08231
0
LINE
8
BLACK
6
CONTINUOUS
10
6.81519
20
-5.08231
11
6.81519
21
-5.05869
0
LINE
8
BLACK
6
CONTINUOUS
10
6.81519
20
-5.05869
11
6.87621
21
-5.05869
0
LINE
8
BLACK
6
CONTINUOUS
10
6.87621
20
-5.05869
11
6.87621
21
-5.08231
0
LINE
8
BLACK
6
CONTINUOUS
10
6.66361
20
-5.08231
11
6.60259
21
-5.08231
0
LINE
8
BLACK
6
CONTINUOUS
10
6.60259
20
-5.08231
11
6.60259
21
-5.05869
0
LINE
8
BLACK
6
CONTINUOUS
10
6.60259
20
-5.05869
11
6.66361
21
-5.05869
0
LINE
8
BLACK
6
CONTINUOUS
10
6.66361
20
-5.05869
11
6.66361
21
-5.08231
0
LINE
8
BLACK
6
CONTINUOUS
10
8.15579
20
-5.0099
11
8.1169
21
-5.04879
0
LINE
8
BLACK
6
CONTINUOUS
10
8.1169
20
-5.04879
11
8.09215
21
-5.02404
0
LINE
8
BLACK
6
CONTINUOUS
10
8.09215
20
-5.02404
11
8.13104
21
-4.98515
0
LINE
8
BLACK
6
CONTINUOUS
10
8.13104
20
-4.98515
11
8.15579
21
-5.0099
0
LINE
8
BLACK
6
CONTINUOUS
10
6.66361
20
-5.03231
11
6.60259
21
-5.03231
0
LINE
8
BLACK
6
CONTINUOUS
10
6.60259
20
-5.03231
11
6.60259
21
-5.00869
0
LINE
8
BLACK
6
CONTINUOUS
10
6.60259
20
-5.00869
11
6.66361
21
-5.00869
0
LINE
8
BLACK
6
CONTINUOUS
10
6.66361
20
-5.00869
11
6.66361
21
-5.03231
0
LINE
8
BLACK
6
CONTINUOUS
10
6.87621
20
-5.03231
11
6.81519
21
-5.03231
0
LINE
8
BLACK
6
CONTINUOUS
10
6.81519
20
-5.03231
11
6.81519
21
-5.00869
0
LINE
8
BLACK
6
CONTINUOUS
10
6.81519
20
-5.00869
11
6.87621
21
-5.00869
0
LINE
8
BLACK
6
CONTINUOUS
10
6.87621
20
-5.00869
11
6.87621
21
-5.03231
0
LINE
8
BLACK
6
CONTINUOUS
10
6.66361
20
-4.98231
11
6.60259
21
-4.98231
0
LINE
8
BLACK
6
CONTINUOUS
10
6.60259
20
-4.98231
11
6.60259
21
-4.95869
0
LINE
8
BLACK
6
CONTINUOUS
10
6.60259
20
-4.95869
11
6.66361
21
-4.95869
0
LINE
8
BLACK
6
CONTINUOUS
10
6.66361
20
-4.95869
11
6.66361
21
-4.98231
0
LINE
8
BLACK
6
CONTINUOUS
10
6.87621
20
-4.98231
11
6.81519
21
-4.98231
0
LINE
8
BLACK
6
CONTINUOUS
10
6.81519
20
-4.98231
11
6.81519
21
-4.95869
0
LINE
8
BLACK
6
CONTINUOUS
10
6.81519
20
-4.95869
11
6.87621
21
-4.95869
0
LINE
8
BLACK
6
CONTINUOUS
10
6.87621
20
-4.95869
11
6.87621
21
-4.98231
0
LINE
8
BLACK
6
CONTINUOUS
10
7.40235
20
-4.93596
11
7.36346
21
-4.97485
0
LINE
8
BLACK
6
CONTINUOUS
10
7.36346
20
-4.97485
11
7.33871
21
-4.9501
0
LINE
8
BLACK
6
CONTINUOUS
10
7.33871
20
-4.9501
11
7.3776
21
-4.91121
0
LINE
8
BLACK
6
CONTINUOUS
10
7.3776
20
-4.91121
11
7.40235
21
-4.93596
0
LINE
8
BLACK
6
CONTINUOUS
10
7.83182
20
-4.9118
11
7.83262
21
-4.91233
0
LINE
8
BLACK
6
CONTINUOUS
10
7.83262
20
-4.91233
11
7.83315
21
-4.91313
0
LINE
8
BLACK
6
CONTINUOUS
10
7.83315
20
-4.91313
11
7.83334
21
-4.91407
0
LINE
8
BLACK
6
CONTINUOUS
10
7.83334
20
-4.91407
11
7.83334
21
-4.9436
0
LINE
8
BLACK
6
CONTINUOUS
10
7.83334
20
-4.9436
11
7.83315
21
-4.94454
0
LINE
8
BLACK
6
CONTINUOUS
10
7.83315
20
-4.94454
11
7.83262
21
-4.94534
0
LINE
8
BLACK
6
CONTINUOUS
10
7.83262
20
-4.94534
11
7.83182
21
-4.94587
0
LINE
8
BLACK
6
CONTINUOUS
10
7.83182
20
-4.94587
11
7.83088
21
-4.94606
0
LINE
8
BLACK
6
CONTINUOUS
10
7.83088
20
-4.94606
11
7.82596
21
-4.94606
0
LINE
8
BLACK
6
CONTINUOUS
10
7.82596
20
-4.94606
11
7.82502
21
-4.94587
0
LINE
8
BLACK
6
CONTINUOUS
10
7.82502
20
-4.94587
11
7.82422
21
-4.94534
0
LINE
8
BLACK
6
CONTINUOUS
10
7.82422
20
-4.94534
11
7.82368
21
-4.94454
0
LINE
8
BLACK
6
CONTINUOUS
10
7.82368
20
-4.94454
11
7.8235
21
-4.9436
0
LINE
8
BLACK
6
CONTINUOUS
10
7.8235
20
-4.9436
11
7.8235
21
-4.91407
0
LINE
8
BLACK
6
CONTINUOUS
10
7.8235
20
-4.91407
11
7.82368
21
-4.91313
0
LINE
8
BLACK
6
CONTINUOUS
10
7.82368
20
-4.91313
11
7.82422
21
-4.91233
0
LINE
8
BLACK
6
CONTINUOUS
10
7.82422
20
-4.91233
11
7.82502
21
-4.9118
0
LINE
8
BLACK
6
CONTINUOUS
10
7.82502
20
-4.9118
11
7.82596
21
-4.91161
0
LINE
8
BLACK
6
CONTINUOUS
10
7.82596
20
-4.91161
11
7.83088
21
-4.91161
0
LINE
8
BLACK
6
CONTINUOUS
10
7.83088
20
-4.91161
11
7.83182
21
-4.9118
0
LINE
8
BLACK
6
CONTINUOUS
10
7.81213
20
-4.9118
11
7.81293
21
-4.91233
0
LINE
8
BLACK
6
CONTINUOUS
10
7.81293
20
-4.91233
11
7.81347
21
-4.91313
0
LINE
8
BLACK
6
CONTINUOUS
10
7.81347
20
-4.91313
11
7.81365
21
-4.91407
0
LINE
8
BLACK
6
CONTINUOUS
10
7.81365
20
-4.91407
11
7.81365
21
-4.9436
0
LINE
8
BLACK
6
CONTINUOUS
10
7.81365
20
-4.9436
11
7.81347
21
-4.94454
0
LINE
8
BLACK
6
CONTINUOUS
10
7.81347
20
-4.94454
11
7.81293
21
-4.94534
0
LINE
8
BLACK
6
CONTINUOUS
10
7.81293
20
-4.94534
11
7.81213
21
-4.94587
0
LINE
8
BLACK
6
CONTINUOUS
10
7.81213
20
-4.94587
11
7.81119
21
-4.94606
0
LINE
8
BLACK
6
CONTINUOUS
10
7.81119
20
-4.94606
11
7.80627
21
-4.94606
0
LINE
8
BLACK
6
CONTINUOUS
10
7.80627
20
-4.94606
11
7.80533
21
-4.94587
0
LINE
8
BLACK
6
CONTINUOUS
10
7.80533
20
-4.94587
11
7.80453
21
-4.94534
0
LINE
8
BLACK
6
CONTINUOUS
10
7.80453
20
-4.94534
11
7.804
21
-4.94454
0
LINE
8
BLACK
6
CONTINUOUS
10
7.804
20
-4.94454
11
7.80381
21
-4.9436
0
LINE
8
BLACK
6
CONTINUOUS
10
7.80381
20
-4.9436
11
7.80381
21
-4.91407
0
LINE
8
BLACK
6
CONTINUOUS
10
7.80381
20
-4.91407
11
7.804
21
-4.91313
0
LINE
8
BLACK
6
CONTINUOUS
10
7.804
20
-4.91313
11
7.80453
21
-4.91233
0
LINE
8
BLACK
6
CONTINUOUS
10
7.80453
20
-4.91233
11
7.80533
21
-4.9118
0
LINE
8
BLACK
6
CONTINUOUS
10
7.80533
20
-4.9118
11
7.80627
21
-4.91161
0
LINE
8
BLACK
6
CONTINUOUS
10
7.80627
20
-4.91161
11
7.81119
21
-4.91161
0
LINE
8
BLACK
6
CONTINUOUS
10
7.81119
20
-4.91161
11
7.81213
21
-4.9118
0
LINE
8
BLACK
6
CONTINUOUS
10
7.8515
20
-4.9118
11
7.8523
21
-4.91233
0
LINE
8
BLACK
6
CONTINUOUS
10
7.8523
20
-4.91233
11
7.85284
21
-4.91313
0
LINE
8
BLACK
6
CONTINUOUS
10
7.85284
20
-4.91313
11
7.85302
21
-4.91407
0
LINE
8
BLACK
6
CONTINUOUS
10
7.85302
20
-4.91407
11
7.85302
21
-4.9436
0
LINE
8
BLACK
6
CONTINUOUS
10
7.85302
20
-4.9436
11
7.85284
21
-4.94454
0
LINE
8
BLACK
6
CONTINUOUS
10
7.85284
20
-4.94454
11
7.8523
21
-4.94534
0
LINE
8
BLACK
6
CONTINUOUS
10
7.8523
20
-4.94534
11
7.8515
21
-4.94587
0
LINE
8
BLACK
6
CONTINUOUS
10
7.8515
20
-4.94587
11
7.85056
21
-4.94606
0
LINE
8
BLACK
6
CONTINUOUS
10
7.85056
20
-4.94606
11
7.84564
21
-4.94606
0
LINE
8
BLACK
6
CONTINUOUS
10
7.84564
20
-4.94606
11
7.8447
21
-4.94587
0
LINE
8
BLACK
6
CONTINUOUS
10
7.8447
20
-4.94587
11
7.8439
21
-4.94534
0
LINE
8
BLACK
6
CONTINUOUS
10
7.8439
20
-4.94534
11
7.84337
21
-4.94454
0
LINE
8
BLACK
6
CONTINUOUS
10
7.84337
20
-4.94454
11
7.84318
21
-4.9436
0
LINE
8
BLACK
6
CONTINUOUS
10
7.84318
20
-4.9436
11
7.84318
21
-4.91407
0
LINE
8
BLACK
6
CONTINUOUS
10
7.84318
20
-4.91407
11
7.84337
21
-4.91313
0
LINE
8
BLACK
6
CONTINUOUS
10
7.84337
20
-4.91313
11
7.8439
21
-4.91233
0
LINE
8
BLACK
6
CONTINUOUS
10
7.8439
20
-4.91233
11
7.8447
21
-4.9118
0
LINE
8
BLACK
6
CONTINUOUS
10
7.8447
20
-4.9118
11
7.84564
21
-4.91161
0
LINE
8
BLACK
6
CONTINUOUS
10
7.84564
20
-4.91161
11
7.85056
21
-4.91161
0
LINE
8
BLACK
6
CONTINUOUS
10
7.85056
20
-4.91161
11
7.8515
21
-4.9118
0
LINE
8
BLACK
6
CONTINUOUS
10
7.87119
20
-4.9118
11
7.87199
21
-4.91233
0
LINE
8
BLACK
6
CONTINUOUS
10
7.87199
20
-4.91233
11
7.87252
21
-4.91313
0
LINE
8
BLACK
6
CONTINUOUS
10
7.87252
20
-4.91313
11
7.87271
21
-4.91407
0
LINE
8
BLACK
6
CONTINUOUS
10
7.87271
20
-4.91407
11
7.87271
21
-4.9436
0
LINE
8
BLACK
6
CONTINUOUS
10
7.87271
20
-4.9436
11
7.87252
21
-4.94454
0
LINE
8
BLACK
6
CONTINUOUS
10
7.87252
20
-4.94454
11
7.87199
21
-4.94534
0
LINE
8
BLACK
6
CONTINUOUS
10
7.87199
20
-4.94534
11
7.87119
21
-4.94587
0
LINE
8
BLACK
6
CONTINUOUS
10
7.87119
20
-4.94587
11
7.87025
21
-4.94606
0
LINE
8
BLACK
6
CONTINUOUS
10
7.87025
20
-4.94606
11
7.86533
21
-4.94606
0
LINE
8
BLACK
6
CONTINUOUS
10
7.86533
20
-4.94606
11
7.86439
21
-4.94587
0
LINE
8
BLACK
6
CONTINUOUS
10
7.86439
20
-4.94587
11
7.86359
21
-4.94534
0
LINE
8
BLACK
6
CONTINUOUS
10
7.86359
20
-4.94534
11
7.86305
21
-4.94454
0
LINE
8
BLACK
6
CONTINUOUS
10
7.86305
20
-4.94454
11
7.86287
21
-4.9436
0
LINE
8
BLACK
6
CONTINUOUS
10
7.86287
20
-4.9436
11
7.86287
21
-4.91407
0
LINE
8
BLACK
6
CONTINUOUS
10
7.86287
20
-4.91407
11
7.86305
21
-4.91313
0
LINE
8
BLACK
6
CONTINUOUS
10
7.86305
20
-4.91313
11
7.86359
21
-4.91233
0
LINE
8
BLACK
6
CONTINUOUS
10
7.86359
20
-4.91233
11
7.86439
21
-4.9118
0
LINE
8
BLACK
6
CONTINUOUS
10
7.86439
20
-4.9118
11
7.86533
21
-4.91161
0
LINE
8
BLACK
6
CONTINUOUS
10
7.86533
20
-4.91161
11
7.87025
21
-4.91161
0
LINE
8
BLACK
6
CONTINUOUS
10
7.87025
20
-4.91161
11
7.87119
21
-4.9118
0
LINE
8
BLACK
6
CONTINUOUS
10
7.91056
20
-4.9118
11
7.91136
21
-4.91233
0
LINE
8
BLACK
6
CONTINUOUS
10
7.91136
20
-4.91233
11
7.91189
21
-4.91313
0
LINE
8
BLACK
6
CONTINUOUS
10
7.91189
20
-4.91313
11
7.91208
21
-4.91407
0
LINE
8
BLACK
6
CONTINUOUS
10
7.91208
20
-4.91407
11
7.91208
21
-4.9436
0
LINE
8
BLACK
6
CONTINUOUS
10
7.91208
20
-4.9436
11
7.91189
21
-4.94454
0
LINE
8
BLACK
6
CONTINUOUS
10
7.91189
20
-4.94454
11
7.91136
21
-4.94534
0
LINE
8
BLACK
6
CONTINUOUS
10
7.91136
20
-4.94534
11
7.91056
21
-4.94587
0
LINE
8
BLACK
6
CONTINUOUS
10
7.91056
20
-4.94587
11
7.90962
21
-4.94606
0
LINE
8
BLACK
6
CONTINUOUS
10
7.90962
20
-4.94606
11
7.9047
21
-4.94606
0
LINE
8
BLACK
6
CONTINUOUS
10
7.9047
20
-4.94606
11
7.90376
21
-4.94587
0
LINE
8
BLACK
6
CONTINUOUS
10
7.90376
20
-4.94587
11
7.90296
21
-4.94534
0
LINE
8
BLACK
6
CONTINUOUS
10
7.90296
20
-4.94534
11
7.90242
21
-4.94454
0
LINE
8
BLACK
6
CONTINUOUS
10
7.90242
20
-4.94454
11
7.90224
21
-4.9436
0
LINE
8
BLACK
6
CONTINUOUS
10
7.90224
20
-4.9436
11
7.90224
21
-4.91407
0
LINE
8
BLACK
6
CONTINUOUS
10
7.90224
20
-4.91407
11
7.90242
21
-4.91313
0
LINE
8
BLACK
6
CONTINUOUS
10
7.90242
20
-4.91313
11
7.90296
21
-4.91233
0
LINE
8
BLACK
6
CONTINUOUS
10
7.90296
20
-4.91233
11
7.90376
21
-4.9118
0
LINE
8
BLACK
6
CONTINUOUS
10
7.90376
20
-4.9118
11
7.9047
21
-4.91161
0
LINE
8
BLACK
6
CONTINUOUS
10
7.9047
20
-4.91161
11
7.90962
21
-4.91161
0
LINE
8
BLACK
6
CONTINUOUS
10
7.90962
20
-4.91161
11
7.91056
21
-4.9118
0
LINE
8
BLACK
6
CONTINUOUS
10
8.02867
20
-4.9118
11
8.02947
21
-4.91233
0
LINE
8
BLACK
6
CONTINUOUS
10
8.02947
20
-4.91233
11
8.03
21
-4.91313
0
LINE
8
BLACK
6
CONTINUOUS
10
8.03
20
-4.91313
11
8.03019
21
-4.91407
0
LINE
8
BLACK
6
CONTINUOUS
10
8.03019
20
-4.91407
11
8.03019
21
-4.9436
0
LINE
8
BLACK
6
CONTINUOUS
10
8.03019
20
-4.9436
11
8.03
21
-4.94454
0
LINE
8
BLACK
6
CONTINUOUS
10
8.03
20
-4.94454
11
8.02947
21
-4.94534
0
LINE
8
BLACK
6
CONTINUOUS
10
8.02947
20
-4.94534
11
8.02867
21
-4.94587
0
LINE
8
BLACK
6
CONTINUOUS
10
8.02867
20
-4.94587
11
8.02773
21
-4.94606
0
LINE
8
BLACK
6
CONTINUOUS
10
8.02773
20
-4.94606
11
8.02281
21
-4.94606
0
LINE
8
BLACK
6
CONTINUOUS
10
8.02281
20
-4.94606
11
8.02187
21
-4.94587
0
LINE
8
BLACK
6
CONTINUOUS
10
8.02187
20
-4.94587
11
8.02107
21
-4.94534
0
LINE
8
BLACK
6
CONTINUOUS
10
8.02107
20
-4.94534
11
8.02053
21
-4.94454
0
LINE
8
BLACK
6
CONTINUOUS
10
8.02053
20
-4.94454
11
8.02035
21
-4.9436
0
LINE
8
BLACK
6
CONTINUOUS
10
8.02035
20
-4.9436
11
8.02035
21
-4.91407
0
LINE
8
BLACK
6
CONTINUOUS
10
8.02035
20
-4.91407
11
8.02053
21
-4.91313
0
LINE
8
BLACK
6
CONTINUOUS
10
8.02053
20
-4.91313
11
8.02107
21
-4.91233
0
LINE
8
BLACK
6
CONTINUOUS
10
8.02107
20
-4.91233
11
8.02187
21
-4.9118
0
LINE
8
BLACK
6
CONTINUOUS
10
8.02187
20
-4.9118
11
8.02281
21
-4.91161
0
LINE
8
BLACK
6
CONTINUOUS
10
8.02281
20
-4.91161
11
8.02773
21
-4.91161
0
LINE
8
BLACK
6
CONTINUOUS
10
8.02773
20
-4.91161
11
8.02867
21
-4.9118
0
LINE
8
BLACK
6
CONTINUOUS
10
8.00898
20
-4.9118
11
8.00978
21
-4.91233
0
LINE
8
BLACK
6
CONTINUOUS
10
8.00978
20
-4.91233
11
8.01032
21
-4.91313
0
LINE
8
BLACK
6
CONTINUOUS
10
8.01032
20
-4.91313
11
8.0105
21
-4.91407
0
LINE
8
BLACK
6
CONTINUOUS
10
8.0105
20
-4.91407
11
8.0105
21
-4.9436
0
LINE
8
BLACK
6
CONTINUOUS
10
8.0105
20
-4.9436
11
8.01032
21
-4.94454
0
LINE
8
BLACK
6
CONTINUOUS
10
8.01032
20
-4.94454
11
8.00978
21
-4.94534
0
LINE
8
BLACK
6
CONTINUOUS
10
8.00978
20
-4.94534
11
8.00898
21
-4.94587
0
LINE
8
BLACK
6
CONTINUOUS
10
8.00898
20
-4.94587
11
8.00804
21
-4.94606
0
LINE
8
BLACK
6
CONTINUOUS
10
8.00804
20
-4.94606
11
8.00312
21
-4.94606
0
LINE
8
BLACK
6
CONTINUOUS
10
8.00312
20
-4.94606
11
8.00218
21
-4.94587
0
LINE
8
BLACK
6
CONTINUOUS
10
8.00218
20
-4.94587
11
8.00138
21
-4.94534
0
LINE
8
BLACK
6
CONTINUOUS
10
8.00138
20
-4.94534
11
8.00085
21
-4.94454
0
LINE
8
BLACK
6
CONTINUOUS
10
8.00085
20
-4.94454
11
8.00066
21
-4.9436
0
LINE
8
BLACK
6
CONTINUOUS
10
8.00066
20
-4.9436
11
8.00066
21
-4.91407
0
LINE
8
BLACK
6
CONTINUOUS
10
8.00066
20
-4.91407
11
8.00085
21
-4.91313
0
LINE
8
BLACK
6
CONTINUOUS
10
8.00085
20
-4.91313
11
8.00138
21
-4.91233
0
LINE
8
BLACK
6
CONTINUOUS
10
8.00138
20
-4.91233
11
8.00218
21
-4.9118
0
LINE
8
BLACK
6
CONTINUOUS
10
8.00218
20
-4.9118
11
8.00312
21
-4.91161
0
LINE
8
BLACK
6
CONTINUOUS
10
8.00312
20
-4.91161
11
8.00804
21
-4.91161
0
LINE
8
BLACK
6
CONTINUOUS
10
8.00804
20
-4.91161
11
8.00898
21
-4.9118
0
LINE
8
BLACK
6
CONTINUOUS
10
7.9893
20
-4.9118
11
7.9901
21
-4.91233
0
LINE
8
BLACK
6
CONTINUOUS
10
7.9901
20
-4.91233
11
7.99063
21
-4.91313
0
LINE
8
BLACK
6
CONTINUOUS
10
7.99063
20
-4.91313
11
7.99082
21
-4.91407
0
LINE
8
BLACK
6
CONTINUOUS
10
7.99082
20
-4.91407
11
7.99082
21
-4.9436
0
LINE
8
BLACK
6
CONTINUOUS
10
7.99082
20
-4.9436
11
7.99063
21
-4.94454
0
LINE
8
BLACK
6
CONTINUOUS
10
7.99063
20
-4.94454
11
7.9901
21
-4.94534
0
LINE
8
BLACK
6
CONTINUOUS
10
7.9901
20
-4.94534
11
7.9893
21
-4.94587
0
LINE
8
BLACK
6
CONTINUOUS
10
7.9893
20
-4.94587
11
7.98836
21
-4.94606
0
LINE
8
BLACK
6
CONTINUOUS
10
7.98836
20
-4.94606
11
7.98344
21
-4.94606
0
LINE
8
BLACK
6
CONTINUOUS
10
7.98344
20
-4.94606
11
7.9825
21
-4.94587
0
LINE
8
BLACK
6
CONTINUOUS
10
7.9825
20
-4.94587
11
7.9817
21
-4.94534
0
LINE
8
BLACK
6
CONTINUOUS
10
7.9817
20
-4.94534
11
7.98116
21
-4.94454
0
LINE
8
BLACK
6
CONTINUOUS
10
7.98116
20
-4.94454
11
7.98098
21
-4.9436
0
LINE
8
BLACK
6
CONTINUOUS
10
7.98098
20
-4.9436
11
7.98098
21
-4.91407
0
LINE
8
BLACK
6
CONTINUOUS
10
7.98098
20
-4.91407
11
7.98116
21
-4.91313
0
LINE
8
BLACK
6
CONTINUOUS
10
7.98116
20
-4.91313
11
7.9817
21
-4.91233
0
LINE
8
BLACK
6
CONTINUOUS
10
7.9817
20
-4.91233
11
7.9825
21
-4.9118
0
LINE
8
BLACK
6
CONTINUOUS
10
7.9825
20
-4.9118
11
7.98344
21
-4.91161
0
LINE
8
BLACK
6
CONTINUOUS
10
7.98344
20
-4.91161
11
7.98836
21
-4.91161
0
LINE
8
BLACK
6
CONTINUOUS
10
7.98836
20
-4.91161
11
7.9893
21
-4.9118
0
LINE
8
BLACK
6
CONTINUOUS
10
7.96961
20
-4.9118
11
7.97041
21
-4.91233
0
LINE
8
BLACK
6
CONTINUOUS
10
7.97041
20
-4.91233
11
7.97095
21
-4.91313
0
LINE
8
BLACK
6
CONTINUOUS
10
7.97095
20
-4.91313
11
7.97113
21
-4.91407
0
LINE
8
BLACK
6
CONTINUOUS
10
7.97113
20
-4.91407
11
7.97113
21
-4.9436
0
LINE
8
BLACK
6
CONTINUOUS
10
7.97113
20
-4.9436
11
7.97095
21
-4.94454
0
LINE
8
BLACK
6
CONTINUOUS
10
7.97095
20
-4.94454
11
7.97041
21
-4.94534
0
LINE
8
BLACK
6
CONTINUOUS
10
7.97041
20
-4.94534
11
7.96961
21
-4.94587
0
LINE
8
BLACK
6
CONTINUOUS
10
7.96961
20
-4.94587
11
7.96867
21
-4.94606
0
LINE
8
BLACK
6
CONTINUOUS
10
7.96867
20
-4.94606
11
7.96375
21
-4.94606
0
LINE
8
BLACK
6
CONTINUOUS
10
7.96375
20
-4.94606
11
7.96281
21
-4.94587
0
LINE
8
BLACK
6
CONTINUOUS
10
7.96281
20
-4.94587
11
7.96201
21
-4.94534
0
LINE
8
BLACK
6
CONTINUOUS
10
7.96201
20
-4.94534
11
7.96148
21
-4.94454
0
LINE
8
BLACK
6
CONTINUOUS
10
7.96148
20
-4.94454
11
7.96129
21
-4.9436
0
LINE
8
BLACK
6
CONTINUOUS
10
7.96129
20
-4.9436
11
7.96129
21
-4.91407
0
LINE
8
BLACK
6
CONTINUOUS
10
7.96129
20
-4.91407
11
7.96148
21
-4.91313
0
LINE
8
BLACK
6
CONTINUOUS
10
7.96148
20
-4.91313
11
7.96201
21
-4.91233
0
LINE
8
BLACK
6
CONTINUOUS
10
7.96201
20
-4.91233
11
7.96281
21
-4.9118
0
LINE
8
BLACK
6
CONTINUOUS
10
7.96281
20
-4.9118
11
7.96375
21
-4.91161
0
LINE
8
BLACK
6
CONTINUOUS
10
7.96375
20
-4.91161
11
7.96867
21
-4.91161
0
LINE
8
BLACK
6
CONTINUOUS
10
7.96867
20
-4.91161
11
7.96961
21
-4.9118
0
LINE
8
BLACK
6
CONTINUOUS
10
7.94993
20
-4.9118
11
7.95073
21
-4.91233
0
LINE
8
BLACK
6
CONTINUOUS
10
7.95073
20
-4.91233
11
7.95126
21
-4.91313
0
LINE
8
BLACK
6
CONTINUOUS
10
7.95126
20
-4.91313
11
7.95145
21
-4.91407
0
LINE
8
BLACK
6
CONTINUOUS
10
7.95145
20
-4.91407
11
7.95145
21
-4.9436
0
LINE
8
BLACK
6
CONTINUOUS
10
7.95145
20
-4.9436
11
7.95126
21
-4.94454
0
LINE
8
BLACK
6
CONTINUOUS
10
7.95126
20
-4.94454
11
7.95073
21
-4.94534
0
LINE
8
BLACK
6
CONTINUOUS
10
7.95073
20
-4.94534
11
7.94993
21
-4.94587
0
LINE
8
BLACK
6
CONTINUOUS
10
7.94993
20
-4.94587
11
7.94899
21
-4.94606
0
LINE
8
BLACK
6
CONTINUOUS
10
7.94899
20
-4.94606
11
7.94407
21
-4.94606
0
LINE
8
BLACK
6
CONTINUOUS
10
7.94407
20
-4.94606
11
7.94313
21
-4.94587
0
LINE
8
BLACK
6
CONTINUOUS
10
7.94313
20
-4.94587
11
7.94233
21
-4.94534
0
LINE
8
BLACK
6
CONTINUOUS
10
7.94233
20
-4.94534
11
7.94179
21
-4.94454
0
LINE
8
BLACK
6
CONTINUOUS
10
7.94179
20
-4.94454
11
7.94161
21
-4.9436
0
LINE
8
BLACK
6
CONTINUOUS
10
7.94161
20
-4.9436
11
7.94161
21
-4.91407
0
LINE
8
BLACK
6
CONTINUOUS
10
7.94161
20
-4.91407
11
7.94179
21
-4.91313
0
LINE
8
BLACK
6
CONTINUOUS
10
7.94179
20
-4.91313
11
7.94233
21
-4.91233
0
LINE
8
BLACK
6
CONTINUOUS
10
7.94233
20
-4.91233
11
7.94313
21
-4.9118
0
LINE
8
BLACK
6
CONTINUOUS
10
7.94313
20
-4.9118
11
7.94407
21
-4.91161
0
LINE
8
BLACK
6
CONTINUOUS
10
7.94407
20
-4.91161
11
7.94899
21
-4.91161
0
LINE
8
BLACK
6
CONTINUOUS
10
7.94899
20
-4.91161
11
7.94993
21
-4.9118
0
LINE
8
BLACK
6
CONTINUOUS
10
7.93024
20
-4.9118
11
7.93104
21
-4.91233
0
LINE
8
BLACK
6
CONTINUOUS
10
7.93104
20
-4.91233
11
7.93158
21
-4.91313
0
LINE
8
BLACK
6
CONTINUOUS
10
7.93158
20
-4.91313
11
7.93176
21
-4.91407
0
LINE
8
BLACK
6
CONTINUOUS
10
7.93176
20
-4.91407
11
7.93176
21
-4.9436
0
LINE
8
BLACK
6
CONTINUOUS
10
7.93176
20
-4.9436
11
7.93158
21
-4.94454
0
LINE
8
BLACK
6
CONTINUOUS
10
7.93158
20
-4.94454
11
7.93104
21
-4.94534
0
LINE
8
BLACK
6
CONTINUOUS
10
7.93104
20
-4.94534
11
7.93024
21
-4.94587
0
LINE
8
BLACK
6
CONTINUOUS
10
7.93024
20
-4.94587
11
7.9293
21
-4.94606
0
LINE
8
BLACK
6
CONTINUOUS
10
7.9293
20
-4.94606
11
7.92438
21
-4.94606
0
LINE
8
BLACK
6
CONTINUOUS
10
7.92438
20
-4.94606
11
7.92344
21
-4.94587
0
LINE
8
BLACK
6
CONTINUOUS
10
7.92344
20
-4.94587
11
7.92264
21
-4.94534
0
LINE
8
BLACK
6
CONTINUOUS
10
7.92264
20
-4.94534
11
7.92211
21
-4.94454
0
LINE
8
BLACK
6
CONTINUOUS
10
7.92211
20
-4.94454
11
7.92192
21
-4.9436
0
LINE
8
BLACK
6
CONTINUOUS
10
7.92192
20
-4.9436
11
7.92192
21
-4.91407
0
LINE
8
BLACK
6
CONTINUOUS
10
7.92192
20
-4.91407
11
7.92211
21
-4.91313
0
LINE
8
BLACK
6
CONTINUOUS
10
7.92211
20
-4.91313
11
7.92264
21
-4.91233
0
LINE
8
BLACK
6
CONTINUOUS
10
7.92264
20
-4.91233
11
7.92344
21
-4.9118
0
LINE
8
BLACK
6
CONTINUOUS
10
7.92344
20
-4.9118
11
7.92438
21
-4.91161
0
LINE
8
BLACK
6
CONTINUOUS
10
7.92438
20
-4.91161
11
7.9293
21
-4.91161
0
LINE
8
BLACK
6
CONTINUOUS
10
7.9293
20
-4.91161
11
7.93024
21
-4.9118
0
LINE
8
BLACK
6
CONTINUOUS
10
7.89087
20
-4.9118
11
7.89167
21
-4.91233
0
LINE
8
BLACK
6
CONTINUOUS
10
7.89167
20
-4.91233
11
7.89221
21
-4.91313
0
LINE
8
BLACK
6
CONTINUOUS
10
7.89221
20
-4.91313
11
7.89239
21
-4.91407
0
LINE
8
BLACK
6
CONTINUOUS
10
7.89239
20
-4.91407
11
7.89239
21
-4.9436
0
LINE
8
BLACK
6
CONTINUOUS
10
7.89239
20
-4.9436
11
7.89221
21
-4.94454
0
LINE
8
BLACK
6
CONTINUOUS
10
7.89221
20
-4.94454
11
7.89167
21
-4.94534
0
LINE
8
BLACK
6
CONTINUOUS
10
7.89167
20
-4.94534
11
7.89087
21
-4.94587
0
LINE
8
BLACK
6
CONTINUOUS
10
7.89087
20
-4.94587
11
7.88993
21
-4.94606
0
LINE
8
BLACK
6
CONTINUOUS
10
7.88993
20
-4.94606
11
7.88501
21
-4.94606
0
LINE
8
BLACK
6
CONTINUOUS
10
7.88501
20
-4.94606
11
7.88407
21
-4.94587
0
LINE
8
BLACK
6
CONTINUOUS
10
7.88407
20
-4.94587
11
7.88327
21
-4.94534
0
LINE
8
BLACK
6
CONTINUOUS
10
7.88327
20
-4.94534
11
7.88274
21
-4.94454
0
LINE
8
BLACK
6
CONTINUOUS
10
7.88274
20
-4.94454
11
7.88255
21
-4.9436
0
LINE
8
BLACK
6
CONTINUOUS
10
7.88255
20
-4.9436
11
7.88255
21
-4.91407
0
LINE
8
BLACK
6
CONTINUOUS
10
7.88255
20
-4.91407
11
7.88274
21
-4.91313
0
LINE
8
BLACK
6
CONTINUOUS
10
7.88274
20
-4.91313
11
7.88327
21
-4.91233
0
LINE
8
BLACK
6
CONTINUOUS
10
7.88327
20
-4.91233
11
7.88407
21
-4.9118
0
LINE
8
BLACK
6
CONTINUOUS
10
7.88407
20
-4.9118
11
7.88501
21
-4.91161
0
LINE
8
BLACK
6
CONTINUOUS
10
7.88501
20
-4.91161
11
7.88993
21
-4.91161
0
LINE
8
BLACK
6
CONTINUOUS
10
7.88993
20
-4.91161
11
7.89087
21
-4.9118
0
LINE
8
BLACK
6
CONTINUOUS
10
7.48163
20
-4.90364
11
7.44405
21
-4.94123
0
LINE
8
BLACK
6
CONTINUOUS
10
7.44405
20
-4.94123
11
7.39951
21
-4.89669
0
LINE
8
BLACK
6
CONTINUOUS
10
7.39951
20
-4.89669
11
7.43709
21
-4.8591
0
LINE
8
BLACK
6
CONTINUOUS
10
7.43709
20
-4.8591
11
7.48163
21
-4.90364
0
LINE
8
BLACK
6
CONTINUOUS
10
7.34932
20
-4.88293
11
7.31043
21
-4.92182
0
LINE
8
BLACK
6
CONTINUOUS
10
7.31043
20
-4.92182
11
7.28568
21
-4.89707
0
LINE
8
BLACK
6
CONTINUOUS
10
7.28568
20
-4.89707
11
7.32457
21
-4.85818
0
LINE
8
BLACK
6
CONTINUOUS
10
7.32457
20
-4.85818
11
7.34932
21
-4.88293
0
LINE
8
BLACK
6
CONTINUOUS
10
7.79737
20
-4.89703
11
7.79817
21
-4.89757
0
LINE
8
BLACK
6
CONTINUOUS
10
7.79817
20
-4.89757
11
7.7987
21
-4.89837
0
LINE
8
BLACK
6
CONTINUOUS
10
7.7987
20
-4.89837
11
7.79889
21
-4.89931
0
LINE
8
BLACK
6
CONTINUOUS
10
7.79889
20
-4.89931
11
7.79889
21
-4.90423
0
LINE
8
BLACK
6
CONTINUOUS
10
7.79889
20
-4.90423
11
7.7987
21
-4.90517
0
LINE
8
BLACK
6
CONTINUOUS
10
7.7987
20
-4.90517
11
7.79817
21
-4.90597
0
LINE
8
BLACK
6
CONTINUOUS
10
7.79817
20
-4.90597
11
7.79737
21
-4.9065
0
LINE
8
BLACK
6
CONTINUOUS
10
7.79737
20
-4.9065
11
7.79643
21
-4.90669
0
LINE
8
BLACK
6
CONTINUOUS
10
7.79643
20
-4.90669
11
7.7669
21
-4.90669
0
LINE
8
BLACK
6
CONTINUOUS
10
7.7669
20
-4.90669
11
7.76596
21
-4.9065
0
LINE
8
BLACK
6
CONTINUOUS
10
7.76596
20
-4.9065
11
7.76516
21
-4.90597
0
LINE
8
BLACK
6
CONTINUOUS
10
7.76516
20
-4.90597
11
7.76463
21
-4.90517
0
LINE
8
BLACK
6
CONTINUOUS
10
7.76463
20
-4.90517
11
7.76444
21
-4.90423
0
LINE
8
BLACK
6
CONTINUOUS
10
7.76444
20
-4.90423
11
7.76444
21
-4.89931
0
LINE
8
BLACK
6
CONTINUOUS
10
7.76444
20
-4.89931
11
7.76463
21
-4.89837
0
LINE
8
BLACK
6
CONTINUOUS
10
7.76463
20
-4.89837
11
7.76516
21
-4.89757
0
LINE
8
BLACK
6
CONTINUOUS
10
7.76516
20
-4.89757
11
7.76596
21
-4.89703
0
LINE
8
BLACK
6
CONTINUOUS
10
7.76596
20
-4.89703
11
7.7669
21
-4.89685
0
LINE
8
BLACK
6
CONTINUOUS
10
7.7669
20
-4.89685
11
7.79643
21
-4.89685
0
LINE
8
BLACK
6
CONTINUOUS
10
7.79643
20
-4.89685
11
7.79737
21
-4.89703
0
LINE
8
BLACK
6
CONTINUOUS
10
8.06804
20
-4.89703
11
8.06884
21
-4.89757
0
LINE
8
BLACK
6
CONTINUOUS
10
8.06884
20
-4.89757
11
8.06937
21
-4.89837
0
LINE
8
BLACK
6
CONTINUOUS
10
8.06937
20
-4.89837
11
8.06956
21
-4.89931
0
LINE
8
BLACK
6
CONTINUOUS
10
8.06956
20
-4.89931
11
8.06956
21
-4.90423
0
LINE
8
BLACK
6
CONTINUOUS
10
8.06956
20
-4.90423
11
8.06937
21
-4.90517
0
LINE
8
BLACK
6
CONTINUOUS
10
8.06937
20
-4.90517
11
8.06884
21
-4.90597
0
LINE
8
BLACK
6
CONTINUOUS
10
8.06884
20
-4.90597
11
8.06804
21
-4.9065
0
LINE
8
BLACK
6
CONTINUOUS
10
8.06804
20
-4.9065
11
8.0671
21
-4.90669
0
LINE
8
BLACK
6
CONTINUOUS
10
8.0671
20
-4.90669
11
8.03757
21
-4.90669
0
LINE
8
BLACK
6
CONTINUOUS
10
8.03757
20
-4.90669
11
8.03663
21
-4.9065
0
LINE
8
BLACK
6
CONTINUOUS
10
8.03663
20
-4.9065
11
8.03583
21
-4.90597
0
LINE
8
BLACK
6
CONTINUOUS
10
8.03583
20
-4.90597
11
8.0353
21
-4.90517
0
LINE
8
BLACK
6
CONTINUOUS
10
8.0353
20
-4.90517
11
8.03511
21
-4.90423
0
LINE
8
BLACK
6
CONTINUOUS
10
8.03511
20
-4.90423
11
8.03511
21
-4.89931
0
LINE
8
BLACK
6
CONTINUOUS
10
8.03511
20
-4.89931
11
8.0353
21
-4.89837
0
LINE
8
BLACK
6
CONTINUOUS
10
8.0353
20
-4.89837
11
8.03583
21
-4.89757
0
LINE
8
BLACK
6
CONTINUOUS
10
8.03583
20
-4.89757
11
8.03663
21
-4.89703
0
LINE
8
BLACK
6
CONTINUOUS
10
8.03663
20
-4.89703
11
8.03757
21
-4.89685
0
LINE
8
BLACK
6
CONTINUOUS
10
8.03757
20
-4.89685
11
8.0671
21
-4.89685
0
LINE
8
BLACK
6
CONTINUOUS
10
8.0671
20
-4.89685
11
8.06804
21
-4.89703
0
LINE
8
BLACK
6
CONTINUOUS
10
7.85049
20
-4.85468
11
7.85368
21
-4.85682
0
LINE
8
BLACK
6
CONTINUOUS
10
7.85368
20
-4.85682
11
7.85582
21
-4.86001
0
LINE
8
BLACK
6
CONTINUOUS
10
7.85582
20
-4.86001
11
7.85657
21
-4.86378
0
LINE
8
BLACK
6
CONTINUOUS
10
7.85657
20
-4.86378
11
7.85657
21
-4.88858
0
LINE
8
BLACK
6
CONTINUOUS
10
7.85657
20
-4.88858
11
7.85582
21
-4.89235
0
LINE
8
BLACK
6
CONTINUOUS
10
7.85582
20
-4.89235
11
7.85368
21
-4.89554
0
LINE
8
BLACK
6
CONTINUOUS
10
7.85368
20
-4.89554
11
7.85049
21
-4.89767
0
LINE
8
BLACK
6
CONTINUOUS
10
7.85049
20
-4.89767
11
7.84672
21
-4.89842
0
LINE
8
BLACK
6
CONTINUOUS
10
7.84672
20
-4.89842
11
7.82192
21
-4.89842
0
LINE
8
BLACK
6
CONTINUOUS
10
7.82192
20
-4.89842
11
7.81815
21
-4.89767
0
LINE
8
BLACK
6
CONTINUOUS
10
7.81815
20
-4.89767
11
7.81496
21
-4.89554
0
LINE
8
BLACK
6
CONTINUOUS
10
7.81496
20
-4.89554
11
7.81283
21
-4.89235
0
LINE
8
BLACK
6
CONTINUOUS
10
7.81283
20
-4.89235
11
7.81208
21
-4.88858
0
LINE
8
BLACK
6
CONTINUOUS
10
7.81208
20
-4.88858
11
7.81208
21
-4.86378
0
LINE
8
BLACK
6
CONTINUOUS
10
7.81208
20
-4.86378
11
7.81283
21
-4.86001
0
LINE
8
BLACK
6
CONTINUOUS
10
7.81283
20
-4.86001
11
7.81496
21
-4.85682
0
LINE
8
BLACK
6
CONTINUOUS
10
7.81496
20
-4.85682
11
7.81815
21
-4.85468
0
LINE
8
BLACK
6
CONTINUOUS
10
7.81815
20
-4.85468
11
7.82192
21
-4.85393
0
LINE
8
BLACK
6
CONTINUOUS
10
7.82192
20
-4.85393
11
7.84672
21
-4.85393
0
LINE
8
BLACK
6
CONTINUOUS
10
7.84672
20
-4.85393
11
7.85049
21
-4.85468
0
LINE
8
BLACK
6
CONTINUOUS
10
7.96073
20
-4.85468
11
7.96392
21
-4.85682
0
LINE
8
BLACK
6
CONTINUOUS
10
7.96392
20
-4.85682
11
7.96605
21
-4.86001
0
LINE
8
BLACK
6
CONTINUOUS
10
7.96605
20
-4.86001
11
7.9668
21
-4.86378
0
LINE
8
BLACK
6
CONTINUOUS
10
7.9668
20
-4.86378
11
7.9668
21
-4.88858
0
LINE
8
BLACK
6
CONTINUOUS
10
7.9668
20
-4.88858
11
7.96605
21
-4.89235
0
LINE
8
BLACK
6
CONTINUOUS
10
7.96605
20
-4.89235
11
7.96392
21
-4.89554
0
LINE
8
BLACK
6
CONTINUOUS
10
7.96392
20
-4.89554
11
7.96073
21
-4.89767
0
LINE
8
BLACK
6
CONTINUOUS
10
7.96073
20
-4.89767
11
7.95696
21
-4.89842
0
LINE
8
BLACK
6
CONTINUOUS
10
7.95696
20
-4.89842
11
7.93216
21
-4.89842
0
LINE
8
BLACK
6
CONTINUOUS
10
7.93216
20
-4.89842
11
7.92839
21
-4.89767
0
LINE
8
BLACK
6
CONTINUOUS
10
7.92839
20
-4.89767
11
7.9252
21
-4.89554
0
LINE
8
BLACK
6
CONTINUOUS
10
7.9252
20
-4.89554
11
7.92306
21
-4.89235
0
LINE
8
BLACK
6
CONTINUOUS
10
7.92306
20
-4.89235
11
7.92231
21
-4.88858
0
LINE
8
BLACK
6
CONTINUOUS
10
7.92231
20
-4.88858
11
7.92231
21
-4.86378
0
LINE
8
BLACK
6
CONTINUOUS
10
7.92231
20
-4.86378
11
7.92306
21
-4.86001
0
LINE
8
BLACK
6
CONTINUOUS
10
7.92306
20
-4.86001
11
7.9252
21
-4.85682
0
LINE
8
BLACK
6
CONTINUOUS
10
7.9252
20
-4.85682
11
7.92839
21
-4.85468
0
LINE
8
BLACK
6
CONTINUOUS
10
7.92839
20
-4.85468
11
7.93216
21
-4.85393
0
LINE
8
BLACK
6
CONTINUOUS
10
7.93216
20
-4.85393
11
7.95696
21
-4.85393
0
LINE
8
BLACK
6
CONTINUOUS
10
7.95696
20
-4.85393
11
7.96073
21
-4.85468
0
LINE
8
BLACK
6
CONTINUOUS
10
7.90561
20
-4.85468
11
7.9088
21
-4.85682
0
LINE
8
BLACK
6
CONTINUOUS
10
7.9088
20
-4.85682
11
7.91094
21
-4.86001
0
LINE
8
BLACK
6
CONTINUOUS
10
7.91094
20
-4.86001
11
7.91169
21
-4.86378
0
LINE
8
BLACK
6
CONTINUOUS
10
7.91169
20
-4.86378
11
7.91169
21
-4.88858
0
LINE
8
BLACK
6
CONTINUOUS
10
7.91169
20
-4.88858
11
7.91094
21
-4.89235
0
LINE
8
BLACK
6
CONTINUOUS
10
7.91094
20
-4.89235
11
7.9088
21
-4.89554
0
LINE
8
BLACK
6
CONTINUOUS
10
7.9088
20
-4.89554
11
7.90561
21
-4.89767
0
LINE
8
BLACK
6
CONTINUOUS
10
7.90561
20
-4.89767
11
7.90184
21
-4.89842
0
LINE
8
BLACK
6
CONTINUOUS
10
7.90184
20
-4.89842
11
7.87704
21
-4.89842
0
LINE
8
BLACK
6
CONTINUOUS
10
7.87704
20
-4.89842
11
7.87327
21
-4.89767
0
LINE
8
BLACK
6
CONTINUOUS
10
7.87327
20
-4.89767
11
7.87008
21
-4.89554
0
LINE
8
BLACK
6
CONTINUOUS
10
7.87008
20
-4.89554
11
7.86795
21
-4.89235
0
LINE
8
BLACK
6
CONTINUOUS
10
7.86795
20
-4.89235
11
7.8672
21
-4.88858
0
LINE
8
BLACK
6
CONTINUOUS
10
7.8672
20
-4.88858
11
7.8672
21
-4.86378
0
LINE
8
BLACK
6
CONTINUOUS
10
7.8672
20
-4.86378
11
7.86795
21
-4.86001
0
LINE
8
BLACK
6
CONTINUOUS
10
7.86795
20
-4.86001
11
7.87008
21
-4.85682
0
LINE
8
BLACK
6
CONTINUOUS
10
7.87008
20
-4.85682
11
7.87327
21
-4.85468
0
LINE
8
BLACK
6
CONTINUOUS
10
7.87327
20
-4.85468
11
7.87704
21
-4.85393
0
LINE
8
BLACK
6
CONTINUOUS
10
7.87704
20
-4.85393
11
7.90184
21
-4.85393
0
LINE
8
BLACK
6
CONTINUOUS
10
7.90184
20
-4.85393
11
7.90561
21
-4.85468
0
LINE
8
BLACK
6
CONTINUOUS
10
8.01585
20
-4.85468
11
8.01904
21
-4.85682
0
LINE
8
BLACK
6
CONTINUOUS
10
8.01904
20
-4.85682
11
8.02117
21
-4.86001
0
LINE
8
BLACK
6
CONTINUOUS
10
8.02117
20
-4.86001
11
8.02192
21
-4.86378
0
LINE
8
BLACK
6
CONTINUOUS
10
8.02192
20
-4.86378
11
8.02192
21
-4.88858
0
LINE
8
BLACK
6
CONTINUOUS
10
8.02192
20
-4.88858
11
8.02117
21
-4.89235
0
LINE
8
BLACK
6
CONTINUOUS
10
8.02117
20
-4.89235
11
8.01904
21
-4.89554
0
LINE
8
BLACK
6
CONTINUOUS
10
8.01904
20
-4.89554
11
8.01585
21
-4.89767
0
LINE
8
BLACK
6
CONTINUOUS
10
8.01585
20
-4.89767
11
8.01208
21
-4.89842
0
LINE
8
BLACK
6
CONTINUOUS
10
8.01208
20
-4.89842
11
7.98728
21
-4.89842
0
LINE
8
BLACK
6
CONTINUOUS
10
7.98728
20
-4.89842
11
7.98351
21
-4.89767
0
LINE
8
BLACK
6
CONTINUOUS
10
7.98351
20
-4.89767
11
7.98032
21
-4.89554
0
LINE
8
BLACK
6
CONTINUOUS
10
7.98032
20
-4.89554
11
7.97818
21
-4.89235
0
LINE
8
BLACK
6
CONTINUOUS
10
7.97818
20
-4.89235
11
7.97743
21
-4.88858
0
LINE
8
BLACK
6
CONTINUOUS
10
7.97743
20
-4.88858
11
7.97743
21
-4.86378
0
LINE
8
BLACK
6
CONTINUOUS
10
7.97743
20
-4.86378
11
7.97818
21
-4.86001
0
LINE
8
BLACK
6
CONTINUOUS
10
7.97818
20
-4.86001
11
7.98032
21
-4.85682
0
LINE
8
BLACK
6
CONTINUOUS
10
7.98032
20
-4.85682
11
7.98351
21
-4.85468
0
LINE
8
BLACK
6
CONTINUOUS
10
7.98351
20
-4.85468
11
7.98728
21
-4.85393
0
LINE
8
BLACK
6
CONTINUOUS
10
7.98728
20
-4.85393
11
8.01208
21
-4.85393
0
LINE
8
BLACK
6
CONTINUOUS
10
8.01208
20
-4.85393
11
8.01585
21
-4.85468
0
LINE
8
BLACK
6
CONTINUOUS
10
7.0025
20
-4.8975
11
6.9675
21
-4.8975
0
LINE
8
BLACK
6
CONTINUOUS
10
6.9675
20
-4.8975
11
6.9675
21
-4.8425
0
LINE
8
BLACK
6
CONTINUOUS
10
6.9675
20
-4.8425
11
7.0025
21
-4.8425
0
LINE
8
BLACK
6
CONTINUOUS
10
7.0025
20
-4.8425
11
7.0025
21
-4.8975
0
LINE
8
BLACK
6
CONTINUOUS
10
6.9275
20
-4.8975
11
6.8925
21
-4.8975
0
LINE
8
BLACK
6
CONTINUOUS
10
6.8925
20
-4.8975
11
6.8925
21
-4.8425
0
LINE
8
BLACK
6
CONTINUOUS
10
6.8925
20
-4.8425
11
6.9275
21
-4.8425
0
LINE
8
BLACK
6
CONTINUOUS
10
6.9275
20
-4.8425
11
6.9275
21
-4.8975
0
LINE
8
BLACK
6
CONTINUOUS
10
6.7975
20
-4.8875
11
6.7425
21
-4.8875
0
LINE
8
BLACK
6
CONTINUOUS
10
6.7425
20
-4.8875
11
6.7425
21
-4.8525
0
LINE
8
BLACK
6
CONTINUOUS
10
6.7425
20
-4.8525
11
6.7975
21
-4.8525
0
LINE
8
BLACK
6
CONTINUOUS
10
6.7975
20
-4.8525
11
6.7975
21
-4.8875
0
LINE
8
BLACK
6
CONTINUOUS
10
6.7175
20
-4.8875
11
6.6625
21
-4.8875
0
LINE
8
BLACK
6
CONTINUOUS
10
6.6625
20
-4.8875
11
6.6625
21
-4.8525
0
LINE
8
BLACK
6
CONTINUOUS
10
6.6625
20
-4.8525
11
6.7175
21
-4.8525
0
LINE
8
BLACK
6
CONTINUOUS
10
6.7175
20
-4.8525
11
6.7175
21
-4.8875
0
LINE
8
BLACK
6
CONTINUOUS
10
8.06804
20
-4.87735
11
8.06884
21
-4.87788
0
LINE
8
BLACK
6
CONTINUOUS
10
8.06884
20
-4.87788
11
8.06937
21
-4.87868
0
LINE
8
BLACK
6
CONTINUOUS
10
8.06937
20
-4.87868
11
8.06956
21
-4.87962
0
LINE
8
BLACK
6
CONTINUOUS
10
8.06956
20
-4.87962
11
8.06956
21
-4.88454
0
LINE
8
BLACK
6
CONTINUOUS
10
8.06956
20
-4.88454
11
8.06937
21
-4.88548
0
LINE
8
BLACK
6
CONTINUOUS
10
8.06937
20
-4.88548
11
8.06884
21
-4.88628
0
LINE
8
BLACK
6
CONTINUOUS
10
8.06884
20
-4.88628
11
8.06804
21
-4.88682
0
LINE
8
BLACK
6
CONTINUOUS
10
8.06804
20
-4.88682
11
8.0671
21
-4.887
0
LINE
8
BLACK
6
CONTINUOUS
10
8.0671
20
-4.887
11
8.03757
21
-4.887
0
LINE
8
BLACK
6
CONTINUOUS
10
8.03757
20
-4.887
11
8.03663
21
-4.88682
0
LINE
8
BLACK
6
CONTINUOUS
10
8.03663
20
-4.88682
11
8.03583
21
-4.88628
0
LINE
8
BLACK
6
CONTINUOUS
10
8.03583
20
-4.88628
11
8.0353
21
-4.88548
0
LINE
8
BLACK
6
CONTINUOUS
10
8.0353
20
-4.88548
11
8.03511
21
-4.88454
0
LINE
8
BLACK
6
CONTINUOUS
10
8.03511
20
-4.88454
11
8.03511
21
-4.87962
0
LINE
8
BLACK
6
CONTINUOUS
10
8.03511
20
-4.87962
11
8.0353
21
-4.87868
0
LINE
8
BLACK
6
CONTINUOUS
10
8.0353
20
-4.87868
11
8.03583
21
-4.87788
0
LINE
8
BLACK
6
CONTINUOUS
10
8.03583
20
-4.87788
11
8.03663
21
-4.87735
0
LINE
8
BLACK
6
CONTINUOUS
10
8.03663
20
-4.87735
11
8.03757
21
-4.87716
0
LINE
8
BLACK
6
CONTINUOUS
10
8.03757
20
-4.87716
11
8.0671
21
-4.87716
0
LINE
8
BLACK
6
CONTINUOUS
10
8.0671
20
-4.87716
11
8.06804
21
-4.87735
0
LINE
8
BLACK
6
CONTINUOUS
10
7.79737
20
-4.87735
11
7.79817
21
-4.87788
0
LINE
8
BLACK
6
CONTINUOUS
10
7.79817
20
-4.87788
11
7.7987
21
-4.87868
0
LINE
8
BLACK
6
CONTINUOUS
10
7.7987
20
-4.87868
11
7.79889
21
-4.87962
0
LINE
8
BLACK
6
CONTINUOUS
10
7.79889
20
-4.87962
11
7.79889
21
-4.88454
0
LINE
8
BLACK
6
CONTINUOUS
10
7.79889
20
-4.88454
11
7.7987
21
-4.88548
0
LINE
8
BLACK
6
CONTINUOUS
10
7.7987
20
-4.88548
11
7.79817
21
-4.88628
0
LINE
8
BLACK
6
CONTINUOUS
10
7.79817
20
-4.88628
11
7.79737
21
-4.88682
0
LINE
8
BLACK
6
CONTINUOUS
10
7.79737
20
-4.88682
11
7.79643
21
-4.887
0
LINE
8
BLACK
6
CONTINUOUS
10
7.79643
20
-4.887
11
7.7669
21
-4.887
0
LINE
8
BLACK
6
CONTINUOUS
10
7.7669
20
-4.887
11
7.76596
21
-4.88682
0
LINE
8
BLACK
6
CONTINUOUS
10
7.76596
20
-4.88682
11
7.76516
21
-4.88628
0
LINE
8
BLACK
6
CONTINUOUS
10
7.76516
20
-4.88628
11
7.76463
21
-4.88548
0
LINE
8
BLACK
6
CONTINUOUS
10
7.76463
20
-4.88548
11
7.76444
21
-4.88454
0
LINE
8
BLACK
6
CONTINUOUS
10
7.76444
20
-4.88454
11
7.76444
21
-4.87962
0
LINE
8
BLACK
6
CONTINUOUS
10
7.76444
20
-4.87962
11
7.76463
21
-4.87868
0
LINE
8
BLACK
6
CONTINUOUS
10
7.76463
20
-4.87868
11
7.76516
21
-4.87788
0
LINE
8
BLACK
6
CONTINUOUS
10
7.76516
20
-4.87788
11
7.76596
21
-4.87735
0
LINE
8
BLACK
6
CONTINUOUS
10
7.76596
20
-4.87735
11
7.7669
21
-4.87716
0
LINE
8
BLACK
6
CONTINUOUS
10
7.7669
20
-4.87716
11
7.79643
21
-4.87716
0
LINE
8
BLACK
6
CONTINUOUS
10
7.79643
20
-4.87716
11
7.79737
21
-4.87735
0
LINE
8
BLACK
6
CONTINUOUS
10
7.55123
20
-4.83405
11
7.51364
21
-4.87163
0
LINE
8
BLACK
6
CONTINUOUS
10
7.51364
20
-4.87163
11
7.4691
21
-4.82709
0
LINE
8
BLACK
6
CONTINUOUS
10
7.4691
20
-4.82709
11
7.50669
21
-4.78951
0
LINE
8
BLACK
6
CONTINUOUS
10
7.50669
20
-4.78951
11
7.55123
21
-4.83405
0
LINE
8
BLACK
6
CONTINUOUS
10
7.79737
20
-4.85766
11
7.79817
21
-4.8582
0
LINE
8
BLACK
6
CONTINUOUS
10
7.79817
20
-4.8582
11
7.7987
21
-4.859
0
LINE
8
BLACK
6
CONTINUOUS
10
7.7987
20
-4.859
11
7.79889
21
-4.85994
0
LINE
8
BLACK
6
CONTINUOUS
10
7.79889
20
-4.85994
11
7.79889
21
-4.86486
0
LINE
8
BLACK
6
CONTINUOUS
10
7.79889
20
-4.86486
11
7.7987
21
-4.8658
0
LINE
8
BLACK
6
CONTINUOUS
10
7.7987
20
-4.8658
11
7.79817
21
-4.8666
0
LINE
8
BLACK
6
CONTINUOUS
10
7.79817
20
-4.8666
11
7.79737
21
-4.86713
0
LINE
8
BLACK
6
CONTINUOUS
10
7.79737
20
-4.86713
11
7.79643
21
-4.86732
0
LINE
8
BLACK
6
CONTINUOUS
10
7.79643
20
-4.86732
11
7.7669
21
-4.86732
0
LINE
8
BLACK
6
CONTINUOUS
10
7.7669
20
-4.86732
11
7.76596
21
-4.86713
0
LINE
8
BLACK
6
CONTINUOUS
10
7.76596
20
-4.86713
11
7.76516
21
-4.8666
0
LINE
8
BLACK
6
CONTINUOUS
10
7.76516
20
-4.8666
11
7.76463
21
-4.8658
0
LINE
8
BLACK
6
CONTINUOUS
10
7.76463
20
-4.8658
11
7.76444
21
-4.86486
0
LINE
8
BLACK
6
CONTINUOUS
10
7.76444
20
-4.86486
11
7.76444
21
-4.85994
0
LINE
8
BLACK
6
CONTINUOUS
10
7.76444
20
-4.85994
11
7.76463
21
-4.859
0
LINE
8
BLACK
6
CONTINUOUS
10
7.76463
20
-4.859
11
7.76516
21
-4.8582
0
LINE
8
BLACK
6
CONTINUOUS
10
7.76516
20
-4.8582
11
7.76596
21
-4.85766
0
LINE
8
BLACK
6
CONTINUOUS
10
7.76596
20
-4.85766
11
7.7669
21
-4.85748
0
LINE
8
BLACK
6
CONTINUOUS
10
7.7669
20
-4.85748
11
7.79643
21
-4.85748
0
LINE
8
BLACK
6
CONTINUOUS
10
7.79643
20
-4.85748
11
7.79737
21
-4.85766
0
LINE
8
BLACK
6
CONTINUOUS
10
8.06804
20
-4.85766
11
8.06884
21
-4.8582
0
LINE
8
BLACK
6
CONTINUOUS
10
8.06884
20
-4.8582
11
8.06937
21
-4.859
0
LINE
8
BLACK
6
CONTINUOUS
10
8.06937
20
-4.859
11
8.06956
21
-4.85994
0
LINE
8
BLACK
6
CONTINUOUS
10
8.06956
20
-4.85994
11
8.06956
21
-4.86486
0
LINE
8
BLACK
6
CONTINUOUS
10
8.06956
20
-4.86486
11
8.06937
21
-4.8658
0
LINE
8
BLACK
6
CONTINUOUS
10
8.06937
20
-4.8658
11
8.06884
21
-4.8666
0
LINE
8
BLACK
6
CONTINUOUS
10
8.06884
20
-4.8666
11
8.06804
21
-4.86713
0
LINE
8
BLACK
6
CONTINUOUS
10
8.06804
20
-4.86713
11
8.0671
21
-4.86732
0
LINE
8
BLACK
6
CONTINUOUS
10
8.0671
20
-4.86732
11
8.03757
21
-4.86732
0
LINE
8
BLACK
6
CONTINUOUS
10
8.03757
20
-4.86732
11
8.03663
21
-4.86713
0
LINE
8
BLACK
6
CONTINUOUS
10
8.03663
20
-4.86713
11
8.03583
21
-4.8666
0
LINE
8
BLACK
6
CONTINUOUS
10
8.03583
20
-4.8666
11
8.0353
21
-4.8658
0
LINE
8
BLACK
6
CONTINUOUS
10
8.0353
20
-4.8658
11
8.03511
21
-4.86486
0
LINE
8
BLACK
6
CONTINUOUS
10
8.03511
20
-4.86486
11
8.03511
21
-4.85994
0
LINE
8
BLACK
6
CONTINUOUS
10
8.03511
20
-4.85994
11
8.0353
21
-4.859
0
LINE
8
BLACK
6
CONTINUOUS
10
8.0353
20
-4.859
11
8.03583
21
-4.8582
0
LINE
8
BLACK
6
CONTINUOUS
10
8.03583
20
-4.8582
11
8.03663
21
-4.85766
0
LINE
8
BLACK
6
CONTINUOUS
10
8.03663
20
-4.85766
11
8.03757
21
-4.85748
0
LINE
8
BLACK
6
CONTINUOUS
10
8.03757
20
-4.85748
11
8.0671
21
-4.85748
0
LINE
8
BLACK
6
CONTINUOUS
10
8.0671
20
-4.85748
11
8.06804
21
-4.85766
0
LINE
8
BLACK
6
CONTINUOUS
10
7.4009
20
-4.82291
11
7.36331
21
-4.86049
0
LINE
8
BLACK
6
CONTINUOUS
10
7.36331
20
-4.86049
11
7.31877
21
-4.81595
0
LINE
8
BLACK
6
CONTINUOUS
10
7.31877
20
-4.81595
11
7.35636
21
-4.77837
0
LINE
8
BLACK
6
CONTINUOUS
10
7.35636
20
-4.77837
11
7.4009
21
-4.82291
0
LINE
8
BLACK
6
CONTINUOUS
10
7.79737
20
-4.83798
11
7.79817
21
-4.83851
0
LINE
8
BLACK
6
CONTINUOUS
10
7.79817
20
-4.83851
11
7.7987
21
-4.83931
0
LINE
8
BLACK
6
CONTINUOUS
10
7.7987
20
-4.83931
11
7.79889
21
-4.84025
0
LINE
8
BLACK
6
CONTINUOUS
10
7.79889
20
-4.84025
11
7.79889
21
-4.84517
0
LINE
8
BLACK
6
CONTINUOUS
10
7.79889
20
-4.84517
11
7.7987
21
-4.84611
0
LINE
8
BLACK
6
CONTINUOUS
10
7.7987
20
-4.84611
11
7.79817
21
-4.84691
0
LINE
8
BLACK
6
CONTINUOUS
10
7.79817
20
-4.84691
11
7.79737
21
-4.84745
0
LINE
8
BLACK
6
CONTINUOUS
10
7.79737
20
-4.84745
11
7.79643
21
-4.84763
0
LINE
8
BLACK
6
CONTINUOUS
10
7.79643
20
-4.84763
11
7.7669
21
-4.84763
0
LINE
8
BLACK
6
CONTINUOUS
10
7.7669
20
-4.84763
11
7.76596
21
-4.84745
0
LINE
8
BLACK
6
CONTINUOUS
10
7.76596
20
-4.84745
11
7.76516
21
-4.84691
0
LINE
8
BLACK
6
CONTINUOUS
10
7.76516
20
-4.84691
11
7.76463
21
-4.84611
0
LINE
8
BLACK
6
CONTINUOUS
10
7.76463
20
-4.84611
11
7.76444
21
-4.84517
0
LINE
8
BLACK
6
CONTINUOUS
10
7.76444
20
-4.84517
11
7.76444
21
-4.84025
0
LINE
8
BLACK
6
CONTINUOUS
10
7.76444
20
-4.84025
11
7.76463
21
-4.83931
0
LINE
8
BLACK
6
CONTINUOUS
10
7.76463
20
-4.83931
11
7.76516
21
-4.83851
0
LINE
8
BLACK
6
CONTINUOUS
10
7.76516
20
-4.83851
11
7.76596
21
-4.83798
0
LINE
8
BLACK
6
CONTINUOUS
10
7.76596
20
-4.83798
11
7.7669
21
-4.83779
0
LINE
8
BLACK
6
CONTINUOUS
10
7.7669
20
-4.83779
11
7.79643
21
-4.83779
0
LINE
8
BLACK
6
CONTINUOUS
10
7.79643
20
-4.83779
11
7.79737
21
-4.83798
0
LINE
8
BLACK
6
CONTINUOUS
10
8.06804
20
-4.83798
11
8.06884
21
-4.83851
0
LINE
8
BLACK
6
CONTINUOUS
10
8.06884
20
-4.83851
11
8.06937
21
-4.83931
0
LINE
8
BLACK
6
CONTINUOUS
10
8.06937
20
-4.83931
11
8.06956
21
-4.84025
0
LINE
8
BLACK
6
CONTINUOUS
10
8.06956
20
-4.84025
11
8.06956
21
-4.84517
0
LINE
8
BLACK
6
CONTINUOUS
10
8.06956
20
-4.84517
11
8.06937
21
-4.84611
0
LINE
8
BLACK
6
CONTINUOUS
10
8.06937
20
-4.84611
11
8.06884
21
-4.84691
0
LINE
8
BLACK
6
CONTINUOUS
10
8.06884
20
-4.84691
11
8.06804
21
-4.84745
0
LINE
8
BLACK
6
CONTINUOUS
10
8.06804
20
-4.84745
11
8.0671
21
-4.84763
0
LINE
8
BLACK
6
CONTINUOUS
10
8.0671
20
-4.84763
11
8.03757
21
-4.84763
0
LINE
8
BLACK
6
CONTINUOUS
10
8.03757
20
-4.84763
11
8.03663
21
-4.84745
0
LINE
8
BLACK
6
CONTINUOUS
10
8.03663
20
-4.84745
11
8.03583
21
-4.84691
0
LINE
8
BLACK
6
CONTINUOUS
10
8.03583
20
-4.84691
11
8.0353
21
-4.84611
0
LINE
8
BLACK
6
CONTINUOUS
10
8.0353
20
-4.84611
11
8.03511
21
-4.84517
0
LINE
8
BLACK
6
CONTINUOUS
10
8.03511
20
-4.84517
11
8.03511
21
-4.84025
0
LINE
8
BLACK
6
CONTINUOUS
10
8.03511
20
-4.84025
11
8.0353
21
-4.83931
0
LINE
8
BLACK
6
CONTINUOUS
10
8.0353
20
-4.83931
11
8.03583
21
-4.83851
0
LINE
8
BLACK
6
CONTINUOUS
10
8.03583
20
-4.83851
11
8.03663
21
-4.83798
0
LINE
8
BLACK
6
CONTINUOUS
10
8.03663
20
-4.83798
11
8.03757
21
-4.83779
0
LINE
8
BLACK
6
CONTINUOUS
10
8.03757
20
-4.83779
11
8.0671
21
-4.83779
0
LINE
8
BLACK
6
CONTINUOUS
10
8.0671
20
-4.83779
11
8.06804
21
-4.83798
0
LINE
8
BLACK
6
CONTINUOUS
10
8.01585
20
-4.79956
11
8.01904
21
-4.8017
0
LINE
8
BLACK
6
CONTINUOUS
10
8.01904
20
-4.8017
11
8.02117
21
-4.80489
0
LINE
8
BLACK
6
CONTINUOUS
10
8.02117
20
-4.80489
11
8.02192
21
-4.80866
0
LINE
8
BLACK
6
CONTINUOUS
10
8.02192
20
-4.80866
11
8.02192
21
-4.83346
0
LINE
8
BLACK
6
CONTINUOUS
10
8.02192
20
-4.83346
11
8.02117
21
-4.83723
0
LINE
8
BLACK
6
CONTINUOUS
10
8.02117
20
-4.83723
11
8.01904
21
-4.84042
0
LINE
8
BLACK
6
CONTINUOUS
10
8.01904
20
-4.84042
11
8.01585
21
-4.84255
0
LINE
8
BLACK
6
CONTINUOUS
10
8.01585
20
-4.84255
11
8.01208
21
-4.8433
0
LINE
8
BLACK
6
CONTINUOUS
10
8.01208
20
-4.8433
11
7.98728
21
-4.8433
0
LINE
8
BLACK
6
CONTINUOUS
10
7.98728
20
-4.8433
11
7.98351
21
-4.84255
0
LINE
8
BLACK
6
CONTINUOUS
10
7.98351
20
-4.84255
11
7.98032
21
-4.84042
0
LINE
8
BLACK
6
CONTINUOUS
10
7.98032
20
-4.84042
11
7.97818
21
-4.83723
0
LINE
8
BLACK
6
CONTINUOUS
10
7.97818
20
-4.83723
11
7.97743
21
-4.83346
0
LINE
8
BLACK
6
CONTINUOUS
10
7.97743
20
-4.83346
11
7.97743
21
-4.80866
0
LINE
8
BLACK
6
CONTINUOUS
10
7.97743
20
-4.80866
11
7.97818
21
-4.80489
0
LINE
8
BLACK
6
CONTINUOUS
10
7.97818
20
-4.80489
11
7.98032
21
-4.8017
0
LINE
8
BLACK
6
CONTINUOUS
10
7.98032
20
-4.8017
11
7.98351
21
-4.79956
0
LINE
8
BLACK
6
CONTINUOUS
10
7.98351
20
-4.79956
11
7.98728
21
-4.79881
0
LINE
8
BLACK
6
CONTINUOUS
10
7.98728
20
-4.79881
11
8.01208
21
-4.79881
0
LINE
8
BLACK
6
CONTINUOUS
10
8.01208
20
-4.79881
11
8.01585
21
-4.79956
0
LINE
8
BLACK
6
CONTINUOUS
10
7.90561
20
-4.79956
11
7.9088
21
-4.8017
0
LINE
8
BLACK
6
CONTINUOUS
10
7.9088
20
-4.8017
11
7.91094
21
-4.80489
0
LINE
8
BLACK
6
CONTINUOUS
10
7.91094
20
-4.80489
11
7.91169
21
-4.80866
0
LINE
8
BLACK
6
CONTINUOUS
10
7.91169
20
-4.80866
11
7.91169
21
-4.83346
0
LINE
8
BLACK
6
CONTINUOUS
10
7.91169
20
-4.83346
11
7.91094
21
-4.83723
0
LINE
8
BLACK
6
CONTINUOUS
10
7.91094
20
-4.83723
11
7.9088
21
-4.84042
0
LINE
8
BLACK
6
CONTINUOUS
10
7.9088
20
-4.84042
11
7.90561
21
-4.84255
0
LINE
8
BLACK
6
CONTINUOUS
10
7.90561
20
-4.84255
11
7.90184
21
-4.8433
0
LINE
8
BLACK
6
CONTINUOUS
10
7.90184
20
-4.8433
11
7.87704
21
-4.8433
0
LINE
8
BLACK
6
CONTINUOUS
10
7.87704
20
-4.8433
11
7.87327
21
-4.84255
0
LINE
8
BLACK
6
CONTINUOUS
10
7.87327
20
-4.84255
11
7.87008
21
-4.84042
0
LINE
8
BLACK
6
CONTINUOUS
10
7.87008
20
-4.84042
11
7.86795
21
-4.83723
0
LINE
8
BLACK
6
CONTINUOUS
10
7.86795
20
-4.83723
11
7.8672
21
-4.83346
0
LINE
8
BLACK
6
CONTINUOUS
10
7.8672
20
-4.83346
11
7.8672
21
-4.80866
0
LINE
8
BLACK
6
CONTINUOUS
10
7.8672
20
-4.80866
11
7.86795
21
-4.80489
0
LINE
8
BLACK
6
CONTINUOUS
10
7.86795
20
-4.80489
11
7.87008
21
-4.8017
0
LINE
8
BLACK
6
CONTINUOUS
10
7.87008
20
-4.8017
11
7.87327
21
-4.79956
0
LINE
8
BLACK
6
CONTINUOUS
10
7.87327
20
-4.79956
11
7.87704
21
-4.79881
0
LINE
8
BLACK
6
CONTINUOUS
10
7.87704
20
-4.79881
11
7.90184
21
-4.79881
0
LINE
8
BLACK
6
CONTINUOUS
10
7.90184
20
-4.79881
11
7.90561
21
-4.79956
0
LINE
8
BLACK
6
CONTINUOUS
10
7.96073
20
-4.79956
11
7.96392
21
-4.8017
0
LINE
8
BLACK
6
CONTINUOUS
10
7.96392
20
-4.8017
11
7.96605
21
-4.80489
0
LINE
8
BLACK
6
CONTINUOUS
10
7.96605
20
-4.80489
11
7.9668
21
-4.80866
0
LINE
8
BLACK
6
CONTINUOUS
10
7.9668
20
-4.80866
11
7.9668
21
-4.83346
0
LINE
8
BLACK
6
CONTINUOUS
10
7.9668
20
-4.83346
11
7.96605
21
-4.83723
0
LINE
8
BLACK
6
CONTINUOUS
10
7.96605
20
-4.83723
11
7.96392
21
-4.84042
0
LINE
8
BLACK
6
CONTINUOUS
10
7.96392
20
-4.84042
11
7.96073
21
-4.84255
0
LINE
8
BLACK
6
CONTINUOUS
10
7.96073
20
-4.84255
11
7.95696
21
-4.8433
0
LINE
8
BLACK
6
CONTINUOUS
10
7.95696
20
-4.8433
11
7.93216
21
-4.8433
0
LINE
8
BLACK
6
CONTINUOUS
10
7.93216
20
-4.8433
11
7.92839
21
-4.84255
0
LINE
8
BLACK
6
CONTINUOUS
10
7.92839
20
-4.84255
11
7.9252
21
-4.84042
0
LINE
8
BLACK
6
CONTINUOUS
10
7.9252
20
-4.84042
11
7.92306
21
-4.83723
0
LINE
8
BLACK
6
CONTINUOUS
10
7.92306
20
-4.83723
11
7.92231
21
-4.83346
0
LINE
8
BLACK
6
CONTINUOUS
10
7.92231
20
-4.83346
11
7.92231
21
-4.80866
0
LINE
8
BLACK
6
CONTINUOUS
10
7.92231
20
-4.80866
11
7.92306
21
-4.80489
0
LINE
8
BLACK
6
CONTINUOUS
10
7.92306
20
-4.80489
11
7.9252
21
-4.8017
0
LINE
8
BLACK
6
CONTINUOUS
10
7.9252
20
-4.8017
11
7.92839
21
-4.79956
0
LINE
8
BLACK
6
CONTINUOUS
10
7.92839
20
-4.79956
11
7.93216
21
-4.79881
0
LINE
8
BLACK
6
CONTINUOUS
10
7.93216
20
-4.79881
11
7.95696
21
-4.79881
0
LINE
8
BLACK
6
CONTINUOUS
10
7.95696
20
-4.79881
11
7.96073
21
-4.79956
0
LINE
8
BLACK
6
CONTINUOUS
10
7.85049
20
-4.79956
11
7.85368
21
-4.8017
0
LINE
8
BLACK
6
CONTINUOUS
10
7.85368
20
-4.8017
11
7.85582
21
-4.80489
0
LINE
8
BLACK
6
CONTINUOUS
10
7.85582
20
-4.80489
11
7.85657
21
-4.80866
0
LINE
8
BLACK
6
CONTINUOUS
10
7.85657
20
-4.80866
11
7.85657
21
-4.83346
0
LINE
8
BLACK
6
CONTINUOUS
10
7.85657
20
-4.83346
11
7.85582
21
-4.83723
0
LINE
8
BLACK
6
CONTINUOUS
10
7.85582
20
-4.83723
11
7.85368
21
-4.84042
0
LINE
8
BLACK
6
CONTINUOUS
10
7.85368
20
-4.84042
11
7.85049
21
-4.84255
0
LINE
8
BLACK
6
CONTINUOUS
10
7.85049
20
-4.84255
11
7.84672
21
-4.8433
0
LINE
8
BLACK
6
CONTINUOUS
10
7.84672
20
-4.8433
11
7.82192
21
-4.8433
0
LINE
8
BLACK
6
CONTINUOUS
10
7.82192
20
-4.8433
11
7.81815
21
-4.84255
0
LINE
8
BLACK
6
CONTINUOUS
10
7.81815
20
-4.84255
11
7.81496
21
-4.84042
0
LINE
8
BLACK
6
CONTINUOUS
10
7.81496
20
-4.84042
11
7.81283
21
-4.83723
0
LINE
8
BLACK
6
CONTINUOUS
10
7.81283
20
-4.83723
11
7.81208
21
-4.83346
0
LINE
8
BLACK
6
CONTINUOUS
10
7.81208
20
-4.83346
11
7.81208
21
-4.80866
0
LINE
8
BLACK
6
CONTINUOUS
10
7.81208
20
-4.80866
11
7.81283
21
-4.80489
0
LINE
8
BLACK
6
CONTINUOUS
10
7.81283
20
-4.80489
11
7.81496
21
-4.8017
0
LINE
8
BLACK
6
CONTINUOUS
10
7.81496
20
-4.8017
11
7.81815
21
-4.79956
0
LINE
8
BLACK
6
CONTINUOUS
10
7.81815
20
-4.79956
11
7.82192
21
-4.79881
0
LINE
8
BLACK
6
CONTINUOUS
10
7.82192
20
-4.79881
11
7.84672
21
-4.79881
0
LINE
8
BLACK
6
CONTINUOUS
10
7.84672
20
-4.79881
11
7.85049
21
-4.79956
0
LINE
8
BLACK
6
CONTINUOUS
10
7.79737
20
-4.81829
11
7.79817
21
-4.81883
0
LINE
8
BLACK
6
CONTINUOUS
10
7.79817
20
-4.81883
11
7.7987
21
-4.81963
0
LINE
8
BLACK
6
CONTINUOUS
10
7.7987
20
-4.81963
11
7.79889
21
-4.82057
0
LINE
8
BLACK
6
CONTINUOUS
10
7.79889
20
-4.82057
11
7.79889
21
-4.82549
0
LINE
8
BLACK
6
CONTINUOUS
10
7.79889
20
-4.82549
11
7.7987
21
-4.82643
0
LINE
8
BLACK
6
CONTINUOUS
10
7.7987
20
-4.82643
11
7.79817
21
-4.82723
0
LINE
8
BLACK
6
CONTINUOUS
10
7.79817
20
-4.82723
11
7.79737
21
-4.82776
0
LINE
8
BLACK
6
CONTINUOUS
10
7.79737
20
-4.82776
11
7.79643
21
-4.82795
0
LINE
8
BLACK
6
CONTINUOUS
10
7.79643
20
-4.82795
11
7.7669
21
-4.82795
0
LINE
8
BLACK
6
CONTINUOUS
10
7.7669
20
-4.82795
11
7.76596
21
-4.82776
0
LINE
8
BLACK
6
CONTINUOUS
10
7.76596
20
-4.82776
11
7.76516
21
-4.82723
0
LINE
8
BLACK
6
CONTINUOUS
10
7.76516
20
-4.82723
11
7.76463
21
-4.82643
0
LINE
8
BLACK
6
CONTINUOUS
10
7.76463
20
-4.82643
11
7.76444
21
-4.82549
0
LINE
8
BLACK
6
CONTINUOUS
10
7.76444
20
-4.82549
11
7.76444
21
-4.82057
0
LINE
8
BLACK
6
CONTINUOUS
10
7.76444
20
-4.82057
11
7.76463
21
-4.81963
0
LINE
8
BLACK
6
CONTINUOUS
10
7.76463
20
-4.81963
11
7.76516
21
-4.81883
0
LINE
8
BLACK
6
CONTINUOUS
10
7.76516
20
-4.81883
11
7.76596
21
-4.81829
0
LINE
8
BLACK
6
CONTINUOUS
10
7.76596
20
-4.81829
11
7.7669
21
-4.81811
0
LINE
8
BLACK
6
CONTINUOUS
10
7.7669
20
-4.81811
11
7.79643
21
-4.81811
0
LINE
8
BLACK
6
CONTINUOUS
10
7.79643
20
-4.81811
11
7.79737
21
-4.81829
0
LINE
8
BLACK
6
CONTINUOUS
10
8.06804
20
-4.81829
11
8.06884
21
-4.81883
0
LINE
8
BLACK
6
CONTINUOUS
10
8.06884
20
-4.81883
11
8.06937
21
-4.81963
0
LINE
8
BLACK
6
CONTINUOUS
10
8.06937
20
-4.81963
11
8.06956
21
-4.82057
0
LINE
8
BLACK
6
CONTINUOUS
10
8.06956
20
-4.82057
11
8.06956
21
-4.82549
0
LINE
8
BLACK
6
CONTINUOUS
10
8.06956
20
-4.82549
11
8.06937
21
-4.82643
0
LINE
8
BLACK
6
CONTINUOUS
10
8.06937
20
-4.82643
11
8.06884
21
-4.82723
0
LINE
8
BLACK
6
CONTINUOUS
10
8.06884
20
-4.82723
11
8.06804
21
-4.82776
0
LINE
8
BLACK
6
CONTINUOUS
10
8.06804
20
-4.82776
11
8.0671
21
-4.82795
0
LINE
8
BLACK
6
CONTINUOUS
10
8.0671
20
-4.82795
11
8.03757
21
-4.82795
0
LINE
8
BLACK
6
CONTINUOUS
10
8.03757
20
-4.82795
11
8.03663
21
-4.82776
0
LINE
8
BLACK
6
CONTINUOUS
10
8.03663
20
-4.82776
11
8.03583
21
-4.82723
0
LINE
8
BLACK
6
CONTINUOUS
10
8.03583
20
-4.82723
11
8.0353
21
-4.82643
0
LINE
8
BLACK
6
CONTINUOUS
10
8.0353
20
-4.82643
11
8.03511
21
-4.82549
0
LINE
8
BLACK
6
CONTINUOUS
10
8.03511
20
-4.82549
11
8.03511
21
-4.82057
0
LINE
8
BLACK
6
CONTINUOUS
10
8.03511
20
-4.82057
11
8.0353
21
-4.81963
0
LINE
8
BLACK
6
CONTINUOUS
10
8.0353
20
-4.81963
11
8.03583
21
-4.81883
0
LINE
8
BLACK
6
CONTINUOUS
10
8.03583
20
-4.81883
11
8.03663
21
-4.81829
0
LINE
8
BLACK
6
CONTINUOUS
10
8.03663
20
-4.81829
11
8.03757
21
-4.81811
0
LINE
8
BLACK
6
CONTINUOUS
10
8.03757
20
-4.81811
11
8.0671
21
-4.81811
0
LINE
8
BLACK
6
CONTINUOUS
10
8.0671
20
-4.81811
11
8.06804
21
-4.81829
0
LINE
8
BLACK
6
CONTINUOUS
10
6.7175
20
-4.8125
11
6.6625
21
-4.8125
0
LINE
8
BLACK
6
CONTINUOUS
10
6.6625
20
-4.8125
11
6.6625
21
-4.7775
0
LINE
8
BLACK
6
CONTINUOUS
10
6.6625
20
-4.7775
11
6.7175
21
-4.7775
0
LINE
8
BLACK
6
CONTINUOUS
10
6.7175
20
-4.7775
11
6.7175
21
-4.8125
0
LINE
8
BLACK
6
CONTINUOUS
10
6.7975
20
-4.8125
11
6.7425
21
-4.8125
0
LINE
8
BLACK
6
CONTINUOUS
10
6.7425
20
-4.8125
11
6.7425
21
-4.7775
0
LINE
8
BLACK
6
CONTINUOUS
10
6.7425
20
-4.7775
11
6.7975
21
-4.7775
0
LINE
8
BLACK
6
CONTINUOUS
10
6.7975
20
-4.7775
11
6.7975
21
-4.8125
0
LINE
8
BLACK
6
CONTINUOUS
10
7.79737
20
-4.79861
11
7.79817
21
-4.79914
0
LINE
8
BLACK
6
CONTINUOUS
10
7.79817
20
-4.79914
11
7.7987
21
-4.79994
0
LINE
8
BLACK
6
CONTINUOUS
10
7.7987
20
-4.79994
11
7.79889
21
-4.80088
0
LINE
8
BLACK
6
CONTINUOUS
10
7.79889
20
-4.80088
11
7.79889
21
-4.8058
0
LINE
8
BLACK
6
CONTINUOUS
10
7.79889
20
-4.8058
11
7.7987
21
-4.80674
0
LINE
8
BLACK
6
CONTINUOUS
10
7.7987
20
-4.80674
11
7.79817
21
-4.80754
0
LINE
8
BLACK
6
CONTINUOUS
10
7.79817
20
-4.80754
11
7.79737
21
-4.80808
0
LINE
8
BLACK
6
CONTINUOUS
10
7.79737
20
-4.80808
11
7.79643
21
-4.80826
0
LINE
8
BLACK
6
CONTINUOUS
10
7.79643
20
-4.80826
11
7.7669
21
-4.80826
0
LINE
8
BLACK
6
CONTINUOUS
10
7.7669
20
-4.80826
11
7.76596
21
-4.80808
0
LINE
8
BLACK
6
CONTINUOUS
10
7.76596
20
-4.80808
11
7.76516
21
-4.80754
0
LINE
8
BLACK
6
CONTINUOUS
10
7.76516
20
-4.80754
11
7.76463
21
-4.80674
0
LINE
8
BLACK
6
CONTINUOUS
10
7.76463
20
-4.80674
11
7.76444
21
-4.8058
0
LINE
8
BLACK
6
CONTINUOUS
10
7.76444
20
-4.8058
11
7.76444
21
-4.80088
0
LINE
8
BLACK
6
CONTINUOUS
10
7.76444
20
-4.80088
11
7.76463
21
-4.79994
0
LINE
8
BLACK
6
CONTINUOUS
10
7.76463
20
-4.79994
11
7.76516
21
-4.79914
0
LINE
8
BLACK
6
CONTINUOUS
10
7.76516
20
-4.79914
11
7.76596
21
-4.79861
0
LINE
8
BLACK
6
CONTINUOUS
10
7.76596
20
-4.79861
11
7.7669
21
-4.79842
0
LINE
8
BLACK
6
CONTINUOUS
10
7.7669
20
-4.79842
11
7.79643
21
-4.79842
0
LINE
8
BLACK
6
CONTINUOUS
10
7.79643
20
-4.79842
11
7.79737
21
-4.79861
0
LINE
8
BLACK
6
CONTINUOUS
10
8.06804
20
-4.79861
11
8.06884
21
-4.79914
0
LINE
8
BLACK
6
CONTINUOUS
10
8.06884
20
-4.79914
11
8.06937
21
-4.79994
0
LINE
8
BLACK
6
CONTINUOUS
10
8.06937
20
-4.79994
11
8.06956
21
-4.80088
0
LINE
8
BLACK
6
CONTINUOUS
10
8.06956
20
-4.80088
11
8.06956
21
-4.8058
0
LINE
8
BLACK
6
CONTINUOUS
10
8.06956
20
-4.8058
11
8.06937
21
-4.80674
0
LINE
8
BLACK
6
CONTINUOUS
10
8.06937
20
-4.80674
11
8.06884
21
-4.80754
0
LINE
8
BLACK
6
CONTINUOUS
10
8.06884
20
-4.80754
11
8.06804
21
-4.80808
0
LINE
8
BLACK
6
CONTINUOUS
10
8.06804
20
-4.80808
11
8.0671
21
-4.80826
0
LINE
8
BLACK
6
CONTINUOUS
10
8.0671
20
-4.80826
11
8.03757
21
-4.80826
0
LINE
8
BLACK
6
CONTINUOUS
10
8.03757
20
-4.80826
11
8.03663
21
-4.80808
0
LINE
8
BLACK
6
CONTINUOUS
10
8.03663
20
-4.80808
11
8.03583
21
-4.80754
0
LINE
8
BLACK
6
CONTINUOUS
10
8.03583
20
-4.80754
11
8.0353
21
-4.80674
0
LINE
8
BLACK
6
CONTINUOUS
10
8.0353
20
-4.80674
11
8.03511
21
-4.8058
0
LINE
8
BLACK
6
CONTINUOUS
10
8.03511
20
-4.8058
11
8.03511
21
-4.80088
0
LINE
8
BLACK
6
CONTINUOUS
10
8.03511
20
-4.80088
11
8.0353
21
-4.79994
0
LINE
8
BLACK
6
CONTINUOUS
10
8.0353
20
-4.79994
11
8.03583
21
-4.79914
0
LINE
8
BLACK
6
CONTINUOUS
10
8.03583
20
-4.79914
11
8.03663
21
-4.79861
0
LINE
8
BLACK
6
CONTINUOUS
10
8.03663
20
-4.79861
11
8.03757
21
-4.79842
0
LINE
8
BLACK
6
CONTINUOUS
10
8.03757
20
-4.79842
11
8.0671
21
-4.79842
0
LINE
8
BLACK
6
CONTINUOUS
10
8.0671
20
-4.79842
11
8.06804
21
-4.79861
0
LINE
8
BLACK
6
CONTINUOUS
10
7.47049
20
-4.75331
11
7.43291
21
-4.7909
0
LINE
8
BLACK
6
CONTINUOUS
10
7.43291
20
-4.7909
11
7.38837
21
-4.74636
0
LINE
8
BLACK
6
CONTINUOUS
10
7.38837
20
-4.74636
11
7.42595
21
-4.70877
0
LINE
8
BLACK
6
CONTINUOUS
10
7.42595
20
-4.70877
11
7.47049
21
-4.75331
0
LINE
8
BLACK
6
CONTINUOUS
10
8.06804
20
-4.77892
11
8.06884
21
-4.77946
0
LINE
8
BLACK
6
CONTINUOUS
10
8.06884
20
-4.77946
11
8.06937
21
-4.78026
0
LINE
8
BLACK
6
CONTINUOUS
10
8.06937
20
-4.78026
11
8.06956
21
-4.7812
0
LINE
8
BLACK
6
CONTINUOUS
10
8.06956
20
-4.7812
11
8.06956
21
-4.78612
0
LINE
8
BLACK
6
CONTINUOUS
10
8.06956
20
-4.78612
11
8.06937
21
-4.78706
0
LINE
8
BLACK
6
CONTINUOUS
10
8.06937
20
-4.78706
11
8.06884
21
-4.78786
0
LINE
8
BLACK
6
CONTINUOUS
10
8.06884
20
-4.78786
11
8.06804
21
-4.78839
0
LINE
8
BLACK
6
CONTINUOUS
10
8.06804
20
-4.78839
11
8.0671
21
-4.78858
0
LINE
8
BLACK
6
CONTINUOUS
10
8.0671
20
-4.78858
11
8.03757
21
-4.78858
0
LINE
8
BLACK
6
CONTINUOUS
10
8.03757
20
-4.78858
11
8.03663
21
-4.78839
0
LINE
8
BLACK
6
CONTINUOUS
10
8.03663
20
-4.78839
11
8.03583
21
-4.78786
0
LINE
8
BLACK
6
CONTINUOUS
10
8.03583
20
-4.78786
11
8.0353
21
-4.78706
0
LINE
8
BLACK
6
CONTINUOUS
10
8.0353
20
-4.78706
11
8.03511
21
-4.78612
0
LINE
8
BLACK
6
CONTINUOUS
10
8.03511
20
-4.78612
11
8.03511
21
-4.7812
0
LINE
8
BLACK
6
CONTINUOUS
10
8.03511
20
-4.7812
11
8.0353
21
-4.78026
0
LINE
8
BLACK
6
CONTINUOUS
10
8.0353
20
-4.78026
11
8.03583
21
-4.77946
0
LINE
8
BLACK
6
CONTINUOUS
10
8.03583
20
-4.77946
11
8.03663
21
-4.77892
0
LINE
8
BLACK
6
CONTINUOUS
10
8.03663
20
-4.77892
11
8.03757
21
-4.77874
0
LINE
8
BLACK
6
CONTINUOUS
10
8.03757
20
-4.77874
11
8.0671
21
-4.77874
0
LINE
8
BLACK
6
CONTINUOUS
10
8.0671
20
-4.77874
11
8.06804
21
-4.77892
0
LINE
8
BLACK
6
CONTINUOUS
10
7.79737
20
-4.77892
11
7.79817
21
-4.77946
0
LINE
8
BLACK
6
CONTINUOUS
10
7.79817
20
-4.77946
11
7.7987
21
-4.78026
0
LINE
8
BLACK
6
CONTINUOUS
10
7.7987
20
-4.78026
11
7.79889
21
-4.7812
0
LINE
8
BLACK
6
CONTINUOUS
10
7.79889
20
-4.7812
11
7.79889
21
-4.78612
0
LINE
8
BLACK
6
CONTINUOUS
10
7.79889
20
-4.78612
11
7.7987
21
-4.78706
0
LINE
8
BLACK
6
CONTINUOUS
10
7.7987
20
-4.78706
11
7.79817
21
-4.78786
0
LINE
8
BLACK
6
CONTINUOUS
10
7.79817
20
-4.78786
11
7.79737
21
-4.78839
0
LINE
8
BLACK
6
CONTINUOUS
10
7.79737
20
-4.78839
11
7.79643
21
-4.78858
0
LINE
8
BLACK
6
CONTINUOUS
10
7.79643
20
-4.78858
11
7.7669
21
-4.78858
0
LINE
8
BLACK
6
CONTINUOUS
10
7.7669
20
-4.78858
11
7.76596
21
-4.78839
0
LINE
8
BLACK
6
CONTINUOUS
10
7.76596
20
-4.78839
11
7.76516
21
-4.78786
0
LINE
8
BLACK
6
CONTINUOUS
10
7.76516
20
-4.78786
11
7.76463
21
-4.78706
0
LINE
8
BLACK
6
CONTINUOUS
10
7.76463
20
-4.78706
11
7.76444
21
-4.78612
0
LINE
8
BLACK
6
CONTINUOUS
10
7.76444
20
-4.78612
11
7.76444
21
-4.7812
0
LINE
8
BLACK
6
CONTINUOUS
10
7.76444
20
-4.7812
11
7.76463
21
-4.78026
0
LINE
8
BLACK
6
CONTINUOUS
10
7.76463
20
-4.78026
11
7.76516
21
-4.77946
0
LINE
8
BLACK
6
CONTINUOUS
10
7.76516
20
-4.77946
11
7.76596
21
-4.77892
0
LINE
8
BLACK
6
CONTINUOUS
10
7.76596
20
-4.77892
11
7.7669
21
-4.77874
0
LINE
8
BLACK
6
CONTINUOUS
10
7.7669
20
-4.77874
11
7.79643
21
-4.77874
0
LINE
8
BLACK
6
CONTINUOUS
10
7.79643
20
-4.77874
11
7.79737
21
-4.77892
0
LINE
8
BLACK
6
CONTINUOUS
10
7.85049
20
-4.74445
11
7.85368
21
-4.74658
0
LINE
8
BLACK
6
CONTINUOUS
10
7.85368
20
-4.74658
11
7.85582
21
-4.74977
0
LINE
8
BLACK
6
CONTINUOUS
10
7.85582
20
-4.74977
11
7.85657
21
-4.75354
0
LINE
8
BLACK
6
CONTINUOUS
10
7.85657
20
-4.75354
11
7.85657
21
-4.77834
0
LINE
8
BLACK
6
CONTINUOUS
10
7.85657
20
-4.77834
11
7.85582
21
-4.78211
0
LINE
8
BLACK
6
CONTINUOUS
10
7.85582
20
-4.78211
11
7.85368
21
-4.7853
0
LINE
8
BLACK
6
CONTINUOUS
10
7.85368
20
-4.7853
11
7.85049
21
-4.78744
0
LINE
8
BLACK
6
CONTINUOUS
10
7.85049
20
-4.78744
11
7.84672
21
-4.78819
0
LINE
8
BLACK
6
CONTINUOUS
10
7.84672
20
-4.78819
11
7.82192
21
-4.78819
0
LINE
8
BLACK
6
CONTINUOUS
10
7.82192
20
-4.78819
11
7.81815
21
-4.78744
0
LINE
8
BLACK
6
CONTINUOUS
10
7.81815
20
-4.78744
11
7.81496
21
-4.7853
0
LINE
8
BLACK
6
CONTINUOUS
10
7.81496
20
-4.7853
11
7.81283
21
-4.78211
0
LINE
8
BLACK
6
CONTINUOUS
10
7.81283
20
-4.78211
11
7.81208
21
-4.77834
0
LINE
8
BLACK
6
CONTINUOUS
10
7.81208
20
-4.77834
11
7.81208
21
-4.75354
0
LINE
8
BLACK
6
CONTINUOUS
10
7.81208
20
-4.75354
11
7.81283
21
-4.74977
0
LINE
8
BLACK
6
CONTINUOUS
10
7.81283
20
-4.74977
11
7.81496
21
-4.74658
0
LINE
8
BLACK
6
CONTINUOUS
10
7.81496
20
-4.74658
11
7.81815
21
-4.74445
0
LINE
8
BLACK
6
CONTINUOUS
10
7.81815
20
-4.74445
11
7.82192
21
-4.7437
0
LINE
8
BLACK
6
CONTINUOUS
10
7.82192
20
-4.7437
11
7.84672
21
-4.7437
0
LINE
8
BLACK
6
CONTINUOUS
10
7.84672
20
-4.7437
11
7.85049
21
-4.74445
0
LINE
8
BLACK
6
CONTINUOUS
10
7.96073
20
-4.74445
11
7.96392
21
-4.74658
0
LINE
8
BLACK
6
CONTINUOUS
10
7.96392
20
-4.74658
11
7.96605
21
-4.74977
0
LINE
8
BLACK
6
CONTINUOUS
10
7.96605
20
-4.74977
11
7.9668
21
-4.75354
0
LINE
8
BLACK
6
CONTINUOUS
10
7.9668
20
-4.75354
11
7.9668
21
-4.77834
0
LINE
8
BLACK
6
CONTINUOUS
10
7.9668
20
-4.77834
11
7.96605
21
-4.78211
0
LINE
8
BLACK
6
CONTINUOUS
10
7.96605
20
-4.78211
11
7.96392
21
-4.7853
0
LINE
8
BLACK
6
CONTINUOUS
10
7.96392
20
-4.7853
11
7.96073
21
-4.78744
0
LINE
8
BLACK
6
CONTINUOUS
10
7.96073
20
-4.78744
11
7.95696
21
-4.78819
0
LINE
8
BLACK
6
CONTINUOUS
10
7.95696
20
-4.78819
11
7.93216
21
-4.78819
0
LINE
8
BLACK
6
CONTINUOUS
10
7.93216
20
-4.78819
11
7.92839
21
-4.78744
0
LINE
8
BLACK
6
CONTINUOUS
10
7.92839
20
-4.78744
11
7.9252
21
-4.7853
0
LINE
8
BLACK
6
CONTINUOUS
10
7.9252
20
-4.7853
11
7.92306
21
-4.78211
0
LINE
8
BLACK
6
CONTINUOUS
10
7.92306
20
-4.78211
11
7.92231
21
-4.77834
0
LINE
8
BLACK
6
CONTINUOUS
10
7.92231
20
-4.77834
11
7.92231
21
-4.75354
0
LINE
8
BLACK
6
CONTINUOUS
10
7.92231
20
-4.75354
11
7.92306
21
-4.74977
0
LINE
8
BLACK
6
CONTINUOUS
10
7.92306
20
-4.74977
11
7.9252
21
-4.74658
0
LINE
8
BLACK
6
CONTINUOUS
10
7.9252
20
-4.74658
11
7.92839
21
-4.74445
0
LINE
8
BLACK
6
CONTINUOUS
10
7.92839
20
-4.74445
11
7.93216
21
-4.7437
0
LINE
8
BLACK
6
CONTINUOUS
10
7.93216
20
-4.7437
11
7.95696
21
-4.7437
0
LINE
8
BLACK
6
CONTINUOUS
10
7.95696
20
-4.7437
11
7.96073
21
-4.74445
0
LINE
8
BLACK
6
CONTINUOUS
10
7.90561
20
-4.74445
11
7.9088
21
-4.74658
0
LINE
8
BLACK
6
CONTINUOUS
10
7.9088
20
-4.74658
11
7.91094
21
-4.74977
0
LINE
8
BLACK
6
CONTINUOUS
10
7.91094
20
-4.74977
11
7.91169
21
-4.75354
0
LINE
8
BLACK
6
CONTINUOUS
10
7.91169
20
-4.75354
11
7.91169
21
-4.77834
0
LINE
8
BLACK
6
CONTINUOUS
10
7.91169
20
-4.77834
11
7.91094
21
-4.78211
0
LINE
8
BLACK
6
CONTINUOUS
10
7.91094
20
-4.78211
11
7.9088
21
-4.7853
0
LINE
8
BLACK
6
CONTINUOUS
10
7.9088
20
-4.7853
11
7.90561
21
-4.78744
0
LINE
8
BLACK
6
CONTINUOUS
10
7.90561
20
-4.78744
11
7.90184
21
-4.78819
0
LINE
8
BLACK
6
CONTINUOUS
10
7.90184
20
-4.78819
11
7.87704
21
-4.78819
0
LINE
8
BLACK
6
CONTINUOUS
10
7.87704
20
-4.78819
11
7.87327
21
-4.78744
0
LINE
8
BLACK
6
CONTINUOUS
10
7.87327
20
-4.78744
11
7.87008
21
-4.7853
0
LINE
8
BLACK
6
CONTINUOUS
10
7.87008
20
-4.7853
11
7.86795
21
-4.78211
0
LINE
8
BLACK
6
CONTINUOUS
10
7.86795
20
-4.78211
11
7.8672
21
-4.77834
0
LINE
8
BLACK
6
CONTINUOUS
10
7.8672
20
-4.77834
11
7.8672
21
-4.75354
0
LINE
8
BLACK
6
CONTINUOUS
10
7.8672
20
-4.75354
11
7.86795
21
-4.74977
0
LINE
8
BLACK
6
CONTINUOUS
10
7.86795
20
-4.74977
11
7.87008
21
-4.74658
0
LINE
8
BLACK
6
CONTINUOUS
10
7.87008
20
-4.74658
11
7.87327
21
-4.74445
0
LINE
8
BLACK
6
CONTINUOUS
10
7.87327
20
-4.74445
11
7.87704
21
-4.7437
0
LINE
8
BLACK
6
CONTINUOUS
10
7.87704
20
-4.7437
11
7.90184
21
-4.7437
0
LINE
8
BLACK
6
CONTINUOUS
10
7.90184
20
-4.7437
11
7.90561
21
-4.74445
0
LINE
8
BLACK
6
CONTINUOUS
10
8.01585
20
-4.74445
11
8.01904
21
-4.74658
0
LINE
8
BLACK
6
CONTINUOUS
10
8.01904
20
-4.74658
11
8.02117
21
-4.74977
0
LINE
8
BLACK
6
CONTINUOUS
10
8.02117
20
-4.74977
11
8.02192
21
-4.75354
0
LINE
8
BLACK
6
CONTINUOUS
10
8.02192
20
-4.75354
11
8.02192
21
-4.77834
0
LINE
8
BLACK
6
CONTINUOUS
10
8.02192
20
-4.77834
11
8.02117
21
-4.78211
0
LINE
8
BLACK
6
CONTINUOUS
10
8.02117
20
-4.78211
11
8.01904
21
-4.7853
0
LINE
8
BLACK
6
CONTINUOUS
10
8.01904
20
-4.7853
11
8.01585
21
-4.78744
0
LINE
8
BLACK
6
CONTINUOUS
10
8.01585
20
-4.78744
11
8.01208
21
-4.78819
0
LINE
8
BLACK
6
CONTINUOUS
10
8.01208
20
-4.78819
11
7.98728
21
-4.78819
0
LINE
8
BLACK
6
CONTINUOUS
10
7.98728
20
-4.78819
11
7.98351
21
-4.78744
0
LINE
8
BLACK
6
CONTINUOUS
10
7.98351
20
-4.78744
11
7.98032
21
-4.7853
0
LINE
8
BLACK
6
CONTINUOUS
10
7.98032
20
-4.7853
11
7.97818
21
-4.78211
0
LINE
8
BLACK
6
CONTINUOUS
10
7.97818
20
-4.78211
11
7.97743
21
-4.77834
0
LINE
8
BLACK
6
CONTINUOUS
10
7.97743
20
-4.77834
11
7.97743
21
-4.75354
0
LINE
8
BLACK
6
CONTINUOUS
10
7.97743
20
-4.75354
11
7.97818
21
-4.74977
0
LINE
8
BLACK
6
CONTINUOUS
10
7.97818
20
-4.74977
11
7.98032
21
-4.74658
0
LINE
8
BLACK
6
CONTINUOUS
10
7.98032
20
-4.74658
11
7.98351
21
-4.74445
0
LINE
8
BLACK
6
CONTINUOUS
10
7.98351
20
-4.74445
11
7.98728
21
-4.7437
0
LINE
8
BLACK
6
CONTINUOUS
10
7.98728
20
-4.7437
11
8.01208
21
-4.7437
0
LINE
8
BLACK
6
CONTINUOUS
10
8.01208
20
-4.7437
11
8.01585
21
-4.74445
0
LINE
8
BLACK
6
CONTINUOUS
10
7.79737
20
-4.75924
11
7.79817
21
-4.75977
0
LINE
8
BLACK
6
CONTINUOUS
10
7.79817
20
-4.75977
11
7.7987
21
-4.76057
0
LINE
8
BLACK
6
CONTINUOUS
10
7.7987
20
-4.76057
11
7.79889
21
-4.76151
0
LINE
8
BLACK
6
CONTINUOUS
10
7.79889
20
-4.76151
11
7.79889
21
-4.76643
0
LINE
8
BLACK
6
CONTINUOUS
10
7.79889
20
-4.76643
11
7.7987
21
-4.76737
0
LINE
8
BLACK
6
CONTINUOUS
10
7.7987
20
-4.76737
11
7.79817
21
-4.76817
0
LINE
8
BLACK
6
CONTINUOUS
10
7.79817
20
-4.76817
11
7.79737
21
-4.76871
0
LINE
8
BLACK
6
CONTINUOUS
10
7.79737
20
-4.76871
11
7.79643
21
-4.76889
0
LINE
8
BLACK
6
CONTINUOUS
10
7.79643
20
-4.76889
11
7.7669
21
-4.76889
0
LINE
8
BLACK
6
CONTINUOUS
10
7.7669
20
-4.76889
11
7.76596
21
-4.76871
0
LINE
8
BLACK
6
CONTINUOUS
10
7.76596
20
-4.76871
11
7.76516
21
-4.76817
0
LINE
8
BLACK
6
CONTINUOUS
10
7.76516
20
-4.76817
11
7.76463
21
-4.76737
0
LINE
8
BLACK
6
CONTINUOUS
10
7.76463
20
-4.76737
11
7.76444
21
-4.76643
0
LINE
8
BLACK
6
CONTINUOUS
10
7.76444
20
-4.76643
11
7.76444
21
-4.76151
0
LINE
8
BLACK
6
CONTINUOUS
10
7.76444
20
-4.76151
11
7.76463
21
-4.76057
0
LINE
8
BLACK
6
CONTINUOUS
10
7.76463
20
-4.76057
11
7.76516
21
-4.75977
0
LINE
8
BLACK
6
CONTINUOUS
10
7.76516
20
-4.75977
11
7.76596
21
-4.75924
0
LINE
8
BLACK
6
CONTINUOUS
10
7.76596
20
-4.75924
11
7.7669
21
-4.75905
0
LINE
8
BLACK
6
CONTINUOUS
10
7.7669
20
-4.75905
11
7.79643
21
-4.75905
0
LINE
8
BLACK
6
CONTINUOUS
10
7.79643
20
-4.75905
11
7.79737
21
-4.75924
0
LINE
8
BLACK
6
CONTINUOUS
10
8.06804
20
-4.75924
11
8.06884
21
-4.75977
0
LINE
8
BLACK
6
CONTINUOUS
10
8.06884
20
-4.75977
11
8.06937
21
-4.76057
0
LINE
8
BLACK
6
CONTINUOUS
10
8.06937
20
-4.76057
11
8.06956
21
-4.76151
0
LINE
8
BLACK
6
CONTINUOUS
10
8.06956
20
-4.76151
11
8.06956
21
-4.76643
0
LINE
8
BLACK
6
CONTINUOUS
10
8.06956
20
-4.76643
11
8.06937
21
-4.76737
0
LINE
8
BLACK
6
CONTINUOUS
10
8.06937
20
-4.76737
11
8.06884
21
-4.76817
0
LINE
8
BLACK
6
CONTINUOUS
10
8.06884
20
-4.76817
11
8.06804
21
-4.76871
0
LINE
8
BLACK
6
CONTINUOUS
10
8.06804
20
-4.76871
11
8.0671
21
-4.76889
0
LINE
8
BLACK
6
CONTINUOUS
10
8.0671
20
-4.76889
11
8.03757
21
-4.76889
0
LINE
8
BLACK
6
CONTINUOUS
10
8.03757
20
-4.76889
11
8.03663
21
-4.76871
0
LINE
8
BLACK
6
CONTINUOUS
10
8.03663
20
-4.76871
11
8.03583
21
-4.76817
0
LINE
8
BLACK
6
CONTINUOUS
10
8.03583
20
-4.76817
11
8.0353
21
-4.76737
0
LINE
8
BLACK
6
CONTINUOUS
10
8.0353
20
-4.76737
11
8.03511
21
-4.76643
0
LINE
8
BLACK
6
CONTINUOUS
10
8.03511
20
-4.76643
11
8.03511
21
-4.76151
0
LINE
8
BLACK
6
CONTINUOUS
10
8.03511
20
-4.76151
11
8.0353
21
-4.76057
0
LINE
8
BLACK
6
CONTINUOUS
10
8.0353
20
-4.76057
11
8.03583
21
-4.75977
0
LINE
8
BLACK
6
CONTINUOUS
10
8.03583
20
-4.75977
11
8.03663
21
-4.75924
0
LINE
8
BLACK
6
CONTINUOUS
10
8.03663
20
-4.75924
11
8.03757
21
-4.75905
0
LINE
8
BLACK
6
CONTINUOUS
10
8.03757
20
-4.75905
11
8.0671
21
-4.75905
0
LINE
8
BLACK
6
CONTINUOUS
10
8.0671
20
-4.75905
11
8.06804
21
-4.75924
0
LINE
8
BLACK
6
CONTINUOUS
10
6.72846
20
-4.75189
11
6.71272
21
-4.75189
0
LINE
8
BLACK
6
CONTINUOUS
10
6.71272
20
-4.75189
11
6.71272
21
-4.69283
0
LINE
8
BLACK
6
CONTINUOUS
10
6.71272
20
-4.69283
11
6.72846
21
-4.69283
0
LINE
8
BLACK
6
CONTINUOUS
10
6.72846
20
-4.69283
11
6.72846
21
-4.75189
0
LINE
8
BLACK
6
CONTINUOUS
10
6.70287
20
-4.75189
11
6.68713
21
-4.75189
0
LINE
8
BLACK
6
CONTINUOUS
10
6.68713
20
-4.75189
11
6.68713
21
-4.69283
0
LINE
8
BLACK
6
CONTINUOUS
10
6.68713
20
-4.69283
11
6.70287
21
-4.69283
0
LINE
8
BLACK
6
CONTINUOUS
10
6.70287
20
-4.69283
11
6.70287
21
-4.75189
0
LINE
8
BLACK
6
CONTINUOUS
10
6.67728
20
-4.75189
11
6.66154
21
-4.75189
0
LINE
8
BLACK
6
CONTINUOUS
10
6.66154
20
-4.75189
11
6.66154
21
-4.69283
0
LINE
8
BLACK
6
CONTINUOUS
10
6.66154
20
-4.69283
11
6.67728
21
-4.69283
0
LINE
8
BLACK
6
CONTINUOUS
10
6.67728
20
-4.69283
11
6.67728
21
-4.75189
0
LINE
8
BLACK
6
CONTINUOUS
10
7.79737
20
-4.73955
11
7.79817
21
-4.74009
0
LINE
8
BLACK
6
CONTINUOUS
10
7.79817
20
-4.74009
11
7.7987
21
-4.74089
0
LINE
8
BLACK
6
CONTINUOUS
10
7.7987
20
-4.74089
11
7.79889
21
-4.74183
0
LINE
8
BLACK
6
CONTINUOUS
10
7.79889
20
-4.74183
11
7.79889
21
-4.74675
0
LINE
8
BLACK
6
CONTINUOUS
10
7.79889
20
-4.74675
11
7.7987
21
-4.74769
0
LINE
8
BLACK
6
CONTINUOUS
10
7.7987
20
-4.74769
11
7.79817
21
-4.74849
0
LINE
8
BLACK
6
CONTINUOUS
10
7.79817
20
-4.74849
11
7.79737
21
-4.74902
0
LINE
8
BLACK
6
CONTINUOUS
10
7.79737
20
-4.74902
11
7.79643
21
-4.74921
0
LINE
8
BLACK
6
CONTINUOUS
10
7.79643
20
-4.74921
11
7.7669
21
-4.74921
0
LINE
8
BLACK
6
CONTINUOUS
10
7.7669
20
-4.74921
11
7.76596
21
-4.74902
0
LINE
8
BLACK
6
CONTINUOUS
10
7.76596
20
-4.74902
11
7.76516
21
-4.74849
0
LINE
8
BLACK
6
CONTINUOUS
10
7.76516
20
-4.74849
11
7.76463
21
-4.74769
0
LINE
8
BLACK
6
CONTINUOUS
10
7.76463
20
-4.74769
11
7.76444
21
-4.74675
0
LINE
8
BLACK
6
CONTINUOUS
10
7.76444
20
-4.74675
11
7.76444
21
-4.74183
0
LINE
8
BLACK
6
CONTINUOUS
10
7.76444
20
-4.74183
11
7.76463
21
-4.74089
0
LINE
8
BLACK
6
CONTINUOUS
10
7.76463
20
-4.74089
11
7.76516
21
-4.74009
0
LINE
8
BLACK
6
CONTINUOUS
10
7.76516
20
-4.74009
11
7.76596
21
-4.73955
0
LINE
8
BLACK
6
CONTINUOUS
10
7.76596
20
-4.73955
11
7.7669
21
-4.73937
0
LINE
8
BLACK
6
CONTINUOUS
10
7.7669
20
-4.73937
11
7.79643
21
-4.73937
0
LINE
8
BLACK
6
CONTINUOUS
10
7.79643
20
-4.73937
11
7.79737
21
-4.73955
0
LINE
8
BLACK
6
CONTINUOUS
10
8.06804
20
-4.73955
11
8.06884
21
-4.74009
0
LINE
8
BLACK
6
CONTINUOUS
10
8.06884
20
-4.74009
11
8.06937
21
-4.74089
0
LINE
8
BLACK
6
CONTINUOUS
10
8.06937
20
-4.74089
11
8.06956
21
-4.74183
0
LINE
8
BLACK
6
CONTINUOUS
10
8.06956
20
-4.74183
11
8.06956
21
-4.74675
0
LINE
8
BLACK
6
CONTINUOUS
10
8.06956
20
-4.74675
11
8.06937
21
-4.74769
0
LINE
8
BLACK
6
CONTINUOUS
10
8.06937
20
-4.74769
11
8.06884
21
-4.74849
0
LINE
8
BLACK
6
CONTINUOUS
10
8.06884
20
-4.74849
11
8.06804
21
-4.74902
0
LINE
8
BLACK
6
CONTINUOUS
10
8.06804
20
-4.74902
11
8.0671
21
-4.74921
0
LINE
8
BLACK
6
CONTINUOUS
10
8.0671
20
-4.74921
11
8.03757
21
-4.74921
0
LINE
8
BLACK
6
CONTINUOUS
10
8.03757
20
-4.74921
11
8.03663
21
-4.74902
0
LINE
8
BLACK
6
CONTINUOUS
10
8.03663
20
-4.74902
11
8.03583
21
-4.74849
0
LINE
8
BLACK
6
CONTINUOUS
10
8.03583
20
-4.74849
11
8.0353
21
-4.74769
0
LINE
8
BLACK
6
CONTINUOUS
10
8.0353
20
-4.74769
11
8.03511
21
-4.74675
0
LINE
8
BLACK
6
CONTINUOUS
10
8.03511
20
-4.74675
11
8.03511
21
-4.74183
0
LINE
8
BLACK
6
CONTINUOUS
10
8.03511
20
-4.74183
11
8.0353
21
-4.74089
0
LINE
8
BLACK
6
CONTINUOUS
10
8.0353
20
-4.74089
11
8.03583
21
-4.74009
0
LINE
8
BLACK
6
CONTINUOUS
10
8.03583
20
-4.74009
11
8.03663
21
-4.73955
0
LINE
8
BLACK
6
CONTINUOUS
10
8.03663
20
-4.73955
11
8.03757
21
-4.73937
0
LINE
8
BLACK
6
CONTINUOUS
10
8.03757
20
-4.73937
11
8.0671
21
-4.73937
0
LINE
8
BLACK
6
CONTINUOUS
10
8.0671
20
-4.73937
11
8.06804
21
-4.73955
0
LINE
8
BLACK
6
CONTINUOUS
10
8.01585
20
-4.68933
11
8.01904
21
-4.69146
0
LINE
8
BLACK
6
CONTINUOUS
10
8.01904
20
-4.69146
11
8.02117
21
-4.69465
0
LINE
8
BLACK
6
CONTINUOUS
10
8.02117
20
-4.69465
11
8.02192
21
-4.69842
0
LINE
8
BLACK
6
CONTINUOUS
10
8.02192
20
-4.69842
11
8.02192
21
-4.72322
0
LINE
8
BLACK
6
CONTINUOUS
10
8.02192
20
-4.72322
11
8.02117
21
-4.72699
0
LINE
8
BLACK
6
CONTINUOUS
10
8.02117
20
-4.72699
11
8.01904
21
-4.73018
0
LINE
8
BLACK
6
CONTINUOUS
10
8.01904
20
-4.73018
11
8.01585
21
-4.73232
0
LINE
8
BLACK
6
CONTINUOUS
10
8.01585
20
-4.73232
11
8.01208
21
-4.73307
0
LINE
8
BLACK
6
CONTINUOUS
10
8.01208
20
-4.73307
11
7.98728
21
-4.73307
0
LINE
8
BLACK
6
CONTINUOUS
10
7.98728
20
-4.73307
11
7.98351
21
-4.73232
0
LINE
8
BLACK
6
CONTINUOUS
10
7.98351
20
-4.73232
11
7.98032
21
-4.73018
0
LINE
8
BLACK
6
CONTINUOUS
10
7.98032
20
-4.73018
11
7.97818
21
-4.72699
0
LINE
8
BLACK
6
CONTINUOUS
10
7.97818
20
-4.72699
11
7.97743
21
-4.72322
0
LINE
8
BLACK
6
CONTINUOUS
10
7.97743
20
-4.72322
11
7.97743
21
-4.69842
0
LINE
8
BLACK
6
CONTINUOUS
10
7.97743
20
-4.69842
11
7.97818
21
-4.69465
0
LINE
8
BLACK
6
CONTINUOUS
10
7.97818
20
-4.69465
11
7.98032
21
-4.69146
0
LINE
8
BLACK
6
CONTINUOUS
10
7.98032
20
-4.69146
11
7.98351
21
-4.68933
0
LINE
8
BLACK
6
CONTINUOUS
10
7.98351
20
-4.68933
11
7.98728
21
-4.68858
0
LINE
8
BLACK
6
CONTINUOUS
10
7.98728
20
-4.68858
11
8.01208
21
-4.68858
0
LINE
8
BLACK
6
CONTINUOUS
10
8.01208
20
-4.68858
11
8.01585
21
-4.68933
0
LINE
8
BLACK
6
CONTINUOUS
10
7.85049
20
-4.68933
11
7.85368
21
-4.69146
0
LINE
8
BLACK
6
CONTINUOUS
10
7.85368
20
-4.69146
11
7.85582
21
-4.69465
0
LINE
8
BLACK
6
CONTINUOUS
10
7.85582
20
-4.69465
11
7.85657
21
-4.69842
0
LINE
8
BLACK
6
CONTINUOUS
10
7.85657
20
-4.69842
11
7.85657
21
-4.72322
0
LINE
8
BLACK
6
CONTINUOUS
10
7.85657
20
-4.72322
11
7.85582
21
-4.72699
0
LINE
8
BLACK
6
CONTINUOUS
10
7.85582
20
-4.72699
11
7.85368
21
-4.73018
0
LINE
8
BLACK
6
CONTINUOUS
10
7.85368
20
-4.73018
11
7.85049
21
-4.73232
0
LINE
8
BLACK
6
CONTINUOUS
10
7.85049
20
-4.73232
11
7.84672
21
-4.73307
0
LINE
8
BLACK
6
CONTINUOUS
10
7.84672
20
-4.73307
11
7.82192
21
-4.73307
0
LINE
8
BLACK
6
CONTINUOUS
10
7.82192
20
-4.73307
11
7.81815
21
-4.73232
0
LINE
8
BLACK
6
CONTINUOUS
10
7.81815
20
-4.73232
11
7.81496
21
-4.73018
0
LINE
8
BLACK
6
CONTINUOUS
10
7.81496
20
-4.73018
11
7.81283
21
-4.72699
0
LINE
8
BLACK
6
CONTINUOUS
10
7.81283
20
-4.72699
11
7.81208
21
-4.72322
0
LINE
8
BLACK
6
CONTINUOUS
10
7.81208
20
-4.72322
11
7.81208
21
-4.69842
0
LINE
8
BLACK
6
CONTINUOUS
10
7.81208
20
-4.69842
11
7.81283
21
-4.69465
0
LINE
8
BLACK
6
CONTINUOUS
10
7.81283
20
-4.69465
11
7.81496
21
-4.69146
0
LINE
8
BLACK
6
CONTINUOUS
10
7.81496
20
-4.69146
11
7.81815
21
-4.68933
0
LINE
8
BLACK
6
CONTINUOUS
10
7.81815
20
-4.68933
11
7.82192
21
-4.68858
0
LINE
8
BLACK
6
CONTINUOUS
10
7.82192
20
-4.68858
11
7.84672
21
-4.68858
0
LINE
8
BLACK
6
CONTINUOUS
10
7.84672
20
-4.68858
11
7.85049
21
-4.68933
0
LINE
8
BLACK
6
CONTINUOUS
10
7.90561
20
-4.68933
11
7.9088
21
-4.69146
0
LINE
8
BLACK
6
CONTINUOUS
10
7.9088
20
-4.69146
11
7.91094
21
-4.69465
0
LINE
8
BLACK
6
CONTINUOUS
10
7.91094
20
-4.69465
11
7.91169
21
-4.69842
0
LINE
8
BLACK
6
CONTINUOUS
10
7.91169
20
-4.69842
11
7.91169
21
-4.72322
0
LINE
8
BLACK
6
CONTINUOUS
10
7.91169
20
-4.72322
11
7.91094
21
-4.72699
0
LINE
8
BLACK
6
CONTINUOUS
10
7.91094
20
-4.72699
11
7.9088
21
-4.73018
0
LINE
8
BLACK
6
CONTINUOUS
10
7.9088
20
-4.73018
11
7.90561
21
-4.73232
0
LINE
8
BLACK
6
CONTINUOUS
10
7.90561
20
-4.73232
11
7.90184
21
-4.73307
0
LINE
8
BLACK
6
CONTINUOUS
10
7.90184
20
-4.73307
11
7.87704
21
-4.73307
0
LINE
8
BLACK
6
CONTINUOUS
10
7.87704
20
-4.73307
11
7.87327
21
-4.73232
0
LINE
8
BLACK
6
CONTINUOUS
10
7.87327
20
-4.73232
11
7.87008
21
-4.73018
0
LINE
8
BLACK
6
CONTINUOUS
10
7.87008
20
-4.73018
11
7.86795
21
-4.72699
0
LINE
8
BLACK
6
CONTINUOUS
10
7.86795
20
-4.72699
11
7.8672
21
-4.72322
0
LINE
8
BLACK
6
CONTINUOUS
10
7.8672
20
-4.72322
11
7.8672
21
-4.69842
0
LINE
8
BLACK
6
CONTINUOUS
10
7.8672
20
-4.69842
11
7.86795
21
-4.69465
0
LINE
8
BLACK
6
CONTINUOUS
10
7.86795
20
-4.69465
11
7.87008
21
-4.69146
0
LINE
8
BLACK
6
CONTINUOUS
10
7.87008
20
-4.69146
11
7.87327
21
-4.68933
0
LINE
8
BLACK
6
CONTINUOUS
10
7.87327
20
-4.68933
11
7.87704
21
-4.68858
0
LINE
8
BLACK
6
CONTINUOUS
10
7.87704
20
-4.68858
11
7.90184
21
-4.68858
0
LINE
8
BLACK
6
CONTINUOUS
10
7.90184
20
-4.68858
11
7.90561
21
-4.68933
0
LINE
8
BLACK
6
CONTINUOUS
10
7.96073
20
-4.68933
11
7.96392
21
-4.69146
0
LINE
8
BLACK
6
CONTINUOUS
10
7.96392
20
-4.69146
11
7.96605
21
-4.69465
0
LINE
8
BLACK
6
CONTINUOUS
10
7.96605
20
-4.69465
11
7.9668
21
-4.69842
0
LINE
8
BLACK
6
CONTINUOUS
10
7.9668
20
-4.69842
11
7.9668
21
-4.72322
0
LINE
8
BLACK
6
CONTINUOUS
10
7.9668
20
-4.72322
11
7.96605
21
-4.72699
0
LINE
8
BLACK
6
CONTINUOUS
10
7.96605
20
-4.72699
11
7.96392
21
-4.73018
0
LINE
8
BLACK
6
CONTINUOUS
10
7.96392
20
-4.73018
11
7.96073
21
-4.73232
0
LINE
8
BLACK
6
CONTINUOUS
10
7.96073
20
-4.73232
11
7.95696
21
-4.73307
0
LINE
8
BLACK
6
CONTINUOUS
10
7.95696
20
-4.73307
11
7.93216
21
-4.73307
0
LINE
8
BLACK
6
CONTINUOUS
10
7.93216
20
-4.73307
11
7.92839
21
-4.73232
0
LINE
8
BLACK
6
CONTINUOUS
10
7.92839
20
-4.73232
11
7.9252
21
-4.73018
0
LINE
8
BLACK
6
CONTINUOUS
10
7.9252
20
-4.73018
11
7.92306
21
-4.72699
0
LINE
8
BLACK
6
CONTINUOUS
10
7.92306
20
-4.72699
11
7.92231
21
-4.72322
0
LINE
8
BLACK
6
CONTINUOUS
10
7.92231
20
-4.72322
11
7.92231
21
-4.69842
0
LINE
8
BLACK
6
CONTINUOUS
10
7.92231
20
-4.69842
11
7.92306
21
-4.69465
0
LINE
8
BLACK
6
CONTINUOUS
10
7.92306
20
-4.69465
11
7.9252
21
-4.69146
0
LINE
8
BLACK
6
CONTINUOUS
10
7.9252
20
-4.69146
11
7.92839
21
-4.68933
0
LINE
8
BLACK
6
CONTINUOUS
10
7.92839
20
-4.68933
11
7.93216
21
-4.68858
0
LINE
8
BLACK
6
CONTINUOUS
10
7.93216
20
-4.68858
11
7.95696
21
-4.68858
0
LINE
8
BLACK
6
CONTINUOUS
10
7.95696
20
-4.68858
11
7.96073
21
-4.68933
0
LINE
8
BLACK
6
CONTINUOUS
10
8.06804
20
-4.71987
11
8.06884
21
-4.7204
0
LINE
8
BLACK
6
CONTINUOUS
10
8.06884
20
-4.7204
11
8.06937
21
-4.7212
0
LINE
8
BLACK
6
CONTINUOUS
10
8.06937
20
-4.7212
11
8.06956
21
-4.72214
0
LINE
8
BLACK
6
CONTINUOUS
10
8.06956
20
-4.72214
11
8.06956
21
-4.72706
0
LINE
8
BLACK
6
CONTINUOUS
10
8.06956
20
-4.72706
11
8.06937
21
-4.728
0
LINE
8
BLACK
6
CONTINUOUS
10
8.06937
20
-4.728
11
8.06884
21
-4.7288
0
LINE
8
BLACK
6
CONTINUOUS
10
8.06884
20
-4.7288
11
8.06804
21
-4.72934
0
LINE
8
BLACK
6
CONTINUOUS
10
8.06804
20
-4.72934
11
8.0671
21
-4.72952
0
LINE
8
BLACK
6
CONTINUOUS
10
8.0671
20
-4.72952
11
8.03757
21
-4.72952
0
LINE
8
BLACK
6
CONTINUOUS
10
8.03757
20
-4.72952
11
8.03663
21
-4.72934
0
LINE
8
BLACK
6
CONTINUOUS
10
8.03663
20
-4.72934
11
8.03583
21
-4.7288
0
LINE
8
BLACK
6
CONTINUOUS
10
8.03583
20
-4.7288
11
8.0353
21
-4.728
0
LINE
8
BLACK
6
CONTINUOUS
10
8.0353
20
-4.728
11
8.03511
21
-4.72706
0
LINE
8
BLACK
6
CONTINUOUS
10
8.03511
20
-4.72706
11
8.03511
21
-4.72214
0
LINE
8
BLACK
6
CONTINUOUS
10
8.03511
20
-4.72214
11
8.0353
21
-4.7212
0
LINE
8
BLACK
6
CONTINUOUS
10
8.0353
20
-4.7212
11
8.03583
21
-4.7204
0
LINE
8
BLACK
6
CONTINUOUS
10
8.03583
20
-4.7204
11
8.03663
21
-4.71987
0
LINE
8
BLACK
6
CONTINUOUS
10
8.03663
20
-4.71987
11
8.03757
21
-4.71968
0
LINE
8
BLACK
6
CONTINUOUS
10
8.03757
20
-4.71968
11
8.0671
21
-4.71968
0
LINE
8
BLACK
6
CONTINUOUS
10
8.0671
20
-4.71968
11
8.06804
21
-4.71987
0
LINE
8
BLACK
6
CONTINUOUS
10
7.79737
20
-4.71987
11
7.79817
21
-4.7204
0
LINE
8
BLACK
6
CONTINUOUS
10
7.79817
20
-4.7204
11
7.7987
21
-4.7212
0
LINE
8
BLACK
6
CONTINUOUS
10
7.7987
20
-4.7212
11
7.79889
21
-4.72214
0
LINE
8
BLACK
6
CONTINUOUS
10
7.79889
20
-4.72214
11
7.79889
21
-4.72706
0
LINE
8
BLACK
6
CONTINUOUS
10
7.79889
20
-4.72706
11
7.7987
21
-4.728
0
LINE
8
BLACK
6
CONTINUOUS
10
7.7987
20
-4.728
11
7.79817
21
-4.7288
0
LINE
8
BLACK
6
CONTINUOUS
10
7.79817
20
-4.7288
11
7.79737
21
-4.72934
0
LINE
8
BLACK
6
CONTINUOUS
10
7.79737
20
-4.72934
11
7.79643
21
-4.72952
0
LINE
8
BLACK
6
CONTINUOUS
10
7.79643
20
-4.72952
11
7.7669
21
-4.72952
0
LINE
8
BLACK
6
CONTINUOUS
10
7.7669
20
-4.72952
11
7.76596
21
-4.72934
0
LINE
8
BLACK
6
CONTINUOUS
10
7.76596
20
-4.72934
11
7.76516
21
-4.7288
0
LINE
8
BLACK
6
CONTINUOUS
10
7.76516
20
-4.7288
11
7.76463
21
-4.728
0
LINE
8
BLACK
6
CONTINUOUS
10
7.76463
20
-4.728
11
7.76444
21
-4.72706
0
LINE
8
BLACK
6
CONTINUOUS
10
7.76444
20
-4.72706
11
7.76444
21
-4.72214
0
LINE
8
BLACK
6
CONTINUOUS
10
7.76444
20
-4.72214
11
7.76463
21
-4.7212
0
LINE
8
BLACK
6
CONTINUOUS
10
7.76463
20
-4.7212
11
7.76516
21
-4.7204
0
LINE
8
BLACK
6
CONTINUOUS
10
7.76516
20
-4.7204
11
7.76596
21
-4.71987
0
LINE
8
BLACK
6
CONTINUOUS
10
7.76596
20
-4.71987
11
7.7669
21
-4.71968
0
LINE
8
BLACK
6
CONTINUOUS
10
7.7669
20
-4.71968
11
7.79643
21
-4.71968
0
LINE
8
BLACK
6
CONTINUOUS
10
7.79643
20
-4.71968
11
7.79737
21
-4.71987
0
LINE
8
BLACK
6
CONTINUOUS
10
8.06804
20
-4.70018
11
8.06884
21
-4.70072
0
LINE
8
BLACK
6
CONTINUOUS
10
8.06884
20
-4.70072
11
8.06937
21
-4.70152
0
LINE
8
BLACK
6
CONTINUOUS
10
8.06937
20
-4.70152
11
8.06956
21
-4.70246
0
LINE
8
BLACK
6
CONTINUOUS
10
8.06956
20
-4.70246
11
8.06956
21
-4.70738
0
LINE
8
BLACK
6
CONTINUOUS
10
8.06956
20
-4.70738
11
8.06937
21
-4.70832
0
LINE
8
BLACK
6
CONTINUOUS
10
8.06937
20
-4.70832
11
8.06884
21
-4.70912
0
LINE
8
BLACK
6
CONTINUOUS
10
8.06884
20
-4.70912
11
8.06804
21
-4.70965
0
LINE
8
BLACK
6
CONTINUOUS
10
8.06804
20
-4.70965
11
8.0671
21
-4.70984
0
LINE
8
BLACK
6
CONTINUOUS
10
8.0671
20
-4.70984
11
8.03757
21
-4.70984
0
LINE
8
BLACK
6
CONTINUOUS
10
8.03757
20
-4.70984
11
8.03663
21
-4.70965
0
LINE
8
BLACK
6
CONTINUOUS
10
8.03663
20
-4.70965
11
8.03583
21
-4.70912
0
LINE
8
BLACK
6
CONTINUOUS
10
8.03583
20
-4.70912
11
8.0353
21
-4.70832
0
LINE
8
BLACK
6
CONTINUOUS
10
8.0353
20
-4.70832
11
8.03511
21
-4.70738
0
LINE
8
BLACK
6
CONTINUOUS
10
8.03511
20
-4.70738
11
8.03511
21
-4.70246
0
LINE
8
BLACK
6
CONTINUOUS
10
8.03511
20
-4.70246
11
8.0353
21
-4.70152
0
LINE
8
BLACK
6
CONTINUOUS
10
8.0353
20
-4.70152
11
8.03583
21
-4.70072
0
LINE
8
BLACK
6
CONTINUOUS
10
8.03583
20
-4.70072
11
8.03663
21
-4.70018
0
LINE
8
BLACK
6
CONTINUOUS
10
8.03663
20
-4.70018
11
8.03757
21
-4.7
0
LINE
8
BLACK
6
CONTINUOUS
10
8.03757
20
-4.7
11
8.0671
21
-4.7
0
LINE
8
BLACK
6
CONTINUOUS
10
8.0671
20
-4.7
11
8.06804
21
-4.70018
0
LINE
8
BLACK
6
CONTINUOUS
10
7.79737
20
-4.70018
11
7.79817
21
-4.70072
0
LINE
8
BLACK
6
CONTINUOUS
10
7.79817
20
-4.70072
11
7.7987
21
-4.70152
0
LINE
8
BLACK
6
CONTINUOUS
10
7.7987
20
-4.70152
11
7.79889
21
-4.70246
0
LINE
8
BLACK
6
CONTINUOUS
10
7.79889
20
-4.70246
11
7.79889
21
-4.70738
0
LINE
8
BLACK
6
CONTINUOUS
10
7.79889
20
-4.70738
11
7.7987
21
-4.70832
0
LINE
8
BLACK
6
CONTINUOUS
10
7.7987
20
-4.70832
11
7.79817
21
-4.70912
0
LINE
8
BLACK
6
CONTINUOUS
10
7.79817
20
-4.70912
11
7.79737
21
-4.70965
0
LINE
8
BLACK
6
CONTINUOUS
10
7.79737
20
-4.70965
11
7.79643
21
-4.70984
0
LINE
8
BLACK
6
CONTINUOUS
10
7.79643
20
-4.70984
11
7.7669
21
-4.70984
0
LINE
8
BLACK
6
CONTINUOUS
10
7.7669
20
-4.70984
11
7.76596
21
-4.70965
0
LINE
8
BLACK
6
CONTINUOUS
10
7.76596
20
-4.70965
11
7.76516
21
-4.70912
0
LINE
8
BLACK
6
CONTINUOUS
10
7.76516
20
-4.70912
11
7.76463
21
-4.70832
0
LINE
8
BLACK
6
CONTINUOUS
10
7.76463
20
-4.70832
11
7.76444
21
-4.70738
0
LINE
8
BLACK
6
CONTINUOUS
10
7.76444
20
-4.70738
11
7.76444
21
-4.70246
0
LINE
8
BLACK
6
CONTINUOUS
10
7.76444
20
-4.70246
11
7.76463
21
-4.70152
0
LINE
8
BLACK
6
CONTINUOUS
10
7.76463
20
-4.70152
11
7.76516
21
-4.70072
0
LINE
8
BLACK
6
CONTINUOUS
10
7.76516
20
-4.70072
11
7.76596
21
-4.70018
0
LINE
8
BLACK
6
CONTINUOUS
10
7.76596
20
-4.70018
11
7.7669
21
-4.7
0
LINE
8
BLACK
6
CONTINUOUS
10
7.7669
20
-4.7
11
7.79643
21
-4.7
0
LINE
8
BLACK
6
CONTINUOUS
10
7.79643
20
-4.7
11
7.79737
21
-4.70018
0
LINE
8
BLACK
6
CONTINUOUS
10
7.2773
20
-4.68359
11
7.25255
21
-4.70834
0
LINE
8
BLACK
6
CONTINUOUS
10
7.25255
20
-4.70834
11
7.21366
21
-4.66945
0
LINE
8
BLACK
6
CONTINUOUS
10
7.21366
20
-4.66945
11
7.23841
21
-4.6447
0
LINE
8
BLACK
6
CONTINUOUS
10
7.23841
20
-4.6447
11
7.2773
21
-4.68359
0
LINE
8
BLACK
6
CONTINUOUS
10
6.6075
20
-4.7075
11
6.5525
21
-4.7075
0
LINE
8
BLACK
6
CONTINUOUS
10
6.5525
20
-4.7075
11
6.5525
21
-4.6725
0
LINE
8
BLACK
6
CONTINUOUS
10
6.5525
20
-4.6725
11
6.6075
21
-4.6725
0
LINE
8
BLACK
6
CONTINUOUS
10
6.6075
20
-4.6725
11
6.6075
21
-4.7075
0
LINE
8
BLACK
6
CONTINUOUS
10
6.5275
20
-4.705
11
6.4725
21
-4.705
0
LINE
8
BLACK
6
CONTINUOUS
10
6.4725
20
-4.705
11
6.4725
21
-4.67
0
LINE
8
BLACK
6
CONTINUOUS
10
6.4725
20
-4.67
11
6.5275
21
-4.67
0
LINE
8
BLACK
6
CONTINUOUS
10
6.5275
20
-4.67
11
6.5275
21
-4.705
0
LINE
8
BLACK
6
CONTINUOUS
10
7.79737
20
-4.6805
11
7.79817
21
-4.68103
0
LINE
8
BLACK
6
CONTINUOUS
10
7.79817
20
-4.68103
11
7.7987
21
-4.68183
0
LINE
8
BLACK
6
CONTINUOUS
10
7.7987
20
-4.68183
11
7.79889
21
-4.68277
0
LINE
8
BLACK
6
CONTINUOUS
10
7.79889
20
-4.68277
11
7.79889
21
-4.68769
0
LINE
8
BLACK
6
CONTINUOUS
10
7.79889
20
-4.68769
11
7.7987
21
-4.68863
0
LINE
8
BLACK
6
CONTINUOUS
10
7.7987
20
-4.68863
11
7.79817
21
-4.68943
0
LINE
8
BLACK
6
CONTINUOUS
10
7.79817
20
-4.68943
11
7.79737
21
-4.68997
0
LINE
8
BLACK
6
CONTINUOUS
10
7.79737
20
-4.68997
11
7.79643
21
-4.69015
0
LINE
8
BLACK
6
CONTINUOUS
10
7.79643
20
-4.69015
11
7.7669
21
-4.69015
0
LINE
8
BLACK
6
CONTINUOUS
10
7.7669
20
-4.69015
11
7.76596
21
-4.68997
0
LINE
8
BLACK
6
CONTINUOUS
10
7.76596
20
-4.68997
11
7.76516
21
-4.68943
0
LINE
8
BLACK
6
CONTINUOUS
10
7.76516
20
-4.68943
11
7.76463
21
-4.68863
0
LINE
8
BLACK
6
CONTINUOUS
10
7.76463
20
-4.68863
11
7.76444
21
-4.68769
0
LINE
8
BLACK
6
CONTINUOUS
10
7.76444
20
-4.68769
11
7.76444
21
-4.68277
0
LINE
8
BLACK
6
CONTINUOUS
10
7.76444
20
-4.68277
11
7.76463
21
-4.68183
0
LINE
8
BLACK
6
CONTINUOUS
10
7.76463
20
-4.68183
11
7.76516
21
-4.68103
0
LINE
8
BLACK
6
CONTINUOUS
10
7.76516
20
-4.68103
11
7.76596
21
-4.6805
0
LINE
8
BLACK
6
CONTINUOUS
10
7.76596
20
-4.6805
11
7.7669
21
-4.68031
0
LINE
8
BLACK
6
CONTINUOUS
10
7.7669
20
-4.68031
11
7.79643
21
-4.68031
0
LINE
8
BLACK
6
CONTINUOUS
10
7.79643
20
-4.68031
11
7.79737
21
-4.6805
0
LINE
8
BLACK
6
CONTINUOUS
10
8.06804
20
-4.6805
11
8.06884
21
-4.68103
0
LINE
8
BLACK
6
CONTINUOUS
10
8.06884
20
-4.68103
11
8.06937
21
-4.68183
0
LINE
8
BLACK
6
CONTINUOUS
10
8.06937
20
-4.68183
11
8.06956
21
-4.68277
0
LINE
8
BLACK
6
CONTINUOUS
10
8.06956
20
-4.68277
11
8.06956
21
-4.68769
0
LINE
8
BLACK
6
CONTINUOUS
10
8.06956
20
-4.68769
11
8.06937
21
-4.68863
0
LINE
8
BLACK
6
CONTINUOUS
10
8.06937
20
-4.68863
11
8.06884
21
-4.68943
0
LINE
8
BLACK
6
CONTINUOUS
10
8.06884
20
-4.68943
11
8.06804
21
-4.68997
0
LINE
8
BLACK
6
CONTINUOUS
10
8.06804
20
-4.68997
11
8.0671
21
-4.69015
0
LINE
8
BLACK
6
CONTINUOUS
10
8.0671
20
-4.69015
11
8.03757
21
-4.69015
0
LINE
8
BLACK
6
CONTINUOUS
10
8.03757
20
-4.69015
11
8.03663
21
-4.68997
0
LINE
8
BLACK
6
CONTINUOUS
10
8.03663
20
-4.68997
11
8.03583
21
-4.68943
0
LINE
8
BLACK
6
CONTINUOUS
10
8.03583
20
-4.68943
11
8.0353
21
-4.68863
0
LINE
8
BLACK
6
CONTINUOUS
10
8.0353
20
-4.68863
11
8.03511
21
-4.68769
0
LINE
8
BLACK
6
CONTINUOUS
10
8.03511
20
-4.68769
11
8.03511
21
-4.68277
0
LINE
8
BLACK
6
CONTINUOUS
10
8.03511
20
-4.68277
11
8.0353
21
-4.68183
0
LINE
8
BLACK
6
CONTINUOUS
10
8.0353
20
-4.68183
11
8.03583
21
-4.68103
0
LINE
8
BLACK
6
CONTINUOUS
10
8.03583
20
-4.68103
11
8.03663
21
-4.6805
0
LINE
8
BLACK
6
CONTINUOUS
10
8.03663
20
-4.6805
11
8.03757
21
-4.68031
0
LINE
8
BLACK
6
CONTINUOUS
10
8.03757
20
-4.68031
11
8.0671
21
-4.68031
0
LINE
8
BLACK
6
CONTINUOUS
10
8.0671
20
-4.68031
11
8.06804
21
-4.6805
0
LINE
8
BLACK
6
CONTINUOUS
10
7.8515
20
-4.64113
11
7.8523
21
-4.64166
0
LINE
8
BLACK
6
CONTINUOUS
10
7.8523
20
-4.64166
11
7.85284
21
-4.64246
0
LINE
8
BLACK
6
CONTINUOUS
10
7.85284
20
-4.64246
11
7.85302
21
-4.6434
0
LINE
8
BLACK
6
CONTINUOUS
10
7.85302
20
-4.6434
11
7.85302
21
-4.67293
0
LINE
8
BLACK
6
CONTINUOUS
10
7.85302
20
-4.67293
11
7.85284
21
-4.67387
0
LINE
8
BLACK
6
CONTINUOUS
10
7.85284
20
-4.67387
11
7.8523
21
-4.67467
0
LINE
8
BLACK
6
CONTINUOUS
10
7.8523
20
-4.67467
11
7.8515
21
-4.6752
0
LINE
8
BLACK
6
CONTINUOUS
10
7.8515
20
-4.6752
11
7.85056
21
-4.67539
0
LINE
8
BLACK
6
CONTINUOUS
10
7.85056
20
-4.67539
11
7.84564
21
-4.67539
0
LINE
8
BLACK
6
CONTINUOUS
10
7.84564
20
-4.67539
11
7.8447
21
-4.6752
0
LINE
8
BLACK
6
CONTINUOUS
10
7.8447
20
-4.6752
11
7.8439
21
-4.67467
0
LINE
8
BLACK
6
CONTINUOUS
10
7.8439
20
-4.67467
11
7.84337
21
-4.67387
0
LINE
8
BLACK
6
CONTINUOUS
10
7.84337
20
-4.67387
11
7.84318
21
-4.67293
0
LINE
8
BLACK
6
CONTINUOUS
10
7.84318
20
-4.67293
11
7.84318
21
-4.6434
0
LINE
8
BLACK
6
CONTINUOUS
10
7.84318
20
-4.6434
11
7.84337
21
-4.64246
0
LINE
8
BLACK
6
CONTINUOUS
10
7.84337
20
-4.64246
11
7.8439
21
-4.64166
0
LINE
8
BLACK
6
CONTINUOUS
10
7.8439
20
-4.64166
11
7.8447
21
-4.64113
0
LINE
8
BLACK
6
CONTINUOUS
10
7.8447
20
-4.64113
11
7.84564
21
-4.64094
0
LINE
8
BLACK
6
CONTINUOUS
10
7.84564
20
-4.64094
11
7.85056
21
-4.64094
0
LINE
8
BLACK
6
CONTINUOUS
10
7.85056
20
-4.64094
11
7.8515
21
-4.64113
0
LINE
8
BLACK
6
CONTINUOUS
10
7.81213
20
-4.64113
11
7.81293
21
-4.64166
0
LINE
8
BLACK
6
CONTINUOUS
10
7.81293
20
-4.64166
11
7.81347
21
-4.64246
0
LINE
8
BLACK
6
CONTINUOUS
10
7.81347
20
-4.64246
11
7.81365
21
-4.6434
0
LINE
8
BLACK
6
CONTINUOUS
10
7.81365
20
-4.6434
11
7.81365
21
-4.67293
0
LINE
8
BLACK
6
CONTINUOUS
10
7.81365
20
-4.67293
11
7.81347
21
-4.67387
0
LINE
8
BLACK
6
CONTINUOUS
10
7.81347
20
-4.67387
11
7.81293
21
-4.67467
0
LINE
8
BLACK
6
CONTINUOUS
10
7.81293
20
-4.67467
11
7.81213
21
-4.6752
0
LINE
8
BLACK
6
CONTINUOUS
10
7.81213
20
-4.6752
11
7.81119
21
-4.67539
0
LINE
8
BLACK
6
CONTINUOUS
10
7.81119
20
-4.67539
11
7.80627
21
-4.67539
0
LINE
8
BLACK
6
CONTINUOUS
10
7.80627
20
-4.67539
11
7.80533
21
-4.6752
0
LINE
8
BLACK
6
CONTINUOUS
10
7.80533
20
-4.6752
11
7.80453
21
-4.67467
0
LINE
8
BLACK
6
CONTINUOUS
10
7.80453
20
-4.67467
11
7.804
21
-4.67387
0
LINE
8
BLACK
6
CONTINUOUS
10
7.804
20
-4.67387
11
7.80381
21
-4.67293
0
LINE
8
BLACK
6
CONTINUOUS
10
7.80381
20
-4.67293
11
7.80381
21
-4.6434
0
LINE
8
BLACK
6
CONTINUOUS
10
7.80381
20
-4.6434
11
7.804
21
-4.64246
0
LINE
8
BLACK
6
CONTINUOUS
10
7.804
20
-4.64246
11
7.80453
21
-4.64166
0
LINE
8
BLACK
6
CONTINUOUS
10
7.80453
20
-4.64166
11
7.80533
21
-4.64113
0
LINE
8
BLACK
6
CONTINUOUS
10
7.80533
20
-4.64113
11
7.80627
21
-4.64094
0
LINE
8
BLACK
6
CONTINUOUS
10
7.80627
20
-4.64094
11
7.81119
21
-4.64094
0
LINE
8
BLACK
6
CONTINUOUS
10
7.81119
20
-4.64094
11
7.81213
21
-4.64113
0
LINE
8
BLACK
6
CONTINUOUS
10
7.83182
20
-4.64113
11
7.83262
21
-4.64166
0
LINE
8
BLACK
6
CONTINUOUS
10
7.83262
20
-4.64166
11
7.83315
21
-4.64246
0
LINE
8
BLACK
6
CONTINUOUS
10
7.83315
20
-4.64246
11
7.83334
21
-4.6434
0
LINE
8
BLACK
6
CONTINUOUS
10
7.83334
20
-4.6434
11
7.83334
21
-4.67293
0
LINE
8
BLACK
6
CONTINUOUS
10
7.83334
20
-4.67293
11
7.83315
21
-4.67387
0
LINE
8
BLACK
6
CONTINUOUS
10
7.83315
20
-4.67387
11
7.83262
21
-4.67467
0
LINE
8
BLACK
6
CONTINUOUS
10
7.83262
20
-4.67467
11
7.83182
21
-4.6752
0
LINE
8
BLACK
6
CONTINUOUS
10
7.83182
20
-4.6752
11
7.83088
21
-4.67539
0
LINE
8
BLACK
6
CONTINUOUS
10
7.83088
20
-4.67539
11
7.82596
21
-4.67539
0
LINE
8
BLACK
6
CONTINUOUS
10
7.82596
20
-4.67539
11
7.82502
21
-4.6752
0
LINE
8
BLACK
6
CONTINUOUS
10
7.82502
20
-4.6752
11
7.82422
21
-4.67467
0
LINE
8
BLACK
6
CONTINUOUS
10
7.82422
20
-4.67467
11
7.82368
21
-4.67387
0
LINE
8
BLACK
6
CONTINUOUS
10
7.82368
20
-4.67387
11
7.8235
21
-4.67293
0
LINE
8
BLACK
6
CONTINUOUS
10
7.8235
20
-4.67293
11
7.8235
21
-4.6434
0
LINE
8
BLACK
6
CONTINUOUS
10
7.8235
20
-4.6434
11
7.82368
21
-4.64246
0
LINE
8
BLACK
6
CONTINUOUS
10
7.82368
20
-4.64246
11
7.82422
21
-4.64166
0
LINE
8
BLACK
6
CONTINUOUS
10
7.82422
20
-4.64166
11
7.82502
21
-4.64113
0
LINE
8
BLACK
6
CONTINUOUS
10
7.82502
20
-4.64113
11
7.82596
21
-4.64094
0
LINE
8
BLACK
6
CONTINUOUS
10
7.82596
20
-4.64094
11
7.83088
21
-4.64094
0
LINE
8
BLACK
6
CONTINUOUS
10
7.83088
20
-4.64094
11
7.83182
21
-4.64113
0
LINE
8
BLACK
6
CONTINUOUS
10
7.87119
20
-4.64113
11
7.87199
21
-4.64166
0
LINE
8
BLACK
6
CONTINUOUS
10
7.87199
20
-4.64166
11
7.87252
21
-4.64246
0
LINE
8
BLACK
6
CONTINUOUS
10
7.87252
20
-4.64246
11
7.87271
21
-4.6434
0
LINE
8
BLACK
6
CONTINUOUS
10
7.87271
20
-4.6434
11
7.87271
21
-4.67293
0
LINE
8
BLACK
6
CONTINUOUS
10
7.87271
20
-4.67293
11
7.87252
21
-4.67387
0
LINE
8
BLACK
6
CONTINUOUS
10
7.87252
20
-4.67387
11
7.87199
21
-4.67467
0
LINE
8
BLACK
6
CONTINUOUS
10
7.87199
20
-4.67467
11
7.87119
21
-4.6752
0
LINE
8
BLACK
6
CONTINUOUS
10
7.87119
20
-4.6752
11
7.87025
21
-4.67539
0
LINE
8
BLACK
6
CONTINUOUS
10
7.87025
20
-4.67539
11
7.86533
21
-4.67539
0
LINE
8
BLACK
6
CONTINUOUS
10
7.86533
20
-4.67539
11
7.86439
21
-4.6752
0
LINE
8
BLACK
6
CONTINUOUS
10
7.86439
20
-4.6752
11
7.86359
21
-4.67467
0
LINE
8
BLACK
6
CONTINUOUS
10
7.86359
20
-4.67467
11
7.86305
21
-4.67387
0
LINE
8
BLACK
6
CONTINUOUS
10
7.86305
20
-4.67387
11
7.86287
21
-4.67293
0
LINE
8
BLACK
6
CONTINUOUS
10
7.86287
20
-4.67293
11
7.86287
21
-4.6434
0
LINE
8
BLACK
6
CONTINUOUS
10
7.86287
20
-4.6434
11
7.86305
21
-4.64246
0
LINE
8
BLACK
6
CONTINUOUS
10
7.86305
20
-4.64246
11
7.86359
21
-4.64166
0
LINE
8
BLACK
6
CONTINUOUS
10
7.86359
20
-4.64166
11
7.86439
21
-4.64113
0
LINE
8
BLACK
6
CONTINUOUS
10
7.86439
20
-4.64113
11
7.86533
21
-4.64094
0
LINE
8
BLACK
6
CONTINUOUS
10
7.86533
20
-4.64094
11
7.87025
21
-4.64094
0
LINE
8
BLACK
6
CONTINUOUS
10
7.87025
20
-4.64094
11
7.87119
21
-4.64113
0
LINE
8
BLACK
6
CONTINUOUS
10
7.89087
20
-4.64113
11
7.89167
21
-4.64166
0
LINE
8
BLACK
6
CONTINUOUS
10
7.89167
20
-4.64166
11
7.89221
21
-4.64246
0
LINE
8
BLACK
6
CONTINUOUS
10
7.89221
20
-4.64246
11
7.89239
21
-4.6434
0
LINE
8
BLACK
6
CONTINUOUS
10
7.89239
20
-4.6434
11
7.89239
21
-4.67293
0
LINE
8
BLACK
6
CONTINUOUS
10
7.89239
20
-4.67293
11
7.89221
21
-4.67387
0
LINE
8
BLACK
6
CONTINUOUS
10
7.89221
20
-4.67387
11
7.89167
21
-4.67467
0
LINE
8
BLACK
6
CONTINUOUS
10
7.89167
20
-4.67467
11
7.89087
21
-4.6752
0
LINE
8
BLACK
6
CONTINUOUS
10
7.89087
20
-4.6752
11
7.88993
21
-4.67539
0
LINE
8
BLACK
6
CONTINUOUS
10
7.88993
20
-4.67539
11
7.88501
21
-4.67539
0
LINE
8
BLACK
6
CONTINUOUS
10
7.88501
20
-4.67539
11
7.88407
21
-4.6752
0
LINE
8
BLACK
6
CONTINUOUS
10
7.88407
20
-4.6752
11
7.88327
21
-4.67467
0
LINE
8
BLACK
6
CONTINUOUS
10
7.88327
20
-4.67467
11
7.88274
21
-4.67387
0
LINE
8
BLACK
6
CONTINUOUS
10
7.88274
20
-4.67387
11
7.88255
21
-4.67293
0
LINE
8
BLACK
6
CONTINUOUS
10
7.88255
20
-4.67293
11
7.88255
21
-4.6434
0
LINE
8
BLACK
6
CONTINUOUS
10
7.88255
20
-4.6434
11
7.88274
21
-4.64246
0
LINE
8
BLACK
6
CONTINUOUS
10
7.88274
20
-4.64246
11
7.88327
21
-4.64166
0
LINE
8
BLACK
6
CONTINUOUS
10
7.88327
20
-4.64166
11
7.88407
21
-4.64113
0
LINE
8
BLACK
6
CONTINUOUS
10
7.88407
20
-4.64113
11
7.88501
21
-4.64094
0
LINE
8
BLACK
6
CONTINUOUS
10
7.88501
20
-4.64094
11
7.88993
21
-4.64094
0
LINE
8
BLACK
6
CONTINUOUS
10
7.88993
20
-4.64094
11
7.89087
21
-4.64113
0
LINE
8
BLACK
6
CONTINUOUS
10
7.91056
20
-4.64113
11
7.91136
21
-4.64166
0
LINE
8
BLACK
6
CONTINUOUS
10
7.91136
20
-4.64166
11
7.91189
21
-4.64246
0
LINE
8
BLACK
6
CONTINUOUS
10
7.91189
20
-4.64246
11
7.91208
21
-4.6434
0
LINE
8
BLACK
6
CONTINUOUS
10
7.91208
20
-4.6434
11
7.91208
21
-4.67293
0
LINE
8
BLACK
6
CONTINUOUS
10
7.91208
20
-4.67293
11
7.91189
21
-4.67387
0
LINE
8
BLACK
6
CONTINUOUS
10
7.91189
20
-4.67387
11
7.91136
21
-4.67467
0
LINE
8
BLACK
6
CONTINUOUS
10
7.91136
20
-4.67467
11
7.91056
21
-4.6752
0
LINE
8
BLACK
6
CONTINUOUS
10
7.91056
20
-4.6752
11
7.90962
21
-4.67539
0
LINE
8
BLACK
6
CONTINUOUS
10
7.90962
20
-4.67539
11
7.9047
21
-4.67539
0
LINE
8
BLACK
6
CONTINUOUS
10
7.9047
20
-4.67539
11
7.90376
21
-4.6752
0
LINE
8
BLACK
6
CONTINUOUS
10
7.90376
20
-4.6752
11
7.90296
21
-4.67467
0
LINE
8
BLACK
6
CONTINUOUS
10
7.90296
20
-4.67467
11
7.90242
21
-4.67387
0
LINE
8
BLACK
6
CONTINUOUS
10
7.90242
20
-4.67387
11
7.90224
21
-4.67293
0
LINE
8
BLACK
6
CONTINUOUS
10
7.90224
20
-4.67293
11
7.90224
21
-4.6434
0
LINE
8
BLACK
6
CONTINUOUS
10
7.90224
20
-4.6434
11
7.90242
21
-4.64246
0
LINE
8
BLACK
6
CONTINUOUS
10
7.90242
20
-4.64246
11
7.90296
21
-4.64166
0
LINE
8
BLACK
6
CONTINUOUS
10
7.90296
20
-4.64166
11
7.90376
21
-4.64113
0
LINE
8
BLACK
6
CONTINUOUS
10
7.90376
20
-4.64113
11
7.9047
21
-4.64094
0
LINE
8
BLACK
6
CONTINUOUS
10
7.9047
20
-4.64094
11
7.90962
21
-4.64094
0
LINE
8
BLACK
6
CONTINUOUS
10
7.90962
20
-4.64094
11
7.91056
21
-4.64113
0
LINE
8
BLACK
6
CONTINUOUS
10
7.93024
20
-4.64113
11
7.93104
21
-4.64166
0
LINE
8
BLACK
6
CONTINUOUS
10
7.93104
20
-4.64166
11
7.93158
21
-4.64246
0
LINE
8
BLACK
6
CONTINUOUS
10
7.93158
20
-4.64246
11
7.93176
21
-4.6434
0
LINE
8
BLACK
6
CONTINUOUS
10
7.93176
20
-4.6434
11
7.93176
21
-4.67293
0
LINE
8
BLACK
6
CONTINUOUS
10
7.93176
20
-4.67293
11
7.93158
21
-4.67387
0
LINE
8
BLACK
6
CONTINUOUS
10
7.93158
20
-4.67387
11
7.93104
21
-4.67467
0
LINE
8
BLACK
6
CONTINUOUS
10
7.93104
20
-4.67467
11
7.93024
21
-4.6752
0
LINE
8
BLACK
6
CONTINUOUS
10
7.93024
20
-4.6752
11
7.9293
21
-4.67539
0
LINE
8
BLACK
6
CONTINUOUS
10
7.9293
20
-4.67539
11
7.92438
21
-4.67539
0
LINE
8
BLACK
6
CONTINUOUS
10
7.92438
20
-4.67539
11
7.92344
21
-4.6752
0
LINE
8
BLACK
6
CONTINUOUS
10
7.92344
20
-4.6752
11
7.92264
21
-4.67467
0
LINE
8
BLACK
6
CONTINUOUS
10
7.92264
20
-4.67467
11
7.92211
21
-4.67387
0
LINE
8
BLACK
6
CONTINUOUS
10
7.92211
20
-4.67387
11
7.92192
21
-4.67293
0
LINE
8
BLACK
6
CONTINUOUS
10
7.92192
20
-4.67293
11
7.92192
21
-4.6434
0
LINE
8
BLACK
6
CONTINUOUS
10
7.92192
20
-4.6434
11
7.92211
21
-4.64246
0
LINE
8
BLACK
6
CONTINUOUS
10
7.92211
20
-4.64246
11
7.92264
21
-4.64166
0
LINE
8
BLACK
6
CONTINUOUS
10
7.92264
20
-4.64166
11
7.92344
21
-4.64113
0
LINE
8
BLACK
6
CONTINUOUS
10
7.92344
20
-4.64113
11
7.92438
21
-4.64094
0
LINE
8
BLACK
6
CONTINUOUS
10
7.92438
20
-4.64094
11
7.9293
21
-4.64094
0
LINE
8
BLACK
6
CONTINUOUS
10
7.9293
20
-4.64094
11
7.93024
21
-4.64113
0
LINE
8
BLACK
6
CONTINUOUS
10
7.94993
20
-4.64113
11
7.95073
21
-4.64166
0
LINE
8
BLACK
6
CONTINUOUS
10
7.95073
20
-4.64166
11
7.95126
21
-4.64246
0
LINE
8
BLACK
6
CONTINUOUS
10
7.95126
20
-4.64246
11
7.95145
21
-4.6434
0
LINE
8
BLACK
6
CONTINUOUS
10
7.95145
20
-4.6434
11
7.95145
21
-4.67293
0
LINE
8
BLACK
6
CONTINUOUS
10
7.95145
20
-4.67293
11
7.95126
21
-4.67387
0
LINE
8
BLACK
6
CONTINUOUS
10
7.95126
20
-4.67387
11
7.95073
21
-4.67467
0
LINE
8
BLACK
6
CONTINUOUS
10
7.95073
20
-4.67467
11
7.94993
21
-4.6752
0
LINE
8
BLACK
6
CONTINUOUS
10
7.94993
20
-4.6752
11
7.94899
21
-4.67539
0
LINE
8
BLACK
6
CONTINUOUS
10
7.94899
20
-4.67539
11
7.94407
21
-4.67539
0
LINE
8
BLACK
6
CONTINUOUS
10
7.94407
20
-4.67539
11
7.94313
21
-4.6752
0
LINE
8
BLACK
6
CONTINUOUS
10
7.94313
20
-4.6752
11
7.94233
21
-4.67467
0
LINE
8
BLACK
6
CONTINUOUS
10
7.94233
20
-4.67467
11
7.94179
21
-4.67387
0
LINE
8
BLACK
6
CONTINUOUS
10
7.94179
20
-4.67387
11
7.94161
21
-4.67293
0
LINE
8
BLACK
6
CONTINUOUS
10
7.94161
20
-4.67293
11
7.94161
21
-4.6434
0
LINE
8
BLACK
6
CONTINUOUS
10
7.94161
20
-4.6434
11
7.94179
21
-4.64246
0
LINE
8
BLACK
6
CONTINUOUS
10
7.94179
20
-4.64246
11
7.94233
21
-4.64166
0
LINE
8
BLACK
6
CONTINUOUS
10
7.94233
20
-4.64166
11
7.94313
21
-4.64113
0
LINE
8
BLACK
6
CONTINUOUS
10
7.94313
20
-4.64113
11
7.94407
21
-4.64094
0
LINE
8
BLACK
6
CONTINUOUS
10
7.94407
20
-4.64094
11
7.94899
21
-4.64094
0
LINE
8
BLACK
6
CONTINUOUS
10
7.94899
20
-4.64094
11
7.94993
21
-4.64113
0
LINE
8
BLACK
6
CONTINUOUS
10
7.96961
20
-4.64113
11
7.97041
21
-4.64166
0
LINE
8
BLACK
6
CONTINUOUS
10
7.97041
20
-4.64166
11
7.97095
21
-4.64246
0
LINE
8
BLACK
6
CONTINUOUS
10
7.97095
20
-4.64246
11
7.97113
21
-4.6434
0
LINE
8
BLACK
6
CONTINUOUS
10
7.97113
20
-4.6434
11
7.97113
21
-4.67293
0
LINE
8
BLACK
6
CONTINUOUS
10
7.97113
20
-4.67293
11
7.97095
21
-4.67387
0
LINE
8
BLACK
6
CONTINUOUS
10
7.97095
20
-4.67387
11
7.97041
21
-4.67467
0
LINE
8
BLACK
6
CONTINUOUS
10
7.97041
20
-4.67467
11
7.96961
21
-4.6752
0
LINE
8
BLACK
6
CONTINUOUS
10
7.96961
20
-4.6752
11
7.96867
21
-4.67539
0
LINE
8
BLACK
6
CONTINUOUS
10
7.96867
20
-4.67539
11
7.96375
21
-4.67539
0
LINE
8
BLACK
6
CONTINUOUS
10
7.96375
20
-4.67539
11
7.96281
21
-4.6752
0
LINE
8
BLACK
6
CONTINUOUS
10
7.96281
20
-4.6752
11
7.96201
21
-4.67467
0
LINE
8
BLACK
6
CONTINUOUS
10
7.96201
20
-4.67467
11
7.96148
21
-4.67387
0
LINE
8
BLACK
6
CONTINUOUS
10
7.96148
20
-4.67387
11
7.96129
21
-4.67293
0
LINE
8
BLACK
6
CONTINUOUS
10
7.96129
20
-4.67293
11
7.96129
21
-4.6434
0
LINE
8
BLACK
6
CONTINUOUS
10
7.96129
20
-4.6434
11
7.96148
21
-4.64246
0
LINE
8
BLACK
6
CONTINUOUS
10
7.96148
20
-4.64246
11
7.96201
21
-4.64166
0
LINE
8
BLACK
6
CONTINUOUS
10
7.96201
20
-4.64166
11
7.96281
21
-4.64113
0
LINE
8
BLACK
6
CONTINUOUS
10
7.96281
20
-4.64113
11
7.96375
21
-4.64094
0
LINE
8
BLACK
6
CONTINUOUS
10
7.96375
20
-4.64094
11
7.96867
21
-4.64094
0
LINE
8
BLACK
6
CONTINUOUS
10
7.96867
20
-4.64094
11
7.96961
21
-4.64113
0
LINE
8
BLACK
6
CONTINUOUS
10
7.9893
20
-4.64113
11
7.9901
21
-4.64166
0
LINE
8
BLACK
6
CONTINUOUS
10
7.9901
20
-4.64166
11
7.99063
21
-4.64246
0
LINE
8
BLACK
6
CONTINUOUS
10
7.99063
20
-4.64246
11
7.99082
21
-4.6434
0
LINE
8
BLACK
6
CONTINUOUS
10
7.99082
20
-4.6434
11
7.99082
21
-4.67293
0
LINE
8
BLACK
6
CONTINUOUS
10
7.99082
20
-4.67293
11
7.99063
21
-4.67387
0
LINE
8
BLACK
6
CONTINUOUS
10
7.99063
20
-4.67387
11
7.9901
21
-4.67467
0
LINE
8
BLACK
6
CONTINUOUS
10
7.9901
20
-4.67467
11
7.9893
21
-4.6752
0
LINE
8
BLACK
6
CONTINUOUS
10
7.9893
20
-4.6752
11
7.98836
21
-4.67539
0
LINE
8
BLACK
6
CONTINUOUS
10
7.98836
20
-4.67539
11
7.98344
21
-4.67539
0
LINE
8
BLACK
6
CONTINUOUS
10
7.98344
20
-4.67539
11
7.9825
21
-4.6752
0
LINE
8
BLACK
6
CONTINUOUS
10
7.9825
20
-4.6752
11
7.9817
21
-4.67467
0
LINE
8
BLACK
6
CONTINUOUS
10
7.9817
20
-4.67467
11
7.98116
21
-4.67387
0
LINE
8
BLACK
6
CONTINUOUS
10
7.98116
20
-4.67387
11
7.98098
21
-4.67293
0
LINE
8
BLACK
6
CONTINUOUS
10
7.98098
20
-4.67293
11
7.98098
21
-4.6434
0
LINE
8
BLACK
6
CONTINUOUS
10
7.98098
20
-4.6434
11
7.98116
21
-4.64246
0
LINE
8
BLACK
6
CONTINUOUS
10
7.98116
20
-4.64246
11
7.9817
21
-4.64166
0
LINE
8
BLACK
6
CONTINUOUS
10
7.9817
20
-4.64166
11
7.9825
21
-4.64113
0
LINE
8
BLACK
6
CONTINUOUS
10
7.9825
20
-4.64113
11
7.98344
21
-4.64094
0
LINE
8
BLACK
6
CONTINUOUS
10
7.98344
20
-4.64094
11
7.98836
21
-4.64094
0
LINE
8
BLACK
6
CONTINUOUS
10
7.98836
20
-4.64094
11
7.9893
21
-4.64113
0
LINE
8
BLACK
6
CONTINUOUS
10
8.00898
20
-4.64113
11
8.00978
21
-4.64166
0
LINE
8
BLACK
6
CONTINUOUS
10
8.00978
20
-4.64166
11
8.01032
21
-4.64246
0
LINE
8
BLACK
6
CONTINUOUS
10
8.01032
20
-4.64246
11
8.0105
21
-4.6434
0
LINE
8
BLACK
6
CONTINUOUS
10
8.0105
20
-4.6434
11
8.0105
21
-4.67293
0
LINE
8
BLACK
6
CONTINUOUS
10
8.0105
20
-4.67293
11
8.01032
21
-4.67387
0
LINE
8
BLACK
6
CONTINUOUS
10
8.01032
20
-4.67387
11
8.00978
21
-4.67467
0
LINE
8
BLACK
6
CONTINUOUS
10
8.00978
20
-4.67467
11
8.00898
21
-4.6752
0
LINE
8
BLACK
6
CONTINUOUS
10
8.00898
20
-4.6752
11
8.00804
21
-4.67539
0
LINE
8
BLACK
6
CONTINUOUS
10
8.00804
20
-4.67539
11
8.00312
21
-4.67539
0
LINE
8
BLACK
6
CONTINUOUS
10
8.00312
20
-4.67539
11
8.00218
21
-4.6752
0
LINE
8
BLACK
6
CONTINUOUS
10
8.00218
20
-4.6752
11
8.00138
21
-4.67467
0
LINE
8
BLACK
6
CONTINUOUS
10
8.00138
20
-4.67467
11
8.00085
21
-4.67387
0
LINE
8
BLACK
6
CONTINUOUS
10
8.00085
20
-4.67387
11
8.00066
21
-4.67293
0
LINE
8
BLACK
6
CONTINUOUS
10
8.00066
20
-4.67293
11
8.00066
21
-4.6434
0
LINE
8
BLACK
6
CONTINUOUS
10
8.00066
20
-4.6434
11
8.00085
21
-4.64246
0
LINE
8
BLACK
6
CONTINUOUS
10
8.00085
20
-4.64246
11
8.00138
21
-4.64166
0
LINE
8
BLACK
6
CONTINUOUS
10
8.00138
20
-4.64166
11
8.00218
21
-4.64113
0
LINE
8
BLACK
6
CONTINUOUS
10
8.00218
20
-4.64113
11
8.00312
21
-4.64094
0
LINE
8
BLACK
6
CONTINUOUS
10
8.00312
20
-4.64094
11
8.00804
21
-4.64094
0
LINE
8
BLACK
6
CONTINUOUS
10
8.00804
20
-4.64094
11
8.00898
21
-4.64113
0
LINE
8
BLACK
6
CONTINUOUS
10
8.02867
20
-4.64113
11
8.02947
21
-4.64166
0
LINE
8
BLACK
6
CONTINUOUS
10
8.02947
20
-4.64166
11
8.03
21
-4.64246
0
LINE
8
BLACK
6
CONTINUOUS
10
8.03
20
-4.64246
11
8.03019
21
-4.6434
0
LINE
8
BLACK
6
CONTINUOUS
10
8.03019
20
-4.6434
11
8.03019
21
-4.67293
0
LINE
8
BLACK
6
CONTINUOUS
10
8.03019
20
-4.67293
11
8.03
21
-4.67387
0
LINE
8
BLACK
6
CONTINUOUS
10
8.03
20
-4.67387
11
8.02947
21
-4.67467
0
LINE
8
BLACK
6
CONTINUOUS
10
8.02947
20
-4.67467
11
8.02867
21
-4.6752
0
LINE
8
BLACK
6
CONTINUOUS
10
8.02867
20
-4.6752
11
8.02773
21
-4.67539
0
LINE
8
BLACK
6
CONTINUOUS
10
8.02773
20
-4.67539
11
8.02281
21
-4.67539
0
LINE
8
BLACK
6
CONTINUOUS
10
8.02281
20
-4.67539
11
8.02187
21
-4.6752
0
LINE
8
BLACK
6
CONTINUOUS
10
8.02187
20
-4.6752
11
8.02107
21
-4.67467
0
LINE
8
BLACK
6
CONTINUOUS
10
8.02107
20
-4.67467
11
8.02053
21
-4.67387
0
LINE
8
BLACK
6
CONTINUOUS
10
8.02053
20
-4.67387
11
8.02035
21
-4.67293
0
LINE
8
BLACK
6
CONTINUOUS
10
8.02035
20
-4.67293
11
8.02035
21
-4.6434
0
LINE
8
BLACK
6
CONTINUOUS
10
8.02035
20
-4.6434
11
8.02053
21
-4.64246
0
LINE
8
BLACK
6
CONTINUOUS
10
8.02053
20
-4.64246
11
8.02107
21
-4.64166
0
LINE
8
BLACK
6
CONTINUOUS
10
8.02107
20
-4.64166
11
8.02187
21
-4.64113
0
LINE
8
BLACK
6
CONTINUOUS
10
8.02187
20
-4.64113
11
8.02281
21
-4.64094
0
LINE
8
BLACK
6
CONTINUOUS
10
8.02281
20
-4.64094
11
8.02773
21
-4.64094
0
LINE
8
BLACK
6
CONTINUOUS
10
8.02773
20
-4.64094
11
8.02867
21
-4.64113
0
LINE
8
BLACK
6
CONTINUOUS
10
7.33034
20
-4.63055
11
7.30559
21
-4.6553
0
LINE
8
BLACK
6
CONTINUOUS
10
7.30559
20
-4.6553
11
7.2667
21
-4.61641
0
LINE
8
BLACK
6
CONTINUOUS
10
7.2667
20
-4.61641
11
7.29145
21
-4.59166
0
LINE
8
BLACK
6
CONTINUOUS
10
7.29145
20
-4.59166
11
7.33034
21
-4.63055
0
LINE
8
BLACK
6
CONTINUOUS
10
6.67728
20
-4.64717
11
6.66154
21
-4.64717
0
LINE
8
BLACK
6
CONTINUOUS
10
6.66154
20
-4.64717
11
6.66154
21
-4.58811
0
LINE
8
BLACK
6
CONTINUOUS
10
6.66154
20
-4.58811
11
6.67728
21
-4.58811
0
LINE
8
BLACK
6
CONTINUOUS
10
6.67728
20
-4.58811
11
6.67728
21
-4.64717
0
LINE
8
BLACK
6
CONTINUOUS
10
6.72846
20
-4.64717
11
6.71272
21
-4.64717
0
LINE
8
BLACK
6
CONTINUOUS
10
6.71272
20
-4.64717
11
6.71272
21
-4.58811
0
LINE
8
BLACK
6
CONTINUOUS
10
6.71272
20
-4.58811
11
6.72846
21
-4.58811
0
LINE
8
BLACK
6
CONTINUOUS
10
6.72846
20
-4.58811
11
6.72846
21
-4.64717
0
LINE
8
BLACK
6
CONTINUOUS
10
6.70287
20
-4.64717
11
6.68713
21
-4.64717
0
LINE
8
BLACK
6
CONTINUOUS
10
6.68713
20
-4.64717
11
6.68713
21
-4.58811
0
LINE
8
BLACK
6
CONTINUOUS
10
6.68713
20
-4.58811
11
6.70287
21
-4.58811
0
LINE
8
BLACK
6
CONTINUOUS
10
6.70287
20
-4.58811
11
6.70287
21
-4.64717
0
LINE
8
BLACK
6
CONTINUOUS
10
6.6075
20
-4.6325
11
6.5525
21
-4.6325
0
LINE
8
BLACK
6
CONTINUOUS
10
6.5525
20
-4.6325
11
6.5525
21
-4.5975
0
LINE
8
BLACK
6
CONTINUOUS
10
6.5525
20
-4.5975
11
6.6075
21
-4.5975
0
LINE
8
BLACK
6
CONTINUOUS
10
6.6075
20
-4.5975
11
6.6075
21
-4.6325
0
LINE
8
BLACK
6
CONTINUOUS
10
6.5275
20
-4.63
11
6.4725
21
-4.63
0
LINE
8
BLACK
6
CONTINUOUS
10
6.4725
20
-4.63
11
6.4725
21
-4.595
0
LINE
8
BLACK
6
CONTINUOUS
10
6.4725
20
-4.595
11
6.5275
21
-4.595
0
LINE
8
BLACK
6
CONTINUOUS
10
6.5275
20
-4.595
11
6.5275
21
-4.63
0
LINE
8
BLACK
6
CONTINUOUS
10
7.4465
20
-4.5975
11
7.4115
21
-4.5975
0
LINE
8
BLACK
6
CONTINUOUS
10
7.4115
20
-4.5975
11
7.4115
21
-4.5425
0
LINE
8
BLACK
6
CONTINUOUS
10
7.4115
20
-4.5425
11
7.4465
21
-4.5425
0
LINE
8
BLACK
6
CONTINUOUS
10
7.4465
20
-4.5425
11
7.4465
21
-4.5975
0
LINE
8
BLACK
6
CONTINUOUS
10
7.3715
20
-4.5975
11
7.3365
21
-4.5975
0
LINE
8
BLACK
6
CONTINUOUS
10
7.3365
20
-4.5975
11
7.3365
21
-4.5425
0
LINE
8
BLACK
6
CONTINUOUS
10
7.3365
20
-4.5425
11
7.3715
21
-4.5425
0
LINE
8
BLACK
6
CONTINUOUS
10
7.3715
20
-4.5425
11
7.3715
21
-4.5975
0
LINE
8
BLACK
6
CONTINUOUS
10
6.9525
20
-4.5675
11
6.9175
21
-4.5675
0
LINE
8
BLACK
6
CONTINUOUS
10
6.9175
20
-4.5675
11
6.9175
21
-4.5125
0
LINE
8
BLACK
6
CONTINUOUS
10
6.9175
20
-4.5125
11
6.9525
21
-4.5125
0
LINE
8
BLACK
6
CONTINUOUS
10
6.9525
20
-4.5125
11
6.9525
21
-4.5675
0
LINE
8
BLACK
6
CONTINUOUS
10
7.0275
20
-4.5675
11
6.9925
21
-4.5675
0
LINE
8
BLACK
6
CONTINUOUS
10
6.9925
20
-4.5675
11
6.9925
21
-4.5125
0
LINE
8
BLACK
6
CONTINUOUS
10
6.9925
20
-4.5125
11
7.0275
21
-4.5125
0
LINE
8
BLACK
6
CONTINUOUS
10
7.0275
20
-4.5125
11
7.0275
21
-4.5675
0
LINE
8
BLACK
6
CONTINUOUS
10
6.54346
20
-4.55559
11
6.47654
21
-4.55559
0
LINE
8
BLACK
6
CONTINUOUS
10
6.47654
20
-4.55559
11
6.47654
21
-4.50441
0
LINE
8
BLACK
6
CONTINUOUS
10
6.47654
20
-4.50441
11
6.54346
21
-4.50441
0
LINE
8
BLACK
6
CONTINUOUS
10
6.54346
20
-4.50441
11
6.54346
21
-4.55559
0
LINE
8
BLACK
6
CONTINUOUS
10
6.8375
20
-4.5375
11
6.7825
21
-4.5375
0
LINE
8
BLACK
6
CONTINUOUS
10
6.7825
20
-4.5375
11
6.7825
21
-4.5025
0
LINE
8
BLACK
6
CONTINUOUS
10
6.7825
20
-4.5025
11
6.8375
21
-4.5025
0
LINE
8
BLACK
6
CONTINUOUS
10
6.8375
20
-4.5025
11
6.8375
21
-4.5375
0
LINE
8
BLACK
6
CONTINUOUS
10
6.64756
20
-4.5302
11
6.58614
21
-4.5302
0
LINE
8
BLACK
6
CONTINUOUS
10
6.58614
20
-4.5302
11
6.58614
21
-4.50461
0
LINE
8
BLACK
6
CONTINUOUS
10
6.58614
20
-4.50461
11
6.64756
21
-4.50461
0
LINE
8
BLACK
6
CONTINUOUS
10
6.64756
20
-4.50461
11
6.64756
21
-4.5302
0
LINE
8
BLACK
6
CONTINUOUS
10
6.75386
20
-4.5302
11
6.69244
21
-4.5302
0
LINE
8
BLACK
6
CONTINUOUS
10
6.69244
20
-4.5302
11
6.69244
21
-4.50461
0
LINE
8
BLACK
6
CONTINUOUS
10
6.69244
20
-4.50461
11
6.75386
21
-4.50461
0
LINE
8
BLACK
6
CONTINUOUS
10
6.75386
20
-4.50461
11
6.75386
21
-4.5302
0
LINE
8
BLACK
6
CONTINUOUS
10
7.7325
20
-4.515
11
7.6775
21
-4.515
0
LINE
8
BLACK
6
CONTINUOUS
10
7.6775
20
-4.515
11
7.6775
21
-4.48
0
LINE
8
BLACK
6
CONTINUOUS
10
7.6775
20
-4.48
11
7.7325
21
-4.48
0
LINE
8
BLACK
6
CONTINUOUS
10
7.7325
20
-4.48
11
7.7325
21
-4.515
0
LINE
8
BLACK
6
CONTINUOUS
10
7.8075
20
-4.515
11
7.7525
21
-4.515
0
LINE
8
BLACK
6
CONTINUOUS
10
7.7525
20
-4.515
11
7.7525
21
-4.48
0
LINE
8
BLACK
6
CONTINUOUS
10
7.7525
20
-4.48
11
7.8075
21
-4.48
0
LINE
8
BLACK
6
CONTINUOUS
10
7.8075
20
-4.48
11
7.8075
21
-4.515
0
LINE
8
BLACK
6
CONTINUOUS
10
8.2775
20
-4.505
11
8.2225
21
-4.505
0
LINE
8
BLACK
6
CONTINUOUS
10
8.2225
20
-4.505
11
8.2225
21
-4.47
0
LINE
8
BLACK
6
CONTINUOUS
10
8.2225
20
-4.47
11
8.2775
21
-4.47
0
LINE
8
BLACK
6
CONTINUOUS
10
8.2775
20
-4.47
11
8.2775
21
-4.505
0
LINE
8
BLACK
6
CONTINUOUS
10
6.64756
20
-4.4928
11
6.58614
21
-4.4928
0
LINE
8
BLACK
6
CONTINUOUS
10
6.58614
20
-4.4928
11
6.58614
21
-4.4672
0
LINE
8
BLACK
6
CONTINUOUS
10
6.58614
20
-4.4672
11
6.64756
21
-4.4672
0
LINE
8
BLACK
6
CONTINUOUS
10
6.64756
20
-4.4672
11
6.64756
21
-4.4928
0
LINE
8
BLACK
6
CONTINUOUS
10
7.37279
20
-4.4501
11
7.34804
21
-4.47485
0
LINE
8
BLACK
6
CONTINUOUS
10
7.34804
20
-4.47485
11
7.30915
21
-4.43596
0
LINE
8
BLACK
6
CONTINUOUS
10
7.30915
20
-4.43596
11
7.3339
21
-4.41121
0
LINE
8
BLACK
6
CONTINUOUS
10
7.3339
20
-4.41121
11
7.37279
21
-4.4501
0
LINE
8
BLACK
6
CONTINUOUS
10
7.0275
20
-4.4675
11
6.9925
21
-4.4675
0
LINE
8
BLACK
6
CONTINUOUS
10
6.9925
20
-4.4675
11
6.9925
21
-4.4125
0
LINE
8
BLACK
6
CONTINUOUS
10
6.9925
20
-4.4125
11
7.0275
21
-4.4125
0
LINE
8
BLACK
6
CONTINUOUS
10
7.0275
20
-4.4125
11
7.0275
21
-4.4675
0
LINE
8
BLACK
6
CONTINUOUS
10
6.9525
20
-4.4675
11
6.9175
21
-4.4675
0
LINE
8
BLACK
6
CONTINUOUS
10
6.9175
20
-4.4675
11
6.9175
21
-4.4125
0
LINE
8
BLACK
6
CONTINUOUS
10
6.9175
20
-4.4125
11
6.9525
21
-4.4125
0
LINE
8
BLACK
6
CONTINUOUS
10
6.9525
20
-4.4125
11
6.9525
21
-4.4675
0
LINE
8
BLACK
6
CONTINUOUS
10
7.6525
20
-4.4645
11
7.5975
21
-4.4645
0
LINE
8
BLACK
6
CONTINUOUS
10
7.5975
20
-4.4645
11
7.5975
21
-4.4295
0
LINE
8
BLACK
6
CONTINUOUS
10
7.5975
20
-4.4295
11
7.6525
21
-4.4295
0
LINE
8
BLACK
6
CONTINUOUS
10
7.6525
20
-4.4295
11
7.6525
21
-4.4645
0
LINE
8
BLACK
6
CONTINUOUS
10
6.8375
20
-4.4625
11
6.7825
21
-4.4625
0
LINE
8
BLACK
6
CONTINUOUS
10
6.7825
20
-4.4625
11
6.7825
21
-4.4275
0
LINE
8
BLACK
6
CONTINUOUS
10
6.7825
20
-4.4275
11
6.8375
21
-4.4275
0
LINE
8
BLACK
6
CONTINUOUS
10
6.8375
20
-4.4275
11
6.8375
21
-4.4625
0
LINE
8
BLACK
6
CONTINUOUS
10
6.75386
20
-4.45539
11
6.69244
21
-4.45539
0
LINE
8
BLACK
6
CONTINUOUS
10
6.69244
20
-4.45539
11
6.69244
21
-4.4298
0
LINE
8
BLACK
6
CONTINUOUS
10
6.69244
20
-4.4298
11
6.75386
21
-4.4298
0
LINE
8
BLACK
6
CONTINUOUS
10
6.75386
20
-4.4298
11
6.75386
21
-4.45539
0
LINE
8
BLACK
6
CONTINUOUS
10
6.64756
20
-4.45539
11
6.58614
21
-4.45539
0
LINE
8
BLACK
6
CONTINUOUS
10
6.58614
20
-4.45539
11
6.58614
21
-4.4298
0
LINE
8
BLACK
6
CONTINUOUS
10
6.58614
20
-4.4298
11
6.64756
21
-4.4298
0
LINE
8
BLACK
6
CONTINUOUS
10
6.64756
20
-4.4298
11
6.64756
21
-4.45539
0
LINE
8
BLACK
6
CONTINUOUS
10
7.7325
20
-4.44
11
7.6775
21
-4.44
0
LINE
8
BLACK
6
CONTINUOUS
10
7.6775
20
-4.44
11
7.6775
21
-4.405
0
LINE
8
BLACK
6
CONTINUOUS
10
7.6775
20
-4.405
11
7.7325
21
-4.405
0
LINE
8
BLACK
6
CONTINUOUS
10
7.7325
20
-4.405
11
7.7325
21
-4.44
0
LINE
8
BLACK
6
CONTINUOUS
10
7.8075
20
-4.44
11
7.7525
21
-4.44
0
LINE
8
BLACK
6
CONTINUOUS
10
7.7525
20
-4.44
11
7.7525
21
-4.405
0
LINE
8
BLACK
6
CONTINUOUS
10
7.7525
20
-4.405
11
7.8075
21
-4.405
0
LINE
8
BLACK
6
CONTINUOUS
10
7.8075
20
-4.405
11
7.8075
21
-4.44
0
LINE
8
BLACK
6
CONTINUOUS
10
8.2775
20
-4.43
11
8.2225
21
-4.43
0
LINE
8
BLACK
6
CONTINUOUS
10
8.2225
20
-4.43
11
8.2225
21
-4.395
0
LINE
8
BLACK
6
CONTINUOUS
10
8.2225
20
-4.395
11
8.2775
21
-4.395
0
LINE
8
BLACK
6
CONTINUOUS
10
8.2775
20
-4.395
11
8.2775
21
-4.43
0
LINE
8
BLACK
6
CONTINUOUS
10
7.42582
20
-4.39707
11
7.40107
21
-4.42182
0
LINE
8
BLACK
6
CONTINUOUS
10
7.40107
20
-4.42182
11
7.36218
21
-4.38293
0
LINE
8
BLACK
6
CONTINUOUS
10
7.36218
20
-4.38293
11
7.38693
21
-4.35818
0
LINE
8
BLACK
6
CONTINUOUS
10
7.38693
20
-4.35818
11
7.42582
21
-4.39707
0
LINE
8
BLACK
6
CONTINUOUS
10
6.54346
20
-4.4178
11
6.47654
21
-4.4178
0
LINE
8
BLACK
6
CONTINUOUS
10
6.47654
20
-4.4178
11
6.47654
21
-4.36661
0
LINE
8
BLACK
6
CONTINUOUS
10
6.47654
20
-4.36661
11
6.54346
21
-4.36661
0
LINE
8
BLACK
6
CONTINUOUS
10
6.54346
20
-4.36661
11
6.54346
21
-4.4178
0
LINE
8
BLACK
6
CONTINUOUS
10
7.6525
20
-4.3895
11
7.5975
21
-4.3895
0
LINE
8
BLACK
6
CONTINUOUS
10
7.5975
20
-4.3895
11
7.5975
21
-4.3545
0
LINE
8
BLACK
6
CONTINUOUS
10
7.5975
20
-4.3545
11
7.6525
21
-4.3545
0
LINE
8
BLACK
6
CONTINUOUS
10
7.6525
20
-4.3545
11
7.6525
21
-4.3895
0
LINE
8
BLACK
6
CONTINUOUS
10
7.35079
20
-4.3481
11
7.32604
21
-4.37285
0
LINE
8
BLACK
6
CONTINUOUS
10
7.32604
20
-4.37285
11
7.28715
21
-4.33396
0
LINE
8
BLACK
6
CONTINUOUS
10
7.28715
20
-4.33396
11
7.3119
21
-4.30921
0
LINE
8
BLACK
6
CONTINUOUS
10
7.3119
20
-4.30921
11
7.35079
21
-4.3481
0
LINE
8
BLACK
6
CONTINUOUS
10
7.40382
20
-4.29507
11
7.37907
21
-4.31982
0
LINE
8
BLACK
6
CONTINUOUS
10
7.37907
20
-4.31982
11
7.34018
21
-4.28093
0
LINE
8
BLACK
6
CONTINUOUS
10
7.34018
20
-4.28093
11
7.36493
21
-4.25618
0
LINE
8
BLACK
6
CONTINUOUS
10
7.36493
20
-4.25618
11
7.40382
21
-4.29507
  0
ENDSEC
  0
EOF
