  0
SECTION
  2
HEADER
  9
$ANGBASE
  50
0.0
  9
$ANGDIR
  70
1
  9
$MEASUREMENT
  70
0
  0
ENDSEC
  0
SECTION
  2
TABLES
  0
TABLE
  2
LTYPE
  70
4
  0
LTYPE
  5
40F
  2
CONTINUOUS
  70
0
  3
Solid line
  72
65
  73
0
  40
0.0
  0
LTYPE
  5
410
  2
DASHDOT
 70
0
  3
Dash Dot ____ _ ____ _
 72
65
 73
4
 40
2.0
 49
1.25
 49
-0.25
 49
0.25
 49
-0.25
  0
LTYPE
  5
411
  2
DASHED
 70
0
  3
Dashed __ __ __ __ __
 72
65
 73
2
 40
0.75
 49
0.5
 49
-0.25
  0
LTYPE
  5
43B
  2
DOTTED
 70
0
  3
Dotted .  .  .  .
 72
65
 73
2
 40
0.2
 49
0.0
 49
-0.2
  0
ENDTAB
  0
TABLE
  2
STYLE
  70
4
  0
STYLE
  2
KICAD
  70
0
  40
0
  41
1
  42
1
  50
0
  71
0
  3
isocp.shx
  0
STYLE
  2
KICADB
  70
0
  40
0
  41
1
  42
1
  50
0
  71
0
  3
isocp.shx
  0
STYLE
  2
KICADI
  70
0
  40
0
  41
1
  42
1
  50
15
  71
0
  3
isocp.shx
  0
STYLE
  2
KICADBI
  70
0
  40
0
  41
1
  42
1
  50
15
  71
0
  3
isocp.shx
  0
ENDTAB
  0
TABLE
  2
LAYER
  70
1
  0
LAYER
  2
BLACK
  70
0
  62
7
  6
CONTINUOUS
  0
ENDTAB
  0
ENDSEC
  0
SECTION
  2
ENTITIES
0
LINE
8
BLACK
6
CONTINUOUS
10
6.59107
20
-5.15446
11
6.59078
21
-5.15377
0
LINE
8
BLACK
6
CONTINUOUS
10
6.59078
20
-5.15377
11
6.59078
21
-4.93723
0
LINE
8
BLACK
6
CONTINUOUS
10
6.59078
20
-4.93723
11
6.59107
21
-4.93654
0
LINE
8
BLACK
6
CONTINUOUS
10
6.59107
20
-4.93654
11
6.59176
21
-4.93625
0
LINE
8
BLACK
6
CONTINUOUS
10
6.59176
20
-4.93625
11
6.88704
21
-4.93625
0
LINE
8
BLACK
6
CONTINUOUS
10
6.88704
20
-4.93625
11
6.88773
21
-4.93654
0
LINE
8
BLACK
6
CONTINUOUS
10
6.88773
20
-4.93654
11
6.88802
21
-4.93723
0
LINE
8
BLACK
6
CONTINUOUS
10
6.88802
20
-4.93723
11
6.88802
21
-5.15377
0
LINE
8
BLACK
6
CONTINUOUS
10
6.88802
20
-5.15377
11
6.88773
21
-5.15446
0
LINE
8
BLACK
6
CONTINUOUS
10
6.88773
20
-5.15446
11
6.88704
21
-5.15475
0
LINE
8
BLACK
6
CONTINUOUS
10
6.88704
20
-5.15475
11
6.59176
21
-5.15475
0
LINE
8
BLACK
6
CONTINUOUS
10
6.59176
20
-5.15475
11
6.59107
21
-5.15446
0
LINE
8
BLACK
6
CONTINUOUS
10
6.59275
20
-4.93822
11
6.59275
21
-5.15278
0
LINE
8
BLACK
6
CONTINUOUS
10
6.59275
20
-5.15278
11
6.88605
21
-5.15278
0
LINE
8
BLACK
6
CONTINUOUS
10
6.88605
20
-5.15278
11
6.88605
21
-4.93822
0
LINE
8
BLACK
6
CONTINUOUS
10
6.88605
20
-4.93822
11
6.59275
21
-4.93822
0
LINE
8
BLACK
6
CONTINUOUS
10
7.7541
20
-4.9564
11
7.75381
21
-4.9557
0
LINE
8
BLACK
6
CONTINUOUS
10
7.75381
20
-4.9557
11
7.75381
21
-4.6313
0
LINE
8
BLACK
6
CONTINUOUS
10
7.75381
20
-4.6313
11
7.7541
21
-4.6306
0
LINE
8
BLACK
6
CONTINUOUS
10
7.7541
20
-4.6306
11
7.7548
21
-4.63031
0
LINE
8
BLACK
6
CONTINUOUS
10
7.7548
20
-4.63031
11
8.0792
21
-4.63031
0
LINE
8
BLACK
6
CONTINUOUS
10
8.0792
20
-4.63031
11
8.0799
21
-4.6306
0
LINE
8
BLACK
6
CONTINUOUS
10
8.0799
20
-4.6306
11
8.08019
21
-4.6313
0
LINE
8
BLACK
6
CONTINUOUS
10
8.08019
20
-4.6313
11
8.08019
21
-4.9557
0
LINE
8
BLACK
6
CONTINUOUS
10
8.08019
20
-4.9557
11
8.0799
21
-4.9564
0
LINE
8
BLACK
6
CONTINUOUS
10
8.0799
20
-4.9564
11
8.0792
21
-4.95669
0
LINE
8
BLACK
6
CONTINUOUS
10
8.0792
20
-4.95669
11
7.7548
21
-4.95669
0
LINE
8
BLACK
6
CONTINUOUS
10
7.7548
20
-4.95669
11
7.7541
21
-4.9564
0
LINE
8
BLACK
6
CONTINUOUS
10
7.75578
20
-4.63228
11
7.75578
21
-4.95472
0
LINE
8
BLACK
6
CONTINUOUS
10
7.75578
20
-4.95472
11
8.07822
21
-4.95472
0
LINE
8
BLACK
6
CONTINUOUS
10
8.07822
20
-4.95472
11
8.07822
21
-4.63228
0
LINE
8
BLACK
6
CONTINUOUS
10
8.07822
20
-4.63228
11
7.75578
21
-4.63228
0
LINE
8
BLACK
6
CONTINUOUS
10
6.63919
20
-4.76518
11
6.6389
21
-4.76449
0
LINE
8
BLACK
6
CONTINUOUS
10
6.6389
20
-4.76449
11
6.6389
21
-4.57551
0
LINE
8
BLACK
6
CONTINUOUS
10
6.6389
20
-4.57551
11
6.63919
21
-4.57482
0
LINE
8
BLACK
6
CONTINUOUS
10
6.63919
20
-4.57482
11
6.63988
21
-4.57453
0
LINE
8
BLACK
6
CONTINUOUS
10
6.63988
20
-4.57453
11
6.75012
21
-4.57453
0
LINE
8
BLACK
6
CONTINUOUS
10
6.75012
20
-4.57453
11
6.75081
21
-4.57482
0
LINE
8
BLACK
6
CONTINUOUS
10
6.75081
20
-4.57482
11
6.7511
21
-4.57551
0
LINE
8
BLACK
6
CONTINUOUS
10
6.7511
20
-4.57551
11
6.7511
21
-4.76449
0
LINE
8
BLACK
6
CONTINUOUS
10
6.7511
20
-4.76449
11
6.75081
21
-4.76518
0
LINE
8
BLACK
6
CONTINUOUS
10
6.75081
20
-4.76518
11
6.75012
21
-4.76547
0
LINE
8
BLACK
6
CONTINUOUS
10
6.75012
20
-4.76547
11
6.63988
21
-4.76547
0
LINE
8
BLACK
6
CONTINUOUS
10
6.63988
20
-4.76547
11
6.63919
21
-4.76518
0
LINE
8
BLACK
6
CONTINUOUS
10
6.64087
20
-4.5765
11
6.64087
21
-4.7635
0
LINE
8
BLACK
6
CONTINUOUS
10
6.64087
20
-4.7635
11
6.74913
21
-4.7635
0
LINE
8
BLACK
6
CONTINUOUS
10
6.74913
20
-4.7635
11
6.74913
21
-4.5765
0
LINE
8
BLACK
6
CONTINUOUS
10
6.74913
20
-4.5765
11
6.64087
21
-4.5765
0
LINE
8
BLACK
6
CONTINUOUS
10
6.466
20
-4.56613
11
6.46571
21
-4.56543
0
LINE
8
BLACK
6
CONTINUOUS
10
6.46571
20
-4.56543
11
6.46571
21
-4.35677
0
LINE
8
BLACK
6
CONTINUOUS
10
6.46571
20
-4.35677
11
6.466
21
-4.35608
0
LINE
8
BLACK
6
CONTINUOUS
10
6.466
20
-4.35608
11
6.46669
21
-4.35579
0
LINE
8
BLACK
6
CONTINUOUS
10
6.46669
20
-4.35579
11
6.55331
21
-4.35579
0
LINE
8
BLACK
6
CONTINUOUS
10
6.55331
20
-4.35579
11
6.554
21
-4.35608
0
LINE
8
BLACK
6
CONTINUOUS
10
6.554
20
-4.35608
11
6.55429
21
-4.35677
0
LINE
8
BLACK
6
CONTINUOUS
10
6.55429
20
-4.35677
11
6.55429
21
-4.56543
0
LINE
8
BLACK
6
CONTINUOUS
10
6.55429
20
-4.56543
11
6.554
21
-4.56613
0
LINE
8
BLACK
6
CONTINUOUS
10
6.554
20
-4.56613
11
6.55331
21
-4.56642
0
LINE
8
BLACK
6
CONTINUOUS
10
6.55331
20
-4.56642
11
6.46669
21
-4.56642
0
LINE
8
BLACK
6
CONTINUOUS
10
6.46669
20
-4.56642
11
6.466
21
-4.56613
0
LINE
8
BLACK
6
CONTINUOUS
10
6.46768
20
-4.35776
11
6.46768
21
-4.56445
0
LINE
8
BLACK
6
CONTINUOUS
10
6.46768
20
-4.56445
11
6.55232
21
-4.56445
0
LINE
8
BLACK
6
CONTINUOUS
10
6.55232
20
-4.56445
11
6.55232
21
-4.35776
0
LINE
8
BLACK
6
CONTINUOUS
10
6.55232
20
-4.35776
11
6.46768
21
-4.35776
0
LINE
8
BLACK
6
CONTINUOUS
10
6.5756
20
-4.55156
11
6.57531
21
-4.55087
0
LINE
8
BLACK
6
CONTINUOUS
10
6.57531
20
-4.55087
11
6.57531
21
-4.40913
0
LINE
8
BLACK
6
CONTINUOUS
10
6.57531
20
-4.40913
11
6.5756
21
-4.40844
0
LINE
8
BLACK
6
CONTINUOUS
10
6.5756
20
-4.40844
11
6.5763
21
-4.40815
0
LINE
8
BLACK
6
CONTINUOUS
10
6.5763
20
-4.40815
11
6.7637
21
-4.40815
0
LINE
8
BLACK
6
CONTINUOUS
10
6.7637
20
-4.40815
11
6.7644
21
-4.40844
0
LINE
8
BLACK
6
CONTINUOUS
10
6.7644
20
-4.40844
11
6.76469
21
-4.40913
0
LINE
8
BLACK
6
CONTINUOUS
10
6.76469
20
-4.40913
11
6.76469
21
-4.55087
0
LINE
8
BLACK
6
CONTINUOUS
10
6.76469
20
-4.55087
11
6.7644
21
-4.55156
0
LINE
8
BLACK
6
CONTINUOUS
10
6.7644
20
-4.55156
11
6.7637
21
-4.55185
0
LINE
8
BLACK
6
CONTINUOUS
10
6.7637
20
-4.55185
11
6.5763
21
-4.55185
0
LINE
8
BLACK
6
CONTINUOUS
10
6.5763
20
-4.55185
11
6.5756
21
-4.55156
0
LINE
8
BLACK
6
CONTINUOUS
10
6.57728
20
-4.41012
11
6.57728
21
-4.54988
0
LINE
8
BLACK
6
CONTINUOUS
10
6.57728
20
-4.54988
11
6.76272
21
-4.54988
0
LINE
8
BLACK
6
CONTINUOUS
10
6.76272
20
-4.54988
11
6.76272
21
-4.41012
0
LINE
8
BLACK
6
CONTINUOUS
10
6.76272
20
-4.41012
11
6.57728
21
-4.41012
  0
ENDSEC
  0
EOF
