  0
SECTION
  2
HEADER
  9
$ANGBASE
  50
0.0
  9
$ANGDIR
  70
1
  9
$MEASUREMENT
  70
0
  0
ENDSEC
  0
SECTION
  2
TABLES
  0
TABLE
  2
LTYPE
  70
4
  0
LTYPE
  5
40F
  2
CONTINUOUS
  70
0
  3
Solid line
  72
65
  73
0
  40
0.0
  0
LTYPE
  5
410
  2
DASHDOT
 70
0
  3
Dash Dot ____ _ ____ _
 72
65
 73
4
 40
2.0
 49
1.25
 49
-0.25
 49
0.25
 49
-0.25
  0
LTYPE
  5
411
  2
DASHED
 70
0
  3
Dashed __ __ __ __ __
 72
65
 73
2
 40
0.75
 49
0.5
 49
-0.25
  0
LTYPE
  5
43B
  2
DOTTED
 70
0
  3
Dotted .  .  .  .
 72
65
 73
2
 40
0.2
 49
0.0
 49
-0.2
  0
ENDTAB
  0
TABLE
  2
STYLE
  70
4
  0
STYLE
  2
KICAD
  70
0
  40
0
  41
1
  42
1
  50
0
  71
0
  3
isocp.shx
  0
STYLE
  2
KICADB
  70
0
  40
0
  41
1
  42
1
  50
0
  71
0
  3
isocp.shx
  0
STYLE
  2
KICADI
  70
0
  40
0
  41
1
  42
1
  50
15
  71
0
  3
isocp.shx
  0
STYLE
  2
KICADBI
  70
0
  40
0
  41
1
  42
1
  50
15
  71
0
  3
isocp.shx
  0
ENDTAB
  0
TABLE
  2
LAYER
  70
1
  0
LAYER
  2
BLACK
  70
0
  62
7
  6
CONTINUOUS
  0
ENDTAB
  0
ENDSEC
  0
SECTION
  2
ENTITIES
0
LINE
8
BLACK
6
CONTINUOUS
10
7.5
20
-5.33705
11
7.6
21
-5.33705
0
LINE
8
BLACK
6
CONTINUOUS
10
7.6
20
-5.33705
11
7.7
21
-5.33705
0
LINE
8
BLACK
6
CONTINUOUS
10
7.7
20
-5.33705
11
7.8
21
-5.33705
0
LINE
8
BLACK
6
CONTINUOUS
10
7.8
20
-5.33705
11
7.9
21
-5.33705
0
LINE
8
BLACK
6
CONTINUOUS
10
7.9
20
-5.33705
11
8
21
-5.33705
0
LINE
8
BLACK
6
CONTINUOUS
10
8
20
-5.33705
11
8.1
21
-5.33705
0
LINE
8
BLACK
6
CONTINUOUS
10
8.1
20
-5.33705
11
8.2
21
-5.33705
0
LINE
8
BLACK
6
CONTINUOUS
10
8.2
20
-5.33705
11
8.20038
21
-5.33711
0
LINE
8
BLACK
6
CONTINUOUS
10
8.20038
20
-5.33711
11
8.20051
21
-5.33709
0
LINE
8
BLACK
6
CONTINUOUS
10
8.20051
20
-5.33709
11
8.20063
21
-5.33716
0
LINE
8
BLACK
6
CONTINUOUS
10
8.20063
20
-5.33716
11
8.20101
21
-5.33723
0
LINE
8
BLACK
6
CONTINUOUS
10
8.20101
20
-5.33723
11
8.2016
21
-5.33772
0
LINE
8
BLACK
6
CONTINUOUS
10
8.2016
20
-5.33772
11
8.20226
21
-5.3381
0
LINE
8
BLACK
6
CONTINUOUS
10
8.20226
20
-5.3381
11
8.20235
21
-5.33835
0
LINE
8
BLACK
6
CONTINUOUS
10
8.20235
20
-5.33835
11
8.20256
21
-5.33852
0
LINE
8
BLACK
6
CONTINUOUS
10
8.20256
20
-5.33852
11
8.20269
21
-5.33928
0
LINE
8
BLACK
6
CONTINUOUS
10
8.20269
20
-5.33928
11
8.20295
21
-5.34
0
LINE
8
BLACK
6
CONTINUOUS
10
8.20295
20
-5.34
11
8.20295
21
-5.54
0
LINE
8
BLACK
6
CONTINUOUS
10
8.20295
20
-5.54
11
8.20289
21
-5.54038
0
LINE
8
BLACK
6
CONTINUOUS
10
8.20289
20
-5.54038
11
8.20291
21
-5.54051
0
LINE
8
BLACK
6
CONTINUOUS
10
8.20291
20
-5.54051
11
8.20284
21
-5.54063
0
LINE
8
BLACK
6
CONTINUOUS
10
8.20284
20
-5.54063
11
8.20277
21
-5.54101
0
LINE
8
BLACK
6
CONTINUOUS
10
8.20277
20
-5.54101
11
8.20228
21
-5.5416
0
LINE
8
BLACK
6
CONTINUOUS
10
8.20228
20
-5.5416
11
8.2019
21
-5.54226
0
LINE
8
BLACK
6
CONTINUOUS
10
8.2019
20
-5.54226
11
8.20165
21
-5.54235
0
LINE
8
BLACK
6
CONTINUOUS
10
8.20165
20
-5.54235
11
8.20148
21
-5.54256
0
LINE
8
BLACK
6
CONTINUOUS
10
8.20148
20
-5.54256
11
8.20072
21
-5.54269
0
LINE
8
BLACK
6
CONTINUOUS
10
8.20072
20
-5.54269
11
8.2
21
-5.54295
0
LINE
8
BLACK
6
CONTINUOUS
10
8.2
20
-5.54295
11
8.1
21
-5.54295
0
LINE
8
BLACK
6
CONTINUOUS
10
8.1
20
-5.54295
11
8
21
-5.54295
0
LINE
8
BLACK
6
CONTINUOUS
10
8
20
-5.54295
11
7.9
21
-5.54295
0
LINE
8
BLACK
6
CONTINUOUS
10
7.9
20
-5.54295
11
7.8
21
-5.54295
0
LINE
8
BLACK
6
CONTINUOUS
10
7.8
20
-5.54295
11
7.7
21
-5.54295
0
LINE
8
BLACK
6
CONTINUOUS
10
7.7
20
-5.54295
11
7.6
21
-5.54295
0
LINE
8
BLACK
6
CONTINUOUS
10
7.6
20
-5.54295
11
7.5
21
-5.54295
0
LINE
8
BLACK
6
CONTINUOUS
10
7.5
20
-5.54295
11
7.4
21
-5.54295
0
LINE
8
BLACK
6
CONTINUOUS
10
7.4
20
-5.54295
11
7.39962
21
-5.54289
0
LINE
8
BLACK
6
CONTINUOUS
10
7.39962
20
-5.54289
11
7.39949
21
-5.54291
0
LINE
8
BLACK
6
CONTINUOUS
10
7.39949
20
-5.54291
11
7.39937
21
-5.54284
0
LINE
8
BLACK
6
CONTINUOUS
10
7.39937
20
-5.54284
11
7.39899
21
-5.54277
0
LINE
8
BLACK
6
CONTINUOUS
10
7.39899
20
-5.54277
11
7.3984
21
-5.54228
0
LINE
8
BLACK
6
CONTINUOUS
10
7.3984
20
-5.54228
11
7.39774
21
-5.5419
0
LINE
8
BLACK
6
CONTINUOUS
10
7.39774
20
-5.5419
11
7.39765
21
-5.54165
0
LINE
8
BLACK
6
CONTINUOUS
10
7.39765
20
-5.54165
11
7.39744
21
-5.54148
0
LINE
8
BLACK
6
CONTINUOUS
10
7.39744
20
-5.54148
11
7.39731
21
-5.54072
0
LINE
8
BLACK
6
CONTINUOUS
10
7.39731
20
-5.54072
11
7.39705
21
-5.54
0
LINE
8
BLACK
6
CONTINUOUS
10
7.39705
20
-5.54
11
7.39705
21
-5.34
0
LINE
8
BLACK
6
CONTINUOUS
10
7.39705
20
-5.34
11
7.39711
21
-5.33962
0
LINE
8
BLACK
6
CONTINUOUS
10
7.39711
20
-5.33962
11
7.39709
21
-5.33949
0
LINE
8
BLACK
6
CONTINUOUS
10
7.39709
20
-5.33949
11
7.39716
21
-5.33937
0
LINE
8
BLACK
6
CONTINUOUS
10
7.39716
20
-5.33937
11
7.39723
21
-5.33899
0
LINE
8
BLACK
6
CONTINUOUS
10
7.39723
20
-5.33899
11
7.39772
21
-5.3384
0
LINE
8
BLACK
6
CONTINUOUS
10
7.39772
20
-5.3384
11
7.3981
21
-5.33774
0
LINE
8
BLACK
6
CONTINUOUS
10
7.3981
20
-5.33774
11
7.39835
21
-5.33765
0
LINE
8
BLACK
6
CONTINUOUS
10
7.39835
20
-5.33765
11
7.39852
21
-5.33744
0
LINE
8
BLACK
6
CONTINUOUS
10
7.39852
20
-5.33744
11
7.39928
21
-5.33731
0
LINE
8
BLACK
6
CONTINUOUS
10
7.39928
20
-5.33731
11
7.4
21
-5.33705
0
LINE
8
BLACK
6
CONTINUOUS
10
7.4
20
-5.33705
11
7.5
21
-5.33705
0
LINE
8
BLACK
6
CONTINUOUS
10
8.10295
20
-5.34295
11
8.10295
21
-5.53705
0
LINE
8
BLACK
6
CONTINUOUS
10
8.10295
20
-5.53705
11
8.19705
21
-5.53705
0
LINE
8
BLACK
6
CONTINUOUS
10
8.19705
20
-5.53705
11
8.19705
21
-5.34295
0
LINE
8
BLACK
6
CONTINUOUS
10
8.19705
20
-5.34295
11
8.10295
21
-5.34295
0
LINE
8
BLACK
6
CONTINUOUS
10
8.00295
20
-5.34295
11
8.00295
21
-5.53705
0
LINE
8
BLACK
6
CONTINUOUS
10
8.00295
20
-5.53705
11
8.09705
21
-5.53705
0
LINE
8
BLACK
6
CONTINUOUS
10
8.09705
20
-5.53705
11
8.09705
21
-5.34295
0
LINE
8
BLACK
6
CONTINUOUS
10
8.09705
20
-5.34295
11
8.00295
21
-5.34295
0
LINE
8
BLACK
6
CONTINUOUS
10
7.90295
20
-5.34295
11
7.90295
21
-5.53705
0
LINE
8
BLACK
6
CONTINUOUS
10
7.90295
20
-5.53705
11
7.99705
21
-5.53705
0
LINE
8
BLACK
6
CONTINUOUS
10
7.99705
20
-5.53705
11
7.99705
21
-5.34295
0
LINE
8
BLACK
6
CONTINUOUS
10
7.99705
20
-5.34295
11
7.90295
21
-5.34295
0
LINE
8
BLACK
6
CONTINUOUS
10
7.80295
20
-5.34295
11
7.80295
21
-5.53705
0
LINE
8
BLACK
6
CONTINUOUS
10
7.80295
20
-5.53705
11
7.89705
21
-5.53705
0
LINE
8
BLACK
6
CONTINUOUS
10
7.89705
20
-5.53705
11
7.89705
21
-5.34295
0
LINE
8
BLACK
6
CONTINUOUS
10
7.89705
20
-5.34295
11
7.80295
21
-5.34295
0
LINE
8
BLACK
6
CONTINUOUS
10
7.70295
20
-5.34295
11
7.70295
21
-5.53705
0
LINE
8
BLACK
6
CONTINUOUS
10
7.70295
20
-5.53705
11
7.79705
21
-5.53705
0
LINE
8
BLACK
6
CONTINUOUS
10
7.79705
20
-5.53705
11
7.79705
21
-5.34295
0
LINE
8
BLACK
6
CONTINUOUS
10
7.79705
20
-5.34295
11
7.70295
21
-5.34295
0
LINE
8
BLACK
6
CONTINUOUS
10
7.60295
20
-5.34295
11
7.60295
21
-5.53705
0
LINE
8
BLACK
6
CONTINUOUS
10
7.60295
20
-5.53705
11
7.69705
21
-5.53705
0
LINE
8
BLACK
6
CONTINUOUS
10
7.69705
20
-5.53705
11
7.69705
21
-5.34295
0
LINE
8
BLACK
6
CONTINUOUS
10
7.69705
20
-5.34295
11
7.60295
21
-5.34295
0
LINE
8
BLACK
6
CONTINUOUS
10
7.50295
20
-5.34295
11
7.50295
21
-5.53705
0
LINE
8
BLACK
6
CONTINUOUS
10
7.50295
20
-5.53705
11
7.59705
21
-5.53705
0
LINE
8
BLACK
6
CONTINUOUS
10
7.59705
20
-5.53705
11
7.59705
21
-5.34295
0
LINE
8
BLACK
6
CONTINUOUS
10
7.59705
20
-5.34295
11
7.50295
21
-5.34295
0
LINE
8
BLACK
6
CONTINUOUS
10
7.40295
20
-5.34295
11
7.40295
21
-5.53705
0
LINE
8
BLACK
6
CONTINUOUS
10
7.40295
20
-5.53705
11
7.49705
21
-5.53705
0
LINE
8
BLACK
6
CONTINUOUS
10
7.49705
20
-5.53705
11
7.49705
21
-5.34295
0
LINE
8
BLACK
6
CONTINUOUS
10
7.49705
20
-5.34295
11
7.40295
21
-5.34295
0
LINE
8
BLACK
6
CONTINUOUS
10
6.62606
20
-5.50431
11
6.62676
21
-5.50598
0
LINE
8
BLACK
6
CONTINUOUS
10
6.62676
20
-5.50598
11
6.62676
21
-5.52764
0
LINE
8
BLACK
6
CONTINUOUS
10
6.62676
20
-5.52764
11
6.92164
21
-5.52764
0
LINE
8
BLACK
6
CONTINUOUS
10
6.92164
20
-5.52764
11
6.92167
21
-5.50611
0
LINE
8
BLACK
6
CONTINUOUS
10
6.92167
20
-5.50611
11
6.92236
21
-5.50444
0
LINE
8
BLACK
6
CONTINUOUS
10
6.92236
20
-5.50444
11
6.92403
21
-5.50375
0
LINE
8
BLACK
6
CONTINUOUS
10
6.92403
20
-5.50375
11
6.9257
21
-5.50445
0
LINE
8
BLACK
6
CONTINUOUS
10
6.9257
20
-5.50445
11
6.92639
21
-5.50612
0
LINE
8
BLACK
6
CONTINUOUS
10
6.92639
20
-5.50612
11
6.92636
21
-5.53
0
LINE
8
BLACK
6
CONTINUOUS
10
6.92636
20
-5.53
11
6.92602
21
-5.53083
0
LINE
8
BLACK
6
CONTINUOUS
10
6.92602
20
-5.53083
11
6.92567
21
-5.53167
0
LINE
8
BLACK
6
CONTINUOUS
10
6.92567
20
-5.53167
11
6.92567
21
-5.53167
0
LINE
8
BLACK
6
CONTINUOUS
10
6.92567
20
-5.53167
11
6.92567
21
-5.53167
0
LINE
8
BLACK
6
CONTINUOUS
10
6.92567
20
-5.53167
11
6.92483
21
-5.53202
0
LINE
8
BLACK
6
CONTINUOUS
10
6.92483
20
-5.53202
11
6.924
21
-5.53236
0
LINE
8
BLACK
6
CONTINUOUS
10
6.924
20
-5.53236
11
6.924
21
-5.53236
0
LINE
8
BLACK
6
CONTINUOUS
10
6.924
20
-5.53236
11
6.62439
21
-5.53236
0
LINE
8
BLACK
6
CONTINUOUS
10
6.62439
20
-5.53236
11
6.62272
21
-5.53167
0
LINE
8
BLACK
6
CONTINUOUS
10
6.62272
20
-5.53167
11
6.62203
21
-5.53
0
LINE
8
BLACK
6
CONTINUOUS
10
6.62203
20
-5.53
11
6.62203
21
-5.50598
0
LINE
8
BLACK
6
CONTINUOUS
10
6.62203
20
-5.50598
11
6.62272
21
-5.50431
0
LINE
8
BLACK
6
CONTINUOUS
10
6.62272
20
-5.50431
11
6.62439
21
-5.50362
0
LINE
8
BLACK
6
CONTINUOUS
10
6.62439
20
-5.50362
11
6.62606
21
-5.50431
0
LINE
8
BLACK
6
CONTINUOUS
10
6.40406
20
-5.26519
11
6.41795
21
-5.26755
0
LINE
8
BLACK
6
CONTINUOUS
10
6.41795
20
-5.26755
11
6.43148
21
-5.27145
0
LINE
8
BLACK
6
CONTINUOUS
10
6.43148
20
-5.27145
11
6.4445
21
-5.27684
0
LINE
8
BLACK
6
CONTINUOUS
10
6.4445
20
-5.27684
11
6.45682
21
-5.28365
0
LINE
8
BLACK
6
CONTINUOUS
10
6.45682
20
-5.28365
11
6.46831
21
-5.2918
0
LINE
8
BLACK
6
CONTINUOUS
10
6.46831
20
-5.2918
11
6.47881
21
-5.30119
0
LINE
8
BLACK
6
CONTINUOUS
10
6.47881
20
-5.30119
11
6.4882
21
-5.31169
0
LINE
8
BLACK
6
CONTINUOUS
10
6.4882
20
-5.31169
11
6.49635
21
-5.32318
0
LINE
8
BLACK
6
CONTINUOUS
10
6.49635
20
-5.32318
11
6.50316
21
-5.3355
0
LINE
8
BLACK
6
CONTINUOUS
10
6.50316
20
-5.3355
11
6.50855
21
-5.34852
0
LINE
8
BLACK
6
CONTINUOUS
10
6.50855
20
-5.34852
11
6.51245
21
-5.36205
0
LINE
8
BLACK
6
CONTINUOUS
10
6.51245
20
-5.36205
11
6.51481
21
-5.37594
0
LINE
8
BLACK
6
CONTINUOUS
10
6.51481
20
-5.37594
11
6.5156
21
-5.39
0
LINE
8
BLACK
6
CONTINUOUS
10
6.5156
20
-5.39
11
6.51481
21
-5.40406
0
LINE
8
BLACK
6
CONTINUOUS
10
6.51481
20
-5.40406
11
6.51245
21
-5.41795
0
LINE
8
BLACK
6
CONTINUOUS
10
6.51245
20
-5.41795
11
6.50855
21
-5.43148
0
LINE
8
BLACK
6
CONTINUOUS
10
6.50855
20
-5.43148
11
6.50316
21
-5.4445
0
LINE
8
BLACK
6
CONTINUOUS
10
6.50316
20
-5.4445
11
6.49635
21
-5.45682
0
LINE
8
BLACK
6
CONTINUOUS
10
6.49635
20
-5.45682
11
6.4882
21
-5.46831
0
LINE
8
BLACK
6
CONTINUOUS
10
6.4882
20
-5.46831
11
6.47881
21
-5.47881
0
LINE
8
BLACK
6
CONTINUOUS
10
6.47881
20
-5.47881
11
6.46831
21
-5.4882
0
LINE
8
BLACK
6
CONTINUOUS
10
6.46831
20
-5.4882
11
6.45682
21
-5.49635
0
LINE
8
BLACK
6
CONTINUOUS
10
6.45682
20
-5.49635
11
6.4445
21
-5.50316
0
LINE
8
BLACK
6
CONTINUOUS
10
6.4445
20
-5.50316
11
6.43148
21
-5.50855
0
LINE
8
BLACK
6
CONTINUOUS
10
6.43148
20
-5.50855
11
6.41795
21
-5.51245
0
LINE
8
BLACK
6
CONTINUOUS
10
6.41795
20
-5.51245
11
6.40406
21
-5.51481
0
LINE
8
BLACK
6
CONTINUOUS
10
6.40406
20
-5.51481
11
6.39
21
-5.5156
0
LINE
8
BLACK
6
CONTINUOUS
10
6.39
20
-5.5156
11
6.37594
21
-5.51481
0
LINE
8
BLACK
6
CONTINUOUS
10
6.37594
20
-5.51481
11
6.36205
21
-5.51245
0
LINE
8
BLACK
6
CONTINUOUS
10
6.36205
20
-5.51245
11
6.34852
21
-5.50855
0
LINE
8
BLACK
6
CONTINUOUS
10
6.34852
20
-5.50855
11
6.3355
21
-5.50316
0
LINE
8
BLACK
6
CONTINUOUS
10
6.3355
20
-5.50316
11
6.32318
21
-5.49635
0
LINE
8
BLACK
6
CONTINUOUS
10
6.32318
20
-5.49635
11
6.31169
21
-5.4882
0
LINE
8
BLACK
6
CONTINUOUS
10
6.31169
20
-5.4882
11
6.30119
21
-5.47881
0
LINE
8
BLACK
6
CONTINUOUS
10
6.30119
20
-5.47881
11
6.2918
21
-5.46831
0
LINE
8
BLACK
6
CONTINUOUS
10
6.2918
20
-5.46831
11
6.28365
21
-5.45682
0
LINE
8
BLACK
6
CONTINUOUS
10
6.28365
20
-5.45682
11
6.27684
21
-5.4445
0
LINE
8
BLACK
6
CONTINUOUS
10
6.27684
20
-5.4445
11
6.27145
21
-5.43148
0
LINE
8
BLACK
6
CONTINUOUS
10
6.27145
20
-5.43148
11
6.26755
21
-5.41795
0
LINE
8
BLACK
6
CONTINUOUS
10
6.26755
20
-5.41795
11
6.26519
21
-5.40406
0
LINE
8
BLACK
6
CONTINUOUS
10
6.26519
20
-5.40406
11
6.2644
21
-5.39
0
LINE
8
BLACK
6
CONTINUOUS
10
6.2644
20
-5.39
11
6.26519
21
-5.37594
0
LINE
8
BLACK
6
CONTINUOUS
10
6.26519
20
-5.37594
11
6.26755
21
-5.36205
0
LINE
8
BLACK
6
CONTINUOUS
10
6.26755
20
-5.36205
11
6.27145
21
-5.34852
0
LINE
8
BLACK
6
CONTINUOUS
10
6.27145
20
-5.34852
11
6.27684
21
-5.3355
0
LINE
8
BLACK
6
CONTINUOUS
10
6.27684
20
-5.3355
11
6.28365
21
-5.32318
0
LINE
8
BLACK
6
CONTINUOUS
10
6.28365
20
-5.32318
11
6.2918
21
-5.31169
0
LINE
8
BLACK
6
CONTINUOUS
10
6.2918
20
-5.31169
11
6.30119
21
-5.30119
0
LINE
8
BLACK
6
CONTINUOUS
10
6.30119
20
-5.30119
11
6.31169
21
-5.2918
0
LINE
8
BLACK
6
CONTINUOUS
10
6.31169
20
-5.2918
11
6.32318
21
-5.28365
0
LINE
8
BLACK
6
CONTINUOUS
10
6.32318
20
-5.28365
11
6.3355
21
-5.27684
0
LINE
8
BLACK
6
CONTINUOUS
10
6.3355
20
-5.27684
11
6.34852
21
-5.27145
0
LINE
8
BLACK
6
CONTINUOUS
10
6.34852
20
-5.27145
11
6.36205
21
-5.26755
0
LINE
8
BLACK
6
CONTINUOUS
10
6.36205
20
-5.26755
11
6.37594
21
-5.26519
0
LINE
8
BLACK
6
CONTINUOUS
10
6.37594
20
-5.26519
11
6.39
21
-5.2644
0
LINE
8
BLACK
6
CONTINUOUS
10
6.39
20
-5.2644
11
6.40406
21
-5.26519
0
LINE
8
BLACK
6
CONTINUOUS
10
6.27996
20
-5.40286
11
6.2822
21
-5.41555
0
LINE
8
BLACK
6
CONTINUOUS
10
6.2822
20
-5.41555
11
6.28589
21
-5.42789
0
LINE
8
BLACK
6
CONTINUOUS
10
6.28589
20
-5.42789
11
6.291
21
-5.43972
0
LINE
8
BLACK
6
CONTINUOUS
10
6.291
20
-5.43972
11
6.29744
21
-5.45088
0
LINE
8
BLACK
6
CONTINUOUS
10
6.29744
20
-5.45088
11
6.30513
21
-5.46121
0
LINE
8
BLACK
6
CONTINUOUS
10
6.30513
20
-5.46121
11
6.31397
21
-5.47058
0
LINE
8
BLACK
6
CONTINUOUS
10
6.31397
20
-5.47058
11
6.32384
21
-5.47887
0
LINE
8
BLACK
6
CONTINUOUS
10
6.32384
20
-5.47887
11
6.33461
21
-5.48594
0
LINE
8
BLACK
6
CONTINUOUS
10
6.33461
20
-5.48594
11
6.34612
21
-5.49173
0
LINE
8
BLACK
6
CONTINUOUS
10
6.34612
20
-5.49173
11
6.35823
21
-5.49613
0
LINE
8
BLACK
6
CONTINUOUS
10
6.35823
20
-5.49613
11
6.37076
21
-5.4991
0
LINE
8
BLACK
6
CONTINUOUS
10
6.37076
20
-5.4991
11
6.38356
21
-5.5006
0
LINE
8
BLACK
6
CONTINUOUS
10
6.38356
20
-5.5006
11
6.39644
21
-5.5006
0
LINE
8
BLACK
6
CONTINUOUS
10
6.39644
20
-5.5006
11
6.40924
21
-5.4991
0
LINE
8
BLACK
6
CONTINUOUS
10
6.40924
20
-5.4991
11
6.42177
21
-5.49613
0
LINE
8
BLACK
6
CONTINUOUS
10
6.42177
20
-5.49613
11
6.43388
21
-5.49173
0
LINE
8
BLACK
6
CONTINUOUS
10
6.43388
20
-5.49173
11
6.44539
21
-5.48594
0
LINE
8
BLACK
6
CONTINUOUS
10
6.44539
20
-5.48594
11
6.45616
21
-5.47887
0
LINE
8
BLACK
6
CONTINUOUS
10
6.45616
20
-5.47887
11
6.46603
21
-5.47058
0
LINE
8
BLACK
6
CONTINUOUS
10
6.46603
20
-5.47058
11
6.47487
21
-5.46121
0
LINE
8
BLACK
6
CONTINUOUS
10
6.47487
20
-5.46121
11
6.48256
21
-5.45088
0
LINE
8
BLACK
6
CONTINUOUS
10
6.48256
20
-5.45088
11
6.489
21
-5.43972
0
LINE
8
BLACK
6
CONTINUOUS
10
6.489
20
-5.43972
11
6.49411
21
-5.42789
0
LINE
8
BLACK
6
CONTINUOUS
10
6.49411
20
-5.42789
11
6.4978
21
-5.41555
0
LINE
8
BLACK
6
CONTINUOUS
10
6.4978
20
-5.41555
11
6.50004
21
-5.40286
0
LINE
8
BLACK
6
CONTINUOUS
10
6.50004
20
-5.40286
11
6.50079
21
-5.39
0
LINE
8
BLACK
6
CONTINUOUS
10
6.50079
20
-5.39
11
6.50004
21
-5.37714
0
LINE
8
BLACK
6
CONTINUOUS
10
6.50004
20
-5.37714
11
6.4978
21
-5.36445
0
LINE
8
BLACK
6
CONTINUOUS
10
6.4978
20
-5.36445
11
6.49411
21
-5.35211
0
LINE
8
BLACK
6
CONTINUOUS
10
6.49411
20
-5.35211
11
6.489
21
-5.34028
0
LINE
8
BLACK
6
CONTINUOUS
10
6.489
20
-5.34028
11
6.48256
21
-5.32912
0
LINE
8
BLACK
6
CONTINUOUS
10
6.48256
20
-5.32912
11
6.47487
21
-5.31879
0
LINE
8
BLACK
6
CONTINUOUS
10
6.47487
20
-5.31879
11
6.46603
21
-5.30942
0
LINE
8
BLACK
6
CONTINUOUS
10
6.46603
20
-5.30942
11
6.45616
21
-5.30113
0
LINE
8
BLACK
6
CONTINUOUS
10
6.45616
20
-5.30113
11
6.44539
21
-5.29406
0
LINE
8
BLACK
6
CONTINUOUS
10
6.44539
20
-5.29406
11
6.43388
21
-5.28827
0
LINE
8
BLACK
6
CONTINUOUS
10
6.43388
20
-5.28827
11
6.42177
21
-5.28387
0
LINE
8
BLACK
6
CONTINUOUS
10
6.42177
20
-5.28387
11
6.40924
21
-5.2809
0
LINE
8
BLACK
6
CONTINUOUS
10
6.40924
20
-5.2809
11
6.39644
21
-5.2794
0
LINE
8
BLACK
6
CONTINUOUS
10
6.39644
20
-5.2794
11
6.38356
21
-5.2794
0
LINE
8
BLACK
6
CONTINUOUS
10
6.38356
20
-5.2794
11
6.37076
21
-5.2809
0
LINE
8
BLACK
6
CONTINUOUS
10
6.37076
20
-5.2809
11
6.35823
21
-5.28387
0
LINE
8
BLACK
6
CONTINUOUS
10
6.35823
20
-5.28387
11
6.34612
21
-5.28827
0
LINE
8
BLACK
6
CONTINUOUS
10
6.34612
20
-5.28827
11
6.33461
21
-5.29406
0
LINE
8
BLACK
6
CONTINUOUS
10
6.33461
20
-5.29406
11
6.32384
21
-5.30113
0
LINE
8
BLACK
6
CONTINUOUS
10
6.32384
20
-5.30113
11
6.31397
21
-5.30942
0
LINE
8
BLACK
6
CONTINUOUS
10
6.31397
20
-5.30942
11
6.30513
21
-5.31879
0
LINE
8
BLACK
6
CONTINUOUS
10
6.30513
20
-5.31879
11
6.29744
21
-5.32912
0
LINE
8
BLACK
6
CONTINUOUS
10
6.29744
20
-5.32912
11
6.291
21
-5.34028
0
LINE
8
BLACK
6
CONTINUOUS
10
6.291
20
-5.34028
11
6.28589
21
-5.35211
0
LINE
8
BLACK
6
CONTINUOUS
10
6.28589
20
-5.35211
11
6.2822
21
-5.36445
0
LINE
8
BLACK
6
CONTINUOUS
10
6.2822
20
-5.36445
11
6.27996
21
-5.37714
0
LINE
8
BLACK
6
CONTINUOUS
10
6.27996
20
-5.37714
11
6.27921
21
-5.39
0
LINE
8
BLACK
6
CONTINUOUS
10
6.27921
20
-5.39
11
6.27996
21
-5.40286
0
LINE
8
BLACK
6
CONTINUOUS
10
8.40406
20
-5.26519
11
8.41795
21
-5.26755
0
LINE
8
BLACK
6
CONTINUOUS
10
8.41795
20
-5.26755
11
8.43148
21
-5.27145
0
LINE
8
BLACK
6
CONTINUOUS
10
8.43148
20
-5.27145
11
8.4445
21
-5.27684
0
LINE
8
BLACK
6
CONTINUOUS
10
8.4445
20
-5.27684
11
8.45682
21
-5.28365
0
LINE
8
BLACK
6
CONTINUOUS
10
8.45682
20
-5.28365
11
8.46831
21
-5.2918
0
LINE
8
BLACK
6
CONTINUOUS
10
8.46831
20
-5.2918
11
8.47881
21
-5.30119
0
LINE
8
BLACK
6
CONTINUOUS
10
8.47881
20
-5.30119
11
8.4882
21
-5.31169
0
LINE
8
BLACK
6
CONTINUOUS
10
8.4882
20
-5.31169
11
8.49635
21
-5.32318
0
LINE
8
BLACK
6
CONTINUOUS
10
8.49635
20
-5.32318
11
8.50316
21
-5.3355
0
LINE
8
BLACK
6
CONTINUOUS
10
8.50316
20
-5.3355
11
8.50855
21
-5.34852
0
LINE
8
BLACK
6
CONTINUOUS
10
8.50855
20
-5.34852
11
8.51245
21
-5.36205
0
LINE
8
BLACK
6
CONTINUOUS
10
8.51245
20
-5.36205
11
8.51481
21
-5.37594
0
LINE
8
BLACK
6
CONTINUOUS
10
8.51481
20
-5.37594
11
8.5156
21
-5.39
0
LINE
8
BLACK
6
CONTINUOUS
10
8.5156
20
-5.39
11
8.51481
21
-5.40406
0
LINE
8
BLACK
6
CONTINUOUS
10
8.51481
20
-5.40406
11
8.51245
21
-5.41795
0
LINE
8
BLACK
6
CONTINUOUS
10
8.51245
20
-5.41795
11
8.50855
21
-5.43148
0
LINE
8
BLACK
6
CONTINUOUS
10
8.50855
20
-5.43148
11
8.50316
21
-5.4445
0
LINE
8
BLACK
6
CONTINUOUS
10
8.50316
20
-5.4445
11
8.49635
21
-5.45682
0
LINE
8
BLACK
6
CONTINUOUS
10
8.49635
20
-5.45682
11
8.4882
21
-5.46831
0
LINE
8
BLACK
6
CONTINUOUS
10
8.4882
20
-5.46831
11
8.47881
21
-5.47881
0
LINE
8
BLACK
6
CONTINUOUS
10
8.47881
20
-5.47881
11
8.46831
21
-5.4882
0
LINE
8
BLACK
6
CONTINUOUS
10
8.46831
20
-5.4882
11
8.45682
21
-5.49635
0
LINE
8
BLACK
6
CONTINUOUS
10
8.45682
20
-5.49635
11
8.4445
21
-5.50316
0
LINE
8
BLACK
6
CONTINUOUS
10
8.4445
20
-5.50316
11
8.43148
21
-5.50855
0
LINE
8
BLACK
6
CONTINUOUS
10
8.43148
20
-5.50855
11
8.41795
21
-5.51245
0
LINE
8
BLACK
6
CONTINUOUS
10
8.41795
20
-5.51245
11
8.40406
21
-5.51481
0
LINE
8
BLACK
6
CONTINUOUS
10
8.40406
20
-5.51481
11
8.39
21
-5.5156
0
LINE
8
BLACK
6
CONTINUOUS
10
8.39
20
-5.5156
11
8.37594
21
-5.51481
0
LINE
8
BLACK
6
CONTINUOUS
10
8.37594
20
-5.51481
11
8.36205
21
-5.51245
0
LINE
8
BLACK
6
CONTINUOUS
10
8.36205
20
-5.51245
11
8.34852
21
-5.50855
0
LINE
8
BLACK
6
CONTINUOUS
10
8.34852
20
-5.50855
11
8.3355
21
-5.50316
0
LINE
8
BLACK
6
CONTINUOUS
10
8.3355
20
-5.50316
11
8.32318
21
-5.49635
0
LINE
8
BLACK
6
CONTINUOUS
10
8.32318
20
-5.49635
11
8.31169
21
-5.4882
0
LINE
8
BLACK
6
CONTINUOUS
10
8.31169
20
-5.4882
11
8.30119
21
-5.47881
0
LINE
8
BLACK
6
CONTINUOUS
10
8.30119
20
-5.47881
11
8.2918
21
-5.46831
0
LINE
8
BLACK
6
CONTINUOUS
10
8.2918
20
-5.46831
11
8.28365
21
-5.45682
0
LINE
8
BLACK
6
CONTINUOUS
10
8.28365
20
-5.45682
11
8.27684
21
-5.4445
0
LINE
8
BLACK
6
CONTINUOUS
10
8.27684
20
-5.4445
11
8.27145
21
-5.43148
0
LINE
8
BLACK
6
CONTINUOUS
10
8.27145
20
-5.43148
11
8.26755
21
-5.41795
0
LINE
8
BLACK
6
CONTINUOUS
10
8.26755
20
-5.41795
11
8.26519
21
-5.40406
0
LINE
8
BLACK
6
CONTINUOUS
10
8.26519
20
-5.40406
11
8.2644
21
-5.39
0
LINE
8
BLACK
6
CONTINUOUS
10
8.2644
20
-5.39
11
8.26519
21
-5.37594
0
LINE
8
BLACK
6
CONTINUOUS
10
8.26519
20
-5.37594
11
8.26755
21
-5.36205
0
LINE
8
BLACK
6
CONTINUOUS
10
8.26755
20
-5.36205
11
8.27145
21
-5.34852
0
LINE
8
BLACK
6
CONTINUOUS
10
8.27145
20
-5.34852
11
8.27684
21
-5.3355
0
LINE
8
BLACK
6
CONTINUOUS
10
8.27684
20
-5.3355
11
8.28365
21
-5.32318
0
LINE
8
BLACK
6
CONTINUOUS
10
8.28365
20
-5.32318
11
8.2918
21
-5.31169
0
LINE
8
BLACK
6
CONTINUOUS
10
8.2918
20
-5.31169
11
8.30119
21
-5.30119
0
LINE
8
BLACK
6
CONTINUOUS
10
8.30119
20
-5.30119
11
8.31169
21
-5.2918
0
LINE
8
BLACK
6
CONTINUOUS
10
8.31169
20
-5.2918
11
8.32318
21
-5.28365
0
LINE
8
BLACK
6
CONTINUOUS
10
8.32318
20
-5.28365
11
8.3355
21
-5.27684
0
LINE
8
BLACK
6
CONTINUOUS
10
8.3355
20
-5.27684
11
8.34852
21
-5.27145
0
LINE
8
BLACK
6
CONTINUOUS
10
8.34852
20
-5.27145
11
8.36205
21
-5.26755
0
LINE
8
BLACK
6
CONTINUOUS
10
8.36205
20
-5.26755
11
8.37594
21
-5.26519
0
LINE
8
BLACK
6
CONTINUOUS
10
8.37594
20
-5.26519
11
8.39
21
-5.2644
0
LINE
8
BLACK
6
CONTINUOUS
10
8.39
20
-5.2644
11
8.40406
21
-5.26519
0
LINE
8
BLACK
6
CONTINUOUS
10
8.27996
20
-5.40286
11
8.2822
21
-5.41555
0
LINE
8
BLACK
6
CONTINUOUS
10
8.2822
20
-5.41555
11
8.28589
21
-5.42789
0
LINE
8
BLACK
6
CONTINUOUS
10
8.28589
20
-5.42789
11
8.291
21
-5.43972
0
LINE
8
BLACK
6
CONTINUOUS
10
8.291
20
-5.43972
11
8.29744
21
-5.45088
0
LINE
8
BLACK
6
CONTINUOUS
10
8.29744
20
-5.45088
11
8.30513
21
-5.46121
0
LINE
8
BLACK
6
CONTINUOUS
10
8.30513
20
-5.46121
11
8.31397
21
-5.47058
0
LINE
8
BLACK
6
CONTINUOUS
10
8.31397
20
-5.47058
11
8.32384
21
-5.47887
0
LINE
8
BLACK
6
CONTINUOUS
10
8.32384
20
-5.47887
11
8.33461
21
-5.48594
0
LINE
8
BLACK
6
CONTINUOUS
10
8.33461
20
-5.48594
11
8.34612
21
-5.49173
0
LINE
8
BLACK
6
CONTINUOUS
10
8.34612
20
-5.49173
11
8.35823
21
-5.49613
0
LINE
8
BLACK
6
CONTINUOUS
10
8.35823
20
-5.49613
11
8.37076
21
-5.4991
0
LINE
8
BLACK
6
CONTINUOUS
10
8.37076
20
-5.4991
11
8.38356
21
-5.5006
0
LINE
8
BLACK
6
CONTINUOUS
10
8.38356
20
-5.5006
11
8.39644
21
-5.5006
0
LINE
8
BLACK
6
CONTINUOUS
10
8.39644
20
-5.5006
11
8.40924
21
-5.4991
0
LINE
8
BLACK
6
CONTINUOUS
10
8.40924
20
-5.4991
11
8.42177
21
-5.49613
0
LINE
8
BLACK
6
CONTINUOUS
10
8.42177
20
-5.49613
11
8.43388
21
-5.49173
0
LINE
8
BLACK
6
CONTINUOUS
10
8.43388
20
-5.49173
11
8.44539
21
-5.48594
0
LINE
8
BLACK
6
CONTINUOUS
10
8.44539
20
-5.48594
11
8.45616
21
-5.47887
0
LINE
8
BLACK
6
CONTINUOUS
10
8.45616
20
-5.47887
11
8.46603
21
-5.47058
0
LINE
8
BLACK
6
CONTINUOUS
10
8.46603
20
-5.47058
11
8.47487
21
-5.46121
0
LINE
8
BLACK
6
CONTINUOUS
10
8.47487
20
-5.46121
11
8.48256
21
-5.45088
0
LINE
8
BLACK
6
CONTINUOUS
10
8.48256
20
-5.45088
11
8.489
21
-5.43972
0
LINE
8
BLACK
6
CONTINUOUS
10
8.489
20
-5.43972
11
8.49411
21
-5.42789
0
LINE
8
BLACK
6
CONTINUOUS
10
8.49411
20
-5.42789
11
8.4978
21
-5.41555
0
LINE
8
BLACK
6
CONTINUOUS
10
8.4978
20
-5.41555
11
8.50004
21
-5.40286
0
LINE
8
BLACK
6
CONTINUOUS
10
8.50004
20
-5.40286
11
8.50079
21
-5.39
0
LINE
8
BLACK
6
CONTINUOUS
10
8.50079
20
-5.39
11
8.50004
21
-5.37714
0
LINE
8
BLACK
6
CONTINUOUS
10
8.50004
20
-5.37714
11
8.4978
21
-5.36445
0
LINE
8
BLACK
6
CONTINUOUS
10
8.4978
20
-5.36445
11
8.49411
21
-5.35211
0
LINE
8
BLACK
6
CONTINUOUS
10
8.49411
20
-5.35211
11
8.489
21
-5.34028
0
LINE
8
BLACK
6
CONTINUOUS
10
8.489
20
-5.34028
11
8.48256
21
-5.32912
0
LINE
8
BLACK
6
CONTINUOUS
10
8.48256
20
-5.32912
11
8.47487
21
-5.31879
0
LINE
8
BLACK
6
CONTINUOUS
10
8.47487
20
-5.31879
11
8.46603
21
-5.30942
0
LINE
8
BLACK
6
CONTINUOUS
10
8.46603
20
-5.30942
11
8.45616
21
-5.30113
0
LINE
8
BLACK
6
CONTINUOUS
10
8.45616
20
-5.30113
11
8.44539
21
-5.29406
0
LINE
8
BLACK
6
CONTINUOUS
10
8.44539
20
-5.29406
11
8.43388
21
-5.28827
0
LINE
8
BLACK
6
CONTINUOUS
10
8.43388
20
-5.28827
11
8.42177
21
-5.28387
0
LINE
8
BLACK
6
CONTINUOUS
10
8.42177
20
-5.28387
11
8.40924
21
-5.2809
0
LINE
8
BLACK
6
CONTINUOUS
10
8.40924
20
-5.2809
11
8.39644
21
-5.2794
0
LINE
8
BLACK
6
CONTINUOUS
10
8.39644
20
-5.2794
11
8.38356
21
-5.2794
0
LINE
8
BLACK
6
CONTINUOUS
10
8.38356
20
-5.2794
11
8.37076
21
-5.2809
0
LINE
8
BLACK
6
CONTINUOUS
10
8.37076
20
-5.2809
11
8.35823
21
-5.28387
0
LINE
8
BLACK
6
CONTINUOUS
10
8.35823
20
-5.28387
11
8.34612
21
-5.28827
0
LINE
8
BLACK
6
CONTINUOUS
10
8.34612
20
-5.28827
11
8.33461
21
-5.29406
0
LINE
8
BLACK
6
CONTINUOUS
10
8.33461
20
-5.29406
11
8.32384
21
-5.30113
0
LINE
8
BLACK
6
CONTINUOUS
10
8.32384
20
-5.30113
11
8.31397
21
-5.30942
0
LINE
8
BLACK
6
CONTINUOUS
10
8.31397
20
-5.30942
11
8.30513
21
-5.31879
0
LINE
8
BLACK
6
CONTINUOUS
10
8.30513
20
-5.31879
11
8.29744
21
-5.32912
0
LINE
8
BLACK
6
CONTINUOUS
10
8.29744
20
-5.32912
11
8.291
21
-5.34028
0
LINE
8
BLACK
6
CONTINUOUS
10
8.291
20
-5.34028
11
8.28589
21
-5.35211
0
LINE
8
BLACK
6
CONTINUOUS
10
8.28589
20
-5.35211
11
8.2822
21
-5.36445
0
LINE
8
BLACK
6
CONTINUOUS
10
8.2822
20
-5.36445
11
8.27996
21
-5.37714
0
LINE
8
BLACK
6
CONTINUOUS
10
8.27996
20
-5.37714
11
8.27921
21
-5.39
0
LINE
8
BLACK
6
CONTINUOUS
10
8.27921
20
-5.39
11
8.27996
21
-5.40286
0
LINE
8
BLACK
6
CONTINUOUS
10
6.78635
20
-5.27825
11
6.79853
21
-5.28048
0
LINE
8
BLACK
6
CONTINUOUS
10
6.79853
20
-5.28048
11
6.81035
21
-5.28416
0
LINE
8
BLACK
6
CONTINUOUS
10
6.81035
20
-5.28416
11
6.82163
21
-5.28924
0
LINE
8
BLACK
6
CONTINUOUS
10
6.82163
20
-5.28924
11
6.83223
21
-5.29564
0
LINE
8
BLACK
6
CONTINUOUS
10
6.83223
20
-5.29564
11
6.84197
21
-5.30328
0
LINE
8
BLACK
6
CONTINUOUS
10
6.84197
20
-5.30328
11
6.85072
21
-5.31203
0
LINE
8
BLACK
6
CONTINUOUS
10
6.85072
20
-5.31203
11
6.85836
21
-5.32177
0
LINE
8
BLACK
6
CONTINUOUS
10
6.85836
20
-5.32177
11
6.86476
21
-5.33237
0
LINE
8
BLACK
6
CONTINUOUS
10
6.86476
20
-5.33237
11
6.86984
21
-5.34365
0
LINE
8
BLACK
6
CONTINUOUS
10
6.86984
20
-5.34365
11
6.87352
21
-5.35547
0
LINE
8
BLACK
6
CONTINUOUS
10
6.87352
20
-5.35547
11
6.87575
21
-5.36764
0
LINE
8
BLACK
6
CONTINUOUS
10
6.87575
20
-5.36764
11
6.8765
21
-5.38
0
LINE
8
BLACK
6
CONTINUOUS
10
6.8765
20
-5.38
11
6.87575
21
-5.39236
0
LINE
8
BLACK
6
CONTINUOUS
10
6.87575
20
-5.39236
11
6.87352
21
-5.40453
0
LINE
8
BLACK
6
CONTINUOUS
10
6.87352
20
-5.40453
11
6.86984
21
-5.41635
0
LINE
8
BLACK
6
CONTINUOUS
10
6.86984
20
-5.41635
11
6.86476
21
-5.42763
0
LINE
8
BLACK
6
CONTINUOUS
10
6.86476
20
-5.42763
11
6.85836
21
-5.43823
0
LINE
8
BLACK
6
CONTINUOUS
10
6.85836
20
-5.43823
11
6.85072
21
-5.44797
0
LINE
8
BLACK
6
CONTINUOUS
10
6.85072
20
-5.44797
11
6.84197
21
-5.45672
0
LINE
8
BLACK
6
CONTINUOUS
10
6.84197
20
-5.45672
11
6.83223
21
-5.46436
0
LINE
8
BLACK
6
CONTINUOUS
10
6.83223
20
-5.46436
11
6.82163
21
-5.47076
0
LINE
8
BLACK
6
CONTINUOUS
10
6.82163
20
-5.47076
11
6.81035
21
-5.47584
0
LINE
8
BLACK
6
CONTINUOUS
10
6.81035
20
-5.47584
11
6.79853
21
-5.47952
0
LINE
8
BLACK
6
CONTINUOUS
10
6.79853
20
-5.47952
11
6.78635
21
-5.48175
0
LINE
8
BLACK
6
CONTINUOUS
10
6.78635
20
-5.48175
11
6.774
21
-5.4825
0
LINE
8
BLACK
6
CONTINUOUS
10
6.774
20
-5.4825
11
6.76164
21
-5.48175
0
LINE
8
BLACK
6
CONTINUOUS
10
6.76164
20
-5.48175
11
6.74947
21
-5.47952
0
LINE
8
BLACK
6
CONTINUOUS
10
6.74947
20
-5.47952
11
6.73765
21
-5.47584
0
LINE
8
BLACK
6
CONTINUOUS
10
6.73765
20
-5.47584
11
6.72637
21
-5.47076
0
LINE
8
BLACK
6
CONTINUOUS
10
6.72637
20
-5.47076
11
6.71577
21
-5.46436
0
LINE
8
BLACK
6
CONTINUOUS
10
6.71577
20
-5.46436
11
6.70603
21
-5.45672
0
LINE
8
BLACK
6
CONTINUOUS
10
6.70603
20
-5.45672
11
6.69728
21
-5.44797
0
LINE
8
BLACK
6
CONTINUOUS
10
6.69728
20
-5.44797
11
6.68964
21
-5.43823
0
LINE
8
BLACK
6
CONTINUOUS
10
6.68964
20
-5.43823
11
6.68324
21
-5.42763
0
LINE
8
BLACK
6
CONTINUOUS
10
6.68324
20
-5.42763
11
6.67816
21
-5.41635
0
LINE
8
BLACK
6
CONTINUOUS
10
6.67816
20
-5.41635
11
6.67448
21
-5.40453
0
LINE
8
BLACK
6
CONTINUOUS
10
6.67448
20
-5.40453
11
6.67225
21
-5.39236
0
LINE
8
BLACK
6
CONTINUOUS
10
6.67225
20
-5.39236
11
6.6715
21
-5.38
0
LINE
8
BLACK
6
CONTINUOUS
10
6.6715
20
-5.38
11
6.67225
21
-5.36764
0
LINE
8
BLACK
6
CONTINUOUS
10
6.67225
20
-5.36764
11
6.67448
21
-5.35547
0
LINE
8
BLACK
6
CONTINUOUS
10
6.67448
20
-5.35547
11
6.67816
21
-5.34365
0
LINE
8
BLACK
6
CONTINUOUS
10
6.67816
20
-5.34365
11
6.68324
21
-5.33237
0
LINE
8
BLACK
6
CONTINUOUS
10
6.68324
20
-5.33237
11
6.68964
21
-5.32177
0
LINE
8
BLACK
6
CONTINUOUS
10
6.68964
20
-5.32177
11
6.69728
21
-5.31203
0
LINE
8
BLACK
6
CONTINUOUS
10
6.69728
20
-5.31203
11
6.70603
21
-5.30328
0
LINE
8
BLACK
6
CONTINUOUS
10
6.70603
20
-5.30328
11
6.71577
21
-5.29564
0
LINE
8
BLACK
6
CONTINUOUS
10
6.71577
20
-5.29564
11
6.72637
21
-5.28924
0
LINE
8
BLACK
6
CONTINUOUS
10
6.72637
20
-5.28924
11
6.73765
21
-5.28416
0
LINE
8
BLACK
6
CONTINUOUS
10
6.73765
20
-5.28416
11
6.74947
21
-5.28048
0
LINE
8
BLACK
6
CONTINUOUS
10
6.74947
20
-5.28048
11
6.76164
21
-5.27825
0
LINE
8
BLACK
6
CONTINUOUS
10
6.76164
20
-5.27825
11
6.774
21
-5.2775
0
LINE
8
BLACK
6
CONTINUOUS
10
6.774
20
-5.2775
11
6.78635
21
-5.27825
0
LINE
8
BLACK
6
CONTINUOUS
10
6.73843
20
-5.32429
11
6.73907
21
-5.32429
0
LINE
8
BLACK
6
CONTINUOUS
10
6.73907
20
-5.32429
11
6.74479
21
-5.3262
0
LINE
8
BLACK
6
CONTINUOUS
10
6.74479
20
-5.3262
11
6.74678
21
-5.32767
0
LINE
8
BLACK
6
CONTINUOUS
10
6.74678
20
-5.32767
11
6.74752
21
-5.33002
0
LINE
8
BLACK
6
CONTINUOUS
10
6.74752
20
-5.33002
11
6.74674
21
-5.33237
0
LINE
8
BLACK
6
CONTINUOUS
10
6.74674
20
-5.33237
11
6.74473
21
-5.33381
0
LINE
8
BLACK
6
CONTINUOUS
10
6.74473
20
-5.33381
11
6.74226
21
-5.33379
0
LINE
8
BLACK
6
CONTINUOUS
10
6.74226
20
-5.33379
11
6.73716
21
-5.33209
0
LINE
8
BLACK
6
CONTINUOUS
10
6.73716
20
-5.33209
11
6.72923
21
-5.33209
0
LINE
8
BLACK
6
CONTINUOUS
10
6.72923
20
-5.33209
11
6.72685
21
-5.33328
0
LINE
8
BLACK
6
CONTINUOUS
10
6.72685
20
-5.33328
11
6.72586
21
-5.33427
0
LINE
8
BLACK
6
CONTINUOUS
10
6.72586
20
-5.33427
11
6.72467
21
-5.33665
0
LINE
8
BLACK
6
CONTINUOUS
10
6.72467
20
-5.33665
11
6.72467
21
-5.33857
0
LINE
8
BLACK
6
CONTINUOUS
10
6.72467
20
-5.33857
11
6.72586
21
-5.34096
0
LINE
8
BLACK
6
CONTINUOUS
10
6.72586
20
-5.34096
11
6.72685
21
-5.34194
0
LINE
8
BLACK
6
CONTINUOUS
10
6.72685
20
-5.34194
11
6.72968
21
-5.34336
0
LINE
8
BLACK
6
CONTINUOUS
10
6.72968
20
-5.34336
11
6.73687
21
-5.34516
0
LINE
8
BLACK
6
CONTINUOUS
10
6.73687
20
-5.34516
11
6.73725
21
-5.3454
0
LINE
8
BLACK
6
CONTINUOUS
10
6.73725
20
-5.3454
11
6.73769
21
-5.34546
0
LINE
8
BLACK
6
CONTINUOUS
10
6.73769
20
-5.34546
11
6.7415
21
-5.34737
0
LINE
8
BLACK
6
CONTINUOUS
10
6.7415
20
-5.34737
11
6.74197
21
-5.34782
0
LINE
8
BLACK
6
CONTINUOUS
10
6.74197
20
-5.34782
11
6.74254
21
-5.34812
0
LINE
8
BLACK
6
CONTINUOUS
10
6.74254
20
-5.34812
11
6.74445
21
-5.35002
0
LINE
8
BLACK
6
CONTINUOUS
10
6.74445
20
-5.35002
11
6.74474
21
-5.3506
0
LINE
8
BLACK
6
CONTINUOUS
10
6.74474
20
-5.3506
11
6.7452
21
-5.35106
0
LINE
8
BLACK
6
CONTINUOUS
10
6.7452
20
-5.35106
11
6.7471
21
-5.35487
0
LINE
8
BLACK
6
CONTINUOUS
10
6.7471
20
-5.35487
11
6.74724
21
-5.35578
0
LINE
8
BLACK
6
CONTINUOUS
10
6.74724
20
-5.35578
11
6.74752
21
-5.35666
0
LINE
8
BLACK
6
CONTINUOUS
10
6.74752
20
-5.35666
11
6.74752
21
-5.36047
0
LINE
8
BLACK
6
CONTINUOUS
10
6.74752
20
-5.36047
11
6.74724
21
-5.36135
0
LINE
8
BLACK
6
CONTINUOUS
10
6.74724
20
-5.36135
11
6.7471
21
-5.36226
0
LINE
8
BLACK
6
CONTINUOUS
10
6.7471
20
-5.36226
11
6.7452
21
-5.36607
0
LINE
8
BLACK
6
CONTINUOUS
10
6.7452
20
-5.36607
11
6.74474
21
-5.36653
0
LINE
8
BLACK
6
CONTINUOUS
10
6.74474
20
-5.36653
11
6.74445
21
-5.36711
0
LINE
8
BLACK
6
CONTINUOUS
10
6.74445
20
-5.36711
11
6.74254
21
-5.36901
0
LINE
8
BLACK
6
CONTINUOUS
10
6.74254
20
-5.36901
11
6.74196
21
-5.36931
0
LINE
8
BLACK
6
CONTINUOUS
10
6.74196
20
-5.36931
11
6.7415
21
-5.36976
0
LINE
8
BLACK
6
CONTINUOUS
10
6.7415
20
-5.36976
11
6.73769
21
-5.37167
0
LINE
8
BLACK
6
CONTINUOUS
10
6.73769
20
-5.37167
11
6.73678
21
-5.3718
0
LINE
8
BLACK
6
CONTINUOUS
10
6.73678
20
-5.3718
11
6.7359
21
-5.37209
0
LINE
8
BLACK
6
CONTINUOUS
10
6.7359
20
-5.37209
11
6.72638
21
-5.37209
0
LINE
8
BLACK
6
CONTINUOUS
10
6.72638
20
-5.37209
11
6.72576
21
-5.37189
0
LINE
8
BLACK
6
CONTINUOUS
10
6.72576
20
-5.37189
11
6.72512
21
-5.37188
0
LINE
8
BLACK
6
CONTINUOUS
10
6.72512
20
-5.37188
11
6.7194
21
-5.36998
0
LINE
8
BLACK
6
CONTINUOUS
10
6.7194
20
-5.36998
11
6.71741
21
-5.36851
0
LINE
8
BLACK
6
CONTINUOUS
10
6.71741
20
-5.36851
11
6.71667
21
-5.36615
0
LINE
8
BLACK
6
CONTINUOUS
10
6.71667
20
-5.36615
11
6.71745
21
-5.36381
0
LINE
8
BLACK
6
CONTINUOUS
10
6.71745
20
-5.36381
11
6.71946
21
-5.36237
0
LINE
8
BLACK
6
CONTINUOUS
10
6.71946
20
-5.36237
11
6.72193
21
-5.36239
0
LINE
8
BLACK
6
CONTINUOUS
10
6.72193
20
-5.36239
11
6.72703
21
-5.36409
0
LINE
8
BLACK
6
CONTINUOUS
10
6.72703
20
-5.36409
11
6.73496
21
-5.36409
0
LINE
8
BLACK
6
CONTINUOUS
10
6.73496
20
-5.36409
11
6.73734
21
-5.3629
0
LINE
8
BLACK
6
CONTINUOUS
10
6.73734
20
-5.3629
11
6.73833
21
-5.36191
0
LINE
8
BLACK
6
CONTINUOUS
10
6.73833
20
-5.36191
11
6.73952
21
-5.35953
0
LINE
8
BLACK
6
CONTINUOUS
10
6.73952
20
-5.35953
11
6.73952
21
-5.3576
0
LINE
8
BLACK
6
CONTINUOUS
10
6.73952
20
-5.3576
11
6.73833
21
-5.35522
0
LINE
8
BLACK
6
CONTINUOUS
10
6.73833
20
-5.35522
11
6.73734
21
-5.35423
0
LINE
8
BLACK
6
CONTINUOUS
10
6.73734
20
-5.35423
11
6.73451
21
-5.35282
0
LINE
8
BLACK
6
CONTINUOUS
10
6.73451
20
-5.35282
11
6.72732
21
-5.35102
0
LINE
8
BLACK
6
CONTINUOUS
10
6.72732
20
-5.35102
11
6.72694
21
-5.35078
0
LINE
8
BLACK
6
CONTINUOUS
10
6.72694
20
-5.35078
11
6.7265
21
-5.35071
0
LINE
8
BLACK
6
CONTINUOUS
10
6.7265
20
-5.35071
11
6.72269
21
-5.34881
0
LINE
8
BLACK
6
CONTINUOUS
10
6.72269
20
-5.34881
11
6.72223
21
-5.34835
0
LINE
8
BLACK
6
CONTINUOUS
10
6.72223
20
-5.34835
11
6.72165
21
-5.34806
0
LINE
8
BLACK
6
CONTINUOUS
10
6.72165
20
-5.34806
11
6.71974
21
-5.34616
0
LINE
8
BLACK
6
CONTINUOUS
10
6.71974
20
-5.34616
11
6.71945
21
-5.34558
0
LINE
8
BLACK
6
CONTINUOUS
10
6.71945
20
-5.34558
11
6.71899
21
-5.34512
0
LINE
8
BLACK
6
CONTINUOUS
10
6.71899
20
-5.34512
11
6.71709
21
-5.34131
0
LINE
8
BLACK
6
CONTINUOUS
10
6.71709
20
-5.34131
11
6.71695
21
-5.34039
0
LINE
8
BLACK
6
CONTINUOUS
10
6.71695
20
-5.34039
11
6.71667
21
-5.33952
0
LINE
8
BLACK
6
CONTINUOUS
10
6.71667
20
-5.33952
11
6.71667
21
-5.33571
0
LINE
8
BLACK
6
CONTINUOUS
10
6.71667
20
-5.33571
11
6.71695
21
-5.33483
0
LINE
8
BLACK
6
CONTINUOUS
10
6.71695
20
-5.33483
11
6.71709
21
-5.33392
0
LINE
8
BLACK
6
CONTINUOUS
10
6.71709
20
-5.33392
11
6.71899
21
-5.33011
0
LINE
8
BLACK
6
CONTINUOUS
10
6.71899
20
-5.33011
11
6.71945
21
-5.32965
0
LINE
8
BLACK
6
CONTINUOUS
10
6.71945
20
-5.32965
11
6.71974
21
-5.32907
0
LINE
8
BLACK
6
CONTINUOUS
10
6.71974
20
-5.32907
11
6.72165
21
-5.32717
0
LINE
8
BLACK
6
CONTINUOUS
10
6.72165
20
-5.32717
11
6.72223
21
-5.32687
0
LINE
8
BLACK
6
CONTINUOUS
10
6.72223
20
-5.32687
11
6.72269
21
-5.32642
0
LINE
8
BLACK
6
CONTINUOUS
10
6.72269
20
-5.32642
11
6.7265
21
-5.32451
0
LINE
8
BLACK
6
CONTINUOUS
10
6.7265
20
-5.32451
11
6.72741
21
-5.32437
0
LINE
8
BLACK
6
CONTINUOUS
10
6.72741
20
-5.32437
11
6.72829
21
-5.32409
0
LINE
8
BLACK
6
CONTINUOUS
10
6.72829
20
-5.32409
11
6.73781
21
-5.32409
0
LINE
8
BLACK
6
CONTINUOUS
10
6.73781
20
-5.32409
11
6.73843
21
-5.32429
0
LINE
8
BLACK
6
CONTINUOUS
10
6.81706
20
-5.32428
11
6.81714
21
-5.32428
0
LINE
8
BLACK
6
CONTINUOUS
10
6.81714
20
-5.32428
11
6.81808
21
-5.32497
0
LINE
8
BLACK
6
CONTINUOUS
10
6.81808
20
-5.32497
11
6.81904
21
-5.32561
0
LINE
8
BLACK
6
CONTINUOUS
10
6.81904
20
-5.32561
11
6.81907
21
-5.32569
0
LINE
8
BLACK
6
CONTINUOUS
10
6.81907
20
-5.32569
11
6.81914
21
-5.32574
0
LINE
8
BLACK
6
CONTINUOUS
10
6.81914
20
-5.32574
11
6.8195
21
-5.32684
0
LINE
8
BLACK
6
CONTINUOUS
10
6.8195
20
-5.32684
11
6.8199
21
-5.32793
0
LINE
8
BLACK
6
CONTINUOUS
10
6.8199
20
-5.32793
11
6.81988
21
-5.32801
0
LINE
8
BLACK
6
CONTINUOUS
10
6.81988
20
-5.32801
11
6.8199
21
-5.32809
0
LINE
8
BLACK
6
CONTINUOUS
10
6.8199
20
-5.32809
11
6.8199
21
-5.36409
0
LINE
8
BLACK
6
CONTINUOUS
10
6.8199
20
-5.36409
11
6.82733
21
-5.36409
0
LINE
8
BLACK
6
CONTINUOUS
10
6.82733
20
-5.36409
11
6.82968
21
-5.36485
0
LINE
8
BLACK
6
CONTINUOUS
10
6.82968
20
-5.36485
11
6.83114
21
-5.36685
0
LINE
8
BLACK
6
CONTINUOUS
10
6.83114
20
-5.36685
11
6.83114
21
-5.36932
0
LINE
8
BLACK
6
CONTINUOUS
10
6.83114
20
-5.36932
11
6.82968
21
-5.37132
0
LINE
8
BLACK
6
CONTINUOUS
10
6.82968
20
-5.37132
11
6.82733
21
-5.37209
0
LINE
8
BLACK
6
CONTINUOUS
10
6.82733
20
-5.37209
11
6.80448
21
-5.37209
0
LINE
8
BLACK
6
CONTINUOUS
10
6.80448
20
-5.37209
11
6.80213
21
-5.37132
0
LINE
8
BLACK
6
CONTINUOUS
10
6.80213
20
-5.37132
11
6.80067
21
-5.36932
0
LINE
8
BLACK
6
CONTINUOUS
10
6.80067
20
-5.36932
11
6.80067
21
-5.36685
0
LINE
8
BLACK
6
CONTINUOUS
10
6.80067
20
-5.36685
11
6.80213
21
-5.36485
0
LINE
8
BLACK
6
CONTINUOUS
10
6.80213
20
-5.36485
11
6.80448
21
-5.36409
0
LINE
8
BLACK
6
CONTINUOUS
10
6.80448
20
-5.36409
11
6.8119
21
-5.36409
0
LINE
8
BLACK
6
CONTINUOUS
10
6.8119
20
-5.36409
11
6.8119
21
-5.33965
0
LINE
8
BLACK
6
CONTINUOUS
10
6.8119
20
-5.33965
11
6.81111
21
-5.34044
0
LINE
8
BLACK
6
CONTINUOUS
10
6.81111
20
-5.34044
11
6.81054
21
-5.34074
0
LINE
8
BLACK
6
CONTINUOUS
10
6.81054
20
-5.34074
11
6.81007
21
-5.34119
0
LINE
8
BLACK
6
CONTINUOUS
10
6.81007
20
-5.34119
11
6.80627
21
-5.34309
0
LINE
8
BLACK
6
CONTINUOUS
10
6.80627
20
-5.34309
11
6.80382
21
-5.34346
0
LINE
8
BLACK
6
CONTINUOUS
10
6.80382
20
-5.34346
11
6.80163
21
-5.34232
0
LINE
8
BLACK
6
CONTINUOUS
10
6.80163
20
-5.34232
11
6.80052
21
-5.34011
0
LINE
8
BLACK
6
CONTINUOUS
10
6.80052
20
-5.34011
11
6.80093
21
-5.33767
0
LINE
8
BLACK
6
CONTINUOUS
10
6.80093
20
-5.33767
11
6.80269
21
-5.33594
0
LINE
8
BLACK
6
CONTINUOUS
10
6.80269
20
-5.33594
11
6.80592
21
-5.33433
0
LINE
8
BLACK
6
CONTINUOUS
10
6.80592
20
-5.33433
11
6.80899
21
-5.33125
0
LINE
8
BLACK
6
CONTINUOUS
10
6.80899
20
-5.33125
11
6.81258
21
-5.32587
0
LINE
8
BLACK
6
CONTINUOUS
10
6.81258
20
-5.32587
11
6.81264
21
-5.32582
0
LINE
8
BLACK
6
CONTINUOUS
10
6.81264
20
-5.32582
11
6.81267
21
-5.32574
0
LINE
8
BLACK
6
CONTINUOUS
10
6.81267
20
-5.32574
11
6.81361
21
-5.32506
0
LINE
8
BLACK
6
CONTINUOUS
10
6.81361
20
-5.32506
11
6.81452
21
-5.32434
0
LINE
8
BLACK
6
CONTINUOUS
10
6.81452
20
-5.32434
11
6.8146
21
-5.32433
0
LINE
8
BLACK
6
CONTINUOUS
10
6.8146
20
-5.32433
11
6.81467
21
-5.32428
0
LINE
8
BLACK
6
CONTINUOUS
10
6.81467
20
-5.32428
11
6.81583
21
-5.32428
0
LINE
8
BLACK
6
CONTINUOUS
10
6.81583
20
-5.32428
11
6.81699
21
-5.32424
0
LINE
8
BLACK
6
CONTINUOUS
10
6.81699
20
-5.32424
11
6.81706
21
-5.32428
0
LINE
8
BLACK
6
CONTINUOUS
10
6.79323
20
-5.32467
11
6.79484
21
-5.32655
0
LINE
8
BLACK
6
CONTINUOUS
10
6.79484
20
-5.32655
11
6.79503
21
-5.32902
0
LINE
8
BLACK
6
CONTINUOUS
10
6.79503
20
-5.32902
11
6.78551
21
-5.36902
0
LINE
8
BLACK
6
CONTINUOUS
10
6.78551
20
-5.36902
11
6.78537
21
-5.36925
0
LINE
8
BLACK
6
CONTINUOUS
10
6.78537
20
-5.36925
11
6.78535
21
-5.36953
0
LINE
8
BLACK
6
CONTINUOUS
10
6.78535
20
-5.36953
11
6.78473
21
-5.37029
0
LINE
8
BLACK
6
CONTINUOUS
10
6.78473
20
-5.37029
11
6.78422
21
-5.37113
0
LINE
8
BLACK
6
CONTINUOUS
10
6.78422
20
-5.37113
11
6.78397
21
-5.37123
0
LINE
8
BLACK
6
CONTINUOUS
10
6.78397
20
-5.37123
11
6.78379
21
-5.37145
0
LINE
8
BLACK
6
CONTINUOUS
10
6.78379
20
-5.37145
11
6.78285
21
-5.3717
0
LINE
8
BLACK
6
CONTINUOUS
10
6.78285
20
-5.3717
11
6.78194
21
-5.37208
0
LINE
8
BLACK
6
CONTINUOUS
10
6.78194
20
-5.37208
11
6.78167
21
-5.37201
0
LINE
8
BLACK
6
CONTINUOUS
10
6.78167
20
-5.37201
11
6.7814
21
-5.37208
0
LINE
8
BLACK
6
CONTINUOUS
10
6.7814
20
-5.37208
11
6.78049
21
-5.37173
0
LINE
8
BLACK
6
CONTINUOUS
10
6.78049
20
-5.37173
11
6.77954
21
-5.3715
0
LINE
8
BLACK
6
CONTINUOUS
10
6.77954
20
-5.3715
11
6.77936
21
-5.37129
0
LINE
8
BLACK
6
CONTINUOUS
10
6.77936
20
-5.37129
11
6.7791
21
-5.37119
0
LINE
8
BLACK
6
CONTINUOUS
10
6.7791
20
-5.37119
11
6.77856
21
-5.37037
0
LINE
8
BLACK
6
CONTINUOUS
10
6.77856
20
-5.37037
11
6.77793
21
-5.36963
0
LINE
8
BLACK
6
CONTINUOUS
10
6.77793
20
-5.36963
11
6.7779
21
-5.36935
0
LINE
8
BLACK
6
CONTINUOUS
10
6.7779
20
-5.36935
11
6.77775
21
-5.36912
0
LINE
8
BLACK
6
CONTINUOUS
10
6.77775
20
-5.36912
11
6.774
21
-5.35504
0
LINE
8
BLACK
6
CONTINUOUS
10
6.774
20
-5.35504
11
6.77025
21
-5.36912
0
LINE
8
BLACK
6
CONTINUOUS
10
6.77025
20
-5.36912
11
6.7701
21
-5.36935
0
LINE
8
BLACK
6
CONTINUOUS
10
6.7701
20
-5.36935
11
6.77007
21
-5.36963
0
LINE
8
BLACK
6
CONTINUOUS
10
6.77007
20
-5.36963
11
6.76944
21
-5.37037
0
LINE
8
BLACK
6
CONTINUOUS
10
6.76944
20
-5.37037
11
6.7689
21
-5.37119
0
LINE
8
BLACK
6
CONTINUOUS
10
6.7689
20
-5.37119
11
6.76864
21
-5.37129
0
LINE
8
BLACK
6
CONTINUOUS
10
6.76864
20
-5.37129
11
6.76846
21
-5.3715
0
LINE
8
BLACK
6
CONTINUOUS
10
6.76846
20
-5.3715
11
6.76751
21
-5.37173
0
LINE
8
BLACK
6
CONTINUOUS
10
6.76751
20
-5.37173
11
6.7666
21
-5.37208
0
LINE
8
BLACK
6
CONTINUOUS
10
6.7666
20
-5.37208
11
6.76633
21
-5.37201
0
LINE
8
BLACK
6
CONTINUOUS
10
6.76633
20
-5.37201
11
6.76606
21
-5.37208
0
LINE
8
BLACK
6
CONTINUOUS
10
6.76606
20
-5.37208
11
6.76515
21
-5.3717
0
LINE
8
BLACK
6
CONTINUOUS
10
6.76515
20
-5.3717
11
6.76421
21
-5.37145
0
LINE
8
BLACK
6
CONTINUOUS
10
6.76421
20
-5.37145
11
6.76403
21
-5.37123
0
LINE
8
BLACK
6
CONTINUOUS
10
6.76403
20
-5.37123
11
6.76378
21
-5.37113
0
LINE
8
BLACK
6
CONTINUOUS
10
6.76378
20
-5.37113
11
6.76327
21
-5.37029
0
LINE
8
BLACK
6
CONTINUOUS
10
6.76327
20
-5.37029
11
6.76265
21
-5.36953
0
LINE
8
BLACK
6
CONTINUOUS
10
6.76265
20
-5.36953
11
6.76263
21
-5.36925
0
LINE
8
BLACK
6
CONTINUOUS
10
6.76263
20
-5.36925
11
6.76249
21
-5.36902
0
LINE
8
BLACK
6
CONTINUOUS
10
6.76249
20
-5.36902
11
6.75297
21
-5.32902
0
LINE
8
BLACK
6
CONTINUOUS
10
6.75297
20
-5.32902
11
6.75316
21
-5.32655
0
LINE
8
BLACK
6
CONTINUOUS
10
6.75316
20
-5.32655
11
6.75477
21
-5.32467
0
LINE
8
BLACK
6
CONTINUOUS
10
6.75477
20
-5.32467
11
6.75718
21
-5.3241
0
LINE
8
BLACK
6
CONTINUOUS
10
6.75718
20
-5.3241
11
6.75946
21
-5.32505
0
LINE
8
BLACK
6
CONTINUOUS
10
6.75946
20
-5.32505
11
6.76075
21
-5.32716
0
LINE
8
BLACK
6
CONTINUOUS
10
6.76075
20
-5.32716
11
6.7666
21
-5.35174
0
LINE
8
BLACK
6
CONTINUOUS
10
6.7666
20
-5.35174
11
6.77014
21
-5.33849
0
LINE
8
BLACK
6
CONTINUOUS
10
6.77014
20
-5.33849
11
6.77026
21
-5.3383
0
LINE
8
BLACK
6
CONTINUOUS
10
6.77026
20
-5.3383
11
6.77027
21
-5.33808
0
LINE
8
BLACK
6
CONTINUOUS
10
6.77027
20
-5.33808
11
6.77092
21
-5.33728
0
LINE
8
BLACK
6
CONTINUOUS
10
6.77092
20
-5.33728
11
6.77148
21
-5.33641
0
LINE
8
BLACK
6
CONTINUOUS
10
6.77148
20
-5.33641
11
6.77169
21
-5.33633
0
LINE
8
BLACK
6
CONTINUOUS
10
6.77169
20
-5.33633
11
6.77183
21
-5.33616
0
LINE
8
BLACK
6
CONTINUOUS
10
6.77183
20
-5.33616
11
6.77282
21
-5.33589
0
LINE
8
BLACK
6
CONTINUOUS
10
6.77282
20
-5.33589
11
6.77379
21
-5.33552
0
LINE
8
BLACK
6
CONTINUOUS
10
6.77379
20
-5.33552
11
6.774
21
-5.33558
0
LINE
8
BLACK
6
CONTINUOUS
10
6.774
20
-5.33558
11
6.77421
21
-5.33552
0
LINE
8
BLACK
6
CONTINUOUS
10
6.77421
20
-5.33552
11
6.77518
21
-5.33589
0
LINE
8
BLACK
6
CONTINUOUS
10
6.77518
20
-5.33589
11
6.77617
21
-5.33616
0
LINE
8
BLACK
6
CONTINUOUS
10
6.77617
20
-5.33616
11
6.77631
21
-5.33633
0
LINE
8
BLACK
6
CONTINUOUS
10
6.77631
20
-5.33633
11
6.77652
21
-5.33641
0
LINE
8
BLACK
6
CONTINUOUS
10
6.77652
20
-5.33641
11
6.77708
21
-5.33728
0
LINE
8
BLACK
6
CONTINUOUS
10
6.77708
20
-5.33728
11
6.77773
21
-5.33808
0
LINE
8
BLACK
6
CONTINUOUS
10
6.77773
20
-5.33808
11
6.77774
21
-5.3383
0
LINE
8
BLACK
6
CONTINUOUS
10
6.77774
20
-5.3383
11
6.77786
21
-5.33849
0
LINE
8
BLACK
6
CONTINUOUS
10
6.77786
20
-5.33849
11
6.7814
21
-5.35174
0
LINE
8
BLACK
6
CONTINUOUS
10
6.7814
20
-5.35174
11
6.78725
21
-5.32716
0
LINE
8
BLACK
6
CONTINUOUS
10
6.78725
20
-5.32716
11
6.78854
21
-5.32505
0
LINE
8
BLACK
6
CONTINUOUS
10
6.78854
20
-5.32505
11
6.79082
21
-5.3241
0
LINE
8
BLACK
6
CONTINUOUS
10
6.79082
20
-5.3241
11
6.79323
21
-5.32467
0
LINE
8
BLACK
6
CONTINUOUS
10
6.67708
20
-5.39224
11
6.67938
21
-5.4043
0
LINE
8
BLACK
6
CONTINUOUS
10
6.67938
20
-5.4043
11
6.68317
21
-5.41596
0
LINE
8
BLACK
6
CONTINUOUS
10
6.68317
20
-5.41596
11
6.68839
21
-5.42706
0
LINE
8
BLACK
6
CONTINUOUS
10
6.68839
20
-5.42706
11
6.69496
21
-5.43742
0
LINE
8
BLACK
6
CONTINUOUS
10
6.69496
20
-5.43742
11
6.70279
21
-5.44688
0
LINE
8
BLACK
6
CONTINUOUS
10
6.70279
20
-5.44688
11
6.71173
21
-5.45527
0
LINE
8
BLACK
6
CONTINUOUS
10
6.71173
20
-5.45527
11
6.72165
21
-5.46248
0
LINE
8
BLACK
6
CONTINUOUS
10
6.72165
20
-5.46248
11
6.7324
21
-5.4684
0
LINE
8
BLACK
6
CONTINUOUS
10
6.7324
20
-5.4684
11
6.74381
21
-5.47291
0
LINE
8
BLACK
6
CONTINUOUS
10
6.74381
20
-5.47291
11
6.75569
21
-5.47596
0
LINE
8
BLACK
6
CONTINUOUS
10
6.75569
20
-5.47596
11
6.76787
21
-5.4775
0
LINE
8
BLACK
6
CONTINUOUS
10
6.76787
20
-5.4775
11
6.78013
21
-5.4775
0
LINE
8
BLACK
6
CONTINUOUS
10
6.78013
20
-5.4775
11
6.79231
21
-5.47596
0
LINE
8
BLACK
6
CONTINUOUS
10
6.79231
20
-5.47596
11
6.80419
21
-5.47291
0
LINE
8
BLACK
6
CONTINUOUS
10
6.80419
20
-5.47291
11
6.8156
21
-5.4684
0
LINE
8
BLACK
6
CONTINUOUS
10
6.8156
20
-5.4684
11
6.82635
21
-5.46248
0
LINE
8
BLACK
6
CONTINUOUS
10
6.82635
20
-5.46248
11
6.83627
21
-5.45527
0
LINE
8
BLACK
6
CONTINUOUS
10
6.83627
20
-5.45527
11
6.84521
21
-5.44688
0
LINE
8
BLACK
6
CONTINUOUS
10
6.84521
20
-5.44688
11
6.85304
21
-5.43742
0
LINE
8
BLACK
6
CONTINUOUS
10
6.85304
20
-5.43742
11
6.85961
21
-5.42706
0
LINE
8
BLACK
6
CONTINUOUS
10
6.85961
20
-5.42706
11
6.86483
21
-5.41596
0
LINE
8
BLACK
6
CONTINUOUS
10
6.86483
20
-5.41596
11
6.86862
21
-5.4043
0
LINE
8
BLACK
6
CONTINUOUS
10
6.86862
20
-5.4043
11
6.87092
21
-5.39224
0
LINE
8
BLACK
6
CONTINUOUS
10
6.87092
20
-5.39224
11
6.87169
21
-5.38
0
LINE
8
BLACK
6
CONTINUOUS
10
6.87169
20
-5.38
11
6.87092
21
-5.36776
0
LINE
8
BLACK
6
CONTINUOUS
10
6.87092
20
-5.36776
11
6.86862
21
-5.3557
0
LINE
8
BLACK
6
CONTINUOUS
10
6.86862
20
-5.3557
11
6.86483
21
-5.34404
0
LINE
8
BLACK
6
CONTINUOUS
10
6.86483
20
-5.34404
11
6.85961
21
-5.33294
0
LINE
8
BLACK
6
CONTINUOUS
10
6.85961
20
-5.33294
11
6.85304
21
-5.32258
0
LINE
8
BLACK
6
CONTINUOUS
10
6.85304
20
-5.32258
11
6.84521
21
-5.31312
0
LINE
8
BLACK
6
CONTINUOUS
10
6.84521
20
-5.31312
11
6.83627
21
-5.30473
0
LINE
8
BLACK
6
CONTINUOUS
10
6.83627
20
-5.30473
11
6.82635
21
-5.29752
0
LINE
8
BLACK
6
CONTINUOUS
10
6.82635
20
-5.29752
11
6.8156
21
-5.2916
0
LINE
8
BLACK
6
CONTINUOUS
10
6.8156
20
-5.2916
11
6.80419
21
-5.28709
0
LINE
8
BLACK
6
CONTINUOUS
10
6.80419
20
-5.28709
11
6.79231
21
-5.28404
0
LINE
8
BLACK
6
CONTINUOUS
10
6.79231
20
-5.28404
11
6.78013
21
-5.2825
0
LINE
8
BLACK
6
CONTINUOUS
10
6.78013
20
-5.2825
11
6.76787
21
-5.2825
0
LINE
8
BLACK
6
CONTINUOUS
10
6.76787
20
-5.2825
11
6.75569
21
-5.28404
0
LINE
8
BLACK
6
CONTINUOUS
10
6.75569
20
-5.28404
11
6.74381
21
-5.28709
0
LINE
8
BLACK
6
CONTINUOUS
10
6.74381
20
-5.28709
11
6.7324
21
-5.2916
0
LINE
8
BLACK
6
CONTINUOUS
10
6.7324
20
-5.2916
11
6.72165
21
-5.29752
0
LINE
8
BLACK
6
CONTINUOUS
10
6.72165
20
-5.29752
11
6.71173
21
-5.30473
0
LINE
8
BLACK
6
CONTINUOUS
10
6.71173
20
-5.30473
11
6.70279
21
-5.31312
0
LINE
8
BLACK
6
CONTINUOUS
10
6.70279
20
-5.31312
11
6.69496
21
-5.32258
0
LINE
8
BLACK
6
CONTINUOUS
10
6.69496
20
-5.32258
11
6.68839
21
-5.33294
0
LINE
8
BLACK
6
CONTINUOUS
10
6.68839
20
-5.33294
11
6.68317
21
-5.34404
0
LINE
8
BLACK
6
CONTINUOUS
10
6.68317
20
-5.34404
11
6.67938
21
-5.3557
0
LINE
8
BLACK
6
CONTINUOUS
10
6.67938
20
-5.3557
11
6.67708
21
-5.36776
0
LINE
8
BLACK
6
CONTINUOUS
10
6.67708
20
-5.36776
11
6.67631
21
-5.38
0
LINE
8
BLACK
6
CONTINUOUS
10
6.67631
20
-5.38
11
6.67708
21
-5.39224
0
LINE
8
BLACK
6
CONTINUOUS
10
6.62606
20
-5.32715
11
6.62676
21
-5.32882
0
LINE
8
BLACK
6
CONTINUOUS
10
6.62676
20
-5.32882
11
6.62676
21
-5.43118
0
LINE
8
BLACK
6
CONTINUOUS
10
6.62676
20
-5.43118
11
6.62606
21
-5.43285
0
LINE
8
BLACK
6
CONTINUOUS
10
6.62606
20
-5.43285
11
6.62439
21
-5.43354
0
LINE
8
BLACK
6
CONTINUOUS
10
6.62439
20
-5.43354
11
6.62272
21
-5.43285
0
LINE
8
BLACK
6
CONTINUOUS
10
6.62272
20
-5.43285
11
6.62203
21
-5.43118
0
LINE
8
BLACK
6
CONTINUOUS
10
6.62203
20
-5.43118
11
6.62203
21
-5.32882
0
LINE
8
BLACK
6
CONTINUOUS
10
6.62203
20
-5.32882
11
6.62272
21
-5.32715
0
LINE
8
BLACK
6
CONTINUOUS
10
6.62272
20
-5.32715
11
6.62439
21
-5.32646
0
LINE
8
BLACK
6
CONTINUOUS
10
6.62439
20
-5.32646
11
6.62606
21
-5.32715
0
LINE
8
BLACK
6
CONTINUOUS
10
6.92528
20
-5.32715
11
6.92597
21
-5.32882
0
LINE
8
BLACK
6
CONTINUOUS
10
6.92597
20
-5.32882
11
6.92597
21
-5.43118
0
LINE
8
BLACK
6
CONTINUOUS
10
6.92597
20
-5.43118
11
6.92528
21
-5.43285
0
LINE
8
BLACK
6
CONTINUOUS
10
6.92528
20
-5.43285
11
6.92361
21
-5.43354
0
LINE
8
BLACK
6
CONTINUOUS
10
6.92361
20
-5.43354
11
6.92194
21
-5.43285
0
LINE
8
BLACK
6
CONTINUOUS
10
6.92194
20
-5.43285
11
6.92124
21
-5.43118
0
LINE
8
BLACK
6
CONTINUOUS
10
6.92124
20
-5.43118
11
6.92124
21
-5.32882
0
LINE
8
BLACK
6
CONTINUOUS
10
6.92124
20
-5.32882
11
6.92194
21
-5.32715
0
LINE
8
BLACK
6
CONTINUOUS
10
6.92194
20
-5.32715
11
6.92361
21
-5.32646
0
LINE
8
BLACK
6
CONTINUOUS
10
6.92361
20
-5.32646
11
6.92528
21
-5.32715
0
LINE
8
BLACK
6
CONTINUOUS
10
7.11047
20
-5.34691
11
7.11202
21
-5.34821
0
LINE
8
BLACK
6
CONTINUOUS
10
7.11202
20
-5.34821
11
7.11237
21
-5.3502
0
LINE
8
BLACK
6
CONTINUOUS
10
7.11237
20
-5.3502
11
7.11136
21
-5.35195
0
LINE
8
BLACK
6
CONTINUOUS
10
7.11136
20
-5.35195
11
7.10946
21
-5.35264
0
LINE
8
BLACK
6
CONTINUOUS
10
7.10946
20
-5.35264
11
7.0941
21
-5.35264
0
LINE
8
BLACK
6
CONTINUOUS
10
7.0941
20
-5.35264
11
7.11155
21
-5.3701
0
LINE
8
BLACK
6
CONTINUOUS
10
7.11155
20
-5.3701
11
7.11214
21
-5.37094
0
LINE
8
BLACK
6
CONTINUOUS
10
7.11214
20
-5.37094
11
7.11232
21
-5.37295
0
LINE
8
BLACK
6
CONTINUOUS
10
7.11232
20
-5.37295
11
7.11116
21
-5.3746
0
LINE
8
BLACK
6
CONTINUOUS
10
7.11116
20
-5.3746
11
7.10921
21
-5.37513
0
LINE
8
BLACK
6
CONTINUOUS
10
7.10921
20
-5.37513
11
7.10738
21
-5.37427
0
LINE
8
BLACK
6
CONTINUOUS
10
7.10738
20
-5.37427
11
7.09231
21
-5.35921
0
LINE
8
BLACK
6
CONTINUOUS
10
7.09231
20
-5.35921
11
7.07187
21
-5.37455
0
LINE
8
BLACK
6
CONTINUOUS
10
7.07187
20
-5.37455
11
7.07095
21
-5.37501
0
LINE
8
BLACK
6
CONTINUOUS
10
7.07095
20
-5.37501
11
7.06893
21
-5.3749
0
LINE
8
BLACK
6
CONTINUOUS
10
7.06893
20
-5.3749
11
7.06746
21
-5.37352
0
LINE
8
BLACK
6
CONTINUOUS
10
7.06746
20
-5.37352
11
7.06722
21
-5.37152
0
LINE
8
BLACK
6
CONTINUOUS
10
7.06722
20
-5.37152
11
7.06832
21
-5.36982
0
LINE
8
BLACK
6
CONTINUOUS
10
7.06832
20
-5.36982
11
7.0881
21
-5.35499
0
LINE
8
BLACK
6
CONTINUOUS
10
7.0881
20
-5.35499
11
7.08574
21
-5.35264
0
LINE
8
BLACK
6
CONTINUOUS
10
7.08574
20
-5.35264
11
7.07009
21
-5.35264
0
LINE
8
BLACK
6
CONTINUOUS
10
7.07009
20
-5.35264
11
7.06908
21
-5.35246
0
LINE
8
BLACK
6
CONTINUOUS
10
7.06908
20
-5.35246
11
7.06754
21
-5.35117
0
LINE
8
BLACK
6
CONTINUOUS
10
7.06754
20
-5.35117
11
7.06719
21
-5.34918
0
LINE
8
BLACK
6
CONTINUOUS
10
7.06719
20
-5.34918
11
7.0682
21
-5.34743
0
LINE
8
BLACK
6
CONTINUOUS
10
7.0682
20
-5.34743
11
7.07009
21
-5.34674
0
LINE
8
BLACK
6
CONTINUOUS
10
7.07009
20
-5.34674
11
7.10946
21
-5.34674
0
LINE
8
BLACK
6
CONTINUOUS
10
7.10946
20
-5.34674
11
7.11047
21
-5.34691
0
LINE
8
BLACK
6
CONTINUOUS
10
7.27047
20
-5.34691
11
7.27202
21
-5.34821
0
LINE
8
BLACK
6
CONTINUOUS
10
7.27202
20
-5.34821
11
7.27237
21
-5.3502
0
LINE
8
BLACK
6
CONTINUOUS
10
7.27237
20
-5.3502
11
7.27136
21
-5.35195
0
LINE
8
BLACK
6
CONTINUOUS
10
7.27136
20
-5.35195
11
7.26946
21
-5.35264
0
LINE
8
BLACK
6
CONTINUOUS
10
7.26946
20
-5.35264
11
7.2541
21
-5.35264
0
LINE
8
BLACK
6
CONTINUOUS
10
7.2541
20
-5.35264
11
7.27155
21
-5.3701
0
LINE
8
BLACK
6
CONTINUOUS
10
7.27155
20
-5.3701
11
7.27214
21
-5.37094
0
LINE
8
BLACK
6
CONTINUOUS
10
7.27214
20
-5.37094
11
7.27232
21
-5.37295
0
LINE
8
BLACK
6
CONTINUOUS
10
7.27232
20
-5.37295
11
7.27116
21
-5.3746
0
LINE
8
BLACK
6
CONTINUOUS
10
7.27116
20
-5.3746
11
7.26921
21
-5.37513
0
LINE
8
BLACK
6
CONTINUOUS
10
7.26921
20
-5.37513
11
7.26738
21
-5.37427
0
LINE
8
BLACK
6
CONTINUOUS
10
7.26738
20
-5.37427
11
7.25231
21
-5.35921
0
LINE
8
BLACK
6
CONTINUOUS
10
7.25231
20
-5.35921
11
7.23187
21
-5.37455
0
LINE
8
BLACK
6
CONTINUOUS
10
7.23187
20
-5.37455
11
7.23095
21
-5.37501
0
LINE
8
BLACK
6
CONTINUOUS
10
7.23095
20
-5.37501
11
7.22893
21
-5.3749
0
LINE
8
BLACK
6
CONTINUOUS
10
7.22893
20
-5.3749
11
7.22746
21
-5.37352
0
LINE
8
BLACK
6
CONTINUOUS
10
7.22746
20
-5.37352
11
7.22722
21
-5.37152
0
LINE
8
BLACK
6
CONTINUOUS
10
7.22722
20
-5.37152
11
7.22832
21
-5.36982
0
LINE
8
BLACK
6
CONTINUOUS
10
7.22832
20
-5.36982
11
7.2481
21
-5.35499
0
LINE
8
BLACK
6
CONTINUOUS
10
7.2481
20
-5.35499
11
7.24574
21
-5.35264
0
LINE
8
BLACK
6
CONTINUOUS
10
7.24574
20
-5.35264
11
7.23009
21
-5.35264
0
LINE
8
BLACK
6
CONTINUOUS
10
7.23009
20
-5.35264
11
7.22908
21
-5.35246
0
LINE
8
BLACK
6
CONTINUOUS
10
7.22908
20
-5.35246
11
7.22754
21
-5.35117
0
LINE
8
BLACK
6
CONTINUOUS
10
7.22754
20
-5.35117
11
7.22719
21
-5.34918
0
LINE
8
BLACK
6
CONTINUOUS
10
7.22719
20
-5.34918
11
7.2282
21
-5.34743
0
LINE
8
BLACK
6
CONTINUOUS
10
7.2282
20
-5.34743
11
7.23009
21
-5.34674
0
LINE
8
BLACK
6
CONTINUOUS
10
7.23009
20
-5.34674
11
7.26946
21
-5.34674
0
LINE
8
BLACK
6
CONTINUOUS
10
7.26946
20
-5.34674
11
7.27047
21
-5.34691
0
LINE
8
BLACK
6
CONTINUOUS
10
6.92361
20
-5.22803
11
6.92528
21
-5.22872
0
LINE
8
BLACK
6
CONTINUOUS
10
6.92528
20
-5.22872
11
6.92597
21
-5.23039
0
LINE
8
BLACK
6
CONTINUOUS
10
6.92597
20
-5.23039
11
6.92597
21
-5.25008
0
LINE
8
BLACK
6
CONTINUOUS
10
6.92597
20
-5.25008
11
6.92528
21
-5.25175
0
LINE
8
BLACK
6
CONTINUOUS
10
6.92528
20
-5.25175
11
6.92361
21
-5.25244
0
LINE
8
BLACK
6
CONTINUOUS
10
6.92361
20
-5.25244
11
6.92194
21
-5.25175
0
LINE
8
BLACK
6
CONTINUOUS
10
6.92194
20
-5.25175
11
6.92124
21
-5.25008
0
LINE
8
BLACK
6
CONTINUOUS
10
6.92124
20
-5.25008
11
6.92124
21
-5.23276
0
LINE
8
BLACK
6
CONTINUOUS
10
6.92124
20
-5.23276
11
6.62676
21
-5.23276
0
LINE
8
BLACK
6
CONTINUOUS
10
6.62676
20
-5.23276
11
6.62676
21
-5.25402
0
LINE
8
BLACK
6
CONTINUOUS
10
6.62676
20
-5.25402
11
6.62606
21
-5.25569
0
LINE
8
BLACK
6
CONTINUOUS
10
6.62606
20
-5.25569
11
6.62439
21
-5.25638
0
LINE
8
BLACK
6
CONTINUOUS
10
6.62439
20
-5.25638
11
6.62272
21
-5.25569
0
LINE
8
BLACK
6
CONTINUOUS
10
6.62272
20
-5.25569
11
6.62203
21
-5.25402
0
LINE
8
BLACK
6
CONTINUOUS
10
6.62203
20
-5.25402
11
6.62203
21
-5.23039
0
LINE
8
BLACK
6
CONTINUOUS
10
6.62203
20
-5.23039
11
6.62272
21
-5.22872
0
LINE
8
BLACK
6
CONTINUOUS
10
6.62272
20
-5.22872
11
6.62439
21
-5.22803
0
LINE
8
BLACK
6
CONTINUOUS
10
6.62439
20
-5.22803
11
6.92361
21
-5.22803
0
LINE
8
BLACK
6
CONTINUOUS
10
7.26038
20
-4.88711
11
7.26051
21
-4.88709
0
LINE
8
BLACK
6
CONTINUOUS
10
7.26051
20
-4.88709
11
7.26063
21
-4.88716
0
LINE
8
BLACK
6
CONTINUOUS
10
7.26063
20
-4.88716
11
7.26101
21
-4.88723
0
LINE
8
BLACK
6
CONTINUOUS
10
7.26101
20
-4.88723
11
7.2616
21
-4.88772
0
LINE
8
BLACK
6
CONTINUOUS
10
7.2616
20
-4.88772
11
7.26226
21
-4.8881
0
LINE
8
BLACK
6
CONTINUOUS
10
7.26226
20
-4.8881
11
7.26235
21
-4.88835
0
LINE
8
BLACK
6
CONTINUOUS
10
7.26235
20
-4.88835
11
7.26256
21
-4.88852
0
LINE
8
BLACK
6
CONTINUOUS
10
7.26256
20
-4.88852
11
7.26269
21
-4.88928
0
LINE
8
BLACK
6
CONTINUOUS
10
7.26269
20
-4.88928
11
7.26295
21
-4.89
0
LINE
8
BLACK
6
CONTINUOUS
10
7.26295
20
-4.89
11
7.26295
21
-4.99
0
LINE
8
BLACK
6
CONTINUOUS
10
7.26295
20
-4.99
11
7.26295
21
-5.09
0
LINE
8
BLACK
6
CONTINUOUS
10
7.26295
20
-5.09
11
7.26295
21
-5.19
0
LINE
8
BLACK
6
CONTINUOUS
10
7.26295
20
-5.19
11
7.26289
21
-5.19038
0
LINE
8
BLACK
6
CONTINUOUS
10
7.26289
20
-5.19038
11
7.26291
21
-5.19051
0
LINE
8
BLACK
6
CONTINUOUS
10
7.26291
20
-5.19051
11
7.26284
21
-5.19063
0
LINE
8
BLACK
6
CONTINUOUS
10
7.26284
20
-5.19063
11
7.26277
21
-5.19101
0
LINE
8
BLACK
6
CONTINUOUS
10
7.26277
20
-5.19101
11
7.26228
21
-5.1916
0
LINE
8
BLACK
6
CONTINUOUS
10
7.26228
20
-5.1916
11
7.2619
21
-5.19226
0
LINE
8
BLACK
6
CONTINUOUS
10
7.2619
20
-5.19226
11
7.26165
21
-5.19235
0
LINE
8
BLACK
6
CONTINUOUS
10
7.26165
20
-5.19235
11
7.26148
21
-5.19256
0
LINE
8
BLACK
6
CONTINUOUS
10
7.26148
20
-5.19256
11
7.26072
21
-5.19269
0
LINE
8
BLACK
6
CONTINUOUS
10
7.26072
20
-5.19269
11
7.26
21
-5.19295
0
LINE
8
BLACK
6
CONTINUOUS
10
7.26
20
-5.19295
11
7.06
21
-5.19295
0
LINE
8
BLACK
6
CONTINUOUS
10
7.06
20
-5.19295
11
7.05962
21
-5.19289
0
LINE
8
BLACK
6
CONTINUOUS
10
7.05962
20
-5.19289
11
7.05949
21
-5.19291
0
LINE
8
BLACK
6
CONTINUOUS
10
7.05949
20
-5.19291
11
7.05937
21
-5.19284
0
LINE
8
BLACK
6
CONTINUOUS
10
7.05937
20
-5.19284
11
7.05899
21
-5.19277
0
LINE
8
BLACK
6
CONTINUOUS
10
7.05899
20
-5.19277
11
7.0584
21
-5.19228
0
LINE
8
BLACK
6
CONTINUOUS
10
7.0584
20
-5.19228
11
7.05774
21
-5.1919
0
LINE
8
BLACK
6
CONTINUOUS
10
7.05774
20
-5.1919
11
7.05765
21
-5.19165
0
LINE
8
BLACK
6
CONTINUOUS
10
7.05765
20
-5.19165
11
7.05744
21
-5.19148
0
LINE
8
BLACK
6
CONTINUOUS
10
7.05744
20
-5.19148
11
7.05731
21
-5.19072
0
LINE
8
BLACK
6
CONTINUOUS
10
7.05731
20
-5.19072
11
7.05705
21
-5.19
0
LINE
8
BLACK
6
CONTINUOUS
10
7.05705
20
-5.19
11
7.05705
21
-5.09
0
LINE
8
BLACK
6
CONTINUOUS
10
7.05705
20
-5.09
11
7.05705
21
-5.09
0
LINE
8
BLACK
6
CONTINUOUS
10
7.05705
20
-5.09
11
7.05705
21
-4.99
0
LINE
8
BLACK
6
CONTINUOUS
10
7.05705
20
-4.99
11
7.05705
21
-4.99
0
LINE
8
BLACK
6
CONTINUOUS
10
7.05705
20
-4.99
11
7.05705
21
-4.89
0
LINE
8
BLACK
6
CONTINUOUS
10
7.05705
20
-4.89
11
7.05711
21
-4.88962
0
LINE
8
BLACK
6
CONTINUOUS
10
7.05711
20
-4.88962
11
7.05709
21
-4.88949
0
LINE
8
BLACK
6
CONTINUOUS
10
7.05709
20
-4.88949
11
7.05716
21
-4.88937
0
LINE
8
BLACK
6
CONTINUOUS
10
7.05716
20
-4.88937
11
7.05723
21
-4.88899
0
LINE
8
BLACK
6
CONTINUOUS
10
7.05723
20
-4.88899
11
7.05772
21
-4.8884
0
LINE
8
BLACK
6
CONTINUOUS
10
7.05772
20
-4.8884
11
7.0581
21
-4.88774
0
LINE
8
BLACK
6
CONTINUOUS
10
7.0581
20
-4.88774
11
7.05835
21
-4.88765
0
LINE
8
BLACK
6
CONTINUOUS
10
7.05835
20
-4.88765
11
7.05852
21
-4.88744
0
LINE
8
BLACK
6
CONTINUOUS
10
7.05852
20
-4.88744
11
7.05928
21
-4.88731
0
LINE
8
BLACK
6
CONTINUOUS
10
7.05928
20
-4.88731
11
7.06
21
-4.88705
0
LINE
8
BLACK
6
CONTINUOUS
10
7.06
20
-4.88705
11
7.26
21
-4.88705
0
LINE
8
BLACK
6
CONTINUOUS
10
7.26
20
-4.88705
11
7.26038
21
-4.88711
0
LINE
8
BLACK
6
CONTINUOUS
10
7.06295
20
-5.09295
11
7.06295
21
-5.18705
0
LINE
8
BLACK
6
CONTINUOUS
10
7.06295
20
-5.18705
11
7.25705
21
-5.18705
0
LINE
8
BLACK
6
CONTINUOUS
10
7.25705
20
-5.18705
11
7.25705
21
-5.09295
0
LINE
8
BLACK
6
CONTINUOUS
10
7.25705
20
-5.09295
11
7.06295
21
-5.09295
0
LINE
8
BLACK
6
CONTINUOUS
10
7.06295
20
-4.99295
11
7.06295
21
-5.08705
0
LINE
8
BLACK
6
CONTINUOUS
10
7.06295
20
-5.08705
11
7.25705
21
-5.08705
0
LINE
8
BLACK
6
CONTINUOUS
10
7.25705
20
-5.08705
11
7.25705
21
-4.99295
0
LINE
8
BLACK
6
CONTINUOUS
10
7.25705
20
-4.99295
11
7.06295
21
-4.99295
0
LINE
8
BLACK
6
CONTINUOUS
10
7.06295
20
-4.89295
11
7.06295
21
-4.98705
0
LINE
8
BLACK
6
CONTINUOUS
10
7.06295
20
-4.98705
11
7.25705
21
-4.98705
0
LINE
8
BLACK
6
CONTINUOUS
10
7.25705
20
-4.98705
11
7.25705
21
-4.89295
0
LINE
8
BLACK
6
CONTINUOUS
10
7.25705
20
-4.89295
11
7.06295
21
-4.89295
0
LINE
8
BLACK
6
CONTINUOUS
10
8.54038
20
-4.38711
11
8.54051
21
-4.38709
0
LINE
8
BLACK
6
CONTINUOUS
10
8.54051
20
-4.38709
11
8.54063
21
-4.38716
0
LINE
8
BLACK
6
CONTINUOUS
10
8.54063
20
-4.38716
11
8.54101
21
-4.38723
0
LINE
8
BLACK
6
CONTINUOUS
10
8.54101
20
-4.38723
11
8.5416
21
-4.38772
0
LINE
8
BLACK
6
CONTINUOUS
10
8.5416
20
-4.38772
11
8.54226
21
-4.3881
0
LINE
8
BLACK
6
CONTINUOUS
10
8.54226
20
-4.3881
11
8.54235
21
-4.38835
0
LINE
8
BLACK
6
CONTINUOUS
10
8.54235
20
-4.38835
11
8.54256
21
-4.38852
0
LINE
8
BLACK
6
CONTINUOUS
10
8.54256
20
-4.38852
11
8.54269
21
-4.38928
0
LINE
8
BLACK
6
CONTINUOUS
10
8.54269
20
-4.38928
11
8.54295
21
-4.39
0
LINE
8
BLACK
6
CONTINUOUS
10
8.54295
20
-4.39
11
8.54295
21
-4.49
0
LINE
8
BLACK
6
CONTINUOUS
10
8.54295
20
-4.49
11
8.54295
21
-4.59
0
LINE
8
BLACK
6
CONTINUOUS
10
8.54295
20
-4.59
11
8.54295
21
-4.69
0
LINE
8
BLACK
6
CONTINUOUS
10
8.54295
20
-4.69
11
8.54295
21
-4.79
0
LINE
8
BLACK
6
CONTINUOUS
10
8.54295
20
-4.79
11
8.54295
21
-4.79
0
LINE
8
BLACK
6
CONTINUOUS
10
8.54295
20
-4.79
11
8.54295
21
-4.89
0
LINE
8
BLACK
6
CONTINUOUS
10
8.54295
20
-4.89
11
8.54295
21
-4.99
0
LINE
8
BLACK
6
CONTINUOUS
10
8.54295
20
-4.99
11
8.54295
21
-5.09
0
LINE
8
BLACK
6
CONTINUOUS
10
8.54295
20
-5.09
11
8.54295
21
-5.19
0
LINE
8
BLACK
6
CONTINUOUS
10
8.54295
20
-5.19
11
8.54289
21
-5.19038
0
LINE
8
BLACK
6
CONTINUOUS
10
8.54289
20
-5.19038
11
8.54291
21
-5.19051
0
LINE
8
BLACK
6
CONTINUOUS
10
8.54291
20
-5.19051
11
8.54284
21
-5.19063
0
LINE
8
BLACK
6
CONTINUOUS
10
8.54284
20
-5.19063
11
8.54277
21
-5.19101
0
LINE
8
BLACK
6
CONTINUOUS
10
8.54277
20
-5.19101
11
8.54228
21
-5.1916
0
LINE
8
BLACK
6
CONTINUOUS
10
8.54228
20
-5.1916
11
8.5419
21
-5.19226
0
LINE
8
BLACK
6
CONTINUOUS
10
8.5419
20
-5.19226
11
8.54165
21
-5.19235
0
LINE
8
BLACK
6
CONTINUOUS
10
8.54165
20
-5.19235
11
8.54148
21
-5.19256
0
LINE
8
BLACK
6
CONTINUOUS
10
8.54148
20
-5.19256
11
8.54072
21
-5.19269
0
LINE
8
BLACK
6
CONTINUOUS
10
8.54072
20
-5.19269
11
8.54
21
-5.19295
0
LINE
8
BLACK
6
CONTINUOUS
10
8.54
20
-5.19295
11
8.34
21
-5.19295
0
LINE
8
BLACK
6
CONTINUOUS
10
8.34
20
-5.19295
11
8.33962
21
-5.19289
0
LINE
8
BLACK
6
CONTINUOUS
10
8.33962
20
-5.19289
11
8.33949
21
-5.19291
0
LINE
8
BLACK
6
CONTINUOUS
10
8.33949
20
-5.19291
11
8.33937
21
-5.19284
0
LINE
8
BLACK
6
CONTINUOUS
10
8.33937
20
-5.19284
11
8.33899
21
-5.19277
0
LINE
8
BLACK
6
CONTINUOUS
10
8.33899
20
-5.19277
11
8.3384
21
-5.19228
0
LINE
8
BLACK
6
CONTINUOUS
10
8.3384
20
-5.19228
11
8.33774
21
-5.1919
0
LINE
8
BLACK
6
CONTINUOUS
10
8.33774
20
-5.1919
11
8.33765
21
-5.19165
0
LINE
8
BLACK
6
CONTINUOUS
10
8.33765
20
-5.19165
11
8.33744
21
-5.19148
0
LINE
8
BLACK
6
CONTINUOUS
10
8.33744
20
-5.19148
11
8.33731
21
-5.19072
0
LINE
8
BLACK
6
CONTINUOUS
10
8.33731
20
-5.19072
11
8.33705
21
-5.19
0
LINE
8
BLACK
6
CONTINUOUS
10
8.33705
20
-5.19
11
8.33705
21
-5.09
0
LINE
8
BLACK
6
CONTINUOUS
10
8.33705
20
-5.09
11
8.33705
21
-5.09
0
LINE
8
BLACK
6
CONTINUOUS
10
8.33705
20
-5.09
11
8.33705
21
-4.99
0
LINE
8
BLACK
6
CONTINUOUS
10
8.33705
20
-4.99
11
8.33705
21
-4.99
0
LINE
8
BLACK
6
CONTINUOUS
10
8.33705
20
-4.99
11
8.33705
21
-4.89
0
LINE
8
BLACK
6
CONTINUOUS
10
8.33705
20
-4.89
11
8.33705
21
-4.89
0
LINE
8
BLACK
6
CONTINUOUS
10
8.33705
20
-4.89
11
8.33705
21
-4.79
0
LINE
8
BLACK
6
CONTINUOUS
10
8.33705
20
-4.79
11
8.33705
21
-4.79
0
LINE
8
BLACK
6
CONTINUOUS
10
8.33705
20
-4.79
11
8.33705
21
-4.69
0
LINE
8
BLACK
6
CONTINUOUS
10
8.33705
20
-4.69
11
8.33705
21
-4.69
0
LINE
8
BLACK
6
CONTINUOUS
10
8.33705
20
-4.69
11
8.33705
21
-4.59
0
LINE
8
BLACK
6
CONTINUOUS
10
8.33705
20
-4.59
11
8.33705
21
-4.59
0
LINE
8
BLACK
6
CONTINUOUS
10
8.33705
20
-4.59
11
8.33705
21
-4.49
0
LINE
8
BLACK
6
CONTINUOUS
10
8.33705
20
-4.49
11
8.33705
21
-4.49
0
LINE
8
BLACK
6
CONTINUOUS
10
8.33705
20
-4.49
11
8.33705
21
-4.39
0
LINE
8
BLACK
6
CONTINUOUS
10
8.33705
20
-4.39
11
8.33711
21
-4.38962
0
LINE
8
BLACK
6
CONTINUOUS
10
8.33711
20
-4.38962
11
8.33709
21
-4.38949
0
LINE
8
BLACK
6
CONTINUOUS
10
8.33709
20
-4.38949
11
8.33716
21
-4.38937
0
LINE
8
BLACK
6
CONTINUOUS
10
8.33716
20
-4.38937
11
8.33723
21
-4.38899
0
LINE
8
BLACK
6
CONTINUOUS
10
8.33723
20
-4.38899
11
8.33772
21
-4.3884
0
LINE
8
BLACK
6
CONTINUOUS
10
8.33772
20
-4.3884
11
8.3381
21
-4.38774
0
LINE
8
BLACK
6
CONTINUOUS
10
8.3381
20
-4.38774
11
8.33835
21
-4.38765
0
LINE
8
BLACK
6
CONTINUOUS
10
8.33835
20
-4.38765
11
8.33852
21
-4.38744
0
LINE
8
BLACK
6
CONTINUOUS
10
8.33852
20
-4.38744
11
8.33928
21
-4.38731
0
LINE
8
BLACK
6
CONTINUOUS
10
8.33928
20
-4.38731
11
8.34
21
-4.38705
0
LINE
8
BLACK
6
CONTINUOUS
10
8.34
20
-4.38705
11
8.54
21
-4.38705
0
LINE
8
BLACK
6
CONTINUOUS
10
8.54
20
-4.38705
11
8.54038
21
-4.38711
0
LINE
8
BLACK
6
CONTINUOUS
10
8.34295
20
-5.09295
11
8.34295
21
-5.18705
0
LINE
8
BLACK
6
CONTINUOUS
10
8.34295
20
-5.18705
11
8.53705
21
-5.18705
0
LINE
8
BLACK
6
CONTINUOUS
10
8.53705
20
-5.18705
11
8.53705
21
-5.09295
0
LINE
8
BLACK
6
CONTINUOUS
10
8.53705
20
-5.09295
11
8.34295
21
-5.09295
0
LINE
8
BLACK
6
CONTINUOUS
10
8.34295
20
-4.99295
11
8.34295
21
-5.08705
0
LINE
8
BLACK
6
CONTINUOUS
10
8.34295
20
-5.08705
11
8.53705
21
-5.08705
0
LINE
8
BLACK
6
CONTINUOUS
10
8.53705
20
-5.08705
11
8.53705
21
-4.99295
0
LINE
8
BLACK
6
CONTINUOUS
10
8.53705
20
-4.99295
11
8.34295
21
-4.99295
0
LINE
8
BLACK
6
CONTINUOUS
10
8.34295
20
-4.89295
11
8.34295
21
-4.98705
0
LINE
8
BLACK
6
CONTINUOUS
10
8.34295
20
-4.98705
11
8.53705
21
-4.98705
0
LINE
8
BLACK
6
CONTINUOUS
10
8.53705
20
-4.98705
11
8.53705
21
-4.89295
0
LINE
8
BLACK
6
CONTINUOUS
10
8.53705
20
-4.89295
11
8.34295
21
-4.89295
0
LINE
8
BLACK
6
CONTINUOUS
10
8.34295
20
-4.79295
11
8.34295
21
-4.88705
0
LINE
8
BLACK
6
CONTINUOUS
10
8.34295
20
-4.88705
11
8.53705
21
-4.88705
0
LINE
8
BLACK
6
CONTINUOUS
10
8.53705
20
-4.88705
11
8.53705
21
-4.79295
0
LINE
8
BLACK
6
CONTINUOUS
10
8.53705
20
-4.79295
11
8.34295
21
-4.79295
0
LINE
8
BLACK
6
CONTINUOUS
10
8.34295
20
-4.69295
11
8.34295
21
-4.78705
0
LINE
8
BLACK
6
CONTINUOUS
10
8.34295
20
-4.78705
11
8.53705
21
-4.78705
0
LINE
8
BLACK
6
CONTINUOUS
10
8.53705
20
-4.78705
11
8.53705
21
-4.69295
0
LINE
8
BLACK
6
CONTINUOUS
10
8.53705
20
-4.69295
11
8.34295
21
-4.69295
0
LINE
8
BLACK
6
CONTINUOUS
10
8.34295
20
-4.59295
11
8.34295
21
-4.68705
0
LINE
8
BLACK
6
CONTINUOUS
10
8.34295
20
-4.68705
11
8.53705
21
-4.68705
0
LINE
8
BLACK
6
CONTINUOUS
10
8.53705
20
-4.68705
11
8.53705
21
-4.59295
0
LINE
8
BLACK
6
CONTINUOUS
10
8.53705
20
-4.59295
11
8.34295
21
-4.59295
0
LINE
8
BLACK
6
CONTINUOUS
10
8.34295
20
-4.49295
11
8.34295
21
-4.58705
0
LINE
8
BLACK
6
CONTINUOUS
10
8.34295
20
-4.58705
11
8.53705
21
-4.58705
0
LINE
8
BLACK
6
CONTINUOUS
10
8.53705
20
-4.58705
11
8.53705
21
-4.49295
0
LINE
8
BLACK
6
CONTINUOUS
10
8.53705
20
-4.49295
11
8.34295
21
-4.49295
0
LINE
8
BLACK
6
CONTINUOUS
10
8.34295
20
-4.39295
11
8.34295
21
-4.48705
0
LINE
8
BLACK
6
CONTINUOUS
10
8.34295
20
-4.48705
11
8.53705
21
-4.48705
0
LINE
8
BLACK
6
CONTINUOUS
10
8.53705
20
-4.48705
11
8.53705
21
-4.39295
0
LINE
8
BLACK
6
CONTINUOUS
10
8.53705
20
-4.39295
11
8.34295
21
-4.39295
0
LINE
8
BLACK
6
CONTINUOUS
10
6.94038
20
-4.62711
11
6.94051
21
-4.62709
0
LINE
8
BLACK
6
CONTINUOUS
10
6.94051
20
-4.62709
11
6.94063
21
-4.62716
0
LINE
8
BLACK
6
CONTINUOUS
10
6.94063
20
-4.62716
11
6.94101
21
-4.62723
0
LINE
8
BLACK
6
CONTINUOUS
10
6.94101
20
-4.62723
11
6.9416
21
-4.62772
0
LINE
8
BLACK
6
CONTINUOUS
10
6.9416
20
-4.62772
11
6.94226
21
-4.6281
0
LINE
8
BLACK
6
CONTINUOUS
10
6.94226
20
-4.6281
11
6.94235
21
-4.62835
0
LINE
8
BLACK
6
CONTINUOUS
10
6.94235
20
-4.62835
11
6.94256
21
-4.62852
0
LINE
8
BLACK
6
CONTINUOUS
10
6.94256
20
-4.62852
11
6.94269
21
-4.62928
0
LINE
8
BLACK
6
CONTINUOUS
10
6.94269
20
-4.62928
11
6.94295
21
-4.63
0
LINE
8
BLACK
6
CONTINUOUS
10
6.94295
20
-4.63
11
6.94295
21
-4.83
0
LINE
8
BLACK
6
CONTINUOUS
10
6.94295
20
-4.83
11
6.94289
21
-4.83038
0
LINE
8
BLACK
6
CONTINUOUS
10
6.94289
20
-4.83038
11
6.94291
21
-4.83051
0
LINE
8
BLACK
6
CONTINUOUS
10
6.94291
20
-4.83051
11
6.94284
21
-4.83063
0
LINE
8
BLACK
6
CONTINUOUS
10
6.94284
20
-4.83063
11
6.94277
21
-4.83101
0
LINE
8
BLACK
6
CONTINUOUS
10
6.94277
20
-4.83101
11
6.94228
21
-4.8316
0
LINE
8
BLACK
6
CONTINUOUS
10
6.94228
20
-4.8316
11
6.9419
21
-4.83226
0
LINE
8
BLACK
6
CONTINUOUS
10
6.9419
20
-4.83226
11
6.94165
21
-4.83235
0
LINE
8
BLACK
6
CONTINUOUS
10
6.94165
20
-4.83235
11
6.94148
21
-4.83256
0
LINE
8
BLACK
6
CONTINUOUS
10
6.94148
20
-4.83256
11
6.94072
21
-4.83269
0
LINE
8
BLACK
6
CONTINUOUS
10
6.94072
20
-4.83269
11
6.94
21
-4.83295
0
LINE
8
BLACK
6
CONTINUOUS
10
6.94
20
-4.83295
11
6.84
21
-4.83295
0
LINE
8
BLACK
6
CONTINUOUS
10
6.84
20
-4.83295
11
6.83962
21
-4.83289
0
LINE
8
BLACK
6
CONTINUOUS
10
6.83962
20
-4.83289
11
6.83949
21
-4.83291
0
LINE
8
BLACK
6
CONTINUOUS
10
6.83949
20
-4.83291
11
6.83937
21
-4.83284
0
LINE
8
BLACK
6
CONTINUOUS
10
6.83937
20
-4.83284
11
6.83899
21
-4.83277
0
LINE
8
BLACK
6
CONTINUOUS
10
6.83899
20
-4.83277
11
6.8384
21
-4.83228
0
LINE
8
BLACK
6
CONTINUOUS
10
6.8384
20
-4.83228
11
6.83774
21
-4.8319
0
LINE
8
BLACK
6
CONTINUOUS
10
6.83774
20
-4.8319
11
6.83765
21
-4.83165
0
LINE
8
BLACK
6
CONTINUOUS
10
6.83765
20
-4.83165
11
6.83744
21
-4.83148
0
LINE
8
BLACK
6
CONTINUOUS
10
6.83744
20
-4.83148
11
6.83731
21
-4.83072
0
LINE
8
BLACK
6
CONTINUOUS
10
6.83731
20
-4.83072
11
6.83705
21
-4.83
0
LINE
8
BLACK
6
CONTINUOUS
10
6.83705
20
-4.83
11
6.83705
21
-4.63
0
LINE
8
BLACK
6
CONTINUOUS
10
6.83705
20
-4.63
11
6.83711
21
-4.62962
0
LINE
8
BLACK
6
CONTINUOUS
10
6.83711
20
-4.62962
11
6.83709
21
-4.62949
0
LINE
8
BLACK
6
CONTINUOUS
10
6.83709
20
-4.62949
11
6.83716
21
-4.62937
0
LINE
8
BLACK
6
CONTINUOUS
10
6.83716
20
-4.62937
11
6.83723
21
-4.62899
0
LINE
8
BLACK
6
CONTINUOUS
10
6.83723
20
-4.62899
11
6.83772
21
-4.6284
0
LINE
8
BLACK
6
CONTINUOUS
10
6.83772
20
-4.6284
11
6.8381
21
-4.62774
0
LINE
8
BLACK
6
CONTINUOUS
10
6.8381
20
-4.62774
11
6.83835
21
-4.62765
0
LINE
8
BLACK
6
CONTINUOUS
10
6.83835
20
-4.62765
11
6.83852
21
-4.62744
0
LINE
8
BLACK
6
CONTINUOUS
10
6.83852
20
-4.62744
11
6.83928
21
-4.62731
0
LINE
8
BLACK
6
CONTINUOUS
10
6.83928
20
-4.62731
11
6.84
21
-4.62705
0
LINE
8
BLACK
6
CONTINUOUS
10
6.84
20
-4.62705
11
6.94
21
-4.62705
0
LINE
8
BLACK
6
CONTINUOUS
10
6.94
20
-4.62705
11
6.94038
21
-4.62711
0
LINE
8
BLACK
6
CONTINUOUS
10
6.84295
20
-4.63295
11
6.84295
21
-4.82705
0
LINE
8
BLACK
6
CONTINUOUS
10
6.84295
20
-4.82705
11
6.93705
21
-4.82705
0
LINE
8
BLACK
6
CONTINUOUS
10
6.93705
20
-4.82705
11
6.93705
21
-4.63295
0
LINE
8
BLACK
6
CONTINUOUS
10
6.93705
20
-4.63295
11
6.84295
21
-4.63295
0
LINE
8
BLACK
6
CONTINUOUS
10
6.44038
20
-4.37711
11
6.44051
21
-4.37709
0
LINE
8
BLACK
6
CONTINUOUS
10
6.44051
20
-4.37709
11
6.44063
21
-4.37716
0
LINE
8
BLACK
6
CONTINUOUS
10
6.44063
20
-4.37716
11
6.44101
21
-4.37723
0
LINE
8
BLACK
6
CONTINUOUS
10
6.44101
20
-4.37723
11
6.4416
21
-4.37772
0
LINE
8
BLACK
6
CONTINUOUS
10
6.4416
20
-4.37772
11
6.44226
21
-4.3781
0
LINE
8
BLACK
6
CONTINUOUS
10
6.44226
20
-4.3781
11
6.44235
21
-4.37835
0
LINE
8
BLACK
6
CONTINUOUS
10
6.44235
20
-4.37835
11
6.44256
21
-4.37852
0
LINE
8
BLACK
6
CONTINUOUS
10
6.44256
20
-4.37852
11
6.44269
21
-4.37928
0
LINE
8
BLACK
6
CONTINUOUS
10
6.44269
20
-4.37928
11
6.44295
21
-4.38
0
LINE
8
BLACK
6
CONTINUOUS
10
6.44295
20
-4.38
11
6.44295
21
-4.68
0
LINE
8
BLACK
6
CONTINUOUS
10
6.44295
20
-4.68
11
6.44289
21
-4.68038
0
LINE
8
BLACK
6
CONTINUOUS
10
6.44289
20
-4.68038
11
6.44291
21
-4.68051
0
LINE
8
BLACK
6
CONTINUOUS
10
6.44291
20
-4.68051
11
6.44284
21
-4.68063
0
LINE
8
BLACK
6
CONTINUOUS
10
6.44284
20
-4.68063
11
6.44277
21
-4.68101
0
LINE
8
BLACK
6
CONTINUOUS
10
6.44277
20
-4.68101
11
6.44228
21
-4.6816
0
LINE
8
BLACK
6
CONTINUOUS
10
6.44228
20
-4.6816
11
6.4419
21
-4.68226
0
LINE
8
BLACK
6
CONTINUOUS
10
6.4419
20
-4.68226
11
6.44165
21
-4.68235
0
LINE
8
BLACK
6
CONTINUOUS
10
6.44165
20
-4.68235
11
6.44148
21
-4.68256
0
LINE
8
BLACK
6
CONTINUOUS
10
6.44148
20
-4.68256
11
6.44072
21
-4.68269
0
LINE
8
BLACK
6
CONTINUOUS
10
6.44072
20
-4.68269
11
6.44
21
-4.68295
0
LINE
8
BLACK
6
CONTINUOUS
10
6.44
20
-4.68295
11
6.24
21
-4.68295
0
LINE
8
BLACK
6
CONTINUOUS
10
6.24
20
-4.68295
11
6.23962
21
-4.68289
0
LINE
8
BLACK
6
CONTINUOUS
10
6.23962
20
-4.68289
11
6.23949
21
-4.68291
0
LINE
8
BLACK
6
CONTINUOUS
10
6.23949
20
-4.68291
11
6.23937
21
-4.68284
0
LINE
8
BLACK
6
CONTINUOUS
10
6.23937
20
-4.68284
11
6.23899
21
-4.68277
0
LINE
8
BLACK
6
CONTINUOUS
10
6.23899
20
-4.68277
11
6.2384
21
-4.68228
0
LINE
8
BLACK
6
CONTINUOUS
10
6.2384
20
-4.68228
11
6.23774
21
-4.6819
0
LINE
8
BLACK
6
CONTINUOUS
10
6.23774
20
-4.6819
11
6.23765
21
-4.68165
0
LINE
8
BLACK
6
CONTINUOUS
10
6.23765
20
-4.68165
11
6.23744
21
-4.68148
0
LINE
8
BLACK
6
CONTINUOUS
10
6.23744
20
-4.68148
11
6.23731
21
-4.68072
0
LINE
8
BLACK
6
CONTINUOUS
10
6.23731
20
-4.68072
11
6.23705
21
-4.68
0
LINE
8
BLACK
6
CONTINUOUS
10
6.23705
20
-4.68
11
6.23705
21
-4.38
0
LINE
8
BLACK
6
CONTINUOUS
10
6.23705
20
-4.38
11
6.23711
21
-4.37962
0
LINE
8
BLACK
6
CONTINUOUS
10
6.23711
20
-4.37962
11
6.23709
21
-4.37949
0
LINE
8
BLACK
6
CONTINUOUS
10
6.23709
20
-4.37949
11
6.23716
21
-4.37937
0
LINE
8
BLACK
6
CONTINUOUS
10
6.23716
20
-4.37937
11
6.23723
21
-4.37899
0
LINE
8
BLACK
6
CONTINUOUS
10
6.23723
20
-4.37899
11
6.23772
21
-4.3784
0
LINE
8
BLACK
6
CONTINUOUS
10
6.23772
20
-4.3784
11
6.2381
21
-4.37774
0
LINE
8
BLACK
6
CONTINUOUS
10
6.2381
20
-4.37774
11
6.23835
21
-4.37765
0
LINE
8
BLACK
6
CONTINUOUS
10
6.23835
20
-4.37765
11
6.23852
21
-4.37744
0
LINE
8
BLACK
6
CONTINUOUS
10
6.23852
20
-4.37744
11
6.23928
21
-4.37731
0
LINE
8
BLACK
6
CONTINUOUS
10
6.23928
20
-4.37731
11
6.24
21
-4.37705
0
LINE
8
BLACK
6
CONTINUOUS
10
6.24
20
-4.37705
11
6.44
21
-4.37705
0
LINE
8
BLACK
6
CONTINUOUS
10
6.44
20
-4.37705
11
6.44038
21
-4.37711
0
LINE
8
BLACK
6
CONTINUOUS
10
6.24295
20
-4.38295
11
6.24295
21
-4.67705
0
LINE
8
BLACK
6
CONTINUOUS
10
6.24295
20
-4.67705
11
6.43705
21
-4.67705
0
LINE
8
BLACK
6
CONTINUOUS
10
6.43705
20
-4.67705
11
6.43705
21
-4.38295
0
LINE
8
BLACK
6
CONTINUOUS
10
6.43705
20
-4.38295
11
6.24295
21
-4.38295
0
LINE
8
BLACK
6
CONTINUOUS
10
6.40406
20
-4.06519
11
6.41795
21
-4.06755
0
LINE
8
BLACK
6
CONTINUOUS
10
6.41795
20
-4.06755
11
6.43148
21
-4.07145
0
LINE
8
BLACK
6
CONTINUOUS
10
6.43148
20
-4.07145
11
6.4445
21
-4.07684
0
LINE
8
BLACK
6
CONTINUOUS
10
6.4445
20
-4.07684
11
6.45682
21
-4.08365
0
LINE
8
BLACK
6
CONTINUOUS
10
6.45682
20
-4.08365
11
6.46831
21
-4.0918
0
LINE
8
BLACK
6
CONTINUOUS
10
6.46831
20
-4.0918
11
6.47881
21
-4.10119
0
LINE
8
BLACK
6
CONTINUOUS
10
6.47881
20
-4.10119
11
6.4882
21
-4.11169
0
LINE
8
BLACK
6
CONTINUOUS
10
6.4882
20
-4.11169
11
6.49635
21
-4.12318
0
LINE
8
BLACK
6
CONTINUOUS
10
6.49635
20
-4.12318
11
6.50316
21
-4.1355
0
LINE
8
BLACK
6
CONTINUOUS
10
6.50316
20
-4.1355
11
6.50855
21
-4.14852
0
LINE
8
BLACK
6
CONTINUOUS
10
6.50855
20
-4.14852
11
6.51245
21
-4.16205
0
LINE
8
BLACK
6
CONTINUOUS
10
6.51245
20
-4.16205
11
6.51481
21
-4.17594
0
LINE
8
BLACK
6
CONTINUOUS
10
6.51481
20
-4.17594
11
6.5156
21
-4.19
0
LINE
8
BLACK
6
CONTINUOUS
10
6.5156
20
-4.19
11
6.51481
21
-4.20406
0
LINE
8
BLACK
6
CONTINUOUS
10
6.51481
20
-4.20406
11
6.51245
21
-4.21795
0
LINE
8
BLACK
6
CONTINUOUS
10
6.51245
20
-4.21795
11
6.50855
21
-4.23148
0
LINE
8
BLACK
6
CONTINUOUS
10
6.50855
20
-4.23148
11
6.50316
21
-4.2445
0
LINE
8
BLACK
6
CONTINUOUS
10
6.50316
20
-4.2445
11
6.49635
21
-4.25682
0
LINE
8
BLACK
6
CONTINUOUS
10
6.49635
20
-4.25682
11
6.4882
21
-4.26831
0
LINE
8
BLACK
6
CONTINUOUS
10
6.4882
20
-4.26831
11
6.47881
21
-4.27881
0
LINE
8
BLACK
6
CONTINUOUS
10
6.47881
20
-4.27881
11
6.46831
21
-4.2882
0
LINE
8
BLACK
6
CONTINUOUS
10
6.46831
20
-4.2882
11
6.45682
21
-4.29635
0
LINE
8
BLACK
6
CONTINUOUS
10
6.45682
20
-4.29635
11
6.4445
21
-4.30316
0
LINE
8
BLACK
6
CONTINUOUS
10
6.4445
20
-4.30316
11
6.43148
21
-4.30855
0
LINE
8
BLACK
6
CONTINUOUS
10
6.43148
20
-4.30855
11
6.41795
21
-4.31245
0
LINE
8
BLACK
6
CONTINUOUS
10
6.41795
20
-4.31245
11
6.40406
21
-4.31481
0
LINE
8
BLACK
6
CONTINUOUS
10
6.40406
20
-4.31481
11
6.39
21
-4.3156
0
LINE
8
BLACK
6
CONTINUOUS
10
6.39
20
-4.3156
11
6.37594
21
-4.31481
0
LINE
8
BLACK
6
CONTINUOUS
10
6.37594
20
-4.31481
11
6.36205
21
-4.31245
0
LINE
8
BLACK
6
CONTINUOUS
10
6.36205
20
-4.31245
11
6.34852
21
-4.30855
0
LINE
8
BLACK
6
CONTINUOUS
10
6.34852
20
-4.30855
11
6.3355
21
-4.30316
0
LINE
8
BLACK
6
CONTINUOUS
10
6.3355
20
-4.30316
11
6.32318
21
-4.29635
0
LINE
8
BLACK
6
CONTINUOUS
10
6.32318
20
-4.29635
11
6.31169
21
-4.2882
0
LINE
8
BLACK
6
CONTINUOUS
10
6.31169
20
-4.2882
11
6.30119
21
-4.27881
0
LINE
8
BLACK
6
CONTINUOUS
10
6.30119
20
-4.27881
11
6.2918
21
-4.26831
0
LINE
8
BLACK
6
CONTINUOUS
10
6.2918
20
-4.26831
11
6.28365
21
-4.25682
0
LINE
8
BLACK
6
CONTINUOUS
10
6.28365
20
-4.25682
11
6.27684
21
-4.2445
0
LINE
8
BLACK
6
CONTINUOUS
10
6.27684
20
-4.2445
11
6.27145
21
-4.23148
0
LINE
8
BLACK
6
CONTINUOUS
10
6.27145
20
-4.23148
11
6.26755
21
-4.21795
0
LINE
8
BLACK
6
CONTINUOUS
10
6.26755
20
-4.21795
11
6.26519
21
-4.20406
0
LINE
8
BLACK
6
CONTINUOUS
10
6.26519
20
-4.20406
11
6.2644
21
-4.19
0
LINE
8
BLACK
6
CONTINUOUS
10
6.2644
20
-4.19
11
6.26519
21
-4.17594
0
LINE
8
BLACK
6
CONTINUOUS
10
6.26519
20
-4.17594
11
6.26755
21
-4.16205
0
LINE
8
BLACK
6
CONTINUOUS
10
6.26755
20
-4.16205
11
6.27145
21
-4.14852
0
LINE
8
BLACK
6
CONTINUOUS
10
6.27145
20
-4.14852
11
6.27684
21
-4.1355
0
LINE
8
BLACK
6
CONTINUOUS
10
6.27684
20
-4.1355
11
6.28365
21
-4.12318
0
LINE
8
BLACK
6
CONTINUOUS
10
6.28365
20
-4.12318
11
6.2918
21
-4.11169
0
LINE
8
BLACK
6
CONTINUOUS
10
6.2918
20
-4.11169
11
6.30119
21
-4.10119
0
LINE
8
BLACK
6
CONTINUOUS
10
6.30119
20
-4.10119
11
6.31169
21
-4.0918
0
LINE
8
BLACK
6
CONTINUOUS
10
6.31169
20
-4.0918
11
6.32318
21
-4.08365
0
LINE
8
BLACK
6
CONTINUOUS
10
6.32318
20
-4.08365
11
6.3355
21
-4.07684
0
LINE
8
BLACK
6
CONTINUOUS
10
6.3355
20
-4.07684
11
6.34852
21
-4.07145
0
LINE
8
BLACK
6
CONTINUOUS
10
6.34852
20
-4.07145
11
6.36205
21
-4.06755
0
LINE
8
BLACK
6
CONTINUOUS
10
6.36205
20
-4.06755
11
6.37594
21
-4.06519
0
LINE
8
BLACK
6
CONTINUOUS
10
6.37594
20
-4.06519
11
6.39
21
-4.0644
0
LINE
8
BLACK
6
CONTINUOUS
10
6.39
20
-4.0644
11
6.40406
21
-4.06519
0
LINE
8
BLACK
6
CONTINUOUS
10
6.27996
20
-4.20286
11
6.2822
21
-4.21555
0
LINE
8
BLACK
6
CONTINUOUS
10
6.2822
20
-4.21555
11
6.28589
21
-4.22789
0
LINE
8
BLACK
6
CONTINUOUS
10
6.28589
20
-4.22789
11
6.291
21
-4.23972
0
LINE
8
BLACK
6
CONTINUOUS
10
6.291
20
-4.23972
11
6.29744
21
-4.25088
0
LINE
8
BLACK
6
CONTINUOUS
10
6.29744
20
-4.25088
11
6.30513
21
-4.26121
0
LINE
8
BLACK
6
CONTINUOUS
10
6.30513
20
-4.26121
11
6.31397
21
-4.27058
0
LINE
8
BLACK
6
CONTINUOUS
10
6.31397
20
-4.27058
11
6.32384
21
-4.27887
0
LINE
8
BLACK
6
CONTINUOUS
10
6.32384
20
-4.27887
11
6.33461
21
-4.28594
0
LINE
8
BLACK
6
CONTINUOUS
10
6.33461
20
-4.28594
11
6.34612
21
-4.29173
0
LINE
8
BLACK
6
CONTINUOUS
10
6.34612
20
-4.29173
11
6.35823
21
-4.29613
0
LINE
8
BLACK
6
CONTINUOUS
10
6.35823
20
-4.29613
11
6.37076
21
-4.2991
0
LINE
8
BLACK
6
CONTINUOUS
10
6.37076
20
-4.2991
11
6.38356
21
-4.3006
0
LINE
8
BLACK
6
CONTINUOUS
10
6.38356
20
-4.3006
11
6.39644
21
-4.3006
0
LINE
8
BLACK
6
CONTINUOUS
10
6.39644
20
-4.3006
11
6.40924
21
-4.2991
0
LINE
8
BLACK
6
CONTINUOUS
10
6.40924
20
-4.2991
11
6.42177
21
-4.29613
0
LINE
8
BLACK
6
CONTINUOUS
10
6.42177
20
-4.29613
11
6.43388
21
-4.29173
0
LINE
8
BLACK
6
CONTINUOUS
10
6.43388
20
-4.29173
11
6.44539
21
-4.28594
0
LINE
8
BLACK
6
CONTINUOUS
10
6.44539
20
-4.28594
11
6.45616
21
-4.27887
0
LINE
8
BLACK
6
CONTINUOUS
10
6.45616
20
-4.27887
11
6.46603
21
-4.27058
0
LINE
8
BLACK
6
CONTINUOUS
10
6.46603
20
-4.27058
11
6.47487
21
-4.26121
0
LINE
8
BLACK
6
CONTINUOUS
10
6.47487
20
-4.26121
11
6.48256
21
-4.25088
0
LINE
8
BLACK
6
CONTINUOUS
10
6.48256
20
-4.25088
11
6.489
21
-4.23972
0
LINE
8
BLACK
6
CONTINUOUS
10
6.489
20
-4.23972
11
6.49411
21
-4.22789
0
LINE
8
BLACK
6
CONTINUOUS
10
6.49411
20
-4.22789
11
6.4978
21
-4.21555
0
LINE
8
BLACK
6
CONTINUOUS
10
6.4978
20
-4.21555
11
6.50004
21
-4.20286
0
LINE
8
BLACK
6
CONTINUOUS
10
6.50004
20
-4.20286
11
6.50079
21
-4.19
0
LINE
8
BLACK
6
CONTINUOUS
10
6.50079
20
-4.19
11
6.50004
21
-4.17714
0
LINE
8
BLACK
6
CONTINUOUS
10
6.50004
20
-4.17714
11
6.4978
21
-4.16445
0
LINE
8
BLACK
6
CONTINUOUS
10
6.4978
20
-4.16445
11
6.49411
21
-4.15211
0
LINE
8
BLACK
6
CONTINUOUS
10
6.49411
20
-4.15211
11
6.489
21
-4.14028
0
LINE
8
BLACK
6
CONTINUOUS
10
6.489
20
-4.14028
11
6.48256
21
-4.12912
0
LINE
8
BLACK
6
CONTINUOUS
10
6.48256
20
-4.12912
11
6.47487
21
-4.11879
0
LINE
8
BLACK
6
CONTINUOUS
10
6.47487
20
-4.11879
11
6.46603
21
-4.10942
0
LINE
8
BLACK
6
CONTINUOUS
10
6.46603
20
-4.10942
11
6.45616
21
-4.10113
0
LINE
8
BLACK
6
CONTINUOUS
10
6.45616
20
-4.10113
11
6.44539
21
-4.09406
0
LINE
8
BLACK
6
CONTINUOUS
10
6.44539
20
-4.09406
11
6.43388
21
-4.08827
0
LINE
8
BLACK
6
CONTINUOUS
10
6.43388
20
-4.08827
11
6.42177
21
-4.08387
0
LINE
8
BLACK
6
CONTINUOUS
10
6.42177
20
-4.08387
11
6.40924
21
-4.0809
0
LINE
8
BLACK
6
CONTINUOUS
10
6.40924
20
-4.0809
11
6.39644
21
-4.0794
0
LINE
8
BLACK
6
CONTINUOUS
10
6.39644
20
-4.0794
11
6.38356
21
-4.0794
0
LINE
8
BLACK
6
CONTINUOUS
10
6.38356
20
-4.0794
11
6.37076
21
-4.0809
0
LINE
8
BLACK
6
CONTINUOUS
10
6.37076
20
-4.0809
11
6.35823
21
-4.08387
0
LINE
8
BLACK
6
CONTINUOUS
10
6.35823
20
-4.08387
11
6.34612
21
-4.08827
0
LINE
8
BLACK
6
CONTINUOUS
10
6.34612
20
-4.08827
11
6.33461
21
-4.09406
0
LINE
8
BLACK
6
CONTINUOUS
10
6.33461
20
-4.09406
11
6.32384
21
-4.10113
0
LINE
8
BLACK
6
CONTINUOUS
10
6.32384
20
-4.10113
11
6.31397
21
-4.10942
0
LINE
8
BLACK
6
CONTINUOUS
10
6.31397
20
-4.10942
11
6.30513
21
-4.11879
0
LINE
8
BLACK
6
CONTINUOUS
10
6.30513
20
-4.11879
11
6.29744
21
-4.12912
0
LINE
8
BLACK
6
CONTINUOUS
10
6.29744
20
-4.12912
11
6.291
21
-4.14028
0
LINE
8
BLACK
6
CONTINUOUS
10
6.291
20
-4.14028
11
6.28589
21
-4.15211
0
LINE
8
BLACK
6
CONTINUOUS
10
6.28589
20
-4.15211
11
6.2822
21
-4.16445
0
LINE
8
BLACK
6
CONTINUOUS
10
6.2822
20
-4.16445
11
6.27996
21
-4.17714
0
LINE
8
BLACK
6
CONTINUOUS
10
6.27996
20
-4.17714
11
6.27921
21
-4.19
0
LINE
8
BLACK
6
CONTINUOUS
10
6.27921
20
-4.19
11
6.27996
21
-4.20286
0
LINE
8
BLACK
6
CONTINUOUS
10
8.40406
20
-4.06519
11
8.41795
21
-4.06755
0
LINE
8
BLACK
6
CONTINUOUS
10
8.41795
20
-4.06755
11
8.43148
21
-4.07145
0
LINE
8
BLACK
6
CONTINUOUS
10
8.43148
20
-4.07145
11
8.4445
21
-4.07684
0
LINE
8
BLACK
6
CONTINUOUS
10
8.4445
20
-4.07684
11
8.45682
21
-4.08365
0
LINE
8
BLACK
6
CONTINUOUS
10
8.45682
20
-4.08365
11
8.46831
21
-4.0918
0
LINE
8
BLACK
6
CONTINUOUS
10
8.46831
20
-4.0918
11
8.47881
21
-4.10119
0
LINE
8
BLACK
6
CONTINUOUS
10
8.47881
20
-4.10119
11
8.4882
21
-4.11169
0
LINE
8
BLACK
6
CONTINUOUS
10
8.4882
20
-4.11169
11
8.49635
21
-4.12318
0
LINE
8
BLACK
6
CONTINUOUS
10
8.49635
20
-4.12318
11
8.50316
21
-4.1355
0
LINE
8
BLACK
6
CONTINUOUS
10
8.50316
20
-4.1355
11
8.50855
21
-4.14852
0
LINE
8
BLACK
6
CONTINUOUS
10
8.50855
20
-4.14852
11
8.51245
21
-4.16205
0
LINE
8
BLACK
6
CONTINUOUS
10
8.51245
20
-4.16205
11
8.51481
21
-4.17594
0
LINE
8
BLACK
6
CONTINUOUS
10
8.51481
20
-4.17594
11
8.5156
21
-4.19
0
LINE
8
BLACK
6
CONTINUOUS
10
8.5156
20
-4.19
11
8.51481
21
-4.20406
0
LINE
8
BLACK
6
CONTINUOUS
10
8.51481
20
-4.20406
11
8.51245
21
-4.21795
0
LINE
8
BLACK
6
CONTINUOUS
10
8.51245
20
-4.21795
11
8.50855
21
-4.23148
0
LINE
8
BLACK
6
CONTINUOUS
10
8.50855
20
-4.23148
11
8.50316
21
-4.2445
0
LINE
8
BLACK
6
CONTINUOUS
10
8.50316
20
-4.2445
11
8.49635
21
-4.25682
0
LINE
8
BLACK
6
CONTINUOUS
10
8.49635
20
-4.25682
11
8.4882
21
-4.26831
0
LINE
8
BLACK
6
CONTINUOUS
10
8.4882
20
-4.26831
11
8.47881
21
-4.27881
0
LINE
8
BLACK
6
CONTINUOUS
10
8.47881
20
-4.27881
11
8.46831
21
-4.2882
0
LINE
8
BLACK
6
CONTINUOUS
10
8.46831
20
-4.2882
11
8.45682
21
-4.29635
0
LINE
8
BLACK
6
CONTINUOUS
10
8.45682
20
-4.29635
11
8.4445
21
-4.30316
0
LINE
8
BLACK
6
CONTINUOUS
10
8.4445
20
-4.30316
11
8.43148
21
-4.30855
0
LINE
8
BLACK
6
CONTINUOUS
10
8.43148
20
-4.30855
11
8.41795
21
-4.31245
0
LINE
8
BLACK
6
CONTINUOUS
10
8.41795
20
-4.31245
11
8.40406
21
-4.31481
0
LINE
8
BLACK
6
CONTINUOUS
10
8.40406
20
-4.31481
11
8.39
21
-4.3156
0
LINE
8
BLACK
6
CONTINUOUS
10
8.39
20
-4.3156
11
8.37594
21
-4.31481
0
LINE
8
BLACK
6
CONTINUOUS
10
8.37594
20
-4.31481
11
8.36205
21
-4.31245
0
LINE
8
BLACK
6
CONTINUOUS
10
8.36205
20
-4.31245
11
8.34852
21
-4.30855
0
LINE
8
BLACK
6
CONTINUOUS
10
8.34852
20
-4.30855
11
8.3355
21
-4.30316
0
LINE
8
BLACK
6
CONTINUOUS
10
8.3355
20
-4.30316
11
8.32318
21
-4.29635
0
LINE
8
BLACK
6
CONTINUOUS
10
8.32318
20
-4.29635
11
8.31169
21
-4.2882
0
LINE
8
BLACK
6
CONTINUOUS
10
8.31169
20
-4.2882
11
8.30119
21
-4.27881
0
LINE
8
BLACK
6
CONTINUOUS
10
8.30119
20
-4.27881
11
8.2918
21
-4.26831
0
LINE
8
BLACK
6
CONTINUOUS
10
8.2918
20
-4.26831
11
8.28365
21
-4.25682
0
LINE
8
BLACK
6
CONTINUOUS
10
8.28365
20
-4.25682
11
8.27684
21
-4.2445
0
LINE
8
BLACK
6
CONTINUOUS
10
8.27684
20
-4.2445
11
8.27145
21
-4.23148
0
LINE
8
BLACK
6
CONTINUOUS
10
8.27145
20
-4.23148
11
8.26755
21
-4.21795
0
LINE
8
BLACK
6
CONTINUOUS
10
8.26755
20
-4.21795
11
8.26519
21
-4.20406
0
LINE
8
BLACK
6
CONTINUOUS
10
8.26519
20
-4.20406
11
8.2644
21
-4.19
0
LINE
8
BLACK
6
CONTINUOUS
10
8.2644
20
-4.19
11
8.26519
21
-4.17594
0
LINE
8
BLACK
6
CONTINUOUS
10
8.26519
20
-4.17594
11
8.26755
21
-4.16205
0
LINE
8
BLACK
6
CONTINUOUS
10
8.26755
20
-4.16205
11
8.27145
21
-4.14852
0
LINE
8
BLACK
6
CONTINUOUS
10
8.27145
20
-4.14852
11
8.27684
21
-4.1355
0
LINE
8
BLACK
6
CONTINUOUS
10
8.27684
20
-4.1355
11
8.28365
21
-4.12318
0
LINE
8
BLACK
6
CONTINUOUS
10
8.28365
20
-4.12318
11
8.2918
21
-4.11169
0
LINE
8
BLACK
6
CONTINUOUS
10
8.2918
20
-4.11169
11
8.30119
21
-4.10119
0
LINE
8
BLACK
6
CONTINUOUS
10
8.30119
20
-4.10119
11
8.31169
21
-4.0918
0
LINE
8
BLACK
6
CONTINUOUS
10
8.31169
20
-4.0918
11
8.32318
21
-4.08365
0
LINE
8
BLACK
6
CONTINUOUS
10
8.32318
20
-4.08365
11
8.3355
21
-4.07684
0
LINE
8
BLACK
6
CONTINUOUS
10
8.3355
20
-4.07684
11
8.34852
21
-4.07145
0
LINE
8
BLACK
6
CONTINUOUS
10
8.34852
20
-4.07145
11
8.36205
21
-4.06755
0
LINE
8
BLACK
6
CONTINUOUS
10
8.36205
20
-4.06755
11
8.37594
21
-4.06519
0
LINE
8
BLACK
6
CONTINUOUS
10
8.37594
20
-4.06519
11
8.39
21
-4.0644
0
LINE
8
BLACK
6
CONTINUOUS
10
8.39
20
-4.0644
11
8.40406
21
-4.06519
0
LINE
8
BLACK
6
CONTINUOUS
10
8.27996
20
-4.20286
11
8.2822
21
-4.21555
0
LINE
8
BLACK
6
CONTINUOUS
10
8.2822
20
-4.21555
11
8.28589
21
-4.22789
0
LINE
8
BLACK
6
CONTINUOUS
10
8.28589
20
-4.22789
11
8.291
21
-4.23972
0
LINE
8
BLACK
6
CONTINUOUS
10
8.291
20
-4.23972
11
8.29744
21
-4.25088
0
LINE
8
BLACK
6
CONTINUOUS
10
8.29744
20
-4.25088
11
8.30513
21
-4.26121
0
LINE
8
BLACK
6
CONTINUOUS
10
8.30513
20
-4.26121
11
8.31397
21
-4.27058
0
LINE
8
BLACK
6
CONTINUOUS
10
8.31397
20
-4.27058
11
8.32384
21
-4.27887
0
LINE
8
BLACK
6
CONTINUOUS
10
8.32384
20
-4.27887
11
8.33461
21
-4.28594
0
LINE
8
BLACK
6
CONTINUOUS
10
8.33461
20
-4.28594
11
8.34612
21
-4.29173
0
LINE
8
BLACK
6
CONTINUOUS
10
8.34612
20
-4.29173
11
8.35823
21
-4.29613
0
LINE
8
BLACK
6
CONTINUOUS
10
8.35823
20
-4.29613
11
8.37076
21
-4.2991
0
LINE
8
BLACK
6
CONTINUOUS
10
8.37076
20
-4.2991
11
8.38356
21
-4.3006
0
LINE
8
BLACK
6
CONTINUOUS
10
8.38356
20
-4.3006
11
8.39644
21
-4.3006
0
LINE
8
BLACK
6
CONTINUOUS
10
8.39644
20
-4.3006
11
8.40924
21
-4.2991
0
LINE
8
BLACK
6
CONTINUOUS
10
8.40924
20
-4.2991
11
8.42177
21
-4.29613
0
LINE
8
BLACK
6
CONTINUOUS
10
8.42177
20
-4.29613
11
8.43388
21
-4.29173
0
LINE
8
BLACK
6
CONTINUOUS
10
8.43388
20
-4.29173
11
8.44539
21
-4.28594
0
LINE
8
BLACK
6
CONTINUOUS
10
8.44539
20
-4.28594
11
8.45616
21
-4.27887
0
LINE
8
BLACK
6
CONTINUOUS
10
8.45616
20
-4.27887
11
8.46603
21
-4.27058
0
LINE
8
BLACK
6
CONTINUOUS
10
8.46603
20
-4.27058
11
8.47487
21
-4.26121
0
LINE
8
BLACK
6
CONTINUOUS
10
8.47487
20
-4.26121
11
8.48256
21
-4.25088
0
LINE
8
BLACK
6
CONTINUOUS
10
8.48256
20
-4.25088
11
8.489
21
-4.23972
0
LINE
8
BLACK
6
CONTINUOUS
10
8.489
20
-4.23972
11
8.49411
21
-4.22789
0
LINE
8
BLACK
6
CONTINUOUS
10
8.49411
20
-4.22789
11
8.4978
21
-4.21555
0
LINE
8
BLACK
6
CONTINUOUS
10
8.4978
20
-4.21555
11
8.50004
21
-4.20286
0
LINE
8
BLACK
6
CONTINUOUS
10
8.50004
20
-4.20286
11
8.50079
21
-4.19
0
LINE
8
BLACK
6
CONTINUOUS
10
8.50079
20
-4.19
11
8.50004
21
-4.17714
0
LINE
8
BLACK
6
CONTINUOUS
10
8.50004
20
-4.17714
11
8.4978
21
-4.16445
0
LINE
8
BLACK
6
CONTINUOUS
10
8.4978
20
-4.16445
11
8.49411
21
-4.15211
0
LINE
8
BLACK
6
CONTINUOUS
10
8.49411
20
-4.15211
11
8.489
21
-4.14028
0
LINE
8
BLACK
6
CONTINUOUS
10
8.489
20
-4.14028
11
8.48256
21
-4.12912
0
LINE
8
BLACK
6
CONTINUOUS
10
8.48256
20
-4.12912
11
8.47487
21
-4.11879
0
LINE
8
BLACK
6
CONTINUOUS
10
8.47487
20
-4.11879
11
8.46603
21
-4.10942
0
LINE
8
BLACK
6
CONTINUOUS
10
8.46603
20
-4.10942
11
8.45616
21
-4.10113
0
LINE
8
BLACK
6
CONTINUOUS
10
8.45616
20
-4.10113
11
8.44539
21
-4.09406
0
LINE
8
BLACK
6
CONTINUOUS
10
8.44539
20
-4.09406
11
8.43388
21
-4.08827
0
LINE
8
BLACK
6
CONTINUOUS
10
8.43388
20
-4.08827
11
8.42177
21
-4.08387
0
LINE
8
BLACK
6
CONTINUOUS
10
8.42177
20
-4.08387
11
8.40924
21
-4.0809
0
LINE
8
BLACK
6
CONTINUOUS
10
8.40924
20
-4.0809
11
8.39644
21
-4.0794
0
LINE
8
BLACK
6
CONTINUOUS
10
8.39644
20
-4.0794
11
8.38356
21
-4.0794
0
LINE
8
BLACK
6
CONTINUOUS
10
8.38356
20
-4.0794
11
8.37076
21
-4.0809
0
LINE
8
BLACK
6
CONTINUOUS
10
8.37076
20
-4.0809
11
8.35823
21
-4.08387
0
LINE
8
BLACK
6
CONTINUOUS
10
8.35823
20
-4.08387
11
8.34612
21
-4.08827
0
LINE
8
BLACK
6
CONTINUOUS
10
8.34612
20
-4.08827
11
8.33461
21
-4.09406
0
LINE
8
BLACK
6
CONTINUOUS
10
8.33461
20
-4.09406
11
8.32384
21
-4.10113
0
LINE
8
BLACK
6
CONTINUOUS
10
8.32384
20
-4.10113
11
8.31397
21
-4.10942
0
LINE
8
BLACK
6
CONTINUOUS
10
8.31397
20
-4.10942
11
8.30513
21
-4.11879
0
LINE
8
BLACK
6
CONTINUOUS
10
8.30513
20
-4.11879
11
8.29744
21
-4.12912
0
LINE
8
BLACK
6
CONTINUOUS
10
8.29744
20
-4.12912
11
8.291
21
-4.14028
0
LINE
8
BLACK
6
CONTINUOUS
10
8.291
20
-4.14028
11
8.28589
21
-4.15211
0
LINE
8
BLACK
6
CONTINUOUS
10
8.28589
20
-4.15211
11
8.2822
21
-4.16445
0
LINE
8
BLACK
6
CONTINUOUS
10
8.2822
20
-4.16445
11
8.27996
21
-4.17714
0
LINE
8
BLACK
6
CONTINUOUS
10
8.27996
20
-4.17714
11
8.27921
21
-4.19
0
LINE
8
BLACK
6
CONTINUOUS
10
8.27921
20
-4.19
11
8.27996
21
-4.20286
0
LINE
8
BLACK
6
CONTINUOUS
10
7.4
20
-4.03705
11
7.5
21
-4.03705
0
LINE
8
BLACK
6
CONTINUOUS
10
7.5
20
-4.03705
11
7.6
21
-4.03705
0
LINE
8
BLACK
6
CONTINUOUS
10
7.6
20
-4.03705
11
7.7
21
-4.03705
0
LINE
8
BLACK
6
CONTINUOUS
10
7.7
20
-4.03705
11
7.8
21
-4.03705
0
LINE
8
BLACK
6
CONTINUOUS
10
7.8
20
-4.03705
11
7.9
21
-4.03705
0
LINE
8
BLACK
6
CONTINUOUS
10
7.9
20
-4.03705
11
8
21
-4.03705
0
LINE
8
BLACK
6
CONTINUOUS
10
8
20
-4.03705
11
8.1
21
-4.03705
0
LINE
8
BLACK
6
CONTINUOUS
10
8.1
20
-4.03705
11
8.2
21
-4.03705
0
LINE
8
BLACK
6
CONTINUOUS
10
8.2
20
-4.03705
11
8.20038
21
-4.03711
0
LINE
8
BLACK
6
CONTINUOUS
10
8.20038
20
-4.03711
11
8.20051
21
-4.03709
0
LINE
8
BLACK
6
CONTINUOUS
10
8.20051
20
-4.03709
11
8.20063
21
-4.03716
0
LINE
8
BLACK
6
CONTINUOUS
10
8.20063
20
-4.03716
11
8.20101
21
-4.03723
0
LINE
8
BLACK
6
CONTINUOUS
10
8.20101
20
-4.03723
11
8.2016
21
-4.03772
0
LINE
8
BLACK
6
CONTINUOUS
10
8.2016
20
-4.03772
11
8.20226
21
-4.0381
0
LINE
8
BLACK
6
CONTINUOUS
10
8.20226
20
-4.0381
11
8.20235
21
-4.03835
0
LINE
8
BLACK
6
CONTINUOUS
10
8.20235
20
-4.03835
11
8.20256
21
-4.03852
0
LINE
8
BLACK
6
CONTINUOUS
10
8.20256
20
-4.03852
11
8.20269
21
-4.03928
0
LINE
8
BLACK
6
CONTINUOUS
10
8.20269
20
-4.03928
11
8.20295
21
-4.04
0
LINE
8
BLACK
6
CONTINUOUS
10
8.20295
20
-4.04
11
8.20295
21
-4.24
0
LINE
8
BLACK
6
CONTINUOUS
10
8.20295
20
-4.24
11
8.20289
21
-4.24038
0
LINE
8
BLACK
6
CONTINUOUS
10
8.20289
20
-4.24038
11
8.20291
21
-4.24051
0
LINE
8
BLACK
6
CONTINUOUS
10
8.20291
20
-4.24051
11
8.20284
21
-4.24063
0
LINE
8
BLACK
6
CONTINUOUS
10
8.20284
20
-4.24063
11
8.20277
21
-4.24101
0
LINE
8
BLACK
6
CONTINUOUS
10
8.20277
20
-4.24101
11
8.20228
21
-4.2416
0
LINE
8
BLACK
6
CONTINUOUS
10
8.20228
20
-4.2416
11
8.2019
21
-4.24226
0
LINE
8
BLACK
6
CONTINUOUS
10
8.2019
20
-4.24226
11
8.20165
21
-4.24235
0
LINE
8
BLACK
6
CONTINUOUS
10
8.20165
20
-4.24235
11
8.20148
21
-4.24256
0
LINE
8
BLACK
6
CONTINUOUS
10
8.20148
20
-4.24256
11
8.20072
21
-4.24269
0
LINE
8
BLACK
6
CONTINUOUS
10
8.20072
20
-4.24269
11
8.2
21
-4.24295
0
LINE
8
BLACK
6
CONTINUOUS
10
8.2
20
-4.24295
11
8.1
21
-4.24295
0
LINE
8
BLACK
6
CONTINUOUS
10
8.1
20
-4.24295
11
8
21
-4.24295
0
LINE
8
BLACK
6
CONTINUOUS
10
8
20
-4.24295
11
7.9
21
-4.24295
0
LINE
8
BLACK
6
CONTINUOUS
10
7.9
20
-4.24295
11
7.8
21
-4.24295
0
LINE
8
BLACK
6
CONTINUOUS
10
7.8
20
-4.24295
11
7.7
21
-4.24295
0
LINE
8
BLACK
6
CONTINUOUS
10
7.7
20
-4.24295
11
7.6
21
-4.24295
0
LINE
8
BLACK
6
CONTINUOUS
10
7.6
20
-4.24295
11
7.5
21
-4.24295
0
LINE
8
BLACK
6
CONTINUOUS
10
7.5
20
-4.24295
11
7.4
21
-4.24295
0
LINE
8
BLACK
6
CONTINUOUS
10
7.4
20
-4.24295
11
7.3
21
-4.24295
0
LINE
8
BLACK
6
CONTINUOUS
10
7.3
20
-4.24295
11
7.29962
21
-4.24289
0
LINE
8
BLACK
6
CONTINUOUS
10
7.29962
20
-4.24289
11
7.29949
21
-4.24291
0
LINE
8
BLACK
6
CONTINUOUS
10
7.29949
20
-4.24291
11
7.29937
21
-4.24284
0
LINE
8
BLACK
6
CONTINUOUS
10
7.29937
20
-4.24284
11
7.29899
21
-4.24277
0
LINE
8
BLACK
6
CONTINUOUS
10
7.29899
20
-4.24277
11
7.2984
21
-4.24228
0
LINE
8
BLACK
6
CONTINUOUS
10
7.2984
20
-4.24228
11
7.29774
21
-4.2419
0
LINE
8
BLACK
6
CONTINUOUS
10
7.29774
20
-4.2419
11
7.29765
21
-4.24165
0
LINE
8
BLACK
6
CONTINUOUS
10
7.29765
20
-4.24165
11
7.29744
21
-4.24148
0
LINE
8
BLACK
6
CONTINUOUS
10
7.29744
20
-4.24148
11
7.29731
21
-4.24072
0
LINE
8
BLACK
6
CONTINUOUS
10
7.29731
20
-4.24072
11
7.29705
21
-4.24
0
LINE
8
BLACK
6
CONTINUOUS
10
7.29705
20
-4.24
11
7.29705
21
-4.04
0
LINE
8
BLACK
6
CONTINUOUS
10
7.29705
20
-4.04
11
7.29711
21
-4.03962
0
LINE
8
BLACK
6
CONTINUOUS
10
7.29711
20
-4.03962
11
7.29709
21
-4.03949
0
LINE
8
BLACK
6
CONTINUOUS
10
7.29709
20
-4.03949
11
7.29716
21
-4.03937
0
LINE
8
BLACK
6
CONTINUOUS
10
7.29716
20
-4.03937
11
7.29723
21
-4.03899
0
LINE
8
BLACK
6
CONTINUOUS
10
7.29723
20
-4.03899
11
7.29772
21
-4.0384
0
LINE
8
BLACK
6
CONTINUOUS
10
7.29772
20
-4.0384
11
7.2981
21
-4.03774
0
LINE
8
BLACK
6
CONTINUOUS
10
7.2981
20
-4.03774
11
7.29835
21
-4.03765
0
LINE
8
BLACK
6
CONTINUOUS
10
7.29835
20
-4.03765
11
7.29852
21
-4.03744
0
LINE
8
BLACK
6
CONTINUOUS
10
7.29852
20
-4.03744
11
7.29928
21
-4.03731
0
LINE
8
BLACK
6
CONTINUOUS
10
7.29928
20
-4.03731
11
7.3
21
-4.03705
0
LINE
8
BLACK
6
CONTINUOUS
10
7.3
20
-4.03705
11
7.4
21
-4.03705
0
LINE
8
BLACK
6
CONTINUOUS
10
8.10295
20
-4.04295
11
8.10295
21
-4.23705
0
LINE
8
BLACK
6
CONTINUOUS
10
8.10295
20
-4.23705
11
8.19705
21
-4.23705
0
LINE
8
BLACK
6
CONTINUOUS
10
8.19705
20
-4.23705
11
8.19705
21
-4.04295
0
LINE
8
BLACK
6
CONTINUOUS
10
8.19705
20
-4.04295
11
8.10295
21
-4.04295
0
LINE
8
BLACK
6
CONTINUOUS
10
8.00295
20
-4.04295
11
8.00295
21
-4.23705
0
LINE
8
BLACK
6
CONTINUOUS
10
8.00295
20
-4.23705
11
8.09705
21
-4.23705
0
LINE
8
BLACK
6
CONTINUOUS
10
8.09705
20
-4.23705
11
8.09705
21
-4.04295
0
LINE
8
BLACK
6
CONTINUOUS
10
8.09705
20
-4.04295
11
8.00295
21
-4.04295
0
LINE
8
BLACK
6
CONTINUOUS
10
7.90295
20
-4.04295
11
7.90295
21
-4.23705
0
LINE
8
BLACK
6
CONTINUOUS
10
7.90295
20
-4.23705
11
7.99705
21
-4.23705
0
LINE
8
BLACK
6
CONTINUOUS
10
7.99705
20
-4.23705
11
7.99705
21
-4.04295
0
LINE
8
BLACK
6
CONTINUOUS
10
7.99705
20
-4.04295
11
7.90295
21
-4.04295
0
LINE
8
BLACK
6
CONTINUOUS
10
7.80295
20
-4.04295
11
7.80295
21
-4.23705
0
LINE
8
BLACK
6
CONTINUOUS
10
7.80295
20
-4.23705
11
7.89705
21
-4.23705
0
LINE
8
BLACK
6
CONTINUOUS
10
7.89705
20
-4.23705
11
7.89705
21
-4.04295
0
LINE
8
BLACK
6
CONTINUOUS
10
7.89705
20
-4.04295
11
7.80295
21
-4.04295
0
LINE
8
BLACK
6
CONTINUOUS
10
7.70295
20
-4.04295
11
7.70295
21
-4.23705
0
LINE
8
BLACK
6
CONTINUOUS
10
7.70295
20
-4.23705
11
7.79705
21
-4.23705
0
LINE
8
BLACK
6
CONTINUOUS
10
7.79705
20
-4.23705
11
7.79705
21
-4.04295
0
LINE
8
BLACK
6
CONTINUOUS
10
7.79705
20
-4.04295
11
7.70295
21
-4.04295
0
LINE
8
BLACK
6
CONTINUOUS
10
7.60295
20
-4.04295
11
7.60295
21
-4.23705
0
LINE
8
BLACK
6
CONTINUOUS
10
7.60295
20
-4.23705
11
7.69705
21
-4.23705
0
LINE
8
BLACK
6
CONTINUOUS
10
7.69705
20
-4.23705
11
7.69705
21
-4.04295
0
LINE
8
BLACK
6
CONTINUOUS
10
7.69705
20
-4.04295
11
7.60295
21
-4.04295
0
LINE
8
BLACK
6
CONTINUOUS
10
7.50295
20
-4.04295
11
7.50295
21
-4.23705
0
LINE
8
BLACK
6
CONTINUOUS
10
7.50295
20
-4.23705
11
7.59705
21
-4.23705
0
LINE
8
BLACK
6
CONTINUOUS
10
7.59705
20
-4.23705
11
7.59705
21
-4.04295
0
LINE
8
BLACK
6
CONTINUOUS
10
7.59705
20
-4.04295
11
7.50295
21
-4.04295
0
LINE
8
BLACK
6
CONTINUOUS
10
7.40295
20
-4.04295
11
7.40295
21
-4.23705
0
LINE
8
BLACK
6
CONTINUOUS
10
7.40295
20
-4.23705
11
7.49705
21
-4.23705
0
LINE
8
BLACK
6
CONTINUOUS
10
7.49705
20
-4.23705
11
7.49705
21
-4.04295
0
LINE
8
BLACK
6
CONTINUOUS
10
7.49705
20
-4.04295
11
7.40295
21
-4.04295
0
LINE
8
BLACK
6
CONTINUOUS
10
7.30295
20
-4.04295
11
7.30295
21
-4.23705
0
LINE
8
BLACK
6
CONTINUOUS
10
7.30295
20
-4.23705
11
7.39705
21
-4.23705
0
LINE
8
BLACK
6
CONTINUOUS
10
7.39705
20
-4.23705
11
7.39705
21
-4.04295
0
LINE
8
BLACK
6
CONTINUOUS
10
7.39705
20
-4.04295
11
7.30295
21
-4.04295
0
LINE
8
BLACK
6
CONTINUOUS
10
6.89039
20
-4.17164
11
6.89108
21
-4.17354
0
LINE
8
BLACK
6
CONTINUOUS
10
6.89108
20
-4.17354
11
6.89108
21
-4.20166
0
LINE
8
BLACK
6
CONTINUOUS
10
6.89108
20
-4.20166
11
6.89093
21
-4.20253
0
LINE
8
BLACK
6
CONTINUOUS
10
6.89093
20
-4.20253
11
6.89093
21
-4.20259
0
LINE
8
BLACK
6
CONTINUOUS
10
6.89093
20
-4.20259
11
6.88906
21
-4.20822
0
LINE
8
BLACK
6
CONTINUOUS
10
6.88906
20
-4.20822
11
6.88857
21
-4.20912
0
LINE
8
BLACK
6
CONTINUOUS
10
6.88857
20
-4.20912
11
6.88842
21
-4.20921
0
LINE
8
BLACK
6
CONTINUOUS
10
6.88842
20
-4.20921
11
6.88834
21
-4.20937
0
LINE
8
BLACK
6
CONTINUOUS
10
6.88834
20
-4.20937
11
6.88459
21
-4.21312
0
LINE
8
BLACK
6
CONTINUOUS
10
6.88459
20
-4.21312
11
6.88375
21
-4.21371
0
LINE
8
BLACK
6
CONTINUOUS
10
6.88375
20
-4.21371
11
6.88358
21
-4.21372
0
LINE
8
BLACK
6
CONTINUOUS
10
6.88358
20
-4.21372
11
6.88344
21
-4.21383
0
LINE
8
BLACK
6
CONTINUOUS
10
6.88344
20
-4.21383
11
6.87781
21
-4.21571
0
LINE
8
BLACK
6
CONTINUOUS
10
6.87781
20
-4.21571
11
6.87694
21
-4.21584
0
LINE
8
BLACK
6
CONTINUOUS
10
6.87694
20
-4.21584
11
6.87688
21
-4.21586
0
LINE
8
BLACK
6
CONTINUOUS
10
6.87688
20
-4.21586
11
6.87313
21
-4.21586
0
LINE
8
BLACK
6
CONTINUOUS
10
6.87313
20
-4.21586
11
6.87212
21
-4.21568
0
LINE
8
BLACK
6
CONTINUOUS
10
6.87212
20
-4.21568
11
6.87057
21
-4.21438
0
LINE
8
BLACK
6
CONTINUOUS
10
6.87057
20
-4.21438
11
6.87022
21
-4.21239
0
LINE
8
BLACK
6
CONTINUOUS
10
6.87022
20
-4.21239
11
6.87123
21
-4.21064
0
LINE
8
BLACK
6
CONTINUOUS
10
6.87123
20
-4.21064
11
6.87313
21
-4.20995
0
LINE
8
BLACK
6
CONTINUOUS
10
6.87313
20
-4.20995
11
6.8764
21
-4.20995
0
LINE
8
BLACK
6
CONTINUOUS
10
6.8764
20
-4.20995
11
6.88091
21
-4.20845
0
LINE
8
BLACK
6
CONTINUOUS
10
6.88091
20
-4.20845
11
6.88367
21
-4.20569
0
LINE
8
BLACK
6
CONTINUOUS
10
6.88367
20
-4.20569
11
6.88518
21
-4.20118
0
LINE
8
BLACK
6
CONTINUOUS
10
6.88518
20
-4.20118
11
6.88518
21
-4.17354
0
LINE
8
BLACK
6
CONTINUOUS
10
6.88518
20
-4.17354
11
6.88535
21
-4.17253
0
LINE
8
BLACK
6
CONTINUOUS
10
6.88535
20
-4.17253
11
6.88665
21
-4.17098
0
LINE
8
BLACK
6
CONTINUOUS
10
6.88665
20
-4.17098
11
6.88864
21
-4.17063
0
LINE
8
BLACK
6
CONTINUOUS
10
6.88864
20
-4.17063
11
6.89039
21
-4.17164
0
LINE
8
BLACK
6
CONTINUOUS
10
6.92101
20
-4.17076
11
6.92115
21
-4.17087
0
LINE
8
BLACK
6
CONTINUOUS
10
6.92115
20
-4.17087
11
6.92132
21
-4.1709
0
LINE
8
BLACK
6
CONTINUOUS
10
6.92132
20
-4.1709
11
6.92507
21
-4.17277
0
LINE
8
BLACK
6
CONTINUOUS
10
6.92507
20
-4.17277
11
6.92578
21
-4.1733
0
LINE
8
BLACK
6
CONTINUOUS
10
6.92578
20
-4.1733
11
6.92584
21
-4.17332
0
LINE
8
BLACK
6
CONTINUOUS
10
6.92584
20
-4.17332
11
6.92771
21
-4.1752
0
LINE
8
BLACK
6
CONTINUOUS
10
6.92771
20
-4.1752
11
6.92822
21
-4.17592
0
LINE
8
BLACK
6
CONTINUOUS
10
6.92822
20
-4.17592
11
6.92827
21
-4.17597
0
LINE
8
BLACK
6
CONTINUOUS
10
6.92827
20
-4.17597
11
6.93014
21
-4.17971
0
LINE
8
BLACK
6
CONTINUOUS
10
6.93014
20
-4.17971
11
6.93043
21
-4.1807
0
LINE
8
BLACK
6
CONTINUOUS
10
6.93043
20
-4.1807
11
6.93039
21
-4.18087
0
LINE
8
BLACK
6
CONTINUOUS
10
6.93039
20
-4.18087
11
6.93045
21
-4.18104
0
LINE
8
BLACK
6
CONTINUOUS
10
6.93045
20
-4.18104
11
6.93045
21
-4.18478
0
LINE
8
BLACK
6
CONTINUOUS
10
6.93045
20
-4.18478
11
6.9303
21
-4.18565
0
LINE
8
BLACK
6
CONTINUOUS
10
6.9303
20
-4.18565
11
6.9303
21
-4.18572
0
LINE
8
BLACK
6
CONTINUOUS
10
6.9303
20
-4.18572
11
6.92843
21
-4.19134
0
LINE
8
BLACK
6
CONTINUOUS
10
6.92843
20
-4.19134
11
6.92794
21
-4.19224
0
LINE
8
BLACK
6
CONTINUOUS
10
6.92794
20
-4.19224
11
6.92779
21
-4.19234
0
LINE
8
BLACK
6
CONTINUOUS
10
6.92779
20
-4.19234
11
6.92771
21
-4.1925
0
LINE
8
BLACK
6
CONTINUOUS
10
6.92771
20
-4.1925
11
6.91026
21
-4.20995
0
LINE
8
BLACK
6
CONTINUOUS
10
6.91026
20
-4.20995
11
6.9275
21
-4.20995
0
LINE
8
BLACK
6
CONTINUOUS
10
6.9275
20
-4.20995
11
6.92851
21
-4.21013
0
LINE
8
BLACK
6
CONTINUOUS
10
6.92851
20
-4.21013
11
6.93006
21
-4.21143
0
LINE
8
BLACK
6
CONTINUOUS
10
6.93006
20
-4.21143
11
6.93041
21
-4.21342
0
LINE
8
BLACK
6
CONTINUOUS
10
6.93041
20
-4.21342
11
6.9294
21
-4.21517
0
LINE
8
BLACK
6
CONTINUOUS
10
6.9294
20
-4.21517
11
6.9275
21
-4.21586
0
LINE
8
BLACK
6
CONTINUOUS
10
6.9275
20
-4.21586
11
6.90313
21
-4.21586
0
LINE
8
BLACK
6
CONTINUOUS
10
6.90313
20
-4.21586
11
6.90249
21
-4.21575
0
LINE
8
BLACK
6
CONTINUOUS
10
6.90249
20
-4.21575
11
6.90236
21
-4.21576
0
LINE
8
BLACK
6
CONTINUOUS
10
6.90236
20
-4.21576
11
6.9023
21
-4.21571
0
LINE
8
BLACK
6
CONTINUOUS
10
6.9023
20
-4.21571
11
6.90212
21
-4.21568
0
LINE
8
BLACK
6
CONTINUOUS
10
6.90212
20
-4.21568
11
6.90144
21
-4.21511
0
LINE
8
BLACK
6
CONTINUOUS
10
6.90144
20
-4.21511
11
6.90071
21
-4.2146
0
LINE
8
BLACK
6
CONTINUOUS
10
6.90071
20
-4.2146
11
6.90067
21
-4.21447
0
LINE
8
BLACK
6
CONTINUOUS
10
6.90067
20
-4.21447
11
6.90057
21
-4.21438
0
LINE
8
BLACK
6
CONTINUOUS
10
6.90057
20
-4.21438
11
6.90042
21
-4.21351
0
LINE
8
BLACK
6
CONTINUOUS
10
6.90042
20
-4.21351
11
6.90019
21
-4.21265
0
LINE
8
BLACK
6
CONTINUOUS
10
6.90019
20
-4.21265
11
6.90024
21
-4.21253
0
LINE
8
BLACK
6
CONTINUOUS
10
6.90024
20
-4.21253
11
6.90022
21
-4.21239
0
LINE
8
BLACK
6
CONTINUOUS
10
6.90022
20
-4.21239
11
6.90066
21
-4.21162
0
LINE
8
BLACK
6
CONTINUOUS
10
6.90066
20
-4.21162
11
6.90104
21
-4.21082
0
LINE
8
BLACK
6
CONTINUOUS
10
6.90104
20
-4.21082
11
6.92304
21
-4.18881
0
LINE
8
BLACK
6
CONTINUOUS
10
6.92304
20
-4.18881
11
6.92455
21
-4.18431
0
LINE
8
BLACK
6
CONTINUOUS
10
6.92455
20
-4.18431
11
6.92455
21
-4.18173
0
LINE
8
BLACK
6
CONTINUOUS
10
6.92455
20
-4.18173
11
6.9232
21
-4.17903
0
LINE
8
BLACK
6
CONTINUOUS
10
6.9232
20
-4.17903
11
6.922
21
-4.17784
0
LINE
8
BLACK
6
CONTINUOUS
10
6.922
20
-4.17784
11
6.9193
21
-4.17649
0
LINE
8
BLACK
6
CONTINUOUS
10
6.9193
20
-4.17649
11
6.91132
21
-4.17649
0
LINE
8
BLACK
6
CONTINUOUS
10
6.91132
20
-4.17649
11
6.90863
21
-4.17784
0
LINE
8
BLACK
6
CONTINUOUS
10
6.90863
20
-4.17784
11
6.90709
21
-4.17937
0
LINE
8
BLACK
6
CONTINUOUS
10
6.90709
20
-4.17937
11
6.90625
21
-4.17996
0
LINE
8
BLACK
6
CONTINUOUS
10
6.90625
20
-4.17996
11
6.90424
21
-4.18014
0
LINE
8
BLACK
6
CONTINUOUS
10
6.90424
20
-4.18014
11
6.90258
21
-4.17898
0
LINE
8
BLACK
6
CONTINUOUS
10
6.90258
20
-4.17898
11
6.90206
21
-4.17703
0
LINE
8
BLACK
6
CONTINUOUS
10
6.90206
20
-4.17703
11
6.90291
21
-4.1752
0
LINE
8
BLACK
6
CONTINUOUS
10
6.90291
20
-4.1752
11
6.90479
21
-4.17332
0
LINE
8
BLACK
6
CONTINUOUS
10
6.90479
20
-4.17332
11
6.90551
21
-4.17282
0
LINE
8
BLACK
6
CONTINUOUS
10
6.90551
20
-4.17282
11
6.90556
21
-4.17277
0
LINE
8
BLACK
6
CONTINUOUS
10
6.90556
20
-4.17277
11
6.90931
21
-4.1709
0
LINE
8
BLACK
6
CONTINUOUS
10
6.90931
20
-4.1709
11
6.91029
21
-4.1706
0
LINE
8
BLACK
6
CONTINUOUS
10
6.91029
20
-4.1706
11
6.91046
21
-4.17064
0
LINE
8
BLACK
6
CONTINUOUS
10
6.91046
20
-4.17064
11
6.91063
21
-4.17058
0
LINE
8
BLACK
6
CONTINUOUS
10
6.91063
20
-4.17058
11
6.92
21
-4.17058
0
LINE
8
BLACK
6
CONTINUOUS
10
6.92
20
-4.17058
11
6.92101
21
-4.17076
0
LINE
8
BLACK
6
CONTINUOUS
10
6.96225
20
-4.17076
11
6.9638
21
-4.17206
0
LINE
8
BLACK
6
CONTINUOUS
10
6.9638
20
-4.17206
11
6.96415
21
-4.17405
0
LINE
8
BLACK
6
CONTINUOUS
10
6.96415
20
-4.17405
11
6.96314
21
-4.1758
0
LINE
8
BLACK
6
CONTINUOUS
10
6.96314
20
-4.1758
11
6.96124
21
-4.17649
0
LINE
8
BLACK
6
CONTINUOUS
10
6.96124
20
-4.17649
11
6.95444
21
-4.17649
0
LINE
8
BLACK
6
CONTINUOUS
10
6.95444
20
-4.17649
11
6.95175
21
-4.17784
0
LINE
8
BLACK
6
CONTINUOUS
10
6.95175
20
-4.17784
11
6.95042
21
-4.17917
0
LINE
8
BLACK
6
CONTINUOUS
10
6.95042
20
-4.17917
11
6.94711
21
-4.18412
0
LINE
8
BLACK
6
CONTINUOUS
10
6.94711
20
-4.18412
11
6.94638
21
-4.18704
0
LINE
8
BLACK
6
CONTINUOUS
10
6.94638
20
-4.18704
11
6.94868
21
-4.18589
0
LINE
8
BLACK
6
CONTINUOUS
10
6.94868
20
-4.18589
11
6.94966
21
-4.1856
0
LINE
8
BLACK
6
CONTINUOUS
10
6.94966
20
-4.1856
11
6.94983
21
-4.18564
0
LINE
8
BLACK
6
CONTINUOUS
10
6.94983
20
-4.18564
11
6.95
21
-4.18558
0
LINE
8
BLACK
6
CONTINUOUS
10
6.95
20
-4.18558
11
6.9575
21
-4.18558
0
LINE
8
BLACK
6
CONTINUOUS
10
6.9575
20
-4.18558
11
6.95851
21
-4.18576
0
LINE
8
BLACK
6
CONTINUOUS
10
6.95851
20
-4.18576
11
6.95864
21
-4.18587
0
LINE
8
BLACK
6
CONTINUOUS
10
6.95864
20
-4.18587
11
6.95882
21
-4.18589
0
LINE
8
BLACK
6
CONTINUOUS
10
6.95882
20
-4.18589
11
6.96257
21
-4.18777
0
LINE
8
BLACK
6
CONTINUOUS
10
6.96257
20
-4.18777
11
6.96327
21
-4.18829
0
LINE
8
BLACK
6
CONTINUOUS
10
6.96327
20
-4.18829
11
6.96333
21
-4.18832
0
LINE
8
BLACK
6
CONTINUOUS
10
6.96333
20
-4.18832
11
6.96521
21
-4.1902
0
LINE
8
BLACK
6
CONTINUOUS
10
6.96521
20
-4.1902
11
6.96571
21
-4.19092
0
LINE
8
BLACK
6
CONTINUOUS
10
6.96571
20
-4.19092
11
6.96576
21
-4.19096
0
LINE
8
BLACK
6
CONTINUOUS
10
6.96576
20
-4.19096
11
6.96764
21
-4.19471
0
LINE
8
BLACK
6
CONTINUOUS
10
6.96764
20
-4.19471
11
6.96793
21
-4.1957
0
LINE
8
BLACK
6
CONTINUOUS
10
6.96793
20
-4.1957
11
6.96789
21
-4.19587
0
LINE
8
BLACK
6
CONTINUOUS
10
6.96789
20
-4.19587
11
6.96795
21
-4.19603
0
LINE
8
BLACK
6
CONTINUOUS
10
6.96795
20
-4.19603
11
6.96795
21
-4.20541
0
LINE
8
BLACK
6
CONTINUOUS
10
6.96795
20
-4.20541
11
6.96777
21
-4.20642
0
LINE
8
BLACK
6
CONTINUOUS
10
6.96777
20
-4.20642
11
6.96766
21
-4.20655
0
LINE
8
BLACK
6
CONTINUOUS
10
6.96766
20
-4.20655
11
6.96764
21
-4.20673
0
LINE
8
BLACK
6
CONTINUOUS
10
6.96764
20
-4.20673
11
6.96576
21
-4.21048
0
LINE
8
BLACK
6
CONTINUOUS
10
6.96576
20
-4.21048
11
6.96523
21
-4.21119
0
LINE
8
BLACK
6
CONTINUOUS
10
6.96523
20
-4.21119
11
6.96521
21
-4.21124
0
LINE
8
BLACK
6
CONTINUOUS
10
6.96521
20
-4.21124
11
6.96333
21
-4.21312
0
LINE
8
BLACK
6
CONTINUOUS
10
6.96333
20
-4.21312
11
6.96261
21
-4.21363
0
LINE
8
BLACK
6
CONTINUOUS
10
6.96261
20
-4.21363
11
6.96257
21
-4.21367
0
LINE
8
BLACK
6
CONTINUOUS
10
6.96257
20
-4.21367
11
6.95882
21
-4.21555
0
LINE
8
BLACK
6
CONTINUOUS
10
6.95882
20
-4.21555
11
6.95783
21
-4.21584
0
LINE
8
BLACK
6
CONTINUOUS
10
6.95783
20
-4.21584
11
6.95766
21
-4.2158
0
LINE
8
BLACK
6
CONTINUOUS
10
6.95766
20
-4.2158
11
6.9575
21
-4.21586
0
LINE
8
BLACK
6
CONTINUOUS
10
6.9575
20
-4.21586
11
6.95
21
-4.21586
0
LINE
8
BLACK
6
CONTINUOUS
10
6.95
20
-4.21586
11
6.94899
21
-4.21568
0
LINE
8
BLACK
6
CONTINUOUS
10
6.94899
20
-4.21568
11
6.94885
21
-4.21557
0
LINE
8
BLACK
6
CONTINUOUS
10
6.94885
20
-4.21557
11
6.94868
21
-4.21555
0
LINE
8
BLACK
6
CONTINUOUS
10
6.94868
20
-4.21555
11
6.94493
21
-4.21367
0
LINE
8
BLACK
6
CONTINUOUS
10
6.94493
20
-4.21367
11
6.94422
21
-4.21315
0
LINE
8
BLACK
6
CONTINUOUS
10
6.94422
20
-4.21315
11
6.94416
21
-4.21312
0
LINE
8
BLACK
6
CONTINUOUS
10
6.94416
20
-4.21312
11
6.94228
21
-4.21124
0
LINE
8
BLACK
6
CONTINUOUS
10
6.94228
20
-4.21124
11
6.94178
21
-4.21052
0
LINE
8
BLACK
6
CONTINUOUS
10
6.94178
20
-4.21052
11
6.94173
21
-4.21048
0
LINE
8
BLACK
6
CONTINUOUS
10
6.94173
20
-4.21048
11
6.93986
21
-4.20673
0
LINE
8
BLACK
6
CONTINUOUS
10
6.93986
20
-4.20673
11
6.93956
21
-4.20574
0
LINE
8
BLACK
6
CONTINUOUS
10
6.93956
20
-4.20574
11
6.9396
21
-4.20557
0
LINE
8
BLACK
6
CONTINUOUS
10
6.9396
20
-4.20557
11
6.93954
21
-4.20541
0
LINE
8
BLACK
6
CONTINUOUS
10
6.93954
20
-4.20541
11
6.93954
21
-4.19041
0
LINE
8
BLACK
6
CONTINUOUS
10
6.93954
20
-4.19041
11
6.93965
21
-4.18983
0
LINE
8
BLACK
6
CONTINUOUS
10
6.93965
20
-4.18983
11
6.93963
21
-4.18969
0
LINE
8
BLACK
6
CONTINUOUS
10
6.93963
20
-4.18969
11
6.94151
21
-4.18219
0
LINE
8
BLACK
6
CONTINUOUS
10
6.94151
20
-4.18219
11
6.94191
21
-4.18129
0
LINE
8
BLACK
6
CONTINUOUS
10
6.94191
20
-4.18129
11
6.94192
21
-4.18127
0
LINE
8
BLACK
6
CONTINUOUS
10
6.94192
20
-4.18127
11
6.94566
21
-4.17565
0
LINE
8
BLACK
6
CONTINUOUS
10
6.94566
20
-4.17565
11
6.94598
21
-4.17532
0
LINE
8
BLACK
6
CONTINUOUS
10
6.94598
20
-4.17532
11
6.94603
21
-4.1752
0
LINE
8
BLACK
6
CONTINUOUS
10
6.94603
20
-4.1752
11
6.94791
21
-4.17332
0
LINE
8
BLACK
6
CONTINUOUS
10
6.94791
20
-4.17332
11
6.94863
21
-4.17282
0
LINE
8
BLACK
6
CONTINUOUS
10
6.94863
20
-4.17282
11
6.94868
21
-4.17277
0
LINE
8
BLACK
6
CONTINUOUS
10
6.94868
20
-4.17277
11
6.95243
21
-4.1709
0
LINE
8
BLACK
6
CONTINUOUS
10
6.95243
20
-4.1709
11
6.95341
21
-4.1706
0
LINE
8
BLACK
6
CONTINUOUS
10
6.95341
20
-4.1706
11
6.95358
21
-4.17064
0
LINE
8
BLACK
6
CONTINUOUS
10
6.95358
20
-4.17064
11
6.95375
21
-4.17058
0
LINE
8
BLACK
6
CONTINUOUS
10
6.95375
20
-4.17058
11
6.96124
21
-4.17058
0
LINE
8
BLACK
6
CONTINUOUS
10
6.96124
20
-4.17058
11
6.96225
21
-4.17076
0
LINE
8
BLACK
6
CONTINUOUS
10
6.948
20
-4.19284
11
6.9468
21
-4.19403
0
LINE
8
BLACK
6
CONTINUOUS
10
6.9468
20
-4.19403
11
6.94545
21
-4.19673
0
LINE
8
BLACK
6
CONTINUOUS
10
6.94545
20
-4.19673
11
6.94545
21
-4.20471
0
LINE
8
BLACK
6
CONTINUOUS
10
6.94545
20
-4.20471
11
6.9468
21
-4.20741
0
LINE
8
BLACK
6
CONTINUOUS
10
6.9468
20
-4.20741
11
6.948
21
-4.2086
0
LINE
8
BLACK
6
CONTINUOUS
10
6.948
20
-4.2086
11
6.95069
21
-4.20995
0
LINE
8
BLACK
6
CONTINUOUS
10
6.95069
20
-4.20995
11
6.9568
21
-4.20995
0
LINE
8
BLACK
6
CONTINUOUS
10
6.9568
20
-4.20995
11
6.9595
21
-4.2086
0
LINE
8
BLACK
6
CONTINUOUS
10
6.9595
20
-4.2086
11
6.96069
21
-4.20741
0
LINE
8
BLACK
6
CONTINUOUS
10
6.96069
20
-4.20741
11
6.96204
21
-4.20471
0
LINE
8
BLACK
6
CONTINUOUS
10
6.96204
20
-4.20471
11
6.96204
21
-4.19673
0
LINE
8
BLACK
6
CONTINUOUS
10
6.96204
20
-4.19673
11
6.96069
21
-4.19403
0
LINE
8
BLACK
6
CONTINUOUS
10
6.96069
20
-4.19403
11
6.9595
21
-4.19284
0
LINE
8
BLACK
6
CONTINUOUS
10
6.9595
20
-4.19284
11
6.9568
21
-4.19149
0
LINE
8
BLACK
6
CONTINUOUS
10
6.9568
20
-4.19149
11
6.95069
21
-4.19149
0
LINE
8
BLACK
6
CONTINUOUS
10
6.95069
20
-4.19149
11
6.948
21
-4.19284
0
LINE
8
BLACK
6
CONTINUOUS
10
7.25
20
-4.03303
11
7.25139
21
-4.03361
0
LINE
8
BLACK
6
CONTINUOUS
10
7.25139
20
-4.03361
11
7.25197
21
-4.035
0
LINE
8
BLACK
6
CONTINUOUS
10
7.25197
20
-4.035
11
7.25197
21
-4.24
0
LINE
8
BLACK
6
CONTINUOUS
10
7.25197
20
-4.24
11
7.25139
21
-4.24139
0
LINE
8
BLACK
6
CONTINUOUS
10
7.25139
20
-4.24139
11
7.25
21
-4.24197
0
LINE
8
BLACK
6
CONTINUOUS
10
7.25
20
-4.24197
11
6.59
21
-4.24197
0
LINE
8
BLACK
6
CONTINUOUS
10
6.59
20
-4.24197
11
6.58861
21
-4.24139
0
LINE
8
BLACK
6
CONTINUOUS
10
6.58861
20
-4.24139
11
6.58803
21
-4.24
0
LINE
8
BLACK
6
CONTINUOUS
10
6.58803
20
-4.24
11
6.58803
21
-4.035
0
LINE
8
BLACK
6
CONTINUOUS
10
6.58803
20
-4.035
11
6.58861
21
-4.03361
0
LINE
8
BLACK
6
CONTINUOUS
10
6.58861
20
-4.03361
11
6.59
21
-4.03303
0
LINE
8
BLACK
6
CONTINUOUS
10
6.59
20
-4.03303
11
7.25
21
-4.03303
0
LINE
8
BLACK
6
CONTINUOUS
10
6.59197
20
-4.03697
11
6.59197
21
-4.23803
0
LINE
8
BLACK
6
CONTINUOUS
10
6.59197
20
-4.23803
11
7.24803
21
-4.23803
0
LINE
8
BLACK
6
CONTINUOUS
10
7.24803
20
-4.23803
11
7.24803
21
-4.03697
0
LINE
8
BLACK
6
CONTINUOUS
10
7.24803
20
-4.03697
11
6.59197
21
-4.03697
  0
ENDSEC
  0
EOF
