  0
SECTION
  2
HEADER
  9
$ANGBASE
  50
0.0
  9
$ANGDIR
  70
1
  9
$MEASUREMENT
  70
0
  0
ENDSEC
  0
SECTION
  2
TABLES
  0
TABLE
  2
LTYPE
  70
4
  0
LTYPE
  5
40F
  2
CONTINUOUS
  70
0
  3
Solid line
  72
65
  73
0
  40
0.0
  0
LTYPE
  5
410
  2
DASHDOT
 70
0
  3
Dash Dot ____ _ ____ _
 72
65
 73
4
 40
2.0
 49
1.25
 49
-0.25
 49
0.25
 49
-0.25
  0
LTYPE
  5
411
  2
DASHED
 70
0
  3
Dashed __ __ __ __ __
 72
65
 73
2
 40
0.75
 49
0.5
 49
-0.25
  0
LTYPE
  5
43B
  2
DOTTED
 70
0
  3
Dotted .  .  .  .
 72
65
 73
2
 40
0.2
 49
0.0
 49
-0.2
  0
ENDTAB
  0
TABLE
  2
STYLE
  70
4
  0
STYLE
  2
KICAD
  70
0
  40
0
  41
1
  42
1
  50
0
  71
0
  3
isocp.shx
  0
STYLE
  2
KICADB
  70
0
  40
0
  41
1
  42
1
  50
0
  71
0
  3
isocp.shx
  0
STYLE
  2
KICADI
  70
0
  40
0
  41
1
  42
1
  50
15
  71
0
  3
isocp.shx
  0
STYLE
  2
KICADBI
  70
0
  40
0
  41
1
  42
1
  50
15
  71
0
  3
isocp.shx
  0
ENDTAB
  0
TABLE
  2
LAYER
  70
1
  0
LAYER
  2
BLACK
  70
0
  62
7
  6
CONTINUOUS
  0
ENDTAB
  0
ENDSEC
  0
SECTION
  2
ENTITIES
0
LINE
8
BLACK
6
CONTINUOUS
10
7.39962
20
-5.54289
11
7.39949
21
-5.54291
0
LINE
8
BLACK
6
CONTINUOUS
10
7.39949
20
-5.54291
11
7.39937
21
-5.54284
0
LINE
8
BLACK
6
CONTINUOUS
10
7.39937
20
-5.54284
11
7.39899
21
-5.54277
0
LINE
8
BLACK
6
CONTINUOUS
10
7.39899
20
-5.54277
11
7.3984
21
-5.54228
0
LINE
8
BLACK
6
CONTINUOUS
10
7.3984
20
-5.54228
11
7.39774
21
-5.5419
0
LINE
8
BLACK
6
CONTINUOUS
10
7.39774
20
-5.5419
11
7.39765
21
-5.54165
0
LINE
8
BLACK
6
CONTINUOUS
10
7.39765
20
-5.54165
11
7.39744
21
-5.54148
0
LINE
8
BLACK
6
CONTINUOUS
10
7.39744
20
-5.54148
11
7.39731
21
-5.54072
0
LINE
8
BLACK
6
CONTINUOUS
10
7.39731
20
-5.54072
11
7.39705
21
-5.54
0
LINE
8
BLACK
6
CONTINUOUS
10
7.39705
20
-5.54
11
7.39705
21
-5.34
0
LINE
8
BLACK
6
CONTINUOUS
10
7.39705
20
-5.34
11
7.39711
21
-5.33962
0
LINE
8
BLACK
6
CONTINUOUS
10
7.39711
20
-5.33962
11
7.39709
21
-5.33949
0
LINE
8
BLACK
6
CONTINUOUS
10
7.39709
20
-5.33949
11
7.39716
21
-5.33937
0
LINE
8
BLACK
6
CONTINUOUS
10
7.39716
20
-5.33937
11
7.39723
21
-5.33899
0
LINE
8
BLACK
6
CONTINUOUS
10
7.39723
20
-5.33899
11
7.39772
21
-5.3384
0
LINE
8
BLACK
6
CONTINUOUS
10
7.39772
20
-5.3384
11
7.3981
21
-5.33774
0
LINE
8
BLACK
6
CONTINUOUS
10
7.3981
20
-5.33774
11
7.39835
21
-5.33765
0
LINE
8
BLACK
6
CONTINUOUS
10
7.39835
20
-5.33765
11
7.39852
21
-5.33744
0
LINE
8
BLACK
6
CONTINUOUS
10
7.39852
20
-5.33744
11
7.39928
21
-5.33731
0
LINE
8
BLACK
6
CONTINUOUS
10
7.39928
20
-5.33731
11
7.4
21
-5.33705
0
LINE
8
BLACK
6
CONTINUOUS
10
7.4
20
-5.33705
11
8.2
21
-5.33705
0
LINE
8
BLACK
6
CONTINUOUS
10
8.2
20
-5.33705
11
8.20038
21
-5.33711
0
LINE
8
BLACK
6
CONTINUOUS
10
8.20038
20
-5.33711
11
8.20051
21
-5.33709
0
LINE
8
BLACK
6
CONTINUOUS
10
8.20051
20
-5.33709
11
8.20063
21
-5.33716
0
LINE
8
BLACK
6
CONTINUOUS
10
8.20063
20
-5.33716
11
8.20101
21
-5.33723
0
LINE
8
BLACK
6
CONTINUOUS
10
8.20101
20
-5.33723
11
8.2016
21
-5.33772
0
LINE
8
BLACK
6
CONTINUOUS
10
8.2016
20
-5.33772
11
8.20226
21
-5.3381
0
LINE
8
BLACK
6
CONTINUOUS
10
8.20226
20
-5.3381
11
8.20235
21
-5.33835
0
LINE
8
BLACK
6
CONTINUOUS
10
8.20235
20
-5.33835
11
8.20256
21
-5.33852
0
LINE
8
BLACK
6
CONTINUOUS
10
8.20256
20
-5.33852
11
8.20269
21
-5.33928
0
LINE
8
BLACK
6
CONTINUOUS
10
8.20269
20
-5.33928
11
8.20295
21
-5.34
0
LINE
8
BLACK
6
CONTINUOUS
10
8.20295
20
-5.34
11
8.20295
21
-5.54
0
LINE
8
BLACK
6
CONTINUOUS
10
8.20295
20
-5.54
11
8.20289
21
-5.54038
0
LINE
8
BLACK
6
CONTINUOUS
10
8.20289
20
-5.54038
11
8.20291
21
-5.54051
0
LINE
8
BLACK
6
CONTINUOUS
10
8.20291
20
-5.54051
11
8.20284
21
-5.54063
0
LINE
8
BLACK
6
CONTINUOUS
10
8.20284
20
-5.54063
11
8.20277
21
-5.54101
0
LINE
8
BLACK
6
CONTINUOUS
10
8.20277
20
-5.54101
11
8.20228
21
-5.5416
0
LINE
8
BLACK
6
CONTINUOUS
10
8.20228
20
-5.5416
11
8.2019
21
-5.54226
0
LINE
8
BLACK
6
CONTINUOUS
10
8.2019
20
-5.54226
11
8.20165
21
-5.54235
0
LINE
8
BLACK
6
CONTINUOUS
10
8.20165
20
-5.54235
11
8.20148
21
-5.54256
0
LINE
8
BLACK
6
CONTINUOUS
10
8.20148
20
-5.54256
11
8.20072
21
-5.54269
0
LINE
8
BLACK
6
CONTINUOUS
10
8.20072
20
-5.54269
11
8.2
21
-5.54295
0
LINE
8
BLACK
6
CONTINUOUS
10
8.2
20
-5.54295
11
7.4
21
-5.54295
0
LINE
8
BLACK
6
CONTINUOUS
10
7.4
20
-5.54295
11
7.39962
21
-5.54289
0
LINE
8
BLACK
6
CONTINUOUS
10
8.10295
20
-5.34295
11
8.10295
21
-5.53705
0
LINE
8
BLACK
6
CONTINUOUS
10
8.10295
20
-5.53705
11
8.19705
21
-5.53705
0
LINE
8
BLACK
6
CONTINUOUS
10
8.19705
20
-5.53705
11
8.19705
21
-5.34295
0
LINE
8
BLACK
6
CONTINUOUS
10
8.19705
20
-5.34295
11
8.10295
21
-5.34295
0
LINE
8
BLACK
6
CONTINUOUS
10
8.00295
20
-5.34295
11
8.00295
21
-5.53705
0
LINE
8
BLACK
6
CONTINUOUS
10
8.00295
20
-5.53705
11
8.09705
21
-5.53705
0
LINE
8
BLACK
6
CONTINUOUS
10
8.09705
20
-5.53705
11
8.09705
21
-5.34295
0
LINE
8
BLACK
6
CONTINUOUS
10
8.09705
20
-5.34295
11
8.00295
21
-5.34295
0
LINE
8
BLACK
6
CONTINUOUS
10
7.90295
20
-5.34295
11
7.90295
21
-5.53705
0
LINE
8
BLACK
6
CONTINUOUS
10
7.90295
20
-5.53705
11
7.99705
21
-5.53705
0
LINE
8
BLACK
6
CONTINUOUS
10
7.99705
20
-5.53705
11
7.99705
21
-5.34295
0
LINE
8
BLACK
6
CONTINUOUS
10
7.99705
20
-5.34295
11
7.90295
21
-5.34295
0
LINE
8
BLACK
6
CONTINUOUS
10
7.80295
20
-5.34295
11
7.80295
21
-5.53705
0
LINE
8
BLACK
6
CONTINUOUS
10
7.80295
20
-5.53705
11
7.89705
21
-5.53705
0
LINE
8
BLACK
6
CONTINUOUS
10
7.89705
20
-5.53705
11
7.89705
21
-5.34295
0
LINE
8
BLACK
6
CONTINUOUS
10
7.89705
20
-5.34295
11
7.80295
21
-5.34295
0
LINE
8
BLACK
6
CONTINUOUS
10
7.70295
20
-5.34295
11
7.70295
21
-5.53705
0
LINE
8
BLACK
6
CONTINUOUS
10
7.70295
20
-5.53705
11
7.79705
21
-5.53705
0
LINE
8
BLACK
6
CONTINUOUS
10
7.79705
20
-5.53705
11
7.79705
21
-5.34295
0
LINE
8
BLACK
6
CONTINUOUS
10
7.79705
20
-5.34295
11
7.70295
21
-5.34295
0
LINE
8
BLACK
6
CONTINUOUS
10
7.60295
20
-5.34295
11
7.60295
21
-5.53705
0
LINE
8
BLACK
6
CONTINUOUS
10
7.60295
20
-5.53705
11
7.69705
21
-5.53705
0
LINE
8
BLACK
6
CONTINUOUS
10
7.69705
20
-5.53705
11
7.69705
21
-5.34295
0
LINE
8
BLACK
6
CONTINUOUS
10
7.69705
20
-5.34295
11
7.60295
21
-5.34295
0
LINE
8
BLACK
6
CONTINUOUS
10
7.50295
20
-5.34295
11
7.50295
21
-5.53705
0
LINE
8
BLACK
6
CONTINUOUS
10
7.50295
20
-5.53705
11
7.59705
21
-5.53705
0
LINE
8
BLACK
6
CONTINUOUS
10
7.59705
20
-5.53705
11
7.59705
21
-5.34295
0
LINE
8
BLACK
6
CONTINUOUS
10
7.59705
20
-5.34295
11
7.50295
21
-5.34295
0
LINE
8
BLACK
6
CONTINUOUS
10
7.40295
20
-5.34295
11
7.40295
21
-5.53705
0
LINE
8
BLACK
6
CONTINUOUS
10
7.40295
20
-5.53705
11
7.49705
21
-5.53705
0
LINE
8
BLACK
6
CONTINUOUS
10
7.49705
20
-5.53705
11
7.49705
21
-5.34295
0
LINE
8
BLACK
6
CONTINUOUS
10
7.49705
20
-5.34295
11
7.40295
21
-5.34295
0
LINE
8
BLACK
6
CONTINUOUS
10
6.62272
20
-5.53167
11
6.62203
21
-5.53
0
LINE
8
BLACK
6
CONTINUOUS
10
6.62203
20
-5.53
11
6.62203
21
-5.50598
0
LINE
8
BLACK
6
CONTINUOUS
10
6.62203
20
-5.50598
11
6.62272
21
-5.50431
0
LINE
8
BLACK
6
CONTINUOUS
10
6.62272
20
-5.50431
11
6.62439
21
-5.50362
0
LINE
8
BLACK
6
CONTINUOUS
10
6.62439
20
-5.50362
11
6.62606
21
-5.50431
0
LINE
8
BLACK
6
CONTINUOUS
10
6.62606
20
-5.50431
11
6.62676
21
-5.50598
0
LINE
8
BLACK
6
CONTINUOUS
10
6.62676
20
-5.50598
11
6.62676
21
-5.52764
0
LINE
8
BLACK
6
CONTINUOUS
10
6.62676
20
-5.52764
11
6.92164
21
-5.52764
0
LINE
8
BLACK
6
CONTINUOUS
10
6.92164
20
-5.52764
11
6.92167
21
-5.50611
0
LINE
8
BLACK
6
CONTINUOUS
10
6.92167
20
-5.50611
11
6.92236
21
-5.50444
0
LINE
8
BLACK
6
CONTINUOUS
10
6.92236
20
-5.50444
11
6.92403
21
-5.50375
0
LINE
8
BLACK
6
CONTINUOUS
10
6.92403
20
-5.50375
11
6.9257
21
-5.50445
0
LINE
8
BLACK
6
CONTINUOUS
10
6.9257
20
-5.50445
11
6.92639
21
-5.50612
0
LINE
8
BLACK
6
CONTINUOUS
10
6.92639
20
-5.50612
11
6.92636
21
-5.53
0
LINE
8
BLACK
6
CONTINUOUS
10
6.92636
20
-5.53
11
6.92602
21
-5.53083
0
LINE
8
BLACK
6
CONTINUOUS
10
6.92602
20
-5.53083
11
6.92567
21
-5.53167
0
LINE
8
BLACK
6
CONTINUOUS
10
6.92567
20
-5.53167
11
6.92567
21
-5.53167
0
LINE
8
BLACK
6
CONTINUOUS
10
6.92567
20
-5.53167
11
6.92567
21
-5.53167
0
LINE
8
BLACK
6
CONTINUOUS
10
6.92567
20
-5.53167
11
6.92483
21
-5.53202
0
LINE
8
BLACK
6
CONTINUOUS
10
6.92483
20
-5.53202
11
6.924
21
-5.53236
0
LINE
8
BLACK
6
CONTINUOUS
10
6.924
20
-5.53236
11
6.62439
21
-5.53236
0
LINE
8
BLACK
6
CONTINUOUS
10
6.62439
20
-5.53236
11
6.62272
21
-5.53167
0
LINE
8
BLACK
6
CONTINUOUS
10
6.62606
20
-5.32715
11
6.62676
21
-5.32882
0
LINE
8
BLACK
6
CONTINUOUS
10
6.62676
20
-5.32882
11
6.62676
21
-5.43118
0
LINE
8
BLACK
6
CONTINUOUS
10
6.62676
20
-5.43118
11
6.62606
21
-5.43285
0
LINE
8
BLACK
6
CONTINUOUS
10
6.62606
20
-5.43285
11
6.62439
21
-5.43354
0
LINE
8
BLACK
6
CONTINUOUS
10
6.62439
20
-5.43354
11
6.62272
21
-5.43285
0
LINE
8
BLACK
6
CONTINUOUS
10
6.62272
20
-5.43285
11
6.62203
21
-5.43118
0
LINE
8
BLACK
6
CONTINUOUS
10
6.62203
20
-5.43118
11
6.62203
21
-5.32882
0
LINE
8
BLACK
6
CONTINUOUS
10
6.62203
20
-5.32882
11
6.62272
21
-5.32715
0
LINE
8
BLACK
6
CONTINUOUS
10
6.62272
20
-5.32715
11
6.62439
21
-5.32646
0
LINE
8
BLACK
6
CONTINUOUS
10
6.62439
20
-5.32646
11
6.62606
21
-5.32715
0
LINE
8
BLACK
6
CONTINUOUS
10
6.92528
20
-5.32715
11
6.92597
21
-5.32882
0
LINE
8
BLACK
6
CONTINUOUS
10
6.92597
20
-5.32882
11
6.92597
21
-5.43118
0
LINE
8
BLACK
6
CONTINUOUS
10
6.92597
20
-5.43118
11
6.92528
21
-5.43285
0
LINE
8
BLACK
6
CONTINUOUS
10
6.92528
20
-5.43285
11
6.92361
21
-5.43354
0
LINE
8
BLACK
6
CONTINUOUS
10
6.92361
20
-5.43354
11
6.92194
21
-5.43285
0
LINE
8
BLACK
6
CONTINUOUS
10
6.92194
20
-5.43285
11
6.92124
21
-5.43118
0
LINE
8
BLACK
6
CONTINUOUS
10
6.92124
20
-5.43118
11
6.92124
21
-5.32882
0
LINE
8
BLACK
6
CONTINUOUS
10
6.92124
20
-5.32882
11
6.92194
21
-5.32715
0
LINE
8
BLACK
6
CONTINUOUS
10
6.92194
20
-5.32715
11
6.92361
21
-5.32646
0
LINE
8
BLACK
6
CONTINUOUS
10
6.92361
20
-5.32646
11
6.92528
21
-5.32715
0
LINE
8
BLACK
6
CONTINUOUS
10
7.27057
20
-5.34691
11
7.27212
21
-5.34821
0
LINE
8
BLACK
6
CONTINUOUS
10
7.27212
20
-5.34821
11
7.27247
21
-5.3502
0
LINE
8
BLACK
6
CONTINUOUS
10
7.27247
20
-5.3502
11
7.27146
21
-5.35195
0
LINE
8
BLACK
6
CONTINUOUS
10
7.27146
20
-5.35195
11
7.26956
21
-5.35264
0
LINE
8
BLACK
6
CONTINUOUS
10
7.26956
20
-5.35264
11
7.25419
21
-5.35264
0
LINE
8
BLACK
6
CONTINUOUS
10
7.25419
20
-5.35264
11
7.27165
21
-5.3701
0
LINE
8
BLACK
6
CONTINUOUS
10
7.27165
20
-5.3701
11
7.27224
21
-5.37094
0
LINE
8
BLACK
6
CONTINUOUS
10
7.27224
20
-5.37094
11
7.27241
21
-5.37295
0
LINE
8
BLACK
6
CONTINUOUS
10
7.27241
20
-5.37295
11
7.27125
21
-5.3746
0
LINE
8
BLACK
6
CONTINUOUS
10
7.27125
20
-5.3746
11
7.2693
21
-5.37513
0
LINE
8
BLACK
6
CONTINUOUS
10
7.2693
20
-5.37513
11
7.26747
21
-5.37427
0
LINE
8
BLACK
6
CONTINUOUS
10
7.26747
20
-5.37427
11
7.25241
21
-5.35921
0
LINE
8
BLACK
6
CONTINUOUS
10
7.25241
20
-5.35921
11
7.23196
21
-5.37455
0
LINE
8
BLACK
6
CONTINUOUS
10
7.23196
20
-5.37455
11
7.23105
21
-5.37501
0
LINE
8
BLACK
6
CONTINUOUS
10
7.23105
20
-5.37501
11
7.22903
21
-5.3749
0
LINE
8
BLACK
6
CONTINUOUS
10
7.22903
20
-5.3749
11
7.22756
21
-5.37352
0
LINE
8
BLACK
6
CONTINUOUS
10
7.22756
20
-5.37352
11
7.22731
21
-5.37152
0
LINE
8
BLACK
6
CONTINUOUS
10
7.22731
20
-5.37152
11
7.22842
21
-5.36982
0
LINE
8
BLACK
6
CONTINUOUS
10
7.22842
20
-5.36982
11
7.24819
21
-5.35499
0
LINE
8
BLACK
6
CONTINUOUS
10
7.24819
20
-5.35499
11
7.24584
21
-5.35264
0
LINE
8
BLACK
6
CONTINUOUS
10
7.24584
20
-5.35264
11
7.23019
21
-5.35264
0
LINE
8
BLACK
6
CONTINUOUS
10
7.23019
20
-5.35264
11
7.22918
21
-5.35246
0
LINE
8
BLACK
6
CONTINUOUS
10
7.22918
20
-5.35246
11
7.22763
21
-5.35117
0
LINE
8
BLACK
6
CONTINUOUS
10
7.22763
20
-5.35117
11
7.22728
21
-5.34918
0
LINE
8
BLACK
6
CONTINUOUS
10
7.22728
20
-5.34918
11
7.22829
21
-5.34743
0
LINE
8
BLACK
6
CONTINUOUS
10
7.22829
20
-5.34743
11
7.23019
21
-5.34674
0
LINE
8
BLACK
6
CONTINUOUS
10
7.23019
20
-5.34674
11
7.26956
21
-5.34674
0
LINE
8
BLACK
6
CONTINUOUS
10
7.26956
20
-5.34674
11
7.27057
21
-5.34691
0
LINE
8
BLACK
6
CONTINUOUS
10
7.11057
20
-5.34691
11
7.11212
21
-5.34821
0
LINE
8
BLACK
6
CONTINUOUS
10
7.11212
20
-5.34821
11
7.11247
21
-5.3502
0
LINE
8
BLACK
6
CONTINUOUS
10
7.11247
20
-5.3502
11
7.11146
21
-5.35195
0
LINE
8
BLACK
6
CONTINUOUS
10
7.11146
20
-5.35195
11
7.10956
21
-5.35264
0
LINE
8
BLACK
6
CONTINUOUS
10
7.10956
20
-5.35264
11
7.09419
21
-5.35264
0
LINE
8
BLACK
6
CONTINUOUS
10
7.09419
20
-5.35264
11
7.11165
21
-5.3701
0
LINE
8
BLACK
6
CONTINUOUS
10
7.11165
20
-5.3701
11
7.11224
21
-5.37094
0
LINE
8
BLACK
6
CONTINUOUS
10
7.11224
20
-5.37094
11
7.11241
21
-5.37295
0
LINE
8
BLACK
6
CONTINUOUS
10
7.11241
20
-5.37295
11
7.11125
21
-5.3746
0
LINE
8
BLACK
6
CONTINUOUS
10
7.11125
20
-5.3746
11
7.1093
21
-5.37513
0
LINE
8
BLACK
6
CONTINUOUS
10
7.1093
20
-5.37513
11
7.10747
21
-5.37427
0
LINE
8
BLACK
6
CONTINUOUS
10
7.10747
20
-5.37427
11
7.09241
21
-5.35921
0
LINE
8
BLACK
6
CONTINUOUS
10
7.09241
20
-5.35921
11
7.07196
21
-5.37455
0
LINE
8
BLACK
6
CONTINUOUS
10
7.07196
20
-5.37455
11
7.07105
21
-5.37501
0
LINE
8
BLACK
6
CONTINUOUS
10
7.07105
20
-5.37501
11
7.06903
21
-5.3749
0
LINE
8
BLACK
6
CONTINUOUS
10
7.06903
20
-5.3749
11
7.06756
21
-5.37352
0
LINE
8
BLACK
6
CONTINUOUS
10
7.06756
20
-5.37352
11
7.06731
21
-5.37152
0
LINE
8
BLACK
6
CONTINUOUS
10
7.06731
20
-5.37152
11
7.06842
21
-5.36982
0
LINE
8
BLACK
6
CONTINUOUS
10
7.06842
20
-5.36982
11
7.08819
21
-5.35499
0
LINE
8
BLACK
6
CONTINUOUS
10
7.08819
20
-5.35499
11
7.08584
21
-5.35264
0
LINE
8
BLACK
6
CONTINUOUS
10
7.08584
20
-5.35264
11
7.07019
21
-5.35264
0
LINE
8
BLACK
6
CONTINUOUS
10
7.07019
20
-5.35264
11
7.06918
21
-5.35246
0
LINE
8
BLACK
6
CONTINUOUS
10
7.06918
20
-5.35246
11
7.06763
21
-5.35117
0
LINE
8
BLACK
6
CONTINUOUS
10
7.06763
20
-5.35117
11
7.06728
21
-5.34918
0
LINE
8
BLACK
6
CONTINUOUS
10
7.06728
20
-5.34918
11
7.06829
21
-5.34743
0
LINE
8
BLACK
6
CONTINUOUS
10
7.06829
20
-5.34743
11
7.07019
21
-5.34674
0
LINE
8
BLACK
6
CONTINUOUS
10
7.07019
20
-5.34674
11
7.10956
21
-5.34674
0
LINE
8
BLACK
6
CONTINUOUS
10
7.10956
20
-5.34674
11
7.11057
21
-5.34691
0
LINE
8
BLACK
6
CONTINUOUS
10
6.92528
20
-5.22872
11
6.92597
21
-5.23039
0
LINE
8
BLACK
6
CONTINUOUS
10
6.92597
20
-5.23039
11
6.92597
21
-5.25008
0
LINE
8
BLACK
6
CONTINUOUS
10
6.92597
20
-5.25008
11
6.92528
21
-5.25175
0
LINE
8
BLACK
6
CONTINUOUS
10
6.92528
20
-5.25175
11
6.92361
21
-5.25244
0
LINE
8
BLACK
6
CONTINUOUS
10
6.92361
20
-5.25244
11
6.92194
21
-5.25175
0
LINE
8
BLACK
6
CONTINUOUS
10
6.92194
20
-5.25175
11
6.92124
21
-5.25008
0
LINE
8
BLACK
6
CONTINUOUS
10
6.92124
20
-5.25008
11
6.92124
21
-5.23276
0
LINE
8
BLACK
6
CONTINUOUS
10
6.92124
20
-5.23276
11
6.62676
21
-5.23276
0
LINE
8
BLACK
6
CONTINUOUS
10
6.62676
20
-5.23276
11
6.62676
21
-5.25402
0
LINE
8
BLACK
6
CONTINUOUS
10
6.62676
20
-5.25402
11
6.62606
21
-5.25569
0
LINE
8
BLACK
6
CONTINUOUS
10
6.62606
20
-5.25569
11
6.62439
21
-5.25638
0
LINE
8
BLACK
6
CONTINUOUS
10
6.62439
20
-5.25638
11
6.62272
21
-5.25569
0
LINE
8
BLACK
6
CONTINUOUS
10
6.62272
20
-5.25569
11
6.62203
21
-5.25402
0
LINE
8
BLACK
6
CONTINUOUS
10
6.62203
20
-5.25402
11
6.62203
21
-5.23039
0
LINE
8
BLACK
6
CONTINUOUS
10
6.62203
20
-5.23039
11
6.62272
21
-5.22872
0
LINE
8
BLACK
6
CONTINUOUS
10
6.62272
20
-5.22872
11
6.62439
21
-5.22803
0
LINE
8
BLACK
6
CONTINUOUS
10
6.62439
20
-5.22803
11
6.92361
21
-5.22803
0
LINE
8
BLACK
6
CONTINUOUS
10
6.92361
20
-5.22803
11
6.92528
21
-5.22872
0
LINE
8
BLACK
6
CONTINUOUS
10
8.54289
20
-5.19038
11
8.54291
21
-5.19051
0
LINE
8
BLACK
6
CONTINUOUS
10
8.54291
20
-5.19051
11
8.54284
21
-5.19063
0
LINE
8
BLACK
6
CONTINUOUS
10
8.54284
20
-5.19063
11
8.54277
21
-5.19101
0
LINE
8
BLACK
6
CONTINUOUS
10
8.54277
20
-5.19101
11
8.54228
21
-5.1916
0
LINE
8
BLACK
6
CONTINUOUS
10
8.54228
20
-5.1916
11
8.5419
21
-5.19226
0
LINE
8
BLACK
6
CONTINUOUS
10
8.5419
20
-5.19226
11
8.54165
21
-5.19235
0
LINE
8
BLACK
6
CONTINUOUS
10
8.54165
20
-5.19235
11
8.54148
21
-5.19256
0
LINE
8
BLACK
6
CONTINUOUS
10
8.54148
20
-5.19256
11
8.54072
21
-5.19269
0
LINE
8
BLACK
6
CONTINUOUS
10
8.54072
20
-5.19269
11
8.54
21
-5.19295
0
LINE
8
BLACK
6
CONTINUOUS
10
8.54
20
-5.19295
11
8.34
21
-5.19295
0
LINE
8
BLACK
6
CONTINUOUS
10
8.34
20
-5.19295
11
8.33962
21
-5.19289
0
LINE
8
BLACK
6
CONTINUOUS
10
8.33962
20
-5.19289
11
8.33949
21
-5.19291
0
LINE
8
BLACK
6
CONTINUOUS
10
8.33949
20
-5.19291
11
8.33937
21
-5.19284
0
LINE
8
BLACK
6
CONTINUOUS
10
8.33937
20
-5.19284
11
8.33899
21
-5.19277
0
LINE
8
BLACK
6
CONTINUOUS
10
8.33899
20
-5.19277
11
8.3384
21
-5.19228
0
LINE
8
BLACK
6
CONTINUOUS
10
8.3384
20
-5.19228
11
8.33774
21
-5.1919
0
LINE
8
BLACK
6
CONTINUOUS
10
8.33774
20
-5.1919
11
8.33765
21
-5.19165
0
LINE
8
BLACK
6
CONTINUOUS
10
8.33765
20
-5.19165
11
8.33744
21
-5.19148
0
LINE
8
BLACK
6
CONTINUOUS
10
8.33744
20
-5.19148
11
8.33731
21
-5.19072
0
LINE
8
BLACK
6
CONTINUOUS
10
8.33731
20
-5.19072
11
8.33705
21
-5.19
0
LINE
8
BLACK
6
CONTINUOUS
10
8.33705
20
-5.19
11
8.33705
21
-4.39
0
LINE
8
BLACK
6
CONTINUOUS
10
8.33705
20
-4.39
11
8.33711
21
-4.38962
0
LINE
8
BLACK
6
CONTINUOUS
10
8.33711
20
-4.38962
11
8.33709
21
-4.38949
0
LINE
8
BLACK
6
CONTINUOUS
10
8.33709
20
-4.38949
11
8.33716
21
-4.38937
0
LINE
8
BLACK
6
CONTINUOUS
10
8.33716
20
-4.38937
11
8.33723
21
-4.38899
0
LINE
8
BLACK
6
CONTINUOUS
10
8.33723
20
-4.38899
11
8.33772
21
-4.3884
0
LINE
8
BLACK
6
CONTINUOUS
10
8.33772
20
-4.3884
11
8.3381
21
-4.38774
0
LINE
8
BLACK
6
CONTINUOUS
10
8.3381
20
-4.38774
11
8.33835
21
-4.38765
0
LINE
8
BLACK
6
CONTINUOUS
10
8.33835
20
-4.38765
11
8.33852
21
-4.38744
0
LINE
8
BLACK
6
CONTINUOUS
10
8.33852
20
-4.38744
11
8.33928
21
-4.38731
0
LINE
8
BLACK
6
CONTINUOUS
10
8.33928
20
-4.38731
11
8.34
21
-4.38705
0
LINE
8
BLACK
6
CONTINUOUS
10
8.34
20
-4.38705
11
8.54
21
-4.38705
0
LINE
8
BLACK
6
CONTINUOUS
10
8.54
20
-4.38705
11
8.54038
21
-4.38711
0
LINE
8
BLACK
6
CONTINUOUS
10
8.54038
20
-4.38711
11
8.54051
21
-4.38709
0
LINE
8
BLACK
6
CONTINUOUS
10
8.54051
20
-4.38709
11
8.54063
21
-4.38716
0
LINE
8
BLACK
6
CONTINUOUS
10
8.54063
20
-4.38716
11
8.54101
21
-4.38723
0
LINE
8
BLACK
6
CONTINUOUS
10
8.54101
20
-4.38723
11
8.5416
21
-4.38772
0
LINE
8
BLACK
6
CONTINUOUS
10
8.5416
20
-4.38772
11
8.54226
21
-4.3881
0
LINE
8
BLACK
6
CONTINUOUS
10
8.54226
20
-4.3881
11
8.54235
21
-4.38835
0
LINE
8
BLACK
6
CONTINUOUS
10
8.54235
20
-4.38835
11
8.54256
21
-4.38852
0
LINE
8
BLACK
6
CONTINUOUS
10
8.54256
20
-4.38852
11
8.54269
21
-4.38928
0
LINE
8
BLACK
6
CONTINUOUS
10
8.54269
20
-4.38928
11
8.54295
21
-4.39
0
LINE
8
BLACK
6
CONTINUOUS
10
8.54295
20
-4.39
11
8.54295
21
-5.19
0
LINE
8
BLACK
6
CONTINUOUS
10
8.54295
20
-5.19
11
8.54289
21
-5.19038
0
LINE
8
BLACK
6
CONTINUOUS
10
8.34295
20
-5.09295
11
8.34295
21
-5.18705
0
LINE
8
BLACK
6
CONTINUOUS
10
8.34295
20
-5.18705
11
8.53705
21
-5.18705
0
LINE
8
BLACK
6
CONTINUOUS
10
8.53705
20
-5.18705
11
8.53705
21
-5.09295
0
LINE
8
BLACK
6
CONTINUOUS
10
8.53705
20
-5.09295
11
8.34295
21
-5.09295
0
LINE
8
BLACK
6
CONTINUOUS
10
8.34295
20
-4.99295
11
8.34295
21
-5.08705
0
LINE
8
BLACK
6
CONTINUOUS
10
8.34295
20
-5.08705
11
8.53705
21
-5.08705
0
LINE
8
BLACK
6
CONTINUOUS
10
8.53705
20
-5.08705
11
8.53705
21
-4.99295
0
LINE
8
BLACK
6
CONTINUOUS
10
8.53705
20
-4.99295
11
8.34295
21
-4.99295
0
LINE
8
BLACK
6
CONTINUOUS
10
8.34295
20
-4.89295
11
8.34295
21
-4.98705
0
LINE
8
BLACK
6
CONTINUOUS
10
8.34295
20
-4.98705
11
8.53705
21
-4.98705
0
LINE
8
BLACK
6
CONTINUOUS
10
8.53705
20
-4.98705
11
8.53705
21
-4.89295
0
LINE
8
BLACK
6
CONTINUOUS
10
8.53705
20
-4.89295
11
8.34295
21
-4.89295
0
LINE
8
BLACK
6
CONTINUOUS
10
8.34295
20
-4.79295
11
8.34295
21
-4.88705
0
LINE
8
BLACK
6
CONTINUOUS
10
8.34295
20
-4.88705
11
8.53705
21
-4.88705
0
LINE
8
BLACK
6
CONTINUOUS
10
8.53705
20
-4.88705
11
8.53705
21
-4.79295
0
LINE
8
BLACK
6
CONTINUOUS
10
8.53705
20
-4.79295
11
8.34295
21
-4.79295
0
LINE
8
BLACK
6
CONTINUOUS
10
8.34295
20
-4.69295
11
8.34295
21
-4.78705
0
LINE
8
BLACK
6
CONTINUOUS
10
8.34295
20
-4.78705
11
8.53705
21
-4.78705
0
LINE
8
BLACK
6
CONTINUOUS
10
8.53705
20
-4.78705
11
8.53705
21
-4.69295
0
LINE
8
BLACK
6
CONTINUOUS
10
8.53705
20
-4.69295
11
8.34295
21
-4.69295
0
LINE
8
BLACK
6
CONTINUOUS
10
8.34295
20
-4.59295
11
8.34295
21
-4.68705
0
LINE
8
BLACK
6
CONTINUOUS
10
8.34295
20
-4.68705
11
8.53705
21
-4.68705
0
LINE
8
BLACK
6
CONTINUOUS
10
8.53705
20
-4.68705
11
8.53705
21
-4.59295
0
LINE
8
BLACK
6
CONTINUOUS
10
8.53705
20
-4.59295
11
8.34295
21
-4.59295
0
LINE
8
BLACK
6
CONTINUOUS
10
8.34295
20
-4.49295
11
8.34295
21
-4.58705
0
LINE
8
BLACK
6
CONTINUOUS
10
8.34295
20
-4.58705
11
8.53705
21
-4.58705
0
LINE
8
BLACK
6
CONTINUOUS
10
8.53705
20
-4.58705
11
8.53705
21
-4.49295
0
LINE
8
BLACK
6
CONTINUOUS
10
8.53705
20
-4.49295
11
8.34295
21
-4.49295
0
LINE
8
BLACK
6
CONTINUOUS
10
8.34295
20
-4.39295
11
8.34295
21
-4.48705
0
LINE
8
BLACK
6
CONTINUOUS
10
8.34295
20
-4.48705
11
8.53705
21
-4.48705
0
LINE
8
BLACK
6
CONTINUOUS
10
8.53705
20
-4.48705
11
8.53705
21
-4.39295
0
LINE
8
BLACK
6
CONTINUOUS
10
8.53705
20
-4.39295
11
8.34295
21
-4.39295
0
LINE
8
BLACK
6
CONTINUOUS
10
7.26289
20
-5.19038
11
7.26291
21
-5.19051
0
LINE
8
BLACK
6
CONTINUOUS
10
7.26291
20
-5.19051
11
7.26284
21
-5.19063
0
LINE
8
BLACK
6
CONTINUOUS
10
7.26284
20
-5.19063
11
7.26277
21
-5.19101
0
LINE
8
BLACK
6
CONTINUOUS
10
7.26277
20
-5.19101
11
7.26228
21
-5.1916
0
LINE
8
BLACK
6
CONTINUOUS
10
7.26228
20
-5.1916
11
7.2619
21
-5.19226
0
LINE
8
BLACK
6
CONTINUOUS
10
7.2619
20
-5.19226
11
7.26165
21
-5.19235
0
LINE
8
BLACK
6
CONTINUOUS
10
7.26165
20
-5.19235
11
7.26148
21
-5.19256
0
LINE
8
BLACK
6
CONTINUOUS
10
7.26148
20
-5.19256
11
7.26072
21
-5.19269
0
LINE
8
BLACK
6
CONTINUOUS
10
7.26072
20
-5.19269
11
7.26
21
-5.19295
0
LINE
8
BLACK
6
CONTINUOUS
10
7.26
20
-5.19295
11
7.06
21
-5.19295
0
LINE
8
BLACK
6
CONTINUOUS
10
7.06
20
-5.19295
11
7.05962
21
-5.19289
0
LINE
8
BLACK
6
CONTINUOUS
10
7.05962
20
-5.19289
11
7.05949
21
-5.19291
0
LINE
8
BLACK
6
CONTINUOUS
10
7.05949
20
-5.19291
11
7.05937
21
-5.19284
0
LINE
8
BLACK
6
CONTINUOUS
10
7.05937
20
-5.19284
11
7.05899
21
-5.19277
0
LINE
8
BLACK
6
CONTINUOUS
10
7.05899
20
-5.19277
11
7.0584
21
-5.19228
0
LINE
8
BLACK
6
CONTINUOUS
10
7.0584
20
-5.19228
11
7.05774
21
-5.1919
0
LINE
8
BLACK
6
CONTINUOUS
10
7.05774
20
-5.1919
11
7.05765
21
-5.19165
0
LINE
8
BLACK
6
CONTINUOUS
10
7.05765
20
-5.19165
11
7.05744
21
-5.19148
0
LINE
8
BLACK
6
CONTINUOUS
10
7.05744
20
-5.19148
11
7.05731
21
-5.19072
0
LINE
8
BLACK
6
CONTINUOUS
10
7.05731
20
-5.19072
11
7.05705
21
-5.19
0
LINE
8
BLACK
6
CONTINUOUS
10
7.05705
20
-5.19
11
7.05705
21
-4.89
0
LINE
8
BLACK
6
CONTINUOUS
10
7.05705
20
-4.89
11
7.05711
21
-4.88962
0
LINE
8
BLACK
6
CONTINUOUS
10
7.05711
20
-4.88962
11
7.05709
21
-4.88949
0
LINE
8
BLACK
6
CONTINUOUS
10
7.05709
20
-4.88949
11
7.05716
21
-4.88937
0
LINE
8
BLACK
6
CONTINUOUS
10
7.05716
20
-4.88937
11
7.05723
21
-4.88899
0
LINE
8
BLACK
6
CONTINUOUS
10
7.05723
20
-4.88899
11
7.05772
21
-4.8884
0
LINE
8
BLACK
6
CONTINUOUS
10
7.05772
20
-4.8884
11
7.0581
21
-4.88774
0
LINE
8
BLACK
6
CONTINUOUS
10
7.0581
20
-4.88774
11
7.05835
21
-4.88765
0
LINE
8
BLACK
6
CONTINUOUS
10
7.05835
20
-4.88765
11
7.05852
21
-4.88744
0
LINE
8
BLACK
6
CONTINUOUS
10
7.05852
20
-4.88744
11
7.05928
21
-4.88731
0
LINE
8
BLACK
6
CONTINUOUS
10
7.05928
20
-4.88731
11
7.06
21
-4.88705
0
LINE
8
BLACK
6
CONTINUOUS
10
7.06
20
-4.88705
11
7.26
21
-4.88705
0
LINE
8
BLACK
6
CONTINUOUS
10
7.26
20
-4.88705
11
7.26038
21
-4.88711
0
LINE
8
BLACK
6
CONTINUOUS
10
7.26038
20
-4.88711
11
7.26051
21
-4.88709
0
LINE
8
BLACK
6
CONTINUOUS
10
7.26051
20
-4.88709
11
7.26063
21
-4.88716
0
LINE
8
BLACK
6
CONTINUOUS
10
7.26063
20
-4.88716
11
7.26101
21
-4.88723
0
LINE
8
BLACK
6
CONTINUOUS
10
7.26101
20
-4.88723
11
7.2616
21
-4.88772
0
LINE
8
BLACK
6
CONTINUOUS
10
7.2616
20
-4.88772
11
7.26226
21
-4.8881
0
LINE
8
BLACK
6
CONTINUOUS
10
7.26226
20
-4.8881
11
7.26235
21
-4.88835
0
LINE
8
BLACK
6
CONTINUOUS
10
7.26235
20
-4.88835
11
7.26256
21
-4.88852
0
LINE
8
BLACK
6
CONTINUOUS
10
7.26256
20
-4.88852
11
7.26269
21
-4.88928
0
LINE
8
BLACK
6
CONTINUOUS
10
7.26269
20
-4.88928
11
7.26295
21
-4.89
0
LINE
8
BLACK
6
CONTINUOUS
10
7.26295
20
-4.89
11
7.26295
21
-5.19
0
LINE
8
BLACK
6
CONTINUOUS
10
7.26295
20
-5.19
11
7.26289
21
-5.19038
0
LINE
8
BLACK
6
CONTINUOUS
10
7.06295
20
-5.09295
11
7.06295
21
-5.18705
0
LINE
8
BLACK
6
CONTINUOUS
10
7.06295
20
-5.18705
11
7.25705
21
-5.18705
0
LINE
8
BLACK
6
CONTINUOUS
10
7.25705
20
-5.18705
11
7.25705
21
-5.09295
0
LINE
8
BLACK
6
CONTINUOUS
10
7.25705
20
-5.09295
11
7.06295
21
-5.09295
0
LINE
8
BLACK
6
CONTINUOUS
10
7.06295
20
-4.99295
11
7.06295
21
-5.08705
0
LINE
8
BLACK
6
CONTINUOUS
10
7.06295
20
-5.08705
11
7.25705
21
-5.08705
0
LINE
8
BLACK
6
CONTINUOUS
10
7.25705
20
-5.08705
11
7.25705
21
-4.99295
0
LINE
8
BLACK
6
CONTINUOUS
10
7.25705
20
-4.99295
11
7.06295
21
-4.99295
0
LINE
8
BLACK
6
CONTINUOUS
10
7.06295
20
-4.89295
11
7.06295
21
-4.98705
0
LINE
8
BLACK
6
CONTINUOUS
10
7.06295
20
-4.98705
11
7.25705
21
-4.98705
0
LINE
8
BLACK
6
CONTINUOUS
10
7.25705
20
-4.98705
11
7.25705
21
-4.89295
0
LINE
8
BLACK
6
CONTINUOUS
10
7.25705
20
-4.89295
11
7.06295
21
-4.89295
0
LINE
8
BLACK
6
CONTINUOUS
10
6.94038
20
-4.62711
11
6.94051
21
-4.62709
0
LINE
8
BLACK
6
CONTINUOUS
10
6.94051
20
-4.62709
11
6.94063
21
-4.62716
0
LINE
8
BLACK
6
CONTINUOUS
10
6.94063
20
-4.62716
11
6.94101
21
-4.62723
0
LINE
8
BLACK
6
CONTINUOUS
10
6.94101
20
-4.62723
11
6.9416
21
-4.62772
0
LINE
8
BLACK
6
CONTINUOUS
10
6.9416
20
-4.62772
11
6.94226
21
-4.6281
0
LINE
8
BLACK
6
CONTINUOUS
10
6.94226
20
-4.6281
11
6.94235
21
-4.62835
0
LINE
8
BLACK
6
CONTINUOUS
10
6.94235
20
-4.62835
11
6.94256
21
-4.62852
0
LINE
8
BLACK
6
CONTINUOUS
10
6.94256
20
-4.62852
11
6.94269
21
-4.62928
0
LINE
8
BLACK
6
CONTINUOUS
10
6.94269
20
-4.62928
11
6.94295
21
-4.63
0
LINE
8
BLACK
6
CONTINUOUS
10
6.94295
20
-4.63
11
6.94295
21
-4.83
0
LINE
8
BLACK
6
CONTINUOUS
10
6.94295
20
-4.83
11
6.94289
21
-4.83038
0
LINE
8
BLACK
6
CONTINUOUS
10
6.94289
20
-4.83038
11
6.94291
21
-4.83051
0
LINE
8
BLACK
6
CONTINUOUS
10
6.94291
20
-4.83051
11
6.94284
21
-4.83063
0
LINE
8
BLACK
6
CONTINUOUS
10
6.94284
20
-4.83063
11
6.94277
21
-4.83101
0
LINE
8
BLACK
6
CONTINUOUS
10
6.94277
20
-4.83101
11
6.94228
21
-4.8316
0
LINE
8
BLACK
6
CONTINUOUS
10
6.94228
20
-4.8316
11
6.9419
21
-4.83226
0
LINE
8
BLACK
6
CONTINUOUS
10
6.9419
20
-4.83226
11
6.94165
21
-4.83235
0
LINE
8
BLACK
6
CONTINUOUS
10
6.94165
20
-4.83235
11
6.94148
21
-4.83256
0
LINE
8
BLACK
6
CONTINUOUS
10
6.94148
20
-4.83256
11
6.94072
21
-4.83269
0
LINE
8
BLACK
6
CONTINUOUS
10
6.94072
20
-4.83269
11
6.94
21
-4.83295
0
LINE
8
BLACK
6
CONTINUOUS
10
6.94
20
-4.83295
11
6.84
21
-4.83295
0
LINE
8
BLACK
6
CONTINUOUS
10
6.84
20
-4.83295
11
6.83962
21
-4.83289
0
LINE
8
BLACK
6
CONTINUOUS
10
6.83962
20
-4.83289
11
6.83949
21
-4.83291
0
LINE
8
BLACK
6
CONTINUOUS
10
6.83949
20
-4.83291
11
6.83937
21
-4.83284
0
LINE
8
BLACK
6
CONTINUOUS
10
6.83937
20
-4.83284
11
6.83899
21
-4.83277
0
LINE
8
BLACK
6
CONTINUOUS
10
6.83899
20
-4.83277
11
6.8384
21
-4.83228
0
LINE
8
BLACK
6
CONTINUOUS
10
6.8384
20
-4.83228
11
6.83774
21
-4.8319
0
LINE
8
BLACK
6
CONTINUOUS
10
6.83774
20
-4.8319
11
6.83765
21
-4.83165
0
LINE
8
BLACK
6
CONTINUOUS
10
6.83765
20
-4.83165
11
6.83744
21
-4.83148
0
LINE
8
BLACK
6
CONTINUOUS
10
6.83744
20
-4.83148
11
6.83731
21
-4.83072
0
LINE
8
BLACK
6
CONTINUOUS
10
6.83731
20
-4.83072
11
6.83705
21
-4.83
0
LINE
8
BLACK
6
CONTINUOUS
10
6.83705
20
-4.83
11
6.83705
21
-4.63
0
LINE
8
BLACK
6
CONTINUOUS
10
6.83705
20
-4.63
11
6.83711
21
-4.62962
0
LINE
8
BLACK
6
CONTINUOUS
10
6.83711
20
-4.62962
11
6.83709
21
-4.62949
0
LINE
8
BLACK
6
CONTINUOUS
10
6.83709
20
-4.62949
11
6.83716
21
-4.62937
0
LINE
8
BLACK
6
CONTINUOUS
10
6.83716
20
-4.62937
11
6.83723
21
-4.62899
0
LINE
8
BLACK
6
CONTINUOUS
10
6.83723
20
-4.62899
11
6.83772
21
-4.6284
0
LINE
8
BLACK
6
CONTINUOUS
10
6.83772
20
-4.6284
11
6.8381
21
-4.62774
0
LINE
8
BLACK
6
CONTINUOUS
10
6.8381
20
-4.62774
11
6.83835
21
-4.62765
0
LINE
8
BLACK
6
CONTINUOUS
10
6.83835
20
-4.62765
11
6.83852
21
-4.62744
0
LINE
8
BLACK
6
CONTINUOUS
10
6.83852
20
-4.62744
11
6.83928
21
-4.62731
0
LINE
8
BLACK
6
CONTINUOUS
10
6.83928
20
-4.62731
11
6.84
21
-4.62705
0
LINE
8
BLACK
6
CONTINUOUS
10
6.84
20
-4.62705
11
6.94
21
-4.62705
0
LINE
8
BLACK
6
CONTINUOUS
10
6.94
20
-4.62705
11
6.94038
21
-4.62711
0
LINE
8
BLACK
6
CONTINUOUS
10
6.84295
20
-4.63295
11
6.84295
21
-4.82705
0
LINE
8
BLACK
6
CONTINUOUS
10
6.84295
20
-4.82705
11
6.93705
21
-4.82705
0
LINE
8
BLACK
6
CONTINUOUS
10
6.93705
20
-4.82705
11
6.93705
21
-4.63295
0
LINE
8
BLACK
6
CONTINUOUS
10
6.93705
20
-4.63295
11
6.84295
21
-4.63295
0
LINE
8
BLACK
6
CONTINUOUS
10
6.44038
20
-4.37711
11
6.44051
21
-4.37709
0
LINE
8
BLACK
6
CONTINUOUS
10
6.44051
20
-4.37709
11
6.44063
21
-4.37716
0
LINE
8
BLACK
6
CONTINUOUS
10
6.44063
20
-4.37716
11
6.44101
21
-4.37723
0
LINE
8
BLACK
6
CONTINUOUS
10
6.44101
20
-4.37723
11
6.4416
21
-4.37772
0
LINE
8
BLACK
6
CONTINUOUS
10
6.4416
20
-4.37772
11
6.44226
21
-4.3781
0
LINE
8
BLACK
6
CONTINUOUS
10
6.44226
20
-4.3781
11
6.44235
21
-4.37835
0
LINE
8
BLACK
6
CONTINUOUS
10
6.44235
20
-4.37835
11
6.44256
21
-4.37852
0
LINE
8
BLACK
6
CONTINUOUS
10
6.44256
20
-4.37852
11
6.44269
21
-4.37928
0
LINE
8
BLACK
6
CONTINUOUS
10
6.44269
20
-4.37928
11
6.44295
21
-4.38
0
LINE
8
BLACK
6
CONTINUOUS
10
6.44295
20
-4.38
11
6.44295
21
-4.68
0
LINE
8
BLACK
6
CONTINUOUS
10
6.44295
20
-4.68
11
6.44289
21
-4.68038
0
LINE
8
BLACK
6
CONTINUOUS
10
6.44289
20
-4.68038
11
6.44291
21
-4.68051
0
LINE
8
BLACK
6
CONTINUOUS
10
6.44291
20
-4.68051
11
6.44284
21
-4.68063
0
LINE
8
BLACK
6
CONTINUOUS
10
6.44284
20
-4.68063
11
6.44277
21
-4.68101
0
LINE
8
BLACK
6
CONTINUOUS
10
6.44277
20
-4.68101
11
6.44228
21
-4.6816
0
LINE
8
BLACK
6
CONTINUOUS
10
6.44228
20
-4.6816
11
6.4419
21
-4.68226
0
LINE
8
BLACK
6
CONTINUOUS
10
6.4419
20
-4.68226
11
6.44165
21
-4.68235
0
LINE
8
BLACK
6
CONTINUOUS
10
6.44165
20
-4.68235
11
6.44148
21
-4.68256
0
LINE
8
BLACK
6
CONTINUOUS
10
6.44148
20
-4.68256
11
6.44072
21
-4.68269
0
LINE
8
BLACK
6
CONTINUOUS
10
6.44072
20
-4.68269
11
6.44
21
-4.68295
0
LINE
8
BLACK
6
CONTINUOUS
10
6.44
20
-4.68295
11
6.24
21
-4.68295
0
LINE
8
BLACK
6
CONTINUOUS
10
6.24
20
-4.68295
11
6.23962
21
-4.68289
0
LINE
8
BLACK
6
CONTINUOUS
10
6.23962
20
-4.68289
11
6.23949
21
-4.68291
0
LINE
8
BLACK
6
CONTINUOUS
10
6.23949
20
-4.68291
11
6.23937
21
-4.68284
0
LINE
8
BLACK
6
CONTINUOUS
10
6.23937
20
-4.68284
11
6.23899
21
-4.68277
0
LINE
8
BLACK
6
CONTINUOUS
10
6.23899
20
-4.68277
11
6.2384
21
-4.68228
0
LINE
8
BLACK
6
CONTINUOUS
10
6.2384
20
-4.68228
11
6.23774
21
-4.6819
0
LINE
8
BLACK
6
CONTINUOUS
10
6.23774
20
-4.6819
11
6.23765
21
-4.68165
0
LINE
8
BLACK
6
CONTINUOUS
10
6.23765
20
-4.68165
11
6.23744
21
-4.68148
0
LINE
8
BLACK
6
CONTINUOUS
10
6.23744
20
-4.68148
11
6.23731
21
-4.68072
0
LINE
8
BLACK
6
CONTINUOUS
10
6.23731
20
-4.68072
11
6.23705
21
-4.68
0
LINE
8
BLACK
6
CONTINUOUS
10
6.23705
20
-4.68
11
6.23705
21
-4.38
0
LINE
8
BLACK
6
CONTINUOUS
10
6.23705
20
-4.38
11
6.23711
21
-4.37962
0
LINE
8
BLACK
6
CONTINUOUS
10
6.23711
20
-4.37962
11
6.23709
21
-4.37949
0
LINE
8
BLACK
6
CONTINUOUS
10
6.23709
20
-4.37949
11
6.23716
21
-4.37937
0
LINE
8
BLACK
6
CONTINUOUS
10
6.23716
20
-4.37937
11
6.23723
21
-4.37899
0
LINE
8
BLACK
6
CONTINUOUS
10
6.23723
20
-4.37899
11
6.23772
21
-4.3784
0
LINE
8
BLACK
6
CONTINUOUS
10
6.23772
20
-4.3784
11
6.2381
21
-4.37774
0
LINE
8
BLACK
6
CONTINUOUS
10
6.2381
20
-4.37774
11
6.23835
21
-4.37765
0
LINE
8
BLACK
6
CONTINUOUS
10
6.23835
20
-4.37765
11
6.23852
21
-4.37744
0
LINE
8
BLACK
6
CONTINUOUS
10
6.23852
20
-4.37744
11
6.23928
21
-4.37731
0
LINE
8
BLACK
6
CONTINUOUS
10
6.23928
20
-4.37731
11
6.24
21
-4.37705
0
LINE
8
BLACK
6
CONTINUOUS
10
6.24
20
-4.37705
11
6.44
21
-4.37705
0
LINE
8
BLACK
6
CONTINUOUS
10
6.44
20
-4.37705
11
6.44038
21
-4.37711
0
LINE
8
BLACK
6
CONTINUOUS
10
6.24295
20
-4.38295
11
6.24295
21
-4.67705
0
LINE
8
BLACK
6
CONTINUOUS
10
6.24295
20
-4.67705
11
6.43705
21
-4.67705
0
LINE
8
BLACK
6
CONTINUOUS
10
6.43705
20
-4.67705
11
6.43705
21
-4.38295
0
LINE
8
BLACK
6
CONTINUOUS
10
6.43705
20
-4.38295
11
6.24295
21
-4.38295
0
LINE
8
BLACK
6
CONTINUOUS
10
7.29962
20
-4.24289
11
7.29949
21
-4.24291
0
LINE
8
BLACK
6
CONTINUOUS
10
7.29949
20
-4.24291
11
7.29937
21
-4.24284
0
LINE
8
BLACK
6
CONTINUOUS
10
7.29937
20
-4.24284
11
7.29899
21
-4.24277
0
LINE
8
BLACK
6
CONTINUOUS
10
7.29899
20
-4.24277
11
7.2984
21
-4.24228
0
LINE
8
BLACK
6
CONTINUOUS
10
7.2984
20
-4.24228
11
7.29774
21
-4.2419
0
LINE
8
BLACK
6
CONTINUOUS
10
7.29774
20
-4.2419
11
7.29765
21
-4.24165
0
LINE
8
BLACK
6
CONTINUOUS
10
7.29765
20
-4.24165
11
7.29744
21
-4.24148
0
LINE
8
BLACK
6
CONTINUOUS
10
7.29744
20
-4.24148
11
7.29731
21
-4.24072
0
LINE
8
BLACK
6
CONTINUOUS
10
7.29731
20
-4.24072
11
7.29705
21
-4.24
0
LINE
8
BLACK
6
CONTINUOUS
10
7.29705
20
-4.24
11
7.29705
21
-4.04
0
LINE
8
BLACK
6
CONTINUOUS
10
7.29705
20
-4.04
11
7.29711
21
-4.03962
0
LINE
8
BLACK
6
CONTINUOUS
10
7.29711
20
-4.03962
11
7.29709
21
-4.03949
0
LINE
8
BLACK
6
CONTINUOUS
10
7.29709
20
-4.03949
11
7.29716
21
-4.03937
0
LINE
8
BLACK
6
CONTINUOUS
10
7.29716
20
-4.03937
11
7.29723
21
-4.03899
0
LINE
8
BLACK
6
CONTINUOUS
10
7.29723
20
-4.03899
11
7.29772
21
-4.0384
0
LINE
8
BLACK
6
CONTINUOUS
10
7.29772
20
-4.0384
11
7.2981
21
-4.03774
0
LINE
8
BLACK
6
CONTINUOUS
10
7.2981
20
-4.03774
11
7.29835
21
-4.03765
0
LINE
8
BLACK
6
CONTINUOUS
10
7.29835
20
-4.03765
11
7.29852
21
-4.03744
0
LINE
8
BLACK
6
CONTINUOUS
10
7.29852
20
-4.03744
11
7.29928
21
-4.03731
0
LINE
8
BLACK
6
CONTINUOUS
10
7.29928
20
-4.03731
11
7.3
21
-4.03705
0
LINE
8
BLACK
6
CONTINUOUS
10
7.3
20
-4.03705
11
8.2
21
-4.03705
0
LINE
8
BLACK
6
CONTINUOUS
10
8.2
20
-4.03705
11
8.20038
21
-4.03711
0
LINE
8
BLACK
6
CONTINUOUS
10
8.20038
20
-4.03711
11
8.20051
21
-4.03709
0
LINE
8
BLACK
6
CONTINUOUS
10
8.20051
20
-4.03709
11
8.20063
21
-4.03716
0
LINE
8
BLACK
6
CONTINUOUS
10
8.20063
20
-4.03716
11
8.20101
21
-4.03723
0
LINE
8
BLACK
6
CONTINUOUS
10
8.20101
20
-4.03723
11
8.2016
21
-4.03772
0
LINE
8
BLACK
6
CONTINUOUS
10
8.2016
20
-4.03772
11
8.20226
21
-4.0381
0
LINE
8
BLACK
6
CONTINUOUS
10
8.20226
20
-4.0381
11
8.20235
21
-4.03835
0
LINE
8
BLACK
6
CONTINUOUS
10
8.20235
20
-4.03835
11
8.20256
21
-4.03852
0
LINE
8
BLACK
6
CONTINUOUS
10
8.20256
20
-4.03852
11
8.20269
21
-4.03928
0
LINE
8
BLACK
6
CONTINUOUS
10
8.20269
20
-4.03928
11
8.20295
21
-4.04
0
LINE
8
BLACK
6
CONTINUOUS
10
8.20295
20
-4.04
11
8.20295
21
-4.24
0
LINE
8
BLACK
6
CONTINUOUS
10
8.20295
20
-4.24
11
8.20289
21
-4.24038
0
LINE
8
BLACK
6
CONTINUOUS
10
8.20289
20
-4.24038
11
8.20291
21
-4.24051
0
LINE
8
BLACK
6
CONTINUOUS
10
8.20291
20
-4.24051
11
8.20284
21
-4.24063
0
LINE
8
BLACK
6
CONTINUOUS
10
8.20284
20
-4.24063
11
8.20277
21
-4.24101
0
LINE
8
BLACK
6
CONTINUOUS
10
8.20277
20
-4.24101
11
8.20228
21
-4.2416
0
LINE
8
BLACK
6
CONTINUOUS
10
8.20228
20
-4.2416
11
8.2019
21
-4.24226
0
LINE
8
BLACK
6
CONTINUOUS
10
8.2019
20
-4.24226
11
8.20165
21
-4.24235
0
LINE
8
BLACK
6
CONTINUOUS
10
8.20165
20
-4.24235
11
8.20148
21
-4.24256
0
LINE
8
BLACK
6
CONTINUOUS
10
8.20148
20
-4.24256
11
8.20072
21
-4.24269
0
LINE
8
BLACK
6
CONTINUOUS
10
8.20072
20
-4.24269
11
8.2
21
-4.24295
0
LINE
8
BLACK
6
CONTINUOUS
10
8.2
20
-4.24295
11
7.3
21
-4.24295
0
LINE
8
BLACK
6
CONTINUOUS
10
7.3
20
-4.24295
11
7.29962
21
-4.24289
0
LINE
8
BLACK
6
CONTINUOUS
10
8.10295
20
-4.04295
11
8.10295
21
-4.23705
0
LINE
8
BLACK
6
CONTINUOUS
10
8.10295
20
-4.23705
11
8.19705
21
-4.23705
0
LINE
8
BLACK
6
CONTINUOUS
10
8.19705
20
-4.23705
11
8.19705
21
-4.04295
0
LINE
8
BLACK
6
CONTINUOUS
10
8.19705
20
-4.04295
11
8.10295
21
-4.04295
0
LINE
8
BLACK
6
CONTINUOUS
10
8.00295
20
-4.04295
11
8.00295
21
-4.23705
0
LINE
8
BLACK
6
CONTINUOUS
10
8.00295
20
-4.23705
11
8.09705
21
-4.23705
0
LINE
8
BLACK
6
CONTINUOUS
10
8.09705
20
-4.23705
11
8.09705
21
-4.04295
0
LINE
8
BLACK
6
CONTINUOUS
10
8.09705
20
-4.04295
11
8.00295
21
-4.04295
0
LINE
8
BLACK
6
CONTINUOUS
10
7.90295
20
-4.04295
11
7.90295
21
-4.23705
0
LINE
8
BLACK
6
CONTINUOUS
10
7.90295
20
-4.23705
11
7.99705
21
-4.23705
0
LINE
8
BLACK
6
CONTINUOUS
10
7.99705
20
-4.23705
11
7.99705
21
-4.04295
0
LINE
8
BLACK
6
CONTINUOUS
10
7.99705
20
-4.04295
11
7.90295
21
-4.04295
0
LINE
8
BLACK
6
CONTINUOUS
10
7.80295
20
-4.04295
11
7.80295
21
-4.23705
0
LINE
8
BLACK
6
CONTINUOUS
10
7.80295
20
-4.23705
11
7.89705
21
-4.23705
0
LINE
8
BLACK
6
CONTINUOUS
10
7.89705
20
-4.23705
11
7.89705
21
-4.04295
0
LINE
8
BLACK
6
CONTINUOUS
10
7.89705
20
-4.04295
11
7.80295
21
-4.04295
0
LINE
8
BLACK
6
CONTINUOUS
10
7.70295
20
-4.04295
11
7.70295
21
-4.23705
0
LINE
8
BLACK
6
CONTINUOUS
10
7.70295
20
-4.23705
11
7.79705
21
-4.23705
0
LINE
8
BLACK
6
CONTINUOUS
10
7.79705
20
-4.23705
11
7.79705
21
-4.04295
0
LINE
8
BLACK
6
CONTINUOUS
10
7.79705
20
-4.04295
11
7.70295
21
-4.04295
0
LINE
8
BLACK
6
CONTINUOUS
10
7.60295
20
-4.04295
11
7.60295
21
-4.23705
0
LINE
8
BLACK
6
CONTINUOUS
10
7.60295
20
-4.23705
11
7.69705
21
-4.23705
0
LINE
8
BLACK
6
CONTINUOUS
10
7.69705
20
-4.23705
11
7.69705
21
-4.04295
0
LINE
8
BLACK
6
CONTINUOUS
10
7.69705
20
-4.04295
11
7.60295
21
-4.04295
0
LINE
8
BLACK
6
CONTINUOUS
10
7.50295
20
-4.04295
11
7.50295
21
-4.23705
0
LINE
8
BLACK
6
CONTINUOUS
10
7.50295
20
-4.23705
11
7.59705
21
-4.23705
0
LINE
8
BLACK
6
CONTINUOUS
10
7.59705
20
-4.23705
11
7.59705
21
-4.04295
0
LINE
8
BLACK
6
CONTINUOUS
10
7.59705
20
-4.04295
11
7.50295
21
-4.04295
0
LINE
8
BLACK
6
CONTINUOUS
10
7.40295
20
-4.04295
11
7.40295
21
-4.23705
0
LINE
8
BLACK
6
CONTINUOUS
10
7.40295
20
-4.23705
11
7.49705
21
-4.23705
0
LINE
8
BLACK
6
CONTINUOUS
10
7.49705
20
-4.23705
11
7.49705
21
-4.04295
0
LINE
8
BLACK
6
CONTINUOUS
10
7.49705
20
-4.04295
11
7.40295
21
-4.04295
0
LINE
8
BLACK
6
CONTINUOUS
10
7.30295
20
-4.04295
11
7.30295
21
-4.23705
0
LINE
8
BLACK
6
CONTINUOUS
10
7.30295
20
-4.23705
11
7.39705
21
-4.23705
0
LINE
8
BLACK
6
CONTINUOUS
10
7.39705
20
-4.23705
11
7.39705
21
-4.04295
0
LINE
8
BLACK
6
CONTINUOUS
10
7.39705
20
-4.04295
11
7.30295
21
-4.04295
0
LINE
8
BLACK
6
CONTINUOUS
10
6.58861
20
-4.24139
11
6.58803
21
-4.24
0
LINE
8
BLACK
6
CONTINUOUS
10
6.58803
20
-4.24
11
6.58803
21
-4.035
0
LINE
8
BLACK
6
CONTINUOUS
10
6.58803
20
-4.035
11
6.58861
21
-4.03361
0
LINE
8
BLACK
6
CONTINUOUS
10
6.58861
20
-4.03361
11
6.59
21
-4.03303
0
LINE
8
BLACK
6
CONTINUOUS
10
6.59
20
-4.03303
11
7.25
21
-4.03303
0
LINE
8
BLACK
6
CONTINUOUS
10
7.25
20
-4.03303
11
7.25139
21
-4.03361
0
LINE
8
BLACK
6
CONTINUOUS
10
7.25139
20
-4.03361
11
7.25197
21
-4.035
0
LINE
8
BLACK
6
CONTINUOUS
10
7.25197
20
-4.035
11
7.25197
21
-4.24
0
LINE
8
BLACK
6
CONTINUOUS
10
7.25197
20
-4.24
11
7.25139
21
-4.24139
0
LINE
8
BLACK
6
CONTINUOUS
10
7.25139
20
-4.24139
11
7.25
21
-4.24197
0
LINE
8
BLACK
6
CONTINUOUS
10
7.25
20
-4.24197
11
6.59
21
-4.24197
0
LINE
8
BLACK
6
CONTINUOUS
10
6.59
20
-4.24197
11
6.58861
21
-4.24139
0
LINE
8
BLACK
6
CONTINUOUS
10
6.59197
20
-4.03697
11
6.59197
21
-4.23803
0
LINE
8
BLACK
6
CONTINUOUS
10
6.59197
20
-4.23803
11
7.24803
21
-4.23803
0
LINE
8
BLACK
6
CONTINUOUS
10
7.24803
20
-4.23803
11
7.24803
21
-4.03697
0
LINE
8
BLACK
6
CONTINUOUS
10
7.24803
20
-4.03697
11
6.59197
21
-4.03697
0
LINE
8
BLACK
6
CONTINUOUS
10
6.92101
20
-4.17067
11
6.92115
21
-4.17078
0
LINE
8
BLACK
6
CONTINUOUS
10
6.92115
20
-4.17078
11
6.92132
21
-4.1708
0
LINE
8
BLACK
6
CONTINUOUS
10
6.92132
20
-4.1708
11
6.92507
21
-4.17267
0
LINE
8
BLACK
6
CONTINUOUS
10
6.92507
20
-4.17267
11
6.92578
21
-4.1732
0
LINE
8
BLACK
6
CONTINUOUS
10
6.92578
20
-4.1732
11
6.92584
21
-4.17323
0
LINE
8
BLACK
6
CONTINUOUS
10
6.92584
20
-4.17323
11
6.92771
21
-4.1751
0
LINE
8
BLACK
6
CONTINUOUS
10
6.92771
20
-4.1751
11
6.92822
21
-4.17582
0
LINE
8
BLACK
6
CONTINUOUS
10
6.92822
20
-4.17582
11
6.92827
21
-4.17587
0
LINE
8
BLACK
6
CONTINUOUS
10
6.92827
20
-4.17587
11
6.93014
21
-4.17962
0
LINE
8
BLACK
6
CONTINUOUS
10
6.93014
20
-4.17962
11
6.93043
21
-4.1806
0
LINE
8
BLACK
6
CONTINUOUS
10
6.93043
20
-4.1806
11
6.93039
21
-4.18077
0
LINE
8
BLACK
6
CONTINUOUS
10
6.93039
20
-4.18077
11
6.93045
21
-4.18094
0
LINE
8
BLACK
6
CONTINUOUS
10
6.93045
20
-4.18094
11
6.93045
21
-4.18469
0
LINE
8
BLACK
6
CONTINUOUS
10
6.93045
20
-4.18469
11
6.9303
21
-4.18556
0
LINE
8
BLACK
6
CONTINUOUS
10
6.9303
20
-4.18556
11
6.9303
21
-4.18562
0
LINE
8
BLACK
6
CONTINUOUS
10
6.9303
20
-4.18562
11
6.92843
21
-4.19125
0
LINE
8
BLACK
6
CONTINUOUS
10
6.92843
20
-4.19125
11
6.92794
21
-4.19215
0
LINE
8
BLACK
6
CONTINUOUS
10
6.92794
20
-4.19215
11
6.92779
21
-4.19224
0
LINE
8
BLACK
6
CONTINUOUS
10
6.92779
20
-4.19224
11
6.92771
21
-4.1924
0
LINE
8
BLACK
6
CONTINUOUS
10
6.92771
20
-4.1924
11
6.91026
21
-4.20986
0
LINE
8
BLACK
6
CONTINUOUS
10
6.91026
20
-4.20986
11
6.9275
21
-4.20986
0
LINE
8
BLACK
6
CONTINUOUS
10
6.9275
20
-4.20986
11
6.92851
21
-4.21004
0
LINE
8
BLACK
6
CONTINUOUS
10
6.92851
20
-4.21004
11
6.93006
21
-4.21133
0
LINE
8
BLACK
6
CONTINUOUS
10
6.93006
20
-4.21133
11
6.93041
21
-4.21332
0
LINE
8
BLACK
6
CONTINUOUS
10
6.93041
20
-4.21332
11
6.9294
21
-4.21507
0
LINE
8
BLACK
6
CONTINUOUS
10
6.9294
20
-4.21507
11
6.9275
21
-4.21576
0
LINE
8
BLACK
6
CONTINUOUS
10
6.9275
20
-4.21576
11
6.90313
21
-4.21576
0
LINE
8
BLACK
6
CONTINUOUS
10
6.90313
20
-4.21576
11
6.90249
21
-4.21565
0
LINE
8
BLACK
6
CONTINUOUS
10
6.90249
20
-4.21565
11
6.90236
21
-4.21566
0
LINE
8
BLACK
6
CONTINUOUS
10
6.90236
20
-4.21566
11
6.9023
21
-4.21562
0
LINE
8
BLACK
6
CONTINUOUS
10
6.9023
20
-4.21562
11
6.90212
21
-4.21558
0
LINE
8
BLACK
6
CONTINUOUS
10
6.90212
20
-4.21558
11
6.90144
21
-4.21501
0
LINE
8
BLACK
6
CONTINUOUS
10
6.90144
20
-4.21501
11
6.90071
21
-4.2145
0
LINE
8
BLACK
6
CONTINUOUS
10
6.90071
20
-4.2145
11
6.90067
21
-4.21437
0
LINE
8
BLACK
6
CONTINUOUS
10
6.90067
20
-4.21437
11
6.90057
21
-4.21429
0
LINE
8
BLACK
6
CONTINUOUS
10
6.90057
20
-4.21429
11
6.90042
21
-4.21341
0
LINE
8
BLACK
6
CONTINUOUS
10
6.90042
20
-4.21341
11
6.90019
21
-4.21255
0
LINE
8
BLACK
6
CONTINUOUS
10
6.90019
20
-4.21255
11
6.90024
21
-4.21243
0
LINE
8
BLACK
6
CONTINUOUS
10
6.90024
20
-4.21243
11
6.90022
21
-4.2123
0
LINE
8
BLACK
6
CONTINUOUS
10
6.90022
20
-4.2123
11
6.90066
21
-4.21153
0
LINE
8
BLACK
6
CONTINUOUS
10
6.90066
20
-4.21153
11
6.90104
21
-4.21072
0
LINE
8
BLACK
6
CONTINUOUS
10
6.90104
20
-4.21072
11
6.92304
21
-4.18872
0
LINE
8
BLACK
6
CONTINUOUS
10
6.92304
20
-4.18872
11
6.92455
21
-4.18421
0
LINE
8
BLACK
6
CONTINUOUS
10
6.92455
20
-4.18421
11
6.92455
21
-4.18164
0
LINE
8
BLACK
6
CONTINUOUS
10
6.92455
20
-4.18164
11
6.9232
21
-4.17894
0
LINE
8
BLACK
6
CONTINUOUS
10
6.9232
20
-4.17894
11
6.922
21
-4.17774
0
LINE
8
BLACK
6
CONTINUOUS
10
6.922
20
-4.17774
11
6.9193
21
-4.17639
0
LINE
8
BLACK
6
CONTINUOUS
10
6.9193
20
-4.17639
11
6.91132
21
-4.17639
0
LINE
8
BLACK
6
CONTINUOUS
10
6.91132
20
-4.17639
11
6.90863
21
-4.17774
0
LINE
8
BLACK
6
CONTINUOUS
10
6.90863
20
-4.17774
11
6.90709
21
-4.17928
0
LINE
8
BLACK
6
CONTINUOUS
10
6.90709
20
-4.17928
11
6.90625
21
-4.17987
0
LINE
8
BLACK
6
CONTINUOUS
10
6.90625
20
-4.17987
11
6.90424
21
-4.18004
0
LINE
8
BLACK
6
CONTINUOUS
10
6.90424
20
-4.18004
11
6.90258
21
-4.17888
0
LINE
8
BLACK
6
CONTINUOUS
10
6.90258
20
-4.17888
11
6.90206
21
-4.17693
0
LINE
8
BLACK
6
CONTINUOUS
10
6.90206
20
-4.17693
11
6.90291
21
-4.1751
0
LINE
8
BLACK
6
CONTINUOUS
10
6.90291
20
-4.1751
11
6.90479
21
-4.17323
0
LINE
8
BLACK
6
CONTINUOUS
10
6.90479
20
-4.17323
11
6.90551
21
-4.17272
0
LINE
8
BLACK
6
CONTINUOUS
10
6.90551
20
-4.17272
11
6.90556
21
-4.17267
0
LINE
8
BLACK
6
CONTINUOUS
10
6.90556
20
-4.17267
11
6.90931
21
-4.1708
0
LINE
8
BLACK
6
CONTINUOUS
10
6.90931
20
-4.1708
11
6.91029
21
-4.17051
0
LINE
8
BLACK
6
CONTINUOUS
10
6.91029
20
-4.17051
11
6.91046
21
-4.17055
0
LINE
8
BLACK
6
CONTINUOUS
10
6.91046
20
-4.17055
11
6.91063
21
-4.17049
0
LINE
8
BLACK
6
CONTINUOUS
10
6.91063
20
-4.17049
11
6.92
21
-4.17049
0
LINE
8
BLACK
6
CONTINUOUS
10
6.92
20
-4.17049
11
6.92101
21
-4.17067
0
LINE
8
BLACK
6
CONTINUOUS
10
6.96225
20
-4.17067
11
6.9638
21
-4.17196
0
LINE
8
BLACK
6
CONTINUOUS
10
6.9638
20
-4.17196
11
6.96415
21
-4.17395
0
LINE
8
BLACK
6
CONTINUOUS
10
6.96415
20
-4.17395
11
6.96314
21
-4.1757
0
LINE
8
BLACK
6
CONTINUOUS
10
6.96314
20
-4.1757
11
6.96124
21
-4.17639
0
LINE
8
BLACK
6
CONTINUOUS
10
6.96124
20
-4.17639
11
6.95444
21
-4.17639
0
LINE
8
BLACK
6
CONTINUOUS
10
6.95444
20
-4.17639
11
6.95175
21
-4.17774
0
LINE
8
BLACK
6
CONTINUOUS
10
6.95175
20
-4.17774
11
6.95042
21
-4.17907
0
LINE
8
BLACK
6
CONTINUOUS
10
6.95042
20
-4.17907
11
6.94711
21
-4.18403
0
LINE
8
BLACK
6
CONTINUOUS
10
6.94711
20
-4.18403
11
6.94638
21
-4.18694
0
LINE
8
BLACK
6
CONTINUOUS
10
6.94638
20
-4.18694
11
6.94868
21
-4.1858
0
LINE
8
BLACK
6
CONTINUOUS
10
6.94868
20
-4.1858
11
6.94966
21
-4.1855
0
LINE
8
BLACK
6
CONTINUOUS
10
6.94966
20
-4.1855
11
6.94983
21
-4.18555
0
LINE
8
BLACK
6
CONTINUOUS
10
6.94983
20
-4.18555
11
6.95
21
-4.18549
0
LINE
8
BLACK
6
CONTINUOUS
10
6.95
20
-4.18549
11
6.9575
21
-4.18549
0
LINE
8
BLACK
6
CONTINUOUS
10
6.9575
20
-4.18549
11
6.95851
21
-4.18566
0
LINE
8
BLACK
6
CONTINUOUS
10
6.95851
20
-4.18566
11
6.95864
21
-4.18578
0
LINE
8
BLACK
6
CONTINUOUS
10
6.95864
20
-4.18578
11
6.95882
21
-4.1858
0
LINE
8
BLACK
6
CONTINUOUS
10
6.95882
20
-4.1858
11
6.96257
21
-4.18767
0
LINE
8
BLACK
6
CONTINUOUS
10
6.96257
20
-4.18767
11
6.96327
21
-4.1882
0
LINE
8
BLACK
6
CONTINUOUS
10
6.96327
20
-4.1882
11
6.96333
21
-4.18823
0
LINE
8
BLACK
6
CONTINUOUS
10
6.96333
20
-4.18823
11
6.96521
21
-4.1901
0
LINE
8
BLACK
6
CONTINUOUS
10
6.96521
20
-4.1901
11
6.96571
21
-4.19082
0
LINE
8
BLACK
6
CONTINUOUS
10
6.96571
20
-4.19082
11
6.96576
21
-4.19087
0
LINE
8
BLACK
6
CONTINUOUS
10
6.96576
20
-4.19087
11
6.96764
21
-4.19462
0
LINE
8
BLACK
6
CONTINUOUS
10
6.96764
20
-4.19462
11
6.96793
21
-4.1956
0
LINE
8
BLACK
6
CONTINUOUS
10
6.96793
20
-4.1956
11
6.96789
21
-4.19577
0
LINE
8
BLACK
6
CONTINUOUS
10
6.96789
20
-4.19577
11
6.96795
21
-4.19594
0
LINE
8
BLACK
6
CONTINUOUS
10
6.96795
20
-4.19594
11
6.96795
21
-4.20531
0
LINE
8
BLACK
6
CONTINUOUS
10
6.96795
20
-4.20531
11
6.96777
21
-4.20632
0
LINE
8
BLACK
6
CONTINUOUS
10
6.96777
20
-4.20632
11
6.96766
21
-4.20646
0
LINE
8
BLACK
6
CONTINUOUS
10
6.96766
20
-4.20646
11
6.96764
21
-4.20663
0
LINE
8
BLACK
6
CONTINUOUS
10
6.96764
20
-4.20663
11
6.96576
21
-4.21038
0
LINE
8
BLACK
6
CONTINUOUS
10
6.96576
20
-4.21038
11
6.96523
21
-4.21109
0
LINE
8
BLACK
6
CONTINUOUS
10
6.96523
20
-4.21109
11
6.96521
21
-4.21115
0
LINE
8
BLACK
6
CONTINUOUS
10
6.96521
20
-4.21115
11
6.96333
21
-4.21302
0
LINE
8
BLACK
6
CONTINUOUS
10
6.96333
20
-4.21302
11
6.96261
21
-4.21353
0
LINE
8
BLACK
6
CONTINUOUS
10
6.96261
20
-4.21353
11
6.96257
21
-4.21358
0
LINE
8
BLACK
6
CONTINUOUS
10
6.96257
20
-4.21358
11
6.95882
21
-4.21545
0
LINE
8
BLACK
6
CONTINUOUS
10
6.95882
20
-4.21545
11
6.95783
21
-4.21574
0
LINE
8
BLACK
6
CONTINUOUS
10
6.95783
20
-4.21574
11
6.95766
21
-4.2157
0
LINE
8
BLACK
6
CONTINUOUS
10
6.95766
20
-4.2157
11
6.9575
21
-4.21576
0
LINE
8
BLACK
6
CONTINUOUS
10
6.9575
20
-4.21576
11
6.95
21
-4.21576
0
LINE
8
BLACK
6
CONTINUOUS
10
6.95
20
-4.21576
11
6.94899
21
-4.21558
0
LINE
8
BLACK
6
CONTINUOUS
10
6.94899
20
-4.21558
11
6.94885
21
-4.21547
0
LINE
8
BLACK
6
CONTINUOUS
10
6.94885
20
-4.21547
11
6.94868
21
-4.21545
0
LINE
8
BLACK
6
CONTINUOUS
10
6.94868
20
-4.21545
11
6.94493
21
-4.21358
0
LINE
8
BLACK
6
CONTINUOUS
10
6.94493
20
-4.21358
11
6.94422
21
-4.21305
0
LINE
8
BLACK
6
CONTINUOUS
10
6.94422
20
-4.21305
11
6.94416
21
-4.21302
0
LINE
8
BLACK
6
CONTINUOUS
10
6.94416
20
-4.21302
11
6.94228
21
-4.21115
0
LINE
8
BLACK
6
CONTINUOUS
10
6.94228
20
-4.21115
11
6.94178
21
-4.21043
0
LINE
8
BLACK
6
CONTINUOUS
10
6.94178
20
-4.21043
11
6.94173
21
-4.21038
0
LINE
8
BLACK
6
CONTINUOUS
10
6.94173
20
-4.21038
11
6.93986
21
-4.20663
0
LINE
8
BLACK
6
CONTINUOUS
10
6.93986
20
-4.20663
11
6.93956
21
-4.20565
0
LINE
8
BLACK
6
CONTINUOUS
10
6.93956
20
-4.20565
11
6.9396
21
-4.20548
0
LINE
8
BLACK
6
CONTINUOUS
10
6.9396
20
-4.20548
11
6.93954
21
-4.20531
0
LINE
8
BLACK
6
CONTINUOUS
10
6.93954
20
-4.20531
11
6.93954
21
-4.19031
0
LINE
8
BLACK
6
CONTINUOUS
10
6.93954
20
-4.19031
11
6.93965
21
-4.18973
0
LINE
8
BLACK
6
CONTINUOUS
10
6.93965
20
-4.18973
11
6.93963
21
-4.1896
0
LINE
8
BLACK
6
CONTINUOUS
10
6.93963
20
-4.1896
11
6.94151
21
-4.1821
0
LINE
8
BLACK
6
CONTINUOUS
10
6.94151
20
-4.1821
11
6.94191
21
-4.18119
0
LINE
8
BLACK
6
CONTINUOUS
10
6.94191
20
-4.18119
11
6.94192
21
-4.18118
0
LINE
8
BLACK
6
CONTINUOUS
10
6.94192
20
-4.18118
11
6.94566
21
-4.17555
0
LINE
8
BLACK
6
CONTINUOUS
10
6.94566
20
-4.17555
11
6.94598
21
-4.17523
0
LINE
8
BLACK
6
CONTINUOUS
10
6.94598
20
-4.17523
11
6.94603
21
-4.1751
0
LINE
8
BLACK
6
CONTINUOUS
10
6.94603
20
-4.1751
11
6.94791
21
-4.17323
0
LINE
8
BLACK
6
CONTINUOUS
10
6.94791
20
-4.17323
11
6.94863
21
-4.17272
0
LINE
8
BLACK
6
CONTINUOUS
10
6.94863
20
-4.17272
11
6.94868
21
-4.17267
0
LINE
8
BLACK
6
CONTINUOUS
10
6.94868
20
-4.17267
11
6.95243
21
-4.1708
0
LINE
8
BLACK
6
CONTINUOUS
10
6.95243
20
-4.1708
11
6.95341
21
-4.17051
0
LINE
8
BLACK
6
CONTINUOUS
10
6.95341
20
-4.17051
11
6.95358
21
-4.17055
0
LINE
8
BLACK
6
CONTINUOUS
10
6.95358
20
-4.17055
11
6.95375
21
-4.17049
0
LINE
8
BLACK
6
CONTINUOUS
10
6.95375
20
-4.17049
11
6.96124
21
-4.17049
0
LINE
8
BLACK
6
CONTINUOUS
10
6.96124
20
-4.17049
11
6.96225
21
-4.17067
0
LINE
8
BLACK
6
CONTINUOUS
10
6.95069
20
-4.19139
11
6.948
21
-4.19274
0
LINE
8
BLACK
6
CONTINUOUS
10
6.948
20
-4.19274
11
6.9468
21
-4.19394
0
LINE
8
BLACK
6
CONTINUOUS
10
6.9468
20
-4.19394
11
6.94545
21
-4.19663
0
LINE
8
BLACK
6
CONTINUOUS
10
6.94545
20
-4.19663
11
6.94545
21
-4.20461
0
LINE
8
BLACK
6
CONTINUOUS
10
6.94545
20
-4.20461
11
6.9468
21
-4.20731
0
LINE
8
BLACK
6
CONTINUOUS
10
6.9468
20
-4.20731
11
6.948
21
-4.20851
0
LINE
8
BLACK
6
CONTINUOUS
10
6.948
20
-4.20851
11
6.95069
21
-4.20986
0
LINE
8
BLACK
6
CONTINUOUS
10
6.95069
20
-4.20986
11
6.9568
21
-4.20986
0
LINE
8
BLACK
6
CONTINUOUS
10
6.9568
20
-4.20986
11
6.9595
21
-4.20851
0
LINE
8
BLACK
6
CONTINUOUS
10
6.9595
20
-4.20851
11
6.96069
21
-4.20731
0
LINE
8
BLACK
6
CONTINUOUS
10
6.96069
20
-4.20731
11
6.96204
21
-4.20461
0
LINE
8
BLACK
6
CONTINUOUS
10
6.96204
20
-4.20461
11
6.96204
21
-4.19663
0
LINE
8
BLACK
6
CONTINUOUS
10
6.96204
20
-4.19663
11
6.96069
21
-4.19394
0
LINE
8
BLACK
6
CONTINUOUS
10
6.96069
20
-4.19394
11
6.9595
21
-4.19274
0
LINE
8
BLACK
6
CONTINUOUS
10
6.9595
20
-4.19274
11
6.9568
21
-4.19139
0
LINE
8
BLACK
6
CONTINUOUS
10
6.9568
20
-4.19139
11
6.95069
21
-4.19139
0
LINE
8
BLACK
6
CONTINUOUS
10
6.89039
20
-4.17154
11
6.89108
21
-4.17344
0
LINE
8
BLACK
6
CONTINUOUS
10
6.89108
20
-4.17344
11
6.89108
21
-4.20156
0
LINE
8
BLACK
6
CONTINUOUS
10
6.89108
20
-4.20156
11
6.89093
21
-4.20243
0
LINE
8
BLACK
6
CONTINUOUS
10
6.89093
20
-4.20243
11
6.89093
21
-4.2025
0
LINE
8
BLACK
6
CONTINUOUS
10
6.89093
20
-4.2025
11
6.88906
21
-4.20812
0
LINE
8
BLACK
6
CONTINUOUS
10
6.88906
20
-4.20812
11
6.88857
21
-4.20902
0
LINE
8
BLACK
6
CONTINUOUS
10
6.88857
20
-4.20902
11
6.88842
21
-4.20911
0
LINE
8
BLACK
6
CONTINUOUS
10
6.88842
20
-4.20911
11
6.88834
21
-4.20927
0
LINE
8
BLACK
6
CONTINUOUS
10
6.88834
20
-4.20927
11
6.88459
21
-4.21302
0
LINE
8
BLACK
6
CONTINUOUS
10
6.88459
20
-4.21302
11
6.88375
21
-4.21361
0
LINE
8
BLACK
6
CONTINUOUS
10
6.88375
20
-4.21361
11
6.88358
21
-4.21363
0
LINE
8
BLACK
6
CONTINUOUS
10
6.88358
20
-4.21363
11
6.88344
21
-4.21374
0
LINE
8
BLACK
6
CONTINUOUS
10
6.88344
20
-4.21374
11
6.87781
21
-4.21561
0
LINE
8
BLACK
6
CONTINUOUS
10
6.87781
20
-4.21561
11
6.87694
21
-4.21574
0
LINE
8
BLACK
6
CONTINUOUS
10
6.87694
20
-4.21574
11
6.87688
21
-4.21576
0
LINE
8
BLACK
6
CONTINUOUS
10
6.87688
20
-4.21576
11
6.87313
21
-4.21576
0
LINE
8
BLACK
6
CONTINUOUS
10
6.87313
20
-4.21576
11
6.87212
21
-4.21558
0
LINE
8
BLACK
6
CONTINUOUS
10
6.87212
20
-4.21558
11
6.87057
21
-4.21429
0
LINE
8
BLACK
6
CONTINUOUS
10
6.87057
20
-4.21429
11
6.87022
21
-4.2123
0
LINE
8
BLACK
6
CONTINUOUS
10
6.87022
20
-4.2123
11
6.87123
21
-4.21055
0
LINE
8
BLACK
6
CONTINUOUS
10
6.87123
20
-4.21055
11
6.87313
21
-4.20986
0
LINE
8
BLACK
6
CONTINUOUS
10
6.87313
20
-4.20986
11
6.8764
21
-4.20986
0
LINE
8
BLACK
6
CONTINUOUS
10
6.8764
20
-4.20986
11
6.88091
21
-4.20835
0
LINE
8
BLACK
6
CONTINUOUS
10
6.88091
20
-4.20835
11
6.88367
21
-4.20559
0
LINE
8
BLACK
6
CONTINUOUS
10
6.88367
20
-4.20559
11
6.88518
21
-4.20108
0
LINE
8
BLACK
6
CONTINUOUS
10
6.88518
20
-4.20108
11
6.88518
21
-4.17344
0
LINE
8
BLACK
6
CONTINUOUS
10
6.88518
20
-4.17344
11
6.88535
21
-4.17243
0
LINE
8
BLACK
6
CONTINUOUS
10
6.88535
20
-4.17243
11
6.88665
21
-4.17088
0
LINE
8
BLACK
6
CONTINUOUS
10
6.88665
20
-4.17088
11
6.88864
21
-4.17053
0
LINE
8
BLACK
6
CONTINUOUS
10
6.88864
20
-4.17053
11
6.89039
21
-4.17154
0
LINE
8
BLACK
6
CONTINUOUS
10
8.26792
20
-5.36047
11
8.27197
21
-5.34704
0
LINE
8
BLACK
6
CONTINUOUS
10
8.27197
20
-5.34704
11
8.2775
21
-5.33415
0
LINE
8
BLACK
6
CONTINUOUS
10
8.2775
20
-5.33415
11
8.28442
21
-5.32196
0
LINE
8
BLACK
6
CONTINUOUS
10
8.28442
20
-5.32196
11
8.29267
21
-5.31062
0
LINE
8
BLACK
6
CONTINUOUS
10
8.29267
20
-5.31062
11
8.30212
21
-5.30026
0
LINE
8
BLACK
6
CONTINUOUS
10
8.30212
20
-5.30026
11
8.31267
21
-5.29103
0
LINE
8
BLACK
6
CONTINUOUS
10
8.31267
20
-5.29103
11
8.32419
21
-5.28302
0
LINE
8
BLACK
6
CONTINUOUS
10
8.32419
20
-5.28302
11
8.33652
21
-5.27635
0
LINE
8
BLACK
6
CONTINUOUS
10
8.33652
20
-5.27635
11
8.34952
21
-5.2711
0
LINE
8
BLACK
6
CONTINUOUS
10
8.34952
20
-5.2711
11
8.36303
21
-5.26733
0
LINE
8
BLACK
6
CONTINUOUS
10
8.36303
20
-5.26733
11
8.37687
21
-5.26509
0
LINE
8
BLACK
6
CONTINUOUS
10
8.37687
20
-5.26509
11
8.39088
21
-5.2644
0
LINE
8
BLACK
6
CONTINUOUS
10
8.39088
20
-5.2644
11
8.40487
21
-5.26528
0
LINE
8
BLACK
6
CONTINUOUS
10
8.40487
20
-5.26528
11
8.41868
21
-5.26772
0
LINE
8
BLACK
6
CONTINUOUS
10
8.41868
20
-5.26772
11
8.43213
21
-5.27168
0
LINE
8
BLACK
6
CONTINUOUS
10
8.43213
20
-5.27168
11
8.44506
21
-5.27711
0
LINE
8
BLACK
6
CONTINUOUS
10
8.44506
20
-5.27711
11
8.4573
21
-5.28395
0
LINE
8
BLACK
6
CONTINUOUS
10
8.4573
20
-5.28395
11
8.4687
21
-5.29212
0
LINE
8
BLACK
6
CONTINUOUS
10
8.4687
20
-5.29212
11
8.47912
21
-5.3015
0
LINE
8
BLACK
6
CONTINUOUS
10
8.47912
20
-5.3015
11
8.48843
21
-5.31198
0
LINE
8
BLACK
6
CONTINUOUS
10
8.48843
20
-5.31198
11
8.49651
21
-5.32344
0
LINE
8
BLACK
6
CONTINUOUS
10
8.49651
20
-5.32344
11
8.50327
21
-5.33573
0
LINE
8
BLACK
6
CONTINUOUS
10
8.50327
20
-5.33573
11
8.50861
21
-5.34869
0
LINE
8
BLACK
6
CONTINUOUS
10
8.50861
20
-5.34869
11
8.51248
21
-5.36217
0
LINE
8
BLACK
6
CONTINUOUS
10
8.51248
20
-5.36217
11
8.51482
21
-5.376
0
LINE
8
BLACK
6
CONTINUOUS
10
8.51482
20
-5.376
11
8.5156
21
-5.39
0
LINE
8
BLACK
6
CONTINUOUS
10
8.5156
20
-5.39
11
8.51555
21
-5.39351
0
LINE
8
BLACK
6
CONTINUOUS
10
8.51555
20
-5.39351
11
8.51438
21
-5.40748
0
LINE
8
BLACK
6
CONTINUOUS
10
8.51438
20
-5.40748
11
8.51165
21
-5.42124
0
LINE
8
BLACK
6
CONTINUOUS
10
8.51165
20
-5.42124
11
8.50741
21
-5.4346
0
LINE
8
BLACK
6
CONTINUOUS
10
8.50741
20
-5.4346
11
8.50171
21
-5.44741
0
LINE
8
BLACK
6
CONTINUOUS
10
8.50171
20
-5.44741
11
8.49461
21
-5.45951
0
LINE
8
BLACK
6
CONTINUOUS
10
8.49461
20
-5.45951
11
8.48622
21
-5.47073
0
LINE
8
BLACK
6
CONTINUOUS
10
8.48622
20
-5.47073
11
8.47662
21
-5.48096
0
LINE
8
BLACK
6
CONTINUOUS
10
8.47662
20
-5.48096
11
8.46594
21
-5.49004
0
LINE
8
BLACK
6
CONTINUOUS
10
8.46594
20
-5.49004
11
8.45431
21
-5.49789
0
LINE
8
BLACK
6
CONTINUOUS
10
8.45431
20
-5.49789
11
8.44189
21
-5.50438
0
LINE
8
BLACK
6
CONTINUOUS
10
8.44189
20
-5.50438
11
8.42881
21
-5.50945
0
LINE
8
BLACK
6
CONTINUOUS
10
8.42881
20
-5.50945
11
8.41526
21
-5.51303
0
LINE
8
BLACK
6
CONTINUOUS
10
8.41526
20
-5.51303
11
8.40138
21
-5.51508
0
LINE
8
BLACK
6
CONTINUOUS
10
8.40138
20
-5.51508
11
8.38737
21
-5.51557
0
LINE
8
BLACK
6
CONTINUOUS
10
8.38737
20
-5.51557
11
8.37339
21
-5.5145
0
LINE
8
BLACK
6
CONTINUOUS
10
8.37339
20
-5.5145
11
8.35961
21
-5.51187
0
LINE
8
BLACK
6
CONTINUOUS
10
8.35961
20
-5.51187
11
8.34622
21
-5.50772
0
LINE
8
BLACK
6
CONTINUOUS
10
8.34622
20
-5.50772
11
8.33337
21
-5.50211
0
LINE
8
BLACK
6
CONTINUOUS
10
8.33337
20
-5.50211
11
8.32123
21
-5.4951
0
LINE
8
BLACK
6
CONTINUOUS
10
8.32123
20
-5.4951
11
8.30994
21
-5.48678
0
LINE
8
BLACK
6
CONTINUOUS
10
8.30994
20
-5.48678
11
8.29965
21
-5.47725
0
LINE
8
BLACK
6
CONTINUOUS
10
8.29965
20
-5.47725
11
8.29049
21
-5.46663
0
LINE
8
BLACK
6
CONTINUOUS
10
8.29049
20
-5.46663
11
8.28257
21
-5.45506
0
LINE
8
BLACK
6
CONTINUOUS
10
8.28257
20
-5.45506
11
8.27598
21
-5.44268
0
LINE
8
BLACK
6
CONTINUOUS
10
8.27598
20
-5.44268
11
8.27082
21
-5.42965
0
LINE
8
BLACK
6
CONTINUOUS
10
8.27082
20
-5.42965
11
8.26714
21
-5.41611
0
LINE
8
BLACK
6
CONTINUOUS
10
8.26714
20
-5.41611
11
8.265
21
-5.40226
0
LINE
8
BLACK
6
CONTINUOUS
10
8.265
20
-5.40226
11
8.26441
21
-5.38825
0
LINE
8
BLACK
6
CONTINUOUS
10
8.26441
20
-5.38825
11
8.26453
21
-5.38652
0
LINE
8
BLACK
6
CONTINUOUS
10
8.26453
20
-5.38652
11
8.26539
21
-5.37426
0
LINE
8
BLACK
6
CONTINUOUS
10
8.26539
20
-5.37426
11
8.26792
21
-5.36047
0
LINE
8
BLACK
6
CONTINUOUS
10
8.2814
20
-5.4119
11
8.28463
21
-5.42424
0
LINE
8
BLACK
6
CONTINUOUS
10
8.28463
20
-5.42424
11
8.28927
21
-5.43612
0
LINE
8
BLACK
6
CONTINUOUS
10
8.28927
20
-5.43612
11
8.29524
21
-5.44739
0
LINE
8
BLACK
6
CONTINUOUS
10
8.29524
20
-5.44739
11
8.30246
21
-5.4579
0
LINE
8
BLACK
6
CONTINUOUS
10
8.30246
20
-5.4579
11
8.31085
21
-5.46751
0
LINE
8
BLACK
6
CONTINUOUS
10
8.31085
20
-5.46751
11
8.32028
21
-5.4761
0
LINE
8
BLACK
6
CONTINUOUS
10
8.32028
20
-5.4761
11
8.33064
21
-5.48354
0
LINE
8
BLACK
6
CONTINUOUS
10
8.33064
20
-5.48354
11
8.34178
21
-5.48974
0
LINE
8
BLACK
6
CONTINUOUS
10
8.34178
20
-5.48974
11
8.35357
21
-5.49463
0
LINE
8
BLACK
6
CONTINUOUS
10
8.35357
20
-5.49463
11
8.36583
21
-5.49812
0
LINE
8
BLACK
6
CONTINUOUS
10
8.36583
20
-5.49812
11
8.37842
21
-5.50018
0
LINE
8
BLACK
6
CONTINUOUS
10
8.37842
20
-5.50018
11
8.39116
21
-5.50078
0
LINE
8
BLACK
6
CONTINUOUS
10
8.39116
20
-5.50078
11
8.40389
21
-5.49991
0
LINE
8
BLACK
6
CONTINUOUS
10
8.40389
20
-5.49991
11
8.41643
21
-5.49759
0
LINE
8
BLACK
6
CONTINUOUS
10
8.41643
20
-5.49759
11
8.42862
21
-5.49384
0
LINE
8
BLACK
6
CONTINUOUS
10
8.42862
20
-5.49384
11
8.4403
21
-5.48871
0
LINE
8
BLACK
6
CONTINUOUS
10
8.4403
20
-5.48871
11
8.45131
21
-5.48228
0
LINE
8
BLACK
6
CONTINUOUS
10
8.45131
20
-5.48228
11
8.46151
21
-5.47462
0
LINE
8
BLACK
6
CONTINUOUS
10
8.46151
20
-5.47462
11
8.47076
21
-5.46584
0
LINE
8
BLACK
6
CONTINUOUS
10
8.47076
20
-5.46584
11
8.47894
21
-5.45605
0
LINE
8
BLACK
6
CONTINUOUS
10
8.47894
20
-5.45605
11
8.48594
21
-5.44539
0
LINE
8
BLACK
6
CONTINUOUS
10
8.48594
20
-5.44539
11
8.49168
21
-5.434
0
LINE
8
BLACK
6
CONTINUOUS
10
8.49168
20
-5.434
11
8.49606
21
-5.42202
0
LINE
8
BLACK
6
CONTINUOUS
10
8.49606
20
-5.42202
11
8.49904
21
-5.40962
0
LINE
8
BLACK
6
CONTINUOUS
10
8.49904
20
-5.40962
11
8.50057
21
-5.39696
0
LINE
8
BLACK
6
CONTINUOUS
10
8.50057
20
-5.39696
11
8.50079
21
-5.39
0
LINE
8
BLACK
6
CONTINUOUS
10
8.50079
20
-5.39
11
8.50005
21
-5.37727
0
LINE
8
BLACK
6
CONTINUOUS
10
8.50005
20
-5.37727
11
8.49786
21
-5.3647
0
LINE
8
BLACK
6
CONTINUOUS
10
8.49786
20
-5.3647
11
8.49424
21
-5.35247
0
LINE
8
BLACK
6
CONTINUOUS
10
8.49424
20
-5.35247
11
8.48923
21
-5.34074
0
LINE
8
BLACK
6
CONTINUOUS
10
8.48923
20
-5.34074
11
8.48291
21
-5.32966
0
LINE
8
BLACK
6
CONTINUOUS
10
8.48291
20
-5.32966
11
8.47536
21
-5.31938
0
LINE
8
BLACK
6
CONTINUOUS
10
8.47536
20
-5.31938
11
8.46668
21
-5.31004
0
LINE
8
BLACK
6
CONTINUOUS
10
8.46668
20
-5.31004
11
8.45698
21
-5.30175
0
LINE
8
BLACK
6
CONTINUOUS
10
8.45698
20
-5.30175
11
8.4464
21
-5.29464
0
LINE
8
BLACK
6
CONTINUOUS
10
8.4464
20
-5.29464
11
8.43506
21
-5.28879
0
LINE
8
BLACK
6
CONTINUOUS
10
8.43506
20
-5.28879
11
8.42313
21
-5.28428
0
LINE
8
BLACK
6
CONTINUOUS
10
8.42313
20
-5.28428
11
8.41076
21
-5.28117
0
LINE
8
BLACK
6
CONTINUOUS
10
8.41076
20
-5.28117
11
8.39811
21
-5.27951
0
LINE
8
BLACK
6
CONTINUOUS
10
8.39811
20
-5.27951
11
8.38536
21
-5.27931
0
LINE
8
BLACK
6
CONTINUOUS
10
8.38536
20
-5.27931
11
8.37267
21
-5.28058
0
LINE
8
BLACK
6
CONTINUOUS
10
8.37267
20
-5.28058
11
8.36021
21
-5.28329
0
LINE
8
BLACK
6
CONTINUOUS
10
8.36021
20
-5.28329
11
8.34814
21
-5.28743
0
LINE
8
BLACK
6
CONTINUOUS
10
8.34814
20
-5.28743
11
8.33663
21
-5.29292
0
LINE
8
BLACK
6
CONTINUOUS
10
8.33663
20
-5.29292
11
8.32582
21
-5.29969
0
LINE
8
BLACK
6
CONTINUOUS
10
8.32582
20
-5.29969
11
8.31587
21
-5.30767
0
LINE
8
BLACK
6
CONTINUOUS
10
8.31587
20
-5.30767
11
8.3069
21
-5.31673
0
LINE
8
BLACK
6
CONTINUOUS
10
8.3069
20
-5.31673
11
8.29903
21
-5.32677
0
LINE
8
BLACK
6
CONTINUOUS
10
8.29903
20
-5.32677
11
8.29236
21
-5.33765
0
LINE
8
BLACK
6
CONTINUOUS
10
8.29236
20
-5.33765
11
8.28699
21
-5.34922
0
LINE
8
BLACK
6
CONTINUOUS
10
8.28699
20
-5.34922
11
8.28299
21
-5.36133
0
LINE
8
BLACK
6
CONTINUOUS
10
8.28299
20
-5.36133
11
8.2804
21
-5.37382
0
LINE
8
BLACK
6
CONTINUOUS
10
8.2804
20
-5.37382
11
8.27927
21
-5.38652
0
LINE
8
BLACK
6
CONTINUOUS
10
8.27927
20
-5.38652
11
8.2796
21
-5.39927
0
LINE
8
BLACK
6
CONTINUOUS
10
8.2796
20
-5.39927
11
8.2814
21
-5.4119
0
LINE
8
BLACK
6
CONTINUOUS
10
6.26792
20
-5.36047
11
6.27197
21
-5.34704
0
LINE
8
BLACK
6
CONTINUOUS
10
6.27197
20
-5.34704
11
6.2775
21
-5.33415
0
LINE
8
BLACK
6
CONTINUOUS
10
6.2775
20
-5.33415
11
6.28442
21
-5.32196
0
LINE
8
BLACK
6
CONTINUOUS
10
6.28442
20
-5.32196
11
6.29267
21
-5.31062
0
LINE
8
BLACK
6
CONTINUOUS
10
6.29267
20
-5.31062
11
6.30212
21
-5.30026
0
LINE
8
BLACK
6
CONTINUOUS
10
6.30212
20
-5.30026
11
6.31267
21
-5.29103
0
LINE
8
BLACK
6
CONTINUOUS
10
6.31267
20
-5.29103
11
6.32419
21
-5.28302
0
LINE
8
BLACK
6
CONTINUOUS
10
6.32419
20
-5.28302
11
6.33652
21
-5.27635
0
LINE
8
BLACK
6
CONTINUOUS
10
6.33652
20
-5.27635
11
6.34952
21
-5.2711
0
LINE
8
BLACK
6
CONTINUOUS
10
6.34952
20
-5.2711
11
6.36303
21
-5.26733
0
LINE
8
BLACK
6
CONTINUOUS
10
6.36303
20
-5.26733
11
6.37687
21
-5.26509
0
LINE
8
BLACK
6
CONTINUOUS
10
6.37687
20
-5.26509
11
6.39088
21
-5.2644
0
LINE
8
BLACK
6
CONTINUOUS
10
6.39088
20
-5.2644
11
6.40487
21
-5.26528
0
LINE
8
BLACK
6
CONTINUOUS
10
6.40487
20
-5.26528
11
6.41868
21
-5.26772
0
LINE
8
BLACK
6
CONTINUOUS
10
6.41868
20
-5.26772
11
6.43213
21
-5.27168
0
LINE
8
BLACK
6
CONTINUOUS
10
6.43213
20
-5.27168
11
6.44506
21
-5.27711
0
LINE
8
BLACK
6
CONTINUOUS
10
6.44506
20
-5.27711
11
6.4573
21
-5.28395
0
LINE
8
BLACK
6
CONTINUOUS
10
6.4573
20
-5.28395
11
6.4687
21
-5.29212
0
LINE
8
BLACK
6
CONTINUOUS
10
6.4687
20
-5.29212
11
6.47912
21
-5.3015
0
LINE
8
BLACK
6
CONTINUOUS
10
6.47912
20
-5.3015
11
6.48843
21
-5.31198
0
LINE
8
BLACK
6
CONTINUOUS
10
6.48843
20
-5.31198
11
6.49651
21
-5.32344
0
LINE
8
BLACK
6
CONTINUOUS
10
6.49651
20
-5.32344
11
6.50327
21
-5.33573
0
LINE
8
BLACK
6
CONTINUOUS
10
6.50327
20
-5.33573
11
6.50861
21
-5.34869
0
LINE
8
BLACK
6
CONTINUOUS
10
6.50861
20
-5.34869
11
6.51248
21
-5.36217
0
LINE
8
BLACK
6
CONTINUOUS
10
6.51248
20
-5.36217
11
6.51482
21
-5.376
0
LINE
8
BLACK
6
CONTINUOUS
10
6.51482
20
-5.376
11
6.5156
21
-5.39
0
LINE
8
BLACK
6
CONTINUOUS
10
6.5156
20
-5.39
11
6.51555
21
-5.39351
0
LINE
8
BLACK
6
CONTINUOUS
10
6.51555
20
-5.39351
11
6.51438
21
-5.40748
0
LINE
8
BLACK
6
CONTINUOUS
10
6.51438
20
-5.40748
11
6.51165
21
-5.42124
0
LINE
8
BLACK
6
CONTINUOUS
10
6.51165
20
-5.42124
11
6.50741
21
-5.4346
0
LINE
8
BLACK
6
CONTINUOUS
10
6.50741
20
-5.4346
11
6.50171
21
-5.44741
0
LINE
8
BLACK
6
CONTINUOUS
10
6.50171
20
-5.44741
11
6.49461
21
-5.45951
0
LINE
8
BLACK
6
CONTINUOUS
10
6.49461
20
-5.45951
11
6.48622
21
-5.47073
0
LINE
8
BLACK
6
CONTINUOUS
10
6.48622
20
-5.47073
11
6.47662
21
-5.48096
0
LINE
8
BLACK
6
CONTINUOUS
10
6.47662
20
-5.48096
11
6.46594
21
-5.49004
0
LINE
8
BLACK
6
CONTINUOUS
10
6.46594
20
-5.49004
11
6.45431
21
-5.49789
0
LINE
8
BLACK
6
CONTINUOUS
10
6.45431
20
-5.49789
11
6.44189
21
-5.50438
0
LINE
8
BLACK
6
CONTINUOUS
10
6.44189
20
-5.50438
11
6.42881
21
-5.50945
0
LINE
8
BLACK
6
CONTINUOUS
10
6.42881
20
-5.50945
11
6.41526
21
-5.51303
0
LINE
8
BLACK
6
CONTINUOUS
10
6.41526
20
-5.51303
11
6.40138
21
-5.51508
0
LINE
8
BLACK
6
CONTINUOUS
10
6.40138
20
-5.51508
11
6.38737
21
-5.51557
0
LINE
8
BLACK
6
CONTINUOUS
10
6.38737
20
-5.51557
11
6.37339
21
-5.5145
0
LINE
8
BLACK
6
CONTINUOUS
10
6.37339
20
-5.5145
11
6.35961
21
-5.51187
0
LINE
8
BLACK
6
CONTINUOUS
10
6.35961
20
-5.51187
11
6.34622
21
-5.50772
0
LINE
8
BLACK
6
CONTINUOUS
10
6.34622
20
-5.50772
11
6.33337
21
-5.50211
0
LINE
8
BLACK
6
CONTINUOUS
10
6.33337
20
-5.50211
11
6.32123
21
-5.4951
0
LINE
8
BLACK
6
CONTINUOUS
10
6.32123
20
-5.4951
11
6.30994
21
-5.48678
0
LINE
8
BLACK
6
CONTINUOUS
10
6.30994
20
-5.48678
11
6.29965
21
-5.47725
0
LINE
8
BLACK
6
CONTINUOUS
10
6.29965
20
-5.47725
11
6.29049
21
-5.46663
0
LINE
8
BLACK
6
CONTINUOUS
10
6.29049
20
-5.46663
11
6.28257
21
-5.45506
0
LINE
8
BLACK
6
CONTINUOUS
10
6.28257
20
-5.45506
11
6.27598
21
-5.44268
0
LINE
8
BLACK
6
CONTINUOUS
10
6.27598
20
-5.44268
11
6.27082
21
-5.42965
0
LINE
8
BLACK
6
CONTINUOUS
10
6.27082
20
-5.42965
11
6.26714
21
-5.41611
0
LINE
8
BLACK
6
CONTINUOUS
10
6.26714
20
-5.41611
11
6.265
21
-5.40226
0
LINE
8
BLACK
6
CONTINUOUS
10
6.265
20
-5.40226
11
6.26441
21
-5.38825
0
LINE
8
BLACK
6
CONTINUOUS
10
6.26441
20
-5.38825
11
6.26453
21
-5.38652
0
LINE
8
BLACK
6
CONTINUOUS
10
6.26453
20
-5.38652
11
6.26539
21
-5.37426
0
LINE
8
BLACK
6
CONTINUOUS
10
6.26539
20
-5.37426
11
6.26792
21
-5.36047
0
LINE
8
BLACK
6
CONTINUOUS
10
6.2814
20
-5.4119
11
6.28463
21
-5.42424
0
LINE
8
BLACK
6
CONTINUOUS
10
6.28463
20
-5.42424
11
6.28927
21
-5.43612
0
LINE
8
BLACK
6
CONTINUOUS
10
6.28927
20
-5.43612
11
6.29524
21
-5.44739
0
LINE
8
BLACK
6
CONTINUOUS
10
6.29524
20
-5.44739
11
6.30246
21
-5.4579
0
LINE
8
BLACK
6
CONTINUOUS
10
6.30246
20
-5.4579
11
6.31085
21
-5.46751
0
LINE
8
BLACK
6
CONTINUOUS
10
6.31085
20
-5.46751
11
6.32028
21
-5.4761
0
LINE
8
BLACK
6
CONTINUOUS
10
6.32028
20
-5.4761
11
6.33064
21
-5.48354
0
LINE
8
BLACK
6
CONTINUOUS
10
6.33064
20
-5.48354
11
6.34178
21
-5.48974
0
LINE
8
BLACK
6
CONTINUOUS
10
6.34178
20
-5.48974
11
6.35357
21
-5.49463
0
LINE
8
BLACK
6
CONTINUOUS
10
6.35357
20
-5.49463
11
6.36583
21
-5.49812
0
LINE
8
BLACK
6
CONTINUOUS
10
6.36583
20
-5.49812
11
6.37842
21
-5.50018
0
LINE
8
BLACK
6
CONTINUOUS
10
6.37842
20
-5.50018
11
6.39116
21
-5.50078
0
LINE
8
BLACK
6
CONTINUOUS
10
6.39116
20
-5.50078
11
6.40389
21
-5.49991
0
LINE
8
BLACK
6
CONTINUOUS
10
6.40389
20
-5.49991
11
6.41643
21
-5.49759
0
LINE
8
BLACK
6
CONTINUOUS
10
6.41643
20
-5.49759
11
6.42862
21
-5.49384
0
LINE
8
BLACK
6
CONTINUOUS
10
6.42862
20
-5.49384
11
6.4403
21
-5.48871
0
LINE
8
BLACK
6
CONTINUOUS
10
6.4403
20
-5.48871
11
6.45131
21
-5.48228
0
LINE
8
BLACK
6
CONTINUOUS
10
6.45131
20
-5.48228
11
6.46151
21
-5.47462
0
LINE
8
BLACK
6
CONTINUOUS
10
6.46151
20
-5.47462
11
6.47076
21
-5.46584
0
LINE
8
BLACK
6
CONTINUOUS
10
6.47076
20
-5.46584
11
6.47894
21
-5.45605
0
LINE
8
BLACK
6
CONTINUOUS
10
6.47894
20
-5.45605
11
6.48594
21
-5.44539
0
LINE
8
BLACK
6
CONTINUOUS
10
6.48594
20
-5.44539
11
6.49168
21
-5.434
0
LINE
8
BLACK
6
CONTINUOUS
10
6.49168
20
-5.434
11
6.49606
21
-5.42202
0
LINE
8
BLACK
6
CONTINUOUS
10
6.49606
20
-5.42202
11
6.49904
21
-5.40962
0
LINE
8
BLACK
6
CONTINUOUS
10
6.49904
20
-5.40962
11
6.50057
21
-5.39696
0
LINE
8
BLACK
6
CONTINUOUS
10
6.50057
20
-5.39696
11
6.50079
21
-5.39
0
LINE
8
BLACK
6
CONTINUOUS
10
6.50079
20
-5.39
11
6.50005
21
-5.37727
0
LINE
8
BLACK
6
CONTINUOUS
10
6.50005
20
-5.37727
11
6.49786
21
-5.3647
0
LINE
8
BLACK
6
CONTINUOUS
10
6.49786
20
-5.3647
11
6.49424
21
-5.35247
0
LINE
8
BLACK
6
CONTINUOUS
10
6.49424
20
-5.35247
11
6.48923
21
-5.34074
0
LINE
8
BLACK
6
CONTINUOUS
10
6.48923
20
-5.34074
11
6.48291
21
-5.32966
0
LINE
8
BLACK
6
CONTINUOUS
10
6.48291
20
-5.32966
11
6.47536
21
-5.31938
0
LINE
8
BLACK
6
CONTINUOUS
10
6.47536
20
-5.31938
11
6.46668
21
-5.31004
0
LINE
8
BLACK
6
CONTINUOUS
10
6.46668
20
-5.31004
11
6.45698
21
-5.30175
0
LINE
8
BLACK
6
CONTINUOUS
10
6.45698
20
-5.30175
11
6.4464
21
-5.29464
0
LINE
8
BLACK
6
CONTINUOUS
10
6.4464
20
-5.29464
11
6.43506
21
-5.28879
0
LINE
8
BLACK
6
CONTINUOUS
10
6.43506
20
-5.28879
11
6.42313
21
-5.28428
0
LINE
8
BLACK
6
CONTINUOUS
10
6.42313
20
-5.28428
11
6.41076
21
-5.28117
0
LINE
8
BLACK
6
CONTINUOUS
10
6.41076
20
-5.28117
11
6.39811
21
-5.27951
0
LINE
8
BLACK
6
CONTINUOUS
10
6.39811
20
-5.27951
11
6.38536
21
-5.27931
0
LINE
8
BLACK
6
CONTINUOUS
10
6.38536
20
-5.27931
11
6.37267
21
-5.28058
0
LINE
8
BLACK
6
CONTINUOUS
10
6.37267
20
-5.28058
11
6.36021
21
-5.28329
0
LINE
8
BLACK
6
CONTINUOUS
10
6.36021
20
-5.28329
11
6.34814
21
-5.28743
0
LINE
8
BLACK
6
CONTINUOUS
10
6.34814
20
-5.28743
11
6.33663
21
-5.29292
0
LINE
8
BLACK
6
CONTINUOUS
10
6.33663
20
-5.29292
11
6.32582
21
-5.29969
0
LINE
8
BLACK
6
CONTINUOUS
10
6.32582
20
-5.29969
11
6.31587
21
-5.30767
0
LINE
8
BLACK
6
CONTINUOUS
10
6.31587
20
-5.30767
11
6.3069
21
-5.31673
0
LINE
8
BLACK
6
CONTINUOUS
10
6.3069
20
-5.31673
11
6.29903
21
-5.32677
0
LINE
8
BLACK
6
CONTINUOUS
10
6.29903
20
-5.32677
11
6.29236
21
-5.33765
0
LINE
8
BLACK
6
CONTINUOUS
10
6.29236
20
-5.33765
11
6.28699
21
-5.34922
0
LINE
8
BLACK
6
CONTINUOUS
10
6.28699
20
-5.34922
11
6.28299
21
-5.36133
0
LINE
8
BLACK
6
CONTINUOUS
10
6.28299
20
-5.36133
11
6.2804
21
-5.37382
0
LINE
8
BLACK
6
CONTINUOUS
10
6.2804
20
-5.37382
11
6.27927
21
-5.38652
0
LINE
8
BLACK
6
CONTINUOUS
10
6.27927
20
-5.38652
11
6.2796
21
-5.39927
0
LINE
8
BLACK
6
CONTINUOUS
10
6.2796
20
-5.39927
11
6.2814
21
-5.4119
0
LINE
8
BLACK
6
CONTINUOUS
10
6.67238
20
-5.36662
11
6.67472
21
-5.35451
0
LINE
8
BLACK
6
CONTINUOUS
10
6.67472
20
-5.35451
11
6.6785
21
-5.34277
0
LINE
8
BLACK
6
CONTINUOUS
10
6.6785
20
-5.34277
11
6.68367
21
-5.33156
0
LINE
8
BLACK
6
CONTINUOUS
10
6.68367
20
-5.33156
11
6.69014
21
-5.32106
0
LINE
8
BLACK
6
CONTINUOUS
10
6.69014
20
-5.32106
11
6.69783
21
-5.31141
0
LINE
8
BLACK
6
CONTINUOUS
10
6.69783
20
-5.31141
11
6.70662
21
-5.30276
0
LINE
8
BLACK
6
CONTINUOUS
10
6.70662
20
-5.30276
11
6.71639
21
-5.29522
0
LINE
8
BLACK
6
CONTINUOUS
10
6.71639
20
-5.29522
11
6.72699
21
-5.28892
0
LINE
8
BLACK
6
CONTINUOUS
10
6.72699
20
-5.28892
11
6.73827
21
-5.28393
0
LINE
8
BLACK
6
CONTINUOUS
10
6.73827
20
-5.28393
11
6.75007
21
-5.28033
0
LINE
8
BLACK
6
CONTINUOUS
10
6.75007
20
-5.28033
11
6.76222
21
-5.27818
0
LINE
8
BLACK
6
CONTINUOUS
10
6.76222
20
-5.27818
11
6.77454
21
-5.2775
0
LINE
8
BLACK
6
CONTINUOUS
10
6.77454
20
-5.2775
11
6.78685
21
-5.27831
0
LINE
8
BLACK
6
CONTINUOUS
10
6.78685
20
-5.27831
11
6.79897
21
-5.28059
0
LINE
8
BLACK
6
CONTINUOUS
10
6.79897
20
-5.28059
11
6.81073
21
-5.28431
0
LINE
8
BLACK
6
CONTINUOUS
10
6.81073
20
-5.28431
11
6.82196
21
-5.28941
0
LINE
8
BLACK
6
CONTINUOUS
10
6.82196
20
-5.28941
11
6.8325
21
-5.29583
0
LINE
8
BLACK
6
CONTINUOUS
10
6.8325
20
-5.29583
11
6.84219
21
-5.30347
0
LINE
8
BLACK
6
CONTINUOUS
10
6.84219
20
-5.30347
11
6.85089
21
-5.31222
0
LINE
8
BLACK
6
CONTINUOUS
10
6.85089
20
-5.31222
11
6.85847
21
-5.32194
0
LINE
8
BLACK
6
CONTINUOUS
10
6.85847
20
-5.32194
11
6.86484
21
-5.33251
0
LINE
8
BLACK
6
CONTINUOUS
10
6.86484
20
-5.33251
11
6.86988
21
-5.34377
0
LINE
8
BLACK
6
CONTINUOUS
10
6.86988
20
-5.34377
11
6.87354
21
-5.35555
0
LINE
8
BLACK
6
CONTINUOUS
10
6.87354
20
-5.35555
11
6.87576
21
-5.36769
0
LINE
8
BLACK
6
CONTINUOUS
10
6.87576
20
-5.36769
11
6.8765
21
-5.38
0
LINE
8
BLACK
6
CONTINUOUS
10
6.8765
20
-5.38
11
6.87648
21
-5.38215
0
LINE
8
BLACK
6
CONTINUOUS
10
6.87648
20
-5.38215
11
6.87548
21
-5.39444
0
LINE
8
BLACK
6
CONTINUOUS
10
6.87548
20
-5.39444
11
6.87301
21
-5.40653
0
LINE
8
BLACK
6
CONTINUOUS
10
6.87301
20
-5.40653
11
6.8691
21
-5.41823
0
LINE
8
BLACK
6
CONTINUOUS
10
6.8691
20
-5.41823
11
6.86382
21
-5.42938
0
LINE
8
BLACK
6
CONTINUOUS
10
6.86382
20
-5.42938
11
6.85724
21
-5.43981
0
LINE
8
BLACK
6
CONTINUOUS
10
6.85724
20
-5.43981
11
6.84945
21
-5.44938
0
LINE
8
BLACK
6
CONTINUOUS
10
6.84945
20
-5.44938
11
6.84057
21
-5.45794
0
LINE
8
BLACK
6
CONTINUOUS
10
6.84057
20
-5.45794
11
6.83072
21
-5.46537
0
LINE
8
BLACK
6
CONTINUOUS
10
6.83072
20
-5.46537
11
6.82006
21
-5.47157
0
LINE
8
BLACK
6
CONTINUOUS
10
6.82006
20
-5.47157
11
6.80872
21
-5.47644
0
LINE
8
BLACK
6
CONTINUOUS
10
6.80872
20
-5.47644
11
6.79688
21
-5.47991
0
LINE
8
BLACK
6
CONTINUOUS
10
6.79688
20
-5.47991
11
6.78471
21
-5.48194
0
LINE
8
BLACK
6
CONTINUOUS
10
6.78471
20
-5.48194
11
6.77239
21
-5.48249
0
LINE
8
BLACK
6
CONTINUOUS
10
6.77239
20
-5.48249
11
6.76009
21
-5.48155
0
LINE
8
BLACK
6
CONTINUOUS
10
6.76009
20
-5.48155
11
6.74799
21
-5.47914
0
LINE
8
BLACK
6
CONTINUOUS
10
6.74799
20
-5.47914
11
6.73627
21
-5.4753
0
LINE
8
BLACK
6
CONTINUOUS
10
6.73627
20
-5.4753
11
6.72509
21
-5.47008
0
LINE
8
BLACK
6
CONTINUOUS
10
6.72509
20
-5.47008
11
6.71462
21
-5.46355
0
LINE
8
BLACK
6
CONTINUOUS
10
6.71462
20
-5.46355
11
6.70502
21
-5.45581
0
LINE
8
BLACK
6
CONTINUOUS
10
6.70502
20
-5.45581
11
6.69641
21
-5.44698
0
LINE
8
BLACK
6
CONTINUOUS
10
6.69641
20
-5.44698
11
6.68892
21
-5.43717
0
LINE
8
BLACK
6
CONTINUOUS
10
6.68892
20
-5.43717
11
6.68267
21
-5.42653
0
LINE
8
BLACK
6
CONTINUOUS
10
6.68267
20
-5.42653
11
6.67774
21
-5.41523
0
LINE
8
BLACK
6
CONTINUOUS
10
6.67774
20
-5.41523
11
6.67421
21
-5.40341
0
LINE
8
BLACK
6
CONTINUOUS
10
6.67421
20
-5.40341
11
6.67212
21
-5.39125
0
LINE
8
BLACK
6
CONTINUOUS
10
6.67212
20
-5.39125
11
6.67156
21
-5.38
0
LINE
8
BLACK
6
CONTINUOUS
10
6.67156
20
-5.38
11
6.67151
21
-5.37893
0
LINE
8
BLACK
6
CONTINUOUS
10
6.67151
20
-5.37893
11
6.67238
21
-5.36662
0
LINE
8
BLACK
6
CONTINUOUS
10
6.67938
20
-5.4043
11
6.68317
21
-5.41596
0
LINE
8
BLACK
6
CONTINUOUS
10
6.68317
20
-5.41596
11
6.68839
21
-5.42706
0
LINE
8
BLACK
6
CONTINUOUS
10
6.68839
20
-5.42706
11
6.69496
21
-5.43742
0
LINE
8
BLACK
6
CONTINUOUS
10
6.69496
20
-5.43742
11
6.70279
21
-5.44688
0
LINE
8
BLACK
6
CONTINUOUS
10
6.70279
20
-5.44688
11
6.71173
21
-5.45527
0
LINE
8
BLACK
6
CONTINUOUS
10
6.71173
20
-5.45527
11
6.72165
21
-5.46248
0
LINE
8
BLACK
6
CONTINUOUS
10
6.72165
20
-5.46248
11
6.7324
21
-5.4684
0
LINE
8
BLACK
6
CONTINUOUS
10
6.7324
20
-5.4684
11
6.74381
21
-5.47291
0
LINE
8
BLACK
6
CONTINUOUS
10
6.74381
20
-5.47291
11
6.75569
21
-5.47596
0
LINE
8
BLACK
6
CONTINUOUS
10
6.75569
20
-5.47596
11
6.76787
21
-5.4775
0
LINE
8
BLACK
6
CONTINUOUS
10
6.76787
20
-5.4775
11
6.78013
21
-5.4775
0
LINE
8
BLACK
6
CONTINUOUS
10
6.78013
20
-5.4775
11
6.79231
21
-5.47596
0
LINE
8
BLACK
6
CONTINUOUS
10
6.79231
20
-5.47596
11
6.80419
21
-5.47291
0
LINE
8
BLACK
6
CONTINUOUS
10
6.80419
20
-5.47291
11
6.8156
21
-5.4684
0
LINE
8
BLACK
6
CONTINUOUS
10
6.8156
20
-5.4684
11
6.82635
21
-5.46248
0
LINE
8
BLACK
6
CONTINUOUS
10
6.82635
20
-5.46248
11
6.83627
21
-5.45527
0
LINE
8
BLACK
6
CONTINUOUS
10
6.83627
20
-5.45527
11
6.84521
21
-5.44688
0
LINE
8
BLACK
6
CONTINUOUS
10
6.84521
20
-5.44688
11
6.85304
21
-5.43742
0
LINE
8
BLACK
6
CONTINUOUS
10
6.85304
20
-5.43742
11
6.85961
21
-5.42706
0
LINE
8
BLACK
6
CONTINUOUS
10
6.85961
20
-5.42706
11
6.86483
21
-5.41596
0
LINE
8
BLACK
6
CONTINUOUS
10
6.86483
20
-5.41596
11
6.86862
21
-5.4043
0
LINE
8
BLACK
6
CONTINUOUS
10
6.86862
20
-5.4043
11
6.87092
21
-5.39224
0
LINE
8
BLACK
6
CONTINUOUS
10
6.87092
20
-5.39224
11
6.87169
21
-5.38
0
LINE
8
BLACK
6
CONTINUOUS
10
6.87169
20
-5.38
11
6.87092
21
-5.36776
0
LINE
8
BLACK
6
CONTINUOUS
10
6.87092
20
-5.36776
11
6.86862
21
-5.3557
0
LINE
8
BLACK
6
CONTINUOUS
10
6.86862
20
-5.3557
11
6.86483
21
-5.34404
0
LINE
8
BLACK
6
CONTINUOUS
10
6.86483
20
-5.34404
11
6.85961
21
-5.33294
0
LINE
8
BLACK
6
CONTINUOUS
10
6.85961
20
-5.33294
11
6.85304
21
-5.32258
0
LINE
8
BLACK
6
CONTINUOUS
10
6.85304
20
-5.32258
11
6.84521
21
-5.31312
0
LINE
8
BLACK
6
CONTINUOUS
10
6.84521
20
-5.31312
11
6.83627
21
-5.30473
0
LINE
8
BLACK
6
CONTINUOUS
10
6.83627
20
-5.30473
11
6.82635
21
-5.29752
0
LINE
8
BLACK
6
CONTINUOUS
10
6.82635
20
-5.29752
11
6.8156
21
-5.2916
0
LINE
8
BLACK
6
CONTINUOUS
10
6.8156
20
-5.2916
11
6.80419
21
-5.28709
0
LINE
8
BLACK
6
CONTINUOUS
10
6.80419
20
-5.28709
11
6.79231
21
-5.28404
0
LINE
8
BLACK
6
CONTINUOUS
10
6.79231
20
-5.28404
11
6.78013
21
-5.2825
0
LINE
8
BLACK
6
CONTINUOUS
10
6.78013
20
-5.2825
11
6.76787
21
-5.2825
0
LINE
8
BLACK
6
CONTINUOUS
10
6.76787
20
-5.2825
11
6.75569
21
-5.28404
0
LINE
8
BLACK
6
CONTINUOUS
10
6.75569
20
-5.28404
11
6.74381
21
-5.28709
0
LINE
8
BLACK
6
CONTINUOUS
10
6.74381
20
-5.28709
11
6.7324
21
-5.2916
0
LINE
8
BLACK
6
CONTINUOUS
10
6.7324
20
-5.2916
11
6.72165
21
-5.29752
0
LINE
8
BLACK
6
CONTINUOUS
10
6.72165
20
-5.29752
11
6.71173
21
-5.30473
0
LINE
8
BLACK
6
CONTINUOUS
10
6.71173
20
-5.30473
11
6.70279
21
-5.31312
0
LINE
8
BLACK
6
CONTINUOUS
10
6.70279
20
-5.31312
11
6.69496
21
-5.32258
0
LINE
8
BLACK
6
CONTINUOUS
10
6.69496
20
-5.32258
11
6.68839
21
-5.33294
0
LINE
8
BLACK
6
CONTINUOUS
10
6.68839
20
-5.33294
11
6.68317
21
-5.34404
0
LINE
8
BLACK
6
CONTINUOUS
10
6.68317
20
-5.34404
11
6.67938
21
-5.3557
0
LINE
8
BLACK
6
CONTINUOUS
10
6.67938
20
-5.3557
11
6.67708
21
-5.36776
0
LINE
8
BLACK
6
CONTINUOUS
10
6.67708
20
-5.36776
11
6.67631
21
-5.38
0
LINE
8
BLACK
6
CONTINUOUS
10
6.67631
20
-5.38
11
6.67708
21
-5.39224
0
LINE
8
BLACK
6
CONTINUOUS
10
6.67708
20
-5.39224
11
6.67938
21
-5.4043
0
LINE
8
BLACK
6
CONTINUOUS
10
6.81706
20
-5.32429
11
6.81714
21
-5.32429
0
LINE
8
BLACK
6
CONTINUOUS
10
6.81714
20
-5.32429
11
6.81808
21
-5.32497
0
LINE
8
BLACK
6
CONTINUOUS
10
6.81808
20
-5.32497
11
6.81904
21
-5.32562
0
LINE
8
BLACK
6
CONTINUOUS
10
6.81904
20
-5.32562
11
6.81907
21
-5.32569
0
LINE
8
BLACK
6
CONTINUOUS
10
6.81907
20
-5.32569
11
6.81914
21
-5.32574
0
LINE
8
BLACK
6
CONTINUOUS
10
6.81914
20
-5.32574
11
6.8195
21
-5.32685
0
LINE
8
BLACK
6
CONTINUOUS
10
6.8195
20
-5.32685
11
6.8199
21
-5.32793
0
LINE
8
BLACK
6
CONTINUOUS
10
6.8199
20
-5.32793
11
6.81988
21
-5.32802
0
LINE
8
BLACK
6
CONTINUOUS
10
6.81988
20
-5.32802
11
6.8199
21
-5.3281
0
LINE
8
BLACK
6
CONTINUOUS
10
6.8199
20
-5.3281
11
6.8199
21
-5.3641
0
LINE
8
BLACK
6
CONTINUOUS
10
6.8199
20
-5.3641
11
6.82733
21
-5.3641
0
LINE
8
BLACK
6
CONTINUOUS
10
6.82733
20
-5.3641
11
6.82968
21
-5.36486
0
LINE
8
BLACK
6
CONTINUOUS
10
6.82968
20
-5.36486
11
6.83114
21
-5.36686
0
LINE
8
BLACK
6
CONTINUOUS
10
6.83114
20
-5.36686
11
6.83114
21
-5.36933
0
LINE
8
BLACK
6
CONTINUOUS
10
6.83114
20
-5.36933
11
6.82968
21
-5.37133
0
LINE
8
BLACK
6
CONTINUOUS
10
6.82968
20
-5.37133
11
6.82733
21
-5.3721
0
LINE
8
BLACK
6
CONTINUOUS
10
6.82733
20
-5.3721
11
6.80448
21
-5.3721
0
LINE
8
BLACK
6
CONTINUOUS
10
6.80448
20
-5.3721
11
6.80213
21
-5.37133
0
LINE
8
BLACK
6
CONTINUOUS
10
6.80213
20
-5.37133
11
6.80067
21
-5.36933
0
LINE
8
BLACK
6
CONTINUOUS
10
6.80067
20
-5.36933
11
6.80067
21
-5.36686
0
LINE
8
BLACK
6
CONTINUOUS
10
6.80067
20
-5.36686
11
6.80213
21
-5.36486
0
LINE
8
BLACK
6
CONTINUOUS
10
6.80213
20
-5.36486
11
6.80448
21
-5.3641
0
LINE
8
BLACK
6
CONTINUOUS
10
6.80448
20
-5.3641
11
6.8119
21
-5.3641
0
LINE
8
BLACK
6
CONTINUOUS
10
6.8119
20
-5.3641
11
6.8119
21
-5.33966
0
LINE
8
BLACK
6
CONTINUOUS
10
6.8119
20
-5.33966
11
6.81111
21
-5.34045
0
LINE
8
BLACK
6
CONTINUOUS
10
6.81111
20
-5.34045
11
6.81054
21
-5.34074
0
LINE
8
BLACK
6
CONTINUOUS
10
6.81054
20
-5.34074
11
6.81007
21
-5.3412
0
LINE
8
BLACK
6
CONTINUOUS
10
6.81007
20
-5.3412
11
6.80627
21
-5.3431
0
LINE
8
BLACK
6
CONTINUOUS
10
6.80627
20
-5.3431
11
6.80382
21
-5.34347
0
LINE
8
BLACK
6
CONTINUOUS
10
6.80382
20
-5.34347
11
6.80163
21
-5.34233
0
LINE
8
BLACK
6
CONTINUOUS
10
6.80163
20
-5.34233
11
6.80052
21
-5.34012
0
LINE
8
BLACK
6
CONTINUOUS
10
6.80052
20
-5.34012
11
6.80093
21
-5.33768
0
LINE
8
BLACK
6
CONTINUOUS
10
6.80093
20
-5.33768
11
6.80269
21
-5.33595
0
LINE
8
BLACK
6
CONTINUOUS
10
6.80269
20
-5.33595
11
6.80592
21
-5.33433
0
LINE
8
BLACK
6
CONTINUOUS
10
6.80592
20
-5.33433
11
6.80899
21
-5.33126
0
LINE
8
BLACK
6
CONTINUOUS
10
6.80899
20
-5.33126
11
6.81258
21
-5.32588
0
LINE
8
BLACK
6
CONTINUOUS
10
6.81258
20
-5.32588
11
6.81264
21
-5.32582
0
LINE
8
BLACK
6
CONTINUOUS
10
6.81264
20
-5.32582
11
6.81267
21
-5.32574
0
LINE
8
BLACK
6
CONTINUOUS
10
6.81267
20
-5.32574
11
6.81361
21
-5.32506
0
LINE
8
BLACK
6
CONTINUOUS
10
6.81361
20
-5.32506
11
6.81452
21
-5.32434
0
LINE
8
BLACK
6
CONTINUOUS
10
6.81452
20
-5.32434
11
6.8146
21
-5.32434
0
LINE
8
BLACK
6
CONTINUOUS
10
6.8146
20
-5.32434
11
6.81467
21
-5.32429
0
LINE
8
BLACK
6
CONTINUOUS
10
6.81467
20
-5.32429
11
6.81583
21
-5.32429
0
LINE
8
BLACK
6
CONTINUOUS
10
6.81583
20
-5.32429
11
6.81699
21
-5.32424
0
LINE
8
BLACK
6
CONTINUOUS
10
6.81699
20
-5.32424
11
6.81706
21
-5.32429
0
LINE
8
BLACK
6
CONTINUOUS
10
6.73843
20
-5.3243
11
6.73907
21
-5.3243
0
LINE
8
BLACK
6
CONTINUOUS
10
6.73907
20
-5.3243
11
6.74479
21
-5.32621
0
LINE
8
BLACK
6
CONTINUOUS
10
6.74479
20
-5.32621
11
6.74678
21
-5.32767
0
LINE
8
BLACK
6
CONTINUOUS
10
6.74678
20
-5.32767
11
6.74752
21
-5.33003
0
LINE
8
BLACK
6
CONTINUOUS
10
6.74752
20
-5.33003
11
6.74674
21
-5.33238
0
LINE
8
BLACK
6
CONTINUOUS
10
6.74674
20
-5.33238
11
6.74473
21
-5.33381
0
LINE
8
BLACK
6
CONTINUOUS
10
6.74473
20
-5.33381
11
6.74226
21
-5.33379
0
LINE
8
BLACK
6
CONTINUOUS
10
6.74226
20
-5.33379
11
6.73716
21
-5.3321
0
LINE
8
BLACK
6
CONTINUOUS
10
6.73716
20
-5.3321
11
6.72923
21
-5.3321
0
LINE
8
BLACK
6
CONTINUOUS
10
6.72923
20
-5.3321
11
6.72685
21
-5.33329
0
LINE
8
BLACK
6
CONTINUOUS
10
6.72685
20
-5.33329
11
6.72586
21
-5.33427
0
LINE
8
BLACK
6
CONTINUOUS
10
6.72586
20
-5.33427
11
6.72467
21
-5.33666
0
LINE
8
BLACK
6
CONTINUOUS
10
6.72467
20
-5.33666
11
6.72467
21
-5.33858
0
LINE
8
BLACK
6
CONTINUOUS
10
6.72467
20
-5.33858
11
6.72586
21
-5.34096
0
LINE
8
BLACK
6
CONTINUOUS
10
6.72586
20
-5.34096
11
6.72685
21
-5.34195
0
LINE
8
BLACK
6
CONTINUOUS
10
6.72685
20
-5.34195
11
6.72968
21
-5.34337
0
LINE
8
BLACK
6
CONTINUOUS
10
6.72968
20
-5.34337
11
6.73687
21
-5.34517
0
LINE
8
BLACK
6
CONTINUOUS
10
6.73687
20
-5.34517
11
6.73725
21
-5.3454
0
LINE
8
BLACK
6
CONTINUOUS
10
6.73725
20
-5.3454
11
6.73769
21
-5.34547
0
LINE
8
BLACK
6
CONTINUOUS
10
6.73769
20
-5.34547
11
6.7415
21
-5.34737
0
LINE
8
BLACK
6
CONTINUOUS
10
6.7415
20
-5.34737
11
6.74196
21
-5.34783
0
LINE
8
BLACK
6
CONTINUOUS
10
6.74196
20
-5.34783
11
6.74254
21
-5.34812
0
LINE
8
BLACK
6
CONTINUOUS
10
6.74254
20
-5.34812
11
6.74445
21
-5.35003
0
LINE
8
BLACK
6
CONTINUOUS
10
6.74445
20
-5.35003
11
6.74474
21
-5.35061
0
LINE
8
BLACK
6
CONTINUOUS
10
6.74474
20
-5.35061
11
6.7452
21
-5.35107
0
LINE
8
BLACK
6
CONTINUOUS
10
6.7452
20
-5.35107
11
6.7471
21
-5.35488
0
LINE
8
BLACK
6
CONTINUOUS
10
6.7471
20
-5.35488
11
6.74724
21
-5.35579
0
LINE
8
BLACK
6
CONTINUOUS
10
6.74724
20
-5.35579
11
6.74752
21
-5.35667
0
LINE
8
BLACK
6
CONTINUOUS
10
6.74752
20
-5.35667
11
6.74752
21
-5.36048
0
LINE
8
BLACK
6
CONTINUOUS
10
6.74752
20
-5.36048
11
6.74724
21
-5.36135
0
LINE
8
BLACK
6
CONTINUOUS
10
6.74724
20
-5.36135
11
6.7471
21
-5.36227
0
LINE
8
BLACK
6
CONTINUOUS
10
6.7471
20
-5.36227
11
6.7452
21
-5.36607
0
LINE
8
BLACK
6
CONTINUOUS
10
6.7452
20
-5.36607
11
6.74474
21
-5.36654
0
LINE
8
BLACK
6
CONTINUOUS
10
6.74474
20
-5.36654
11
6.74445
21
-5.36711
0
LINE
8
BLACK
6
CONTINUOUS
10
6.74445
20
-5.36711
11
6.74254
21
-5.36902
0
LINE
8
BLACK
6
CONTINUOUS
10
6.74254
20
-5.36902
11
6.74196
21
-5.36931
0
LINE
8
BLACK
6
CONTINUOUS
10
6.74196
20
-5.36931
11
6.7415
21
-5.36977
0
LINE
8
BLACK
6
CONTINUOUS
10
6.7415
20
-5.36977
11
6.73769
21
-5.37167
0
LINE
8
BLACK
6
CONTINUOUS
10
6.73769
20
-5.37167
11
6.73678
21
-5.37181
0
LINE
8
BLACK
6
CONTINUOUS
10
6.73678
20
-5.37181
11
6.7359
21
-5.3721
0
LINE
8
BLACK
6
CONTINUOUS
10
6.7359
20
-5.3721
11
6.72638
21
-5.3721
0
LINE
8
BLACK
6
CONTINUOUS
10
6.72638
20
-5.3721
11
6.72576
21
-5.37189
0
LINE
8
BLACK
6
CONTINUOUS
10
6.72576
20
-5.37189
11
6.72512
21
-5.37189
0
LINE
8
BLACK
6
CONTINUOUS
10
6.72512
20
-5.37189
11
6.7194
21
-5.36999
0
LINE
8
BLACK
6
CONTINUOUS
10
6.7194
20
-5.36999
11
6.71741
21
-5.36852
0
LINE
8
BLACK
6
CONTINUOUS
10
6.71741
20
-5.36852
11
6.71667
21
-5.36616
0
LINE
8
BLACK
6
CONTINUOUS
10
6.71667
20
-5.36616
11
6.71745
21
-5.36381
0
LINE
8
BLACK
6
CONTINUOUS
10
6.71745
20
-5.36381
11
6.71946
21
-5.36238
0
LINE
8
BLACK
6
CONTINUOUS
10
6.71946
20
-5.36238
11
6.72193
21
-5.3624
0
LINE
8
BLACK
6
CONTINUOUS
10
6.72193
20
-5.3624
11
6.72703
21
-5.3641
0
LINE
8
BLACK
6
CONTINUOUS
10
6.72703
20
-5.3641
11
6.73496
21
-5.3641
0
LINE
8
BLACK
6
CONTINUOUS
10
6.73496
20
-5.3641
11
6.73734
21
-5.3629
0
LINE
8
BLACK
6
CONTINUOUS
10
6.73734
20
-5.3629
11
6.73833
21
-5.36192
0
LINE
8
BLACK
6
CONTINUOUS
10
6.73833
20
-5.36192
11
6.73952
21
-5.35953
0
LINE
8
BLACK
6
CONTINUOUS
10
6.73952
20
-5.35953
11
6.73952
21
-5.35761
0
LINE
8
BLACK
6
CONTINUOUS
10
6.73952
20
-5.35761
11
6.73833
21
-5.35523
0
LINE
8
BLACK
6
CONTINUOUS
10
6.73833
20
-5.35523
11
6.73734
21
-5.35424
0
LINE
8
BLACK
6
CONTINUOUS
10
6.73734
20
-5.35424
11
6.73451
21
-5.35282
0
LINE
8
BLACK
6
CONTINUOUS
10
6.73451
20
-5.35282
11
6.72732
21
-5.35102
0
LINE
8
BLACK
6
CONTINUOUS
10
6.72732
20
-5.35102
11
6.72694
21
-5.35079
0
LINE
8
BLACK
6
CONTINUOUS
10
6.72694
20
-5.35079
11
6.7265
21
-5.35072
0
LINE
8
BLACK
6
CONTINUOUS
10
6.7265
20
-5.35072
11
6.72269
21
-5.34882
0
LINE
8
BLACK
6
CONTINUOUS
10
6.72269
20
-5.34882
11
6.72223
21
-5.34836
0
LINE
8
BLACK
6
CONTINUOUS
10
6.72223
20
-5.34836
11
6.72165
21
-5.34807
0
LINE
8
BLACK
6
CONTINUOUS
10
6.72165
20
-5.34807
11
6.71974
21
-5.34616
0
LINE
8
BLACK
6
CONTINUOUS
10
6.71974
20
-5.34616
11
6.71945
21
-5.34558
0
LINE
8
BLACK
6
CONTINUOUS
10
6.71945
20
-5.34558
11
6.71899
21
-5.34512
0
LINE
8
BLACK
6
CONTINUOUS
10
6.71899
20
-5.34512
11
6.71709
21
-5.34131
0
LINE
8
BLACK
6
CONTINUOUS
10
6.71709
20
-5.34131
11
6.71695
21
-5.3404
0
LINE
8
BLACK
6
CONTINUOUS
10
6.71695
20
-5.3404
11
6.71667
21
-5.33952
0
LINE
8
BLACK
6
CONTINUOUS
10
6.71667
20
-5.33952
11
6.71667
21
-5.33571
0
LINE
8
BLACK
6
CONTINUOUS
10
6.71667
20
-5.33571
11
6.71695
21
-5.33484
0
LINE
8
BLACK
6
CONTINUOUS
10
6.71695
20
-5.33484
11
6.71709
21
-5.33393
0
LINE
8
BLACK
6
CONTINUOUS
10
6.71709
20
-5.33393
11
6.71899
21
-5.33012
0
LINE
8
BLACK
6
CONTINUOUS
10
6.71899
20
-5.33012
11
6.71945
21
-5.32965
0
LINE
8
BLACK
6
CONTINUOUS
10
6.71945
20
-5.32965
11
6.71974
21
-5.32908
0
LINE
8
BLACK
6
CONTINUOUS
10
6.71974
20
-5.32908
11
6.72165
21
-5.32717
0
LINE
8
BLACK
6
CONTINUOUS
10
6.72165
20
-5.32717
11
6.72223
21
-5.32688
0
LINE
8
BLACK
6
CONTINUOUS
10
6.72223
20
-5.32688
11
6.72269
21
-5.32642
0
LINE
8
BLACK
6
CONTINUOUS
10
6.72269
20
-5.32642
11
6.7265
21
-5.32452
0
LINE
8
BLACK
6
CONTINUOUS
10
6.7265
20
-5.32452
11
6.72741
21
-5.32438
0
LINE
8
BLACK
6
CONTINUOUS
10
6.72741
20
-5.32438
11
6.72829
21
-5.3241
0
LINE
8
BLACK
6
CONTINUOUS
10
6.72829
20
-5.3241
11
6.73781
21
-5.3241
0
LINE
8
BLACK
6
CONTINUOUS
10
6.73781
20
-5.3241
11
6.73843
21
-5.3243
0
LINE
8
BLACK
6
CONTINUOUS
10
6.79323
20
-5.32468
11
6.79484
21
-5.32656
0
LINE
8
BLACK
6
CONTINUOUS
10
6.79484
20
-5.32656
11
6.79503
21
-5.32902
0
LINE
8
BLACK
6
CONTINUOUS
10
6.79503
20
-5.32902
11
6.78551
21
-5.36902
0
LINE
8
BLACK
6
CONTINUOUS
10
6.78551
20
-5.36902
11
6.78537
21
-5.36926
0
LINE
8
BLACK
6
CONTINUOUS
10
6.78537
20
-5.36926
11
6.78535
21
-5.36953
0
LINE
8
BLACK
6
CONTINUOUS
10
6.78535
20
-5.36953
11
6.78473
21
-5.37029
0
LINE
8
BLACK
6
CONTINUOUS
10
6.78473
20
-5.37029
11
6.78422
21
-5.37113
0
LINE
8
BLACK
6
CONTINUOUS
10
6.78422
20
-5.37113
11
6.78397
21
-5.37124
0
LINE
8
BLACK
6
CONTINUOUS
10
6.78397
20
-5.37124
11
6.78379
21
-5.37145
0
LINE
8
BLACK
6
CONTINUOUS
10
6.78379
20
-5.37145
11
6.78285
21
-5.37171
0
LINE
8
BLACK
6
CONTINUOUS
10
6.78285
20
-5.37171
11
6.78194
21
-5.37208
0
LINE
8
BLACK
6
CONTINUOUS
10
6.78194
20
-5.37208
11
6.78167
21
-5.37202
0
LINE
8
BLACK
6
CONTINUOUS
10
6.78167
20
-5.37202
11
6.7814
21
-5.37209
0
LINE
8
BLACK
6
CONTINUOUS
10
6.7814
20
-5.37209
11
6.78049
21
-5.37174
0
LINE
8
BLACK
6
CONTINUOUS
10
6.78049
20
-5.37174
11
6.77954
21
-5.37151
0
LINE
8
BLACK
6
CONTINUOUS
10
6.77954
20
-5.37151
11
6.77936
21
-5.3713
0
LINE
8
BLACK
6
CONTINUOUS
10
6.77936
20
-5.3713
11
6.7791
21
-5.3712
0
LINE
8
BLACK
6
CONTINUOUS
10
6.7791
20
-5.3712
11
6.77856
21
-5.37038
0
LINE
8
BLACK
6
CONTINUOUS
10
6.77856
20
-5.37038
11
6.77793
21
-5.36963
0
LINE
8
BLACK
6
CONTINUOUS
10
6.77793
20
-5.36963
11
6.7779
21
-5.36936
0
LINE
8
BLACK
6
CONTINUOUS
10
6.7779
20
-5.36936
11
6.77775
21
-5.36913
0
LINE
8
BLACK
6
CONTINUOUS
10
6.77775
20
-5.36913
11
6.774
21
-5.35505
0
LINE
8
BLACK
6
CONTINUOUS
10
6.774
20
-5.35505
11
6.77025
21
-5.36913
0
LINE
8
BLACK
6
CONTINUOUS
10
6.77025
20
-5.36913
11
6.7701
21
-5.36936
0
LINE
8
BLACK
6
CONTINUOUS
10
6.7701
20
-5.36936
11
6.77007
21
-5.36963
0
LINE
8
BLACK
6
CONTINUOUS
10
6.77007
20
-5.36963
11
6.76944
21
-5.37038
0
LINE
8
BLACK
6
CONTINUOUS
10
6.76944
20
-5.37038
11
6.7689
21
-5.3712
0
LINE
8
BLACK
6
CONTINUOUS
10
6.7689
20
-5.3712
11
6.76864
21
-5.3713
0
LINE
8
BLACK
6
CONTINUOUS
10
6.76864
20
-5.3713
11
6.76846
21
-5.37151
0
LINE
8
BLACK
6
CONTINUOUS
10
6.76846
20
-5.37151
11
6.76751
21
-5.37174
0
LINE
8
BLACK
6
CONTINUOUS
10
6.76751
20
-5.37174
11
6.7666
21
-5.37209
0
LINE
8
BLACK
6
CONTINUOUS
10
6.7666
20
-5.37209
11
6.76633
21
-5.37202
0
LINE
8
BLACK
6
CONTINUOUS
10
6.76633
20
-5.37202
11
6.76606
21
-5.37208
0
LINE
8
BLACK
6
CONTINUOUS
10
6.76606
20
-5.37208
11
6.76515
21
-5.37171
0
LINE
8
BLACK
6
CONTINUOUS
10
6.76515
20
-5.37171
11
6.76421
21
-5.37145
0
LINE
8
BLACK
6
CONTINUOUS
10
6.76421
20
-5.37145
11
6.76403
21
-5.37124
0
LINE
8
BLACK
6
CONTINUOUS
10
6.76403
20
-5.37124
11
6.76378
21
-5.37113
0
LINE
8
BLACK
6
CONTINUOUS
10
6.76378
20
-5.37113
11
6.76327
21
-5.37029
0
LINE
8
BLACK
6
CONTINUOUS
10
6.76327
20
-5.37029
11
6.76265
21
-5.36953
0
LINE
8
BLACK
6
CONTINUOUS
10
6.76265
20
-5.36953
11
6.76263
21
-5.36926
0
LINE
8
BLACK
6
CONTINUOUS
10
6.76263
20
-5.36926
11
6.76249
21
-5.36902
0
LINE
8
BLACK
6
CONTINUOUS
10
6.76249
20
-5.36902
11
6.75297
21
-5.32902
0
LINE
8
BLACK
6
CONTINUOUS
10
6.75297
20
-5.32902
11
6.75316
21
-5.32656
0
LINE
8
BLACK
6
CONTINUOUS
10
6.75316
20
-5.32656
11
6.75477
21
-5.32468
0
LINE
8
BLACK
6
CONTINUOUS
10
6.75477
20
-5.32468
11
6.75718
21
-5.32411
0
LINE
8
BLACK
6
CONTINUOUS
10
6.75718
20
-5.32411
11
6.75946
21
-5.32506
0
LINE
8
BLACK
6
CONTINUOUS
10
6.75946
20
-5.32506
11
6.76075
21
-5.32717
0
LINE
8
BLACK
6
CONTINUOUS
10
6.76075
20
-5.32717
11
6.7666
21
-5.35175
0
LINE
8
BLACK
6
CONTINUOUS
10
6.7666
20
-5.35175
11
6.77014
21
-5.33849
0
LINE
8
BLACK
6
CONTINUOUS
10
6.77014
20
-5.33849
11
6.77026
21
-5.33831
0
LINE
8
BLACK
6
CONTINUOUS
10
6.77026
20
-5.33831
11
6.77027
21
-5.33809
0
LINE
8
BLACK
6
CONTINUOUS
10
6.77027
20
-5.33809
11
6.77092
21
-5.33728
0
LINE
8
BLACK
6
CONTINUOUS
10
6.77092
20
-5.33728
11
6.77148
21
-5.33642
0
LINE
8
BLACK
6
CONTINUOUS
10
6.77148
20
-5.33642
11
6.77169
21
-5.33634
0
LINE
8
BLACK
6
CONTINUOUS
10
6.77169
20
-5.33634
11
6.77183
21
-5.33617
0
LINE
8
BLACK
6
CONTINUOUS
10
6.77183
20
-5.33617
11
6.77282
21
-5.3359
0
LINE
8
BLACK
6
CONTINUOUS
10
6.77282
20
-5.3359
11
6.77379
21
-5.33553
0
LINE
8
BLACK
6
CONTINUOUS
10
6.77379
20
-5.33553
11
6.774
21
-5.33559
0
LINE
8
BLACK
6
CONTINUOUS
10
6.774
20
-5.33559
11
6.77421
21
-5.33553
0
LINE
8
BLACK
6
CONTINUOUS
10
6.77421
20
-5.33553
11
6.77518
21
-5.3359
0
LINE
8
BLACK
6
CONTINUOUS
10
6.77518
20
-5.3359
11
6.77617
21
-5.33617
0
LINE
8
BLACK
6
CONTINUOUS
10
6.77617
20
-5.33617
11
6.77631
21
-5.33634
0
LINE
8
BLACK
6
CONTINUOUS
10
6.77631
20
-5.33634
11
6.77652
21
-5.33642
0
LINE
8
BLACK
6
CONTINUOUS
10
6.77652
20
-5.33642
11
6.77708
21
-5.33728
0
LINE
8
BLACK
6
CONTINUOUS
10
6.77708
20
-5.33728
11
6.77773
21
-5.33809
0
LINE
8
BLACK
6
CONTINUOUS
10
6.77773
20
-5.33809
11
6.77774
21
-5.33831
0
LINE
8
BLACK
6
CONTINUOUS
10
6.77774
20
-5.33831
11
6.77786
21
-5.33849
0
LINE
8
BLACK
6
CONTINUOUS
10
6.77786
20
-5.33849
11
6.7814
21
-5.35175
0
LINE
8
BLACK
6
CONTINUOUS
10
6.7814
20
-5.35175
11
6.78725
21
-5.32717
0
LINE
8
BLACK
6
CONTINUOUS
10
6.78725
20
-5.32717
11
6.78854
21
-5.32506
0
LINE
8
BLACK
6
CONTINUOUS
10
6.78854
20
-5.32506
11
6.79082
21
-5.32411
0
LINE
8
BLACK
6
CONTINUOUS
10
6.79082
20
-5.32411
11
6.79323
21
-5.32468
0
LINE
8
BLACK
6
CONTINUOUS
10
6.26792
20
-4.16047
11
6.27197
21
-4.14704
0
LINE
8
BLACK
6
CONTINUOUS
10
6.27197
20
-4.14704
11
6.2775
21
-4.13415
0
LINE
8
BLACK
6
CONTINUOUS
10
6.2775
20
-4.13415
11
6.28442
21
-4.12196
0
LINE
8
BLACK
6
CONTINUOUS
10
6.28442
20
-4.12196
11
6.29267
21
-4.11062
0
LINE
8
BLACK
6
CONTINUOUS
10
6.29267
20
-4.11062
11
6.30212
21
-4.10026
0
LINE
8
BLACK
6
CONTINUOUS
10
6.30212
20
-4.10026
11
6.31267
21
-4.09103
0
LINE
8
BLACK
6
CONTINUOUS
10
6.31267
20
-4.09103
11
6.32419
21
-4.08302
0
LINE
8
BLACK
6
CONTINUOUS
10
6.32419
20
-4.08302
11
6.33652
21
-4.07635
0
LINE
8
BLACK
6
CONTINUOUS
10
6.33652
20
-4.07635
11
6.34952
21
-4.0711
0
LINE
8
BLACK
6
CONTINUOUS
10
6.34952
20
-4.0711
11
6.36303
21
-4.06733
0
LINE
8
BLACK
6
CONTINUOUS
10
6.36303
20
-4.06733
11
6.37687
21
-4.06509
0
LINE
8
BLACK
6
CONTINUOUS
10
6.37687
20
-4.06509
11
6.39088
21
-4.0644
0
LINE
8
BLACK
6
CONTINUOUS
10
6.39088
20
-4.0644
11
6.40487
21
-4.06528
0
LINE
8
BLACK
6
CONTINUOUS
10
6.40487
20
-4.06528
11
6.41868
21
-4.06772
0
LINE
8
BLACK
6
CONTINUOUS
10
6.41868
20
-4.06772
11
6.43213
21
-4.07168
0
LINE
8
BLACK
6
CONTINUOUS
10
6.43213
20
-4.07168
11
6.44506
21
-4.07711
0
LINE
8
BLACK
6
CONTINUOUS
10
6.44506
20
-4.07711
11
6.4573
21
-4.08395
0
LINE
8
BLACK
6
CONTINUOUS
10
6.4573
20
-4.08395
11
6.4687
21
-4.09212
0
LINE
8
BLACK
6
CONTINUOUS
10
6.4687
20
-4.09212
11
6.47912
21
-4.1015
0
LINE
8
BLACK
6
CONTINUOUS
10
6.47912
20
-4.1015
11
6.48843
21
-4.11198
0
LINE
8
BLACK
6
CONTINUOUS
10
6.48843
20
-4.11198
11
6.49651
21
-4.12344
0
LINE
8
BLACK
6
CONTINUOUS
10
6.49651
20
-4.12344
11
6.50327
21
-4.13573
0
LINE
8
BLACK
6
CONTINUOUS
10
6.50327
20
-4.13573
11
6.50861
21
-4.14869
0
LINE
8
BLACK
6
CONTINUOUS
10
6.50861
20
-4.14869
11
6.51248
21
-4.16217
0
LINE
8
BLACK
6
CONTINUOUS
10
6.51248
20
-4.16217
11
6.51482
21
-4.176
0
LINE
8
BLACK
6
CONTINUOUS
10
6.51482
20
-4.176
11
6.5156
21
-4.19
0
LINE
8
BLACK
6
CONTINUOUS
10
6.5156
20
-4.19
11
6.51555
21
-4.19351
0
LINE
8
BLACK
6
CONTINUOUS
10
6.51555
20
-4.19351
11
6.51438
21
-4.20748
0
LINE
8
BLACK
6
CONTINUOUS
10
6.51438
20
-4.20748
11
6.51165
21
-4.22124
0
LINE
8
BLACK
6
CONTINUOUS
10
6.51165
20
-4.22124
11
6.50741
21
-4.2346
0
LINE
8
BLACK
6
CONTINUOUS
10
6.50741
20
-4.2346
11
6.50171
21
-4.24741
0
LINE
8
BLACK
6
CONTINUOUS
10
6.50171
20
-4.24741
11
6.49461
21
-4.25951
0
LINE
8
BLACK
6
CONTINUOUS
10
6.49461
20
-4.25951
11
6.48622
21
-4.27073
0
LINE
8
BLACK
6
CONTINUOUS
10
6.48622
20
-4.27073
11
6.47662
21
-4.28096
0
LINE
8
BLACK
6
CONTINUOUS
10
6.47662
20
-4.28096
11
6.46594
21
-4.29004
0
LINE
8
BLACK
6
CONTINUOUS
10
6.46594
20
-4.29004
11
6.45431
21
-4.29789
0
LINE
8
BLACK
6
CONTINUOUS
10
6.45431
20
-4.29789
11
6.44189
21
-4.30438
0
LINE
8
BLACK
6
CONTINUOUS
10
6.44189
20
-4.30438
11
6.42881
21
-4.30945
0
LINE
8
BLACK
6
CONTINUOUS
10
6.42881
20
-4.30945
11
6.41526
21
-4.31303
0
LINE
8
BLACK
6
CONTINUOUS
10
6.41526
20
-4.31303
11
6.40138
21
-4.31508
0
LINE
8
BLACK
6
CONTINUOUS
10
6.40138
20
-4.31508
11
6.38737
21
-4.31557
0
LINE
8
BLACK
6
CONTINUOUS
10
6.38737
20
-4.31557
11
6.37339
21
-4.3145
0
LINE
8
BLACK
6
CONTINUOUS
10
6.37339
20
-4.3145
11
6.35961
21
-4.31187
0
LINE
8
BLACK
6
CONTINUOUS
10
6.35961
20
-4.31187
11
6.34622
21
-4.30772
0
LINE
8
BLACK
6
CONTINUOUS
10
6.34622
20
-4.30772
11
6.33337
21
-4.30211
0
LINE
8
BLACK
6
CONTINUOUS
10
6.33337
20
-4.30211
11
6.32123
21
-4.2951
0
LINE
8
BLACK
6
CONTINUOUS
10
6.32123
20
-4.2951
11
6.30994
21
-4.28678
0
LINE
8
BLACK
6
CONTINUOUS
10
6.30994
20
-4.28678
11
6.29965
21
-4.27725
0
LINE
8
BLACK
6
CONTINUOUS
10
6.29965
20
-4.27725
11
6.29049
21
-4.26663
0
LINE
8
BLACK
6
CONTINUOUS
10
6.29049
20
-4.26663
11
6.28257
21
-4.25506
0
LINE
8
BLACK
6
CONTINUOUS
10
6.28257
20
-4.25506
11
6.27598
21
-4.24268
0
LINE
8
BLACK
6
CONTINUOUS
10
6.27598
20
-4.24268
11
6.27082
21
-4.22965
0
LINE
8
BLACK
6
CONTINUOUS
10
6.27082
20
-4.22965
11
6.26714
21
-4.21611
0
LINE
8
BLACK
6
CONTINUOUS
10
6.26714
20
-4.21611
11
6.265
21
-4.20226
0
LINE
8
BLACK
6
CONTINUOUS
10
6.265
20
-4.20226
11
6.26441
21
-4.18825
0
LINE
8
BLACK
6
CONTINUOUS
10
6.26441
20
-4.18825
11
6.26453
21
-4.18652
0
LINE
8
BLACK
6
CONTINUOUS
10
6.26453
20
-4.18652
11
6.26539
21
-4.17426
0
LINE
8
BLACK
6
CONTINUOUS
10
6.26539
20
-4.17426
11
6.26792
21
-4.16047
0
LINE
8
BLACK
6
CONTINUOUS
10
6.2814
20
-4.2119
11
6.28463
21
-4.22424
0
LINE
8
BLACK
6
CONTINUOUS
10
6.28463
20
-4.22424
11
6.28927
21
-4.23612
0
LINE
8
BLACK
6
CONTINUOUS
10
6.28927
20
-4.23612
11
6.29524
21
-4.24739
0
LINE
8
BLACK
6
CONTINUOUS
10
6.29524
20
-4.24739
11
6.30246
21
-4.2579
0
LINE
8
BLACK
6
CONTINUOUS
10
6.30246
20
-4.2579
11
6.31085
21
-4.26751
0
LINE
8
BLACK
6
CONTINUOUS
10
6.31085
20
-4.26751
11
6.32028
21
-4.2761
0
LINE
8
BLACK
6
CONTINUOUS
10
6.32028
20
-4.2761
11
6.33064
21
-4.28354
0
LINE
8
BLACK
6
CONTINUOUS
10
6.33064
20
-4.28354
11
6.34178
21
-4.28974
0
LINE
8
BLACK
6
CONTINUOUS
10
6.34178
20
-4.28974
11
6.35357
21
-4.29463
0
LINE
8
BLACK
6
CONTINUOUS
10
6.35357
20
-4.29463
11
6.36583
21
-4.29812
0
LINE
8
BLACK
6
CONTINUOUS
10
6.36583
20
-4.29812
11
6.37842
21
-4.30018
0
LINE
8
BLACK
6
CONTINUOUS
10
6.37842
20
-4.30018
11
6.39116
21
-4.30078
0
LINE
8
BLACK
6
CONTINUOUS
10
6.39116
20
-4.30078
11
6.40389
21
-4.29991
0
LINE
8
BLACK
6
CONTINUOUS
10
6.40389
20
-4.29991
11
6.41643
21
-4.29759
0
LINE
8
BLACK
6
CONTINUOUS
10
6.41643
20
-4.29759
11
6.42862
21
-4.29384
0
LINE
8
BLACK
6
CONTINUOUS
10
6.42862
20
-4.29384
11
6.4403
21
-4.28871
0
LINE
8
BLACK
6
CONTINUOUS
10
6.4403
20
-4.28871
11
6.45131
21
-4.28228
0
LINE
8
BLACK
6
CONTINUOUS
10
6.45131
20
-4.28228
11
6.46151
21
-4.27462
0
LINE
8
BLACK
6
CONTINUOUS
10
6.46151
20
-4.27462
11
6.47076
21
-4.26584
0
LINE
8
BLACK
6
CONTINUOUS
10
6.47076
20
-4.26584
11
6.47894
21
-4.25605
0
LINE
8
BLACK
6
CONTINUOUS
10
6.47894
20
-4.25605
11
6.48594
21
-4.24539
0
LINE
8
BLACK
6
CONTINUOUS
10
6.48594
20
-4.24539
11
6.49168
21
-4.234
0
LINE
8
BLACK
6
CONTINUOUS
10
6.49168
20
-4.234
11
6.49606
21
-4.22202
0
LINE
8
BLACK
6
CONTINUOUS
10
6.49606
20
-4.22202
11
6.49904
21
-4.20962
0
LINE
8
BLACK
6
CONTINUOUS
10
6.49904
20
-4.20962
11
6.50057
21
-4.19696
0
LINE
8
BLACK
6
CONTINUOUS
10
6.50057
20
-4.19696
11
6.50079
21
-4.19
0
LINE
8
BLACK
6
CONTINUOUS
10
6.50079
20
-4.19
11
6.50005
21
-4.17727
0
LINE
8
BLACK
6
CONTINUOUS
10
6.50005
20
-4.17727
11
6.49786
21
-4.1647
0
LINE
8
BLACK
6
CONTINUOUS
10
6.49786
20
-4.1647
11
6.49424
21
-4.15247
0
LINE
8
BLACK
6
CONTINUOUS
10
6.49424
20
-4.15247
11
6.48923
21
-4.14074
0
LINE
8
BLACK
6
CONTINUOUS
10
6.48923
20
-4.14074
11
6.48291
21
-4.12966
0
LINE
8
BLACK
6
CONTINUOUS
10
6.48291
20
-4.12966
11
6.47536
21
-4.11938
0
LINE
8
BLACK
6
CONTINUOUS
10
6.47536
20
-4.11938
11
6.46668
21
-4.11004
0
LINE
8
BLACK
6
CONTINUOUS
10
6.46668
20
-4.11004
11
6.45698
21
-4.10175
0
LINE
8
BLACK
6
CONTINUOUS
10
6.45698
20
-4.10175
11
6.4464
21
-4.09464
0
LINE
8
BLACK
6
CONTINUOUS
10
6.4464
20
-4.09464
11
6.43506
21
-4.08879
0
LINE
8
BLACK
6
CONTINUOUS
10
6.43506
20
-4.08879
11
6.42313
21
-4.08428
0
LINE
8
BLACK
6
CONTINUOUS
10
6.42313
20
-4.08428
11
6.41076
21
-4.08117
0
LINE
8
BLACK
6
CONTINUOUS
10
6.41076
20
-4.08117
11
6.39811
21
-4.07951
0
LINE
8
BLACK
6
CONTINUOUS
10
6.39811
20
-4.07951
11
6.38536
21
-4.07931
0
LINE
8
BLACK
6
CONTINUOUS
10
6.38536
20
-4.07931
11
6.37267
21
-4.08058
0
LINE
8
BLACK
6
CONTINUOUS
10
6.37267
20
-4.08058
11
6.36021
21
-4.08329
0
LINE
8
BLACK
6
CONTINUOUS
10
6.36021
20
-4.08329
11
6.34814
21
-4.08743
0
LINE
8
BLACK
6
CONTINUOUS
10
6.34814
20
-4.08743
11
6.33663
21
-4.09292
0
LINE
8
BLACK
6
CONTINUOUS
10
6.33663
20
-4.09292
11
6.32582
21
-4.09969
0
LINE
8
BLACK
6
CONTINUOUS
10
6.32582
20
-4.09969
11
6.31587
21
-4.10767
0
LINE
8
BLACK
6
CONTINUOUS
10
6.31587
20
-4.10767
11
6.3069
21
-4.11673
0
LINE
8
BLACK
6
CONTINUOUS
10
6.3069
20
-4.11673
11
6.29903
21
-4.12677
0
LINE
8
BLACK
6
CONTINUOUS
10
6.29903
20
-4.12677
11
6.29236
21
-4.13765
0
LINE
8
BLACK
6
CONTINUOUS
10
6.29236
20
-4.13765
11
6.28699
21
-4.14922
0
LINE
8
BLACK
6
CONTINUOUS
10
6.28699
20
-4.14922
11
6.28299
21
-4.16133
0
LINE
8
BLACK
6
CONTINUOUS
10
6.28299
20
-4.16133
11
6.2804
21
-4.17382
0
LINE
8
BLACK
6
CONTINUOUS
10
6.2804
20
-4.17382
11
6.27927
21
-4.18652
0
LINE
8
BLACK
6
CONTINUOUS
10
6.27927
20
-4.18652
11
6.2796
21
-4.19927
0
LINE
8
BLACK
6
CONTINUOUS
10
6.2796
20
-4.19927
11
6.2814
21
-4.2119
0
LINE
8
BLACK
6
CONTINUOUS
10
8.26792
20
-4.16047
11
8.27197
21
-4.14704
0
LINE
8
BLACK
6
CONTINUOUS
10
8.27197
20
-4.14704
11
8.2775
21
-4.13415
0
LINE
8
BLACK
6
CONTINUOUS
10
8.2775
20
-4.13415
11
8.28442
21
-4.12196
0
LINE
8
BLACK
6
CONTINUOUS
10
8.28442
20
-4.12196
11
8.29267
21
-4.11062
0
LINE
8
BLACK
6
CONTINUOUS
10
8.29267
20
-4.11062
11
8.30212
21
-4.10026
0
LINE
8
BLACK
6
CONTINUOUS
10
8.30212
20
-4.10026
11
8.31267
21
-4.09103
0
LINE
8
BLACK
6
CONTINUOUS
10
8.31267
20
-4.09103
11
8.32419
21
-4.08302
0
LINE
8
BLACK
6
CONTINUOUS
10
8.32419
20
-4.08302
11
8.33652
21
-4.07635
0
LINE
8
BLACK
6
CONTINUOUS
10
8.33652
20
-4.07635
11
8.34952
21
-4.0711
0
LINE
8
BLACK
6
CONTINUOUS
10
8.34952
20
-4.0711
11
8.36303
21
-4.06733
0
LINE
8
BLACK
6
CONTINUOUS
10
8.36303
20
-4.06733
11
8.37687
21
-4.06509
0
LINE
8
BLACK
6
CONTINUOUS
10
8.37687
20
-4.06509
11
8.39088
21
-4.0644
0
LINE
8
BLACK
6
CONTINUOUS
10
8.39088
20
-4.0644
11
8.40487
21
-4.06528
0
LINE
8
BLACK
6
CONTINUOUS
10
8.40487
20
-4.06528
11
8.41868
21
-4.06772
0
LINE
8
BLACK
6
CONTINUOUS
10
8.41868
20
-4.06772
11
8.43213
21
-4.07168
0
LINE
8
BLACK
6
CONTINUOUS
10
8.43213
20
-4.07168
11
8.44506
21
-4.07711
0
LINE
8
BLACK
6
CONTINUOUS
10
8.44506
20
-4.07711
11
8.4573
21
-4.08395
0
LINE
8
BLACK
6
CONTINUOUS
10
8.4573
20
-4.08395
11
8.4687
21
-4.09212
0
LINE
8
BLACK
6
CONTINUOUS
10
8.4687
20
-4.09212
11
8.47912
21
-4.1015
0
LINE
8
BLACK
6
CONTINUOUS
10
8.47912
20
-4.1015
11
8.48843
21
-4.11198
0
LINE
8
BLACK
6
CONTINUOUS
10
8.48843
20
-4.11198
11
8.49651
21
-4.12344
0
LINE
8
BLACK
6
CONTINUOUS
10
8.49651
20
-4.12344
11
8.50327
21
-4.13573
0
LINE
8
BLACK
6
CONTINUOUS
10
8.50327
20
-4.13573
11
8.50861
21
-4.14869
0
LINE
8
BLACK
6
CONTINUOUS
10
8.50861
20
-4.14869
11
8.51248
21
-4.16217
0
LINE
8
BLACK
6
CONTINUOUS
10
8.51248
20
-4.16217
11
8.51482
21
-4.176
0
LINE
8
BLACK
6
CONTINUOUS
10
8.51482
20
-4.176
11
8.5156
21
-4.19
0
LINE
8
BLACK
6
CONTINUOUS
10
8.5156
20
-4.19
11
8.51555
21
-4.19351
0
LINE
8
BLACK
6
CONTINUOUS
10
8.51555
20
-4.19351
11
8.51438
21
-4.20748
0
LINE
8
BLACK
6
CONTINUOUS
10
8.51438
20
-4.20748
11
8.51165
21
-4.22124
0
LINE
8
BLACK
6
CONTINUOUS
10
8.51165
20
-4.22124
11
8.50741
21
-4.2346
0
LINE
8
BLACK
6
CONTINUOUS
10
8.50741
20
-4.2346
11
8.50171
21
-4.24741
0
LINE
8
BLACK
6
CONTINUOUS
10
8.50171
20
-4.24741
11
8.49461
21
-4.25951
0
LINE
8
BLACK
6
CONTINUOUS
10
8.49461
20
-4.25951
11
8.48622
21
-4.27073
0
LINE
8
BLACK
6
CONTINUOUS
10
8.48622
20
-4.27073
11
8.47662
21
-4.28096
0
LINE
8
BLACK
6
CONTINUOUS
10
8.47662
20
-4.28096
11
8.46594
21
-4.29004
0
LINE
8
BLACK
6
CONTINUOUS
10
8.46594
20
-4.29004
11
8.45431
21
-4.29789
0
LINE
8
BLACK
6
CONTINUOUS
10
8.45431
20
-4.29789
11
8.44189
21
-4.30438
0
LINE
8
BLACK
6
CONTINUOUS
10
8.44189
20
-4.30438
11
8.42881
21
-4.30945
0
LINE
8
BLACK
6
CONTINUOUS
10
8.42881
20
-4.30945
11
8.41526
21
-4.31303
0
LINE
8
BLACK
6
CONTINUOUS
10
8.41526
20
-4.31303
11
8.40138
21
-4.31508
0
LINE
8
BLACK
6
CONTINUOUS
10
8.40138
20
-4.31508
11
8.38737
21
-4.31557
0
LINE
8
BLACK
6
CONTINUOUS
10
8.38737
20
-4.31557
11
8.37339
21
-4.3145
0
LINE
8
BLACK
6
CONTINUOUS
10
8.37339
20
-4.3145
11
8.35961
21
-4.31187
0
LINE
8
BLACK
6
CONTINUOUS
10
8.35961
20
-4.31187
11
8.34622
21
-4.30772
0
LINE
8
BLACK
6
CONTINUOUS
10
8.34622
20
-4.30772
11
8.33337
21
-4.30211
0
LINE
8
BLACK
6
CONTINUOUS
10
8.33337
20
-4.30211
11
8.32123
21
-4.2951
0
LINE
8
BLACK
6
CONTINUOUS
10
8.32123
20
-4.2951
11
8.30994
21
-4.28678
0
LINE
8
BLACK
6
CONTINUOUS
10
8.30994
20
-4.28678
11
8.29965
21
-4.27725
0
LINE
8
BLACK
6
CONTINUOUS
10
8.29965
20
-4.27725
11
8.29049
21
-4.26663
0
LINE
8
BLACK
6
CONTINUOUS
10
8.29049
20
-4.26663
11
8.28257
21
-4.25506
0
LINE
8
BLACK
6
CONTINUOUS
10
8.28257
20
-4.25506
11
8.27598
21
-4.24268
0
LINE
8
BLACK
6
CONTINUOUS
10
8.27598
20
-4.24268
11
8.27082
21
-4.22965
0
LINE
8
BLACK
6
CONTINUOUS
10
8.27082
20
-4.22965
11
8.26714
21
-4.21611
0
LINE
8
BLACK
6
CONTINUOUS
10
8.26714
20
-4.21611
11
8.265
21
-4.20226
0
LINE
8
BLACK
6
CONTINUOUS
10
8.265
20
-4.20226
11
8.26441
21
-4.18825
0
LINE
8
BLACK
6
CONTINUOUS
10
8.26441
20
-4.18825
11
8.26453
21
-4.18652
0
LINE
8
BLACK
6
CONTINUOUS
10
8.26453
20
-4.18652
11
8.26539
21
-4.17426
0
LINE
8
BLACK
6
CONTINUOUS
10
8.26539
20
-4.17426
11
8.26792
21
-4.16047
0
LINE
8
BLACK
6
CONTINUOUS
10
8.2814
20
-4.2119
11
8.28463
21
-4.22424
0
LINE
8
BLACK
6
CONTINUOUS
10
8.28463
20
-4.22424
11
8.28927
21
-4.23612
0
LINE
8
BLACK
6
CONTINUOUS
10
8.28927
20
-4.23612
11
8.29524
21
-4.24739
0
LINE
8
BLACK
6
CONTINUOUS
10
8.29524
20
-4.24739
11
8.30246
21
-4.2579
0
LINE
8
BLACK
6
CONTINUOUS
10
8.30246
20
-4.2579
11
8.31085
21
-4.26751
0
LINE
8
BLACK
6
CONTINUOUS
10
8.31085
20
-4.26751
11
8.32028
21
-4.2761
0
LINE
8
BLACK
6
CONTINUOUS
10
8.32028
20
-4.2761
11
8.33064
21
-4.28354
0
LINE
8
BLACK
6
CONTINUOUS
10
8.33064
20
-4.28354
11
8.34178
21
-4.28974
0
LINE
8
BLACK
6
CONTINUOUS
10
8.34178
20
-4.28974
11
8.35357
21
-4.29463
0
LINE
8
BLACK
6
CONTINUOUS
10
8.35357
20
-4.29463
11
8.36583
21
-4.29812
0
LINE
8
BLACK
6
CONTINUOUS
10
8.36583
20
-4.29812
11
8.37842
21
-4.30018
0
LINE
8
BLACK
6
CONTINUOUS
10
8.37842
20
-4.30018
11
8.39116
21
-4.30078
0
LINE
8
BLACK
6
CONTINUOUS
10
8.39116
20
-4.30078
11
8.40389
21
-4.29991
0
LINE
8
BLACK
6
CONTINUOUS
10
8.40389
20
-4.29991
11
8.41643
21
-4.29759
0
LINE
8
BLACK
6
CONTINUOUS
10
8.41643
20
-4.29759
11
8.42862
21
-4.29384
0
LINE
8
BLACK
6
CONTINUOUS
10
8.42862
20
-4.29384
11
8.4403
21
-4.28871
0
LINE
8
BLACK
6
CONTINUOUS
10
8.4403
20
-4.28871
11
8.45131
21
-4.28228
0
LINE
8
BLACK
6
CONTINUOUS
10
8.45131
20
-4.28228
11
8.46151
21
-4.27462
0
LINE
8
BLACK
6
CONTINUOUS
10
8.46151
20
-4.27462
11
8.47076
21
-4.26584
0
LINE
8
BLACK
6
CONTINUOUS
10
8.47076
20
-4.26584
11
8.47894
21
-4.25605
0
LINE
8
BLACK
6
CONTINUOUS
10
8.47894
20
-4.25605
11
8.48594
21
-4.24539
0
LINE
8
BLACK
6
CONTINUOUS
10
8.48594
20
-4.24539
11
8.49168
21
-4.234
0
LINE
8
BLACK
6
CONTINUOUS
10
8.49168
20
-4.234
11
8.49606
21
-4.22202
0
LINE
8
BLACK
6
CONTINUOUS
10
8.49606
20
-4.22202
11
8.49904
21
-4.20962
0
LINE
8
BLACK
6
CONTINUOUS
10
8.49904
20
-4.20962
11
8.50057
21
-4.19696
0
LINE
8
BLACK
6
CONTINUOUS
10
8.50057
20
-4.19696
11
8.50079
21
-4.19
0
LINE
8
BLACK
6
CONTINUOUS
10
8.50079
20
-4.19
11
8.50005
21
-4.17727
0
LINE
8
BLACK
6
CONTINUOUS
10
8.50005
20
-4.17727
11
8.49786
21
-4.1647
0
LINE
8
BLACK
6
CONTINUOUS
10
8.49786
20
-4.1647
11
8.49424
21
-4.15247
0
LINE
8
BLACK
6
CONTINUOUS
10
8.49424
20
-4.15247
11
8.48923
21
-4.14074
0
LINE
8
BLACK
6
CONTINUOUS
10
8.48923
20
-4.14074
11
8.48291
21
-4.12966
0
LINE
8
BLACK
6
CONTINUOUS
10
8.48291
20
-4.12966
11
8.47536
21
-4.11938
0
LINE
8
BLACK
6
CONTINUOUS
10
8.47536
20
-4.11938
11
8.46668
21
-4.11004
0
LINE
8
BLACK
6
CONTINUOUS
10
8.46668
20
-4.11004
11
8.45698
21
-4.10175
0
LINE
8
BLACK
6
CONTINUOUS
10
8.45698
20
-4.10175
11
8.4464
21
-4.09464
0
LINE
8
BLACK
6
CONTINUOUS
10
8.4464
20
-4.09464
11
8.43506
21
-4.08879
0
LINE
8
BLACK
6
CONTINUOUS
10
8.43506
20
-4.08879
11
8.42313
21
-4.08428
0
LINE
8
BLACK
6
CONTINUOUS
10
8.42313
20
-4.08428
11
8.41076
21
-4.08117
0
LINE
8
BLACK
6
CONTINUOUS
10
8.41076
20
-4.08117
11
8.39811
21
-4.07951
0
LINE
8
BLACK
6
CONTINUOUS
10
8.39811
20
-4.07951
11
8.38536
21
-4.07931
0
LINE
8
BLACK
6
CONTINUOUS
10
8.38536
20
-4.07931
11
8.37267
21
-4.08058
0
LINE
8
BLACK
6
CONTINUOUS
10
8.37267
20
-4.08058
11
8.36021
21
-4.08329
0
LINE
8
BLACK
6
CONTINUOUS
10
8.36021
20
-4.08329
11
8.34814
21
-4.08743
0
LINE
8
BLACK
6
CONTINUOUS
10
8.34814
20
-4.08743
11
8.33663
21
-4.09292
0
LINE
8
BLACK
6
CONTINUOUS
10
8.33663
20
-4.09292
11
8.32582
21
-4.09969
0
LINE
8
BLACK
6
CONTINUOUS
10
8.32582
20
-4.09969
11
8.31587
21
-4.10767
0
LINE
8
BLACK
6
CONTINUOUS
10
8.31587
20
-4.10767
11
8.3069
21
-4.11673
0
LINE
8
BLACK
6
CONTINUOUS
10
8.3069
20
-4.11673
11
8.29903
21
-4.12677
0
LINE
8
BLACK
6
CONTINUOUS
10
8.29903
20
-4.12677
11
8.29236
21
-4.13765
0
LINE
8
BLACK
6
CONTINUOUS
10
8.29236
20
-4.13765
11
8.28699
21
-4.14922
0
LINE
8
BLACK
6
CONTINUOUS
10
8.28699
20
-4.14922
11
8.28299
21
-4.16133
0
LINE
8
BLACK
6
CONTINUOUS
10
8.28299
20
-4.16133
11
8.2804
21
-4.17382
0
LINE
8
BLACK
6
CONTINUOUS
10
8.2804
20
-4.17382
11
8.27927
21
-4.18652
0
LINE
8
BLACK
6
CONTINUOUS
10
8.27927
20
-4.18652
11
8.2796
21
-4.19927
0
LINE
8
BLACK
6
CONTINUOUS
10
8.2796
20
-4.19927
11
8.2814
21
-4.2119
  0
ENDSEC
  0
EOF
