  0
SECTION
  2
HEADER
  9
$ANGBASE
  50
0.0
  9
$ANGDIR
  70
1
  9
$MEASUREMENT
  70
0
  0
ENDSEC
  0
SECTION
  2
TABLES
  0
TABLE
  2
LTYPE
  70
4
  0
LTYPE
  5
40F
  2
CONTINUOUS
  70
0
  3
Solid line
  72
65
  73
0
  40
0.0
  0
LTYPE
  5
410
  2
DASHDOT
 70
0
  3
Dash Dot ____ _ ____ _
 72
65
 73
4
 40
2.0
 49
1.25
 49
-0.25
 49
0.25
 49
-0.25
  0
LTYPE
  5
411
  2
DASHED
 70
0
  3
Dashed __ __ __ __ __
 72
65
 73
2
 40
0.75
 49
0.5
 49
-0.25
  0
LTYPE
  5
43B
  2
DOTTED
 70
0
  3
Dotted .  .  .  .
 72
65
 73
2
 40
0.2
 49
0.0
 49
-0.2
  0
ENDTAB
  0
TABLE
  2
STYLE
  70
4
  0
STYLE
  2
KICAD
  70
0
  40
0
  41
1
  42
1
  50
0
  71
0
  3
isocp.shx
  0
STYLE
  2
KICADB
  70
0
  40
0
  41
1
  42
1
  50
0
  71
0
  3
isocp.shx
  0
STYLE
  2
KICADI
  70
0
  40
0
  41
1
  42
1
  50
15
  71
0
  3
isocp.shx
  0
STYLE
  2
KICADBI
  70
0
  40
0
  41
1
  42
1
  50
15
  71
0
  3
isocp.shx
  0
ENDTAB
  0
TABLE
  2
LAYER
  70
1
  0
LAYER
  2
BLACK
  70
0
  62
7
  6
CONTINUOUS
  0
ENDTAB
  0
ENDSEC
  0
SECTION
  2
ENTITIES
0
LINE
8
BLACK
6
CONTINUOUS
10
7.07106
20
-5.49166
11
7.07106
21
-5.49166
0
LINE
8
BLACK
6
CONTINUOUS
10
7.07106
20
-5.49166
11
7.07469
21
-5.49299
0
LINE
8
BLACK
6
CONTINUOUS
10
7.07469
20
-5.49299
11
7.08225
21
-5.49461
0
LINE
8
BLACK
6
CONTINUOUS
10
7.08225
20
-5.49461
11
7.08997
21
-5.49516
0
LINE
8
BLACK
6
CONTINUOUS
10
7.08997
20
-5.49516
11
7.09768
21
-5.49462
0
LINE
8
BLACK
6
CONTINUOUS
10
7.09768
20
-5.49462
11
7.10524
21
-5.49301
0
LINE
8
BLACK
6
CONTINUOUS
10
7.10524
20
-5.49301
11
7.10888
21
-5.49169
0
LINE
8
BLACK
6
CONTINUOUS
10
7.10888
20
-5.49169
11
7.10888
21
-5.49169
0
LINE
8
BLACK
6
CONTINUOUS
10
7.10888
20
-5.49169
11
7.11191
21
-5.49122
0
LINE
8
BLACK
6
CONTINUOUS
10
7.11191
20
-5.49122
11
7.1149
21
-5.49194
0
LINE
8
BLACK
6
CONTINUOUS
10
7.1149
20
-5.49194
11
7.11738
21
-5.49376
0
LINE
8
BLACK
6
CONTINUOUS
10
7.11738
20
-5.49376
11
7.11897
21
-5.49638
0
LINE
8
BLACK
6
CONTINUOUS
10
7.11897
20
-5.49638
11
7.11939
21
-5.49906
0
LINE
8
BLACK
6
CONTINUOUS
10
7.11939
20
-5.49906
11
7.11953
21
-5.49906
0
LINE
8
BLACK
6
CONTINUOUS
10
7.11953
20
-5.49906
11
7.11953
21
-5.54039
0
LINE
8
BLACK
6
CONTINUOUS
10
7.11953
20
-5.54039
11
7.06047
21
-5.54039
0
LINE
8
BLACK
6
CONTINUOUS
10
7.06047
20
-5.54039
11
7.06047
21
-5.49906
0
LINE
8
BLACK
6
CONTINUOUS
10
7.06047
20
-5.49906
11
7.06053
21
-5.49906
0
LINE
8
BLACK
6
CONTINUOUS
10
7.06053
20
-5.49906
11
7.06095
21
-5.49634
0
LINE
8
BLACK
6
CONTINUOUS
10
7.06095
20
-5.49634
11
7.06255
21
-5.49372
0
LINE
8
BLACK
6
CONTINUOUS
10
7.06255
20
-5.49372
11
7.06504
21
-5.49191
0
LINE
8
BLACK
6
CONTINUOUS
10
7.06504
20
-5.49191
11
7.06802
21
-5.49119
0
LINE
8
BLACK
6
CONTINUOUS
10
7.06802
20
-5.49119
11
7.07106
21
-5.49166
0
LINE
8
BLACK
6
CONTINUOUS
10
7.23106
20
-5.49166
11
7.23106
21
-5.49166
0
LINE
8
BLACK
6
CONTINUOUS
10
7.23106
20
-5.49166
11
7.23469
21
-5.49299
0
LINE
8
BLACK
6
CONTINUOUS
10
7.23469
20
-5.49299
11
7.24225
21
-5.49461
0
LINE
8
BLACK
6
CONTINUOUS
10
7.24225
20
-5.49461
11
7.24997
21
-5.49516
0
LINE
8
BLACK
6
CONTINUOUS
10
7.24997
20
-5.49516
11
7.25768
21
-5.49462
0
LINE
8
BLACK
6
CONTINUOUS
10
7.25768
20
-5.49462
11
7.26524
21
-5.49301
0
LINE
8
BLACK
6
CONTINUOUS
10
7.26524
20
-5.49301
11
7.26888
21
-5.49169
0
LINE
8
BLACK
6
CONTINUOUS
10
7.26888
20
-5.49169
11
7.26888
21
-5.49169
0
LINE
8
BLACK
6
CONTINUOUS
10
7.26888
20
-5.49169
11
7.27191
21
-5.49122
0
LINE
8
BLACK
6
CONTINUOUS
10
7.27191
20
-5.49122
11
7.2749
21
-5.49194
0
LINE
8
BLACK
6
CONTINUOUS
10
7.2749
20
-5.49194
11
7.27738
21
-5.49376
0
LINE
8
BLACK
6
CONTINUOUS
10
7.27738
20
-5.49376
11
7.27897
21
-5.49638
0
LINE
8
BLACK
6
CONTINUOUS
10
7.27897
20
-5.49638
11
7.27939
21
-5.49906
0
LINE
8
BLACK
6
CONTINUOUS
10
7.27939
20
-5.49906
11
7.27953
21
-5.49906
0
LINE
8
BLACK
6
CONTINUOUS
10
7.27953
20
-5.49906
11
7.27953
21
-5.54039
0
LINE
8
BLACK
6
CONTINUOUS
10
7.27953
20
-5.54039
11
7.22047
21
-5.54039
0
LINE
8
BLACK
6
CONTINUOUS
10
7.22047
20
-5.54039
11
7.22047
21
-5.49906
0
LINE
8
BLACK
6
CONTINUOUS
10
7.22047
20
-5.49906
11
7.22053
21
-5.49906
0
LINE
8
BLACK
6
CONTINUOUS
10
7.22053
20
-5.49906
11
7.22095
21
-5.49634
0
LINE
8
BLACK
6
CONTINUOUS
10
7.22095
20
-5.49634
11
7.22255
21
-5.49372
0
LINE
8
BLACK
6
CONTINUOUS
10
7.22255
20
-5.49372
11
7.22504
21
-5.49191
0
LINE
8
BLACK
6
CONTINUOUS
10
7.22504
20
-5.49191
11
7.22802
21
-5.49119
0
LINE
8
BLACK
6
CONTINUOUS
10
7.22802
20
-5.49119
11
7.23106
21
-5.49166
0
LINE
8
BLACK
6
CONTINUOUS
10
7.11953
20
-5.38094
11
7.11947
21
-5.38094
0
LINE
8
BLACK
6
CONTINUOUS
10
7.11947
20
-5.38094
11
7.11905
21
-5.38366
0
LINE
8
BLACK
6
CONTINUOUS
10
7.11905
20
-5.38366
11
7.11745
21
-5.38628
0
LINE
8
BLACK
6
CONTINUOUS
10
7.11745
20
-5.38628
11
7.11496
21
-5.38809
0
LINE
8
BLACK
6
CONTINUOUS
10
7.11496
20
-5.38809
11
7.11198
21
-5.38881
0
LINE
8
BLACK
6
CONTINUOUS
10
7.11198
20
-5.38881
11
7.10894
21
-5.38834
0
LINE
8
BLACK
6
CONTINUOUS
10
7.10894
20
-5.38834
11
7.10894
21
-5.38834
0
LINE
8
BLACK
6
CONTINUOUS
10
7.10894
20
-5.38834
11
7.10531
21
-5.38701
0
LINE
8
BLACK
6
CONTINUOUS
10
7.10531
20
-5.38701
11
7.09775
21
-5.38539
0
LINE
8
BLACK
6
CONTINUOUS
10
7.09775
20
-5.38539
11
7.09003
21
-5.38484
0
LINE
8
BLACK
6
CONTINUOUS
10
7.09003
20
-5.38484
11
7.08232
21
-5.38538
0
LINE
8
BLACK
6
CONTINUOUS
10
7.08232
20
-5.38538
11
7.07476
21
-5.38699
0
LINE
8
BLACK
6
CONTINUOUS
10
7.07476
20
-5.38699
11
7.07112
21
-5.38831
0
LINE
8
BLACK
6
CONTINUOUS
10
7.07112
20
-5.38831
11
7.07112
21
-5.38831
0
LINE
8
BLACK
6
CONTINUOUS
10
7.07112
20
-5.38831
11
7.06809
21
-5.38878
0
LINE
8
BLACK
6
CONTINUOUS
10
7.06809
20
-5.38878
11
7.0651
21
-5.38806
0
LINE
8
BLACK
6
CONTINUOUS
10
7.0651
20
-5.38806
11
7.06262
21
-5.38624
0
LINE
8
BLACK
6
CONTINUOUS
10
7.06262
20
-5.38624
11
7.06103
21
-5.38362
0
LINE
8
BLACK
6
CONTINUOUS
10
7.06103
20
-5.38362
11
7.06061
21
-5.38094
0
LINE
8
BLACK
6
CONTINUOUS
10
7.06061
20
-5.38094
11
7.06047
21
-5.38094
0
LINE
8
BLACK
6
CONTINUOUS
10
7.06047
20
-5.38094
11
7.06047
21
-5.33961
0
LINE
8
BLACK
6
CONTINUOUS
10
7.06047
20
-5.33961
11
7.11953
21
-5.33961
0
LINE
8
BLACK
6
CONTINUOUS
10
7.11953
20
-5.33961
11
7.11953
21
-5.38094
0
LINE
8
BLACK
6
CONTINUOUS
10
7.27953
20
-5.38094
11
7.27947
21
-5.38094
0
LINE
8
BLACK
6
CONTINUOUS
10
7.27947
20
-5.38094
11
7.27905
21
-5.38366
0
LINE
8
BLACK
6
CONTINUOUS
10
7.27905
20
-5.38366
11
7.27745
21
-5.38628
0
LINE
8
BLACK
6
CONTINUOUS
10
7.27745
20
-5.38628
11
7.27496
21
-5.38809
0
LINE
8
BLACK
6
CONTINUOUS
10
7.27496
20
-5.38809
11
7.27198
21
-5.38881
0
LINE
8
BLACK
6
CONTINUOUS
10
7.27198
20
-5.38881
11
7.26894
21
-5.38834
0
LINE
8
BLACK
6
CONTINUOUS
10
7.26894
20
-5.38834
11
7.26894
21
-5.38834
0
LINE
8
BLACK
6
CONTINUOUS
10
7.26894
20
-5.38834
11
7.26531
21
-5.38701
0
LINE
8
BLACK
6
CONTINUOUS
10
7.26531
20
-5.38701
11
7.25775
21
-5.38539
0
LINE
8
BLACK
6
CONTINUOUS
10
7.25775
20
-5.38539
11
7.25003
21
-5.38484
0
LINE
8
BLACK
6
CONTINUOUS
10
7.25003
20
-5.38484
11
7.24232
21
-5.38538
0
LINE
8
BLACK
6
CONTINUOUS
10
7.24232
20
-5.38538
11
7.23476
21
-5.38699
0
LINE
8
BLACK
6
CONTINUOUS
10
7.23476
20
-5.38699
11
7.23112
21
-5.38831
0
LINE
8
BLACK
6
CONTINUOUS
10
7.23112
20
-5.38831
11
7.23112
21
-5.38831
0
LINE
8
BLACK
6
CONTINUOUS
10
7.23112
20
-5.38831
11
7.22809
21
-5.38878
0
LINE
8
BLACK
6
CONTINUOUS
10
7.22809
20
-5.38878
11
7.2251
21
-5.38806
0
LINE
8
BLACK
6
CONTINUOUS
10
7.2251
20
-5.38806
11
7.22262
21
-5.38624
0
LINE
8
BLACK
6
CONTINUOUS
10
7.22262
20
-5.38624
11
7.22103
21
-5.38362
0
LINE
8
BLACK
6
CONTINUOUS
10
7.22103
20
-5.38362
11
7.22061
21
-5.38094
0
LINE
8
BLACK
6
CONTINUOUS
10
7.22061
20
-5.38094
11
7.22047
21
-5.38094
0
LINE
8
BLACK
6
CONTINUOUS
10
7.22047
20
-5.38094
11
7.22047
21
-5.33961
0
LINE
8
BLACK
6
CONTINUOUS
10
7.22047
20
-5.33961
11
7.27953
21
-5.33961
0
LINE
8
BLACK
6
CONTINUOUS
10
7.27953
20
-5.33961
11
7.27953
21
-5.38094
0
LINE
8
BLACK
6
CONTINUOUS
10
8.02247
20
-5.24797
11
8.02566
21
-5.2501
0
LINE
8
BLACK
6
CONTINUOUS
10
8.02566
20
-5.2501
11
8.02779
21
-5.25329
0
LINE
8
BLACK
6
CONTINUOUS
10
8.02779
20
-5.25329
11
8.02854
21
-5.25706
0
LINE
8
BLACK
6
CONTINUOUS
10
8.02854
20
-5.25706
11
8.02854
21
-5.27674
0
LINE
8
BLACK
6
CONTINUOUS
10
8.02854
20
-5.27674
11
8.02779
21
-5.28051
0
LINE
8
BLACK
6
CONTINUOUS
10
8.02779
20
-5.28051
11
8.02566
21
-5.2837
0
LINE
8
BLACK
6
CONTINUOUS
10
8.02566
20
-5.2837
11
8.02247
21
-5.28584
0
LINE
8
BLACK
6
CONTINUOUS
10
8.02247
20
-5.28584
11
8.0187
21
-5.28659
0
LINE
8
BLACK
6
CONTINUOUS
10
8.0187
20
-5.28659
11
7.9813
21
-5.28659
0
LINE
8
BLACK
6
CONTINUOUS
10
7.9813
20
-5.28659
11
7.97753
21
-5.28584
0
LINE
8
BLACK
6
CONTINUOUS
10
7.97753
20
-5.28584
11
7.97434
21
-5.2837
0
LINE
8
BLACK
6
CONTINUOUS
10
7.97434
20
-5.2837
11
7.97221
21
-5.28051
0
LINE
8
BLACK
6
CONTINUOUS
10
7.97221
20
-5.28051
11
7.97146
21
-5.27674
0
LINE
8
BLACK
6
CONTINUOUS
10
7.97146
20
-5.27674
11
7.97146
21
-5.25706
0
LINE
8
BLACK
6
CONTINUOUS
10
7.97146
20
-5.25706
11
7.97221
21
-5.25329
0
LINE
8
BLACK
6
CONTINUOUS
10
7.97221
20
-5.25329
11
7.97434
21
-5.2501
0
LINE
8
BLACK
6
CONTINUOUS
10
7.97434
20
-5.2501
11
7.97753
21
-5.24797
0
LINE
8
BLACK
6
CONTINUOUS
10
7.97753
20
-5.24797
11
7.9813
21
-5.24722
0
LINE
8
BLACK
6
CONTINUOUS
10
7.9813
20
-5.24722
11
8.0187
21
-5.24722
0
LINE
8
BLACK
6
CONTINUOUS
10
8.0187
20
-5.24722
11
8.02247
21
-5.24797
0
LINE
8
BLACK
6
CONTINUOUS
10
8.02247
20
-5.17316
11
8.02566
21
-5.1753
0
LINE
8
BLACK
6
CONTINUOUS
10
8.02566
20
-5.1753
11
8.02779
21
-5.17849
0
LINE
8
BLACK
6
CONTINUOUS
10
8.02779
20
-5.17849
11
8.02854
21
-5.18226
0
LINE
8
BLACK
6
CONTINUOUS
10
8.02854
20
-5.18226
11
8.02854
21
-5.20194
0
LINE
8
BLACK
6
CONTINUOUS
10
8.02854
20
-5.20194
11
8.02779
21
-5.20571
0
LINE
8
BLACK
6
CONTINUOUS
10
8.02779
20
-5.20571
11
8.02566
21
-5.2089
0
LINE
8
BLACK
6
CONTINUOUS
10
8.02566
20
-5.2089
11
8.02247
21
-5.21103
0
LINE
8
BLACK
6
CONTINUOUS
10
8.02247
20
-5.21103
11
8.0187
21
-5.21178
0
LINE
8
BLACK
6
CONTINUOUS
10
8.0187
20
-5.21178
11
7.9813
21
-5.21178
0
LINE
8
BLACK
6
CONTINUOUS
10
7.9813
20
-5.21178
11
7.97753
21
-5.21103
0
LINE
8
BLACK
6
CONTINUOUS
10
7.97753
20
-5.21103
11
7.97434
21
-5.2089
0
LINE
8
BLACK
6
CONTINUOUS
10
7.97434
20
-5.2089
11
7.97221
21
-5.20571
0
LINE
8
BLACK
6
CONTINUOUS
10
7.97221
20
-5.20571
11
7.97146
21
-5.20194
0
LINE
8
BLACK
6
CONTINUOUS
10
7.97146
20
-5.20194
11
7.97146
21
-5.18226
0
LINE
8
BLACK
6
CONTINUOUS
10
7.97146
20
-5.18226
11
7.97221
21
-5.17849
0
LINE
8
BLACK
6
CONTINUOUS
10
7.97221
20
-5.17849
11
7.97434
21
-5.1753
0
LINE
8
BLACK
6
CONTINUOUS
10
7.97434
20
-5.1753
11
7.97753
21
-5.17316
0
LINE
8
BLACK
6
CONTINUOUS
10
7.97753
20
-5.17316
11
7.9813
21
-5.17241
0
LINE
8
BLACK
6
CONTINUOUS
10
7.9813
20
-5.17241
11
8.0187
21
-5.17241
0
LINE
8
BLACK
6
CONTINUOUS
10
8.0187
20
-5.17241
11
8.02247
21
-5.17316
0
LINE
8
BLACK
6
CONTINUOUS
10
7.60068
20
-5.09319
11
7.60387
21
-5.09532
0
LINE
8
BLACK
6
CONTINUOUS
10
7.60387
20
-5.09532
11
7.606
21
-5.09852
0
LINE
8
BLACK
6
CONTINUOUS
10
7.606
20
-5.09852
11
7.60675
21
-5.10228
0
LINE
8
BLACK
6
CONTINUOUS
10
7.60675
20
-5.10228
11
7.60675
21
-5.13772
0
LINE
8
BLACK
6
CONTINUOUS
10
7.60675
20
-5.13772
11
7.606
21
-5.14148
0
LINE
8
BLACK
6
CONTINUOUS
10
7.606
20
-5.14148
11
7.60387
21
-5.14468
0
LINE
8
BLACK
6
CONTINUOUS
10
7.60387
20
-5.14468
11
7.60068
21
-5.14681
0
LINE
8
BLACK
6
CONTINUOUS
10
7.60068
20
-5.14681
11
7.59691
21
-5.14756
0
LINE
8
BLACK
6
CONTINUOUS
10
7.59691
20
-5.14756
11
7.57624
21
-5.14756
0
LINE
8
BLACK
6
CONTINUOUS
10
7.57624
20
-5.14756
11
7.57247
21
-5.14681
0
LINE
8
BLACK
6
CONTINUOUS
10
7.57247
20
-5.14681
11
7.56928
21
-5.14468
0
LINE
8
BLACK
6
CONTINUOUS
10
7.56928
20
-5.14468
11
7.56715
21
-5.14148
0
LINE
8
BLACK
6
CONTINUOUS
10
7.56715
20
-5.14148
11
7.5664
21
-5.13772
0
LINE
8
BLACK
6
CONTINUOUS
10
7.5664
20
-5.13772
11
7.5664
21
-5.10228
0
LINE
8
BLACK
6
CONTINUOUS
10
7.5664
20
-5.10228
11
7.56715
21
-5.09852
0
LINE
8
BLACK
6
CONTINUOUS
10
7.56715
20
-5.09852
11
7.56928
21
-5.09532
0
LINE
8
BLACK
6
CONTINUOUS
10
7.56928
20
-5.09532
11
7.57247
21
-5.09319
0
LINE
8
BLACK
6
CONTINUOUS
10
7.57247
20
-5.09319
11
7.57624
21
-5.09244
0
LINE
8
BLACK
6
CONTINUOUS
10
7.57624
20
-5.09244
11
7.59691
21
-5.09244
0
LINE
8
BLACK
6
CONTINUOUS
10
7.59691
20
-5.09244
11
7.60068
21
-5.09319
0
LINE
8
BLACK
6
CONTINUOUS
10
7.67253
20
-5.09319
11
7.67572
21
-5.09532
0
LINE
8
BLACK
6
CONTINUOUS
10
7.67572
20
-5.09532
11
7.67785
21
-5.09852
0
LINE
8
BLACK
6
CONTINUOUS
10
7.67785
20
-5.09852
11
7.6786
21
-5.10228
0
LINE
8
BLACK
6
CONTINUOUS
10
7.6786
20
-5.10228
11
7.6786
21
-5.13772
0
LINE
8
BLACK
6
CONTINUOUS
10
7.6786
20
-5.13772
11
7.67785
21
-5.14148
0
LINE
8
BLACK
6
CONTINUOUS
10
7.67785
20
-5.14148
11
7.67572
21
-5.14468
0
LINE
8
BLACK
6
CONTINUOUS
10
7.67572
20
-5.14468
11
7.67253
21
-5.14681
0
LINE
8
BLACK
6
CONTINUOUS
10
7.67253
20
-5.14681
11
7.66876
21
-5.14756
0
LINE
8
BLACK
6
CONTINUOUS
10
7.66876
20
-5.14756
11
7.64809
21
-5.14756
0
LINE
8
BLACK
6
CONTINUOUS
10
7.64809
20
-5.14756
11
7.64432
21
-5.14681
0
LINE
8
BLACK
6
CONTINUOUS
10
7.64432
20
-5.14681
11
7.64113
21
-5.14468
0
LINE
8
BLACK
6
CONTINUOUS
10
7.64113
20
-5.14468
11
7.639
21
-5.14148
0
LINE
8
BLACK
6
CONTINUOUS
10
7.639
20
-5.14148
11
7.63825
21
-5.13772
0
LINE
8
BLACK
6
CONTINUOUS
10
7.63825
20
-5.13772
11
7.63825
21
-5.10228
0
LINE
8
BLACK
6
CONTINUOUS
10
7.63825
20
-5.10228
11
7.639
21
-5.09852
0
LINE
8
BLACK
6
CONTINUOUS
10
7.639
20
-5.09852
11
7.64113
21
-5.09532
0
LINE
8
BLACK
6
CONTINUOUS
10
7.64113
20
-5.09532
11
7.64432
21
-5.09319
0
LINE
8
BLACK
6
CONTINUOUS
10
7.64432
20
-5.09319
11
7.64809
21
-5.09244
0
LINE
8
BLACK
6
CONTINUOUS
10
7.64809
20
-5.09244
11
7.66876
21
-5.09244
0
LINE
8
BLACK
6
CONTINUOUS
10
7.66876
20
-5.09244
11
7.67253
21
-5.09319
0
LINE
8
BLACK
6
CONTINUOUS
10
6.66361
20
-5.13231
11
6.60259
21
-5.13231
0
LINE
8
BLACK
6
CONTINUOUS
10
6.60259
20
-5.13231
11
6.60259
21
-5.10869
0
LINE
8
BLACK
6
CONTINUOUS
10
6.60259
20
-5.10869
11
6.66361
21
-5.10869
0
LINE
8
BLACK
6
CONTINUOUS
10
6.66361
20
-5.10869
11
6.66361
21
-5.13231
0
LINE
8
BLACK
6
CONTINUOUS
10
6.87621
20
-5.13231
11
6.81519
21
-5.13231
0
LINE
8
BLACK
6
CONTINUOUS
10
6.81519
20
-5.13231
11
6.81519
21
-5.10869
0
LINE
8
BLACK
6
CONTINUOUS
10
6.81519
20
-5.10869
11
6.87621
21
-5.10869
0
LINE
8
BLACK
6
CONTINUOUS
10
6.87621
20
-5.10869
11
6.87621
21
-5.13231
0
LINE
8
BLACK
6
CONTINUOUS
10
8.18696
20
-5.04065
11
8.19015
21
-5.04279
0
LINE
8
BLACK
6
CONTINUOUS
10
8.19015
20
-5.04279
11
8.20407
21
-5.05671
0
LINE
8
BLACK
6
CONTINUOUS
10
8.20407
20
-5.05671
11
8.20621
21
-5.0599
0
LINE
8
BLACK
6
CONTINUOUS
10
8.20621
20
-5.0599
11
8.20696
21
-5.06367
0
LINE
8
BLACK
6
CONTINUOUS
10
8.20696
20
-5.06367
11
8.20621
21
-5.06743
0
LINE
8
BLACK
6
CONTINUOUS
10
8.20621
20
-5.06743
11
8.20407
21
-5.07063
0
LINE
8
BLACK
6
CONTINUOUS
10
8.20407
20
-5.07063
11
8.17763
21
-5.09707
0
LINE
8
BLACK
6
CONTINUOUS
10
8.17763
20
-5.09707
11
8.17443
21
-5.09921
0
LINE
8
BLACK
6
CONTINUOUS
10
8.17443
20
-5.09921
11
8.17067
21
-5.09996
0
LINE
8
BLACK
6
CONTINUOUS
10
8.17067
20
-5.09996
11
8.1669
21
-5.09921
0
LINE
8
BLACK
6
CONTINUOUS
10
8.1669
20
-5.09921
11
8.16371
21
-5.09707
0
LINE
8
BLACK
6
CONTINUOUS
10
8.16371
20
-5.09707
11
8.14979
21
-5.08315
0
LINE
8
BLACK
6
CONTINUOUS
10
8.14979
20
-5.08315
11
8.14765
21
-5.07996
0
LINE
8
BLACK
6
CONTINUOUS
10
8.14765
20
-5.07996
11
8.1469
21
-5.07619
0
LINE
8
BLACK
6
CONTINUOUS
10
8.1469
20
-5.07619
11
8.14765
21
-5.07243
0
LINE
8
BLACK
6
CONTINUOUS
10
8.14765
20
-5.07243
11
8.14979
21
-5.06923
0
LINE
8
BLACK
6
CONTINUOUS
10
8.14979
20
-5.06923
11
8.17623
21
-5.04279
0
LINE
8
BLACK
6
CONTINUOUS
10
8.17623
20
-5.04279
11
8.17943
21
-5.04065
0
LINE
8
BLACK
6
CONTINUOUS
10
8.17943
20
-5.04065
11
8.18319
21
-5.0399
0
LINE
8
BLACK
6
CONTINUOUS
10
8.18319
20
-5.0399
11
8.18696
21
-5.04065
0
LINE
8
BLACK
6
CONTINUOUS
10
6.66361
20
-5.08231
11
6.60259
21
-5.08231
0
LINE
8
BLACK
6
CONTINUOUS
10
6.60259
20
-5.08231
11
6.60259
21
-5.05869
0
LINE
8
BLACK
6
CONTINUOUS
10
6.60259
20
-5.05869
11
6.66361
21
-5.05869
0
LINE
8
BLACK
6
CONTINUOUS
10
6.66361
20
-5.05869
11
6.66361
21
-5.08231
0
LINE
8
BLACK
6
CONTINUOUS
10
6.87621
20
-5.08231
11
6.81519
21
-5.08231
0
LINE
8
BLACK
6
CONTINUOUS
10
6.81519
20
-5.08231
11
6.81519
21
-5.05869
0
LINE
8
BLACK
6
CONTINUOUS
10
6.81519
20
-5.05869
11
6.87621
21
-5.05869
0
LINE
8
BLACK
6
CONTINUOUS
10
6.87621
20
-5.05869
11
6.87621
21
-5.08231
0
LINE
8
BLACK
6
CONTINUOUS
10
8.13407
20
-4.98776
11
8.13726
21
-4.98989
0
LINE
8
BLACK
6
CONTINUOUS
10
8.13726
20
-4.98989
11
8.15118
21
-5.00381
0
LINE
8
BLACK
6
CONTINUOUS
10
8.15118
20
-5.00381
11
8.15331
21
-5.00701
0
LINE
8
BLACK
6
CONTINUOUS
10
8.15331
20
-5.00701
11
8.15406
21
-5.01077
0
LINE
8
BLACK
6
CONTINUOUS
10
8.15406
20
-5.01077
11
8.15331
21
-5.01454
0
LINE
8
BLACK
6
CONTINUOUS
10
8.15331
20
-5.01454
11
8.15118
21
-5.01773
0
LINE
8
BLACK
6
CONTINUOUS
10
8.15118
20
-5.01773
11
8.12473
21
-5.04418
0
LINE
8
BLACK
6
CONTINUOUS
10
8.12473
20
-5.04418
11
8.12154
21
-5.04631
0
LINE
8
BLACK
6
CONTINUOUS
10
8.12154
20
-5.04631
11
8.11777
21
-5.04706
0
LINE
8
BLACK
6
CONTINUOUS
10
8.11777
20
-5.04706
11
8.11401
21
-5.04631
0
LINE
8
BLACK
6
CONTINUOUS
10
8.11401
20
-5.04631
11
8.11081
21
-5.04418
0
LINE
8
BLACK
6
CONTINUOUS
10
8.11081
20
-5.04418
11
8.09689
21
-5.03026
0
LINE
8
BLACK
6
CONTINUOUS
10
8.09689
20
-5.03026
11
8.09476
21
-5.02707
0
LINE
8
BLACK
6
CONTINUOUS
10
8.09476
20
-5.02707
11
8.09401
21
-5.0233
0
LINE
8
BLACK
6
CONTINUOUS
10
8.09401
20
-5.0233
11
8.09476
21
-5.01953
0
LINE
8
BLACK
6
CONTINUOUS
10
8.09476
20
-5.01953
11
8.09689
21
-5.01634
0
LINE
8
BLACK
6
CONTINUOUS
10
8.09689
20
-5.01634
11
8.12334
21
-4.98989
0
LINE
8
BLACK
6
CONTINUOUS
10
8.12334
20
-4.98989
11
8.12653
21
-4.98776
0
LINE
8
BLACK
6
CONTINUOUS
10
8.12653
20
-4.98776
11
8.1303
21
-4.98701
0
LINE
8
BLACK
6
CONTINUOUS
10
8.1303
20
-4.98701
11
8.13407
21
-4.98776
0
LINE
8
BLACK
6
CONTINUOUS
10
6.66361
20
-5.03231
11
6.60259
21
-5.03231
0
LINE
8
BLACK
6
CONTINUOUS
10
6.60259
20
-5.03231
11
6.60259
21
-5.00869
0
LINE
8
BLACK
6
CONTINUOUS
10
6.60259
20
-5.00869
11
6.66361
21
-5.00869
0
LINE
8
BLACK
6
CONTINUOUS
10
6.66361
20
-5.00869
11
6.66361
21
-5.03231
0
LINE
8
BLACK
6
CONTINUOUS
10
6.87621
20
-5.03231
11
6.81519
21
-5.03231
0
LINE
8
BLACK
6
CONTINUOUS
10
6.81519
20
-5.03231
11
6.81519
21
-5.00869
0
LINE
8
BLACK
6
CONTINUOUS
10
6.81519
20
-5.00869
11
6.87621
21
-5.00869
0
LINE
8
BLACK
6
CONTINUOUS
10
6.87621
20
-5.00869
11
6.87621
21
-5.03231
0
LINE
8
BLACK
6
CONTINUOUS
10
6.66361
20
-4.98231
11
6.60259
21
-4.98231
0
LINE
8
BLACK
6
CONTINUOUS
10
6.60259
20
-4.98231
11
6.60259
21
-4.95869
0
LINE
8
BLACK
6
CONTINUOUS
10
6.60259
20
-4.95869
11
6.66361
21
-4.95869
0
LINE
8
BLACK
6
CONTINUOUS
10
6.66361
20
-4.95869
11
6.66361
21
-4.98231
0
LINE
8
BLACK
6
CONTINUOUS
10
6.87621
20
-4.98231
11
6.81519
21
-4.98231
0
LINE
8
BLACK
6
CONTINUOUS
10
6.81519
20
-4.98231
11
6.81519
21
-4.95869
0
LINE
8
BLACK
6
CONTINUOUS
10
6.81519
20
-4.95869
11
6.87621
21
-4.95869
0
LINE
8
BLACK
6
CONTINUOUS
10
6.87621
20
-4.95869
11
6.87621
21
-4.98231
0
LINE
8
BLACK
6
CONTINUOUS
10
7.38049
20
-4.91369
11
7.38369
21
-4.91582
0
LINE
8
BLACK
6
CONTINUOUS
10
7.38369
20
-4.91582
11
7.39761
21
-4.92974
0
LINE
8
BLACK
6
CONTINUOUS
10
7.39761
20
-4.92974
11
7.39974
21
-4.93293
0
LINE
8
BLACK
6
CONTINUOUS
10
7.39974
20
-4.93293
11
7.40049
21
-4.9367
0
LINE
8
BLACK
6
CONTINUOUS
10
7.40049
20
-4.9367
11
7.39974
21
-4.94047
0
LINE
8
BLACK
6
CONTINUOUS
10
7.39974
20
-4.94047
11
7.39761
21
-4.94366
0
LINE
8
BLACK
6
CONTINUOUS
10
7.39761
20
-4.94366
11
7.37116
21
-4.97011
0
LINE
8
BLACK
6
CONTINUOUS
10
7.37116
20
-4.97011
11
7.36797
21
-4.97224
0
LINE
8
BLACK
6
CONTINUOUS
10
7.36797
20
-4.97224
11
7.3642
21
-4.97299
0
LINE
8
BLACK
6
CONTINUOUS
10
7.3642
20
-4.97299
11
7.36043
21
-4.97224
0
LINE
8
BLACK
6
CONTINUOUS
10
7.36043
20
-4.97224
11
7.35724
21
-4.97011
0
LINE
8
BLACK
6
CONTINUOUS
10
7.35724
20
-4.97011
11
7.34332
21
-4.95619
0
LINE
8
BLACK
6
CONTINUOUS
10
7.34332
20
-4.95619
11
7.34119
21
-4.95299
0
LINE
8
BLACK
6
CONTINUOUS
10
7.34119
20
-4.95299
11
7.34044
21
-4.94923
0
LINE
8
BLACK
6
CONTINUOUS
10
7.34044
20
-4.94923
11
7.34119
21
-4.94546
0
LINE
8
BLACK
6
CONTINUOUS
10
7.34119
20
-4.94546
11
7.34332
21
-4.94227
0
LINE
8
BLACK
6
CONTINUOUS
10
7.34332
20
-4.94227
11
7.36977
21
-4.91582
0
LINE
8
BLACK
6
CONTINUOUS
10
7.36977
20
-4.91582
11
7.37296
21
-4.91369
0
LINE
8
BLACK
6
CONTINUOUS
10
7.37296
20
-4.91369
11
7.37673
21
-4.91294
0
LINE
8
BLACK
6
CONTINUOUS
10
7.37673
20
-4.91294
11
7.38049
21
-4.91369
0
LINE
8
BLACK
6
CONTINUOUS
10
7.81213
20
-4.9118
11
7.81293
21
-4.91233
0
LINE
8
BLACK
6
CONTINUOUS
10
7.81293
20
-4.91233
11
7.81347
21
-4.91313
0
LINE
8
BLACK
6
CONTINUOUS
10
7.81347
20
-4.91313
11
7.81365
21
-4.91407
0
LINE
8
BLACK
6
CONTINUOUS
10
7.81365
20
-4.91407
11
7.81365
21
-4.9436
0
LINE
8
BLACK
6
CONTINUOUS
10
7.81365
20
-4.9436
11
7.81347
21
-4.94454
0
LINE
8
BLACK
6
CONTINUOUS
10
7.81347
20
-4.94454
11
7.81293
21
-4.94534
0
LINE
8
BLACK
6
CONTINUOUS
10
7.81293
20
-4.94534
11
7.81213
21
-4.94587
0
LINE
8
BLACK
6
CONTINUOUS
10
7.81213
20
-4.94587
11
7.81119
21
-4.94606
0
LINE
8
BLACK
6
CONTINUOUS
10
7.81119
20
-4.94606
11
7.80627
21
-4.94606
0
LINE
8
BLACK
6
CONTINUOUS
10
7.80627
20
-4.94606
11
7.80533
21
-4.94587
0
LINE
8
BLACK
6
CONTINUOUS
10
7.80533
20
-4.94587
11
7.80453
21
-4.94534
0
LINE
8
BLACK
6
CONTINUOUS
10
7.80453
20
-4.94534
11
7.804
21
-4.94454
0
LINE
8
BLACK
6
CONTINUOUS
10
7.804
20
-4.94454
11
7.80381
21
-4.9436
0
LINE
8
BLACK
6
CONTINUOUS
10
7.80381
20
-4.9436
11
7.80381
21
-4.91407
0
LINE
8
BLACK
6
CONTINUOUS
10
7.80381
20
-4.91407
11
7.804
21
-4.91313
0
LINE
8
BLACK
6
CONTINUOUS
10
7.804
20
-4.91313
11
7.80453
21
-4.91233
0
LINE
8
BLACK
6
CONTINUOUS
10
7.80453
20
-4.91233
11
7.80533
21
-4.9118
0
LINE
8
BLACK
6
CONTINUOUS
10
7.80533
20
-4.9118
11
7.80627
21
-4.91161
0
LINE
8
BLACK
6
CONTINUOUS
10
7.80627
20
-4.91161
11
7.81119
21
-4.91161
0
LINE
8
BLACK
6
CONTINUOUS
10
7.81119
20
-4.91161
11
7.81213
21
-4.9118
0
LINE
8
BLACK
6
CONTINUOUS
10
7.83182
20
-4.9118
11
7.83262
21
-4.91233
0
LINE
8
BLACK
6
CONTINUOUS
10
7.83262
20
-4.91233
11
7.83315
21
-4.91313
0
LINE
8
BLACK
6
CONTINUOUS
10
7.83315
20
-4.91313
11
7.83334
21
-4.91407
0
LINE
8
BLACK
6
CONTINUOUS
10
7.83334
20
-4.91407
11
7.83334
21
-4.9436
0
LINE
8
BLACK
6
CONTINUOUS
10
7.83334
20
-4.9436
11
7.83315
21
-4.94454
0
LINE
8
BLACK
6
CONTINUOUS
10
7.83315
20
-4.94454
11
7.83262
21
-4.94534
0
LINE
8
BLACK
6
CONTINUOUS
10
7.83262
20
-4.94534
11
7.83182
21
-4.94587
0
LINE
8
BLACK
6
CONTINUOUS
10
7.83182
20
-4.94587
11
7.83088
21
-4.94606
0
LINE
8
BLACK
6
CONTINUOUS
10
7.83088
20
-4.94606
11
7.82596
21
-4.94606
0
LINE
8
BLACK
6
CONTINUOUS
10
7.82596
20
-4.94606
11
7.82502
21
-4.94587
0
LINE
8
BLACK
6
CONTINUOUS
10
7.82502
20
-4.94587
11
7.82422
21
-4.94534
0
LINE
8
BLACK
6
CONTINUOUS
10
7.82422
20
-4.94534
11
7.82368
21
-4.94454
0
LINE
8
BLACK
6
CONTINUOUS
10
7.82368
20
-4.94454
11
7.8235
21
-4.9436
0
LINE
8
BLACK
6
CONTINUOUS
10
7.8235
20
-4.9436
11
7.8235
21
-4.91407
0
LINE
8
BLACK
6
CONTINUOUS
10
7.8235
20
-4.91407
11
7.82368
21
-4.91313
0
LINE
8
BLACK
6
CONTINUOUS
10
7.82368
20
-4.91313
11
7.82422
21
-4.91233
0
LINE
8
BLACK
6
CONTINUOUS
10
7.82422
20
-4.91233
11
7.82502
21
-4.9118
0
LINE
8
BLACK
6
CONTINUOUS
10
7.82502
20
-4.9118
11
7.82596
21
-4.91161
0
LINE
8
BLACK
6
CONTINUOUS
10
7.82596
20
-4.91161
11
7.83088
21
-4.91161
0
LINE
8
BLACK
6
CONTINUOUS
10
7.83088
20
-4.91161
11
7.83182
21
-4.9118
0
LINE
8
BLACK
6
CONTINUOUS
10
7.8515
20
-4.9118
11
7.8523
21
-4.91233
0
LINE
8
BLACK
6
CONTINUOUS
10
7.8523
20
-4.91233
11
7.85284
21
-4.91313
0
LINE
8
BLACK
6
CONTINUOUS
10
7.85284
20
-4.91313
11
7.85302
21
-4.91407
0
LINE
8
BLACK
6
CONTINUOUS
10
7.85302
20
-4.91407
11
7.85302
21
-4.9436
0
LINE
8
BLACK
6
CONTINUOUS
10
7.85302
20
-4.9436
11
7.85284
21
-4.94454
0
LINE
8
BLACK
6
CONTINUOUS
10
7.85284
20
-4.94454
11
7.8523
21
-4.94534
0
LINE
8
BLACK
6
CONTINUOUS
10
7.8523
20
-4.94534
11
7.8515
21
-4.94587
0
LINE
8
BLACK
6
CONTINUOUS
10
7.8515
20
-4.94587
11
7.85056
21
-4.94606
0
LINE
8
BLACK
6
CONTINUOUS
10
7.85056
20
-4.94606
11
7.84564
21
-4.94606
0
LINE
8
BLACK
6
CONTINUOUS
10
7.84564
20
-4.94606
11
7.8447
21
-4.94587
0
LINE
8
BLACK
6
CONTINUOUS
10
7.8447
20
-4.94587
11
7.8439
21
-4.94534
0
LINE
8
BLACK
6
CONTINUOUS
10
7.8439
20
-4.94534
11
7.84337
21
-4.94454
0
LINE
8
BLACK
6
CONTINUOUS
10
7.84337
20
-4.94454
11
7.84318
21
-4.9436
0
LINE
8
BLACK
6
CONTINUOUS
10
7.84318
20
-4.9436
11
7.84318
21
-4.91407
0
LINE
8
BLACK
6
CONTINUOUS
10
7.84318
20
-4.91407
11
7.84337
21
-4.91313
0
LINE
8
BLACK
6
CONTINUOUS
10
7.84337
20
-4.91313
11
7.8439
21
-4.91233
0
LINE
8
BLACK
6
CONTINUOUS
10
7.8439
20
-4.91233
11
7.8447
21
-4.9118
0
LINE
8
BLACK
6
CONTINUOUS
10
7.8447
20
-4.9118
11
7.84564
21
-4.91161
0
LINE
8
BLACK
6
CONTINUOUS
10
7.84564
20
-4.91161
11
7.85056
21
-4.91161
0
LINE
8
BLACK
6
CONTINUOUS
10
7.85056
20
-4.91161
11
7.8515
21
-4.9118
0
LINE
8
BLACK
6
CONTINUOUS
10
7.87119
20
-4.9118
11
7.87199
21
-4.91233
0
LINE
8
BLACK
6
CONTINUOUS
10
7.87199
20
-4.91233
11
7.87252
21
-4.91313
0
LINE
8
BLACK
6
CONTINUOUS
10
7.87252
20
-4.91313
11
7.87271
21
-4.91407
0
LINE
8
BLACK
6
CONTINUOUS
10
7.87271
20
-4.91407
11
7.87271
21
-4.9436
0
LINE
8
BLACK
6
CONTINUOUS
10
7.87271
20
-4.9436
11
7.87252
21
-4.94454
0
LINE
8
BLACK
6
CONTINUOUS
10
7.87252
20
-4.94454
11
7.87199
21
-4.94534
0
LINE
8
BLACK
6
CONTINUOUS
10
7.87199
20
-4.94534
11
7.87119
21
-4.94587
0
LINE
8
BLACK
6
CONTINUOUS
10
7.87119
20
-4.94587
11
7.87025
21
-4.94606
0
LINE
8
BLACK
6
CONTINUOUS
10
7.87025
20
-4.94606
11
7.86533
21
-4.94606
0
LINE
8
BLACK
6
CONTINUOUS
10
7.86533
20
-4.94606
11
7.86439
21
-4.94587
0
LINE
8
BLACK
6
CONTINUOUS
10
7.86439
20
-4.94587
11
7.86359
21
-4.94534
0
LINE
8
BLACK
6
CONTINUOUS
10
7.86359
20
-4.94534
11
7.86305
21
-4.94454
0
LINE
8
BLACK
6
CONTINUOUS
10
7.86305
20
-4.94454
11
7.86287
21
-4.9436
0
LINE
8
BLACK
6
CONTINUOUS
10
7.86287
20
-4.9436
11
7.86287
21
-4.91407
0
LINE
8
BLACK
6
CONTINUOUS
10
7.86287
20
-4.91407
11
7.86305
21
-4.91313
0
LINE
8
BLACK
6
CONTINUOUS
10
7.86305
20
-4.91313
11
7.86359
21
-4.91233
0
LINE
8
BLACK
6
CONTINUOUS
10
7.86359
20
-4.91233
11
7.86439
21
-4.9118
0
LINE
8
BLACK
6
CONTINUOUS
10
7.86439
20
-4.9118
11
7.86533
21
-4.91161
0
LINE
8
BLACK
6
CONTINUOUS
10
7.86533
20
-4.91161
11
7.87025
21
-4.91161
0
LINE
8
BLACK
6
CONTINUOUS
10
7.87025
20
-4.91161
11
7.87119
21
-4.9118
0
LINE
8
BLACK
6
CONTINUOUS
10
7.89087
20
-4.9118
11
7.89167
21
-4.91233
0
LINE
8
BLACK
6
CONTINUOUS
10
7.89167
20
-4.91233
11
7.89221
21
-4.91313
0
LINE
8
BLACK
6
CONTINUOUS
10
7.89221
20
-4.91313
11
7.89239
21
-4.91407
0
LINE
8
BLACK
6
CONTINUOUS
10
7.89239
20
-4.91407
11
7.89239
21
-4.9436
0
LINE
8
BLACK
6
CONTINUOUS
10
7.89239
20
-4.9436
11
7.89221
21
-4.94454
0
LINE
8
BLACK
6
CONTINUOUS
10
7.89221
20
-4.94454
11
7.89167
21
-4.94534
0
LINE
8
BLACK
6
CONTINUOUS
10
7.89167
20
-4.94534
11
7.89087
21
-4.94587
0
LINE
8
BLACK
6
CONTINUOUS
10
7.89087
20
-4.94587
11
7.88993
21
-4.94606
0
LINE
8
BLACK
6
CONTINUOUS
10
7.88993
20
-4.94606
11
7.88501
21
-4.94606
0
LINE
8
BLACK
6
CONTINUOUS
10
7.88501
20
-4.94606
11
7.88407
21
-4.94587
0
LINE
8
BLACK
6
CONTINUOUS
10
7.88407
20
-4.94587
11
7.88327
21
-4.94534
0
LINE
8
BLACK
6
CONTINUOUS
10
7.88327
20
-4.94534
11
7.88274
21
-4.94454
0
LINE
8
BLACK
6
CONTINUOUS
10
7.88274
20
-4.94454
11
7.88255
21
-4.9436
0
LINE
8
BLACK
6
CONTINUOUS
10
7.88255
20
-4.9436
11
7.88255
21
-4.91407
0
LINE
8
BLACK
6
CONTINUOUS
10
7.88255
20
-4.91407
11
7.88274
21
-4.91313
0
LINE
8
BLACK
6
CONTINUOUS
10
7.88274
20
-4.91313
11
7.88327
21
-4.91233
0
LINE
8
BLACK
6
CONTINUOUS
10
7.88327
20
-4.91233
11
7.88407
21
-4.9118
0
LINE
8
BLACK
6
CONTINUOUS
10
7.88407
20
-4.9118
11
7.88501
21
-4.91161
0
LINE
8
BLACK
6
CONTINUOUS
10
7.88501
20
-4.91161
11
7.88993
21
-4.91161
0
LINE
8
BLACK
6
CONTINUOUS
10
7.88993
20
-4.91161
11
7.89087
21
-4.9118
0
LINE
8
BLACK
6
CONTINUOUS
10
7.91056
20
-4.9118
11
7.91136
21
-4.91233
0
LINE
8
BLACK
6
CONTINUOUS
10
7.91136
20
-4.91233
11
7.91189
21
-4.91313
0
LINE
8
BLACK
6
CONTINUOUS
10
7.91189
20
-4.91313
11
7.91208
21
-4.91407
0
LINE
8
BLACK
6
CONTINUOUS
10
7.91208
20
-4.91407
11
7.91208
21
-4.9436
0
LINE
8
BLACK
6
CONTINUOUS
10
7.91208
20
-4.9436
11
7.91189
21
-4.94454
0
LINE
8
BLACK
6
CONTINUOUS
10
7.91189
20
-4.94454
11
7.91136
21
-4.94534
0
LINE
8
BLACK
6
CONTINUOUS
10
7.91136
20
-4.94534
11
7.91056
21
-4.94587
0
LINE
8
BLACK
6
CONTINUOUS
10
7.91056
20
-4.94587
11
7.90962
21
-4.94606
0
LINE
8
BLACK
6
CONTINUOUS
10
7.90962
20
-4.94606
11
7.9047
21
-4.94606
0
LINE
8
BLACK
6
CONTINUOUS
10
7.9047
20
-4.94606
11
7.90376
21
-4.94587
0
LINE
8
BLACK
6
CONTINUOUS
10
7.90376
20
-4.94587
11
7.90296
21
-4.94534
0
LINE
8
BLACK
6
CONTINUOUS
10
7.90296
20
-4.94534
11
7.90242
21
-4.94454
0
LINE
8
BLACK
6
CONTINUOUS
10
7.90242
20
-4.94454
11
7.90224
21
-4.9436
0
LINE
8
BLACK
6
CONTINUOUS
10
7.90224
20
-4.9436
11
7.90224
21
-4.91407
0
LINE
8
BLACK
6
CONTINUOUS
10
7.90224
20
-4.91407
11
7.90242
21
-4.91313
0
LINE
8
BLACK
6
CONTINUOUS
10
7.90242
20
-4.91313
11
7.90296
21
-4.91233
0
LINE
8
BLACK
6
CONTINUOUS
10
7.90296
20
-4.91233
11
7.90376
21
-4.9118
0
LINE
8
BLACK
6
CONTINUOUS
10
7.90376
20
-4.9118
11
7.9047
21
-4.91161
0
LINE
8
BLACK
6
CONTINUOUS
10
7.9047
20
-4.91161
11
7.90962
21
-4.91161
0
LINE
8
BLACK
6
CONTINUOUS
10
7.90962
20
-4.91161
11
7.91056
21
-4.9118
0
LINE
8
BLACK
6
CONTINUOUS
10
7.93024
20
-4.9118
11
7.93104
21
-4.91233
0
LINE
8
BLACK
6
CONTINUOUS
10
7.93104
20
-4.91233
11
7.93158
21
-4.91313
0
LINE
8
BLACK
6
CONTINUOUS
10
7.93158
20
-4.91313
11
7.93176
21
-4.91407
0
LINE
8
BLACK
6
CONTINUOUS
10
7.93176
20
-4.91407
11
7.93176
21
-4.9436
0
LINE
8
BLACK
6
CONTINUOUS
10
7.93176
20
-4.9436
11
7.93158
21
-4.94454
0
LINE
8
BLACK
6
CONTINUOUS
10
7.93158
20
-4.94454
11
7.93104
21
-4.94534
0
LINE
8
BLACK
6
CONTINUOUS
10
7.93104
20
-4.94534
11
7.93024
21
-4.94587
0
LINE
8
BLACK
6
CONTINUOUS
10
7.93024
20
-4.94587
11
7.9293
21
-4.94606
0
LINE
8
BLACK
6
CONTINUOUS
10
7.9293
20
-4.94606
11
7.92438
21
-4.94606
0
LINE
8
BLACK
6
CONTINUOUS
10
7.92438
20
-4.94606
11
7.92344
21
-4.94587
0
LINE
8
BLACK
6
CONTINUOUS
10
7.92344
20
-4.94587
11
7.92264
21
-4.94534
0
LINE
8
BLACK
6
CONTINUOUS
10
7.92264
20
-4.94534
11
7.92211
21
-4.94454
0
LINE
8
BLACK
6
CONTINUOUS
10
7.92211
20
-4.94454
11
7.92192
21
-4.9436
0
LINE
8
BLACK
6
CONTINUOUS
10
7.92192
20
-4.9436
11
7.92192
21
-4.91407
0
LINE
8
BLACK
6
CONTINUOUS
10
7.92192
20
-4.91407
11
7.92211
21
-4.91313
0
LINE
8
BLACK
6
CONTINUOUS
10
7.92211
20
-4.91313
11
7.92264
21
-4.91233
0
LINE
8
BLACK
6
CONTINUOUS
10
7.92264
20
-4.91233
11
7.92344
21
-4.9118
0
LINE
8
BLACK
6
CONTINUOUS
10
7.92344
20
-4.9118
11
7.92438
21
-4.91161
0
LINE
8
BLACK
6
CONTINUOUS
10
7.92438
20
-4.91161
11
7.9293
21
-4.91161
0
LINE
8
BLACK
6
CONTINUOUS
10
7.9293
20
-4.91161
11
7.93024
21
-4.9118
0
LINE
8
BLACK
6
CONTINUOUS
10
7.94993
20
-4.9118
11
7.95073
21
-4.91233
0
LINE
8
BLACK
6
CONTINUOUS
10
7.95073
20
-4.91233
11
7.95126
21
-4.91313
0
LINE
8
BLACK
6
CONTINUOUS
10
7.95126
20
-4.91313
11
7.95145
21
-4.91407
0
LINE
8
BLACK
6
CONTINUOUS
10
7.95145
20
-4.91407
11
7.95145
21
-4.9436
0
LINE
8
BLACK
6
CONTINUOUS
10
7.95145
20
-4.9436
11
7.95126
21
-4.94454
0
LINE
8
BLACK
6
CONTINUOUS
10
7.95126
20
-4.94454
11
7.95073
21
-4.94534
0
LINE
8
BLACK
6
CONTINUOUS
10
7.95073
20
-4.94534
11
7.94993
21
-4.94587
0
LINE
8
BLACK
6
CONTINUOUS
10
7.94993
20
-4.94587
11
7.94899
21
-4.94606
0
LINE
8
BLACK
6
CONTINUOUS
10
7.94899
20
-4.94606
11
7.94407
21
-4.94606
0
LINE
8
BLACK
6
CONTINUOUS
10
7.94407
20
-4.94606
11
7.94313
21
-4.94587
0
LINE
8
BLACK
6
CONTINUOUS
10
7.94313
20
-4.94587
11
7.94233
21
-4.94534
0
LINE
8
BLACK
6
CONTINUOUS
10
7.94233
20
-4.94534
11
7.94179
21
-4.94454
0
LINE
8
BLACK
6
CONTINUOUS
10
7.94179
20
-4.94454
11
7.94161
21
-4.9436
0
LINE
8
BLACK
6
CONTINUOUS
10
7.94161
20
-4.9436
11
7.94161
21
-4.91407
0
LINE
8
BLACK
6
CONTINUOUS
10
7.94161
20
-4.91407
11
7.94179
21
-4.91313
0
LINE
8
BLACK
6
CONTINUOUS
10
7.94179
20
-4.91313
11
7.94233
21
-4.91233
0
LINE
8
BLACK
6
CONTINUOUS
10
7.94233
20
-4.91233
11
7.94313
21
-4.9118
0
LINE
8
BLACK
6
CONTINUOUS
10
7.94313
20
-4.9118
11
7.94407
21
-4.91161
0
LINE
8
BLACK
6
CONTINUOUS
10
7.94407
20
-4.91161
11
7.94899
21
-4.91161
0
LINE
8
BLACK
6
CONTINUOUS
10
7.94899
20
-4.91161
11
7.94993
21
-4.9118
0
LINE
8
BLACK
6
CONTINUOUS
10
7.96961
20
-4.9118
11
7.97041
21
-4.91233
0
LINE
8
BLACK
6
CONTINUOUS
10
7.97041
20
-4.91233
11
7.97095
21
-4.91313
0
LINE
8
BLACK
6
CONTINUOUS
10
7.97095
20
-4.91313
11
7.97113
21
-4.91407
0
LINE
8
BLACK
6
CONTINUOUS
10
7.97113
20
-4.91407
11
7.97113
21
-4.9436
0
LINE
8
BLACK
6
CONTINUOUS
10
7.97113
20
-4.9436
11
7.97095
21
-4.94454
0
LINE
8
BLACK
6
CONTINUOUS
10
7.97095
20
-4.94454
11
7.97041
21
-4.94534
0
LINE
8
BLACK
6
CONTINUOUS
10
7.97041
20
-4.94534
11
7.96961
21
-4.94587
0
LINE
8
BLACK
6
CONTINUOUS
10
7.96961
20
-4.94587
11
7.96867
21
-4.94606
0
LINE
8
BLACK
6
CONTINUOUS
10
7.96867
20
-4.94606
11
7.96375
21
-4.94606
0
LINE
8
BLACK
6
CONTINUOUS
10
7.96375
20
-4.94606
11
7.96281
21
-4.94587
0
LINE
8
BLACK
6
CONTINUOUS
10
7.96281
20
-4.94587
11
7.96201
21
-4.94534
0
LINE
8
BLACK
6
CONTINUOUS
10
7.96201
20
-4.94534
11
7.96148
21
-4.94454
0
LINE
8
BLACK
6
CONTINUOUS
10
7.96148
20
-4.94454
11
7.96129
21
-4.9436
0
LINE
8
BLACK
6
CONTINUOUS
10
7.96129
20
-4.9436
11
7.96129
21
-4.91407
0
LINE
8
BLACK
6
CONTINUOUS
10
7.96129
20
-4.91407
11
7.96148
21
-4.91313
0
LINE
8
BLACK
6
CONTINUOUS
10
7.96148
20
-4.91313
11
7.96201
21
-4.91233
0
LINE
8
BLACK
6
CONTINUOUS
10
7.96201
20
-4.91233
11
7.96281
21
-4.9118
0
LINE
8
BLACK
6
CONTINUOUS
10
7.96281
20
-4.9118
11
7.96375
21
-4.91161
0
LINE
8
BLACK
6
CONTINUOUS
10
7.96375
20
-4.91161
11
7.96867
21
-4.91161
0
LINE
8
BLACK
6
CONTINUOUS
10
7.96867
20
-4.91161
11
7.96961
21
-4.9118
0
LINE
8
BLACK
6
CONTINUOUS
10
7.9893
20
-4.9118
11
7.9901
21
-4.91233
0
LINE
8
BLACK
6
CONTINUOUS
10
7.9901
20
-4.91233
11
7.99063
21
-4.91313
0
LINE
8
BLACK
6
CONTINUOUS
10
7.99063
20
-4.91313
11
7.99082
21
-4.91407
0
LINE
8
BLACK
6
CONTINUOUS
10
7.99082
20
-4.91407
11
7.99082
21
-4.9436
0
LINE
8
BLACK
6
CONTINUOUS
10
7.99082
20
-4.9436
11
7.99063
21
-4.94454
0
LINE
8
BLACK
6
CONTINUOUS
10
7.99063
20
-4.94454
11
7.9901
21
-4.94534
0
LINE
8
BLACK
6
CONTINUOUS
10
7.9901
20
-4.94534
11
7.9893
21
-4.94587
0
LINE
8
BLACK
6
CONTINUOUS
10
7.9893
20
-4.94587
11
7.98836
21
-4.94606
0
LINE
8
BLACK
6
CONTINUOUS
10
7.98836
20
-4.94606
11
7.98344
21
-4.94606
0
LINE
8
BLACK
6
CONTINUOUS
10
7.98344
20
-4.94606
11
7.9825
21
-4.94587
0
LINE
8
BLACK
6
CONTINUOUS
10
7.9825
20
-4.94587
11
7.9817
21
-4.94534
0
LINE
8
BLACK
6
CONTINUOUS
10
7.9817
20
-4.94534
11
7.98116
21
-4.94454
0
LINE
8
BLACK
6
CONTINUOUS
10
7.98116
20
-4.94454
11
7.98098
21
-4.9436
0
LINE
8
BLACK
6
CONTINUOUS
10
7.98098
20
-4.9436
11
7.98098
21
-4.91407
0
LINE
8
BLACK
6
CONTINUOUS
10
7.98098
20
-4.91407
11
7.98116
21
-4.91313
0
LINE
8
BLACK
6
CONTINUOUS
10
7.98116
20
-4.91313
11
7.9817
21
-4.91233
0
LINE
8
BLACK
6
CONTINUOUS
10
7.9817
20
-4.91233
11
7.9825
21
-4.9118
0
LINE
8
BLACK
6
CONTINUOUS
10
7.9825
20
-4.9118
11
7.98344
21
-4.91161
0
LINE
8
BLACK
6
CONTINUOUS
10
7.98344
20
-4.91161
11
7.98836
21
-4.91161
0
LINE
8
BLACK
6
CONTINUOUS
10
7.98836
20
-4.91161
11
7.9893
21
-4.9118
0
LINE
8
BLACK
6
CONTINUOUS
10
8.00898
20
-4.9118
11
8.00978
21
-4.91233
0
LINE
8
BLACK
6
CONTINUOUS
10
8.00978
20
-4.91233
11
8.01032
21
-4.91313
0
LINE
8
BLACK
6
CONTINUOUS
10
8.01032
20
-4.91313
11
8.0105
21
-4.91407
0
LINE
8
BLACK
6
CONTINUOUS
10
8.0105
20
-4.91407
11
8.0105
21
-4.9436
0
LINE
8
BLACK
6
CONTINUOUS
10
8.0105
20
-4.9436
11
8.01032
21
-4.94454
0
LINE
8
BLACK
6
CONTINUOUS
10
8.01032
20
-4.94454
11
8.00978
21
-4.94534
0
LINE
8
BLACK
6
CONTINUOUS
10
8.00978
20
-4.94534
11
8.00898
21
-4.94587
0
LINE
8
BLACK
6
CONTINUOUS
10
8.00898
20
-4.94587
11
8.00804
21
-4.94606
0
LINE
8
BLACK
6
CONTINUOUS
10
8.00804
20
-4.94606
11
8.00312
21
-4.94606
0
LINE
8
BLACK
6
CONTINUOUS
10
8.00312
20
-4.94606
11
8.00218
21
-4.94587
0
LINE
8
BLACK
6
CONTINUOUS
10
8.00218
20
-4.94587
11
8.00138
21
-4.94534
0
LINE
8
BLACK
6
CONTINUOUS
10
8.00138
20
-4.94534
11
8.00085
21
-4.94454
0
LINE
8
BLACK
6
CONTINUOUS
10
8.00085
20
-4.94454
11
8.00066
21
-4.9436
0
LINE
8
BLACK
6
CONTINUOUS
10
8.00066
20
-4.9436
11
8.00066
21
-4.91407
0
LINE
8
BLACK
6
CONTINUOUS
10
8.00066
20
-4.91407
11
8.00085
21
-4.91313
0
LINE
8
BLACK
6
CONTINUOUS
10
8.00085
20
-4.91313
11
8.00138
21
-4.91233
0
LINE
8
BLACK
6
CONTINUOUS
10
8.00138
20
-4.91233
11
8.00218
21
-4.9118
0
LINE
8
BLACK
6
CONTINUOUS
10
8.00218
20
-4.9118
11
8.00312
21
-4.91161
0
LINE
8
BLACK
6
CONTINUOUS
10
8.00312
20
-4.91161
11
8.00804
21
-4.91161
0
LINE
8
BLACK
6
CONTINUOUS
10
8.00804
20
-4.91161
11
8.00898
21
-4.9118
0
LINE
8
BLACK
6
CONTINUOUS
10
8.02867
20
-4.9118
11
8.02947
21
-4.91233
0
LINE
8
BLACK
6
CONTINUOUS
10
8.02947
20
-4.91233
11
8.03
21
-4.91313
0
LINE
8
BLACK
6
CONTINUOUS
10
8.03
20
-4.91313
11
8.03019
21
-4.91407
0
LINE
8
BLACK
6
CONTINUOUS
10
8.03019
20
-4.91407
11
8.03019
21
-4.9436
0
LINE
8
BLACK
6
CONTINUOUS
10
8.03019
20
-4.9436
11
8.03
21
-4.94454
0
LINE
8
BLACK
6
CONTINUOUS
10
8.03
20
-4.94454
11
8.02947
21
-4.94534
0
LINE
8
BLACK
6
CONTINUOUS
10
8.02947
20
-4.94534
11
8.02867
21
-4.94587
0
LINE
8
BLACK
6
CONTINUOUS
10
8.02867
20
-4.94587
11
8.02773
21
-4.94606
0
LINE
8
BLACK
6
CONTINUOUS
10
8.02773
20
-4.94606
11
8.02281
21
-4.94606
0
LINE
8
BLACK
6
CONTINUOUS
10
8.02281
20
-4.94606
11
8.02187
21
-4.94587
0
LINE
8
BLACK
6
CONTINUOUS
10
8.02187
20
-4.94587
11
8.02107
21
-4.94534
0
LINE
8
BLACK
6
CONTINUOUS
10
8.02107
20
-4.94534
11
8.02053
21
-4.94454
0
LINE
8
BLACK
6
CONTINUOUS
10
8.02053
20
-4.94454
11
8.02035
21
-4.9436
0
LINE
8
BLACK
6
CONTINUOUS
10
8.02035
20
-4.9436
11
8.02035
21
-4.91407
0
LINE
8
BLACK
6
CONTINUOUS
10
8.02035
20
-4.91407
11
8.02053
21
-4.91313
0
LINE
8
BLACK
6
CONTINUOUS
10
8.02053
20
-4.91313
11
8.02107
21
-4.91233
0
LINE
8
BLACK
6
CONTINUOUS
10
8.02107
20
-4.91233
11
8.02187
21
-4.9118
0
LINE
8
BLACK
6
CONTINUOUS
10
8.02187
20
-4.9118
11
8.02281
21
-4.91161
0
LINE
8
BLACK
6
CONTINUOUS
10
8.02281
20
-4.91161
11
8.02773
21
-4.91161
0
LINE
8
BLACK
6
CONTINUOUS
10
8.02773
20
-4.91161
11
8.02867
21
-4.9118
0
LINE
8
BLACK
6
CONTINUOUS
10
7.48163
20
-4.90364
11
7.44405
21
-4.94123
0
LINE
8
BLACK
6
CONTINUOUS
10
7.44405
20
-4.94123
11
7.39951
21
-4.89669
0
LINE
8
BLACK
6
CONTINUOUS
10
7.39951
20
-4.89669
11
7.43709
21
-4.8591
0
LINE
8
BLACK
6
CONTINUOUS
10
7.43709
20
-4.8591
11
7.48163
21
-4.90364
0
LINE
8
BLACK
6
CONTINUOUS
10
7.3276
20
-4.86079
11
7.33079
21
-4.86293
0
LINE
8
BLACK
6
CONTINUOUS
10
7.33079
20
-4.86293
11
7.34471
21
-4.87685
0
LINE
8
BLACK
6
CONTINUOUS
10
7.34471
20
-4.87685
11
7.34685
21
-4.88004
0
LINE
8
BLACK
6
CONTINUOUS
10
7.34685
20
-4.88004
11
7.3476
21
-4.88381
0
LINE
8
BLACK
6
CONTINUOUS
10
7.3476
20
-4.88381
11
7.34685
21
-4.88757
0
LINE
8
BLACK
6
CONTINUOUS
10
7.34685
20
-4.88757
11
7.34471
21
-4.89077
0
LINE
8
BLACK
6
CONTINUOUS
10
7.34471
20
-4.89077
11
7.31827
21
-4.91721
0
LINE
8
BLACK
6
CONTINUOUS
10
7.31827
20
-4.91721
11
7.31507
21
-4.91935
0
LINE
8
BLACK
6
CONTINUOUS
10
7.31507
20
-4.91935
11
7.31131
21
-4.9201
0
LINE
8
BLACK
6
CONTINUOUS
10
7.31131
20
-4.9201
11
7.30754
21
-4.91935
0
LINE
8
BLACK
6
CONTINUOUS
10
7.30754
20
-4.91935
11
7.30435
21
-4.91721
0
LINE
8
BLACK
6
CONTINUOUS
10
7.30435
20
-4.91721
11
7.29043
21
-4.90329
0
LINE
8
BLACK
6
CONTINUOUS
10
7.29043
20
-4.90329
11
7.28829
21
-4.9001
0
LINE
8
BLACK
6
CONTINUOUS
10
7.28829
20
-4.9001
11
7.28754
21
-4.89633
0
LINE
8
BLACK
6
CONTINUOUS
10
7.28754
20
-4.89633
11
7.28829
21
-4.89257
0
LINE
8
BLACK
6
CONTINUOUS
10
7.28829
20
-4.89257
11
7.29043
21
-4.88937
0
LINE
8
BLACK
6
CONTINUOUS
10
7.29043
20
-4.88937
11
7.31687
21
-4.86293
0
LINE
8
BLACK
6
CONTINUOUS
10
7.31687
20
-4.86293
11
7.32007
21
-4.86079
0
LINE
8
BLACK
6
CONTINUOUS
10
7.32007
20
-4.86079
11
7.32383
21
-4.86004
0
LINE
8
BLACK
6
CONTINUOUS
10
7.32383
20
-4.86004
11
7.3276
21
-4.86079
0
LINE
8
BLACK
6
CONTINUOUS
10
7.79737
20
-4.89703
11
7.79817
21
-4.89757
0
LINE
8
BLACK
6
CONTINUOUS
10
7.79817
20
-4.89757
11
7.7987
21
-4.89837
0
LINE
8
BLACK
6
CONTINUOUS
10
7.7987
20
-4.89837
11
7.79889
21
-4.89931
0
LINE
8
BLACK
6
CONTINUOUS
10
7.79889
20
-4.89931
11
7.79889
21
-4.90423
0
LINE
8
BLACK
6
CONTINUOUS
10
7.79889
20
-4.90423
11
7.7987
21
-4.90517
0
LINE
8
BLACK
6
CONTINUOUS
10
7.7987
20
-4.90517
11
7.79817
21
-4.90597
0
LINE
8
BLACK
6
CONTINUOUS
10
7.79817
20
-4.90597
11
7.79737
21
-4.9065
0
LINE
8
BLACK
6
CONTINUOUS
10
7.79737
20
-4.9065
11
7.79643
21
-4.90669
0
LINE
8
BLACK
6
CONTINUOUS
10
7.79643
20
-4.90669
11
7.7669
21
-4.90669
0
LINE
8
BLACK
6
CONTINUOUS
10
7.7669
20
-4.90669
11
7.76596
21
-4.9065
0
LINE
8
BLACK
6
CONTINUOUS
10
7.76596
20
-4.9065
11
7.76516
21
-4.90597
0
LINE
8
BLACK
6
CONTINUOUS
10
7.76516
20
-4.90597
11
7.76463
21
-4.90517
0
LINE
8
BLACK
6
CONTINUOUS
10
7.76463
20
-4.90517
11
7.76444
21
-4.90423
0
LINE
8
BLACK
6
CONTINUOUS
10
7.76444
20
-4.90423
11
7.76444
21
-4.89931
0
LINE
8
BLACK
6
CONTINUOUS
10
7.76444
20
-4.89931
11
7.76463
21
-4.89837
0
LINE
8
BLACK
6
CONTINUOUS
10
7.76463
20
-4.89837
11
7.76516
21
-4.89757
0
LINE
8
BLACK
6
CONTINUOUS
10
7.76516
20
-4.89757
11
7.76596
21
-4.89703
0
LINE
8
BLACK
6
CONTINUOUS
10
7.76596
20
-4.89703
11
7.7669
21
-4.89685
0
LINE
8
BLACK
6
CONTINUOUS
10
7.7669
20
-4.89685
11
7.79643
21
-4.89685
0
LINE
8
BLACK
6
CONTINUOUS
10
7.79643
20
-4.89685
11
7.79737
21
-4.89703
0
LINE
8
BLACK
6
CONTINUOUS
10
8.06804
20
-4.89703
11
8.06884
21
-4.89757
0
LINE
8
BLACK
6
CONTINUOUS
10
8.06884
20
-4.89757
11
8.06937
21
-4.89837
0
LINE
8
BLACK
6
CONTINUOUS
10
8.06937
20
-4.89837
11
8.06956
21
-4.89931
0
LINE
8
BLACK
6
CONTINUOUS
10
8.06956
20
-4.89931
11
8.06956
21
-4.90423
0
LINE
8
BLACK
6
CONTINUOUS
10
8.06956
20
-4.90423
11
8.06937
21
-4.90517
0
LINE
8
BLACK
6
CONTINUOUS
10
8.06937
20
-4.90517
11
8.06884
21
-4.90597
0
LINE
8
BLACK
6
CONTINUOUS
10
8.06884
20
-4.90597
11
8.06804
21
-4.9065
0
LINE
8
BLACK
6
CONTINUOUS
10
8.06804
20
-4.9065
11
8.0671
21
-4.90669
0
LINE
8
BLACK
6
CONTINUOUS
10
8.0671
20
-4.90669
11
8.03757
21
-4.90669
0
LINE
8
BLACK
6
CONTINUOUS
10
8.03757
20
-4.90669
11
8.03663
21
-4.9065
0
LINE
8
BLACK
6
CONTINUOUS
10
8.03663
20
-4.9065
11
8.03583
21
-4.90597
0
LINE
8
BLACK
6
CONTINUOUS
10
8.03583
20
-4.90597
11
8.0353
21
-4.90517
0
LINE
8
BLACK
6
CONTINUOUS
10
8.0353
20
-4.90517
11
8.03511
21
-4.90423
0
LINE
8
BLACK
6
CONTINUOUS
10
8.03511
20
-4.90423
11
8.03511
21
-4.89931
0
LINE
8
BLACK
6
CONTINUOUS
10
8.03511
20
-4.89931
11
8.0353
21
-4.89837
0
LINE
8
BLACK
6
CONTINUOUS
10
8.0353
20
-4.89837
11
8.03583
21
-4.89757
0
LINE
8
BLACK
6
CONTINUOUS
10
8.03583
20
-4.89757
11
8.03663
21
-4.89703
0
LINE
8
BLACK
6
CONTINUOUS
10
8.03663
20
-4.89703
11
8.03757
21
-4.89685
0
LINE
8
BLACK
6
CONTINUOUS
10
8.03757
20
-4.89685
11
8.0671
21
-4.89685
0
LINE
8
BLACK
6
CONTINUOUS
10
8.0671
20
-4.89685
11
8.06804
21
-4.89703
0
LINE
8
BLACK
6
CONTINUOUS
10
7.85049
20
-4.85468
11
7.85368
21
-4.85682
0
LINE
8
BLACK
6
CONTINUOUS
10
7.85368
20
-4.85682
11
7.85582
21
-4.86001
0
LINE
8
BLACK
6
CONTINUOUS
10
7.85582
20
-4.86001
11
7.85657
21
-4.86378
0
LINE
8
BLACK
6
CONTINUOUS
10
7.85657
20
-4.86378
11
7.85657
21
-4.88858
0
LINE
8
BLACK
6
CONTINUOUS
10
7.85657
20
-4.88858
11
7.85582
21
-4.89235
0
LINE
8
BLACK
6
CONTINUOUS
10
7.85582
20
-4.89235
11
7.85368
21
-4.89554
0
LINE
8
BLACK
6
CONTINUOUS
10
7.85368
20
-4.89554
11
7.85049
21
-4.89767
0
LINE
8
BLACK
6
CONTINUOUS
10
7.85049
20
-4.89767
11
7.84672
21
-4.89842
0
LINE
8
BLACK
6
CONTINUOUS
10
7.84672
20
-4.89842
11
7.82192
21
-4.89842
0
LINE
8
BLACK
6
CONTINUOUS
10
7.82192
20
-4.89842
11
7.81815
21
-4.89767
0
LINE
8
BLACK
6
CONTINUOUS
10
7.81815
20
-4.89767
11
7.81496
21
-4.89554
0
LINE
8
BLACK
6
CONTINUOUS
10
7.81496
20
-4.89554
11
7.81283
21
-4.89235
0
LINE
8
BLACK
6
CONTINUOUS
10
7.81283
20
-4.89235
11
7.81208
21
-4.88858
0
LINE
8
BLACK
6
CONTINUOUS
10
7.81208
20
-4.88858
11
7.81208
21
-4.86378
0
LINE
8
BLACK
6
CONTINUOUS
10
7.81208
20
-4.86378
11
7.81283
21
-4.86001
0
LINE
8
BLACK
6
CONTINUOUS
10
7.81283
20
-4.86001
11
7.81496
21
-4.85682
0
LINE
8
BLACK
6
CONTINUOUS
10
7.81496
20
-4.85682
11
7.81815
21
-4.85468
0
LINE
8
BLACK
6
CONTINUOUS
10
7.81815
20
-4.85468
11
7.82192
21
-4.85393
0
LINE
8
BLACK
6
CONTINUOUS
10
7.82192
20
-4.85393
11
7.84672
21
-4.85393
0
LINE
8
BLACK
6
CONTINUOUS
10
7.84672
20
-4.85393
11
7.85049
21
-4.85468
0
LINE
8
BLACK
6
CONTINUOUS
10
7.90561
20
-4.85468
11
7.9088
21
-4.85682
0
LINE
8
BLACK
6
CONTINUOUS
10
7.9088
20
-4.85682
11
7.91094
21
-4.86001
0
LINE
8
BLACK
6
CONTINUOUS
10
7.91094
20
-4.86001
11
7.91169
21
-4.86378
0
LINE
8
BLACK
6
CONTINUOUS
10
7.91169
20
-4.86378
11
7.91169
21
-4.88858
0
LINE
8
BLACK
6
CONTINUOUS
10
7.91169
20
-4.88858
11
7.91094
21
-4.89235
0
LINE
8
BLACK
6
CONTINUOUS
10
7.91094
20
-4.89235
11
7.9088
21
-4.89554
0
LINE
8
BLACK
6
CONTINUOUS
10
7.9088
20
-4.89554
11
7.90561
21
-4.89767
0
LINE
8
BLACK
6
CONTINUOUS
10
7.90561
20
-4.89767
11
7.90184
21
-4.89842
0
LINE
8
BLACK
6
CONTINUOUS
10
7.90184
20
-4.89842
11
7.87704
21
-4.89842
0
LINE
8
BLACK
6
CONTINUOUS
10
7.87704
20
-4.89842
11
7.87327
21
-4.89767
0
LINE
8
BLACK
6
CONTINUOUS
10
7.87327
20
-4.89767
11
7.87008
21
-4.89554
0
LINE
8
BLACK
6
CONTINUOUS
10
7.87008
20
-4.89554
11
7.86795
21
-4.89235
0
LINE
8
BLACK
6
CONTINUOUS
10
7.86795
20
-4.89235
11
7.8672
21
-4.88858
0
LINE
8
BLACK
6
CONTINUOUS
10
7.8672
20
-4.88858
11
7.8672
21
-4.86378
0
LINE
8
BLACK
6
CONTINUOUS
10
7.8672
20
-4.86378
11
7.86795
21
-4.86001
0
LINE
8
BLACK
6
CONTINUOUS
10
7.86795
20
-4.86001
11
7.87008
21
-4.85682
0
LINE
8
BLACK
6
CONTINUOUS
10
7.87008
20
-4.85682
11
7.87327
21
-4.85468
0
LINE
8
BLACK
6
CONTINUOUS
10
7.87327
20
-4.85468
11
7.87704
21
-4.85393
0
LINE
8
BLACK
6
CONTINUOUS
10
7.87704
20
-4.85393
11
7.90184
21
-4.85393
0
LINE
8
BLACK
6
CONTINUOUS
10
7.90184
20
-4.85393
11
7.90561
21
-4.85468
0
LINE
8
BLACK
6
CONTINUOUS
10
7.96073
20
-4.85468
11
7.96392
21
-4.85682
0
LINE
8
BLACK
6
CONTINUOUS
10
7.96392
20
-4.85682
11
7.96605
21
-4.86001
0
LINE
8
BLACK
6
CONTINUOUS
10
7.96605
20
-4.86001
11
7.9668
21
-4.86378
0
LINE
8
BLACK
6
CONTINUOUS
10
7.9668
20
-4.86378
11
7.9668
21
-4.88858
0
LINE
8
BLACK
6
CONTINUOUS
10
7.9668
20
-4.88858
11
7.96605
21
-4.89235
0
LINE
8
BLACK
6
CONTINUOUS
10
7.96605
20
-4.89235
11
7.96392
21
-4.89554
0
LINE
8
BLACK
6
CONTINUOUS
10
7.96392
20
-4.89554
11
7.96073
21
-4.89767
0
LINE
8
BLACK
6
CONTINUOUS
10
7.96073
20
-4.89767
11
7.95696
21
-4.89842
0
LINE
8
BLACK
6
CONTINUOUS
10
7.95696
20
-4.89842
11
7.93216
21
-4.89842
0
LINE
8
BLACK
6
CONTINUOUS
10
7.93216
20
-4.89842
11
7.92839
21
-4.89767
0
LINE
8
BLACK
6
CONTINUOUS
10
7.92839
20
-4.89767
11
7.9252
21
-4.89554
0
LINE
8
BLACK
6
CONTINUOUS
10
7.9252
20
-4.89554
11
7.92306
21
-4.89235
0
LINE
8
BLACK
6
CONTINUOUS
10
7.92306
20
-4.89235
11
7.92231
21
-4.88858
0
LINE
8
BLACK
6
CONTINUOUS
10
7.92231
20
-4.88858
11
7.92231
21
-4.86378
0
LINE
8
BLACK
6
CONTINUOUS
10
7.92231
20
-4.86378
11
7.92306
21
-4.86001
0
LINE
8
BLACK
6
CONTINUOUS
10
7.92306
20
-4.86001
11
7.9252
21
-4.85682
0
LINE
8
BLACK
6
CONTINUOUS
10
7.9252
20
-4.85682
11
7.92839
21
-4.85468
0
LINE
8
BLACK
6
CONTINUOUS
10
7.92839
20
-4.85468
11
7.93216
21
-4.85393
0
LINE
8
BLACK
6
CONTINUOUS
10
7.93216
20
-4.85393
11
7.95696
21
-4.85393
0
LINE
8
BLACK
6
CONTINUOUS
10
7.95696
20
-4.85393
11
7.96073
21
-4.85468
0
LINE
8
BLACK
6
CONTINUOUS
10
8.01585
20
-4.85468
11
8.01904
21
-4.85682
0
LINE
8
BLACK
6
CONTINUOUS
10
8.01904
20
-4.85682
11
8.02117
21
-4.86001
0
LINE
8
BLACK
6
CONTINUOUS
10
8.02117
20
-4.86001
11
8.02192
21
-4.86378
0
LINE
8
BLACK
6
CONTINUOUS
10
8.02192
20
-4.86378
11
8.02192
21
-4.88858
0
LINE
8
BLACK
6
CONTINUOUS
10
8.02192
20
-4.88858
11
8.02117
21
-4.89235
0
LINE
8
BLACK
6
CONTINUOUS
10
8.02117
20
-4.89235
11
8.01904
21
-4.89554
0
LINE
8
BLACK
6
CONTINUOUS
10
8.01904
20
-4.89554
11
8.01585
21
-4.89767
0
LINE
8
BLACK
6
CONTINUOUS
10
8.01585
20
-4.89767
11
8.01208
21
-4.89842
0
LINE
8
BLACK
6
CONTINUOUS
10
8.01208
20
-4.89842
11
7.98728
21
-4.89842
0
LINE
8
BLACK
6
CONTINUOUS
10
7.98728
20
-4.89842
11
7.98351
21
-4.89767
0
LINE
8
BLACK
6
CONTINUOUS
10
7.98351
20
-4.89767
11
7.98032
21
-4.89554
0
LINE
8
BLACK
6
CONTINUOUS
10
7.98032
20
-4.89554
11
7.97818
21
-4.89235
0
LINE
8
BLACK
6
CONTINUOUS
10
7.97818
20
-4.89235
11
7.97743
21
-4.88858
0
LINE
8
BLACK
6
CONTINUOUS
10
7.97743
20
-4.88858
11
7.97743
21
-4.86378
0
LINE
8
BLACK
6
CONTINUOUS
10
7.97743
20
-4.86378
11
7.97818
21
-4.86001
0
LINE
8
BLACK
6
CONTINUOUS
10
7.97818
20
-4.86001
11
7.98032
21
-4.85682
0
LINE
8
BLACK
6
CONTINUOUS
10
7.98032
20
-4.85682
11
7.98351
21
-4.85468
0
LINE
8
BLACK
6
CONTINUOUS
10
7.98351
20
-4.85468
11
7.98728
21
-4.85393
0
LINE
8
BLACK
6
CONTINUOUS
10
7.98728
20
-4.85393
11
8.01208
21
-4.85393
0
LINE
8
BLACK
6
CONTINUOUS
10
8.01208
20
-4.85393
11
8.01585
21
-4.85468
0
LINE
8
BLACK
6
CONTINUOUS
10
6.92568
20
-4.84319
11
6.92887
21
-4.84532
0
LINE
8
BLACK
6
CONTINUOUS
10
6.92887
20
-4.84532
11
6.931
21
-4.84852
0
LINE
8
BLACK
6
CONTINUOUS
10
6.931
20
-4.84852
11
6.93175
21
-4.85228
0
LINE
8
BLACK
6
CONTINUOUS
10
6.93175
20
-4.85228
11
6.93175
21
-4.88772
0
LINE
8
BLACK
6
CONTINUOUS
10
6.93175
20
-4.88772
11
6.931
21
-4.89148
0
LINE
8
BLACK
6
CONTINUOUS
10
6.931
20
-4.89148
11
6.92887
21
-4.89468
0
LINE
8
BLACK
6
CONTINUOUS
10
6.92887
20
-4.89468
11
6.92568
21
-4.89681
0
LINE
8
BLACK
6
CONTINUOUS
10
6.92568
20
-4.89681
11
6.92191
21
-4.89756
0
LINE
8
BLACK
6
CONTINUOUS
10
6.92191
20
-4.89756
11
6.90124
21
-4.89756
0
LINE
8
BLACK
6
CONTINUOUS
10
6.90124
20
-4.89756
11
6.89747
21
-4.89681
0
LINE
8
BLACK
6
CONTINUOUS
10
6.89747
20
-4.89681
11
6.89428
21
-4.89468
0
LINE
8
BLACK
6
CONTINUOUS
10
6.89428
20
-4.89468
11
6.89215
21
-4.89148
0
LINE
8
BLACK
6
CONTINUOUS
10
6.89215
20
-4.89148
11
6.8914
21
-4.88772
0
LINE
8
BLACK
6
CONTINUOUS
10
6.8914
20
-4.88772
11
6.8914
21
-4.85228
0
LINE
8
BLACK
6
CONTINUOUS
10
6.8914
20
-4.85228
11
6.89215
21
-4.84852
0
LINE
8
BLACK
6
CONTINUOUS
10
6.89215
20
-4.84852
11
6.89428
21
-4.84532
0
LINE
8
BLACK
6
CONTINUOUS
10
6.89428
20
-4.84532
11
6.89747
21
-4.84319
0
LINE
8
BLACK
6
CONTINUOUS
10
6.89747
20
-4.84319
11
6.90124
21
-4.84244
0
LINE
8
BLACK
6
CONTINUOUS
10
6.90124
20
-4.84244
11
6.92191
21
-4.84244
0
LINE
8
BLACK
6
CONTINUOUS
10
6.92191
20
-4.84244
11
6.92568
21
-4.84319
0
LINE
8
BLACK
6
CONTINUOUS
10
6.99753
20
-4.84319
11
7.00072
21
-4.84532
0
LINE
8
BLACK
6
CONTINUOUS
10
7.00072
20
-4.84532
11
7.00285
21
-4.84852
0
LINE
8
BLACK
6
CONTINUOUS
10
7.00285
20
-4.84852
11
7.0036
21
-4.85228
0
LINE
8
BLACK
6
CONTINUOUS
10
7.0036
20
-4.85228
11
7.0036
21
-4.88772
0
LINE
8
BLACK
6
CONTINUOUS
10
7.0036
20
-4.88772
11
7.00285
21
-4.89148
0
LINE
8
BLACK
6
CONTINUOUS
10
7.00285
20
-4.89148
11
7.00072
21
-4.89468
0
LINE
8
BLACK
6
CONTINUOUS
10
7.00072
20
-4.89468
11
6.99753
21
-4.89681
0
LINE
8
BLACK
6
CONTINUOUS
10
6.99753
20
-4.89681
11
6.99376
21
-4.89756
0
LINE
8
BLACK
6
CONTINUOUS
10
6.99376
20
-4.89756
11
6.97309
21
-4.89756
0
LINE
8
BLACK
6
CONTINUOUS
10
6.97309
20
-4.89756
11
6.96932
21
-4.89681
0
LINE
8
BLACK
6
CONTINUOUS
10
6.96932
20
-4.89681
11
6.96613
21
-4.89468
0
LINE
8
BLACK
6
CONTINUOUS
10
6.96613
20
-4.89468
11
6.964
21
-4.89148
0
LINE
8
BLACK
6
CONTINUOUS
10
6.964
20
-4.89148
11
6.96325
21
-4.88772
0
LINE
8
BLACK
6
CONTINUOUS
10
6.96325
20
-4.88772
11
6.96325
21
-4.85228
0
LINE
8
BLACK
6
CONTINUOUS
10
6.96325
20
-4.85228
11
6.964
21
-4.84852
0
LINE
8
BLACK
6
CONTINUOUS
10
6.964
20
-4.84852
11
6.96613
21
-4.84532
0
LINE
8
BLACK
6
CONTINUOUS
10
6.96613
20
-4.84532
11
6.96932
21
-4.84319
0
LINE
8
BLACK
6
CONTINUOUS
10
6.96932
20
-4.84319
11
6.97309
21
-4.84244
0
LINE
8
BLACK
6
CONTINUOUS
10
6.97309
20
-4.84244
11
6.99376
21
-4.84244
0
LINE
8
BLACK
6
CONTINUOUS
10
6.99376
20
-4.84244
11
6.99753
21
-4.84319
0
LINE
8
BLACK
6
CONTINUOUS
10
6.71148
20
-4.849
11
6.71468
21
-4.85113
0
LINE
8
BLACK
6
CONTINUOUS
10
6.71468
20
-4.85113
11
6.71681
21
-4.85432
0
LINE
8
BLACK
6
CONTINUOUS
10
6.71681
20
-4.85432
11
6.71756
21
-4.85809
0
LINE
8
BLACK
6
CONTINUOUS
10
6.71756
20
-4.85809
11
6.71756
21
-4.87876
0
LINE
8
BLACK
6
CONTINUOUS
10
6.71756
20
-4.87876
11
6.71681
21
-4.88253
0
LINE
8
BLACK
6
CONTINUOUS
10
6.71681
20
-4.88253
11
6.71468
21
-4.88572
0
LINE
8
BLACK
6
CONTINUOUS
10
6.71468
20
-4.88572
11
6.71148
21
-4.88785
0
LINE
8
BLACK
6
CONTINUOUS
10
6.71148
20
-4.88785
11
6.70772
21
-4.8886
0
LINE
8
BLACK
6
CONTINUOUS
10
6.70772
20
-4.8886
11
6.67228
21
-4.8886
0
LINE
8
BLACK
6
CONTINUOUS
10
6.67228
20
-4.8886
11
6.66852
21
-4.88785
0
LINE
8
BLACK
6
CONTINUOUS
10
6.66852
20
-4.88785
11
6.66532
21
-4.88572
0
LINE
8
BLACK
6
CONTINUOUS
10
6.66532
20
-4.88572
11
6.66319
21
-4.88253
0
LINE
8
BLACK
6
CONTINUOUS
10
6.66319
20
-4.88253
11
6.66244
21
-4.87876
0
LINE
8
BLACK
6
CONTINUOUS
10
6.66244
20
-4.87876
11
6.66244
21
-4.85809
0
LINE
8
BLACK
6
CONTINUOUS
10
6.66244
20
-4.85809
11
6.66319
21
-4.85432
0
LINE
8
BLACK
6
CONTINUOUS
10
6.66319
20
-4.85432
11
6.66532
21
-4.85113
0
LINE
8
BLACK
6
CONTINUOUS
10
6.66532
20
-4.85113
11
6.66852
21
-4.849
0
LINE
8
BLACK
6
CONTINUOUS
10
6.66852
20
-4.849
11
6.67228
21
-4.84825
0
LINE
8
BLACK
6
CONTINUOUS
10
6.67228
20
-4.84825
11
6.70772
21
-4.84825
0
LINE
8
BLACK
6
CONTINUOUS
10
6.70772
20
-4.84825
11
6.71148
21
-4.849
0
LINE
8
BLACK
6
CONTINUOUS
10
6.79148
20
-4.849
11
6.79468
21
-4.85113
0
LINE
8
BLACK
6
CONTINUOUS
10
6.79468
20
-4.85113
11
6.79681
21
-4.85432
0
LINE
8
BLACK
6
CONTINUOUS
10
6.79681
20
-4.85432
11
6.79756
21
-4.85809
0
LINE
8
BLACK
6
CONTINUOUS
10
6.79756
20
-4.85809
11
6.79756
21
-4.87876
0
LINE
8
BLACK
6
CONTINUOUS
10
6.79756
20
-4.87876
11
6.79681
21
-4.88253
0
LINE
8
BLACK
6
CONTINUOUS
10
6.79681
20
-4.88253
11
6.79468
21
-4.88572
0
LINE
8
BLACK
6
CONTINUOUS
10
6.79468
20
-4.88572
11
6.79148
21
-4.88785
0
LINE
8
BLACK
6
CONTINUOUS
10
6.79148
20
-4.88785
11
6.78772
21
-4.8886
0
LINE
8
BLACK
6
CONTINUOUS
10
6.78772
20
-4.8886
11
6.75228
21
-4.8886
0
LINE
8
BLACK
6
CONTINUOUS
10
6.75228
20
-4.8886
11
6.74852
21
-4.88785
0
LINE
8
BLACK
6
CONTINUOUS
10
6.74852
20
-4.88785
11
6.74532
21
-4.88572
0
LINE
8
BLACK
6
CONTINUOUS
10
6.74532
20
-4.88572
11
6.74319
21
-4.88253
0
LINE
8
BLACK
6
CONTINUOUS
10
6.74319
20
-4.88253
11
6.74244
21
-4.87876
0
LINE
8
BLACK
6
CONTINUOUS
10
6.74244
20
-4.87876
11
6.74244
21
-4.85809
0
LINE
8
BLACK
6
CONTINUOUS
10
6.74244
20
-4.85809
11
6.74319
21
-4.85432
0
LINE
8
BLACK
6
CONTINUOUS
10
6.74319
20
-4.85432
11
6.74532
21
-4.85113
0
LINE
8
BLACK
6
CONTINUOUS
10
6.74532
20
-4.85113
11
6.74852
21
-4.849
0
LINE
8
BLACK
6
CONTINUOUS
10
6.74852
20
-4.849
11
6.75228
21
-4.84825
0
LINE
8
BLACK
6
CONTINUOUS
10
6.75228
20
-4.84825
11
6.78772
21
-4.84825
0
LINE
8
BLACK
6
CONTINUOUS
10
6.78772
20
-4.84825
11
6.79148
21
-4.849
0
LINE
8
BLACK
6
CONTINUOUS
10
7.79737
20
-4.87735
11
7.79817
21
-4.87788
0
LINE
8
BLACK
6
CONTINUOUS
10
7.79817
20
-4.87788
11
7.7987
21
-4.87868
0
LINE
8
BLACK
6
CONTINUOUS
10
7.7987
20
-4.87868
11
7.79889
21
-4.87962
0
LINE
8
BLACK
6
CONTINUOUS
10
7.79889
20
-4.87962
11
7.79889
21
-4.88454
0
LINE
8
BLACK
6
CONTINUOUS
10
7.79889
20
-4.88454
11
7.7987
21
-4.88548
0
LINE
8
BLACK
6
CONTINUOUS
10
7.7987
20
-4.88548
11
7.79817
21
-4.88628
0
LINE
8
BLACK
6
CONTINUOUS
10
7.79817
20
-4.88628
11
7.79737
21
-4.88682
0
LINE
8
BLACK
6
CONTINUOUS
10
7.79737
20
-4.88682
11
7.79643
21
-4.887
0
LINE
8
BLACK
6
CONTINUOUS
10
7.79643
20
-4.887
11
7.7669
21
-4.887
0
LINE
8
BLACK
6
CONTINUOUS
10
7.7669
20
-4.887
11
7.76596
21
-4.88682
0
LINE
8
BLACK
6
CONTINUOUS
10
7.76596
20
-4.88682
11
7.76516
21
-4.88628
0
LINE
8
BLACK
6
CONTINUOUS
10
7.76516
20
-4.88628
11
7.76463
21
-4.88548
0
LINE
8
BLACK
6
CONTINUOUS
10
7.76463
20
-4.88548
11
7.76444
21
-4.88454
0
LINE
8
BLACK
6
CONTINUOUS
10
7.76444
20
-4.88454
11
7.76444
21
-4.87962
0
LINE
8
BLACK
6
CONTINUOUS
10
7.76444
20
-4.87962
11
7.76463
21
-4.87868
0
LINE
8
BLACK
6
CONTINUOUS
10
7.76463
20
-4.87868
11
7.76516
21
-4.87788
0
LINE
8
BLACK
6
CONTINUOUS
10
7.76516
20
-4.87788
11
7.76596
21
-4.87735
0
LINE
8
BLACK
6
CONTINUOUS
10
7.76596
20
-4.87735
11
7.7669
21
-4.87716
0
LINE
8
BLACK
6
CONTINUOUS
10
7.7669
20
-4.87716
11
7.79643
21
-4.87716
0
LINE
8
BLACK
6
CONTINUOUS
10
7.79643
20
-4.87716
11
7.79737
21
-4.87735
0
LINE
8
BLACK
6
CONTINUOUS
10
8.06804
20
-4.87735
11
8.06884
21
-4.87788
0
LINE
8
BLACK
6
CONTINUOUS
10
8.06884
20
-4.87788
11
8.06937
21
-4.87868
0
LINE
8
BLACK
6
CONTINUOUS
10
8.06937
20
-4.87868
11
8.06956
21
-4.87962
0
LINE
8
BLACK
6
CONTINUOUS
10
8.06956
20
-4.87962
11
8.06956
21
-4.88454
0
LINE
8
BLACK
6
CONTINUOUS
10
8.06956
20
-4.88454
11
8.06937
21
-4.88548
0
LINE
8
BLACK
6
CONTINUOUS
10
8.06937
20
-4.88548
11
8.06884
21
-4.88628
0
LINE
8
BLACK
6
CONTINUOUS
10
8.06884
20
-4.88628
11
8.06804
21
-4.88682
0
LINE
8
BLACK
6
CONTINUOUS
10
8.06804
20
-4.88682
11
8.0671
21
-4.887
0
LINE
8
BLACK
6
CONTINUOUS
10
8.0671
20
-4.887
11
8.03757
21
-4.887
0
LINE
8
BLACK
6
CONTINUOUS
10
8.03757
20
-4.887
11
8.03663
21
-4.88682
0
LINE
8
BLACK
6
CONTINUOUS
10
8.03663
20
-4.88682
11
8.03583
21
-4.88628
0
LINE
8
BLACK
6
CONTINUOUS
10
8.03583
20
-4.88628
11
8.0353
21
-4.88548
0
LINE
8
BLACK
6
CONTINUOUS
10
8.0353
20
-4.88548
11
8.03511
21
-4.88454
0
LINE
8
BLACK
6
CONTINUOUS
10
8.03511
20
-4.88454
11
8.03511
21
-4.87962
0
LINE
8
BLACK
6
CONTINUOUS
10
8.03511
20
-4.87962
11
8.0353
21
-4.87868
0
LINE
8
BLACK
6
CONTINUOUS
10
8.0353
20
-4.87868
11
8.03583
21
-4.87788
0
LINE
8
BLACK
6
CONTINUOUS
10
8.03583
20
-4.87788
11
8.03663
21
-4.87735
0
LINE
8
BLACK
6
CONTINUOUS
10
8.03663
20
-4.87735
11
8.03757
21
-4.87716
0
LINE
8
BLACK
6
CONTINUOUS
10
8.03757
20
-4.87716
11
8.0671
21
-4.87716
0
LINE
8
BLACK
6
CONTINUOUS
10
8.0671
20
-4.87716
11
8.06804
21
-4.87735
0
LINE
8
BLACK
6
CONTINUOUS
10
7.55123
20
-4.83405
11
7.51364
21
-4.87163
0
LINE
8
BLACK
6
CONTINUOUS
10
7.51364
20
-4.87163
11
7.4691
21
-4.82709
0
LINE
8
BLACK
6
CONTINUOUS
10
7.4691
20
-4.82709
11
7.50669
21
-4.78951
0
LINE
8
BLACK
6
CONTINUOUS
10
7.50669
20
-4.78951
11
7.55123
21
-4.83405
0
LINE
8
BLACK
6
CONTINUOUS
10
7.79737
20
-4.85766
11
7.79817
21
-4.8582
0
LINE
8
BLACK
6
CONTINUOUS
10
7.79817
20
-4.8582
11
7.7987
21
-4.859
0
LINE
8
BLACK
6
CONTINUOUS
10
7.7987
20
-4.859
11
7.79889
21
-4.85994
0
LINE
8
BLACK
6
CONTINUOUS
10
7.79889
20
-4.85994
11
7.79889
21
-4.86486
0
LINE
8
BLACK
6
CONTINUOUS
10
7.79889
20
-4.86486
11
7.7987
21
-4.8658
0
LINE
8
BLACK
6
CONTINUOUS
10
7.7987
20
-4.8658
11
7.79817
21
-4.8666
0
LINE
8
BLACK
6
CONTINUOUS
10
7.79817
20
-4.8666
11
7.79737
21
-4.86713
0
LINE
8
BLACK
6
CONTINUOUS
10
7.79737
20
-4.86713
11
7.79643
21
-4.86732
0
LINE
8
BLACK
6
CONTINUOUS
10
7.79643
20
-4.86732
11
7.7669
21
-4.86732
0
LINE
8
BLACK
6
CONTINUOUS
10
7.7669
20
-4.86732
11
7.76596
21
-4.86713
0
LINE
8
BLACK
6
CONTINUOUS
10
7.76596
20
-4.86713
11
7.76516
21
-4.8666
0
LINE
8
BLACK
6
CONTINUOUS
10
7.76516
20
-4.8666
11
7.76463
21
-4.8658
0
LINE
8
BLACK
6
CONTINUOUS
10
7.76463
20
-4.8658
11
7.76444
21
-4.86486
0
LINE
8
BLACK
6
CONTINUOUS
10
7.76444
20
-4.86486
11
7.76444
21
-4.85994
0
LINE
8
BLACK
6
CONTINUOUS
10
7.76444
20
-4.85994
11
7.76463
21
-4.859
0
LINE
8
BLACK
6
CONTINUOUS
10
7.76463
20
-4.859
11
7.76516
21
-4.8582
0
LINE
8
BLACK
6
CONTINUOUS
10
7.76516
20
-4.8582
11
7.76596
21
-4.85766
0
LINE
8
BLACK
6
CONTINUOUS
10
7.76596
20
-4.85766
11
7.7669
21
-4.85748
0
LINE
8
BLACK
6
CONTINUOUS
10
7.7669
20
-4.85748
11
7.79643
21
-4.85748
0
LINE
8
BLACK
6
CONTINUOUS
10
7.79643
20
-4.85748
11
7.79737
21
-4.85766
0
LINE
8
BLACK
6
CONTINUOUS
10
8.06804
20
-4.85766
11
8.06884
21
-4.8582
0
LINE
8
BLACK
6
CONTINUOUS
10
8.06884
20
-4.8582
11
8.06937
21
-4.859
0
LINE
8
BLACK
6
CONTINUOUS
10
8.06937
20
-4.859
11
8.06956
21
-4.85994
0
LINE
8
BLACK
6
CONTINUOUS
10
8.06956
20
-4.85994
11
8.06956
21
-4.86486
0
LINE
8
BLACK
6
CONTINUOUS
10
8.06956
20
-4.86486
11
8.06937
21
-4.8658
0
LINE
8
BLACK
6
CONTINUOUS
10
8.06937
20
-4.8658
11
8.06884
21
-4.8666
0
LINE
8
BLACK
6
CONTINUOUS
10
8.06884
20
-4.8666
11
8.06804
21
-4.86713
0
LINE
8
BLACK
6
CONTINUOUS
10
8.06804
20
-4.86713
11
8.0671
21
-4.86732
0
LINE
8
BLACK
6
CONTINUOUS
10
8.0671
20
-4.86732
11
8.03757
21
-4.86732
0
LINE
8
BLACK
6
CONTINUOUS
10
8.03757
20
-4.86732
11
8.03663
21
-4.86713
0
LINE
8
BLACK
6
CONTINUOUS
10
8.03663
20
-4.86713
11
8.03583
21
-4.8666
0
LINE
8
BLACK
6
CONTINUOUS
10
8.03583
20
-4.8666
11
8.0353
21
-4.8658
0
LINE
8
BLACK
6
CONTINUOUS
10
8.0353
20
-4.8658
11
8.03511
21
-4.86486
0
LINE
8
BLACK
6
CONTINUOUS
10
8.03511
20
-4.86486
11
8.03511
21
-4.85994
0
LINE
8
BLACK
6
CONTINUOUS
10
8.03511
20
-4.85994
11
8.0353
21
-4.859
0
LINE
8
BLACK
6
CONTINUOUS
10
8.0353
20
-4.859
11
8.03583
21
-4.8582
0
LINE
8
BLACK
6
CONTINUOUS
10
8.03583
20
-4.8582
11
8.03663
21
-4.85766
0
LINE
8
BLACK
6
CONTINUOUS
10
8.03663
20
-4.85766
11
8.03757
21
-4.85748
0
LINE
8
BLACK
6
CONTINUOUS
10
8.03757
20
-4.85748
11
8.0671
21
-4.85748
0
LINE
8
BLACK
6
CONTINUOUS
10
8.0671
20
-4.85748
11
8.06804
21
-4.85766
0
LINE
8
BLACK
6
CONTINUOUS
10
7.4009
20
-4.82291
11
7.36331
21
-4.86049
0
LINE
8
BLACK
6
CONTINUOUS
10
7.36331
20
-4.86049
11
7.31877
21
-4.81595
0
LINE
8
BLACK
6
CONTINUOUS
10
7.31877
20
-4.81595
11
7.35636
21
-4.77837
0
LINE
8
BLACK
6
CONTINUOUS
10
7.35636
20
-4.77837
11
7.4009
21
-4.82291
0
LINE
8
BLACK
6
CONTINUOUS
10
7.79737
20
-4.83798
11
7.79817
21
-4.83851
0
LINE
8
BLACK
6
CONTINUOUS
10
7.79817
20
-4.83851
11
7.7987
21
-4.83931
0
LINE
8
BLACK
6
CONTINUOUS
10
7.7987
20
-4.83931
11
7.79889
21
-4.84025
0
LINE
8
BLACK
6
CONTINUOUS
10
7.79889
20
-4.84025
11
7.79889
21
-4.84517
0
LINE
8
BLACK
6
CONTINUOUS
10
7.79889
20
-4.84517
11
7.7987
21
-4.84611
0
LINE
8
BLACK
6
CONTINUOUS
10
7.7987
20
-4.84611
11
7.79817
21
-4.84691
0
LINE
8
BLACK
6
CONTINUOUS
10
7.79817
20
-4.84691
11
7.79737
21
-4.84745
0
LINE
8
BLACK
6
CONTINUOUS
10
7.79737
20
-4.84745
11
7.79643
21
-4.84763
0
LINE
8
BLACK
6
CONTINUOUS
10
7.79643
20
-4.84763
11
7.7669
21
-4.84763
0
LINE
8
BLACK
6
CONTINUOUS
10
7.7669
20
-4.84763
11
7.76596
21
-4.84745
0
LINE
8
BLACK
6
CONTINUOUS
10
7.76596
20
-4.84745
11
7.76516
21
-4.84691
0
LINE
8
BLACK
6
CONTINUOUS
10
7.76516
20
-4.84691
11
7.76463
21
-4.84611
0
LINE
8
BLACK
6
CONTINUOUS
10
7.76463
20
-4.84611
11
7.76444
21
-4.84517
0
LINE
8
BLACK
6
CONTINUOUS
10
7.76444
20
-4.84517
11
7.76444
21
-4.84025
0
LINE
8
BLACK
6
CONTINUOUS
10
7.76444
20
-4.84025
11
7.76463
21
-4.83931
0
LINE
8
BLACK
6
CONTINUOUS
10
7.76463
20
-4.83931
11
7.76516
21
-4.83851
0
LINE
8
BLACK
6
CONTINUOUS
10
7.76516
20
-4.83851
11
7.76596
21
-4.83798
0
LINE
8
BLACK
6
CONTINUOUS
10
7.76596
20
-4.83798
11
7.7669
21
-4.83779
0
LINE
8
BLACK
6
CONTINUOUS
10
7.7669
20
-4.83779
11
7.79643
21
-4.83779
0
LINE
8
BLACK
6
CONTINUOUS
10
7.79643
20
-4.83779
11
7.79737
21
-4.83798
0
LINE
8
BLACK
6
CONTINUOUS
10
8.06804
20
-4.83798
11
8.06884
21
-4.83851
0
LINE
8
BLACK
6
CONTINUOUS
10
8.06884
20
-4.83851
11
8.06937
21
-4.83931
0
LINE
8
BLACK
6
CONTINUOUS
10
8.06937
20
-4.83931
11
8.06956
21
-4.84025
0
LINE
8
BLACK
6
CONTINUOUS
10
8.06956
20
-4.84025
11
8.06956
21
-4.84517
0
LINE
8
BLACK
6
CONTINUOUS
10
8.06956
20
-4.84517
11
8.06937
21
-4.84611
0
LINE
8
BLACK
6
CONTINUOUS
10
8.06937
20
-4.84611
11
8.06884
21
-4.84691
0
LINE
8
BLACK
6
CONTINUOUS
10
8.06884
20
-4.84691
11
8.06804
21
-4.84745
0
LINE
8
BLACK
6
CONTINUOUS
10
8.06804
20
-4.84745
11
8.0671
21
-4.84763
0
LINE
8
BLACK
6
CONTINUOUS
10
8.0671
20
-4.84763
11
8.03757
21
-4.84763
0
LINE
8
BLACK
6
CONTINUOUS
10
8.03757
20
-4.84763
11
8.03663
21
-4.84745
0
LINE
8
BLACK
6
CONTINUOUS
10
8.03663
20
-4.84745
11
8.03583
21
-4.84691
0
LINE
8
BLACK
6
CONTINUOUS
10
8.03583
20
-4.84691
11
8.0353
21
-4.84611
0
LINE
8
BLACK
6
CONTINUOUS
10
8.0353
20
-4.84611
11
8.03511
21
-4.84517
0
LINE
8
BLACK
6
CONTINUOUS
10
8.03511
20
-4.84517
11
8.03511
21
-4.84025
0
LINE
8
BLACK
6
CONTINUOUS
10
8.03511
20
-4.84025
11
8.0353
21
-4.83931
0
LINE
8
BLACK
6
CONTINUOUS
10
8.0353
20
-4.83931
11
8.03583
21
-4.83851
0
LINE
8
BLACK
6
CONTINUOUS
10
8.03583
20
-4.83851
11
8.03663
21
-4.83798
0
LINE
8
BLACK
6
CONTINUOUS
10
8.03663
20
-4.83798
11
8.03757
21
-4.83779
0
LINE
8
BLACK
6
CONTINUOUS
10
8.03757
20
-4.83779
11
8.0671
21
-4.83779
0
LINE
8
BLACK
6
CONTINUOUS
10
8.0671
20
-4.83779
11
8.06804
21
-4.83798
0
LINE
8
BLACK
6
CONTINUOUS
10
7.85049
20
-4.79956
11
7.85368
21
-4.8017
0
LINE
8
BLACK
6
CONTINUOUS
10
7.85368
20
-4.8017
11
7.85582
21
-4.80489
0
LINE
8
BLACK
6
CONTINUOUS
10
7.85582
20
-4.80489
11
7.85657
21
-4.80866
0
LINE
8
BLACK
6
CONTINUOUS
10
7.85657
20
-4.80866
11
7.85657
21
-4.83346
0
LINE
8
BLACK
6
CONTINUOUS
10
7.85657
20
-4.83346
11
7.85582
21
-4.83723
0
LINE
8
BLACK
6
CONTINUOUS
10
7.85582
20
-4.83723
11
7.85368
21
-4.84042
0
LINE
8
BLACK
6
CONTINUOUS
10
7.85368
20
-4.84042
11
7.85049
21
-4.84255
0
LINE
8
BLACK
6
CONTINUOUS
10
7.85049
20
-4.84255
11
7.84672
21
-4.8433
0
LINE
8
BLACK
6
CONTINUOUS
10
7.84672
20
-4.8433
11
7.82192
21
-4.8433
0
LINE
8
BLACK
6
CONTINUOUS
10
7.82192
20
-4.8433
11
7.81815
21
-4.84255
0
LINE
8
BLACK
6
CONTINUOUS
10
7.81815
20
-4.84255
11
7.81496
21
-4.84042
0
LINE
8
BLACK
6
CONTINUOUS
10
7.81496
20
-4.84042
11
7.81283
21
-4.83723
0
LINE
8
BLACK
6
CONTINUOUS
10
7.81283
20
-4.83723
11
7.81208
21
-4.83346
0
LINE
8
BLACK
6
CONTINUOUS
10
7.81208
20
-4.83346
11
7.81208
21
-4.80866
0
LINE
8
BLACK
6
CONTINUOUS
10
7.81208
20
-4.80866
11
7.81283
21
-4.80489
0
LINE
8
BLACK
6
CONTINUOUS
10
7.81283
20
-4.80489
11
7.81496
21
-4.8017
0
LINE
8
BLACK
6
CONTINUOUS
10
7.81496
20
-4.8017
11
7.81815
21
-4.79956
0
LINE
8
BLACK
6
CONTINUOUS
10
7.81815
20
-4.79956
11
7.82192
21
-4.79881
0
LINE
8
BLACK
6
CONTINUOUS
10
7.82192
20
-4.79881
11
7.84672
21
-4.79881
0
LINE
8
BLACK
6
CONTINUOUS
10
7.84672
20
-4.79881
11
7.85049
21
-4.79956
0
LINE
8
BLACK
6
CONTINUOUS
10
7.90561
20
-4.79956
11
7.9088
21
-4.8017
0
LINE
8
BLACK
6
CONTINUOUS
10
7.9088
20
-4.8017
11
7.91094
21
-4.80489
0
LINE
8
BLACK
6
CONTINUOUS
10
7.91094
20
-4.80489
11
7.91169
21
-4.80866
0
LINE
8
BLACK
6
CONTINUOUS
10
7.91169
20
-4.80866
11
7.91169
21
-4.83346
0
LINE
8
BLACK
6
CONTINUOUS
10
7.91169
20
-4.83346
11
7.91094
21
-4.83723
0
LINE
8
BLACK
6
CONTINUOUS
10
7.91094
20
-4.83723
11
7.9088
21
-4.84042
0
LINE
8
BLACK
6
CONTINUOUS
10
7.9088
20
-4.84042
11
7.90561
21
-4.84255
0
LINE
8
BLACK
6
CONTINUOUS
10
7.90561
20
-4.84255
11
7.90184
21
-4.8433
0
LINE
8
BLACK
6
CONTINUOUS
10
7.90184
20
-4.8433
11
7.87704
21
-4.8433
0
LINE
8
BLACK
6
CONTINUOUS
10
7.87704
20
-4.8433
11
7.87327
21
-4.84255
0
LINE
8
BLACK
6
CONTINUOUS
10
7.87327
20
-4.84255
11
7.87008
21
-4.84042
0
LINE
8
BLACK
6
CONTINUOUS
10
7.87008
20
-4.84042
11
7.86795
21
-4.83723
0
LINE
8
BLACK
6
CONTINUOUS
10
7.86795
20
-4.83723
11
7.8672
21
-4.83346
0
LINE
8
BLACK
6
CONTINUOUS
10
7.8672
20
-4.83346
11
7.8672
21
-4.80866
0
LINE
8
BLACK
6
CONTINUOUS
10
7.8672
20
-4.80866
11
7.86795
21
-4.80489
0
LINE
8
BLACK
6
CONTINUOUS
10
7.86795
20
-4.80489
11
7.87008
21
-4.8017
0
LINE
8
BLACK
6
CONTINUOUS
10
7.87008
20
-4.8017
11
7.87327
21
-4.79956
0
LINE
8
BLACK
6
CONTINUOUS
10
7.87327
20
-4.79956
11
7.87704
21
-4.79881
0
LINE
8
BLACK
6
CONTINUOUS
10
7.87704
20
-4.79881
11
7.90184
21
-4.79881
0
LINE
8
BLACK
6
CONTINUOUS
10
7.90184
20
-4.79881
11
7.90561
21
-4.79956
0
LINE
8
BLACK
6
CONTINUOUS
10
7.96073
20
-4.79956
11
7.96392
21
-4.8017
0
LINE
8
BLACK
6
CONTINUOUS
10
7.96392
20
-4.8017
11
7.96605
21
-4.80489
0
LINE
8
BLACK
6
CONTINUOUS
10
7.96605
20
-4.80489
11
7.9668
21
-4.80866
0
LINE
8
BLACK
6
CONTINUOUS
10
7.9668
20
-4.80866
11
7.9668
21
-4.83346
0
LINE
8
BLACK
6
CONTINUOUS
10
7.9668
20
-4.83346
11
7.96605
21
-4.83723
0
LINE
8
BLACK
6
CONTINUOUS
10
7.96605
20
-4.83723
11
7.96392
21
-4.84042
0
LINE
8
BLACK
6
CONTINUOUS
10
7.96392
20
-4.84042
11
7.96073
21
-4.84255
0
LINE
8
BLACK
6
CONTINUOUS
10
7.96073
20
-4.84255
11
7.95696
21
-4.8433
0
LINE
8
BLACK
6
CONTINUOUS
10
7.95696
20
-4.8433
11
7.93216
21
-4.8433
0
LINE
8
BLACK
6
CONTINUOUS
10
7.93216
20
-4.8433
11
7.92839
21
-4.84255
0
LINE
8
BLACK
6
CONTINUOUS
10
7.92839
20
-4.84255
11
7.9252
21
-4.84042
0
LINE
8
BLACK
6
CONTINUOUS
10
7.9252
20
-4.84042
11
7.92306
21
-4.83723
0
LINE
8
BLACK
6
CONTINUOUS
10
7.92306
20
-4.83723
11
7.92231
21
-4.83346
0
LINE
8
BLACK
6
CONTINUOUS
10
7.92231
20
-4.83346
11
7.92231
21
-4.80866
0
LINE
8
BLACK
6
CONTINUOUS
10
7.92231
20
-4.80866
11
7.92306
21
-4.80489
0
LINE
8
BLACK
6
CONTINUOUS
10
7.92306
20
-4.80489
11
7.9252
21
-4.8017
0
LINE
8
BLACK
6
CONTINUOUS
10
7.9252
20
-4.8017
11
7.92839
21
-4.79956
0
LINE
8
BLACK
6
CONTINUOUS
10
7.92839
20
-4.79956
11
7.93216
21
-4.79881
0
LINE
8
BLACK
6
CONTINUOUS
10
7.93216
20
-4.79881
11
7.95696
21
-4.79881
0
LINE
8
BLACK
6
CONTINUOUS
10
7.95696
20
-4.79881
11
7.96073
21
-4.79956
0
LINE
8
BLACK
6
CONTINUOUS
10
8.01585
20
-4.79956
11
8.01904
21
-4.8017
0
LINE
8
BLACK
6
CONTINUOUS
10
8.01904
20
-4.8017
11
8.02117
21
-4.80489
0
LINE
8
BLACK
6
CONTINUOUS
10
8.02117
20
-4.80489
11
8.02192
21
-4.80866
0
LINE
8
BLACK
6
CONTINUOUS
10
8.02192
20
-4.80866
11
8.02192
21
-4.83346
0
LINE
8
BLACK
6
CONTINUOUS
10
8.02192
20
-4.83346
11
8.02117
21
-4.83723
0
LINE
8
BLACK
6
CONTINUOUS
10
8.02117
20
-4.83723
11
8.01904
21
-4.84042
0
LINE
8
BLACK
6
CONTINUOUS
10
8.01904
20
-4.84042
11
8.01585
21
-4.84255
0
LINE
8
BLACK
6
CONTINUOUS
10
8.01585
20
-4.84255
11
8.01208
21
-4.8433
0
LINE
8
BLACK
6
CONTINUOUS
10
8.01208
20
-4.8433
11
7.98728
21
-4.8433
0
LINE
8
BLACK
6
CONTINUOUS
10
7.98728
20
-4.8433
11
7.98351
21
-4.84255
0
LINE
8
BLACK
6
CONTINUOUS
10
7.98351
20
-4.84255
11
7.98032
21
-4.84042
0
LINE
8
BLACK
6
CONTINUOUS
10
7.98032
20
-4.84042
11
7.97818
21
-4.83723
0
LINE
8
BLACK
6
CONTINUOUS
10
7.97818
20
-4.83723
11
7.97743
21
-4.83346
0
LINE
8
BLACK
6
CONTINUOUS
10
7.97743
20
-4.83346
11
7.97743
21
-4.80866
0
LINE
8
BLACK
6
CONTINUOUS
10
7.97743
20
-4.80866
11
7.97818
21
-4.80489
0
LINE
8
BLACK
6
CONTINUOUS
10
7.97818
20
-4.80489
11
7.98032
21
-4.8017
0
LINE
8
BLACK
6
CONTINUOUS
10
7.98032
20
-4.8017
11
7.98351
21
-4.79956
0
LINE
8
BLACK
6
CONTINUOUS
10
7.98351
20
-4.79956
11
7.98728
21
-4.79881
0
LINE
8
BLACK
6
CONTINUOUS
10
7.98728
20
-4.79881
11
8.01208
21
-4.79881
0
LINE
8
BLACK
6
CONTINUOUS
10
8.01208
20
-4.79881
11
8.01585
21
-4.79956
0
LINE
8
BLACK
6
CONTINUOUS
10
7.79737
20
-4.81829
11
7.79817
21
-4.81883
0
LINE
8
BLACK
6
CONTINUOUS
10
7.79817
20
-4.81883
11
7.7987
21
-4.81963
0
LINE
8
BLACK
6
CONTINUOUS
10
7.7987
20
-4.81963
11
7.79889
21
-4.82057
0
LINE
8
BLACK
6
CONTINUOUS
10
7.79889
20
-4.82057
11
7.79889
21
-4.82549
0
LINE
8
BLACK
6
CONTINUOUS
10
7.79889
20
-4.82549
11
7.7987
21
-4.82643
0
LINE
8
BLACK
6
CONTINUOUS
10
7.7987
20
-4.82643
11
7.79817
21
-4.82723
0
LINE
8
BLACK
6
CONTINUOUS
10
7.79817
20
-4.82723
11
7.79737
21
-4.82776
0
LINE
8
BLACK
6
CONTINUOUS
10
7.79737
20
-4.82776
11
7.79643
21
-4.82795
0
LINE
8
BLACK
6
CONTINUOUS
10
7.79643
20
-4.82795
11
7.7669
21
-4.82795
0
LINE
8
BLACK
6
CONTINUOUS
10
7.7669
20
-4.82795
11
7.76596
21
-4.82776
0
LINE
8
BLACK
6
CONTINUOUS
10
7.76596
20
-4.82776
11
7.76516
21
-4.82723
0
LINE
8
BLACK
6
CONTINUOUS
10
7.76516
20
-4.82723
11
7.76463
21
-4.82643
0
LINE
8
BLACK
6
CONTINUOUS
10
7.76463
20
-4.82643
11
7.76444
21
-4.82549
0
LINE
8
BLACK
6
CONTINUOUS
10
7.76444
20
-4.82549
11
7.76444
21
-4.82057
0
LINE
8
BLACK
6
CONTINUOUS
10
7.76444
20
-4.82057
11
7.76463
21
-4.81963
0
LINE
8
BLACK
6
CONTINUOUS
10
7.76463
20
-4.81963
11
7.76516
21
-4.81883
0
LINE
8
BLACK
6
CONTINUOUS
10
7.76516
20
-4.81883
11
7.76596
21
-4.81829
0
LINE
8
BLACK
6
CONTINUOUS
10
7.76596
20
-4.81829
11
7.7669
21
-4.81811
0
LINE
8
BLACK
6
CONTINUOUS
10
7.7669
20
-4.81811
11
7.79643
21
-4.81811
0
LINE
8
BLACK
6
CONTINUOUS
10
7.79643
20
-4.81811
11
7.79737
21
-4.81829
0
LINE
8
BLACK
6
CONTINUOUS
10
8.06804
20
-4.81829
11
8.06884
21
-4.81883
0
LINE
8
BLACK
6
CONTINUOUS
10
8.06884
20
-4.81883
11
8.06937
21
-4.81963
0
LINE
8
BLACK
6
CONTINUOUS
10
8.06937
20
-4.81963
11
8.06956
21
-4.82057
0
LINE
8
BLACK
6
CONTINUOUS
10
8.06956
20
-4.82057
11
8.06956
21
-4.82549
0
LINE
8
BLACK
6
CONTINUOUS
10
8.06956
20
-4.82549
11
8.06937
21
-4.82643
0
LINE
8
BLACK
6
CONTINUOUS
10
8.06937
20
-4.82643
11
8.06884
21
-4.82723
0
LINE
8
BLACK
6
CONTINUOUS
10
8.06884
20
-4.82723
11
8.06804
21
-4.82776
0
LINE
8
BLACK
6
CONTINUOUS
10
8.06804
20
-4.82776
11
8.0671
21
-4.82795
0
LINE
8
BLACK
6
CONTINUOUS
10
8.0671
20
-4.82795
11
8.03757
21
-4.82795
0
LINE
8
BLACK
6
CONTINUOUS
10
8.03757
20
-4.82795
11
8.03663
21
-4.82776
0
LINE
8
BLACK
6
CONTINUOUS
10
8.03663
20
-4.82776
11
8.03583
21
-4.82723
0
LINE
8
BLACK
6
CONTINUOUS
10
8.03583
20
-4.82723
11
8.0353
21
-4.82643
0
LINE
8
BLACK
6
CONTINUOUS
10
8.0353
20
-4.82643
11
8.03511
21
-4.82549
0
LINE
8
BLACK
6
CONTINUOUS
10
8.03511
20
-4.82549
11
8.03511
21
-4.82057
0
LINE
8
BLACK
6
CONTINUOUS
10
8.03511
20
-4.82057
11
8.0353
21
-4.81963
0
LINE
8
BLACK
6
CONTINUOUS
10
8.0353
20
-4.81963
11
8.03583
21
-4.81883
0
LINE
8
BLACK
6
CONTINUOUS
10
8.03583
20
-4.81883
11
8.03663
21
-4.81829
0
LINE
8
BLACK
6
CONTINUOUS
10
8.03663
20
-4.81829
11
8.03757
21
-4.81811
0
LINE
8
BLACK
6
CONTINUOUS
10
8.03757
20
-4.81811
11
8.0671
21
-4.81811
0
LINE
8
BLACK
6
CONTINUOUS
10
8.0671
20
-4.81811
11
8.06804
21
-4.81829
0
LINE
8
BLACK
6
CONTINUOUS
10
6.71148
20
-4.77715
11
6.71468
21
-4.77928
0
LINE
8
BLACK
6
CONTINUOUS
10
6.71468
20
-4.77928
11
6.71681
21
-4.78247
0
LINE
8
BLACK
6
CONTINUOUS
10
6.71681
20
-4.78247
11
6.71756
21
-4.78624
0
LINE
8
BLACK
6
CONTINUOUS
10
6.71756
20
-4.78624
11
6.71756
21
-4.80691
0
LINE
8
BLACK
6
CONTINUOUS
10
6.71756
20
-4.80691
11
6.71681
21
-4.81068
0
LINE
8
BLACK
6
CONTINUOUS
10
6.71681
20
-4.81068
11
6.71468
21
-4.81387
0
LINE
8
BLACK
6
CONTINUOUS
10
6.71468
20
-4.81387
11
6.71148
21
-4.816
0
LINE
8
BLACK
6
CONTINUOUS
10
6.71148
20
-4.816
11
6.70772
21
-4.81675
0
LINE
8
BLACK
6
CONTINUOUS
10
6.70772
20
-4.81675
11
6.67228
21
-4.81675
0
LINE
8
BLACK
6
CONTINUOUS
10
6.67228
20
-4.81675
11
6.66852
21
-4.816
0
LINE
8
BLACK
6
CONTINUOUS
10
6.66852
20
-4.816
11
6.66532
21
-4.81387
0
LINE
8
BLACK
6
CONTINUOUS
10
6.66532
20
-4.81387
11
6.66319
21
-4.81068
0
LINE
8
BLACK
6
CONTINUOUS
10
6.66319
20
-4.81068
11
6.66244
21
-4.80691
0
LINE
8
BLACK
6
CONTINUOUS
10
6.66244
20
-4.80691
11
6.66244
21
-4.78624
0
LINE
8
BLACK
6
CONTINUOUS
10
6.66244
20
-4.78624
11
6.66319
21
-4.78247
0
LINE
8
BLACK
6
CONTINUOUS
10
6.66319
20
-4.78247
11
6.66532
21
-4.77928
0
LINE
8
BLACK
6
CONTINUOUS
10
6.66532
20
-4.77928
11
6.66852
21
-4.77715
0
LINE
8
BLACK
6
CONTINUOUS
10
6.66852
20
-4.77715
11
6.67228
21
-4.7764
0
LINE
8
BLACK
6
CONTINUOUS
10
6.67228
20
-4.7764
11
6.70772
21
-4.7764
0
LINE
8
BLACK
6
CONTINUOUS
10
6.70772
20
-4.7764
11
6.71148
21
-4.77715
0
LINE
8
BLACK
6
CONTINUOUS
10
6.79148
20
-4.77715
11
6.79468
21
-4.77928
0
LINE
8
BLACK
6
CONTINUOUS
10
6.79468
20
-4.77928
11
6.79681
21
-4.78247
0
LINE
8
BLACK
6
CONTINUOUS
10
6.79681
20
-4.78247
11
6.79756
21
-4.78624
0
LINE
8
BLACK
6
CONTINUOUS
10
6.79756
20
-4.78624
11
6.79756
21
-4.80691
0
LINE
8
BLACK
6
CONTINUOUS
10
6.79756
20
-4.80691
11
6.79681
21
-4.81068
0
LINE
8
BLACK
6
CONTINUOUS
10
6.79681
20
-4.81068
11
6.79468
21
-4.81387
0
LINE
8
BLACK
6
CONTINUOUS
10
6.79468
20
-4.81387
11
6.79148
21
-4.816
0
LINE
8
BLACK
6
CONTINUOUS
10
6.79148
20
-4.816
11
6.78772
21
-4.81675
0
LINE
8
BLACK
6
CONTINUOUS
10
6.78772
20
-4.81675
11
6.75228
21
-4.81675
0
LINE
8
BLACK
6
CONTINUOUS
10
6.75228
20
-4.81675
11
6.74852
21
-4.816
0
LINE
8
BLACK
6
CONTINUOUS
10
6.74852
20
-4.816
11
6.74532
21
-4.81387
0
LINE
8
BLACK
6
CONTINUOUS
10
6.74532
20
-4.81387
11
6.74319
21
-4.81068
0
LINE
8
BLACK
6
CONTINUOUS
10
6.74319
20
-4.81068
11
6.74244
21
-4.80691
0
LINE
8
BLACK
6
CONTINUOUS
10
6.74244
20
-4.80691
11
6.74244
21
-4.78624
0
LINE
8
BLACK
6
CONTINUOUS
10
6.74244
20
-4.78624
11
6.74319
21
-4.78247
0
LINE
8
BLACK
6
CONTINUOUS
10
6.74319
20
-4.78247
11
6.74532
21
-4.77928
0
LINE
8
BLACK
6
CONTINUOUS
10
6.74532
20
-4.77928
11
6.74852
21
-4.77715
0
LINE
8
BLACK
6
CONTINUOUS
10
6.74852
20
-4.77715
11
6.75228
21
-4.7764
0
LINE
8
BLACK
6
CONTINUOUS
10
6.75228
20
-4.7764
11
6.78772
21
-4.7764
0
LINE
8
BLACK
6
CONTINUOUS
10
6.78772
20
-4.7764
11
6.79148
21
-4.77715
0
LINE
8
BLACK
6
CONTINUOUS
10
7.79737
20
-4.79861
11
7.79817
21
-4.79914
0
LINE
8
BLACK
6
CONTINUOUS
10
7.79817
20
-4.79914
11
7.7987
21
-4.79994
0
LINE
8
BLACK
6
CONTINUOUS
10
7.7987
20
-4.79994
11
7.79889
21
-4.80088
0
LINE
8
BLACK
6
CONTINUOUS
10
7.79889
20
-4.80088
11
7.79889
21
-4.8058
0
LINE
8
BLACK
6
CONTINUOUS
10
7.79889
20
-4.8058
11
7.7987
21
-4.80674
0
LINE
8
BLACK
6
CONTINUOUS
10
7.7987
20
-4.80674
11
7.79817
21
-4.80754
0
LINE
8
BLACK
6
CONTINUOUS
10
7.79817
20
-4.80754
11
7.79737
21
-4.80808
0
LINE
8
BLACK
6
CONTINUOUS
10
7.79737
20
-4.80808
11
7.79643
21
-4.80826
0
LINE
8
BLACK
6
CONTINUOUS
10
7.79643
20
-4.80826
11
7.7669
21
-4.80826
0
LINE
8
BLACK
6
CONTINUOUS
10
7.7669
20
-4.80826
11
7.76596
21
-4.80808
0
LINE
8
BLACK
6
CONTINUOUS
10
7.76596
20
-4.80808
11
7.76516
21
-4.80754
0
LINE
8
BLACK
6
CONTINUOUS
10
7.76516
20
-4.80754
11
7.76463
21
-4.80674
0
LINE
8
BLACK
6
CONTINUOUS
10
7.76463
20
-4.80674
11
7.76444
21
-4.8058
0
LINE
8
BLACK
6
CONTINUOUS
10
7.76444
20
-4.8058
11
7.76444
21
-4.80088
0
LINE
8
BLACK
6
CONTINUOUS
10
7.76444
20
-4.80088
11
7.76463
21
-4.79994
0
LINE
8
BLACK
6
CONTINUOUS
10
7.76463
20
-4.79994
11
7.76516
21
-4.79914
0
LINE
8
BLACK
6
CONTINUOUS
10
7.76516
20
-4.79914
11
7.76596
21
-4.79861
0
LINE
8
BLACK
6
CONTINUOUS
10
7.76596
20
-4.79861
11
7.7669
21
-4.79842
0
LINE
8
BLACK
6
CONTINUOUS
10
7.7669
20
-4.79842
11
7.79643
21
-4.79842
0
LINE
8
BLACK
6
CONTINUOUS
10
7.79643
20
-4.79842
11
7.79737
21
-4.79861
0
LINE
8
BLACK
6
CONTINUOUS
10
8.06804
20
-4.79861
11
8.06884
21
-4.79914
0
LINE
8
BLACK
6
CONTINUOUS
10
8.06884
20
-4.79914
11
8.06937
21
-4.79994
0
LINE
8
BLACK
6
CONTINUOUS
10
8.06937
20
-4.79994
11
8.06956
21
-4.80088
0
LINE
8
BLACK
6
CONTINUOUS
10
8.06956
20
-4.80088
11
8.06956
21
-4.8058
0
LINE
8
BLACK
6
CONTINUOUS
10
8.06956
20
-4.8058
11
8.06937
21
-4.80674
0
LINE
8
BLACK
6
CONTINUOUS
10
8.06937
20
-4.80674
11
8.06884
21
-4.80754
0
LINE
8
BLACK
6
CONTINUOUS
10
8.06884
20
-4.80754
11
8.06804
21
-4.80808
0
LINE
8
BLACK
6
CONTINUOUS
10
8.06804
20
-4.80808
11
8.0671
21
-4.80826
0
LINE
8
BLACK
6
CONTINUOUS
10
8.0671
20
-4.80826
11
8.03757
21
-4.80826
0
LINE
8
BLACK
6
CONTINUOUS
10
8.03757
20
-4.80826
11
8.03663
21
-4.80808
0
LINE
8
BLACK
6
CONTINUOUS
10
8.03663
20
-4.80808
11
8.03583
21
-4.80754
0
LINE
8
BLACK
6
CONTINUOUS
10
8.03583
20
-4.80754
11
8.0353
21
-4.80674
0
LINE
8
BLACK
6
CONTINUOUS
10
8.0353
20
-4.80674
11
8.03511
21
-4.8058
0
LINE
8
BLACK
6
CONTINUOUS
10
8.03511
20
-4.8058
11
8.03511
21
-4.80088
0
LINE
8
BLACK
6
CONTINUOUS
10
8.03511
20
-4.80088
11
8.0353
21
-4.79994
0
LINE
8
BLACK
6
CONTINUOUS
10
8.0353
20
-4.79994
11
8.03583
21
-4.79914
0
LINE
8
BLACK
6
CONTINUOUS
10
8.03583
20
-4.79914
11
8.03663
21
-4.79861
0
LINE
8
BLACK
6
CONTINUOUS
10
8.03663
20
-4.79861
11
8.03757
21
-4.79842
0
LINE
8
BLACK
6
CONTINUOUS
10
8.03757
20
-4.79842
11
8.0671
21
-4.79842
0
LINE
8
BLACK
6
CONTINUOUS
10
8.0671
20
-4.79842
11
8.06804
21
-4.79861
0
LINE
8
BLACK
6
CONTINUOUS
10
7.47049
20
-4.75331
11
7.43291
21
-4.7909
0
LINE
8
BLACK
6
CONTINUOUS
10
7.43291
20
-4.7909
11
7.38837
21
-4.74636
0
LINE
8
BLACK
6
CONTINUOUS
10
7.38837
20
-4.74636
11
7.42595
21
-4.70877
0
LINE
8
BLACK
6
CONTINUOUS
10
7.42595
20
-4.70877
11
7.47049
21
-4.75331
0
LINE
8
BLACK
6
CONTINUOUS
10
7.79737
20
-4.77892
11
7.79817
21
-4.77946
0
LINE
8
BLACK
6
CONTINUOUS
10
7.79817
20
-4.77946
11
7.7987
21
-4.78026
0
LINE
8
BLACK
6
CONTINUOUS
10
7.7987
20
-4.78026
11
7.79889
21
-4.7812
0
LINE
8
BLACK
6
CONTINUOUS
10
7.79889
20
-4.7812
11
7.79889
21
-4.78612
0
LINE
8
BLACK
6
CONTINUOUS
10
7.79889
20
-4.78612
11
7.7987
21
-4.78706
0
LINE
8
BLACK
6
CONTINUOUS
10
7.7987
20
-4.78706
11
7.79817
21
-4.78786
0
LINE
8
BLACK
6
CONTINUOUS
10
7.79817
20
-4.78786
11
7.79737
21
-4.78839
0
LINE
8
BLACK
6
CONTINUOUS
10
7.79737
20
-4.78839
11
7.79643
21
-4.78858
0
LINE
8
BLACK
6
CONTINUOUS
10
7.79643
20
-4.78858
11
7.7669
21
-4.78858
0
LINE
8
BLACK
6
CONTINUOUS
10
7.7669
20
-4.78858
11
7.76596
21
-4.78839
0
LINE
8
BLACK
6
CONTINUOUS
10
7.76596
20
-4.78839
11
7.76516
21
-4.78786
0
LINE
8
BLACK
6
CONTINUOUS
10
7.76516
20
-4.78786
11
7.76463
21
-4.78706
0
LINE
8
BLACK
6
CONTINUOUS
10
7.76463
20
-4.78706
11
7.76444
21
-4.78612
0
LINE
8
BLACK
6
CONTINUOUS
10
7.76444
20
-4.78612
11
7.76444
21
-4.7812
0
LINE
8
BLACK
6
CONTINUOUS
10
7.76444
20
-4.7812
11
7.76463
21
-4.78026
0
LINE
8
BLACK
6
CONTINUOUS
10
7.76463
20
-4.78026
11
7.76516
21
-4.77946
0
LINE
8
BLACK
6
CONTINUOUS
10
7.76516
20
-4.77946
11
7.76596
21
-4.77892
0
LINE
8
BLACK
6
CONTINUOUS
10
7.76596
20
-4.77892
11
7.7669
21
-4.77874
0
LINE
8
BLACK
6
CONTINUOUS
10
7.7669
20
-4.77874
11
7.79643
21
-4.77874
0
LINE
8
BLACK
6
CONTINUOUS
10
7.79643
20
-4.77874
11
7.79737
21
-4.77892
0
LINE
8
BLACK
6
CONTINUOUS
10
8.06804
20
-4.77892
11
8.06884
21
-4.77946
0
LINE
8
BLACK
6
CONTINUOUS
10
8.06884
20
-4.77946
11
8.06937
21
-4.78026
0
LINE
8
BLACK
6
CONTINUOUS
10
8.06937
20
-4.78026
11
8.06956
21
-4.7812
0
LINE
8
BLACK
6
CONTINUOUS
10
8.06956
20
-4.7812
11
8.06956
21
-4.78612
0
LINE
8
BLACK
6
CONTINUOUS
10
8.06956
20
-4.78612
11
8.06937
21
-4.78706
0
LINE
8
BLACK
6
CONTINUOUS
10
8.06937
20
-4.78706
11
8.06884
21
-4.78786
0
LINE
8
BLACK
6
CONTINUOUS
10
8.06884
20
-4.78786
11
8.06804
21
-4.78839
0
LINE
8
BLACK
6
CONTINUOUS
10
8.06804
20
-4.78839
11
8.0671
21
-4.78858
0
LINE
8
BLACK
6
CONTINUOUS
10
8.0671
20
-4.78858
11
8.03757
21
-4.78858
0
LINE
8
BLACK
6
CONTINUOUS
10
8.03757
20
-4.78858
11
8.03663
21
-4.78839
0
LINE
8
BLACK
6
CONTINUOUS
10
8.03663
20
-4.78839
11
8.03583
21
-4.78786
0
LINE
8
BLACK
6
CONTINUOUS
10
8.03583
20
-4.78786
11
8.0353
21
-4.78706
0
LINE
8
BLACK
6
CONTINUOUS
10
8.0353
20
-4.78706
11
8.03511
21
-4.78612
0
LINE
8
BLACK
6
CONTINUOUS
10
8.03511
20
-4.78612
11
8.03511
21
-4.7812
0
LINE
8
BLACK
6
CONTINUOUS
10
8.03511
20
-4.7812
11
8.0353
21
-4.78026
0
LINE
8
BLACK
6
CONTINUOUS
10
8.0353
20
-4.78026
11
8.03583
21
-4.77946
0
LINE
8
BLACK
6
CONTINUOUS
10
8.03583
20
-4.77946
11
8.03663
21
-4.77892
0
LINE
8
BLACK
6
CONTINUOUS
10
8.03663
20
-4.77892
11
8.03757
21
-4.77874
0
LINE
8
BLACK
6
CONTINUOUS
10
8.03757
20
-4.77874
11
8.0671
21
-4.77874
0
LINE
8
BLACK
6
CONTINUOUS
10
8.0671
20
-4.77874
11
8.06804
21
-4.77892
0
LINE
8
BLACK
6
CONTINUOUS
10
7.85049
20
-4.74445
11
7.85368
21
-4.74658
0
LINE
8
BLACK
6
CONTINUOUS
10
7.85368
20
-4.74658
11
7.85582
21
-4.74977
0
LINE
8
BLACK
6
CONTINUOUS
10
7.85582
20
-4.74977
11
7.85657
21
-4.75354
0
LINE
8
BLACK
6
CONTINUOUS
10
7.85657
20
-4.75354
11
7.85657
21
-4.77834
0
LINE
8
BLACK
6
CONTINUOUS
10
7.85657
20
-4.77834
11
7.85582
21
-4.78211
0
LINE
8
BLACK
6
CONTINUOUS
10
7.85582
20
-4.78211
11
7.85368
21
-4.7853
0
LINE
8
BLACK
6
CONTINUOUS
10
7.85368
20
-4.7853
11
7.85049
21
-4.78744
0
LINE
8
BLACK
6
CONTINUOUS
10
7.85049
20
-4.78744
11
7.84672
21
-4.78819
0
LINE
8
BLACK
6
CONTINUOUS
10
7.84672
20
-4.78819
11
7.82192
21
-4.78819
0
LINE
8
BLACK
6
CONTINUOUS
10
7.82192
20
-4.78819
11
7.81815
21
-4.78744
0
LINE
8
BLACK
6
CONTINUOUS
10
7.81815
20
-4.78744
11
7.81496
21
-4.7853
0
LINE
8
BLACK
6
CONTINUOUS
10
7.81496
20
-4.7853
11
7.81283
21
-4.78211
0
LINE
8
BLACK
6
CONTINUOUS
10
7.81283
20
-4.78211
11
7.81208
21
-4.77834
0
LINE
8
BLACK
6
CONTINUOUS
10
7.81208
20
-4.77834
11
7.81208
21
-4.75354
0
LINE
8
BLACK
6
CONTINUOUS
10
7.81208
20
-4.75354
11
7.81283
21
-4.74977
0
LINE
8
BLACK
6
CONTINUOUS
10
7.81283
20
-4.74977
11
7.81496
21
-4.74658
0
LINE
8
BLACK
6
CONTINUOUS
10
7.81496
20
-4.74658
11
7.81815
21
-4.74445
0
LINE
8
BLACK
6
CONTINUOUS
10
7.81815
20
-4.74445
11
7.82192
21
-4.7437
0
LINE
8
BLACK
6
CONTINUOUS
10
7.82192
20
-4.7437
11
7.84672
21
-4.7437
0
LINE
8
BLACK
6
CONTINUOUS
10
7.84672
20
-4.7437
11
7.85049
21
-4.74445
0
LINE
8
BLACK
6
CONTINUOUS
10
7.90561
20
-4.74445
11
7.9088
21
-4.74658
0
LINE
8
BLACK
6
CONTINUOUS
10
7.9088
20
-4.74658
11
7.91094
21
-4.74977
0
LINE
8
BLACK
6
CONTINUOUS
10
7.91094
20
-4.74977
11
7.91169
21
-4.75354
0
LINE
8
BLACK
6
CONTINUOUS
10
7.91169
20
-4.75354
11
7.91169
21
-4.77834
0
LINE
8
BLACK
6
CONTINUOUS
10
7.91169
20
-4.77834
11
7.91094
21
-4.78211
0
LINE
8
BLACK
6
CONTINUOUS
10
7.91094
20
-4.78211
11
7.9088
21
-4.7853
0
LINE
8
BLACK
6
CONTINUOUS
10
7.9088
20
-4.7853
11
7.90561
21
-4.78744
0
LINE
8
BLACK
6
CONTINUOUS
10
7.90561
20
-4.78744
11
7.90184
21
-4.78819
0
LINE
8
BLACK
6
CONTINUOUS
10
7.90184
20
-4.78819
11
7.87704
21
-4.78819
0
LINE
8
BLACK
6
CONTINUOUS
10
7.87704
20
-4.78819
11
7.87327
21
-4.78744
0
LINE
8
BLACK
6
CONTINUOUS
10
7.87327
20
-4.78744
11
7.87008
21
-4.7853
0
LINE
8
BLACK
6
CONTINUOUS
10
7.87008
20
-4.7853
11
7.86795
21
-4.78211
0
LINE
8
BLACK
6
CONTINUOUS
10
7.86795
20
-4.78211
11
7.8672
21
-4.77834
0
LINE
8
BLACK
6
CONTINUOUS
10
7.8672
20
-4.77834
11
7.8672
21
-4.75354
0
LINE
8
BLACK
6
CONTINUOUS
10
7.8672
20
-4.75354
11
7.86795
21
-4.74977
0
LINE
8
BLACK
6
CONTINUOUS
10
7.86795
20
-4.74977
11
7.87008
21
-4.74658
0
LINE
8
BLACK
6
CONTINUOUS
10
7.87008
20
-4.74658
11
7.87327
21
-4.74445
0
LINE
8
BLACK
6
CONTINUOUS
10
7.87327
20
-4.74445
11
7.87704
21
-4.7437
0
LINE
8
BLACK
6
CONTINUOUS
10
7.87704
20
-4.7437
11
7.90184
21
-4.7437
0
LINE
8
BLACK
6
CONTINUOUS
10
7.90184
20
-4.7437
11
7.90561
21
-4.74445
0
LINE
8
BLACK
6
CONTINUOUS
10
7.96073
20
-4.74445
11
7.96392
21
-4.74658
0
LINE
8
BLACK
6
CONTINUOUS
10
7.96392
20
-4.74658
11
7.96605
21
-4.74977
0
LINE
8
BLACK
6
CONTINUOUS
10
7.96605
20
-4.74977
11
7.9668
21
-4.75354
0
LINE
8
BLACK
6
CONTINUOUS
10
7.9668
20
-4.75354
11
7.9668
21
-4.77834
0
LINE
8
BLACK
6
CONTINUOUS
10
7.9668
20
-4.77834
11
7.96605
21
-4.78211
0
LINE
8
BLACK
6
CONTINUOUS
10
7.96605
20
-4.78211
11
7.96392
21
-4.7853
0
LINE
8
BLACK
6
CONTINUOUS
10
7.96392
20
-4.7853
11
7.96073
21
-4.78744
0
LINE
8
BLACK
6
CONTINUOUS
10
7.96073
20
-4.78744
11
7.95696
21
-4.78819
0
LINE
8
BLACK
6
CONTINUOUS
10
7.95696
20
-4.78819
11
7.93216
21
-4.78819
0
LINE
8
BLACK
6
CONTINUOUS
10
7.93216
20
-4.78819
11
7.92839
21
-4.78744
0
LINE
8
BLACK
6
CONTINUOUS
10
7.92839
20
-4.78744
11
7.9252
21
-4.7853
0
LINE
8
BLACK
6
CONTINUOUS
10
7.9252
20
-4.7853
11
7.92306
21
-4.78211
0
LINE
8
BLACK
6
CONTINUOUS
10
7.92306
20
-4.78211
11
7.92231
21
-4.77834
0
LINE
8
BLACK
6
CONTINUOUS
10
7.92231
20
-4.77834
11
7.92231
21
-4.75354
0
LINE
8
BLACK
6
CONTINUOUS
10
7.92231
20
-4.75354
11
7.92306
21
-4.74977
0
LINE
8
BLACK
6
CONTINUOUS
10
7.92306
20
-4.74977
11
7.9252
21
-4.74658
0
LINE
8
BLACK
6
CONTINUOUS
10
7.9252
20
-4.74658
11
7.92839
21
-4.74445
0
LINE
8
BLACK
6
CONTINUOUS
10
7.92839
20
-4.74445
11
7.93216
21
-4.7437
0
LINE
8
BLACK
6
CONTINUOUS
10
7.93216
20
-4.7437
11
7.95696
21
-4.7437
0
LINE
8
BLACK
6
CONTINUOUS
10
7.95696
20
-4.7437
11
7.96073
21
-4.74445
0
LINE
8
BLACK
6
CONTINUOUS
10
8.01585
20
-4.74445
11
8.01904
21
-4.74658
0
LINE
8
BLACK
6
CONTINUOUS
10
8.01904
20
-4.74658
11
8.02117
21
-4.74977
0
LINE
8
BLACK
6
CONTINUOUS
10
8.02117
20
-4.74977
11
8.02192
21
-4.75354
0
LINE
8
BLACK
6
CONTINUOUS
10
8.02192
20
-4.75354
11
8.02192
21
-4.77834
0
LINE
8
BLACK
6
CONTINUOUS
10
8.02192
20
-4.77834
11
8.02117
21
-4.78211
0
LINE
8
BLACK
6
CONTINUOUS
10
8.02117
20
-4.78211
11
8.01904
21
-4.7853
0
LINE
8
BLACK
6
CONTINUOUS
10
8.01904
20
-4.7853
11
8.01585
21
-4.78744
0
LINE
8
BLACK
6
CONTINUOUS
10
8.01585
20
-4.78744
11
8.01208
21
-4.78819
0
LINE
8
BLACK
6
CONTINUOUS
10
8.01208
20
-4.78819
11
7.98728
21
-4.78819
0
LINE
8
BLACK
6
CONTINUOUS
10
7.98728
20
-4.78819
11
7.98351
21
-4.78744
0
LINE
8
BLACK
6
CONTINUOUS
10
7.98351
20
-4.78744
11
7.98032
21
-4.7853
0
LINE
8
BLACK
6
CONTINUOUS
10
7.98032
20
-4.7853
11
7.97818
21
-4.78211
0
LINE
8
BLACK
6
CONTINUOUS
10
7.97818
20
-4.78211
11
7.97743
21
-4.77834
0
LINE
8
BLACK
6
CONTINUOUS
10
7.97743
20
-4.77834
11
7.97743
21
-4.75354
0
LINE
8
BLACK
6
CONTINUOUS
10
7.97743
20
-4.75354
11
7.97818
21
-4.74977
0
LINE
8
BLACK
6
CONTINUOUS
10
7.97818
20
-4.74977
11
7.98032
21
-4.74658
0
LINE
8
BLACK
6
CONTINUOUS
10
7.98032
20
-4.74658
11
7.98351
21
-4.74445
0
LINE
8
BLACK
6
CONTINUOUS
10
7.98351
20
-4.74445
11
7.98728
21
-4.7437
0
LINE
8
BLACK
6
CONTINUOUS
10
7.98728
20
-4.7437
11
8.01208
21
-4.7437
0
LINE
8
BLACK
6
CONTINUOUS
10
8.01208
20
-4.7437
11
8.01585
21
-4.74445
0
LINE
8
BLACK
6
CONTINUOUS
10
7.79737
20
-4.75924
11
7.79817
21
-4.75977
0
LINE
8
BLACK
6
CONTINUOUS
10
7.79817
20
-4.75977
11
7.7987
21
-4.76057
0
LINE
8
BLACK
6
CONTINUOUS
10
7.7987
20
-4.76057
11
7.79889
21
-4.76151
0
LINE
8
BLACK
6
CONTINUOUS
10
7.79889
20
-4.76151
11
7.79889
21
-4.76643
0
LINE
8
BLACK
6
CONTINUOUS
10
7.79889
20
-4.76643
11
7.7987
21
-4.76737
0
LINE
8
BLACK
6
CONTINUOUS
10
7.7987
20
-4.76737
11
7.79817
21
-4.76817
0
LINE
8
BLACK
6
CONTINUOUS
10
7.79817
20
-4.76817
11
7.79737
21
-4.76871
0
LINE
8
BLACK
6
CONTINUOUS
10
7.79737
20
-4.76871
11
7.79643
21
-4.76889
0
LINE
8
BLACK
6
CONTINUOUS
10
7.79643
20
-4.76889
11
7.7669
21
-4.76889
0
LINE
8
BLACK
6
CONTINUOUS
10
7.7669
20
-4.76889
11
7.76596
21
-4.76871
0
LINE
8
BLACK
6
CONTINUOUS
10
7.76596
20
-4.76871
11
7.76516
21
-4.76817
0
LINE
8
BLACK
6
CONTINUOUS
10
7.76516
20
-4.76817
11
7.76463
21
-4.76737
0
LINE
8
BLACK
6
CONTINUOUS
10
7.76463
20
-4.76737
11
7.76444
21
-4.76643
0
LINE
8
BLACK
6
CONTINUOUS
10
7.76444
20
-4.76643
11
7.76444
21
-4.76151
0
LINE
8
BLACK
6
CONTINUOUS
10
7.76444
20
-4.76151
11
7.76463
21
-4.76057
0
LINE
8
BLACK
6
CONTINUOUS
10
7.76463
20
-4.76057
11
7.76516
21
-4.75977
0
LINE
8
BLACK
6
CONTINUOUS
10
7.76516
20
-4.75977
11
7.76596
21
-4.75924
0
LINE
8
BLACK
6
CONTINUOUS
10
7.76596
20
-4.75924
11
7.7669
21
-4.75905
0
LINE
8
BLACK
6
CONTINUOUS
10
7.7669
20
-4.75905
11
7.79643
21
-4.75905
0
LINE
8
BLACK
6
CONTINUOUS
10
7.79643
20
-4.75905
11
7.79737
21
-4.75924
0
LINE
8
BLACK
6
CONTINUOUS
10
8.06804
20
-4.75924
11
8.06884
21
-4.75977
0
LINE
8
BLACK
6
CONTINUOUS
10
8.06884
20
-4.75977
11
8.06937
21
-4.76057
0
LINE
8
BLACK
6
CONTINUOUS
10
8.06937
20
-4.76057
11
8.06956
21
-4.76151
0
LINE
8
BLACK
6
CONTINUOUS
10
8.06956
20
-4.76151
11
8.06956
21
-4.76643
0
LINE
8
BLACK
6
CONTINUOUS
10
8.06956
20
-4.76643
11
8.06937
21
-4.76737
0
LINE
8
BLACK
6
CONTINUOUS
10
8.06937
20
-4.76737
11
8.06884
21
-4.76817
0
LINE
8
BLACK
6
CONTINUOUS
10
8.06884
20
-4.76817
11
8.06804
21
-4.76871
0
LINE
8
BLACK
6
CONTINUOUS
10
8.06804
20
-4.76871
11
8.0671
21
-4.76889
0
LINE
8
BLACK
6
CONTINUOUS
10
8.0671
20
-4.76889
11
8.03757
21
-4.76889
0
LINE
8
BLACK
6
CONTINUOUS
10
8.03757
20
-4.76889
11
8.03663
21
-4.76871
0
LINE
8
BLACK
6
CONTINUOUS
10
8.03663
20
-4.76871
11
8.03583
21
-4.76817
0
LINE
8
BLACK
6
CONTINUOUS
10
8.03583
20
-4.76817
11
8.0353
21
-4.76737
0
LINE
8
BLACK
6
CONTINUOUS
10
8.0353
20
-4.76737
11
8.03511
21
-4.76643
0
LINE
8
BLACK
6
CONTINUOUS
10
8.03511
20
-4.76643
11
8.03511
21
-4.76151
0
LINE
8
BLACK
6
CONTINUOUS
10
8.03511
20
-4.76151
11
8.0353
21
-4.76057
0
LINE
8
BLACK
6
CONTINUOUS
10
8.0353
20
-4.76057
11
8.03583
21
-4.75977
0
LINE
8
BLACK
6
CONTINUOUS
10
8.03583
20
-4.75977
11
8.03663
21
-4.75924
0
LINE
8
BLACK
6
CONTINUOUS
10
8.03663
20
-4.75924
11
8.03757
21
-4.75905
0
LINE
8
BLACK
6
CONTINUOUS
10
8.03757
20
-4.75905
11
8.0671
21
-4.75905
0
LINE
8
BLACK
6
CONTINUOUS
10
8.0671
20
-4.75905
11
8.06804
21
-4.75924
0
LINE
8
BLACK
6
CONTINUOUS
10
6.67728
20
-4.75189
11
6.66154
21
-4.75189
0
LINE
8
BLACK
6
CONTINUOUS
10
6.66154
20
-4.75189
11
6.66154
21
-4.69283
0
LINE
8
BLACK
6
CONTINUOUS
10
6.66154
20
-4.69283
11
6.67728
21
-4.69283
0
LINE
8
BLACK
6
CONTINUOUS
10
6.67728
20
-4.69283
11
6.67728
21
-4.75189
0
LINE
8
BLACK
6
CONTINUOUS
10
6.70287
20
-4.75189
11
6.68713
21
-4.75189
0
LINE
8
BLACK
6
CONTINUOUS
10
6.68713
20
-4.75189
11
6.68713
21
-4.69283
0
LINE
8
BLACK
6
CONTINUOUS
10
6.68713
20
-4.69283
11
6.70287
21
-4.69283
0
LINE
8
BLACK
6
CONTINUOUS
10
6.70287
20
-4.69283
11
6.70287
21
-4.75189
0
LINE
8
BLACK
6
CONTINUOUS
10
6.72846
20
-4.75189
11
6.71272
21
-4.75189
0
LINE
8
BLACK
6
CONTINUOUS
10
6.71272
20
-4.75189
11
6.71272
21
-4.69283
0
LINE
8
BLACK
6
CONTINUOUS
10
6.71272
20
-4.69283
11
6.72846
21
-4.69283
0
LINE
8
BLACK
6
CONTINUOUS
10
6.72846
20
-4.69283
11
6.72846
21
-4.75189
0
LINE
8
BLACK
6
CONTINUOUS
10
7.79737
20
-4.73955
11
7.79817
21
-4.74009
0
LINE
8
BLACK
6
CONTINUOUS
10
7.79817
20
-4.74009
11
7.7987
21
-4.74089
0
LINE
8
BLACK
6
CONTINUOUS
10
7.7987
20
-4.74089
11
7.79889
21
-4.74183
0
LINE
8
BLACK
6
CONTINUOUS
10
7.79889
20
-4.74183
11
7.79889
21
-4.74675
0
LINE
8
BLACK
6
CONTINUOUS
10
7.79889
20
-4.74675
11
7.7987
21
-4.74769
0
LINE
8
BLACK
6
CONTINUOUS
10
7.7987
20
-4.74769
11
7.79817
21
-4.74849
0
LINE
8
BLACK
6
CONTINUOUS
10
7.79817
20
-4.74849
11
7.79737
21
-4.74902
0
LINE
8
BLACK
6
CONTINUOUS
10
7.79737
20
-4.74902
11
7.79643
21
-4.74921
0
LINE
8
BLACK
6
CONTINUOUS
10
7.79643
20
-4.74921
11
7.7669
21
-4.74921
0
LINE
8
BLACK
6
CONTINUOUS
10
7.7669
20
-4.74921
11
7.76596
21
-4.74902
0
LINE
8
BLACK
6
CONTINUOUS
10
7.76596
20
-4.74902
11
7.76516
21
-4.74849
0
LINE
8
BLACK
6
CONTINUOUS
10
7.76516
20
-4.74849
11
7.76463
21
-4.74769
0
LINE
8
BLACK
6
CONTINUOUS
10
7.76463
20
-4.74769
11
7.76444
21
-4.74675
0
LINE
8
BLACK
6
CONTINUOUS
10
7.76444
20
-4.74675
11
7.76444
21
-4.74183
0
LINE
8
BLACK
6
CONTINUOUS
10
7.76444
20
-4.74183
11
7.76463
21
-4.74089
0
LINE
8
BLACK
6
CONTINUOUS
10
7.76463
20
-4.74089
11
7.76516
21
-4.74009
0
LINE
8
BLACK
6
CONTINUOUS
10
7.76516
20
-4.74009
11
7.76596
21
-4.73955
0
LINE
8
BLACK
6
CONTINUOUS
10
7.76596
20
-4.73955
11
7.7669
21
-4.73937
0
LINE
8
BLACK
6
CONTINUOUS
10
7.7669
20
-4.73937
11
7.79643
21
-4.73937
0
LINE
8
BLACK
6
CONTINUOUS
10
7.79643
20
-4.73937
11
7.79737
21
-4.73955
0
LINE
8
BLACK
6
CONTINUOUS
10
8.06804
20
-4.73955
11
8.06884
21
-4.74009
0
LINE
8
BLACK
6
CONTINUOUS
10
8.06884
20
-4.74009
11
8.06937
21
-4.74089
0
LINE
8
BLACK
6
CONTINUOUS
10
8.06937
20
-4.74089
11
8.06956
21
-4.74183
0
LINE
8
BLACK
6
CONTINUOUS
10
8.06956
20
-4.74183
11
8.06956
21
-4.74675
0
LINE
8
BLACK
6
CONTINUOUS
10
8.06956
20
-4.74675
11
8.06937
21
-4.74769
0
LINE
8
BLACK
6
CONTINUOUS
10
8.06937
20
-4.74769
11
8.06884
21
-4.74849
0
LINE
8
BLACK
6
CONTINUOUS
10
8.06884
20
-4.74849
11
8.06804
21
-4.74902
0
LINE
8
BLACK
6
CONTINUOUS
10
8.06804
20
-4.74902
11
8.0671
21
-4.74921
0
LINE
8
BLACK
6
CONTINUOUS
10
8.0671
20
-4.74921
11
8.03757
21
-4.74921
0
LINE
8
BLACK
6
CONTINUOUS
10
8.03757
20
-4.74921
11
8.03663
21
-4.74902
0
LINE
8
BLACK
6
CONTINUOUS
10
8.03663
20
-4.74902
11
8.03583
21
-4.74849
0
LINE
8
BLACK
6
CONTINUOUS
10
8.03583
20
-4.74849
11
8.0353
21
-4.74769
0
LINE
8
BLACK
6
CONTINUOUS
10
8.0353
20
-4.74769
11
8.03511
21
-4.74675
0
LINE
8
BLACK
6
CONTINUOUS
10
8.03511
20
-4.74675
11
8.03511
21
-4.74183
0
LINE
8
BLACK
6
CONTINUOUS
10
8.03511
20
-4.74183
11
8.0353
21
-4.74089
0
LINE
8
BLACK
6
CONTINUOUS
10
8.0353
20
-4.74089
11
8.03583
21
-4.74009
0
LINE
8
BLACK
6
CONTINUOUS
10
8.03583
20
-4.74009
11
8.03663
21
-4.73955
0
LINE
8
BLACK
6
CONTINUOUS
10
8.03663
20
-4.73955
11
8.03757
21
-4.73937
0
LINE
8
BLACK
6
CONTINUOUS
10
8.03757
20
-4.73937
11
8.0671
21
-4.73937
0
LINE
8
BLACK
6
CONTINUOUS
10
8.0671
20
-4.73937
11
8.06804
21
-4.73955
0
LINE
8
BLACK
6
CONTINUOUS
10
7.85049
20
-4.68933
11
7.85368
21
-4.69146
0
LINE
8
BLACK
6
CONTINUOUS
10
7.85368
20
-4.69146
11
7.85582
21
-4.69465
0
LINE
8
BLACK
6
CONTINUOUS
10
7.85582
20
-4.69465
11
7.85657
21
-4.69842
0
LINE
8
BLACK
6
CONTINUOUS
10
7.85657
20
-4.69842
11
7.85657
21
-4.72322
0
LINE
8
BLACK
6
CONTINUOUS
10
7.85657
20
-4.72322
11
7.85582
21
-4.72699
0
LINE
8
BLACK
6
CONTINUOUS
10
7.85582
20
-4.72699
11
7.85368
21
-4.73018
0
LINE
8
BLACK
6
CONTINUOUS
10
7.85368
20
-4.73018
11
7.85049
21
-4.73232
0
LINE
8
BLACK
6
CONTINUOUS
10
7.85049
20
-4.73232
11
7.84672
21
-4.73307
0
LINE
8
BLACK
6
CONTINUOUS
10
7.84672
20
-4.73307
11
7.82192
21
-4.73307
0
LINE
8
BLACK
6
CONTINUOUS
10
7.82192
20
-4.73307
11
7.81815
21
-4.73232
0
LINE
8
BLACK
6
CONTINUOUS
10
7.81815
20
-4.73232
11
7.81496
21
-4.73018
0
LINE
8
BLACK
6
CONTINUOUS
10
7.81496
20
-4.73018
11
7.81283
21
-4.72699
0
LINE
8
BLACK
6
CONTINUOUS
10
7.81283
20
-4.72699
11
7.81208
21
-4.72322
0
LINE
8
BLACK
6
CONTINUOUS
10
7.81208
20
-4.72322
11
7.81208
21
-4.69842
0
LINE
8
BLACK
6
CONTINUOUS
10
7.81208
20
-4.69842
11
7.81283
21
-4.69465
0
LINE
8
BLACK
6
CONTINUOUS
10
7.81283
20
-4.69465
11
7.81496
21
-4.69146
0
LINE
8
BLACK
6
CONTINUOUS
10
7.81496
20
-4.69146
11
7.81815
21
-4.68933
0
LINE
8
BLACK
6
CONTINUOUS
10
7.81815
20
-4.68933
11
7.82192
21
-4.68858
0
LINE
8
BLACK
6
CONTINUOUS
10
7.82192
20
-4.68858
11
7.84672
21
-4.68858
0
LINE
8
BLACK
6
CONTINUOUS
10
7.84672
20
-4.68858
11
7.85049
21
-4.68933
0
LINE
8
BLACK
6
CONTINUOUS
10
7.90561
20
-4.68933
11
7.9088
21
-4.69146
0
LINE
8
BLACK
6
CONTINUOUS
10
7.9088
20
-4.69146
11
7.91094
21
-4.69465
0
LINE
8
BLACK
6
CONTINUOUS
10
7.91094
20
-4.69465
11
7.91169
21
-4.69842
0
LINE
8
BLACK
6
CONTINUOUS
10
7.91169
20
-4.69842
11
7.91169
21
-4.72322
0
LINE
8
BLACK
6
CONTINUOUS
10
7.91169
20
-4.72322
11
7.91094
21
-4.72699
0
LINE
8
BLACK
6
CONTINUOUS
10
7.91094
20
-4.72699
11
7.9088
21
-4.73018
0
LINE
8
BLACK
6
CONTINUOUS
10
7.9088
20
-4.73018
11
7.90561
21
-4.73232
0
LINE
8
BLACK
6
CONTINUOUS
10
7.90561
20
-4.73232
11
7.90184
21
-4.73307
0
LINE
8
BLACK
6
CONTINUOUS
10
7.90184
20
-4.73307
11
7.87704
21
-4.73307
0
LINE
8
BLACK
6
CONTINUOUS
10
7.87704
20
-4.73307
11
7.87327
21
-4.73232
0
LINE
8
BLACK
6
CONTINUOUS
10
7.87327
20
-4.73232
11
7.87008
21
-4.73018
0
LINE
8
BLACK
6
CONTINUOUS
10
7.87008
20
-4.73018
11
7.86795
21
-4.72699
0
LINE
8
BLACK
6
CONTINUOUS
10
7.86795
20
-4.72699
11
7.8672
21
-4.72322
0
LINE
8
BLACK
6
CONTINUOUS
10
7.8672
20
-4.72322
11
7.8672
21
-4.69842
0
LINE
8
BLACK
6
CONTINUOUS
10
7.8672
20
-4.69842
11
7.86795
21
-4.69465
0
LINE
8
BLACK
6
CONTINUOUS
10
7.86795
20
-4.69465
11
7.87008
21
-4.69146
0
LINE
8
BLACK
6
CONTINUOUS
10
7.87008
20
-4.69146
11
7.87327
21
-4.68933
0
LINE
8
BLACK
6
CONTINUOUS
10
7.87327
20
-4.68933
11
7.87704
21
-4.68858
0
LINE
8
BLACK
6
CONTINUOUS
10
7.87704
20
-4.68858
11
7.90184
21
-4.68858
0
LINE
8
BLACK
6
CONTINUOUS
10
7.90184
20
-4.68858
11
7.90561
21
-4.68933
0
LINE
8
BLACK
6
CONTINUOUS
10
7.96073
20
-4.68933
11
7.96392
21
-4.69146
0
LINE
8
BLACK
6
CONTINUOUS
10
7.96392
20
-4.69146
11
7.96605
21
-4.69465
0
LINE
8
BLACK
6
CONTINUOUS
10
7.96605
20
-4.69465
11
7.9668
21
-4.69842
0
LINE
8
BLACK
6
CONTINUOUS
10
7.9668
20
-4.69842
11
7.9668
21
-4.72322
0
LINE
8
BLACK
6
CONTINUOUS
10
7.9668
20
-4.72322
11
7.96605
21
-4.72699
0
LINE
8
BLACK
6
CONTINUOUS
10
7.96605
20
-4.72699
11
7.96392
21
-4.73018
0
LINE
8
BLACK
6
CONTINUOUS
10
7.96392
20
-4.73018
11
7.96073
21
-4.73232
0
LINE
8
BLACK
6
CONTINUOUS
10
7.96073
20
-4.73232
11
7.95696
21
-4.73307
0
LINE
8
BLACK
6
CONTINUOUS
10
7.95696
20
-4.73307
11
7.93216
21
-4.73307
0
LINE
8
BLACK
6
CONTINUOUS
10
7.93216
20
-4.73307
11
7.92839
21
-4.73232
0
LINE
8
BLACK
6
CONTINUOUS
10
7.92839
20
-4.73232
11
7.9252
21
-4.73018
0
LINE
8
BLACK
6
CONTINUOUS
10
7.9252
20
-4.73018
11
7.92306
21
-4.72699
0
LINE
8
BLACK
6
CONTINUOUS
10
7.92306
20
-4.72699
11
7.92231
21
-4.72322
0
LINE
8
BLACK
6
CONTINUOUS
10
7.92231
20
-4.72322
11
7.92231
21
-4.69842
0
LINE
8
BLACK
6
CONTINUOUS
10
7.92231
20
-4.69842
11
7.92306
21
-4.69465
0
LINE
8
BLACK
6
CONTINUOUS
10
7.92306
20
-4.69465
11
7.9252
21
-4.69146
0
LINE
8
BLACK
6
CONTINUOUS
10
7.9252
20
-4.69146
11
7.92839
21
-4.68933
0
LINE
8
BLACK
6
CONTINUOUS
10
7.92839
20
-4.68933
11
7.93216
21
-4.68858
0
LINE
8
BLACK
6
CONTINUOUS
10
7.93216
20
-4.68858
11
7.95696
21
-4.68858
0
LINE
8
BLACK
6
CONTINUOUS
10
7.95696
20
-4.68858
11
7.96073
21
-4.68933
0
LINE
8
BLACK
6
CONTINUOUS
10
8.01585
20
-4.68933
11
8.01904
21
-4.69146
0
LINE
8
BLACK
6
CONTINUOUS
10
8.01904
20
-4.69146
11
8.02117
21
-4.69465
0
LINE
8
BLACK
6
CONTINUOUS
10
8.02117
20
-4.69465
11
8.02192
21
-4.69842
0
LINE
8
BLACK
6
CONTINUOUS
10
8.02192
20
-4.69842
11
8.02192
21
-4.72322
0
LINE
8
BLACK
6
CONTINUOUS
10
8.02192
20
-4.72322
11
8.02117
21
-4.72699
0
LINE
8
BLACK
6
CONTINUOUS
10
8.02117
20
-4.72699
11
8.01904
21
-4.73018
0
LINE
8
BLACK
6
CONTINUOUS
10
8.01904
20
-4.73018
11
8.01585
21
-4.73232
0
LINE
8
BLACK
6
CONTINUOUS
10
8.01585
20
-4.73232
11
8.01208
21
-4.73307
0
LINE
8
BLACK
6
CONTINUOUS
10
8.01208
20
-4.73307
11
7.98728
21
-4.73307
0
LINE
8
BLACK
6
CONTINUOUS
10
7.98728
20
-4.73307
11
7.98351
21
-4.73232
0
LINE
8
BLACK
6
CONTINUOUS
10
7.98351
20
-4.73232
11
7.98032
21
-4.73018
0
LINE
8
BLACK
6
CONTINUOUS
10
7.98032
20
-4.73018
11
7.97818
21
-4.72699
0
LINE
8
BLACK
6
CONTINUOUS
10
7.97818
20
-4.72699
11
7.97743
21
-4.72322
0
LINE
8
BLACK
6
CONTINUOUS
10
7.97743
20
-4.72322
11
7.97743
21
-4.69842
0
LINE
8
BLACK
6
CONTINUOUS
10
7.97743
20
-4.69842
11
7.97818
21
-4.69465
0
LINE
8
BLACK
6
CONTINUOUS
10
7.97818
20
-4.69465
11
7.98032
21
-4.69146
0
LINE
8
BLACK
6
CONTINUOUS
10
7.98032
20
-4.69146
11
7.98351
21
-4.68933
0
LINE
8
BLACK
6
CONTINUOUS
10
7.98351
20
-4.68933
11
7.98728
21
-4.68858
0
LINE
8
BLACK
6
CONTINUOUS
10
7.98728
20
-4.68858
11
8.01208
21
-4.68858
0
LINE
8
BLACK
6
CONTINUOUS
10
8.01208
20
-4.68858
11
8.01585
21
-4.68933
0
LINE
8
BLACK
6
CONTINUOUS
10
7.79737
20
-4.71987
11
7.79817
21
-4.7204
0
LINE
8
BLACK
6
CONTINUOUS
10
7.79817
20
-4.7204
11
7.7987
21
-4.7212
0
LINE
8
BLACK
6
CONTINUOUS
10
7.7987
20
-4.7212
11
7.79889
21
-4.72214
0
LINE
8
BLACK
6
CONTINUOUS
10
7.79889
20
-4.72214
11
7.79889
21
-4.72706
0
LINE
8
BLACK
6
CONTINUOUS
10
7.79889
20
-4.72706
11
7.7987
21
-4.728
0
LINE
8
BLACK
6
CONTINUOUS
10
7.7987
20
-4.728
11
7.79817
21
-4.7288
0
LINE
8
BLACK
6
CONTINUOUS
10
7.79817
20
-4.7288
11
7.79737
21
-4.72934
0
LINE
8
BLACK
6
CONTINUOUS
10
7.79737
20
-4.72934
11
7.79643
21
-4.72952
0
LINE
8
BLACK
6
CONTINUOUS
10
7.79643
20
-4.72952
11
7.7669
21
-4.72952
0
LINE
8
BLACK
6
CONTINUOUS
10
7.7669
20
-4.72952
11
7.76596
21
-4.72934
0
LINE
8
BLACK
6
CONTINUOUS
10
7.76596
20
-4.72934
11
7.76516
21
-4.7288
0
LINE
8
BLACK
6
CONTINUOUS
10
7.76516
20
-4.7288
11
7.76463
21
-4.728
0
LINE
8
BLACK
6
CONTINUOUS
10
7.76463
20
-4.728
11
7.76444
21
-4.72706
0
LINE
8
BLACK
6
CONTINUOUS
10
7.76444
20
-4.72706
11
7.76444
21
-4.72214
0
LINE
8
BLACK
6
CONTINUOUS
10
7.76444
20
-4.72214
11
7.76463
21
-4.7212
0
LINE
8
BLACK
6
CONTINUOUS
10
7.76463
20
-4.7212
11
7.76516
21
-4.7204
0
LINE
8
BLACK
6
CONTINUOUS
10
7.76516
20
-4.7204
11
7.76596
21
-4.71987
0
LINE
8
BLACK
6
CONTINUOUS
10
7.76596
20
-4.71987
11
7.7669
21
-4.71968
0
LINE
8
BLACK
6
CONTINUOUS
10
7.7669
20
-4.71968
11
7.79643
21
-4.71968
0
LINE
8
BLACK
6
CONTINUOUS
10
7.79643
20
-4.71968
11
7.79737
21
-4.71987
0
LINE
8
BLACK
6
CONTINUOUS
10
8.06804
20
-4.71987
11
8.06884
21
-4.7204
0
LINE
8
BLACK
6
CONTINUOUS
10
8.06884
20
-4.7204
11
8.06937
21
-4.7212
0
LINE
8
BLACK
6
CONTINUOUS
10
8.06937
20
-4.7212
11
8.06956
21
-4.72214
0
LINE
8
BLACK
6
CONTINUOUS
10
8.06956
20
-4.72214
11
8.06956
21
-4.72706
0
LINE
8
BLACK
6
CONTINUOUS
10
8.06956
20
-4.72706
11
8.06937
21
-4.728
0
LINE
8
BLACK
6
CONTINUOUS
10
8.06937
20
-4.728
11
8.06884
21
-4.7288
0
LINE
8
BLACK
6
CONTINUOUS
10
8.06884
20
-4.7288
11
8.06804
21
-4.72934
0
LINE
8
BLACK
6
CONTINUOUS
10
8.06804
20
-4.72934
11
8.0671
21
-4.72952
0
LINE
8
BLACK
6
CONTINUOUS
10
8.0671
20
-4.72952
11
8.03757
21
-4.72952
0
LINE
8
BLACK
6
CONTINUOUS
10
8.03757
20
-4.72952
11
8.03663
21
-4.72934
0
LINE
8
BLACK
6
CONTINUOUS
10
8.03663
20
-4.72934
11
8.03583
21
-4.7288
0
LINE
8
BLACK
6
CONTINUOUS
10
8.03583
20
-4.7288
11
8.0353
21
-4.728
0
LINE
8
BLACK
6
CONTINUOUS
10
8.0353
20
-4.728
11
8.03511
21
-4.72706
0
LINE
8
BLACK
6
CONTINUOUS
10
8.03511
20
-4.72706
11
8.03511
21
-4.72214
0
LINE
8
BLACK
6
CONTINUOUS
10
8.03511
20
-4.72214
11
8.0353
21
-4.7212
0
LINE
8
BLACK
6
CONTINUOUS
10
8.0353
20
-4.7212
11
8.03583
21
-4.7204
0
LINE
8
BLACK
6
CONTINUOUS
10
8.03583
20
-4.7204
11
8.03663
21
-4.71987
0
LINE
8
BLACK
6
CONTINUOUS
10
8.03663
20
-4.71987
11
8.03757
21
-4.71968
0
LINE
8
BLACK
6
CONTINUOUS
10
8.03757
20
-4.71968
11
8.0671
21
-4.71968
0
LINE
8
BLACK
6
CONTINUOUS
10
8.0671
20
-4.71968
11
8.06804
21
-4.71987
0
LINE
8
BLACK
6
CONTINUOUS
10
7.79737
20
-4.70018
11
7.79817
21
-4.70072
0
LINE
8
BLACK
6
CONTINUOUS
10
7.79817
20
-4.70072
11
7.7987
21
-4.70152
0
LINE
8
BLACK
6
CONTINUOUS
10
7.7987
20
-4.70152
11
7.79889
21
-4.70246
0
LINE
8
BLACK
6
CONTINUOUS
10
7.79889
20
-4.70246
11
7.79889
21
-4.70738
0
LINE
8
BLACK
6
CONTINUOUS
10
7.79889
20
-4.70738
11
7.7987
21
-4.70832
0
LINE
8
BLACK
6
CONTINUOUS
10
7.7987
20
-4.70832
11
7.79817
21
-4.70912
0
LINE
8
BLACK
6
CONTINUOUS
10
7.79817
20
-4.70912
11
7.79737
21
-4.70965
0
LINE
8
BLACK
6
CONTINUOUS
10
7.79737
20
-4.70965
11
7.79643
21
-4.70984
0
LINE
8
BLACK
6
CONTINUOUS
10
7.79643
20
-4.70984
11
7.7669
21
-4.70984
0
LINE
8
BLACK
6
CONTINUOUS
10
7.7669
20
-4.70984
11
7.76596
21
-4.70965
0
LINE
8
BLACK
6
CONTINUOUS
10
7.76596
20
-4.70965
11
7.76516
21
-4.70912
0
LINE
8
BLACK
6
CONTINUOUS
10
7.76516
20
-4.70912
11
7.76463
21
-4.70832
0
LINE
8
BLACK
6
CONTINUOUS
10
7.76463
20
-4.70832
11
7.76444
21
-4.70738
0
LINE
8
BLACK
6
CONTINUOUS
10
7.76444
20
-4.70738
11
7.76444
21
-4.70246
0
LINE
8
BLACK
6
CONTINUOUS
10
7.76444
20
-4.70246
11
7.76463
21
-4.70152
0
LINE
8
BLACK
6
CONTINUOUS
10
7.76463
20
-4.70152
11
7.76516
21
-4.70072
0
LINE
8
BLACK
6
CONTINUOUS
10
7.76516
20
-4.70072
11
7.76596
21
-4.70018
0
LINE
8
BLACK
6
CONTINUOUS
10
7.76596
20
-4.70018
11
7.7669
21
-4.7
0
LINE
8
BLACK
6
CONTINUOUS
10
7.7669
20
-4.7
11
7.79643
21
-4.7
0
LINE
8
BLACK
6
CONTINUOUS
10
7.79643
20
-4.7
11
7.79737
21
-4.70018
0
LINE
8
BLACK
6
CONTINUOUS
10
8.06804
20
-4.70018
11
8.06884
21
-4.70072
0
LINE
8
BLACK
6
CONTINUOUS
10
8.06884
20
-4.70072
11
8.06937
21
-4.70152
0
LINE
8
BLACK
6
CONTINUOUS
10
8.06937
20
-4.70152
11
8.06956
21
-4.70246
0
LINE
8
BLACK
6
CONTINUOUS
10
8.06956
20
-4.70246
11
8.06956
21
-4.70738
0
LINE
8
BLACK
6
CONTINUOUS
10
8.06956
20
-4.70738
11
8.06937
21
-4.70832
0
LINE
8
BLACK
6
CONTINUOUS
10
8.06937
20
-4.70832
11
8.06884
21
-4.70912
0
LINE
8
BLACK
6
CONTINUOUS
10
8.06884
20
-4.70912
11
8.06804
21
-4.70965
0
LINE
8
BLACK
6
CONTINUOUS
10
8.06804
20
-4.70965
11
8.0671
21
-4.70984
0
LINE
8
BLACK
6
CONTINUOUS
10
8.0671
20
-4.70984
11
8.03757
21
-4.70984
0
LINE
8
BLACK
6
CONTINUOUS
10
8.03757
20
-4.70984
11
8.03663
21
-4.70965
0
LINE
8
BLACK
6
CONTINUOUS
10
8.03663
20
-4.70965
11
8.03583
21
-4.70912
0
LINE
8
BLACK
6
CONTINUOUS
10
8.03583
20
-4.70912
11
8.0353
21
-4.70832
0
LINE
8
BLACK
6
CONTINUOUS
10
8.0353
20
-4.70832
11
8.03511
21
-4.70738
0
LINE
8
BLACK
6
CONTINUOUS
10
8.03511
20
-4.70738
11
8.03511
21
-4.70246
0
LINE
8
BLACK
6
CONTINUOUS
10
8.03511
20
-4.70246
11
8.0353
21
-4.70152
0
LINE
8
BLACK
6
CONTINUOUS
10
8.0353
20
-4.70152
11
8.03583
21
-4.70072
0
LINE
8
BLACK
6
CONTINUOUS
10
8.03583
20
-4.70072
11
8.03663
21
-4.70018
0
LINE
8
BLACK
6
CONTINUOUS
10
8.03663
20
-4.70018
11
8.03757
21
-4.7
0
LINE
8
BLACK
6
CONTINUOUS
10
8.03757
20
-4.7
11
8.0671
21
-4.7
0
LINE
8
BLACK
6
CONTINUOUS
10
8.0671
20
-4.7
11
8.06804
21
-4.70018
0
LINE
8
BLACK
6
CONTINUOUS
10
6.60247
20
-4.67097
11
6.60566
21
-4.6731
0
LINE
8
BLACK
6
CONTINUOUS
10
6.60566
20
-4.6731
11
6.60779
21
-4.67629
0
LINE
8
BLACK
6
CONTINUOUS
10
6.60779
20
-4.67629
11
6.60854
21
-4.68006
0
LINE
8
BLACK
6
CONTINUOUS
10
6.60854
20
-4.68006
11
6.60854
21
-4.69974
0
LINE
8
BLACK
6
CONTINUOUS
10
6.60854
20
-4.69974
11
6.60779
21
-4.70351
0
LINE
8
BLACK
6
CONTINUOUS
10
6.60779
20
-4.70351
11
6.60566
21
-4.7067
0
LINE
8
BLACK
6
CONTINUOUS
10
6.60566
20
-4.7067
11
6.60247
21
-4.70884
0
LINE
8
BLACK
6
CONTINUOUS
10
6.60247
20
-4.70884
11
6.5987
21
-4.70959
0
LINE
8
BLACK
6
CONTINUOUS
10
6.5987
20
-4.70959
11
6.5613
21
-4.70959
0
LINE
8
BLACK
6
CONTINUOUS
10
6.5613
20
-4.70959
11
6.55753
21
-4.70884
0
LINE
8
BLACK
6
CONTINUOUS
10
6.55753
20
-4.70884
11
6.55434
21
-4.7067
0
LINE
8
BLACK
6
CONTINUOUS
10
6.55434
20
-4.7067
11
6.55221
21
-4.70351
0
LINE
8
BLACK
6
CONTINUOUS
10
6.55221
20
-4.70351
11
6.55146
21
-4.69974
0
LINE
8
BLACK
6
CONTINUOUS
10
6.55146
20
-4.69974
11
6.55146
21
-4.68006
0
LINE
8
BLACK
6
CONTINUOUS
10
6.55146
20
-4.68006
11
6.55221
21
-4.67629
0
LINE
8
BLACK
6
CONTINUOUS
10
6.55221
20
-4.67629
11
6.55434
21
-4.6731
0
LINE
8
BLACK
6
CONTINUOUS
10
6.55434
20
-4.6731
11
6.55753
21
-4.67097
0
LINE
8
BLACK
6
CONTINUOUS
10
6.55753
20
-4.67097
11
6.5613
21
-4.67022
0
LINE
8
BLACK
6
CONTINUOUS
10
6.5613
20
-4.67022
11
6.5987
21
-4.67022
0
LINE
8
BLACK
6
CONTINUOUS
10
6.5987
20
-4.67022
11
6.60247
21
-4.67097
0
LINE
8
BLACK
6
CONTINUOUS
10
6.52247
20
-4.66847
11
6.52566
21
-4.6706
0
LINE
8
BLACK
6
CONTINUOUS
10
6.52566
20
-4.6706
11
6.52779
21
-4.67379
0
LINE
8
BLACK
6
CONTINUOUS
10
6.52779
20
-4.67379
11
6.52854
21
-4.67756
0
LINE
8
BLACK
6
CONTINUOUS
10
6.52854
20
-4.67756
11
6.52854
21
-4.69724
0
LINE
8
BLACK
6
CONTINUOUS
10
6.52854
20
-4.69724
11
6.52779
21
-4.70101
0
LINE
8
BLACK
6
CONTINUOUS
10
6.52779
20
-4.70101
11
6.52566
21
-4.7042
0
LINE
8
BLACK
6
CONTINUOUS
10
6.52566
20
-4.7042
11
6.52247
21
-4.70634
0
LINE
8
BLACK
6
CONTINUOUS
10
6.52247
20
-4.70634
11
6.5187
21
-4.70709
0
LINE
8
BLACK
6
CONTINUOUS
10
6.5187
20
-4.70709
11
6.4813
21
-4.70709
0
LINE
8
BLACK
6
CONTINUOUS
10
6.4813
20
-4.70709
11
6.47753
21
-4.70634
0
LINE
8
BLACK
6
CONTINUOUS
10
6.47753
20
-4.70634
11
6.47434
21
-4.7042
0
LINE
8
BLACK
6
CONTINUOUS
10
6.47434
20
-4.7042
11
6.47221
21
-4.70101
0
LINE
8
BLACK
6
CONTINUOUS
10
6.47221
20
-4.70101
11
6.47146
21
-4.69724
0
LINE
8
BLACK
6
CONTINUOUS
10
6.47146
20
-4.69724
11
6.47146
21
-4.67756
0
LINE
8
BLACK
6
CONTINUOUS
10
6.47146
20
-4.67756
11
6.47221
21
-4.67379
0
LINE
8
BLACK
6
CONTINUOUS
10
6.47221
20
-4.67379
11
6.47434
21
-4.6706
0
LINE
8
BLACK
6
CONTINUOUS
10
6.47434
20
-4.6706
11
6.47753
21
-4.66847
0
LINE
8
BLACK
6
CONTINUOUS
10
6.47753
20
-4.66847
11
6.4813
21
-4.66772
0
LINE
8
BLACK
6
CONTINUOUS
10
6.4813
20
-4.66772
11
6.5187
21
-4.66772
0
LINE
8
BLACK
6
CONTINUOUS
10
6.5187
20
-4.66772
11
6.52247
21
-4.66847
0
LINE
8
BLACK
6
CONTINUOUS
10
7.24306
20
-4.64717
11
7.24625
21
-4.6493
0
LINE
8
BLACK
6
CONTINUOUS
10
7.24625
20
-4.6493
11
7.2727
21
-4.67575
0
LINE
8
BLACK
6
CONTINUOUS
10
7.2727
20
-4.67575
11
7.27483
21
-4.67894
0
LINE
8
BLACK
6
CONTINUOUS
10
7.27483
20
-4.67894
11
7.27558
21
-4.68271
0
LINE
8
BLACK
6
CONTINUOUS
10
7.27558
20
-4.68271
11
7.27483
21
-4.68648
0
LINE
8
BLACK
6
CONTINUOUS
10
7.27483
20
-4.68648
11
7.2727
21
-4.68967
0
LINE
8
BLACK
6
CONTINUOUS
10
7.2727
20
-4.68967
11
7.25878
21
-4.70359
0
LINE
8
BLACK
6
CONTINUOUS
10
7.25878
20
-4.70359
11
7.25558
21
-4.70572
0
LINE
8
BLACK
6
CONTINUOUS
10
7.25558
20
-4.70572
11
7.25182
21
-4.70647
0
LINE
8
BLACK
6
CONTINUOUS
10
7.25182
20
-4.70647
11
7.24805
21
-4.70572
0
LINE
8
BLACK
6
CONTINUOUS
10
7.24805
20
-4.70572
11
7.24486
21
-4.70359
0
LINE
8
BLACK
6
CONTINUOUS
10
7.24486
20
-4.70359
11
7.21841
21
-4.67714
0
LINE
8
BLACK
6
CONTINUOUS
10
7.21841
20
-4.67714
11
7.21628
21
-4.67395
0
LINE
8
BLACK
6
CONTINUOUS
10
7.21628
20
-4.67395
11
7.21553
21
-4.67018
0
LINE
8
BLACK
6
CONTINUOUS
10
7.21553
20
-4.67018
11
7.21628
21
-4.66642
0
LINE
8
BLACK
6
CONTINUOUS
10
7.21628
20
-4.66642
11
7.21841
21
-4.66322
0
LINE
8
BLACK
6
CONTINUOUS
10
7.21841
20
-4.66322
11
7.23233
21
-4.6493
0
LINE
8
BLACK
6
CONTINUOUS
10
7.23233
20
-4.6493
11
7.23552
21
-4.64717
0
LINE
8
BLACK
6
CONTINUOUS
10
7.23552
20
-4.64717
11
7.23929
21
-4.64642
0
LINE
8
BLACK
6
CONTINUOUS
10
7.23929
20
-4.64642
11
7.24306
21
-4.64717
0
LINE
8
BLACK
6
CONTINUOUS
10
7.79737
20
-4.6805
11
7.79817
21
-4.68103
0
LINE
8
BLACK
6
CONTINUOUS
10
7.79817
20
-4.68103
11
7.7987
21
-4.68183
0
LINE
8
BLACK
6
CONTINUOUS
10
7.7987
20
-4.68183
11
7.79889
21
-4.68277
0
LINE
8
BLACK
6
CONTINUOUS
10
7.79889
20
-4.68277
11
7.79889
21
-4.68769
0
LINE
8
BLACK
6
CONTINUOUS
10
7.79889
20
-4.68769
11
7.7987
21
-4.68863
0
LINE
8
BLACK
6
CONTINUOUS
10
7.7987
20
-4.68863
11
7.79817
21
-4.68943
0
LINE
8
BLACK
6
CONTINUOUS
10
7.79817
20
-4.68943
11
7.79737
21
-4.68997
0
LINE
8
BLACK
6
CONTINUOUS
10
7.79737
20
-4.68997
11
7.79643
21
-4.69015
0
LINE
8
BLACK
6
CONTINUOUS
10
7.79643
20
-4.69015
11
7.7669
21
-4.69015
0
LINE
8
BLACK
6
CONTINUOUS
10
7.7669
20
-4.69015
11
7.76596
21
-4.68997
0
LINE
8
BLACK
6
CONTINUOUS
10
7.76596
20
-4.68997
11
7.76516
21
-4.68943
0
LINE
8
BLACK
6
CONTINUOUS
10
7.76516
20
-4.68943
11
7.76463
21
-4.68863
0
LINE
8
BLACK
6
CONTINUOUS
10
7.76463
20
-4.68863
11
7.76444
21
-4.68769
0
LINE
8
BLACK
6
CONTINUOUS
10
7.76444
20
-4.68769
11
7.76444
21
-4.68277
0
LINE
8
BLACK
6
CONTINUOUS
10
7.76444
20
-4.68277
11
7.76463
21
-4.68183
0
LINE
8
BLACK
6
CONTINUOUS
10
7.76463
20
-4.68183
11
7.76516
21
-4.68103
0
LINE
8
BLACK
6
CONTINUOUS
10
7.76516
20
-4.68103
11
7.76596
21
-4.6805
0
LINE
8
BLACK
6
CONTINUOUS
10
7.76596
20
-4.6805
11
7.7669
21
-4.68031
0
LINE
8
BLACK
6
CONTINUOUS
10
7.7669
20
-4.68031
11
7.79643
21
-4.68031
0
LINE
8
BLACK
6
CONTINUOUS
10
7.79643
20
-4.68031
11
7.79737
21
-4.6805
0
LINE
8
BLACK
6
CONTINUOUS
10
8.06804
20
-4.6805
11
8.06884
21
-4.68103
0
LINE
8
BLACK
6
CONTINUOUS
10
8.06884
20
-4.68103
11
8.06937
21
-4.68183
0
LINE
8
BLACK
6
CONTINUOUS
10
8.06937
20
-4.68183
11
8.06956
21
-4.68277
0
LINE
8
BLACK
6
CONTINUOUS
10
8.06956
20
-4.68277
11
8.06956
21
-4.68769
0
LINE
8
BLACK
6
CONTINUOUS
10
8.06956
20
-4.68769
11
8.06937
21
-4.68863
0
LINE
8
BLACK
6
CONTINUOUS
10
8.06937
20
-4.68863
11
8.06884
21
-4.68943
0
LINE
8
BLACK
6
CONTINUOUS
10
8.06884
20
-4.68943
11
8.06804
21
-4.68997
0
LINE
8
BLACK
6
CONTINUOUS
10
8.06804
20
-4.68997
11
8.0671
21
-4.69015
0
LINE
8
BLACK
6
CONTINUOUS
10
8.0671
20
-4.69015
11
8.03757
21
-4.69015
0
LINE
8
BLACK
6
CONTINUOUS
10
8.03757
20
-4.69015
11
8.03663
21
-4.68997
0
LINE
8
BLACK
6
CONTINUOUS
10
8.03663
20
-4.68997
11
8.03583
21
-4.68943
0
LINE
8
BLACK
6
CONTINUOUS
10
8.03583
20
-4.68943
11
8.0353
21
-4.68863
0
LINE
8
BLACK
6
CONTINUOUS
10
8.0353
20
-4.68863
11
8.03511
21
-4.68769
0
LINE
8
BLACK
6
CONTINUOUS
10
8.03511
20
-4.68769
11
8.03511
21
-4.68277
0
LINE
8
BLACK
6
CONTINUOUS
10
8.03511
20
-4.68277
11
8.0353
21
-4.68183
0
LINE
8
BLACK
6
CONTINUOUS
10
8.0353
20
-4.68183
11
8.03583
21
-4.68103
0
LINE
8
BLACK
6
CONTINUOUS
10
8.03583
20
-4.68103
11
8.03663
21
-4.6805
0
LINE
8
BLACK
6
CONTINUOUS
10
8.03663
20
-4.6805
11
8.03757
21
-4.68031
0
LINE
8
BLACK
6
CONTINUOUS
10
8.03757
20
-4.68031
11
8.0671
21
-4.68031
0
LINE
8
BLACK
6
CONTINUOUS
10
8.0671
20
-4.68031
11
8.06804
21
-4.6805
0
LINE
8
BLACK
6
CONTINUOUS
10
7.81213
20
-4.64113
11
7.81293
21
-4.64166
0
LINE
8
BLACK
6
CONTINUOUS
10
7.81293
20
-4.64166
11
7.81347
21
-4.64246
0
LINE
8
BLACK
6
CONTINUOUS
10
7.81347
20
-4.64246
11
7.81365
21
-4.6434
0
LINE
8
BLACK
6
CONTINUOUS
10
7.81365
20
-4.6434
11
7.81365
21
-4.67293
0
LINE
8
BLACK
6
CONTINUOUS
10
7.81365
20
-4.67293
11
7.81347
21
-4.67387
0
LINE
8
BLACK
6
CONTINUOUS
10
7.81347
20
-4.67387
11
7.81293
21
-4.67467
0
LINE
8
BLACK
6
CONTINUOUS
10
7.81293
20
-4.67467
11
7.81213
21
-4.6752
0
LINE
8
BLACK
6
CONTINUOUS
10
7.81213
20
-4.6752
11
7.81119
21
-4.67539
0
LINE
8
BLACK
6
CONTINUOUS
10
7.81119
20
-4.67539
11
7.80627
21
-4.67539
0
LINE
8
BLACK
6
CONTINUOUS
10
7.80627
20
-4.67539
11
7.80533
21
-4.6752
0
LINE
8
BLACK
6
CONTINUOUS
10
7.80533
20
-4.6752
11
7.80453
21
-4.67467
0
LINE
8
BLACK
6
CONTINUOUS
10
7.80453
20
-4.67467
11
7.804
21
-4.67387
0
LINE
8
BLACK
6
CONTINUOUS
10
7.804
20
-4.67387
11
7.80381
21
-4.67293
0
LINE
8
BLACK
6
CONTINUOUS
10
7.80381
20
-4.67293
11
7.80381
21
-4.6434
0
LINE
8
BLACK
6
CONTINUOUS
10
7.80381
20
-4.6434
11
7.804
21
-4.64246
0
LINE
8
BLACK
6
CONTINUOUS
10
7.804
20
-4.64246
11
7.80453
21
-4.64166
0
LINE
8
BLACK
6
CONTINUOUS
10
7.80453
20
-4.64166
11
7.80533
21
-4.64113
0
LINE
8
BLACK
6
CONTINUOUS
10
7.80533
20
-4.64113
11
7.80627
21
-4.64094
0
LINE
8
BLACK
6
CONTINUOUS
10
7.80627
20
-4.64094
11
7.81119
21
-4.64094
0
LINE
8
BLACK
6
CONTINUOUS
10
7.81119
20
-4.64094
11
7.81213
21
-4.64113
0
LINE
8
BLACK
6
CONTINUOUS
10
7.83182
20
-4.64113
11
7.83262
21
-4.64166
0
LINE
8
BLACK
6
CONTINUOUS
10
7.83262
20
-4.64166
11
7.83315
21
-4.64246
0
LINE
8
BLACK
6
CONTINUOUS
10
7.83315
20
-4.64246
11
7.83334
21
-4.6434
0
LINE
8
BLACK
6
CONTINUOUS
10
7.83334
20
-4.6434
11
7.83334
21
-4.67293
0
LINE
8
BLACK
6
CONTINUOUS
10
7.83334
20
-4.67293
11
7.83315
21
-4.67387
0
LINE
8
BLACK
6
CONTINUOUS
10
7.83315
20
-4.67387
11
7.83262
21
-4.67467
0
LINE
8
BLACK
6
CONTINUOUS
10
7.83262
20
-4.67467
11
7.83182
21
-4.6752
0
LINE
8
BLACK
6
CONTINUOUS
10
7.83182
20
-4.6752
11
7.83088
21
-4.67539
0
LINE
8
BLACK
6
CONTINUOUS
10
7.83088
20
-4.67539
11
7.82596
21
-4.67539
0
LINE
8
BLACK
6
CONTINUOUS
10
7.82596
20
-4.67539
11
7.82502
21
-4.6752
0
LINE
8
BLACK
6
CONTINUOUS
10
7.82502
20
-4.6752
11
7.82422
21
-4.67467
0
LINE
8
BLACK
6
CONTINUOUS
10
7.82422
20
-4.67467
11
7.82368
21
-4.67387
0
LINE
8
BLACK
6
CONTINUOUS
10
7.82368
20
-4.67387
11
7.8235
21
-4.67293
0
LINE
8
BLACK
6
CONTINUOUS
10
7.8235
20
-4.67293
11
7.8235
21
-4.6434
0
LINE
8
BLACK
6
CONTINUOUS
10
7.8235
20
-4.6434
11
7.82368
21
-4.64246
0
LINE
8
BLACK
6
CONTINUOUS
10
7.82368
20
-4.64246
11
7.82422
21
-4.64166
0
LINE
8
BLACK
6
CONTINUOUS
10
7.82422
20
-4.64166
11
7.82502
21
-4.64113
0
LINE
8
BLACK
6
CONTINUOUS
10
7.82502
20
-4.64113
11
7.82596
21
-4.64094
0
LINE
8
BLACK
6
CONTINUOUS
10
7.82596
20
-4.64094
11
7.83088
21
-4.64094
0
LINE
8
BLACK
6
CONTINUOUS
10
7.83088
20
-4.64094
11
7.83182
21
-4.64113
0
LINE
8
BLACK
6
CONTINUOUS
10
7.8515
20
-4.64113
11
7.8523
21
-4.64166
0
LINE
8
BLACK
6
CONTINUOUS
10
7.8523
20
-4.64166
11
7.85284
21
-4.64246
0
LINE
8
BLACK
6
CONTINUOUS
10
7.85284
20
-4.64246
11
7.85302
21
-4.6434
0
LINE
8
BLACK
6
CONTINUOUS
10
7.85302
20
-4.6434
11
7.85302
21
-4.67293
0
LINE
8
BLACK
6
CONTINUOUS
10
7.85302
20
-4.67293
11
7.85284
21
-4.67387
0
LINE
8
BLACK
6
CONTINUOUS
10
7.85284
20
-4.67387
11
7.8523
21
-4.67467
0
LINE
8
BLACK
6
CONTINUOUS
10
7.8523
20
-4.67467
11
7.8515
21
-4.6752
0
LINE
8
BLACK
6
CONTINUOUS
10
7.8515
20
-4.6752
11
7.85056
21
-4.67539
0
LINE
8
BLACK
6
CONTINUOUS
10
7.85056
20
-4.67539
11
7.84564
21
-4.67539
0
LINE
8
BLACK
6
CONTINUOUS
10
7.84564
20
-4.67539
11
7.8447
21
-4.6752
0
LINE
8
BLACK
6
CONTINUOUS
10
7.8447
20
-4.6752
11
7.8439
21
-4.67467
0
LINE
8
BLACK
6
CONTINUOUS
10
7.8439
20
-4.67467
11
7.84337
21
-4.67387
0
LINE
8
BLACK
6
CONTINUOUS
10
7.84337
20
-4.67387
11
7.84318
21
-4.67293
0
LINE
8
BLACK
6
CONTINUOUS
10
7.84318
20
-4.67293
11
7.84318
21
-4.6434
0
LINE
8
BLACK
6
CONTINUOUS
10
7.84318
20
-4.6434
11
7.84337
21
-4.64246
0
LINE
8
BLACK
6
CONTINUOUS
10
7.84337
20
-4.64246
11
7.8439
21
-4.64166
0
LINE
8
BLACK
6
CONTINUOUS
10
7.8439
20
-4.64166
11
7.8447
21
-4.64113
0
LINE
8
BLACK
6
CONTINUOUS
10
7.8447
20
-4.64113
11
7.84564
21
-4.64094
0
LINE
8
BLACK
6
CONTINUOUS
10
7.84564
20
-4.64094
11
7.85056
21
-4.64094
0
LINE
8
BLACK
6
CONTINUOUS
10
7.85056
20
-4.64094
11
7.8515
21
-4.64113
0
LINE
8
BLACK
6
CONTINUOUS
10
7.87119
20
-4.64113
11
7.87199
21
-4.64166
0
LINE
8
BLACK
6
CONTINUOUS
10
7.87199
20
-4.64166
11
7.87252
21
-4.64246
0
LINE
8
BLACK
6
CONTINUOUS
10
7.87252
20
-4.64246
11
7.87271
21
-4.6434
0
LINE
8
BLACK
6
CONTINUOUS
10
7.87271
20
-4.6434
11
7.87271
21
-4.67293
0
LINE
8
BLACK
6
CONTINUOUS
10
7.87271
20
-4.67293
11
7.87252
21
-4.67387
0
LINE
8
BLACK
6
CONTINUOUS
10
7.87252
20
-4.67387
11
7.87199
21
-4.67467
0
LINE
8
BLACK
6
CONTINUOUS
10
7.87199
20
-4.67467
11
7.87119
21
-4.6752
0
LINE
8
BLACK
6
CONTINUOUS
10
7.87119
20
-4.6752
11
7.87025
21
-4.67539
0
LINE
8
BLACK
6
CONTINUOUS
10
7.87025
20
-4.67539
11
7.86533
21
-4.67539
0
LINE
8
BLACK
6
CONTINUOUS
10
7.86533
20
-4.67539
11
7.86439
21
-4.6752
0
LINE
8
BLACK
6
CONTINUOUS
10
7.86439
20
-4.6752
11
7.86359
21
-4.67467
0
LINE
8
BLACK
6
CONTINUOUS
10
7.86359
20
-4.67467
11
7.86305
21
-4.67387
0
LINE
8
BLACK
6
CONTINUOUS
10
7.86305
20
-4.67387
11
7.86287
21
-4.67293
0
LINE
8
BLACK
6
CONTINUOUS
10
7.86287
20
-4.67293
11
7.86287
21
-4.6434
0
LINE
8
BLACK
6
CONTINUOUS
10
7.86287
20
-4.6434
11
7.86305
21
-4.64246
0
LINE
8
BLACK
6
CONTINUOUS
10
7.86305
20
-4.64246
11
7.86359
21
-4.64166
0
LINE
8
BLACK
6
CONTINUOUS
10
7.86359
20
-4.64166
11
7.86439
21
-4.64113
0
LINE
8
BLACK
6
CONTINUOUS
10
7.86439
20
-4.64113
11
7.86533
21
-4.64094
0
LINE
8
BLACK
6
CONTINUOUS
10
7.86533
20
-4.64094
11
7.87025
21
-4.64094
0
LINE
8
BLACK
6
CONTINUOUS
10
7.87025
20
-4.64094
11
7.87119
21
-4.64113
0
LINE
8
BLACK
6
CONTINUOUS
10
7.89087
20
-4.64113
11
7.89167
21
-4.64166
0
LINE
8
BLACK
6
CONTINUOUS
10
7.89167
20
-4.64166
11
7.89221
21
-4.64246
0
LINE
8
BLACK
6
CONTINUOUS
10
7.89221
20
-4.64246
11
7.89239
21
-4.6434
0
LINE
8
BLACK
6
CONTINUOUS
10
7.89239
20
-4.6434
11
7.89239
21
-4.67293
0
LINE
8
BLACK
6
CONTINUOUS
10
7.89239
20
-4.67293
11
7.89221
21
-4.67387
0
LINE
8
BLACK
6
CONTINUOUS
10
7.89221
20
-4.67387
11
7.89167
21
-4.67467
0
LINE
8
BLACK
6
CONTINUOUS
10
7.89167
20
-4.67467
11
7.89087
21
-4.6752
0
LINE
8
BLACK
6
CONTINUOUS
10
7.89087
20
-4.6752
11
7.88993
21
-4.67539
0
LINE
8
BLACK
6
CONTINUOUS
10
7.88993
20
-4.67539
11
7.88501
21
-4.67539
0
LINE
8
BLACK
6
CONTINUOUS
10
7.88501
20
-4.67539
11
7.88407
21
-4.6752
0
LINE
8
BLACK
6
CONTINUOUS
10
7.88407
20
-4.6752
11
7.88327
21
-4.67467
0
LINE
8
BLACK
6
CONTINUOUS
10
7.88327
20
-4.67467
11
7.88274
21
-4.67387
0
LINE
8
BLACK
6
CONTINUOUS
10
7.88274
20
-4.67387
11
7.88255
21
-4.67293
0
LINE
8
BLACK
6
CONTINUOUS
10
7.88255
20
-4.67293
11
7.88255
21
-4.6434
0
LINE
8
BLACK
6
CONTINUOUS
10
7.88255
20
-4.6434
11
7.88274
21
-4.64246
0
LINE
8
BLACK
6
CONTINUOUS
10
7.88274
20
-4.64246
11
7.88327
21
-4.64166
0
LINE
8
BLACK
6
CONTINUOUS
10
7.88327
20
-4.64166
11
7.88407
21
-4.64113
0
LINE
8
BLACK
6
CONTINUOUS
10
7.88407
20
-4.64113
11
7.88501
21
-4.64094
0
LINE
8
BLACK
6
CONTINUOUS
10
7.88501
20
-4.64094
11
7.88993
21
-4.64094
0
LINE
8
BLACK
6
CONTINUOUS
10
7.88993
20
-4.64094
11
7.89087
21
-4.64113
0
LINE
8
BLACK
6
CONTINUOUS
10
7.91056
20
-4.64113
11
7.91136
21
-4.64166
0
LINE
8
BLACK
6
CONTINUOUS
10
7.91136
20
-4.64166
11
7.91189
21
-4.64246
0
LINE
8
BLACK
6
CONTINUOUS
10
7.91189
20
-4.64246
11
7.91208
21
-4.6434
0
LINE
8
BLACK
6
CONTINUOUS
10
7.91208
20
-4.6434
11
7.91208
21
-4.67293
0
LINE
8
BLACK
6
CONTINUOUS
10
7.91208
20
-4.67293
11
7.91189
21
-4.67387
0
LINE
8
BLACK
6
CONTINUOUS
10
7.91189
20
-4.67387
11
7.91136
21
-4.67467
0
LINE
8
BLACK
6
CONTINUOUS
10
7.91136
20
-4.67467
11
7.91056
21
-4.6752
0
LINE
8
BLACK
6
CONTINUOUS
10
7.91056
20
-4.6752
11
7.90962
21
-4.67539
0
LINE
8
BLACK
6
CONTINUOUS
10
7.90962
20
-4.67539
11
7.9047
21
-4.67539
0
LINE
8
BLACK
6
CONTINUOUS
10
7.9047
20
-4.67539
11
7.90376
21
-4.6752
0
LINE
8
BLACK
6
CONTINUOUS
10
7.90376
20
-4.6752
11
7.90296
21
-4.67467
0
LINE
8
BLACK
6
CONTINUOUS
10
7.90296
20
-4.67467
11
7.90242
21
-4.67387
0
LINE
8
BLACK
6
CONTINUOUS
10
7.90242
20
-4.67387
11
7.90224
21
-4.67293
0
LINE
8
BLACK
6
CONTINUOUS
10
7.90224
20
-4.67293
11
7.90224
21
-4.6434
0
LINE
8
BLACK
6
CONTINUOUS
10
7.90224
20
-4.6434
11
7.90242
21
-4.64246
0
LINE
8
BLACK
6
CONTINUOUS
10
7.90242
20
-4.64246
11
7.90296
21
-4.64166
0
LINE
8
BLACK
6
CONTINUOUS
10
7.90296
20
-4.64166
11
7.90376
21
-4.64113
0
LINE
8
BLACK
6
CONTINUOUS
10
7.90376
20
-4.64113
11
7.9047
21
-4.64094
0
LINE
8
BLACK
6
CONTINUOUS
10
7.9047
20
-4.64094
11
7.90962
21
-4.64094
0
LINE
8
BLACK
6
CONTINUOUS
10
7.90962
20
-4.64094
11
7.91056
21
-4.64113
0
LINE
8
BLACK
6
CONTINUOUS
10
7.93024
20
-4.64113
11
7.93104
21
-4.64166
0
LINE
8
BLACK
6
CONTINUOUS
10
7.93104
20
-4.64166
11
7.93158
21
-4.64246
0
LINE
8
BLACK
6
CONTINUOUS
10
7.93158
20
-4.64246
11
7.93176
21
-4.6434
0
LINE
8
BLACK
6
CONTINUOUS
10
7.93176
20
-4.6434
11
7.93176
21
-4.67293
0
LINE
8
BLACK
6
CONTINUOUS
10
7.93176
20
-4.67293
11
7.93158
21
-4.67387
0
LINE
8
BLACK
6
CONTINUOUS
10
7.93158
20
-4.67387
11
7.93104
21
-4.67467
0
LINE
8
BLACK
6
CONTINUOUS
10
7.93104
20
-4.67467
11
7.93024
21
-4.6752
0
LINE
8
BLACK
6
CONTINUOUS
10
7.93024
20
-4.6752
11
7.9293
21
-4.67539
0
LINE
8
BLACK
6
CONTINUOUS
10
7.9293
20
-4.67539
11
7.92438
21
-4.67539
0
LINE
8
BLACK
6
CONTINUOUS
10
7.92438
20
-4.67539
11
7.92344
21
-4.6752
0
LINE
8
BLACK
6
CONTINUOUS
10
7.92344
20
-4.6752
11
7.92264
21
-4.67467
0
LINE
8
BLACK
6
CONTINUOUS
10
7.92264
20
-4.67467
11
7.92211
21
-4.67387
0
LINE
8
BLACK
6
CONTINUOUS
10
7.92211
20
-4.67387
11
7.92192
21
-4.67293
0
LINE
8
BLACK
6
CONTINUOUS
10
7.92192
20
-4.67293
11
7.92192
21
-4.6434
0
LINE
8
BLACK
6
CONTINUOUS
10
7.92192
20
-4.6434
11
7.92211
21
-4.64246
0
LINE
8
BLACK
6
CONTINUOUS
10
7.92211
20
-4.64246
11
7.92264
21
-4.64166
0
LINE
8
BLACK
6
CONTINUOUS
10
7.92264
20
-4.64166
11
7.92344
21
-4.64113
0
LINE
8
BLACK
6
CONTINUOUS
10
7.92344
20
-4.64113
11
7.92438
21
-4.64094
0
LINE
8
BLACK
6
CONTINUOUS
10
7.92438
20
-4.64094
11
7.9293
21
-4.64094
0
LINE
8
BLACK
6
CONTINUOUS
10
7.9293
20
-4.64094
11
7.93024
21
-4.64113
0
LINE
8
BLACK
6
CONTINUOUS
10
7.94993
20
-4.64113
11
7.95073
21
-4.64166
0
LINE
8
BLACK
6
CONTINUOUS
10
7.95073
20
-4.64166
11
7.95126
21
-4.64246
0
LINE
8
BLACK
6
CONTINUOUS
10
7.95126
20
-4.64246
11
7.95145
21
-4.6434
0
LINE
8
BLACK
6
CONTINUOUS
10
7.95145
20
-4.6434
11
7.95145
21
-4.67293
0
LINE
8
BLACK
6
CONTINUOUS
10
7.95145
20
-4.67293
11
7.95126
21
-4.67387
0
LINE
8
BLACK
6
CONTINUOUS
10
7.95126
20
-4.67387
11
7.95073
21
-4.67467
0
LINE
8
BLACK
6
CONTINUOUS
10
7.95073
20
-4.67467
11
7.94993
21
-4.6752
0
LINE
8
BLACK
6
CONTINUOUS
10
7.94993
20
-4.6752
11
7.94899
21
-4.67539
0
LINE
8
BLACK
6
CONTINUOUS
10
7.94899
20
-4.67539
11
7.94407
21
-4.67539
0
LINE
8
BLACK
6
CONTINUOUS
10
7.94407
20
-4.67539
11
7.94313
21
-4.6752
0
LINE
8
BLACK
6
CONTINUOUS
10
7.94313
20
-4.6752
11
7.94233
21
-4.67467
0
LINE
8
BLACK
6
CONTINUOUS
10
7.94233
20
-4.67467
11
7.94179
21
-4.67387
0
LINE
8
BLACK
6
CONTINUOUS
10
7.94179
20
-4.67387
11
7.94161
21
-4.67293
0
LINE
8
BLACK
6
CONTINUOUS
10
7.94161
20
-4.67293
11
7.94161
21
-4.6434
0
LINE
8
BLACK
6
CONTINUOUS
10
7.94161
20
-4.6434
11
7.94179
21
-4.64246
0
LINE
8
BLACK
6
CONTINUOUS
10
7.94179
20
-4.64246
11
7.94233
21
-4.64166
0
LINE
8
BLACK
6
CONTINUOUS
10
7.94233
20
-4.64166
11
7.94313
21
-4.64113
0
LINE
8
BLACK
6
CONTINUOUS
10
7.94313
20
-4.64113
11
7.94407
21
-4.64094
0
LINE
8
BLACK
6
CONTINUOUS
10
7.94407
20
-4.64094
11
7.94899
21
-4.64094
0
LINE
8
BLACK
6
CONTINUOUS
10
7.94899
20
-4.64094
11
7.94993
21
-4.64113
0
LINE
8
BLACK
6
CONTINUOUS
10
7.96961
20
-4.64113
11
7.97041
21
-4.64166
0
LINE
8
BLACK
6
CONTINUOUS
10
7.97041
20
-4.64166
11
7.97095
21
-4.64246
0
LINE
8
BLACK
6
CONTINUOUS
10
7.97095
20
-4.64246
11
7.97113
21
-4.6434
0
LINE
8
BLACK
6
CONTINUOUS
10
7.97113
20
-4.6434
11
7.97113
21
-4.67293
0
LINE
8
BLACK
6
CONTINUOUS
10
7.97113
20
-4.67293
11
7.97095
21
-4.67387
0
LINE
8
BLACK
6
CONTINUOUS
10
7.97095
20
-4.67387
11
7.97041
21
-4.67467
0
LINE
8
BLACK
6
CONTINUOUS
10
7.97041
20
-4.67467
11
7.96961
21
-4.6752
0
LINE
8
BLACK
6
CONTINUOUS
10
7.96961
20
-4.6752
11
7.96867
21
-4.67539
0
LINE
8
BLACK
6
CONTINUOUS
10
7.96867
20
-4.67539
11
7.96375
21
-4.67539
0
LINE
8
BLACK
6
CONTINUOUS
10
7.96375
20
-4.67539
11
7.96281
21
-4.6752
0
LINE
8
BLACK
6
CONTINUOUS
10
7.96281
20
-4.6752
11
7.96201
21
-4.67467
0
LINE
8
BLACK
6
CONTINUOUS
10
7.96201
20
-4.67467
11
7.96148
21
-4.67387
0
LINE
8
BLACK
6
CONTINUOUS
10
7.96148
20
-4.67387
11
7.96129
21
-4.67293
0
LINE
8
BLACK
6
CONTINUOUS
10
7.96129
20
-4.67293
11
7.96129
21
-4.6434
0
LINE
8
BLACK
6
CONTINUOUS
10
7.96129
20
-4.6434
11
7.96148
21
-4.64246
0
LINE
8
BLACK
6
CONTINUOUS
10
7.96148
20
-4.64246
11
7.96201
21
-4.64166
0
LINE
8
BLACK
6
CONTINUOUS
10
7.96201
20
-4.64166
11
7.96281
21
-4.64113
0
LINE
8
BLACK
6
CONTINUOUS
10
7.96281
20
-4.64113
11
7.96375
21
-4.64094
0
LINE
8
BLACK
6
CONTINUOUS
10
7.96375
20
-4.64094
11
7.96867
21
-4.64094
0
LINE
8
BLACK
6
CONTINUOUS
10
7.96867
20
-4.64094
11
7.96961
21
-4.64113
0
LINE
8
BLACK
6
CONTINUOUS
10
7.9893
20
-4.64113
11
7.9901
21
-4.64166
0
LINE
8
BLACK
6
CONTINUOUS
10
7.9901
20
-4.64166
11
7.99063
21
-4.64246
0
LINE
8
BLACK
6
CONTINUOUS
10
7.99063
20
-4.64246
11
7.99082
21
-4.6434
0
LINE
8
BLACK
6
CONTINUOUS
10
7.99082
20
-4.6434
11
7.99082
21
-4.67293
0
LINE
8
BLACK
6
CONTINUOUS
10
7.99082
20
-4.67293
11
7.99063
21
-4.67387
0
LINE
8
BLACK
6
CONTINUOUS
10
7.99063
20
-4.67387
11
7.9901
21
-4.67467
0
LINE
8
BLACK
6
CONTINUOUS
10
7.9901
20
-4.67467
11
7.9893
21
-4.6752
0
LINE
8
BLACK
6
CONTINUOUS
10
7.9893
20
-4.6752
11
7.98836
21
-4.67539
0
LINE
8
BLACK
6
CONTINUOUS
10
7.98836
20
-4.67539
11
7.98344
21
-4.67539
0
LINE
8
BLACK
6
CONTINUOUS
10
7.98344
20
-4.67539
11
7.9825
21
-4.6752
0
LINE
8
BLACK
6
CONTINUOUS
10
7.9825
20
-4.6752
11
7.9817
21
-4.67467
0
LINE
8
BLACK
6
CONTINUOUS
10
7.9817
20
-4.67467
11
7.98116
21
-4.67387
0
LINE
8
BLACK
6
CONTINUOUS
10
7.98116
20
-4.67387
11
7.98098
21
-4.67293
0
LINE
8
BLACK
6
CONTINUOUS
10
7.98098
20
-4.67293
11
7.98098
21
-4.6434
0
LINE
8
BLACK
6
CONTINUOUS
10
7.98098
20
-4.6434
11
7.98116
21
-4.64246
0
LINE
8
BLACK
6
CONTINUOUS
10
7.98116
20
-4.64246
11
7.9817
21
-4.64166
0
LINE
8
BLACK
6
CONTINUOUS
10
7.9817
20
-4.64166
11
7.9825
21
-4.64113
0
LINE
8
BLACK
6
CONTINUOUS
10
7.9825
20
-4.64113
11
7.98344
21
-4.64094
0
LINE
8
BLACK
6
CONTINUOUS
10
7.98344
20
-4.64094
11
7.98836
21
-4.64094
0
LINE
8
BLACK
6
CONTINUOUS
10
7.98836
20
-4.64094
11
7.9893
21
-4.64113
0
LINE
8
BLACK
6
CONTINUOUS
10
8.00898
20
-4.64113
11
8.00978
21
-4.64166
0
LINE
8
BLACK
6
CONTINUOUS
10
8.00978
20
-4.64166
11
8.01032
21
-4.64246
0
LINE
8
BLACK
6
CONTINUOUS
10
8.01032
20
-4.64246
11
8.0105
21
-4.6434
0
LINE
8
BLACK
6
CONTINUOUS
10
8.0105
20
-4.6434
11
8.0105
21
-4.67293
0
LINE
8
BLACK
6
CONTINUOUS
10
8.0105
20
-4.67293
11
8.01032
21
-4.67387
0
LINE
8
BLACK
6
CONTINUOUS
10
8.01032
20
-4.67387
11
8.00978
21
-4.67467
0
LINE
8
BLACK
6
CONTINUOUS
10
8.00978
20
-4.67467
11
8.00898
21
-4.6752
0
LINE
8
BLACK
6
CONTINUOUS
10
8.00898
20
-4.6752
11
8.00804
21
-4.67539
0
LINE
8
BLACK
6
CONTINUOUS
10
8.00804
20
-4.67539
11
8.00312
21
-4.67539
0
LINE
8
BLACK
6
CONTINUOUS
10
8.00312
20
-4.67539
11
8.00218
21
-4.6752
0
LINE
8
BLACK
6
CONTINUOUS
10
8.00218
20
-4.6752
11
8.00138
21
-4.67467
0
LINE
8
BLACK
6
CONTINUOUS
10
8.00138
20
-4.67467
11
8.00085
21
-4.67387
0
LINE
8
BLACK
6
CONTINUOUS
10
8.00085
20
-4.67387
11
8.00066
21
-4.67293
0
LINE
8
BLACK
6
CONTINUOUS
10
8.00066
20
-4.67293
11
8.00066
21
-4.6434
0
LINE
8
BLACK
6
CONTINUOUS
10
8.00066
20
-4.6434
11
8.00085
21
-4.64246
0
LINE
8
BLACK
6
CONTINUOUS
10
8.00085
20
-4.64246
11
8.00138
21
-4.64166
0
LINE
8
BLACK
6
CONTINUOUS
10
8.00138
20
-4.64166
11
8.00218
21
-4.64113
0
LINE
8
BLACK
6
CONTINUOUS
10
8.00218
20
-4.64113
11
8.00312
21
-4.64094
0
LINE
8
BLACK
6
CONTINUOUS
10
8.00312
20
-4.64094
11
8.00804
21
-4.64094
0
LINE
8
BLACK
6
CONTINUOUS
10
8.00804
20
-4.64094
11
8.00898
21
-4.64113
0
LINE
8
BLACK
6
CONTINUOUS
10
8.02867
20
-4.64113
11
8.02947
21
-4.64166
0
LINE
8
BLACK
6
CONTINUOUS
10
8.02947
20
-4.64166
11
8.03
21
-4.64246
0
LINE
8
BLACK
6
CONTINUOUS
10
8.03
20
-4.64246
11
8.03019
21
-4.6434
0
LINE
8
BLACK
6
CONTINUOUS
10
8.03019
20
-4.6434
11
8.03019
21
-4.67293
0
LINE
8
BLACK
6
CONTINUOUS
10
8.03019
20
-4.67293
11
8.03
21
-4.67387
0
LINE
8
BLACK
6
CONTINUOUS
10
8.03
20
-4.67387
11
8.02947
21
-4.67467
0
LINE
8
BLACK
6
CONTINUOUS
10
8.02947
20
-4.67467
11
8.02867
21
-4.6752
0
LINE
8
BLACK
6
CONTINUOUS
10
8.02867
20
-4.6752
11
8.02773
21
-4.67539
0
LINE
8
BLACK
6
CONTINUOUS
10
8.02773
20
-4.67539
11
8.02281
21
-4.67539
0
LINE
8
BLACK
6
CONTINUOUS
10
8.02281
20
-4.67539
11
8.02187
21
-4.6752
0
LINE
8
BLACK
6
CONTINUOUS
10
8.02187
20
-4.6752
11
8.02107
21
-4.67467
0
LINE
8
BLACK
6
CONTINUOUS
10
8.02107
20
-4.67467
11
8.02053
21
-4.67387
0
LINE
8
BLACK
6
CONTINUOUS
10
8.02053
20
-4.67387
11
8.02035
21
-4.67293
0
LINE
8
BLACK
6
CONTINUOUS
10
8.02035
20
-4.67293
11
8.02035
21
-4.6434
0
LINE
8
BLACK
6
CONTINUOUS
10
8.02035
20
-4.6434
11
8.02053
21
-4.64246
0
LINE
8
BLACK
6
CONTINUOUS
10
8.02053
20
-4.64246
11
8.02107
21
-4.64166
0
LINE
8
BLACK
6
CONTINUOUS
10
8.02107
20
-4.64166
11
8.02187
21
-4.64113
0
LINE
8
BLACK
6
CONTINUOUS
10
8.02187
20
-4.64113
11
8.02281
21
-4.64094
0
LINE
8
BLACK
6
CONTINUOUS
10
8.02281
20
-4.64094
11
8.02773
21
-4.64094
0
LINE
8
BLACK
6
CONTINUOUS
10
8.02773
20
-4.64094
11
8.02867
21
-4.64113
0
LINE
8
BLACK
6
CONTINUOUS
10
7.29595
20
-4.59428
11
7.29914
21
-4.59641
0
LINE
8
BLACK
6
CONTINUOUS
10
7.29914
20
-4.59641
11
7.32559
21
-4.62286
0
LINE
8
BLACK
6
CONTINUOUS
10
7.32559
20
-4.62286
11
7.32772
21
-4.62605
0
LINE
8
BLACK
6
CONTINUOUS
10
7.32772
20
-4.62605
11
7.32847
21
-4.62982
0
LINE
8
BLACK
6
CONTINUOUS
10
7.32847
20
-4.62982
11
7.32772
21
-4.63358
0
LINE
8
BLACK
6
CONTINUOUS
10
7.32772
20
-4.63358
11
7.32559
21
-4.63678
0
LINE
8
BLACK
6
CONTINUOUS
10
7.32559
20
-4.63678
11
7.31167
21
-4.6507
0
LINE
8
BLACK
6
CONTINUOUS
10
7.31167
20
-4.6507
11
7.30848
21
-4.65283
0
LINE
8
BLACK
6
CONTINUOUS
10
7.30848
20
-4.65283
11
7.30471
21
-4.65358
0
LINE
8
BLACK
6
CONTINUOUS
10
7.30471
20
-4.65358
11
7.30094
21
-4.65283
0
LINE
8
BLACK
6
CONTINUOUS
10
7.30094
20
-4.65283
11
7.29775
21
-4.6507
0
LINE
8
BLACK
6
CONTINUOUS
10
7.29775
20
-4.6507
11
7.2713
21
-4.62425
0
LINE
8
BLACK
6
CONTINUOUS
10
7.2713
20
-4.62425
11
7.26917
21
-4.62106
0
LINE
8
BLACK
6
CONTINUOUS
10
7.26917
20
-4.62106
11
7.26842
21
-4.61729
0
LINE
8
BLACK
6
CONTINUOUS
10
7.26842
20
-4.61729
11
7.26917
21
-4.61352
0
LINE
8
BLACK
6
CONTINUOUS
10
7.26917
20
-4.61352
11
7.2713
21
-4.61033
0
LINE
8
BLACK
6
CONTINUOUS
10
7.2713
20
-4.61033
11
7.28522
21
-4.59641
0
LINE
8
BLACK
6
CONTINUOUS
10
7.28522
20
-4.59641
11
7.28842
21
-4.59428
0
LINE
8
BLACK
6
CONTINUOUS
10
7.28842
20
-4.59428
11
7.29218
21
-4.59353
0
LINE
8
BLACK
6
CONTINUOUS
10
7.29218
20
-4.59353
11
7.29595
21
-4.59428
0
LINE
8
BLACK
6
CONTINUOUS
10
6.67728
20
-4.64717
11
6.66154
21
-4.64717
0
LINE
8
BLACK
6
CONTINUOUS
10
6.66154
20
-4.64717
11
6.66154
21
-4.58811
0
LINE
8
BLACK
6
CONTINUOUS
10
6.66154
20
-4.58811
11
6.67728
21
-4.58811
0
LINE
8
BLACK
6
CONTINUOUS
10
6.67728
20
-4.58811
11
6.67728
21
-4.64717
0
LINE
8
BLACK
6
CONTINUOUS
10
6.70287
20
-4.64717
11
6.68713
21
-4.64717
0
LINE
8
BLACK
6
CONTINUOUS
10
6.68713
20
-4.64717
11
6.68713
21
-4.58811
0
LINE
8
BLACK
6
CONTINUOUS
10
6.68713
20
-4.58811
11
6.70287
21
-4.58811
0
LINE
8
BLACK
6
CONTINUOUS
10
6.70287
20
-4.58811
11
6.70287
21
-4.64717
0
LINE
8
BLACK
6
CONTINUOUS
10
6.72846
20
-4.64717
11
6.71272
21
-4.64717
0
LINE
8
BLACK
6
CONTINUOUS
10
6.71272
20
-4.64717
11
6.71272
21
-4.58811
0
LINE
8
BLACK
6
CONTINUOUS
10
6.71272
20
-4.58811
11
6.72846
21
-4.58811
0
LINE
8
BLACK
6
CONTINUOUS
10
6.72846
20
-4.58811
11
6.72846
21
-4.64717
0
LINE
8
BLACK
6
CONTINUOUS
10
6.60247
20
-4.59616
11
6.60566
21
-4.5983
0
LINE
8
BLACK
6
CONTINUOUS
10
6.60566
20
-4.5983
11
6.60779
21
-4.60149
0
LINE
8
BLACK
6
CONTINUOUS
10
6.60779
20
-4.60149
11
6.60854
21
-4.60526
0
LINE
8
BLACK
6
CONTINUOUS
10
6.60854
20
-4.60526
11
6.60854
21
-4.62494
0
LINE
8
BLACK
6
CONTINUOUS
10
6.60854
20
-4.62494
11
6.60779
21
-4.62871
0
LINE
8
BLACK
6
CONTINUOUS
10
6.60779
20
-4.62871
11
6.60566
21
-4.6319
0
LINE
8
BLACK
6
CONTINUOUS
10
6.60566
20
-4.6319
11
6.60247
21
-4.63403
0
LINE
8
BLACK
6
CONTINUOUS
10
6.60247
20
-4.63403
11
6.5987
21
-4.63478
0
LINE
8
BLACK
6
CONTINUOUS
10
6.5987
20
-4.63478
11
6.5613
21
-4.63478
0
LINE
8
BLACK
6
CONTINUOUS
10
6.5613
20
-4.63478
11
6.55753
21
-4.63403
0
LINE
8
BLACK
6
CONTINUOUS
10
6.55753
20
-4.63403
11
6.55434
21
-4.6319
0
LINE
8
BLACK
6
CONTINUOUS
10
6.55434
20
-4.6319
11
6.55221
21
-4.62871
0
LINE
8
BLACK
6
CONTINUOUS
10
6.55221
20
-4.62871
11
6.55146
21
-4.62494
0
LINE
8
BLACK
6
CONTINUOUS
10
6.55146
20
-4.62494
11
6.55146
21
-4.60526
0
LINE
8
BLACK
6
CONTINUOUS
10
6.55146
20
-4.60526
11
6.55221
21
-4.60149
0
LINE
8
BLACK
6
CONTINUOUS
10
6.55221
20
-4.60149
11
6.55434
21
-4.5983
0
LINE
8
BLACK
6
CONTINUOUS
10
6.55434
20
-4.5983
11
6.55753
21
-4.59616
0
LINE
8
BLACK
6
CONTINUOUS
10
6.55753
20
-4.59616
11
6.5613
21
-4.59541
0
LINE
8
BLACK
6
CONTINUOUS
10
6.5613
20
-4.59541
11
6.5987
21
-4.59541
0
LINE
8
BLACK
6
CONTINUOUS
10
6.5987
20
-4.59541
11
6.60247
21
-4.59616
0
LINE
8
BLACK
6
CONTINUOUS
10
6.52247
20
-4.59366
11
6.52566
21
-4.5958
0
LINE
8
BLACK
6
CONTINUOUS
10
6.52566
20
-4.5958
11
6.52779
21
-4.59899
0
LINE
8
BLACK
6
CONTINUOUS
10
6.52779
20
-4.59899
11
6.52854
21
-4.60276
0
LINE
8
BLACK
6
CONTINUOUS
10
6.52854
20
-4.60276
11
6.52854
21
-4.62244
0
LINE
8
BLACK
6
CONTINUOUS
10
6.52854
20
-4.62244
11
6.52779
21
-4.62621
0
LINE
8
BLACK
6
CONTINUOUS
10
6.52779
20
-4.62621
11
6.52566
21
-4.6294
0
LINE
8
BLACK
6
CONTINUOUS
10
6.52566
20
-4.6294
11
6.52247
21
-4.63153
0
LINE
8
BLACK
6
CONTINUOUS
10
6.52247
20
-4.63153
11
6.5187
21
-4.63228
0
LINE
8
BLACK
6
CONTINUOUS
10
6.5187
20
-4.63228
11
6.4813
21
-4.63228
0
LINE
8
BLACK
6
CONTINUOUS
10
6.4813
20
-4.63228
11
6.47753
21
-4.63153
0
LINE
8
BLACK
6
CONTINUOUS
10
6.47753
20
-4.63153
11
6.47434
21
-4.6294
0
LINE
8
BLACK
6
CONTINUOUS
10
6.47434
20
-4.6294
11
6.47221
21
-4.62621
0
LINE
8
BLACK
6
CONTINUOUS
10
6.47221
20
-4.62621
11
6.47146
21
-4.62244
0
LINE
8
BLACK
6
CONTINUOUS
10
6.47146
20
-4.62244
11
6.47146
21
-4.60276
0
LINE
8
BLACK
6
CONTINUOUS
10
6.47146
20
-4.60276
11
6.47221
21
-4.59899
0
LINE
8
BLACK
6
CONTINUOUS
10
6.47221
20
-4.59899
11
6.47434
21
-4.5958
0
LINE
8
BLACK
6
CONTINUOUS
10
6.47434
20
-4.5958
11
6.47753
21
-4.59366
0
LINE
8
BLACK
6
CONTINUOUS
10
6.47753
20
-4.59366
11
6.4813
21
-4.59291
0
LINE
8
BLACK
6
CONTINUOUS
10
6.4813
20
-4.59291
11
6.5187
21
-4.59291
0
LINE
8
BLACK
6
CONTINUOUS
10
6.5187
20
-4.59291
11
6.52247
21
-4.59366
0
LINE
8
BLACK
6
CONTINUOUS
10
7.44348
20
-4.53917
11
7.44667
21
-4.5413
0
LINE
8
BLACK
6
CONTINUOUS
10
7.44667
20
-4.5413
11
7.46059
21
-4.55522
0
LINE
8
BLACK
6
CONTINUOUS
10
7.46059
20
-4.55522
11
7.46272
21
-4.55842
0
LINE
8
BLACK
6
CONTINUOUS
10
7.46272
20
-4.55842
11
7.46347
21
-4.56218
0
LINE
8
BLACK
6
CONTINUOUS
10
7.46347
20
-4.56218
11
7.46272
21
-4.56595
0
LINE
8
BLACK
6
CONTINUOUS
10
7.46272
20
-4.56595
11
7.46059
21
-4.56914
0
LINE
8
BLACK
6
CONTINUOUS
10
7.46059
20
-4.56914
11
7.43414
21
-4.59559
0
LINE
8
BLACK
6
CONTINUOUS
10
7.43414
20
-4.59559
11
7.43095
21
-4.59772
0
LINE
8
BLACK
6
CONTINUOUS
10
7.43095
20
-4.59772
11
7.42718
21
-4.59847
0
LINE
8
BLACK
6
CONTINUOUS
10
7.42718
20
-4.59847
11
7.42342
21
-4.59772
0
LINE
8
BLACK
6
CONTINUOUS
10
7.42342
20
-4.59772
11
7.42022
21
-4.59559
0
LINE
8
BLACK
6
CONTINUOUS
10
7.42022
20
-4.59559
11
7.4063
21
-4.58167
0
LINE
8
BLACK
6
CONTINUOUS
10
7.4063
20
-4.58167
11
7.40417
21
-4.57848
0
LINE
8
BLACK
6
CONTINUOUS
10
7.40417
20
-4.57848
11
7.40342
21
-4.57471
0
LINE
8
BLACK
6
CONTINUOUS
10
7.40342
20
-4.57471
11
7.40417
21
-4.57094
0
LINE
8
BLACK
6
CONTINUOUS
10
7.40417
20
-4.57094
11
7.4063
21
-4.56775
0
LINE
8
BLACK
6
CONTINUOUS
10
7.4063
20
-4.56775
11
7.43275
21
-4.5413
0
LINE
8
BLACK
6
CONTINUOUS
10
7.43275
20
-4.5413
11
7.43594
21
-4.53917
0
LINE
8
BLACK
6
CONTINUOUS
10
7.43594
20
-4.53917
11
7.43971
21
-4.53842
0
LINE
8
BLACK
6
CONTINUOUS
10
7.43971
20
-4.53842
11
7.44348
21
-4.53917
0
LINE
8
BLACK
6
CONTINUOUS
10
6.95068
20
-4.51319
11
6.95387
21
-4.51532
0
LINE
8
BLACK
6
CONTINUOUS
10
6.95387
20
-4.51532
11
6.956
21
-4.51852
0
LINE
8
BLACK
6
CONTINUOUS
10
6.956
20
-4.51852
11
6.95675
21
-4.52228
0
LINE
8
BLACK
6
CONTINUOUS
10
6.95675
20
-4.52228
11
6.95675
21
-4.55772
0
LINE
8
BLACK
6
CONTINUOUS
10
6.95675
20
-4.55772
11
6.956
21
-4.56148
0
LINE
8
BLACK
6
CONTINUOUS
10
6.956
20
-4.56148
11
6.95387
21
-4.56468
0
LINE
8
BLACK
6
CONTINUOUS
10
6.95387
20
-4.56468
11
6.95068
21
-4.56681
0
LINE
8
BLACK
6
CONTINUOUS
10
6.95068
20
-4.56681
11
6.94691
21
-4.56756
0
LINE
8
BLACK
6
CONTINUOUS
10
6.94691
20
-4.56756
11
6.92624
21
-4.56756
0
LINE
8
BLACK
6
CONTINUOUS
10
6.92624
20
-4.56756
11
6.92247
21
-4.56681
0
LINE
8
BLACK
6
CONTINUOUS
10
6.92247
20
-4.56681
11
6.91928
21
-4.56468
0
LINE
8
BLACK
6
CONTINUOUS
10
6.91928
20
-4.56468
11
6.91715
21
-4.56148
0
LINE
8
BLACK
6
CONTINUOUS
10
6.91715
20
-4.56148
11
6.9164
21
-4.55772
0
LINE
8
BLACK
6
CONTINUOUS
10
6.9164
20
-4.55772
11
6.9164
21
-4.52228
0
LINE
8
BLACK
6
CONTINUOUS
10
6.9164
20
-4.52228
11
6.91715
21
-4.51852
0
LINE
8
BLACK
6
CONTINUOUS
10
6.91715
20
-4.51852
11
6.91928
21
-4.51532
0
LINE
8
BLACK
6
CONTINUOUS
10
6.91928
20
-4.51532
11
6.92247
21
-4.51319
0
LINE
8
BLACK
6
CONTINUOUS
10
6.92247
20
-4.51319
11
6.92624
21
-4.51244
0
LINE
8
BLACK
6
CONTINUOUS
10
6.92624
20
-4.51244
11
6.94691
21
-4.51244
0
LINE
8
BLACK
6
CONTINUOUS
10
6.94691
20
-4.51244
11
6.95068
21
-4.51319
0
LINE
8
BLACK
6
CONTINUOUS
10
7.02253
20
-4.51319
11
7.02572
21
-4.51532
0
LINE
8
BLACK
6
CONTINUOUS
10
7.02572
20
-4.51532
11
7.02785
21
-4.51852
0
LINE
8
BLACK
6
CONTINUOUS
10
7.02785
20
-4.51852
11
7.0286
21
-4.52228
0
LINE
8
BLACK
6
CONTINUOUS
10
7.0286
20
-4.52228
11
7.0286
21
-4.55772
0
LINE
8
BLACK
6
CONTINUOUS
10
7.0286
20
-4.55772
11
7.02785
21
-4.56148
0
LINE
8
BLACK
6
CONTINUOUS
10
7.02785
20
-4.56148
11
7.02572
21
-4.56468
0
LINE
8
BLACK
6
CONTINUOUS
10
7.02572
20
-4.56468
11
7.02253
21
-4.56681
0
LINE
8
BLACK
6
CONTINUOUS
10
7.02253
20
-4.56681
11
7.01876
21
-4.56756
0
LINE
8
BLACK
6
CONTINUOUS
10
7.01876
20
-4.56756
11
6.99809
21
-4.56756
0
LINE
8
BLACK
6
CONTINUOUS
10
6.99809
20
-4.56756
11
6.99432
21
-4.56681
0
LINE
8
BLACK
6
CONTINUOUS
10
6.99432
20
-4.56681
11
6.99113
21
-4.56468
0
LINE
8
BLACK
6
CONTINUOUS
10
6.99113
20
-4.56468
11
6.989
21
-4.56148
0
LINE
8
BLACK
6
CONTINUOUS
10
6.989
20
-4.56148
11
6.98825
21
-4.55772
0
LINE
8
BLACK
6
CONTINUOUS
10
6.98825
20
-4.55772
11
6.98825
21
-4.52228
0
LINE
8
BLACK
6
CONTINUOUS
10
6.98825
20
-4.52228
11
6.989
21
-4.51852
0
LINE
8
BLACK
6
CONTINUOUS
10
6.989
20
-4.51852
11
6.99113
21
-4.51532
0
LINE
8
BLACK
6
CONTINUOUS
10
6.99113
20
-4.51532
11
6.99432
21
-4.51319
0
LINE
8
BLACK
6
CONTINUOUS
10
6.99432
20
-4.51319
11
6.99809
21
-4.51244
0
LINE
8
BLACK
6
CONTINUOUS
10
6.99809
20
-4.51244
11
7.01876
21
-4.51244
0
LINE
8
BLACK
6
CONTINUOUS
10
7.01876
20
-4.51244
11
7.02253
21
-4.51319
0
LINE
8
BLACK
6
CONTINUOUS
10
6.54346
20
-4.55559
11
6.47654
21
-4.55559
0
LINE
8
BLACK
6
CONTINUOUS
10
6.47654
20
-4.55559
11
6.47654
21
-4.50441
0
LINE
8
BLACK
6
CONTINUOUS
10
6.47654
20
-4.50441
11
6.54346
21
-4.50441
0
LINE
8
BLACK
6
CONTINUOUS
10
6.54346
20
-4.50441
11
6.54346
21
-4.55559
0
LINE
8
BLACK
6
CONTINUOUS
10
7.39058
20
-4.48628
11
7.39378
21
-4.48841
0
LINE
8
BLACK
6
CONTINUOUS
10
7.39378
20
-4.48841
11
7.4077
21
-4.50233
0
LINE
8
BLACK
6
CONTINUOUS
10
7.4077
20
-4.50233
11
7.40983
21
-4.50552
0
LINE
8
BLACK
6
CONTINUOUS
10
7.40983
20
-4.50552
11
7.41058
21
-4.50929
0
LINE
8
BLACK
6
CONTINUOUS
10
7.41058
20
-4.50929
11
7.40983
21
-4.51306
0
LINE
8
BLACK
6
CONTINUOUS
10
7.40983
20
-4.51306
11
7.4077
21
-4.51625
0
LINE
8
BLACK
6
CONTINUOUS
10
7.4077
20
-4.51625
11
7.38125
21
-4.5427
0
LINE
8
BLACK
6
CONTINUOUS
10
7.38125
20
-4.5427
11
7.37806
21
-4.54483
0
LINE
8
BLACK
6
CONTINUOUS
10
7.37806
20
-4.54483
11
7.37429
21
-4.54558
0
LINE
8
BLACK
6
CONTINUOUS
10
7.37429
20
-4.54558
11
7.37052
21
-4.54483
0
LINE
8
BLACK
6
CONTINUOUS
10
7.37052
20
-4.54483
11
7.36733
21
-4.5427
0
LINE
8
BLACK
6
CONTINUOUS
10
7.36733
20
-4.5427
11
7.35341
21
-4.52878
0
LINE
8
BLACK
6
CONTINUOUS
10
7.35341
20
-4.52878
11
7.35128
21
-4.52558
0
LINE
8
BLACK
6
CONTINUOUS
10
7.35128
20
-4.52558
11
7.35053
21
-4.52182
0
LINE
8
BLACK
6
CONTINUOUS
10
7.35053
20
-4.52182
11
7.35128
21
-4.51805
0
LINE
8
BLACK
6
CONTINUOUS
10
7.35128
20
-4.51805
11
7.35341
21
-4.51486
0
LINE
8
BLACK
6
CONTINUOUS
10
7.35341
20
-4.51486
11
7.37986
21
-4.48841
0
LINE
8
BLACK
6
CONTINUOUS
10
7.37986
20
-4.48841
11
7.38305
21
-4.48628
0
LINE
8
BLACK
6
CONTINUOUS
10
7.38305
20
-4.48628
11
7.38682
21
-4.48553
0
LINE
8
BLACK
6
CONTINUOUS
10
7.38682
20
-4.48553
11
7.39058
21
-4.48628
0
LINE
8
BLACK
6
CONTINUOUS
10
6.83247
20
-4.50097
11
6.83566
21
-4.5031
0
LINE
8
BLACK
6
CONTINUOUS
10
6.83566
20
-4.5031
11
6.83779
21
-4.50629
0
LINE
8
BLACK
6
CONTINUOUS
10
6.83779
20
-4.50629
11
6.83854
21
-4.51006
0
LINE
8
BLACK
6
CONTINUOUS
10
6.83854
20
-4.51006
11
6.83854
21
-4.52974
0
LINE
8
BLACK
6
CONTINUOUS
10
6.83854
20
-4.52974
11
6.83779
21
-4.53351
0
LINE
8
BLACK
6
CONTINUOUS
10
6.83779
20
-4.53351
11
6.83566
21
-4.5367
0
LINE
8
BLACK
6
CONTINUOUS
10
6.83566
20
-4.5367
11
6.83247
21
-4.53884
0
LINE
8
BLACK
6
CONTINUOUS
10
6.83247
20
-4.53884
11
6.8287
21
-4.53959
0
LINE
8
BLACK
6
CONTINUOUS
10
6.8287
20
-4.53959
11
6.7913
21
-4.53959
0
LINE
8
BLACK
6
CONTINUOUS
10
6.7913
20
-4.53959
11
6.78753
21
-4.53884
0
LINE
8
BLACK
6
CONTINUOUS
10
6.78753
20
-4.53884
11
6.78434
21
-4.5367
0
LINE
8
BLACK
6
CONTINUOUS
10
6.78434
20
-4.5367
11
6.78221
21
-4.53351
0
LINE
8
BLACK
6
CONTINUOUS
10
6.78221
20
-4.53351
11
6.78146
21
-4.52974
0
LINE
8
BLACK
6
CONTINUOUS
10
6.78146
20
-4.52974
11
6.78146
21
-4.51006
0
LINE
8
BLACK
6
CONTINUOUS
10
6.78146
20
-4.51006
11
6.78221
21
-4.50629
0
LINE
8
BLACK
6
CONTINUOUS
10
6.78221
20
-4.50629
11
6.78434
21
-4.5031
0
LINE
8
BLACK
6
CONTINUOUS
10
6.78434
20
-4.5031
11
6.78753
21
-4.50097
0
LINE
8
BLACK
6
CONTINUOUS
10
6.78753
20
-4.50097
11
6.7913
21
-4.50022
0
LINE
8
BLACK
6
CONTINUOUS
10
6.7913
20
-4.50022
11
6.8287
21
-4.50022
0
LINE
8
BLACK
6
CONTINUOUS
10
6.8287
20
-4.50022
11
6.83247
21
-4.50097
0
LINE
8
BLACK
6
CONTINUOUS
10
6.64756
20
-4.5302
11
6.58614
21
-4.5302
0
LINE
8
BLACK
6
CONTINUOUS
10
6.58614
20
-4.5302
11
6.58614
21
-4.50461
0
LINE
8
BLACK
6
CONTINUOUS
10
6.58614
20
-4.50461
11
6.64756
21
-4.50461
0
LINE
8
BLACK
6
CONTINUOUS
10
6.64756
20
-4.50461
11
6.64756
21
-4.5302
0
LINE
8
BLACK
6
CONTINUOUS
10
6.75386
20
-4.5302
11
6.69244
21
-4.5302
0
LINE
8
BLACK
6
CONTINUOUS
10
6.69244
20
-4.5302
11
6.69244
21
-4.50461
0
LINE
8
BLACK
6
CONTINUOUS
10
6.69244
20
-4.50461
11
6.75386
21
-4.50461
0
LINE
8
BLACK
6
CONTINUOUS
10
6.75386
20
-4.50461
11
6.75386
21
-4.5302
0
LINE
8
BLACK
6
CONTINUOUS
10
7.72747
20
-4.47847
11
7.73066
21
-4.4806
0
LINE
8
BLACK
6
CONTINUOUS
10
7.73066
20
-4.4806
11
7.73279
21
-4.48379
0
LINE
8
BLACK
6
CONTINUOUS
10
7.73279
20
-4.48379
11
7.73354
21
-4.48756
0
LINE
8
BLACK
6
CONTINUOUS
10
7.73354
20
-4.48756
11
7.73354
21
-4.50724
0
LINE
8
BLACK
6
CONTINUOUS
10
7.73354
20
-4.50724
11
7.73279
21
-4.51101
0
LINE
8
BLACK
6
CONTINUOUS
10
7.73279
20
-4.51101
11
7.73066
21
-4.5142
0
LINE
8
BLACK
6
CONTINUOUS
10
7.73066
20
-4.5142
11
7.72747
21
-4.51634
0
LINE
8
BLACK
6
CONTINUOUS
10
7.72747
20
-4.51634
11
7.7237
21
-4.51709
0
LINE
8
BLACK
6
CONTINUOUS
10
7.7237
20
-4.51709
11
7.6863
21
-4.51709
0
LINE
8
BLACK
6
CONTINUOUS
10
7.6863
20
-4.51709
11
7.68253
21
-4.51634
0
LINE
8
BLACK
6
CONTINUOUS
10
7.68253
20
-4.51634
11
7.67934
21
-4.5142
0
LINE
8
BLACK
6
CONTINUOUS
10
7.67934
20
-4.5142
11
7.67721
21
-4.51101
0
LINE
8
BLACK
6
CONTINUOUS
10
7.67721
20
-4.51101
11
7.67646
21
-4.50724
0
LINE
8
BLACK
6
CONTINUOUS
10
7.67646
20
-4.50724
11
7.67646
21
-4.48756
0
LINE
8
BLACK
6
CONTINUOUS
10
7.67646
20
-4.48756
11
7.67721
21
-4.48379
0
LINE
8
BLACK
6
CONTINUOUS
10
7.67721
20
-4.48379
11
7.67934
21
-4.4806
0
LINE
8
BLACK
6
CONTINUOUS
10
7.67934
20
-4.4806
11
7.68253
21
-4.47847
0
LINE
8
BLACK
6
CONTINUOUS
10
7.68253
20
-4.47847
11
7.6863
21
-4.47772
0
LINE
8
BLACK
6
CONTINUOUS
10
7.6863
20
-4.47772
11
7.7237
21
-4.47772
0
LINE
8
BLACK
6
CONTINUOUS
10
7.7237
20
-4.47772
11
7.72747
21
-4.47847
0
LINE
8
BLACK
6
CONTINUOUS
10
7.80748
20
-4.4765
11
7.81068
21
-4.47863
0
LINE
8
BLACK
6
CONTINUOUS
10
7.81068
20
-4.47863
11
7.81281
21
-4.48182
0
LINE
8
BLACK
6
CONTINUOUS
10
7.81281
20
-4.48182
11
7.81356
21
-4.48559
0
LINE
8
BLACK
6
CONTINUOUS
10
7.81356
20
-4.48559
11
7.81356
21
-4.50626
0
LINE
8
BLACK
6
CONTINUOUS
10
7.81356
20
-4.50626
11
7.81281
21
-4.51003
0
LINE
8
BLACK
6
CONTINUOUS
10
7.81281
20
-4.51003
11
7.81068
21
-4.51322
0
LINE
8
BLACK
6
CONTINUOUS
10
7.81068
20
-4.51322
11
7.80748
21
-4.51535
0
LINE
8
BLACK
6
CONTINUOUS
10
7.80748
20
-4.51535
11
7.80372
21
-4.5161
0
LINE
8
BLACK
6
CONTINUOUS
10
7.80372
20
-4.5161
11
7.76828
21
-4.5161
0
LINE
8
BLACK
6
CONTINUOUS
10
7.76828
20
-4.5161
11
7.76452
21
-4.51535
0
LINE
8
BLACK
6
CONTINUOUS
10
7.76452
20
-4.51535
11
7.76132
21
-4.51322
0
LINE
8
BLACK
6
CONTINUOUS
10
7.76132
20
-4.51322
11
7.75919
21
-4.51003
0
LINE
8
BLACK
6
CONTINUOUS
10
7.75919
20
-4.51003
11
7.75844
21
-4.50626
0
LINE
8
BLACK
6
CONTINUOUS
10
7.75844
20
-4.50626
11
7.75844
21
-4.48559
0
LINE
8
BLACK
6
CONTINUOUS
10
7.75844
20
-4.48559
11
7.75919
21
-4.48182
0
LINE
8
BLACK
6
CONTINUOUS
10
7.75919
20
-4.48182
11
7.76132
21
-4.47863
0
LINE
8
BLACK
6
CONTINUOUS
10
7.76132
20
-4.47863
11
7.76452
21
-4.4765
0
LINE
8
BLACK
6
CONTINUOUS
10
7.76452
20
-4.4765
11
7.76828
21
-4.47575
0
LINE
8
BLACK
6
CONTINUOUS
10
7.76828
20
-4.47575
11
7.80372
21
-4.47575
0
LINE
8
BLACK
6
CONTINUOUS
10
7.80372
20
-4.47575
11
7.80748
21
-4.4765
0
LINE
8
BLACK
6
CONTINUOUS
10
8.27148
20
-4.4665
11
8.27468
21
-4.46863
0
LINE
8
BLACK
6
CONTINUOUS
10
8.27468
20
-4.46863
11
8.27681
21
-4.47182
0
LINE
8
BLACK
6
CONTINUOUS
10
8.27681
20
-4.47182
11
8.27756
21
-4.47559
0
LINE
8
BLACK
6
CONTINUOUS
10
8.27756
20
-4.47559
11
8.27756
21
-4.49626
0
LINE
8
BLACK
6
CONTINUOUS
10
8.27756
20
-4.49626
11
8.27681
21
-4.50003
0
LINE
8
BLACK
6
CONTINUOUS
10
8.27681
20
-4.50003
11
8.27468
21
-4.50322
0
LINE
8
BLACK
6
CONTINUOUS
10
8.27468
20
-4.50322
11
8.27148
21
-4.50535
0
LINE
8
BLACK
6
CONTINUOUS
10
8.27148
20
-4.50535
11
8.26772
21
-4.5061
0
LINE
8
BLACK
6
CONTINUOUS
10
8.26772
20
-4.5061
11
8.23228
21
-4.5061
0
LINE
8
BLACK
6
CONTINUOUS
10
8.23228
20
-4.5061
11
8.22852
21
-4.50535
0
LINE
8
BLACK
6
CONTINUOUS
10
8.22852
20
-4.50535
11
8.22532
21
-4.50322
0
LINE
8
BLACK
6
CONTINUOUS
10
8.22532
20
-4.50322
11
8.22319
21
-4.50003
0
LINE
8
BLACK
6
CONTINUOUS
10
8.22319
20
-4.50003
11
8.22244
21
-4.49626
0
LINE
8
BLACK
6
CONTINUOUS
10
8.22244
20
-4.49626
11
8.22244
21
-4.47559
0
LINE
8
BLACK
6
CONTINUOUS
10
8.22244
20
-4.47559
11
8.22319
21
-4.47182
0
LINE
8
BLACK
6
CONTINUOUS
10
8.22319
20
-4.47182
11
8.22532
21
-4.46863
0
LINE
8
BLACK
6
CONTINUOUS
10
8.22532
20
-4.46863
11
8.22852
21
-4.4665
0
LINE
8
BLACK
6
CONTINUOUS
10
8.22852
20
-4.4665
11
8.23228
21
-4.46575
0
LINE
8
BLACK
6
CONTINUOUS
10
8.23228
20
-4.46575
11
8.26772
21
-4.46575
0
LINE
8
BLACK
6
CONTINUOUS
10
8.26772
20
-4.46575
11
8.27148
21
-4.4665
0
LINE
8
BLACK
6
CONTINUOUS
10
6.64756
20
-4.4928
11
6.58614
21
-4.4928
0
LINE
8
BLACK
6
CONTINUOUS
10
6.58614
20
-4.4928
11
6.58614
21
-4.4672
0
LINE
8
BLACK
6
CONTINUOUS
10
6.58614
20
-4.4672
11
6.64756
21
-4.4672
0
LINE
8
BLACK
6
CONTINUOUS
10
6.64756
20
-4.4672
11
6.64756
21
-4.4928
0
LINE
8
BLACK
6
CONTINUOUS
10
7.34063
20
-4.41299
11
7.34382
21
-4.41512
0
LINE
8
BLACK
6
CONTINUOUS
10
7.34382
20
-4.41512
11
7.36888
21
-4.44018
0
LINE
8
BLACK
6
CONTINUOUS
10
7.36888
20
-4.44018
11
7.37101
21
-4.44337
0
LINE
8
BLACK
6
CONTINUOUS
10
7.37101
20
-4.44337
11
7.37176
21
-4.44714
0
LINE
8
BLACK
6
CONTINUOUS
10
7.37176
20
-4.44714
11
7.37101
21
-4.45091
0
LINE
8
BLACK
6
CONTINUOUS
10
7.37101
20
-4.45091
11
7.36888
21
-4.4541
0
LINE
8
BLACK
6
CONTINUOUS
10
7.36888
20
-4.4541
11
7.35426
21
-4.46871
0
LINE
8
BLACK
6
CONTINUOUS
10
7.35426
20
-4.46871
11
7.35107
21
-4.47085
0
LINE
8
BLACK
6
CONTINUOUS
10
7.35107
20
-4.47085
11
7.3473
21
-4.4716
0
LINE
8
BLACK
6
CONTINUOUS
10
7.3473
20
-4.4716
11
7.34353
21
-4.47085
0
LINE
8
BLACK
6
CONTINUOUS
10
7.34353
20
-4.47085
11
7.34034
21
-4.46871
0
LINE
8
BLACK
6
CONTINUOUS
10
7.34034
20
-4.46871
11
7.31529
21
-4.44366
0
LINE
8
BLACK
6
CONTINUOUS
10
7.31529
20
-4.44366
11
7.31315
21
-4.44047
0
LINE
8
BLACK
6
CONTINUOUS
10
7.31315
20
-4.44047
11
7.3124
21
-4.4367
0
LINE
8
BLACK
6
CONTINUOUS
10
7.3124
20
-4.4367
11
7.31315
21
-4.43293
0
LINE
8
BLACK
6
CONTINUOUS
10
7.31315
20
-4.43293
11
7.31529
21
-4.42974
0
LINE
8
BLACK
6
CONTINUOUS
10
7.31529
20
-4.42974
11
7.3299
21
-4.41512
0
LINE
8
BLACK
6
CONTINUOUS
10
7.3299
20
-4.41512
11
7.33309
21
-4.41299
0
LINE
8
BLACK
6
CONTINUOUS
10
7.33309
20
-4.41299
11
7.33686
21
-4.41224
0
LINE
8
BLACK
6
CONTINUOUS
10
7.33686
20
-4.41224
11
7.34063
21
-4.41299
0
LINE
8
BLACK
6
CONTINUOUS
10
6.95068
20
-4.41319
11
6.95387
21
-4.41532
0
LINE
8
BLACK
6
CONTINUOUS
10
6.95387
20
-4.41532
11
6.956
21
-4.41852
0
LINE
8
BLACK
6
CONTINUOUS
10
6.956
20
-4.41852
11
6.95675
21
-4.42228
0
LINE
8
BLACK
6
CONTINUOUS
10
6.95675
20
-4.42228
11
6.95675
21
-4.45772
0
LINE
8
BLACK
6
CONTINUOUS
10
6.95675
20
-4.45772
11
6.956
21
-4.46148
0
LINE
8
BLACK
6
CONTINUOUS
10
6.956
20
-4.46148
11
6.95387
21
-4.46468
0
LINE
8
BLACK
6
CONTINUOUS
10
6.95387
20
-4.46468
11
6.95068
21
-4.46681
0
LINE
8
BLACK
6
CONTINUOUS
10
6.95068
20
-4.46681
11
6.94691
21
-4.46756
0
LINE
8
BLACK
6
CONTINUOUS
10
6.94691
20
-4.46756
11
6.92624
21
-4.46756
0
LINE
8
BLACK
6
CONTINUOUS
10
6.92624
20
-4.46756
11
6.92247
21
-4.46681
0
LINE
8
BLACK
6
CONTINUOUS
10
6.92247
20
-4.46681
11
6.91928
21
-4.46468
0
LINE
8
BLACK
6
CONTINUOUS
10
6.91928
20
-4.46468
11
6.91715
21
-4.46148
0
LINE
8
BLACK
6
CONTINUOUS
10
6.91715
20
-4.46148
11
6.9164
21
-4.45772
0
LINE
8
BLACK
6
CONTINUOUS
10
6.9164
20
-4.45772
11
6.9164
21
-4.42228
0
LINE
8
BLACK
6
CONTINUOUS
10
6.9164
20
-4.42228
11
6.91715
21
-4.41852
0
LINE
8
BLACK
6
CONTINUOUS
10
6.91715
20
-4.41852
11
6.91928
21
-4.41532
0
LINE
8
BLACK
6
CONTINUOUS
10
6.91928
20
-4.41532
11
6.92247
21
-4.41319
0
LINE
8
BLACK
6
CONTINUOUS
10
6.92247
20
-4.41319
11
6.92624
21
-4.41244
0
LINE
8
BLACK
6
CONTINUOUS
10
6.92624
20
-4.41244
11
6.94691
21
-4.41244
0
LINE
8
BLACK
6
CONTINUOUS
10
6.94691
20
-4.41244
11
6.95068
21
-4.41319
0
LINE
8
BLACK
6
CONTINUOUS
10
7.02253
20
-4.41319
11
7.02572
21
-4.41532
0
LINE
8
BLACK
6
CONTINUOUS
10
7.02572
20
-4.41532
11
7.02785
21
-4.41852
0
LINE
8
BLACK
6
CONTINUOUS
10
7.02785
20
-4.41852
11
7.0286
21
-4.42228
0
LINE
8
BLACK
6
CONTINUOUS
10
7.0286
20
-4.42228
11
7.0286
21
-4.45772
0
LINE
8
BLACK
6
CONTINUOUS
10
7.0286
20
-4.45772
11
7.02785
21
-4.46148
0
LINE
8
BLACK
6
CONTINUOUS
10
7.02785
20
-4.46148
11
7.02572
21
-4.46468
0
LINE
8
BLACK
6
CONTINUOUS
10
7.02572
20
-4.46468
11
7.02253
21
-4.46681
0
LINE
8
BLACK
6
CONTINUOUS
10
7.02253
20
-4.46681
11
7.01876
21
-4.46756
0
LINE
8
BLACK
6
CONTINUOUS
10
7.01876
20
-4.46756
11
6.99809
21
-4.46756
0
LINE
8
BLACK
6
CONTINUOUS
10
6.99809
20
-4.46756
11
6.99432
21
-4.46681
0
LINE
8
BLACK
6
CONTINUOUS
10
6.99432
20
-4.46681
11
6.99113
21
-4.46468
0
LINE
8
BLACK
6
CONTINUOUS
10
6.99113
20
-4.46468
11
6.989
21
-4.46148
0
LINE
8
BLACK
6
CONTINUOUS
10
6.989
20
-4.46148
11
6.98825
21
-4.45772
0
LINE
8
BLACK
6
CONTINUOUS
10
6.98825
20
-4.45772
11
6.98825
21
-4.42228
0
LINE
8
BLACK
6
CONTINUOUS
10
6.98825
20
-4.42228
11
6.989
21
-4.41852
0
LINE
8
BLACK
6
CONTINUOUS
10
6.989
20
-4.41852
11
6.99113
21
-4.41532
0
LINE
8
BLACK
6
CONTINUOUS
10
6.99113
20
-4.41532
11
6.99432
21
-4.41319
0
LINE
8
BLACK
6
CONTINUOUS
10
6.99432
20
-4.41319
11
6.99809
21
-4.41244
0
LINE
8
BLACK
6
CONTINUOUS
10
6.99809
20
-4.41244
11
7.01876
21
-4.41244
0
LINE
8
BLACK
6
CONTINUOUS
10
7.01876
20
-4.41244
11
7.02253
21
-4.41319
0
LINE
8
BLACK
6
CONTINUOUS
10
7.64747
20
-4.42797
11
7.65066
21
-4.4301
0
LINE
8
BLACK
6
CONTINUOUS
10
7.65066
20
-4.4301
11
7.65279
21
-4.43329
0
LINE
8
BLACK
6
CONTINUOUS
10
7.65279
20
-4.43329
11
7.65354
21
-4.43706
0
LINE
8
BLACK
6
CONTINUOUS
10
7.65354
20
-4.43706
11
7.65354
21
-4.45674
0
LINE
8
BLACK
6
CONTINUOUS
10
7.65354
20
-4.45674
11
7.65279
21
-4.46051
0
LINE
8
BLACK
6
CONTINUOUS
10
7.65279
20
-4.46051
11
7.65066
21
-4.4637
0
LINE
8
BLACK
6
CONTINUOUS
10
7.65066
20
-4.4637
11
7.64747
21
-4.46584
0
LINE
8
BLACK
6
CONTINUOUS
10
7.64747
20
-4.46584
11
7.6437
21
-4.46659
0
LINE
8
BLACK
6
CONTINUOUS
10
7.6437
20
-4.46659
11
7.6063
21
-4.46659
0
LINE
8
BLACK
6
CONTINUOUS
10
7.6063
20
-4.46659
11
7.60253
21
-4.46584
0
LINE
8
BLACK
6
CONTINUOUS
10
7.60253
20
-4.46584
11
7.59934
21
-4.4637
0
LINE
8
BLACK
6
CONTINUOUS
10
7.59934
20
-4.4637
11
7.59721
21
-4.46051
0
LINE
8
BLACK
6
CONTINUOUS
10
7.59721
20
-4.46051
11
7.59646
21
-4.45674
0
LINE
8
BLACK
6
CONTINUOUS
10
7.59646
20
-4.45674
11
7.59646
21
-4.43706
0
LINE
8
BLACK
6
CONTINUOUS
10
7.59646
20
-4.43706
11
7.59721
21
-4.43329
0
LINE
8
BLACK
6
CONTINUOUS
10
7.59721
20
-4.43329
11
7.59934
21
-4.4301
0
LINE
8
BLACK
6
CONTINUOUS
10
7.59934
20
-4.4301
11
7.60253
21
-4.42797
0
LINE
8
BLACK
6
CONTINUOUS
10
7.60253
20
-4.42797
11
7.6063
21
-4.42722
0
LINE
8
BLACK
6
CONTINUOUS
10
7.6063
20
-4.42722
11
7.6437
21
-4.42722
0
LINE
8
BLACK
6
CONTINUOUS
10
7.6437
20
-4.42722
11
7.64747
21
-4.42797
0
LINE
8
BLACK
6
CONTINUOUS
10
6.83247
20
-4.42616
11
6.83566
21
-4.4283
0
LINE
8
BLACK
6
CONTINUOUS
10
6.83566
20
-4.4283
11
6.83779
21
-4.43149
0
LINE
8
BLACK
6
CONTINUOUS
10
6.83779
20
-4.43149
11
6.83854
21
-4.43526
0
LINE
8
BLACK
6
CONTINUOUS
10
6.83854
20
-4.43526
11
6.83854
21
-4.45494
0
LINE
8
BLACK
6
CONTINUOUS
10
6.83854
20
-4.45494
11
6.83779
21
-4.45871
0
LINE
8
BLACK
6
CONTINUOUS
10
6.83779
20
-4.45871
11
6.83566
21
-4.4619
0
LINE
8
BLACK
6
CONTINUOUS
10
6.83566
20
-4.4619
11
6.83247
21
-4.46403
0
LINE
8
BLACK
6
CONTINUOUS
10
6.83247
20
-4.46403
11
6.8287
21
-4.46478
0
LINE
8
BLACK
6
CONTINUOUS
10
6.8287
20
-4.46478
11
6.7913
21
-4.46478
0
LINE
8
BLACK
6
CONTINUOUS
10
6.7913
20
-4.46478
11
6.78753
21
-4.46403
0
LINE
8
BLACK
6
CONTINUOUS
10
6.78753
20
-4.46403
11
6.78434
21
-4.4619
0
LINE
8
BLACK
6
CONTINUOUS
10
6.78434
20
-4.4619
11
6.78221
21
-4.45871
0
LINE
8
BLACK
6
CONTINUOUS
10
6.78221
20
-4.45871
11
6.78146
21
-4.45494
0
LINE
8
BLACK
6
CONTINUOUS
10
6.78146
20
-4.45494
11
6.78146
21
-4.43526
0
LINE
8
BLACK
6
CONTINUOUS
10
6.78146
20
-4.43526
11
6.78221
21
-4.43149
0
LINE
8
BLACK
6
CONTINUOUS
10
6.78221
20
-4.43149
11
6.78434
21
-4.4283
0
LINE
8
BLACK
6
CONTINUOUS
10
6.78434
20
-4.4283
11
6.78753
21
-4.42616
0
LINE
8
BLACK
6
CONTINUOUS
10
6.78753
20
-4.42616
11
6.7913
21
-4.42541
0
LINE
8
BLACK
6
CONTINUOUS
10
6.7913
20
-4.42541
11
6.8287
21
-4.42541
0
LINE
8
BLACK
6
CONTINUOUS
10
6.8287
20
-4.42541
11
6.83247
21
-4.42616
0
LINE
8
BLACK
6
CONTINUOUS
10
6.64756
20
-4.45539
11
6.58614
21
-4.45539
0
LINE
8
BLACK
6
CONTINUOUS
10
6.58614
20
-4.45539
11
6.58614
21
-4.4298
0
LINE
8
BLACK
6
CONTINUOUS
10
6.58614
20
-4.4298
11
6.64756
21
-4.4298
0
LINE
8
BLACK
6
CONTINUOUS
10
6.64756
20
-4.4298
11
6.64756
21
-4.45539
0
LINE
8
BLACK
6
CONTINUOUS
10
6.75386
20
-4.45539
11
6.69244
21
-4.45539
0
LINE
8
BLACK
6
CONTINUOUS
10
6.69244
20
-4.45539
11
6.69244
21
-4.4298
0
LINE
8
BLACK
6
CONTINUOUS
10
6.69244
20
-4.4298
11
6.75386
21
-4.4298
0
LINE
8
BLACK
6
CONTINUOUS
10
6.75386
20
-4.4298
11
6.75386
21
-4.45539
0
LINE
8
BLACK
6
CONTINUOUS
10
7.80748
20
-4.40465
11
7.81068
21
-4.40678
0
LINE
8
BLACK
6
CONTINUOUS
10
7.81068
20
-4.40678
11
7.81281
21
-4.40997
0
LINE
8
BLACK
6
CONTINUOUS
10
7.81281
20
-4.40997
11
7.81356
21
-4.41374
0
LINE
8
BLACK
6
CONTINUOUS
10
7.81356
20
-4.41374
11
7.81356
21
-4.43441
0
LINE
8
BLACK
6
CONTINUOUS
10
7.81356
20
-4.43441
11
7.81281
21
-4.43818
0
LINE
8
BLACK
6
CONTINUOUS
10
7.81281
20
-4.43818
11
7.81068
21
-4.44137
0
LINE
8
BLACK
6
CONTINUOUS
10
7.81068
20
-4.44137
11
7.80748
21
-4.4435
0
LINE
8
BLACK
6
CONTINUOUS
10
7.80748
20
-4.4435
11
7.80372
21
-4.44425
0
LINE
8
BLACK
6
CONTINUOUS
10
7.80372
20
-4.44425
11
7.76828
21
-4.44425
0
LINE
8
BLACK
6
CONTINUOUS
10
7.76828
20
-4.44425
11
7.76452
21
-4.4435
0
LINE
8
BLACK
6
CONTINUOUS
10
7.76452
20
-4.4435
11
7.76132
21
-4.44137
0
LINE
8
BLACK
6
CONTINUOUS
10
7.76132
20
-4.44137
11
7.75919
21
-4.43818
0
LINE
8
BLACK
6
CONTINUOUS
10
7.75919
20
-4.43818
11
7.75844
21
-4.43441
0
LINE
8
BLACK
6
CONTINUOUS
10
7.75844
20
-4.43441
11
7.75844
21
-4.41374
0
LINE
8
BLACK
6
CONTINUOUS
10
7.75844
20
-4.41374
11
7.75919
21
-4.40997
0
LINE
8
BLACK
6
CONTINUOUS
10
7.75919
20
-4.40997
11
7.76132
21
-4.40678
0
LINE
8
BLACK
6
CONTINUOUS
10
7.76132
20
-4.40678
11
7.76452
21
-4.40465
0
LINE
8
BLACK
6
CONTINUOUS
10
7.76452
20
-4.40465
11
7.76828
21
-4.4039
0
LINE
8
BLACK
6
CONTINUOUS
10
7.76828
20
-4.4039
11
7.80372
21
-4.4039
0
LINE
8
BLACK
6
CONTINUOUS
10
7.80372
20
-4.4039
11
7.80748
21
-4.40465
0
LINE
8
BLACK
6
CONTINUOUS
10
7.72747
20
-4.40366
11
7.73066
21
-4.4058
0
LINE
8
BLACK
6
CONTINUOUS
10
7.73066
20
-4.4058
11
7.73279
21
-4.40899
0
LINE
8
BLACK
6
CONTINUOUS
10
7.73279
20
-4.40899
11
7.73354
21
-4.41276
0
LINE
8
BLACK
6
CONTINUOUS
10
7.73354
20
-4.41276
11
7.73354
21
-4.43244
0
LINE
8
BLACK
6
CONTINUOUS
10
7.73354
20
-4.43244
11
7.73279
21
-4.43621
0
LINE
8
BLACK
6
CONTINUOUS
10
7.73279
20
-4.43621
11
7.73066
21
-4.4394
0
LINE
8
BLACK
6
CONTINUOUS
10
7.73066
20
-4.4394
11
7.72747
21
-4.44153
0
LINE
8
BLACK
6
CONTINUOUS
10
7.72747
20
-4.44153
11
7.7237
21
-4.44228
0
LINE
8
BLACK
6
CONTINUOUS
10
7.7237
20
-4.44228
11
7.6863
21
-4.44228
0
LINE
8
BLACK
6
CONTINUOUS
10
7.6863
20
-4.44228
11
7.68253
21
-4.44153
0
LINE
8
BLACK
6
CONTINUOUS
10
7.68253
20
-4.44153
11
7.67934
21
-4.4394
0
LINE
8
BLACK
6
CONTINUOUS
10
7.67934
20
-4.4394
11
7.67721
21
-4.43621
0
LINE
8
BLACK
6
CONTINUOUS
10
7.67721
20
-4.43621
11
7.67646
21
-4.43244
0
LINE
8
BLACK
6
CONTINUOUS
10
7.67646
20
-4.43244
11
7.67646
21
-4.41276
0
LINE
8
BLACK
6
CONTINUOUS
10
7.67646
20
-4.41276
11
7.67721
21
-4.40899
0
LINE
8
BLACK
6
CONTINUOUS
10
7.67721
20
-4.40899
11
7.67934
21
-4.4058
0
LINE
8
BLACK
6
CONTINUOUS
10
7.67934
20
-4.4058
11
7.68253
21
-4.40366
0
LINE
8
BLACK
6
CONTINUOUS
10
7.68253
20
-4.40366
11
7.6863
21
-4.40291
0
LINE
8
BLACK
6
CONTINUOUS
10
7.6863
20
-4.40291
11
7.7237
21
-4.40291
0
LINE
8
BLACK
6
CONTINUOUS
10
7.7237
20
-4.40291
11
7.72747
21
-4.40366
0
LINE
8
BLACK
6
CONTINUOUS
10
8.27148
20
-4.39465
11
8.27468
21
-4.39678
0
LINE
8
BLACK
6
CONTINUOUS
10
8.27468
20
-4.39678
11
8.27681
21
-4.39997
0
LINE
8
BLACK
6
CONTINUOUS
10
8.27681
20
-4.39997
11
8.27756
21
-4.40374
0
LINE
8
BLACK
6
CONTINUOUS
10
8.27756
20
-4.40374
11
8.27756
21
-4.42441
0
LINE
8
BLACK
6
CONTINUOUS
10
8.27756
20
-4.42441
11
8.27681
21
-4.42818
0
LINE
8
BLACK
6
CONTINUOUS
10
8.27681
20
-4.42818
11
8.27468
21
-4.43137
0
LINE
8
BLACK
6
CONTINUOUS
10
8.27468
20
-4.43137
11
8.27148
21
-4.4335
0
LINE
8
BLACK
6
CONTINUOUS
10
8.27148
20
-4.4335
11
8.26772
21
-4.43425
0
LINE
8
BLACK
6
CONTINUOUS
10
8.26772
20
-4.43425
11
8.23228
21
-4.43425
0
LINE
8
BLACK
6
CONTINUOUS
10
8.23228
20
-4.43425
11
8.22852
21
-4.4335
0
LINE
8
BLACK
6
CONTINUOUS
10
8.22852
20
-4.4335
11
8.22532
21
-4.43137
0
LINE
8
BLACK
6
CONTINUOUS
10
8.22532
20
-4.43137
11
8.22319
21
-4.42818
0
LINE
8
BLACK
6
CONTINUOUS
10
8.22319
20
-4.42818
11
8.22244
21
-4.42441
0
LINE
8
BLACK
6
CONTINUOUS
10
8.22244
20
-4.42441
11
8.22244
21
-4.40374
0
LINE
8
BLACK
6
CONTINUOUS
10
8.22244
20
-4.40374
11
8.22319
21
-4.39997
0
LINE
8
BLACK
6
CONTINUOUS
10
8.22319
20
-4.39997
11
8.22532
21
-4.39678
0
LINE
8
BLACK
6
CONTINUOUS
10
8.22532
20
-4.39678
11
8.22852
21
-4.39465
0
LINE
8
BLACK
6
CONTINUOUS
10
8.22852
20
-4.39465
11
8.23228
21
-4.3939
0
LINE
8
BLACK
6
CONTINUOUS
10
8.23228
20
-4.3939
11
8.26772
21
-4.3939
0
LINE
8
BLACK
6
CONTINUOUS
10
8.26772
20
-4.3939
11
8.27148
21
-4.39465
0
LINE
8
BLACK
6
CONTINUOUS
10
7.39143
20
-4.36219
11
7.39463
21
-4.36432
0
LINE
8
BLACK
6
CONTINUOUS
10
7.39463
20
-4.36432
11
7.41968
21
-4.38937
0
LINE
8
BLACK
6
CONTINUOUS
10
7.41968
20
-4.38937
11
7.42181
21
-4.39257
0
LINE
8
BLACK
6
CONTINUOUS
10
7.42181
20
-4.39257
11
7.42256
21
-4.39633
0
LINE
8
BLACK
6
CONTINUOUS
10
7.42256
20
-4.39633
11
7.42181
21
-4.4001
0
LINE
8
BLACK
6
CONTINUOUS
10
7.42181
20
-4.4001
11
7.41968
21
-4.40329
0
LINE
8
BLACK
6
CONTINUOUS
10
7.41968
20
-4.40329
11
7.40507
21
-4.41791
0
LINE
8
BLACK
6
CONTINUOUS
10
7.40507
20
-4.41791
11
7.40187
21
-4.42004
0
LINE
8
BLACK
6
CONTINUOUS
10
7.40187
20
-4.42004
11
7.39811
21
-4.42079
0
LINE
8
BLACK
6
CONTINUOUS
10
7.39811
20
-4.42079
11
7.39434
21
-4.42004
0
LINE
8
BLACK
6
CONTINUOUS
10
7.39434
20
-4.42004
11
7.39115
21
-4.41791
0
LINE
8
BLACK
6
CONTINUOUS
10
7.39115
20
-4.41791
11
7.36609
21
-4.39285
0
LINE
8
BLACK
6
CONTINUOUS
10
7.36609
20
-4.39285
11
7.36396
21
-4.38966
0
LINE
8
BLACK
6
CONTINUOUS
10
7.36396
20
-4.38966
11
7.36321
21
-4.38589
0
LINE
8
BLACK
6
CONTINUOUS
10
7.36321
20
-4.38589
11
7.36396
21
-4.38213
0
LINE
8
BLACK
6
CONTINUOUS
10
7.36396
20
-4.38213
11
7.36609
21
-4.37893
0
LINE
8
BLACK
6
CONTINUOUS
10
7.36609
20
-4.37893
11
7.38071
21
-4.36432
0
LINE
8
BLACK
6
CONTINUOUS
10
7.38071
20
-4.36432
11
7.3839
21
-4.36219
0
LINE
8
BLACK
6
CONTINUOUS
10
7.3839
20
-4.36219
11
7.38767
21
-4.36144
0
LINE
8
BLACK
6
CONTINUOUS
10
7.38767
20
-4.36144
11
7.39143
21
-4.36219
0
LINE
8
BLACK
6
CONTINUOUS
10
6.54346
20
-4.4178
11
6.47654
21
-4.4178
0
LINE
8
BLACK
6
CONTINUOUS
10
6.47654
20
-4.4178
11
6.47654
21
-4.36661
0
LINE
8
BLACK
6
CONTINUOUS
10
6.47654
20
-4.36661
11
6.54346
21
-4.36661
0
LINE
8
BLACK
6
CONTINUOUS
10
6.54346
20
-4.36661
11
6.54346
21
-4.4178
0
LINE
8
BLACK
6
CONTINUOUS
10
7.64747
20
-4.35316
11
7.65066
21
-4.3553
0
LINE
8
BLACK
6
CONTINUOUS
10
7.65066
20
-4.3553
11
7.65279
21
-4.35849
0
LINE
8
BLACK
6
CONTINUOUS
10
7.65279
20
-4.35849
11
7.65354
21
-4.36226
0
LINE
8
BLACK
6
CONTINUOUS
10
7.65354
20
-4.36226
11
7.65354
21
-4.38194
0
LINE
8
BLACK
6
CONTINUOUS
10
7.65354
20
-4.38194
11
7.65279
21
-4.38571
0
LINE
8
BLACK
6
CONTINUOUS
10
7.65279
20
-4.38571
11
7.65066
21
-4.3889
0
LINE
8
BLACK
6
CONTINUOUS
10
7.65066
20
-4.3889
11
7.64747
21
-4.39103
0
LINE
8
BLACK
6
CONTINUOUS
10
7.64747
20
-4.39103
11
7.6437
21
-4.39178
0
LINE
8
BLACK
6
CONTINUOUS
10
7.6437
20
-4.39178
11
7.6063
21
-4.39178
0
LINE
8
BLACK
6
CONTINUOUS
10
7.6063
20
-4.39178
11
7.60253
21
-4.39103
0
LINE
8
BLACK
6
CONTINUOUS
10
7.60253
20
-4.39103
11
7.59934
21
-4.3889
0
LINE
8
BLACK
6
CONTINUOUS
10
7.59934
20
-4.3889
11
7.59721
21
-4.38571
0
LINE
8
BLACK
6
CONTINUOUS
10
7.59721
20
-4.38571
11
7.59646
21
-4.38194
0
LINE
8
BLACK
6
CONTINUOUS
10
7.59646
20
-4.38194
11
7.59646
21
-4.36226
0
LINE
8
BLACK
6
CONTINUOUS
10
7.59646
20
-4.36226
11
7.59721
21
-4.35849
0
LINE
8
BLACK
6
CONTINUOUS
10
7.59721
20
-4.35849
11
7.59934
21
-4.3553
0
LINE
8
BLACK
6
CONTINUOUS
10
7.59934
20
-4.3553
11
7.60253
21
-4.35316
0
LINE
8
BLACK
6
CONTINUOUS
10
7.60253
20
-4.35316
11
7.6063
21
-4.35241
0
LINE
8
BLACK
6
CONTINUOUS
10
7.6063
20
-4.35241
11
7.6437
21
-4.35241
0
LINE
8
BLACK
6
CONTINUOUS
10
7.6437
20
-4.35241
11
7.64747
21
-4.35316
0
LINE
8
BLACK
6
CONTINUOUS
10
7.31863
20
-4.31099
11
7.32182
21
-4.31312
0
LINE
8
BLACK
6
CONTINUOUS
10
7.32182
20
-4.31312
11
7.34688
21
-4.33818
0
LINE
8
BLACK
6
CONTINUOUS
10
7.34688
20
-4.33818
11
7.34901
21
-4.34137
0
LINE
8
BLACK
6
CONTINUOUS
10
7.34901
20
-4.34137
11
7.34976
21
-4.34514
0
LINE
8
BLACK
6
CONTINUOUS
10
7.34976
20
-4.34514
11
7.34901
21
-4.34891
0
LINE
8
BLACK
6
CONTINUOUS
10
7.34901
20
-4.34891
11
7.34688
21
-4.3521
0
LINE
8
BLACK
6
CONTINUOUS
10
7.34688
20
-4.3521
11
7.33226
21
-4.36671
0
LINE
8
BLACK
6
CONTINUOUS
10
7.33226
20
-4.36671
11
7.32907
21
-4.36885
0
LINE
8
BLACK
6
CONTINUOUS
10
7.32907
20
-4.36885
11
7.3253
21
-4.3696
0
LINE
8
BLACK
6
CONTINUOUS
10
7.3253
20
-4.3696
11
7.32153
21
-4.36885
0
LINE
8
BLACK
6
CONTINUOUS
10
7.32153
20
-4.36885
11
7.31834
21
-4.36671
0
LINE
8
BLACK
6
CONTINUOUS
10
7.31834
20
-4.36671
11
7.29329
21
-4.34166
0
LINE
8
BLACK
6
CONTINUOUS
10
7.29329
20
-4.34166
11
7.29115
21
-4.33847
0
LINE
8
BLACK
6
CONTINUOUS
10
7.29115
20
-4.33847
11
7.2904
21
-4.3347
0
LINE
8
BLACK
6
CONTINUOUS
10
7.2904
20
-4.3347
11
7.29115
21
-4.33093
0
LINE
8
BLACK
6
CONTINUOUS
10
7.29115
20
-4.33093
11
7.29329
21
-4.32774
0
LINE
8
BLACK
6
CONTINUOUS
10
7.29329
20
-4.32774
11
7.3079
21
-4.31312
0
LINE
8
BLACK
6
CONTINUOUS
10
7.3079
20
-4.31312
11
7.31109
21
-4.31099
0
LINE
8
BLACK
6
CONTINUOUS
10
7.31109
20
-4.31099
11
7.31486
21
-4.31024
0
LINE
8
BLACK
6
CONTINUOUS
10
7.31486
20
-4.31024
11
7.31863
21
-4.31099
0
LINE
8
BLACK
6
CONTINUOUS
10
7.36943
20
-4.26019
11
7.37263
21
-4.26232
0
LINE
8
BLACK
6
CONTINUOUS
10
7.37263
20
-4.26232
11
7.39768
21
-4.28737
0
LINE
8
BLACK
6
CONTINUOUS
10
7.39768
20
-4.28737
11
7.39981
21
-4.29057
0
LINE
8
BLACK
6
CONTINUOUS
10
7.39981
20
-4.29057
11
7.40056
21
-4.29433
0
LINE
8
BLACK
6
CONTINUOUS
10
7.40056
20
-4.29433
11
7.39981
21
-4.2981
0
LINE
8
BLACK
6
CONTINUOUS
10
7.39981
20
-4.2981
11
7.39768
21
-4.30129
0
LINE
8
BLACK
6
CONTINUOUS
10
7.39768
20
-4.30129
11
7.38307
21
-4.31591
0
LINE
8
BLACK
6
CONTINUOUS
10
7.38307
20
-4.31591
11
7.37987
21
-4.31804
0
LINE
8
BLACK
6
CONTINUOUS
10
7.37987
20
-4.31804
11
7.37611
21
-4.31879
0
LINE
8
BLACK
6
CONTINUOUS
10
7.37611
20
-4.31879
11
7.37234
21
-4.31804
0
LINE
8
BLACK
6
CONTINUOUS
10
7.37234
20
-4.31804
11
7.36915
21
-4.31591
0
LINE
8
BLACK
6
CONTINUOUS
10
7.36915
20
-4.31591
11
7.34409
21
-4.29085
0
LINE
8
BLACK
6
CONTINUOUS
10
7.34409
20
-4.29085
11
7.34196
21
-4.28766
0
LINE
8
BLACK
6
CONTINUOUS
10
7.34196
20
-4.28766
11
7.34121
21
-4.28389
0
LINE
8
BLACK
6
CONTINUOUS
10
7.34121
20
-4.28389
11
7.34196
21
-4.28013
0
LINE
8
BLACK
6
CONTINUOUS
10
7.34196
20
-4.28013
11
7.34409
21
-4.27693
0
LINE
8
BLACK
6
CONTINUOUS
10
7.34409
20
-4.27693
11
7.35871
21
-4.26232
0
LINE
8
BLACK
6
CONTINUOUS
10
7.35871
20
-4.26232
11
7.3619
21
-4.26019
0
LINE
8
BLACK
6
CONTINUOUS
10
7.3619
20
-4.26019
11
7.36567
21
-4.25944
0
LINE
8
BLACK
6
CONTINUOUS
10
7.36567
20
-4.25944
11
7.36943
21
-4.26019
  0
ENDSEC
  0
EOF
