M48
; DRILL file {KiCad 6.0.11+dfsg-1~bpo11+1} date Sun May 28 01:22:36 2023
; FORMAT={3:3/ absolute / metric / suppress leading zeros}
; #@! TF.CreationDate,2023-05-28T01:22:36+00:00
; #@! TF.GenerationSoftware,Kicad,Pcbnew,6.0.11+dfsg-1~bpo11+1
; #@! TF.FileFunction,Plated,1,2,PTH
FMAT,2
METRIC,TZ
; #@! TA.AperFunction,Plated,PTH,ViaDrill
T1C0.400
; #@! TA.AperFunction,Plated,PTH,ComponentDrill
T2C0.740
; #@! TA.AperFunction,Plated,PTH,ComponentDrill
T3C0.889
; #@! TA.AperFunction,Plated,PTH,ComponentDrill
T4C1.000
; #@! TA.AperFunction,Plated,PTH,ComponentDrill
T5C1.350
; #@! TA.AperFunction,Plated,PTH,ComponentDrill
T6C3.000
%
G90
G05
T1
X159004Y-120396
X160528Y-120396
X162560Y-120396
X164059Y-127686
X166573Y-121361
X166624Y-123190
X166865Y-128791
X167132Y-109220
X167589Y-111481
X168481Y-131854
X168656Y-109220
X169393Y-111735
X170180Y-109220
X170434Y-130048
X171766Y-125160
X173101Y-120167
X174498Y-111506
X175527Y-128791
X175729Y-130061
X176276Y-125222
X177038Y-125984
X177235Y-132515
X177343Y-131496
X177546Y-135636
X178206Y-108128
X178308Y-126619
X178964Y-130709
X179980Y-134620
X181356Y-118872
X182626Y-120269
X184760Y-106782
X184861Y-115316
X184912Y-121666
X185064Y-126644
X187960Y-126746
X188925Y-114517
X190348Y-116357
X191034Y-130810
X192278Y-111760
X192596Y-121285
X194564Y-128778
X195467Y-119766
X196342Y-118364
X199136Y-119888
X199136Y-121412
X199136Y-122936
X200152Y-114046
X201016Y-131902
X201842Y-127012
X202567Y-116434
X203200Y-119888
X203200Y-121412
X203200Y-122936
X203200Y-135001
X205486Y-126238
X207968Y-116847
X209503Y-129163
X209550Y-110744
T2
X171958Y-103632
X173228Y-105132
X174498Y-105132
X175768Y-103632
X177038Y-105132
X178308Y-105132
X179578Y-103632
T3
X159766Y-112522
X159766Y-115062
X159766Y-117602
X159766Y-123190
X159766Y-125730
X159766Y-128270
X159766Y-130810
X162306Y-112522
X162306Y-115062
X162306Y-117602
X162306Y-123190
X162306Y-125730
X162306Y-128270
X162306Y-130810
X175006Y-118872
X175006Y-121412
X180594Y-112776
X180594Y-115316
X180594Y-125476
X180594Y-128016
X180594Y-130556
X183134Y-112776
X183134Y-115316
X183134Y-125476
X183134Y-128016
X183134Y-130556
X186690Y-103886
X186690Y-106426
X189230Y-103886
X189230Y-106426
X189230Y-136906
X189230Y-139446
X191770Y-103886
X191770Y-106426
X191770Y-136906
X191770Y-139446
X194310Y-103886
X194310Y-106426
X194310Y-136906
X194310Y-139446
X196850Y-103886
X196850Y-106426
X196850Y-136906
X196850Y-139446
X199390Y-103886
X199390Y-106426
X199390Y-136906
X199390Y-139446
X201930Y-103886
X201930Y-106426
X201930Y-136906
X201930Y-139446
X204470Y-103886
X204470Y-106426
X204470Y-136906
X204470Y-139446
X207010Y-103886
X207010Y-106426
X207010Y-136906
X207010Y-139446
X213106Y-112776
X213106Y-115316
X213106Y-117856
X213106Y-120396
X213106Y-122936
X213106Y-125476
X213106Y-128016
X213106Y-130556
X215646Y-112776
X215646Y-115316
X215646Y-117856
X215646Y-120396
X215646Y-122936
X215646Y-125476
X215646Y-128016
X215646Y-130556
T4
X168910Y-134402
X168910Y-138902
X175210Y-134402
X175210Y-138902
T5
X169498Y-105132
X182328Y-106132
T6
X162306Y-106426
X162306Y-136906
X213106Y-106426
X213106Y-136906
T0
M30
