<?xml version='1.0' encoding='ASCII' standalone='yes'?>
<svg xmlns:svg="http://www.w3.org/2000/svg" xmlns="http://www.w3.org/2000/svg" xmlns:xlink="http://www.w3.org/1999/xlink" version="1.1" width="29.700220cm" height="21.000720cm" viewBox="0 0 2970022 2100072">
<title>SVG Picture created as PROGLOG01-B_Fab.svg date 2023/03/04 00:14:17 </title>
  <desc>Picture generated by PCBNEW </desc>
<g style="fill:#000084; fill-opacity:1.000000;stroke:#000084; stroke-opacity:1.000000; stroke-linecap:round; stroke-linejoin:round;" transform="translate(0 0) scale(1 1)">
</g>
<g style="fill:#000084; fill-opacity:0.0;  stroke:#000084; stroke-width:0.000000; stroke-opacity:1;  stroke-linecap:round; stroke-linejoin:round;">
</g>
<g style="fill:#000084; fill-opacity:0.01;  stroke:#000084; stroke-width:6569.052464; stroke-opacity:1;  stroke-linecap:round; stroke-linejoin:round;">
<text x="2091246.947271" y="1078607.014509" transform="scale(-1 1) translate(-4182493.894541 0)" textLength="602300.786074" font-size="58391.562859" lengthAdjust="spacingAndGlyphs" text-anchor="middle" opacity="0.01" style="font-family:monospace">ICE40UP5K-SG48I</text>
<g class="stroked-text"><desc>ICE40UP5K-SG48I</desc>
<path d="M2384247 1076521 L2384247 1032727 "/>
<path d="M2338368 1072350 L2340453 1074436 L2346710 1076521 L2350880 1076521 L2357137 1074436 L2361307 1070265 L2363393 1066094 L2365478 1057752 L2365478 1051496 L2363393 1043154 L2361307 1038984 L2357137 1034813 L2350880 1032727 L2346710 1032727 L2340453 1034813 L2338368 1036898 "/>
<path d="M2319599 1053582 L2305001 1053582 "/>
<path d="M2298745 1076521 L2319599 1076521 L2319599 1032727 L2298745 1032727 "/>
<path d="M2261208 1047325 L2261208 1076521 "/>
<path d="M2271635 1030642 L2282062 1061923 L2254951 1061923 "/>
<path d="M2229926 1032727 L2225756 1032727 L2221585 1034813 L2219499 1036898 L2217414 1041069 L2215329 1049411 L2215329 1059838 L2217414 1068179 L2219499 1072350 L2221585 1074436 L2225756 1076521 L2229926 1076521 L2234097 1074436 L2236183 1072350 L2238268 1068179 L2240353 1059838 L2240353 1049411 L2238268 1041069 L2236183 1036898 L2234097 1034813 L2229926 1032727 "/>
<path d="M2196560 1032727 L2196560 1068179 L2194474 1072350 L2192389 1074436 L2188218 1076521 L2179876 1076521 L2175706 1074436 L2173620 1072350 L2171535 1068179 L2171535 1032727 "/>
<path d="M2150681 1076521 L2150681 1032727 L2133997 1032727 L2129827 1034813 L2127741 1036898 L2125656 1041069 L2125656 1047325 L2127741 1051496 L2129827 1053582 L2133997 1055667 L2150681 1055667 "/>
<path d="M2086033 1032727 L2106887 1032727 L2108972 1053582 L2106887 1051496 L2102716 1049411 L2092289 1049411 L2088118 1051496 L2086033 1053582 L2083947 1057752 L2083947 1068179 L2086033 1072350 L2088118 1074436 L2092289 1076521 L2102716 1076521 L2106887 1074436 L2108972 1072350 "/>
<path d="M2065179 1076521 L2065179 1032727 "/>
<path d="M2040154 1076521 L2058923 1051496 "/>
<path d="M2040154 1032727 L2065179 1057752 "/>
<path d="M2021385 1059838 L1988018 1059838 "/>
<path d="M1969250 1074436 L1962993 1076521 L1952566 1076521 L1948396 1074436 L1946310 1072350 L1944225 1068179 L1944225 1064009 L1946310 1059838 L1948396 1057752 L1952566 1055667 L1960908 1053582 L1965079 1051496 L1967164 1049411 L1969250 1045240 L1969250 1041069 L1967164 1036898 L1965079 1034813 L1960908 1032727 L1950481 1032727 L1944225 1034813 "/>
<path d="M1902517 1034813 L1906687 1032727 L1912944 1032727 L1919200 1034813 L1923371 1038984 L1925456 1043154 L1927541 1051496 L1927541 1057752 L1925456 1066094 L1923371 1070265 L1919200 1074436 L1912944 1076521 L1908773 1076521 L1902517 1074436 L1900431 1072350 L1900431 1057752 L1908773 1057752 "/>
<path d="M1862894 1047325 L1862894 1076521 "/>
<path d="M1873321 1030642 L1883748 1061923 L1856637 1061923 "/>
<path d="M1833698 1051496 L1837869 1049411 L1839954 1047325 L1842040 1043154 L1842040 1041069 L1839954 1036898 L1837869 1034813 L1833698 1032727 L1825356 1032727 L1821185 1034813 L1819100 1036898 L1817015 1041069 L1817015 1043154 L1819100 1047325 L1821185 1049411 L1825356 1051496 L1833698 1051496 L1837869 1053582 L1839954 1055667 L1842040 1059838 L1842040 1068179 L1839954 1072350 L1837869 1074436 L1833698 1076521 L1825356 1076521 L1821185 1074436 L1819100 1072350 L1817015 1068179 L1817015 1059838 L1819100 1055667 L1821185 1053582 L1825356 1051496 "/>
<path d="M1798246 1076521 L1798246 1032727 "/>
</g><g transform="rotate(-90.000000 2076786.273113 1053929.274087)">
<text x="2076786.273113" y="1075826.115633" transform="scale(-1 1) translate(-4153572.546227 0)" textLength="79047.597983" font-size="58391.562859" lengthAdjust="spacingAndGlyphs" text-anchor="middle" opacity="0.01" style="font-family:monospace">U4</text>
</g>
<g class="stroked-text"><desc>U4</desc>
<path d="M2052803 1020562 L2088256 1020562 L2092426 1022648 L2094512 1024733 L2096597 1028904 L2096597 1037245 L2094512 1041416 L2092426 1043502 L2088256 1045587 L2052803 1045587 "/>
<path d="M2067401 1085210 L2096597 1085210 "/>
<path d="M2050718 1074783 L2081999 1064356 L2081999 1091466 "/>
</g><g transform="rotate(-90.000000 498348.070866 1044474.217907)">
<text x="498348.070866" y="1066371.059453" transform="scale(-1 1) translate(-996696.141732 0)" textLength="152037.084402" font-size="58391.562859" lengthAdjust="spacingAndGlyphs" text-anchor="middle" opacity="0.01" style="font-family:monospace">10uF</text>
</g>
<g class="stroked-text"><desc>10uF</desc>
<path d="M518159 997552 L518159 972527 "/>
<path d="M518159 985039 L474365 985039 L480622 980869 L484792 976698 L486878 972527 "/>
<path d="M474365 1024662 L474365 1028833 L476451 1033004 L478536 1035089 L482707 1037175 L491049 1039260 L501476 1039260 L509817 1037175 L513988 1035089 L516074 1033004 L518159 1028833 L518159 1024662 L516074 1020491 L513988 1018406 L509817 1016321 L501476 1014235 L491049 1014235 L482707 1016321 L478536 1018406 L476451 1020491 L474365 1024662 "/>
<path d="M488963 1076798 L518159 1076798 "/>
<path d="M488963 1058029 L511903 1058029 L516074 1060114 L518159 1064285 L518159 1070541 L516074 1074712 L513988 1076798 "/>
<path d="M495219 1112250 L495219 1097652 "/>
<path d="M518159 1097652 L474365 1097652 L474365 1118506 "/>
</g></g>
<g style="fill:#000084; fill-opacity:0.0;  stroke:#000084; stroke-width:3503.494647; stroke-opacity:1;  stroke-linecap:round; stroke-linejoin:round;">
<g transform="rotate(-90.000000 500572.789967 894305.678581)">
<text x="500572.789967" y="905254.099354" transform="scale(-1 1) translate(-1001145.579935 0)" textLength="34211.187295" font-size="29195.759533" lengthAdjust="spacingAndGlyphs" text-anchor="middle" opacity="0.01" style="font-family:monospace">C3</text>
</g>
<g class="stroked-text"><desc>C3</desc>
<path d="M508393 890656 L509435 889613 L510478 886485 L510478 884399 L509435 881271 L507350 879186 L505264 878143 L501094 877100 L497966 877100 L493795 878143 L491709 879186 L489624 881271 L488581 884399 L488581 886485 L489624 889613 L490667 890656 "/>
<path d="M488581 897955 L488581 911510 L496923 904211 L496923 907339 L497966 909424 L499008 910467 L501094 911510 L506307 911510 L508393 910467 L509435 909424 L510478 907339 L510478 901083 L509435 898997 L508393 897955 "/>
</g></g>
<g style="fill:#000084; fill-opacity:0.01;  stroke:#000084; stroke-width:3284.526232; stroke-opacity:1;  stroke-linecap:round; stroke-linejoin:round;">
<text x="717482.902327" y="927501.290365" transform="scale(-1 1) translate(-1434965.804654 0)" textLength="39239.140051" font-size="29195.759533" lengthAdjust="spacingAndGlyphs" text-anchor="middle" opacity="0.01" style="font-family:monospace">U1</text>
<g class="stroked-text"><desc>U1</desc>
<path d="M734166 904561 L734166 922287 L733123 924373 L732080 925415 L729995 926458 L725824 926458 L723739 925415 L722696 924373 L721653 922287 L721653 904561 "/>
<path d="M699756 926458 L712269 926458 "/>
<path d="M706013 926458 L706013 904561 L708098 907689 L710183 909775 L712269 910817 "/>
</g></g>
<g style="fill:#000084; fill-opacity:0.01;  stroke:#000084; stroke-width:6569.052464; stroke-opacity:1;  stroke-linecap:round; stroke-linejoin:round;">
<text x="689673.913563" y="600099.715562" transform="scale(-1 1) translate(-1379347.827126 0)" textLength="565047.996107" font-size="58391.562859" lengthAdjust="spacingAndGlyphs" text-anchor="middle" opacity="0.01" style="font-family:monospace">MIC5504-1.2YM5</text>
<g class="stroked-text"><desc>MIC5504-1.2YM5</desc>
<path d="M963905 598014 L963905 554220 L949307 585501 L934709 554220 L934709 598014 "/>
<path d="M913855 598014 L913855 554220 "/>
<path d="M867976 593843 L870062 595928 L876318 598014 L880489 598014 L886745 595928 L890916 591758 L893001 587587 L895087 579245 L895087 572989 L893001 564647 L890916 560476 L886745 556306 L880489 554220 L876318 554220 L870062 556306 L867976 558391 "/>
<path d="M828353 554220 L849208 554220 L851293 575074 L849208 572989 L845037 570903 L834610 570903 L830439 572989 L828353 575074 L826268 579245 L826268 589672 L828353 593843 L830439 595928 L834610 598014 L845037 598014 L849208 595928 L851293 593843 "/>
<path d="M786645 554220 L807499 554220 L809585 575074 L807499 572989 L803328 570903 L792901 570903 L788731 572989 L786645 575074 L784560 579245 L784560 589672 L786645 593843 L788731 595928 L792901 598014 L803328 598014 L807499 595928 L809585 593843 "/>
<path d="M757449 554220 L753278 554220 L749108 556306 L747022 558391 L744937 562562 L742851 570903 L742851 581330 L744937 589672 L747022 593843 L749108 595928 L753278 598014 L757449 598014 L761620 595928 L763706 593843 L765791 589672 L767876 581330 L767876 570903 L765791 562562 L763706 558391 L761620 556306 L757449 554220 "/>
<path d="M705314 568818 L705314 598014 "/>
<path d="M715741 552135 L726168 583416 L699058 583416 "/>
<path d="M682374 581330 L649008 581330 "/>
<path d="M605214 598014 L630239 598014 "/>
<path d="M617727 598014 L617727 554220 L621897 560476 L626068 564647 L630239 566733 "/>
<path d="M586445 593843 L584360 595928 L586445 598014 L588531 595928 L586445 593843 L586445 598014 "/>
<path d="M567677 558391 L565591 556306 L561420 554220 L550993 554220 L546823 556306 L544737 558391 L542652 562562 L542652 566733 L544737 572989 L569762 598014 L542652 598014 "/>
<path d="M515541 577160 L515541 598014 "/>
<path d="M530139 554220 L515541 577160 L500943 554220 "/>
<path d="M486346 598014 L486346 554220 L471748 585501 L457150 554220 L457150 598014 "/>
<path d="M415442 554220 L436296 554220 L438381 575074 L436296 572989 L432125 570903 L421698 570903 L417527 572989 L415442 575074 L413356 579245 L413356 589672 L415442 593843 L417527 595928 L421698 598014 L432125 598014 L436296 595928 L438381 593843 "/>
</g></g>
<g style="fill:#000084; fill-opacity:0.0;  stroke:#000084; stroke-width:3284.526232; stroke-opacity:1;  stroke-linecap:round; stroke-linejoin:round;">
<g transform="rotate(-90.000000 689673.913563 705204.554985)">
<text x="689673.913563" y="716152.975759" transform="scale(-1 1) translate(-1379347.827126 0)" textLength="35253.914890" font-size="29195.759533" lengthAdjust="spacingAndGlyphs" text-anchor="middle" opacity="0.01" style="font-family:monospace">U2</text>
</g>
<g class="stroked-text"><desc>U2</desc>
<path d="M677682 688521 L695408 688521 L697494 689563 L698536 690606 L699579 692692 L699579 696862 L698536 698948 L697494 699991 L695408 701033 L677682 701033 "/>
<path d="M679768 710418 L678725 711460 L677682 713546 L677682 718759 L678725 720845 L679768 721887 L681853 722930 L683938 722930 L687067 721887 L699579 709375 L699579 722930 "/>
</g></g>
<g style="fill:#000084; fill-opacity:0.0;  stroke:#000084; stroke-width:6569.052464; stroke-opacity:1;  stroke-linecap:round; stroke-linejoin:round;">
<g transform="rotate(-90.000000 847628.969743 832013.543749)">
<text x="847628.969743" y="853910.385296" transform="scale(-1 1) translate(-1695257.939485 0)" textLength="114598.696806" font-size="58391.562859" lengthAdjust="spacingAndGlyphs" text-anchor="middle" opacity="0.01" style="font-family:monospace">1uF</text>
</g>
<g class="stroked-text"><desc>1uF</desc>
<path d="M867440 805945 L867440 780920 "/>
<path d="M867440 793433 L823646 793433 L829902 789262 L834073 785091 L836159 780920 "/>
<path d="M838244 843483 L867440 843483 "/>
<path d="M838244 824714 L861184 824714 L865354 826799 L867440 830970 L867440 837227 L865354 841397 L863269 843483 "/>
<path d="M844500 878935 L844500 864337 "/>
<path d="M867440 864337 L823646 864337 L823646 885191 "/>
</g></g>
<g style="fill:#000084; fill-opacity:0.0;  stroke:#000084; stroke-width:3503.494647; stroke-opacity:1;  stroke-linecap:round; stroke-linejoin:round;">
<g transform="rotate(-90.000000 845404.250641 707985.453862)">
<text x="845404.250641" y="718933.874635" transform="scale(-1 1) translate(-1690808.501283 0)" textLength="34211.187295" font-size="29195.759533" lengthAdjust="spacingAndGlyphs" text-anchor="middle" opacity="0.01" style="font-family:monospace">C4</text>
</g>
<g class="stroked-text"><desc>C4</desc>
<path d="M853224 704335 L854267 703293 L855309 700165 L855309 698079 L854267 694951 L852181 692866 L850096 691823 L845925 690780 L842797 690780 L838626 691823 L836541 692866 L834455 694951 L833413 698079 L833413 700165 L834455 703293 L835498 704335 "/>
<path d="M840712 723104 L855309 723104 "/>
<path d="M832370 717891 L848010 712677 L848010 726232 "/>
</g></g>
<g style="fill:#000084; fill-opacity:0.01;  stroke:#000084; stroke-width:6569.052464; stroke-opacity:1;  stroke-linecap:round; stroke-linejoin:round;">
<text x="1026162.677608" y="610347.437406" transform="scale(-1 1) translate(-2052325.355215 0)" textLength="80947.411749" font-size="58391.562859" lengthAdjust="spacingAndGlyphs" text-anchor="middle" opacity="0.01" style="font-family:monospace">0R</text>
<g class="stroked-text"><desc>0R</desc>
<path d="M1050144 564468 L1045974 564468 L1041803 566553 L1039717 568639 L1037632 572809 L1035547 581151 L1035547 591578 L1037632 599920 L1039717 604091 L1041803 606176 L1045974 608261 L1050144 608261 L1054315 606176 L1056401 604091 L1058486 599920 L1060571 591578 L1060571 581151 L1058486 572809 L1056401 568639 L1054315 566553 L1050144 564468 "/>
<path d="M991753 608261 L1006351 587407 "/>
<path d="M1016778 608261 L1016778 564468 L1000094 564468 L995924 566553 L993838 568639 L991753 572809 L991753 579066 L993838 583237 L995924 585322 L1000094 587407 L1016778 587407 "/>
</g></g>
<g style="fill:#000084; fill-opacity:0.01;  stroke:#000084; stroke-width:3503.494647; stroke-opacity:1;  stroke-linecap:round; stroke-linejoin:round;">
<text x="1026162.677608" y="671658.593736" transform="scale(-1 1) translate(-2052325.355215 0)" textLength="34211.187295" font-size="29195.759533" lengthAdjust="spacingAndGlyphs" text-anchor="middle" opacity="0.01" style="font-family:monospace">R3</text>
<g class="stroked-text"><desc>R3</desc>
<path d="M1029812 670615 L1037111 660188 "/>
<path d="M1042324 670615 L1042324 648719 L1033982 648719 L1031897 649761 L1030854 650804 L1029812 652889 L1029812 656017 L1030854 658103 L1031897 659146 L1033982 660188 L1042324 660188 "/>
<path d="M1022513 648719 L1008957 648719 L1016256 657060 L1013128 657060 L1011043 658103 L1010000 659146 L1008957 661231 L1008957 666445 L1010000 668530 L1011043 669573 L1013128 670615 L1019385 670615 L1021470 669573 L1022513 668530 "/>
</g></g>
<g style="fill:#000084; fill-opacity:0.01;  stroke:#000084; stroke-width:6569.052464; stroke-opacity:1;  stroke-linecap:round; stroke-linejoin:round;">
<text x="1025606.497832" y="868371.059453" transform="scale(-1 1) translate(-2051212.995665 0)" textLength="80947.411749" font-size="58391.562859" lengthAdjust="spacingAndGlyphs" text-anchor="middle" opacity="0.01" style="font-family:monospace">0R</text>
<g class="stroked-text"><desc>0R</desc>
<path d="M1049588 822491 L1045417 822491 L1041247 824577 L1039161 826662 L1037076 830833 L1034990 839175 L1034990 849602 L1037076 857943 L1039161 862114 L1041247 864200 L1045417 866285 L1049588 866285 L1053759 864200 L1055844 862114 L1057930 857943 L1060015 849602 L1060015 839175 L1057930 830833 L1055844 826662 L1053759 824577 L1049588 822491 "/>
<path d="M991197 866285 L1005795 845431 "/>
<path d="M1016222 866285 L1016222 822491 L999538 822491 L995367 824577 L993282 826662 L991197 830833 L991197 837089 L993282 841260 L995367 843346 L999538 845431 L1016222 845431 "/>
</g></g>
<g style="fill:#000084; fill-opacity:0.01;  stroke:#000084; stroke-width:3503.494647; stroke-opacity:1;  stroke-linecap:round; stroke-linejoin:round;">
<text x="1026162.677608" y="782894.548792" transform="scale(-1 1) translate(-2052325.355215 0)" textLength="34211.187295" font-size="29195.759533" lengthAdjust="spacingAndGlyphs" text-anchor="middle" opacity="0.01" style="font-family:monospace">R2</text>
<g class="stroked-text"><desc>R2</desc>
<path d="M1029812 781851 L1037111 771424 "/>
<path d="M1042324 781851 L1042324 759954 L1033982 759954 L1031897 760997 L1030854 762040 L1029812 764125 L1029812 767253 L1030854 769339 L1031897 770382 L1033982 771424 L1042324 771424 "/>
<path d="M1021470 762040 L1020427 760997 L1018342 759954 L1013128 759954 L1011043 760997 L1010000 762040 L1008957 764125 L1008957 766211 L1010000 769339 L1022513 781851 L1008957 781851 "/>
</g></g>
<g style="fill:#000084; fill-opacity:0.0;  stroke:#000084; stroke-width:6569.052464; stroke-opacity:1;  stroke-linecap:round; stroke-linejoin:round;">
<g transform="rotate(-45.000000 1364876.160754 504979.835884)">
<text x="1364876.160754" y="526876.677431" transform="scale(-1 1) translate(-2729752.321508 0)" textLength="164363.955145" font-size="58391.562859" lengthAdjust="spacingAndGlyphs" text-anchor="middle" opacity="0.01" style="font-family:monospace">100R</text>
</g>
<g class="stroked-text"><desc>100R</desc>
<path d="M1415012 482860 L1432708 465165 "/>
<path d="M1423860 474013 L1392893 443046 L1400266 444520 L1406165 444520 L1410589 443046 "/>
<path d="M1364876 471063 L1361926 474013 L1360452 478436 L1360452 481386 L1361926 485809 L1366350 493182 L1373723 500555 L1381096 504979 L1385520 506454 L1388469 506454 L1392893 504979 L1395842 502030 L1397317 497606 L1397317 494657 L1395842 490233 L1391419 482860 L1384046 475487 L1376673 471063 L1372249 469589 L1369299 469589 L1364876 471063 "/>
<path d="M1335383 500555 L1332434 503505 L1330960 507929 L1330960 510878 L1332434 515302 L1336858 522675 L1344231 530048 L1351604 534472 L1356028 535946 L1358977 535946 L1363401 534472 L1366350 531522 L1367825 527098 L1367825 524149 L1366350 519725 L1361926 512352 L1354553 504979 L1347180 500555 L1342756 499081 L1339807 499081 L1335383 500555 "/>
<path d="M1325061 572811 L1320637 547743 "/>
<path d="M1342756 555116 L1311790 524149 L1299993 535946 L1298518 540370 L1298518 543319 L1299993 547743 L1304417 552167 L1308840 553641 L1311790 553641 L1316214 552167 L1328010 540370 "/>
</g></g>
<g style="fill:#000084; fill-opacity:0.0;  stroke:#000084; stroke-width:3503.494647; stroke-opacity:1;  stroke-linecap:round; stroke-linejoin:round;">
<g transform="rotate(-45.000000 1441054.440414 521127.398921)">
<text x="1441054.440414" y="532075.819694" transform="scale(-1 1) translate(-2882108.880828 0)" textLength="34211.187295" font-size="29195.759533" lengthAdjust="spacingAndGlyphs" text-anchor="middle" opacity="0.01" style="font-family:monospace">R8</text>
</g>
<g class="stroked-text"><desc>R8</desc>
<path d="M1450639 525551 L1448427 513017 "/>
<path d="M1459487 516703 L1444003 501220 L1438105 507118 L1437367 509330 L1437367 510805 L1438105 513017 L1440317 515228 L1442529 515966 L1444003 515966 L1446215 515228 L1452114 509330 "/>
<path d="M1432944 525551 L1433681 523339 L1433681 521864 L1432944 519652 L1432206 518915 L1429994 518178 L1428520 518178 L1426308 518915 L1423359 521864 L1422621 524076 L1422621 525551 L1423359 527763 L1424096 528500 L1426308 529237 L1427782 529237 L1429994 528500 L1432944 525551 L1435155 524813 L1436630 524813 L1438842 525551 L1441791 528500 L1442529 530712 L1442529 532186 L1441791 534398 L1438842 537348 L1436630 538085 L1435155 538085 L1432944 537348 L1429994 534398 L1429257 532186 L1429257 530712 L1429994 528500 "/>
</g></g>
<g style="fill:#000084; fill-opacity:0.0;  stroke:#000084; stroke-width:6569.052464; stroke-opacity:1;  stroke-linecap:round; stroke-linejoin:round;">
<g transform="rotate(-90.000000 2519461.580554 671833.768469)">
<text x="2519461.580554" y="693730.610015" transform="scale(-1 1) translate(-5038923.161108 0)" textLength="164363.955145" font-size="58391.562859" lengthAdjust="spacingAndGlyphs" text-anchor="middle" opacity="0.01" style="font-family:monospace">200R</text>
</g>
<g class="stroked-text"><desc>200R</desc>
<path d="M2499650 595716 L2497564 597801 L2495479 601972 L2495479 612399 L2497564 616570 L2499650 618655 L2503820 620741 L2507991 620741 L2514248 618655 L2539272 593630 L2539272 620741 "/>
<path d="M2495479 647851 L2495479 652022 L2497564 656193 L2499650 658278 L2503820 660363 L2512162 662449 L2522589 662449 L2530931 660363 L2535102 658278 L2537187 656193 L2539272 652022 L2539272 647851 L2537187 643680 L2535102 641595 L2530931 639509 L2522589 637424 L2512162 637424 L2503820 639509 L2499650 641595 L2497564 643680 L2495479 647851 "/>
<path d="M2495479 689559 L2495479 693730 L2497564 697901 L2499650 699986 L2503820 702072 L2512162 704157 L2522589 704157 L2530931 702072 L2535102 699986 L2537187 697901 L2539272 693730 L2539272 689559 L2537187 685388 L2535102 683303 L2530931 681218 L2522589 679132 L2512162 679132 L2503820 681218 L2499650 683303 L2497564 685388 L2495479 689559 "/>
<path d="M2539272 747951 L2518418 733353 "/>
<path d="M2539272 722926 L2495479 722926 L2495479 739609 L2497564 743780 L2499650 745865 L2503820 747951 L2510077 747951 L2514248 745865 L2516333 743780 L2518418 739609 L2518418 722926 "/>
</g></g>
<g style="fill:#000084; fill-opacity:0.0;  stroke:#000084; stroke-width:3503.494647; stroke-opacity:1;  stroke-linecap:round; stroke-linejoin:round;">
<g transform="rotate(-90.000000 2447202.003450 671833.768469)">
<text x="2447202.003450" y="682782.189242" transform="scale(-1 1) translate(-4894404.006901 0)" textLength="55065.345041" font-size="29195.759533" lengthAdjust="spacingAndGlyphs" text-anchor="middle" opacity="0.01" style="font-family:monospace">R10</text>
</g>
<g class="stroked-text"><desc>R10</desc>
<path d="M2457107 657757 L2446680 650458 "/>
<path d="M2457107 645244 L2435210 645244 L2435210 653586 L2436253 655671 L2437296 656714 L2439381 657757 L2442509 657757 L2444595 656714 L2445637 655671 L2446680 653586 L2446680 645244 "/>
<path d="M2457107 678611 L2457107 666098 "/>
<path d="M2457107 672355 L2435210 672355 L2438338 670269 L2440424 668184 L2441467 666098 "/>
<path d="M2435210 692166 L2435210 694251 L2436253 696337 L2437296 697380 L2439381 698422 L2443552 699465 L2448766 699465 L2452936 698422 L2455022 697380 L2456064 696337 L2457107 694251 L2457107 692166 L2456064 690081 L2455022 689038 L2452936 687995 L2448766 686953 L2443552 686953 L2439381 687995 L2437296 689038 L2436253 690081 L2435210 692166 "/>
</g></g>
<g style="fill:#000084; fill-opacity:0.01;  stroke:#000084; stroke-width:6569.052464; stroke-opacity:1;  stroke-linecap:round; stroke-linejoin:round;">
<text x="1749196.385473" y="1366751.931788" transform="scale(-1 1) translate(-3498392.770946 0)" textLength="164363.955145" font-size="58391.562859" lengthAdjust="spacingAndGlyphs" text-anchor="middle" opacity="0.01" style="font-family:monospace">200R</text>
<g class="stroked-text"><desc>200R</desc>
<path d="M1825313 1325043 L1823228 1322958 L1819057 1320872 L1808630 1320872 L1804459 1322958 L1802374 1325043 L1800288 1329214 L1800288 1333385 L1802374 1339641 L1827399 1364666 L1800288 1364666 "/>
<path d="M1773178 1320872 L1769007 1320872 L1764836 1322958 L1762751 1325043 L1760666 1329214 L1758580 1337556 L1758580 1347983 L1760666 1356324 L1762751 1360495 L1764836 1362581 L1769007 1364666 L1773178 1364666 L1777349 1362581 L1779434 1360495 L1781520 1356324 L1783605 1347983 L1783605 1337556 L1781520 1329214 L1779434 1325043 L1777349 1322958 L1773178 1320872 "/>
<path d="M1731470 1320872 L1727299 1320872 L1723128 1322958 L1721043 1325043 L1718957 1329214 L1716872 1337556 L1716872 1347983 L1718957 1356324 L1721043 1360495 L1723128 1362581 L1727299 1364666 L1731470 1364666 L1735641 1362581 L1737726 1360495 L1739812 1356324 L1741897 1347983 L1741897 1337556 L1739812 1329214 L1737726 1325043 L1735641 1322958 L1731470 1320872 "/>
<path d="M1673078 1364666 L1687676 1343812 "/>
<path d="M1698103 1364666 L1698103 1320872 L1681420 1320872 L1677249 1322958 L1675164 1325043 L1673078 1329214 L1673078 1335470 L1675164 1339641 L1677249 1341726 L1681420 1343812 L1698103 1343812 "/>
</g></g>
<g style="fill:#000084; fill-opacity:0.01;  stroke:#000084; stroke-width:3503.494647; stroke-opacity:1;  stroke-linecap:round; stroke-linejoin:round;">
<text x="1749196.385473" y="1428063.088118" transform="scale(-1 1) translate(-3498392.770946 0)" textLength="34211.187295" font-size="29195.759533" lengthAdjust="spacingAndGlyphs" text-anchor="middle" opacity="0.01" style="font-family:monospace">R9</text>
<g class="stroked-text"><desc>R9</desc>
<path d="M1752845 1427020 L1760144 1416593 "/>
<path d="M1765358 1427020 L1765358 1405123 L1757016 1405123 L1754931 1406166 L1753888 1407208 L1752845 1409294 L1752845 1412422 L1753888 1414507 L1754931 1415550 L1757016 1416593 L1765358 1416593 "/>
<path d="M1742418 1427020 L1738247 1427020 L1736162 1425977 L1735119 1424934 L1733034 1421806 L1731991 1417635 L1731991 1409294 L1733034 1407208 L1734077 1406166 L1736162 1405123 L1740333 1405123 L1742418 1406166 L1743461 1407208 L1744504 1409294 L1744504 1414507 L1743461 1416593 L1742418 1417635 L1740333 1418678 L1736162 1418678 L1734077 1417635 L1733034 1416593 L1731991 1414507 "/>
</g></g>
<g style="fill:#000084; fill-opacity:0.0;  stroke:#000084; stroke-width:6569.052464; stroke-opacity:1;  stroke-linecap:round; stroke-linejoin:round;">
<g transform="rotate(-90.000000 652966.048394 1105653.993188)">
<text x="652966.048394" y="1127550.834734" transform="scale(-1 1) translate(-1305932.096788 0)" textLength="114314.037866" font-size="58391.562859" lengthAdjust="spacingAndGlyphs" text-anchor="middle" opacity="0.01" style="font-family:monospace">10k</text>
</g>
<g class="stroked-text"><desc>10k</desc>
<path d="M672777 1079586 L672777 1054561 "/>
<path d="M672777 1067073 L628983 1067073 L635240 1062902 L639410 1058732 L641496 1054561 "/>
<path d="M628983 1106696 L628983 1110867 L631069 1115038 L633154 1117123 L637325 1119209 L645667 1121294 L656094 1121294 L664435 1119209 L668606 1117123 L670692 1115038 L672777 1110867 L672777 1106696 L670692 1102525 L668606 1100440 L664435 1098355 L656094 1096269 L645667 1096269 L637325 1098355 L633154 1100440 L631069 1102525 L628983 1106696 "/>
<path d="M672777 1140063 L628983 1140063 "/>
<path d="M656094 1144234 L672777 1156746 "/>
<path d="M643581 1156746 L660264 1140063 "/>
</g></g>
<g style="fill:#000084; fill-opacity:0.0;  stroke:#000084; stroke-width:3503.494647; stroke-opacity:1;  stroke-linecap:round; stroke-linejoin:round;">
<g transform="rotate(-90.000000 711921.104574 1097311.296558)">
<text x="711921.104574" y="1108259.717332" transform="scale(-1 1) translate(-1423842.209148 0)" textLength="34211.187295" font-size="29195.759533" lengthAdjust="spacingAndGlyphs" text-anchor="middle" opacity="0.01" style="font-family:monospace">R5</text>
</g>
<g class="stroked-text"><desc>R5</desc>
<path d="M721826 1093661 L711399 1086362 "/>
<path d="M721826 1081149 L699929 1081149 L699929 1089490 L700972 1091576 L702015 1092619 L704100 1093661 L707228 1093661 L709314 1092619 L710357 1091576 L711399 1089490 L711399 1081149 "/>
<path d="M699929 1113473 L699929 1103046 L710357 1102003 L709314 1103046 L708271 1105131 L708271 1110345 L709314 1112430 L710357 1113473 L712442 1114515 L717655 1114515 L719741 1113473 L720784 1112430 L721826 1110345 L721826 1105131 L720784 1103046 L719741 1102003 "/>
</g></g>
<g style="fill:#000084; fill-opacity:0.0;  stroke:#000084; stroke-width:6569.052464; stroke-opacity:1;  stroke-linecap:round; stroke-linejoin:round;">
<g transform="rotate(-90.000000 2095538.728214 1538918.038131)">
<text x="2095538.728214" y="1560814.879678" transform="scale(-1 1) translate(-4191077.456427 0)" textLength="197730.581262" font-size="58391.562859" lengthAdjust="spacingAndGlyphs" text-anchor="middle" opacity="0.01" style="font-family:monospace">100nF</text>
</g>
<g class="stroked-text"><desc>100nF</desc>
<path d="M2115350 1471142 L2115350 1446117 "/>
<path d="M2115350 1458629 L2071556 1458629 L2077812 1454458 L2081983 1450287 L2084068 1446117 "/>
<path d="M2071556 1498252 L2071556 1502423 L2073641 1506594 L2075727 1508679 L2079898 1510764 L2088239 1512850 L2098666 1512850 L2107008 1510764 L2111179 1508679 L2113264 1506594 L2115350 1502423 L2115350 1498252 L2113264 1494081 L2111179 1491996 L2107008 1489910 L2098666 1487825 L2088239 1487825 L2079898 1489910 L2075727 1491996 L2073641 1494081 L2071556 1498252 "/>
<path d="M2071556 1539960 L2071556 1544131 L2073641 1548302 L2075727 1550387 L2079898 1552473 L2088239 1554558 L2098666 1554558 L2107008 1552473 L2111179 1550387 L2113264 1548302 L2115350 1544131 L2115350 1539960 L2113264 1535789 L2111179 1533704 L2107008 1531619 L2098666 1529533 L2088239 1529533 L2079898 1531619 L2075727 1533704 L2073641 1535789 L2071556 1539960 "/>
<path d="M2086154 1573327 L2115350 1573327 "/>
<path d="M2090325 1573327 L2088239 1575412 L2086154 1579583 L2086154 1585839 L2088239 1590010 L2092410 1592096 L2115350 1592096 "/>
<path d="M2092410 1627548 L2092410 1612950 "/>
<path d="M2115350 1612950 L2071556 1612950 L2071556 1633804 "/>
</g></g>
<g style="fill:#000084; fill-opacity:0.0;  stroke:#000084; stroke-width:3503.494647; stroke-opacity:1;  stroke-linecap:round; stroke-linejoin:round;">
<g transform="rotate(-90.000000 2169112.115810 1538918.038131)">
<text x="2169112.115810" y="1549866.458905" transform="scale(-1 1) translate(-4338224.231620 0)" textLength="34211.187295" font-size="29195.759533" lengthAdjust="spacingAndGlyphs" text-anchor="middle" opacity="0.01" style="font-family:monospace">C1</text>
</g>
<g class="stroked-text"><desc>C1</desc>
<path d="M2176932 1535268 L2177975 1534225 L2179017 1531097 L2179017 1529012 L2177975 1525884 L2175889 1523798 L2173804 1522756 L2169633 1521713 L2166505 1521713 L2162334 1522756 L2160249 1523798 L2158163 1525884 L2157120 1529012 L2157120 1531097 L2158163 1534225 L2159206 1535268 "/>
<path d="M2179017 1556122 L2179017 1543610 "/>
<path d="M2179017 1549866 L2157120 1549866 L2160249 1547781 L2162334 1545695 L2163377 1543610 "/>
</g></g>
<g style="fill:#000084; fill-opacity:0.0;  stroke:#000084; stroke-width:6569.052464; stroke-opacity:1;  stroke-linecap:round; stroke-linejoin:round;">
<g transform="rotate(-90.000000 586224.475361 1064496.689817)">
<text x="586224.475361" y="1086393.531363" transform="scale(-1 1) translate(-1172448.950721 0)" textLength="197730.581262" font-size="58391.562859" lengthAdjust="spacingAndGlyphs" text-anchor="middle" opacity="0.01" style="font-family:monospace">100nF</text>
</g>
<g class="stroked-text"><desc>100nF</desc>
<path d="M606035 996720 L606035 971695 "/>
<path d="M606035 984208 L562242 984208 L568498 980037 L572669 975866 L574754 971695 "/>
<path d="M562242 1023831 L562242 1028001 L564327 1032172 L566413 1034258 L570583 1036343 L578925 1038428 L589352 1038428 L597694 1036343 L601865 1034258 L603950 1032172 L606035 1028001 L606035 1023831 L603950 1019660 L601865 1017574 L597694 1015489 L589352 1013404 L578925 1013404 L570583 1015489 L566413 1017574 L564327 1019660 L562242 1023831 "/>
<path d="M562242 1065539 L562242 1069710 L564327 1073881 L566413 1075966 L570583 1078051 L578925 1080137 L589352 1080137 L597694 1078051 L601865 1075966 L603950 1073881 L606035 1069710 L606035 1065539 L603950 1061368 L601865 1059283 L597694 1057197 L589352 1055112 L578925 1055112 L570583 1057197 L566413 1059283 L564327 1061368 L562242 1065539 "/>
<path d="M576840 1098905 L606035 1098905 "/>
<path d="M581010 1098905 L578925 1100991 L576840 1105162 L576840 1111418 L578925 1115589 L583096 1117674 L606035 1117674 "/>
<path d="M583096 1153126 L583096 1138528 "/>
<path d="M606035 1138528 L562242 1138528 L562242 1159382 "/>
</g></g>
<g style="fill:#000084; fill-opacity:0.0;  stroke:#000084; stroke-width:3503.494647; stroke-opacity:1;  stroke-linecap:round; stroke-linejoin:round;">
<g transform="rotate(-90.000000 589561.554012 897086.577457)">
<text x="589561.554012" y="908034.998231" transform="scale(-1 1) translate(-1179123.108024 0)" textLength="34211.187295" font-size="29195.759533" lengthAdjust="spacingAndGlyphs" text-anchor="middle" opacity="0.01" style="font-family:monospace">C2</text>
</g>
<g class="stroked-text"><desc>C2</desc>
<path d="M597381 893437 L598424 892394 L599467 889266 L599467 887180 L598424 884052 L596339 881967 L594253 880924 L590082 879881 L586954 879881 L582783 880924 L580698 881967 L578613 884052 L577570 887180 L577570 889266 L578613 892394 L579655 893437 "/>
<path d="M579655 901778 L578613 902821 L577570 904906 L577570 910120 L578613 912205 L579655 913248 L581741 914291 L583826 914291 L586954 913248 L599467 900736 L599467 914291 "/>
</g></g>
<g style="fill:#000084; fill-opacity:0.0;  stroke:#000084; stroke-width:6569.052464; stroke-opacity:1;  stroke-linecap:round; stroke-linejoin:round;">
<g transform="rotate(-45.000000 1573999.756259 521665.229143)">
<text x="1573999.756259" y="543562.070689" transform="scale(-1 1) translate(-3147999.512519 0)" textLength="164363.955145" font-size="58391.562859" lengthAdjust="spacingAndGlyphs" text-anchor="middle" opacity="0.01" style="font-family:monospace">100R</text>
</g>
<g class="stroked-text"><desc>100R</desc>
<path d="M1624136 499546 L1641831 481850 "/>
<path d="M1632984 490698 L1602017 459731 L1609390 461206 L1615288 461206 L1619712 459731 "/>
<path d="M1573999 487749 L1571050 490698 L1569575 495122 L1569575 498071 L1571050 502495 L1575474 509868 L1582847 517241 L1590220 521665 L1594644 523139 L1597593 523139 L1602017 521665 L1604966 518715 L1606441 514292 L1606441 511342 L1604966 506919 L1600542 499546 L1593169 492172 L1585796 487749 L1581372 486274 L1578423 486274 L1573999 487749 "/>
<path d="M1544507 517241 L1541558 520190 L1540083 524614 L1540083 527563 L1541558 531987 L1545982 539360 L1553355 546733 L1560728 551157 L1565152 552632 L1568101 552632 L1572525 551157 L1575474 548208 L1576948 543784 L1576948 540835 L1575474 536411 L1571050 529038 L1563677 521665 L1556304 517241 L1551880 515766 L1548931 515766 L1544507 517241 "/>
<path d="M1534185 589497 L1529761 564428 "/>
<path d="M1551880 571801 L1520913 540835 L1509116 552632 L1507642 557055 L1507642 560005 L1509116 564428 L1513540 568852 L1517964 570327 L1520913 570327 L1525337 568852 L1537134 557055 "/>
</g></g>
<g style="fill:#000084; fill-opacity:0.0;  stroke:#000084; stroke-width:3503.494647; stroke-opacity:1;  stroke-linecap:round; stroke-linejoin:round;">
<g transform="rotate(-45.000000 1465526.350526 634588.073078)">
<text x="1465526.350526" y="645536.493851" transform="scale(-1 1) translate(-2931052.701053 0)" textLength="34211.187295" font-size="29195.759533" lengthAdjust="spacingAndGlyphs" text-anchor="middle" opacity="0.01" style="font-family:monospace">R7</text>
</g>
<g class="stroked-text"><desc>R7</desc>
<path d="M1475111 639011 L1472899 626477 "/>
<path d="M1483958 630164 L1468475 614680 L1462577 620579 L1461839 622791 L1461839 624265 L1462577 626477 L1464789 628689 L1467000 629426 L1468475 629426 L1470687 628689 L1476585 622791 "/>
<path d="M1454466 628689 L1444144 639011 L1466263 647859 "/>
</g></g>
<g style="fill:#000084; fill-opacity:0.0;  stroke:#000084; stroke-width:6569.052464; stroke-opacity:1;  stroke-linecap:round; stroke-linejoin:round;">
<g transform="rotate(-90.000000 873169.445722 1097311.296558)">
<text x="873169.445722" y="1119208.138105" transform="scale(-1 1) translate(-1746338.891445 0)" textLength="114314.037866" font-size="58391.562859" lengthAdjust="spacingAndGlyphs" text-anchor="middle" opacity="0.01" style="font-family:monospace">10k</text>
</g>
<g class="stroked-text"><desc>10k</desc>
<path d="M892980 1071243 L892980 1046218 "/>
<path d="M892980 1058731 L849187 1058731 L855443 1054560 L859614 1050389 L861699 1046218 "/>
<path d="M849187 1098353 L849187 1102524 L851272 1106695 L853358 1108781 L857528 1110866 L865870 1112951 L876297 1112951 L884639 1110866 L888810 1108781 L890895 1106695 L892980 1102524 L892980 1098353 L890895 1094183 L888810 1092097 L884639 1090012 L876297 1087926 L865870 1087926 L857528 1090012 L853358 1092097 L851272 1094183 L849187 1098353 "/>
<path d="M892980 1131720 L849187 1131720 "/>
<path d="M876297 1135891 L892980 1148403 "/>
<path d="M863785 1148403 L880468 1131720 "/>
</g></g>
<g style="fill:#000084; fill-opacity:0.0;  stroke:#000084; stroke-width:3503.494647; stroke-opacity:1;  stroke-linecap:round; stroke-linejoin:round;">
<g transform="rotate(-90.000000 800909.868619 1097311.296558)">
<text x="800909.868619" y="1108259.717332" transform="scale(-1 1) translate(-1601819.737238 0)" textLength="34211.187295" font-size="29195.759533" lengthAdjust="spacingAndGlyphs" text-anchor="middle" opacity="0.01" style="font-family:monospace">R6</text>
</g>
<g class="stroked-text"><desc>R6</desc>
<path d="M810815 1093661 L800388 1086362 "/>
<path d="M810815 1081149 L788918 1081149 L788918 1089490 L789961 1091576 L791004 1092619 L793089 1093661 L796217 1093661 L798303 1092619 L799345 1091576 L800388 1089490 L800388 1081149 "/>
<path d="M788918 1112430 L788918 1108259 L789961 1106174 L791004 1105131 L794132 1103046 L798303 1102003 L806644 1102003 L808730 1103046 L809772 1104088 L810815 1106174 L810815 1110345 L809772 1112430 L808730 1113473 L806644 1114515 L801431 1114515 L799345 1113473 L798303 1112430 L797260 1110345 L797260 1106174 L798303 1104088 L799345 1103046 L801431 1102003 "/>
</g></g>
<g style="fill:#000084; fill-opacity:0.01;  stroke:#000084; stroke-width:6569.052464; stroke-opacity:1;  stroke-linecap:round; stroke-linejoin:round;">
<g transform="rotate(-90.000000 1156864.924799 1773069.723525)">
<text x="1156864.924799" y="1800878.712289" transform="scale(-1 1) translate(-2313729.849597 0)" textLength="104032.945236" font-size="74157.288773" lengthAdjust="spacingAndGlyphs" text-anchor="middle" opacity="0.01" style="font-family:monospace">D3</text>
</g>
<g class="stroked-text"><desc>D3</desc>
<path d="M1182025 1732018 L1126407 1732018 L1126407 1745260 L1129055 1753206 L1134352 1758503 L1139649 1761151 L1150243 1763800 L1158189 1763800 L1168783 1761151 L1174080 1758503 L1179376 1753206 L1182025 1745260 L1182025 1732018 "/>
<path d="M1126407 1782339 L1126407 1816769 L1147595 1798230 L1147595 1806175 L1150243 1811472 L1152892 1814121 L1158189 1816769 L1171431 1816769 L1176728 1814121 L1179376 1811472 L1182025 1806175 L1182025 1790284 L1179376 1784987 L1176728 1782339 "/>
</g><g transform="rotate(-90.000000 1154640.205698 1691867.476334)">
<text x="1154640.205698" y="1719676.465098" transform="scale(-1 1) translate(-2309280.411395 0)" textLength="47078.209325" font-size="74157.288773" lengthAdjust="spacingAndGlyphs" text-anchor="middle" opacity="0.01" style="font-family:monospace">K</text>
</g>
<g class="stroked-text"><desc>K</desc>
<path d="M1179800 1677300 L1124182 1677300 "/>
<path d="M1179800 1709082 L1148018 1685246 "/>
<path d="M1124182 1709082 L1155964 1677300 "/>
</g><g transform="rotate(-90.000000 1334842.452889 1773069.723525)">
<text x="1334842.452889" y="1800878.712289" transform="scale(-1 1) translate(-2669684.905777 0)" textLength="100047.720074" font-size="74157.288773" lengthAdjust="spacingAndGlyphs" text-anchor="middle" opacity="0.01" style="font-family:monospace">D2</text>
</g>
<g class="stroked-text"><desc>D2</desc>
<path d="M1360002 1732018 L1304384 1732018 L1304384 1745260 L1307033 1753206 L1312330 1758503 L1317627 1761151 L1328221 1763800 L1336166 1763800 L1346760 1761151 L1352057 1758503 L1357354 1753206 L1360002 1745260 L1360002 1732018 "/>
<path d="M1309681 1784987 L1307033 1787636 L1304384 1792933 L1304384 1806175 L1307033 1811472 L1309681 1814121 L1314978 1816769 L1320275 1816769 L1328221 1814121 L1360002 1782339 L1360002 1816769 "/>
</g><g transform="rotate(-90.000000 1332617.733787 1691867.476334)">
<text x="1332617.733787" y="1719676.465098" transform="scale(-1 1) translate(-2665235.467575 0)" textLength="47078.209325" font-size="74157.288773" lengthAdjust="spacingAndGlyphs" text-anchor="middle" opacity="0.01" style="font-family:monospace">K</text>
</g>
<g class="stroked-text"><desc>K</desc>
<path d="M1357778 1677300 L1302160 1677300 "/>
<path d="M1357778 1709082 L1325996 1685246 "/>
<path d="M1302160 1709082 L1333941 1677300 "/>
</g><g transform="rotate(-90.000000 439393.014686 837575.341502)">
<text x="439393.014686" y="859472.183049" transform="scale(-1 1) translate(-878786.029373 0)" textLength="437738.708308" font-size="58391.562859" lengthAdjust="spacingAndGlyphs" text-anchor="middle" opacity="0.01" style="font-family:monospace">BZV55C-5,6V</text>
</g>
<g class="stroked-text"><desc>BZV55C-5,6V</desc>
<path d="M436264 639461 L438350 645717 L440435 647802 L444606 649888 L450862 649888 L455033 647802 L457118 645717 L459204 641546 L459204 624863 L415410 624863 L415410 639461 L417496 643631 L419581 645717 L423752 647802 L427923 647802 L432094 645717 L434179 643631 L436264 639461 L436264 624863 "/>
<path d="M415410 664486 L415410 693681 L459204 664486 L459204 693681 "/>
<path d="M415410 704108 L459204 718706 L415410 733304 "/>
<path d="M415410 768756 L415410 747902 L436264 745817 L434179 747902 L432094 752073 L432094 762500 L434179 766671 L436264 768756 L440435 770842 L450862 770842 L455033 768756 L457118 766671 L459204 762500 L459204 752073 L457118 747902 L455033 745817 "/>
<path d="M415410 810464 L415410 789610 L436264 787525 L434179 789610 L432094 793781 L432094 804208 L434179 808379 L436264 810464 L440435 812550 L450862 812550 L455033 810464 L457118 808379 L459204 804208 L459204 793781 L457118 789610 L455033 787525 "/>
<path d="M455033 856344 L457118 854258 L459204 848002 L459204 843831 L457118 837575 L452948 833404 L448777 831319 L440435 829233 L434179 829233 L425837 831319 L421666 833404 L417496 837575 L415410 843831 L415410 848002 L417496 854258 L419581 856344 "/>
<path d="M442521 875112 L442521 908479 "/>
<path d="M415410 950187 L415410 929333 L436264 927248 L434179 929333 L432094 933504 L432094 943931 L434179 948102 L436264 950187 L440435 952273 L450862 952273 L455033 950187 L457118 948102 L459204 943931 L459204 933504 L457118 929333 L455033 927248 "/>
<path d="M457118 973127 L459204 973127 L463375 971041 L465460 968956 "/>
<path d="M415410 1010664 L415410 1002322 L417496 998152 L419581 996066 L425837 991895 L434179 989810 L450862 989810 L455033 991895 L457118 993981 L459204 998152 L459204 1006493 L457118 1010664 L455033 1012750 L450862 1014835 L440435 1014835 L436264 1012750 L434179 1010664 L432094 1006493 L432094 998152 L434179 993981 L436264 991895 L440435 989810 "/>
<path d="M415410 1027347 L459204 1041945 L415410 1056543 "/>
</g><text x="510584.025922" y="571371.059453" transform="scale(-1 1) translate(-1021168.051845 0)" textLength="76962.186588" font-size="58391.562859" lengthAdjust="spacingAndGlyphs" text-anchor="middle" opacity="0.01" style="font-family:monospace">D1</text>
<g class="stroked-text"><desc>D1</desc>
<path d="M542907 569285 L542907 525491 L532480 525491 L526224 527577 L522053 531748 L519968 535919 L517882 544260 L517882 550516 L519968 558858 L522053 563029 L526224 567200 L532480 569285 L542907 569285 "/>
<path d="M476174 569285 L501199 569285 "/>
<path d="M488687 569285 L488687 525491 L492858 531748 L497028 535919 L501199 538004 "/>
</g><g transform="rotate(-90.000000 1840966.048394 865384.330266)">
<text x="1840966.048394" y="887281.171813" transform="scale(-1 1) translate(-3681932.096788 0)" textLength="193745.356100" font-size="58391.562859" lengthAdjust="spacingAndGlyphs" text-anchor="middle" opacity="0.01" style="font-family:monospace">100nF</text>
</g>
<g class="stroked-text"><desc>100nF</desc>
<path d="M1860777 797608 L1860777 772583 "/>
<path d="M1860777 785095 L1816983 785095 L1823240 780925 L1827410 776754 L1829496 772583 "/>
<path d="M1816983 824718 L1816983 828889 L1819069 833060 L1821154 835145 L1825325 837231 L1833667 839316 L1844094 839316 L1852435 837231 L1856606 835145 L1858692 833060 L1860777 828889 L1860777 824718 L1858692 820547 L1856606 818462 L1852435 816377 L1844094 814291 L1833667 814291 L1825325 816377 L1821154 818462 L1819069 820547 L1816983 824718 "/>
<path d="M1816983 866427 L1816983 870597 L1819069 874768 L1821154 876854 L1825325 878939 L1833667 881024 L1844094 881024 L1852435 878939 L1856606 876854 L1858692 874768 L1860777 870597 L1860777 866427 L1858692 862256 L1856606 860170 L1852435 858085 L1844094 855999 L1833667 855999 L1825325 858085 L1821154 860170 L1819069 862256 L1816983 866427 "/>
<path d="M1831581 899793 L1860777 899793 "/>
<path d="M1835752 899793 L1833667 901879 L1831581 906049 L1831581 912306 L1833667 916476 L1837837 918562 L1860777 918562 "/>
<path d="M1837837 954014 L1837837 939416 "/>
<path d="M1860777 939416 L1816983 939416 L1816983 960270 "/>
</g></g>
<g style="fill:#000084; fill-opacity:0.0;  stroke:#000084; stroke-width:3503.494647; stroke-opacity:1;  stroke-linecap:round; stroke-linejoin:round;">
<g transform="rotate(-90.000000 1840966.048394 682957.363974)">
<text x="1840966.048394" y="693905.784747" transform="scale(-1 1) translate(-3681932.096788 0)" textLength="34211.187295" font-size="29195.759533" lengthAdjust="spacingAndGlyphs" text-anchor="middle" opacity="0.01" style="font-family:monospace">C6</text>
</g>
<g class="stroked-text"><desc>C6</desc>
<path d="M1848786 679307 L1849829 678265 L1850871 675137 L1850871 673051 L1849829 669923 L1847743 667838 L1845658 666795 L1841487 665752 L1838359 665752 L1834188 666795 L1832103 667838 L1830017 669923 L1828974 673051 L1828974 675137 L1830017 678265 L1831060 679307 "/>
<path d="M1828974 698076 L1828974 693905 L1830017 691820 L1831060 690777 L1834188 688692 L1838359 687649 L1846700 687649 L1848786 688692 L1849829 689734 L1850871 691820 L1850871 695991 L1849829 698076 L1848786 699119 L1846700 700162 L1841487 700162 L1839401 699119 L1838359 698076 L1837316 695991 L1837316 691820 L1838359 689734 L1839401 688692 L1841487 687649 "/>
</g></g>
<g style="fill:#000084; fill-opacity:0.0;  stroke:#000084; stroke-width:6569.052464; stroke-opacity:1;  stroke-linecap:round; stroke-linejoin:round;">
<g transform="rotate(-90.000000 1750864.924799 780845.004424)">
<text x="1750864.924799" y="802741.845970" transform="scale(-1 1) translate(-3501729.849597 0)" textLength="156022.309564" font-size="58391.562859" lengthAdjust="spacingAndGlyphs" text-anchor="middle" opacity="0.01" style="font-family:monospace">10uF</text>
</g>
<g class="stroked-text"><desc>10uF</desc>
<path d="M1770676 733923 L1770676 708898 "/>
<path d="M1770676 721410 L1726882 721410 L1733138 717239 L1737309 713069 L1739395 708898 "/>
<path d="M1726882 761033 L1726882 765204 L1728968 769375 L1731053 771460 L1735224 773546 L1743565 775631 L1753993 775631 L1762334 773546 L1766505 771460 L1768590 769375 L1770676 765204 L1770676 761033 L1768590 756862 L1766505 754777 L1762334 752691 L1753993 750606 L1743565 750606 L1735224 752691 L1731053 754777 L1728968 756862 L1726882 761033 "/>
<path d="M1741480 813168 L1770676 813168 "/>
<path d="M1741480 794400 L1764420 794400 L1768590 796485 L1770676 800656 L1770676 806912 L1768590 811083 L1766505 813168 "/>
<path d="M1747736 848620 L1747736 834023 "/>
<path d="M1770676 834023 L1726882 834023 L1726882 854877 "/>
</g></g>
<g style="fill:#000084; fill-opacity:0.0;  stroke:#000084; stroke-width:3503.494647; stroke-opacity:1;  stroke-linecap:round; stroke-linejoin:round;">
<g transform="rotate(-90.000000 1751977.284349 626783.206671)">
<text x="1751977.284349" y="637731.627444" transform="scale(-1 1) translate(-3503954.568699 0)" textLength="34211.187295" font-size="29195.759533" lengthAdjust="spacingAndGlyphs" text-anchor="middle" opacity="0.01" style="font-family:monospace">C5</text>
</g>
<g class="stroked-text"><desc>C5</desc>
<path d="M1759797 623133 L1760840 622091 L1761882 618962 L1761882 616877 L1760840 613749 L1758754 611663 L1756669 610621 L1752498 609578 L1749370 609578 L1745199 610621 L1743114 611663 L1741028 613749 L1739986 616877 L1739986 618962 L1741028 622091 L1742071 623133 "/>
<path d="M1739986 642945 L1739986 632518 L1750413 631475 L1749370 632518 L1748327 634603 L1748327 639817 L1749370 641902 L1750413 642945 L1752498 643987 L1757712 643987 L1759797 642945 L1760840 641902 L1761882 639817 L1761882 634603 L1760840 632518 L1759797 631475 "/>
</g></g>
<g style="fill:#000084; fill-opacity:0.0;  stroke:#000084; stroke-width:6569.052464; stroke-opacity:1;  stroke-linecap:round; stroke-linejoin:round;">
<g transform="rotate(-45.000000 1235842.496682 1023339.386446)">
<text x="1235842.496682" y="1045236.227993" transform="scale(-1 1) translate(-2471684.993365 0)" textLength="197730.581262" font-size="58391.562859" lengthAdjust="spacingAndGlyphs" text-anchor="middle" opacity="0.01" style="font-family:monospace">100nF</text>
</g>
<g class="stroked-text"><desc>100nF</desc>
<path d="M1297776 989423 L1315471 971728 "/>
<path d="M1306623 980575 L1275656 949608 L1283030 951083 L1288928 951083 L1293352 949608 "/>
<path d="M1247639 977626 L1244690 980575 L1243215 984999 L1243215 987948 L1244690 992372 L1249113 999745 L1256487 1007118 L1263860 1011542 L1268283 1013017 L1271233 1013017 L1275656 1011542 L1278606 1008593 L1280080 1004169 L1280080 1001220 L1278606 996796 L1274182 989423 L1266809 982050 L1259436 977626 L1255012 976151 L1252063 976151 L1247639 977626 "/>
<path d="M1218147 1007118 L1215197 1010067 L1213723 1014491 L1213723 1017440 L1215197 1021864 L1219621 1029237 L1226994 1036610 L1234367 1041034 L1238791 1042509 L1241740 1042509 L1246164 1041034 L1249113 1038085 L1250588 1033661 L1250588 1030712 L1249113 1026288 L1244690 1018915 L1237317 1011542 L1229944 1007118 L1225520 1005644 L1222570 1005644 L1218147 1007118 "/>
<path d="M1204875 1041034 L1225520 1061679 "/>
<path d="M1207824 1043983 L1204875 1043983 L1200451 1045458 L1196027 1049882 L1194553 1054306 L1196027 1058730 L1212248 1074950 "/>
<path d="M1170959 1083798 L1181281 1073476 "/>
<path d="M1197502 1089696 L1166535 1058730 L1151789 1073476 "/>
</g></g>
<g style="fill:#000084; fill-opacity:0.0;  stroke:#000084; stroke-width:3503.494647; stroke-opacity:1;  stroke-linecap:round; stroke-linejoin:round;">
<g transform="rotate(-45.000000 1359314.363001 894305.678581)">
<text x="1359314.363001" y="905254.099354" transform="scale(-1 1) translate(-2718628.726002 0)" textLength="34211.187295" font-size="29195.759533" lengthAdjust="spacingAndGlyphs" text-anchor="middle" opacity="0.01" style="font-family:monospace">C9</text>
</g>
<g class="stroked-text"><desc>C9</desc>
<path d="M1367424 897254 L1368899 897254 L1371848 895780 L1373323 894305 L1374797 891356 L1374797 888407 L1374060 886195 L1371848 882508 L1369636 880296 L1365950 878084 L1363738 877347 L1360788 877347 L1357839 878822 L1356365 880296 L1354890 883246 L1354890 884720 "/>
<path d="M1361526 906102 L1358577 909051 L1356365 909789 L1354890 909789 L1351203 909051 L1347517 906839 L1341618 900941 L1340881 898729 L1340881 897254 L1341618 895042 L1344568 892093 L1346780 891356 L1348254 891356 L1350466 892093 L1354153 895780 L1354890 897992 L1354890 899466 L1354153 901678 L1351203 904627 L1348992 905365 L1347517 905365 L1345305 904627 "/>
</g></g>
<g style="fill:#000084; fill-opacity:0.01;  stroke:#000084; stroke-width:6569.052464; stroke-opacity:1;  stroke-linecap:round; stroke-linejoin:round;">
<text x="765759.306821" y="1352803.643723" transform="scale(-1 1) translate(-1531518.613642 0)" textLength="83032.823144" font-size="58391.562859" lengthAdjust="spacingAndGlyphs" text-anchor="middle" opacity="0.01" style="font-family:monospace">U3</text>
<g class="stroked-text"><desc>U3</desc>
<path d="M799125 1306924 L799125 1342376 L797040 1346547 L794955 1348632 L790784 1350718 L782442 1350718 L778271 1348632 L776186 1346547 L774100 1342376 L774100 1306924 "/>
<path d="M757417 1306924 L730307 1306924 L744905 1323607 L738648 1323607 L734478 1325693 L732392 1327778 L730307 1331949 L730307 1342376 L732392 1346547 L734478 1348632 L738648 1350718 L751161 1350718 L755332 1348632 L757417 1346547 "/>
</g><text x="998353.688844" y="1233181.198354" transform="scale(-1 1) translate(-1996707.377687 0)" textLength="110328.812705" font-size="58391.562859" lengthAdjust="spacingAndGlyphs" text-anchor="middle" opacity="0.01" style="font-family:monospace">10k</text>
<g class="stroked-text"><desc>10k</desc>
<path d="M1024421 1231095 L1049446 1231095 "/>
<path d="M1036933 1231095 L1036933 1187302 L1041104 1193558 L1045275 1197729 L1049446 1199814 "/>
<path d="M997310 1187302 L993140 1187302 L988969 1189387 L986883 1191472 L984798 1195643 L982713 1203985 L982713 1214412 L984798 1222754 L986883 1226924 L988969 1229010 L993140 1231095 L997310 1231095 L1001481 1229010 L1003567 1226924 L1005652 1222754 L1007738 1214412 L1007738 1203985 L1005652 1195643 L1003567 1191472 L1001481 1189387 L997310 1187302 "/>
<path d="M963944 1231095 L963944 1187302 "/>
<path d="M959773 1214412 L947261 1231095 "/>
<path d="M947261 1201899 L963944 1218583 "/>
</g></g>
<g style="fill:#000084; fill-opacity:0.01;  stroke:#000084; stroke-width:3503.494647; stroke-opacity:1;  stroke-linecap:round; stroke-linejoin:round;">
<text x="998353.688844" y="1149973.200478" transform="scale(-1 1) translate(-1996707.377687 0)" textLength="34211.187295" font-size="29195.759533" lengthAdjust="spacingAndGlyphs" text-anchor="middle" opacity="0.01" style="font-family:monospace">R1</text>
<g class="stroked-text"><desc>R1</desc>
<path d="M1002003 1148930 L1009302 1138503 "/>
<path d="M1014515 1148930 L1014515 1127033 L1006173 1127033 L1004088 1128076 L1003045 1129119 L1002003 1131204 L1002003 1134332 L1003045 1136418 L1004088 1137460 L1006173 1138503 L1014515 1138503 "/>
<path d="M981148 1148930 L993661 1148930 "/>
<path d="M987405 1148930 L987405 1127033 L989490 1130161 L991576 1132247 L993661 1133289 "/>
</g></g>
<g style="fill:#000084; fill-opacity:0.0;  stroke:#000084; stroke-width:6569.052464; stroke-opacity:1;  stroke-linecap:round; stroke-linejoin:round;">
<g transform="rotate(-135.000000 2284479.654517 1384025.036274)">
<text x="2284479.654517" y="1405921.877820" transform="scale(-1 1) translate(-4568959.309033 0)" textLength="197730.581262" font-size="58391.562859" lengthAdjust="spacingAndGlyphs" text-anchor="middle" opacity="0.01" style="font-family:monospace">100nF</text>
</g>
<g class="stroked-text"><desc>100nF</desc>
<path d="M2250563 1322091 L2232868 1304396 "/>
<path d="M2241715 1313243 L2210749 1344210 L2212223 1336837 L2212223 1330939 L2210749 1326515 "/>
<path d="M2238766 1372228 L2241715 1375177 L2246139 1376651 L2249088 1376651 L2253512 1375177 L2260885 1370753 L2268258 1363380 L2272682 1356007 L2274157 1351583 L2274157 1348634 L2272682 1344210 L2269733 1341261 L2265309 1339786 L2262360 1339786 L2257936 1341261 L2250563 1345685 L2243190 1353058 L2238766 1360431 L2237292 1364855 L2237292 1367804 L2238766 1372228 "/>
<path d="M2268258 1401720 L2271208 1404669 L2275631 1406144 L2278581 1406144 L2283005 1404669 L2290378 1400245 L2297751 1392872 L2302174 1385499 L2303649 1381075 L2303649 1378126 L2302174 1373702 L2299225 1370753 L2294801 1369278 L2291852 1369278 L2287428 1370753 L2280055 1375177 L2272682 1382550 L2268258 1389923 L2266784 1394347 L2266784 1397296 L2268258 1401720 "/>
<path d="M2302174 1414991 L2322819 1394347 "/>
<path d="M2305124 1412042 L2305124 1414991 L2306598 1419415 L2311022 1423839 L2315446 1425314 L2319870 1423839 L2336090 1407618 "/>
<path d="M2344938 1448907 L2334616 1438585 "/>
<path d="M2350837 1422364 L2319870 1453331 L2334616 1468077 "/>
</g></g>
<g style="fill:#000084; fill-opacity:0.0;  stroke:#000084; stroke-width:3503.494647; stroke-opacity:1;  stroke-linecap:round; stroke-linejoin:round;">
<g transform="rotate(-135.000000 2336503.878616 1332000.812174)">
<text x="2336503.878616" y="1342949.232947" transform="scale(-1 1) translate(-4673007.757233 0)" textLength="55065.345041" font-size="29195.759533" lengthAdjust="spacingAndGlyphs" text-anchor="middle" opacity="0.01" style="font-family:monospace">C10</text>
</g>
<g class="stroked-text"><desc>C10</desc>
<path d="M2332080 1316517 L2332080 1315042 L2330605 1312093 L2329130 1310618 L2326181 1309144 L2323232 1309144 L2321020 1309881 L2317333 1312093 L2315122 1314305 L2312910 1317992 L2312172 1320203 L2312172 1323153 L2313647 1326102 L2315122 1327576 L2318071 1329051 L2319545 1329051 "/>
<path d="M2348300 1329788 L2339453 1320941 "/>
<path d="M2343876 1325365 L2328393 1340848 L2329130 1337161 L2329130 1334212 L2328393 1332000 "/>
<path d="M2342402 1354857 L2343876 1356331 L2346088 1357069 L2347563 1357069 L2349775 1356331 L2353461 1354119 L2357148 1350433 L2359360 1346746 L2360097 1344534 L2360097 1343060 L2359360 1340848 L2357885 1339373 L2355673 1338636 L2354199 1338636 L2351987 1339373 L2348300 1341585 L2344614 1345272 L2342402 1348958 L2341665 1351170 L2341665 1352645 L2342402 1354857 "/>
</g></g>
<g style="fill:#000084; fill-opacity:0.01;  stroke:#000084; stroke-width:6569.052464; stroke-opacity:1;  stroke-linecap:round; stroke-linejoin:round;">
<text x="1481673.913563" y="1307753.081925" transform="scale(-1 1) translate(-2963347.827126 0)" textLength="156022.309564" font-size="58391.562859" lengthAdjust="spacingAndGlyphs" text-anchor="middle" opacity="0.01" style="font-family:monospace">10nF</text>
<g class="stroked-text"><desc>10nF</desc>
<path d="M1528595 1305667 L1553620 1305667 "/>
<path d="M1541108 1305667 L1541108 1261873 L1545278 1268130 L1549449 1272301 L1553620 1274386 "/>
<path d="M1501485 1261873 L1497314 1261873 L1493143 1263959 L1491058 1266044 L1488972 1270215 L1486887 1278557 L1486887 1288984 L1488972 1297325 L1491058 1301496 L1493143 1303582 L1497314 1305667 L1501485 1305667 L1505656 1303582 L1507741 1301496 L1509826 1297325 L1511912 1288984 L1511912 1278557 L1509826 1270215 L1507741 1266044 L1505656 1263959 L1501485 1261873 "/>
<path d="M1468118 1276471 L1468118 1305667 "/>
<path d="M1468118 1280642 L1466033 1278557 L1461862 1276471 L1455606 1276471 L1451435 1278557 L1449349 1282728 L1449349 1305667 "/>
<path d="M1413897 1282728 L1428495 1282728 "/>
<path d="M1428495 1305667 L1428495 1261873 L1407641 1261873 "/>
</g></g>
<g style="fill:#000084; fill-opacity:0.0;  stroke:#000084; stroke-width:3503.494647; stroke-opacity:1;  stroke-linecap:round; stroke-linejoin:round;">
<g transform="rotate(-135.000000 1439422.600195 1190767.848359)">
<text x="1439422.600195" y="1201716.269132" transform="scale(-1 1) translate(-2878845.200389 0)" textLength="34211.187295" font-size="29195.759533" lengthAdjust="spacingAndGlyphs" text-anchor="middle" opacity="0.01" style="font-family:monospace">C7</text>
</g>
<g class="stroked-text"><desc>C7</desc>
<path d="M1442371 1182657 L1442371 1181182 L1440897 1178233 L1439422 1176759 L1436473 1175284 L1433524 1175284 L1431312 1176021 L1427625 1178233 L1425413 1180445 L1423201 1184132 L1422464 1186343 L1422464 1189293 L1423939 1192242 L1425413 1193717 L1428362 1195191 L1429837 1195191 "/>
<path d="M1433524 1201827 L1443846 1212149 L1452694 1190030 "/>
</g></g>
<g style="fill:#000084; fill-opacity:0.0;  stroke:#000084; stroke-width:6569.052464; stroke-opacity:1;  stroke-linecap:round; stroke-linejoin:round;">
<g transform="rotate(-45.000000 1590685.149518 836462.981952)">
<text x="1590685.149518" y="858359.823498" transform="scale(-1 1) translate(-3181370.299036 0)" textLength="197730.581262" font-size="58391.562859" lengthAdjust="spacingAndGlyphs" text-anchor="middle" opacity="0.01" style="font-family:monospace">100nF</text>
</g>
<g class="stroked-text"><desc>100nF</desc>
<path d="M1652618 802546 L1670314 784851 "/>
<path d="M1661466 793699 L1630499 762732 L1637872 764207 L1643771 764207 L1648194 762732 "/>
<path d="M1602482 790750 L1599532 793699 L1598058 798123 L1598058 801072 L1599532 805496 L1603956 812869 L1611329 820242 L1618702 824666 L1623126 826140 L1626075 826140 L1630499 824666 L1633448 821716 L1634923 817293 L1634923 814343 L1633448 809919 L1629024 802546 L1621651 795173 L1614278 790750 L1609855 789275 L1606905 789275 L1602482 790750 "/>
<path d="M1572989 820242 L1570040 823191 L1568565 827615 L1568565 830564 L1570040 834988 L1574464 842361 L1581837 849734 L1589210 854158 L1593634 855632 L1596583 855632 L1601007 854158 L1603956 851209 L1605431 846785 L1605431 843835 L1603956 839412 L1599532 832039 L1592159 824666 L1584786 820242 L1580362 818767 L1577413 818767 L1572989 820242 "/>
<path d="M1559718 854158 L1580362 874802 "/>
<path d="M1562667 857107 L1559718 857107 L1555294 858582 L1550870 863005 L1549396 867429 L1550870 871853 L1567091 888074 "/>
<path d="M1525802 896921 L1536124 886599 "/>
<path d="M1552345 902820 L1521378 871853 L1506632 886599 "/>
</g></g>
<g style="fill:#000084; fill-opacity:0.0;  stroke:#000084; stroke-width:3503.494647; stroke-opacity:1;  stroke-linecap:round; stroke-linejoin:round;">
<g transform="rotate(-135.000000 1509482.902327 774170.847120)">
<text x="1509482.902327" y="785119.267893" transform="scale(-1 1) translate(-3018965.804654 0)" textLength="34211.187295" font-size="29195.759533" lengthAdjust="spacingAndGlyphs" text-anchor="middle" opacity="0.01" style="font-family:monospace">C8</text>
</g>
<g class="stroked-text"><desc>C8</desc>
<path d="M1512432 766060 L1512432 764585 L1510957 761636 L1509482 760162 L1506533 758687 L1503584 758687 L1501372 759424 L1497685 761636 L1495474 763848 L1493262 767535 L1492524 769746 L1492524 772696 L1493999 775645 L1495474 777120 L1498423 778594 L1499897 778594 "/>
<path d="M1513906 782281 L1511694 781543 L1510220 781543 L1508008 782281 L1507270 783018 L1506533 785230 L1506533 786704 L1507270 788916 L1510220 791866 L1512432 792603 L1513906 792603 L1516118 791866 L1516855 791128 L1517593 788916 L1517593 787442 L1516855 785230 L1513906 782281 L1513169 780069 L1513169 778594 L1513906 776382 L1516855 773433 L1519067 772696 L1520542 772696 L1522754 773433 L1525703 776382 L1526440 778594 L1526440 780069 L1525703 782281 L1522754 785230 L1520542 785967 L1519067 785967 L1516855 785230 "/>
</g></g>
<g style="fill:#000084; fill-opacity:0.0;  stroke:#000084; stroke-width:6569.052464; stroke-opacity:1;  stroke-linecap:round; stroke-linejoin:round;">
<g transform="rotate(-90.000000 1932179.531540 526114.667345)">
<text x="1932179.531540" y="548011.508891" transform="scale(-1 1) translate(-3864359.063081 0)" textLength="164363.955145" font-size="58391.562859" lengthAdjust="spacingAndGlyphs" text-anchor="middle" opacity="0.01" style="font-family:monospace">100R</text>
</g>
<g class="stroked-text"><desc>100R</desc>
<path d="M1951990 475022 L1951990 449997 "/>
<path d="M1951990 462509 L1908197 462509 L1914453 458338 L1918624 454167 L1920709 449997 "/>
<path d="M1908197 502132 L1908197 506303 L1910282 510474 L1912368 512559 L1916538 514644 L1924880 516730 L1935307 516730 L1943649 514644 L1947820 512559 L1949905 510474 L1951990 506303 L1951990 502132 L1949905 497961 L1947820 495876 L1943649 493790 L1935307 491705 L1924880 491705 L1916538 493790 L1912368 495876 L1910282 497961 L1908197 502132 "/>
<path d="M1908197 543840 L1908197 548011 L1910282 552182 L1912368 554267 L1916538 556353 L1924880 558438 L1935307 558438 L1943649 556353 L1947820 554267 L1949905 552182 L1951990 548011 L1951990 543840 L1949905 539669 L1947820 537584 L1943649 535498 L1935307 533413 L1924880 533413 L1916538 535498 L1912368 537584 L1910282 539669 L1908197 543840 "/>
<path d="M1951990 602232 L1931136 587634 "/>
<path d="M1951990 577207 L1908197 577207 L1908197 593890 L1910282 598061 L1912368 600146 L1916538 602232 L1922795 602232 L1926965 600146 L1929051 598061 L1931136 593890 L1931136 577207 "/>
</g></g>
<g style="fill:#000084; fill-opacity:0.0;  stroke:#000084; stroke-width:3503.494647; stroke-opacity:1;  stroke-linecap:round; stroke-linejoin:round;">
<g transform="rotate(-90.000000 1931067.171990 682957.363974)">
<text x="1931067.171990" y="693905.784747" transform="scale(-1 1) translate(-3862134.343979 0)" textLength="34211.187295" font-size="29195.759533" lengthAdjust="spacingAndGlyphs" text-anchor="middle" opacity="0.01" style="font-family:monospace">R4</text>
</g>
<g class="stroked-text"><desc>R4</desc>
<path d="M1940972 679307 L1930545 672008 "/>
<path d="M1940972 666795 L1919076 666795 L1919076 675137 L1920118 677222 L1921161 678265 L1923246 679307 L1926374 679307 L1928460 678265 L1929503 677222 L1930545 675137 L1930545 666795 "/>
<path d="M1926374 698076 L1940972 698076 "/>
<path d="M1918033 692863 L1933673 687649 L1933673 701204 "/>
</g></g>
<g style="fill:#000084; fill-opacity:0.0;  stroke:#000084; stroke-width:4379.368309; stroke-opacity:1;  stroke-linecap:round; stroke-linejoin:round;">
<path d="M1923508 900651 L1923508 1207207 "/>
<path d="M2186270 1207207 L2230064 1163413 "/>
<path d="M2230064 900651 L1923508 900651 "/>
<path d="M1923508 1207207 L2186270 1207207 "/>
<path d="M2230064 1163413 L2230064 900651 "/>
<path d="M527943 850511 L473201 850511 "/>
<path d="M473201 850511 L473201 938099 "/>
<path d="M527943 938099 L527943 850511 "/>
<path d="M473201 938099 L527943 938099 "/>
<path d="M669309 946113 L669309 908888 "/>
<path d="M765655 946113 L765655 886992 "/>
<path d="M691206 886992 L765655 886992 "/>
<path d="M669309 946113 L765655 946113 "/>
<path d="M669309 908888 L691206 886992 "/>
<path d="M729088 773084 L678725 773084 "/>
<path d="M729088 637324 L650259 637324 "/>
<path d="M729088 773084 L729088 637324 "/>
<path d="M650259 744618 L650259 637324 "/>
<path d="M650259 744618 L678725 773084 "/>
<path d="M872775 751779 L872775 664191 "/>
<path d="M818033 751779 L872775 751779 "/>
<path d="M818033 664191 L818033 751779 "/>
<path d="M872775 664191 L818033 664191 "/>
<path d="M1069956 633339 L982368 633339 "/>
<path d="M982368 633339 L982368 688081 "/>
<path d="M982368 688081 L1069956 688081 "/>
<path d="M1069956 688081 L1069956 633339 "/>
<path d="M982368 799317 L1069956 799317 "/>
<path d="M1069956 744575 L982368 744575 "/>
<path d="M982368 744575 L982368 799317 "/>
<path d="M1069956 799317 L1069956 744575 "/>
<path d="M1390733 532739 L1429441 571448 "/>
<path d="M1452666 470806 L1390733 532739 "/>
<path d="M1491375 509514 L1452666 470806 "/>
<path d="M1429441 571448 L1491375 509514 "/>
<path d="M2419830 628040 L2419830 715627 "/>
<path d="M2474573 628040 L2419830 628040 "/>
<path d="M2474573 715627 L2474573 628040 "/>
<path d="M2419830 715627 L2474573 715627 "/>
<path d="M1792990 1389743 L1705402 1389743 "/>
<path d="M1705402 1389743 L1705402 1444485 "/>
<path d="M1792990 1444485 L1792990 1389743 "/>
<path d="M1705402 1444485 L1792990 1444485 "/>
<path d="M684550 1141104 L739292 1141104 "/>
<path d="M739292 1141104 L739292 1053517 "/>
<path d="M684550 1053517 L684550 1141104 "/>
<path d="M739292 1053517 L684550 1053517 "/>
<path d="M2196483 1495124 L2141741 1495124 "/>
<path d="M2196483 1582711 L2196483 1495124 "/>
<path d="M2141741 1582711 L2196483 1582711 "/>
<path d="M2141741 1495124 L2141741 1582711 "/>
<path d="M562190 853292 L562190 940880 "/>
<path d="M562190 940880 L616932 940880 "/>
<path d="M616932 940880 L616932 853292 "/>
<path d="M616932 853292 L562190 853292 "/>
<path d="M1477138 584266 L1415205 646200 "/>
<path d="M1453913 684909 L1515847 622975 "/>
<path d="M1415205 646200 L1453913 684909 "/>
<path d="M1515847 622975 L1477138 584266 "/>
<path d="M828280 1141104 L828280 1053517 "/>
<path d="M773538 1053517 L773538 1141104 "/>
<path d="M828280 1053517 L773538 1053517 "/>
<path d="M773538 1141104 L828280 1141104 "/>
</g>
<g style="fill:#000084; fill-opacity:0.0;  stroke:#000084; stroke-width:6569.052464; stroke-opacity:1;  stroke-linecap:round; stroke-linejoin:round;">
<path d="M1094572 1883193 L1219157 1883193 "/>
<path d="M1219157 1880968 L1219157 1664058 "/>
<path d="M1219157 1662946 L1094572 1662946 "/>
<path d="M1094572 1666283 L1094572 1883193 "/>
<path d="M1272550 1883193 L1397134 1883193 "/>
<path d="M1272550 1666283 L1272550 1883193 "/>
<path d="M1397134 1880968 L1397134 1664058 "/>
<path d="M1397134 1662946 L1272550 1662946 "/>
</g>
<g style="fill:#000084; fill-opacity:0.0;  stroke:#000084; stroke-width:4379.368309; stroke-opacity:1;  stroke-linecap:round; stroke-linejoin:round;">
<path d="M546731 611924 L476661 611924 "/>
<path d="M511696 699511 L529213 673235 "/>
<path d="M546731 756443 L546731 611924 "/>
<path d="M529213 673235 L494178 673235 "/>
<path d="M511696 699511 L535782 699511 "/>
<path d="M476661 756443 L546731 756443 "/>
<path d="M511696 673235 L511696 651338 "/>
<path d="M476661 611924 L476661 756443 "/>
<path d="M511696 699511 L487609 699511 "/>
<path d="M494178 673235 L511696 699511 "/>
<path d="M511696 717028 L511696 699511 "/>
<path d="M1813594 639163 L1813594 726751 "/>
<path d="M1813594 726751 L1868337 726751 "/>
<path d="M1868337 726751 L1868337 639163 "/>
<path d="M1868337 639163 L1813594 639163 "/>
<path d="M1724606 670576 L1779348 670576 "/>
<path d="M1779348 582989 L1724606 582989 "/>
<path d="M1724606 582989 L1724606 670576 "/>
<path d="M1779348 670576 L1779348 582989 "/>
<path d="M1370926 843984 L1308993 905918 "/>
<path d="M1308993 905918 L1347701 944626 "/>
<path d="M1347701 944626 L1409635 882693 "/>
<path d="M1409635 882693 L1370926 843984 "/>
</g>
<g style="fill:#000084; fill-opacity:0.0;  stroke:#000084; stroke-width:6569.052464; stroke-opacity:1;  stroke-linecap:round; stroke-linejoin:round;">
<path d="M857743 1221475 L857743 1227825 "/>
<path d="M675999 1221475 L857743 1221475 "/>
<path d="M675999 1447012 L675999 1440662 "/>
<path d="M857743 1447012 L857743 1440662 "/>
<path d="M857743 1221475 L857743 1227825 "/>
<path d="M675999 1440662 L614688 1440662 "/>
<path d="M675658 1447012 L857401 1447012 "/>
<path d="M675999 1221475 L675999 1227825 "/>
</g>
<g style="fill:#000084; fill-opacity:0.0;  stroke:#000084; stroke-width:4379.368309; stroke-opacity:1;  stroke-linecap:round; stroke-linejoin:round;">
<path d="M954560 1166395 L1042147 1166395 "/>
<path d="M1042147 1111653 L954560 1111653 "/>
<path d="M1042147 1166395 L1042147 1111653 "/>
<path d="M954560 1111653 L954560 1166395 "/>
<path d="M2324891 1281679 L2286182 1320388 "/>
<path d="M2286182 1320388 L2348116 1382321 "/>
<path d="M2348116 1382321 L2386824 1343613 "/>
<path d="M2386824 1343613 L2324891 1281679 "/>
<path d="M1427810 1140446 L1389101 1179155 "/>
<path d="M1389101 1179155 L1451035 1241088 "/>
<path d="M1489743 1202380 L1427810 1140446 "/>
<path d="M1451035 1241088 L1489743 1202380 "/>
<path d="M1459161 762558 L1521095 824491 "/>
<path d="M1497870 723849 L1459161 762558 "/>
<path d="M1559803 785783 L1497870 723849 "/>
<path d="M1521095 824491 L1559803 785783 "/>
<path d="M1958438 726751 L1958438 639163 "/>
<path d="M1903696 726751 L1958438 726751 "/>
<path d="M1958438 639163 L1903696 639163 "/>
<path d="M1903696 639163 L1903696 726751 "/>
<g>
</g>
<g>
</g>
<g>
</g>
<g>
</g>
<g>
</g>
<g>
</g>
<g>
</g>
<g>
</g>
<g>
</g>
<g>
</g>
<g>
</g>
<g>
</g>
<g>
</g>
<g>
</g>
<g>
</g>
<g>
</g>
<g>
</g>
<g>
</g>
<g>
</g>
<g>
</g>
<g>
</g>
<g>
</g>
<g>
</g>
<g>
</g>
<g>
</g>
<g>
</g>
<g>
</g>
<g>
</g>
<g>
</g>
<g>
</g>
<g>
</g>
<g>
</g>
<g>
</g>
<g>
</g>
<g>
</g>
<g>
</g>
<g>
</g>
<g>
</g>
<g>
</g>
<g>
</g>
<g>
</g>
<g>
</g>
<g>
</g>
<g>
</g>
<g>
</g>
<g>
</g>
<g>
</g>
<g>
</g>
<g>
</g>
<g>
</g>
<g>
</g>
<g>
</g>
<g>
</g>
<g>
</g>
<g>
</g>
<g>
</g>
<g>
</g>
<g>
</g>
<g>
</g>
<g>
</g>
<g>
</g>
<g>
</g>
<g>
</g>
<g>
</g>
<g>
</g>
<g>
</g>
<g>
</g>
<g>
</g>
<g>
</g>
</g> 
<svg:g><svg:g><svg:title>SVG Picture created as PROGLOG01-Edge_Cuts.svg date 2023/03/04 00:14:17 </svg:title>
  <svg:desc>Picture generated by PCBNEW </svg:desc>
<svg:g style="fill:#C2C200; fill-opacity:1.000000;stroke:#C2C200; stroke-opacity:1.000000; stroke-linecap:round; stroke-linejoin:round;" transform="translate(0 0) scale(1 1)">
</svg:g>
<svg:g style="fill:#C2C200; fill-opacity:0.0;  stroke:#C2C200; stroke-width:0.000000; stroke-opacity:1;  stroke-linecap:round; stroke-linejoin:round;">
</svg:g>
<svg:g style="fill:#C2C200; fill-opacity:0.0;  stroke:#C2C200; stroke-width:6569.052464; stroke-opacity:1;  stroke-linecap:round; stroke-linejoin:round;">
<svg:path d="M2814280 171271 L2814280 1928800 "/>
<svg:path d="M166864 1483856 L166864 1928800 "/>
<svg:path d="M2814280 1928800 L166864 1928800 "/>
<svg:path d="M166864 171271 L2369336 171271 "/>
<svg:path d="M166864 1483856 L166864 171271 "/>
<svg:path d="M2369336 171271 L2814280 171271 "/>
<svg:g>
</svg:g>
<svg:g>
</svg:g>
<svg:g>
</svg:g>
<svg:g>
</svg:g>
<svg:g>
</svg:g>
<svg:g>
</svg:g>
<svg:g>
</svg:g>
<svg:g>
</svg:g>
<svg:g>
</svg:g>
<svg:g>
</svg:g>
<svg:g>
</svg:g>
<svg:g>
</svg:g>
<svg:g>
</svg:g>
<svg:g>
</svg:g>
<svg:g>
</svg:g>
<svg:g>
</svg:g>
<svg:g>
</svg:g>
<svg:g>
</svg:g>
<svg:g>
</svg:g>
<svg:g>
</svg:g>
<svg:g>
</svg:g>
<svg:g>
</svg:g>
<svg:g>
</svg:g>
<svg:g>
</svg:g>
<svg:g>
</svg:g>
<svg:g>
</svg:g>
<svg:g>
</svg:g>
<svg:g>
</svg:g>
<svg:g>
</svg:g>
<svg:g>
</svg:g>
<svg:g>
</svg:g>
<svg:g>
</svg:g>
<svg:g>
</svg:g>
<svg:g>
</svg:g>
<svg:g>
</svg:g>
<svg:g>
</svg:g>
<svg:g>
</svg:g>
<svg:g>
</svg:g>
<svg:g>
</svg:g>
<svg:g>
</svg:g>
<svg:g>
</svg:g>
<svg:g>
</svg:g>
<svg:g>
</svg:g>
<svg:g>
</svg:g>
<svg:g>
</svg:g>
<svg:g>
</svg:g>
<svg:g>
</svg:g>
<svg:g>
</svg:g>
<svg:g>
</svg:g>
<svg:g>
</svg:g>
<svg:g>
</svg:g>
<svg:g>
</svg:g>
<svg:g>
</svg:g>
<svg:g>
</svg:g>
<svg:g>
</svg:g>
<svg:g>
</svg:g>
<svg:g>
</svg:g>
<svg:g>
</svg:g>
<svg:g>
</svg:g>
<svg:g>
</svg:g>
<svg:g>
</svg:g>
<svg:g>
</svg:g>
<svg:g>
</svg:g>
<svg:g>
</svg:g>
<svg:g>
</svg:g>
<svg:g>
</svg:g>
<svg:g>
</svg:g>
<svg:g>
</svg:g>
<svg:g>
</svg:g>
</svg:g> 
</svg:g></svg:g></svg>
