<?xml version='1.0' encoding='ASCII' standalone='yes'?>
<svg xmlns:svg="http://www.w3.org/2000/svg" xmlns="http://www.w3.org/2000/svg" xmlns:xlink="http://www.w3.org/1999/xlink" version="1.1" width="29.700220cm" height="21.000720cm" viewBox="0 0 2970022 2100072">
<title>SVG Picture created as PROGLOG01-B_Fab.svg date 2023/02/19 23:01:52 </title>
  <desc>Picture generated by PCBNEW </desc>
<g style="fill:#000084; fill-opacity:1.000000;stroke:#000084; stroke-opacity:1.000000; stroke-linecap:round; stroke-linejoin:round;" transform="translate(0 0) scale(1 1)">
</g>
<g style="fill:#000084; fill-opacity:0.0;  stroke:#000084; stroke-width:0.000000; stroke-opacity:1;  stroke-linecap:round; stroke-linejoin:round;">
</g>
<g style="fill:#000084; fill-opacity:0.0;  stroke:#000084; stroke-width:6569.052464; stroke-opacity:1;  stroke-linecap:round; stroke-linejoin:round;">
<g transform="rotate(-90.000000 2076786.273113 1053929.274087)">
<text x="2076786.273113" y="1075826.115633" transform="scale(-1 1) translate(-4153572.546227 0)" textLength="87587.322392" font-size="58391.562859" lengthAdjust="spacingAndGlyphs" text-anchor="middle" opacity="0.01" style="font-family:monospace">U4</text>
</g>
<g class="stroked-text"><desc>U4</desc>
<path d="M2052803 1020562 L2088256 1020562 L2092426 1022648 L2094512 1024733 L2096597 1028904 L2096597 1037245 L2094512 1041416 L2092426 1043502 L2088256 1045587 L2052803 1045587 "/>
<path d="M2067401 1085210 L2096597 1085210 "/>
<path d="M2050718 1074783 L2081999 1064356 L2081999 1091466 "/>
</g></g>
<g style="fill:#000084; fill-opacity:0.0;  stroke:#000084; stroke-width:4783.146067; stroke-opacity:1;  stroke-linecap:round; stroke-linejoin:round;">
<g transform="rotate(-90.000000 486668.295585 894305.678581)">
<text x="486668.295585" y="905262.420154" transform="scale(-1 1) translate(-973336.591170 0)" textLength="34243.682208" font-size="29217.962930" lengthAdjust="spacingAndGlyphs" text-anchor="middle" opacity="0.01" style="font-family:monospace">C3</text>
</g>
<g class="stroked-text"><desc>C3</desc>
<path d="M494494 890653 L495538 889609 L496581 886479 L496581 884392 L495538 881261 L493451 879174 L491364 878131 L487190 877087 L484059 877087 L479885 878131 L477798 879174 L475711 881261 L474668 884392 L474668 886479 L475711 889609 L476755 890653 "/>
<path d="M474668 897957 L474668 911523 L483016 904218 L483016 907349 L484059 909436 L485103 910479 L487190 911523 L492407 911523 L494494 910479 L495538 909436 L496581 907349 L496581 901088 L495538 899001 L494494 897957 "/>
</g><g transform="rotate(-90.000000 517258.183226 899867.476334)">
<text x="517258.183226" y="910824.217907" transform="scale(-1 1) translate(-1034516.366451 0)" textLength="74131.362913" font-size="29217.962930" lengthAdjust="spacingAndGlyphs" text-anchor="middle" opacity="0.01" style="font-family:monospace">10uF</text>
</g>
<g class="stroked-text"><desc>10uF</desc>
<path d="M527171 876388 L527171 863866 "/>
<path d="M527171 870127 L505257 870127 L508388 868040 L510475 865953 L511518 863866 "/>
<path d="M505257 889954 L505257 892041 L506301 894128 L507344 895171 L509431 896215 L513605 897258 L518823 897258 L522997 896215 L525084 895171 L526127 894128 L527171 892041 L527171 889954 L526127 887867 L525084 886823 L522997 885780 L518823 884736 L513605 884736 L509431 885780 L507344 886823 L506301 887867 L505257 889954 "/>
<path d="M512562 916041 L527171 916041 "/>
<path d="M512562 906650 L524040 906650 L526127 907693 L527171 909780 L527171 912911 L526127 914998 L525084 916041 "/>
<path d="M515692 933781 L515692 926476 "/>
<path d="M527171 926476 L505257 926476 L505257 936911 "/>
</g></g>
<g style="fill:#000084; fill-opacity:0.01;  stroke:#000084; stroke-width:3284.526232; stroke-opacity:1;  stroke-linecap:round; stroke-linejoin:round;">
<text x="717482.902327" y="927501.290365" transform="scale(-1 1) translate(-1434965.804654 0)" textLength="37575.593205" font-size="29195.759533" lengthAdjust="spacingAndGlyphs" text-anchor="middle" opacity="0.01" style="font-family:monospace">U1</text>
<g class="stroked-text"><desc>U1</desc>
<path d="M734166 904561 L734166 922287 L733123 924373 L732080 925415 L729995 926458 L725824 926458 L723739 925415 L722696 924373 L721653 922287 L721653 904561 "/>
<path d="M699756 926458 L712269 926458 "/>
<path d="M706013 926458 L706013 904561 L708098 907689 L710183 909775 L712269 910817 "/>
</g><g transform="rotate(-90.000000 689673.913563 705204.554985)">
<text x="689673.913563" y="716152.975759" transform="scale(-1 1) translate(-1379347.827126 0)" textLength="39523.798991" font-size="29195.759533" lengthAdjust="spacingAndGlyphs" text-anchor="middle" opacity="0.01" style="font-family:monospace">U2</text>
</g>
<g class="stroked-text"><desc>U2</desc>
<path d="M677682 688521 L695408 688521 L697494 689563 L698536 690606 L699579 692692 L699579 696862 L698536 698948 L697494 699991 L695408 701033 L677682 701033 "/>
<path d="M679768 710418 L678725 711460 L677682 713546 L677682 718759 L678725 720845 L679768 721887 L681853 722930 L683938 722930 L687067 721887 L699579 709375 L699579 722930 "/>
</g></g>
<g style="fill:#000084; fill-opacity:0.01;  stroke:#000084; stroke-width:4783.146067; stroke-opacity:1;  stroke-linecap:round; stroke-linejoin:round;">
<g transform="rotate(-90.000000 859308.745023 707985.453862)">
<text x="859308.745023" y="718942.195435" transform="scale(-1 1) translate(-1718617.490047 0)" textLength="38513.566310" font-size="29217.962930" lengthAdjust="spacingAndGlyphs" text-anchor="middle" opacity="0.01" style="font-family:monospace">C4</text>
</g>
<g class="stroked-text"><desc>C4</desc>
<path d="M867134 704333 L868178 703289 L869221 700159 L869221 698072 L868178 694941 L866091 692854 L864004 691811 L859830 690767 L856699 690767 L852525 691811 L850438 692854 L848352 694941 L847308 698072 L847308 700159 L848352 703289 L849395 704333 "/>
<path d="M854612 723116 L869221 723116 "/>
<path d="M846264 717898 L861917 712681 L861917 726246 "/>
</g><g transform="rotate(-90.000000 828718.857383 702423.656109)">
<text x="828718.857383" y="713380.397682" transform="scale(-1 1) translate(-1657437.714766 0)" textLength="53261.351853" font-size="29217.962930" lengthAdjust="spacingAndGlyphs" text-anchor="middle" opacity="0.01" style="font-family:monospace">1uF</text>
</g>
<g class="stroked-text"><desc>1uF</desc>
<path d="M838632 689379 L838632 676857 "/>
<path d="M838632 683118 L816718 683118 L819849 681031 L821936 678944 L822979 676857 "/>
<path d="M824023 708162 L838632 708162 "/>
<path d="M824023 698771 L835501 698771 L837588 699814 L838632 701901 L838632 705032 L837588 707119 L836545 708162 "/>
<path d="M827153 725902 L827153 718597 "/>
<path d="M838632 718597 L816718 718597 L816718 729032 "/>
</g><text x="1026162.677608" y="685571.408918" transform="scale(-1 1) translate(-2052325.355215 0)" textLength="36565.360524" font-size="29217.962930" lengthAdjust="spacingAndGlyphs" text-anchor="middle" opacity="0.01" style="font-family:monospace">R3</text>
<g class="stroked-text"><desc>R3</desc>
<path d="M1029814 684527 L1037119 674092 "/>
<path d="M1042336 684527 L1042336 662614 L1033988 662614 L1031901 663657 L1030858 664701 L1029814 666788 L1029814 669918 L1030858 672005 L1031901 673049 L1033988 674092 L1042336 674092 "/>
<path d="M1022510 662614 L1008944 662614 L1016249 670962 L1013118 670962 L1011031 672005 L1009988 673049 L1008944 675136 L1008944 680353 L1009988 682440 L1011031 683484 L1013118 684527 L1019379 684527 L1021466 683484 L1022510 682440 "/>
</g><text x="1031724.475361" y="654981.521278" transform="scale(-1 1) translate(-2063448.950721 0)" textLength="36565.360524" font-size="29217.962930" lengthAdjust="spacingAndGlyphs" text-anchor="middle" opacity="0.01" style="font-family:monospace">0R</text>
<g class="stroked-text"><desc>0R</desc>
<path d="M1043724 632024 L1041637 632024 L1039550 633068 L1038507 634111 L1037463 636198 L1036420 640372 L1036420 645590 L1037463 649763 L1038507 651851 L1039550 652894 L1041637 653938 L1043724 653938 L1045811 652894 L1046855 651851 L1047898 649763 L1048942 645590 L1048942 640372 L1047898 636198 L1046855 634111 L1045811 633068 L1043724 632024 "/>
<path d="M1014506 653938 L1021811 643503 "/>
<path d="M1027028 653938 L1027028 632024 L1018680 632024 L1016593 633068 L1015550 634111 L1014506 636198 L1014506 639329 L1015550 641415 L1016593 642459 L1018680 643503 L1027028 643503 "/>
</g><text x="1026162.677608" y="796807.363974" transform="scale(-1 1) translate(-2052325.355215 0)" textLength="36565.360524" font-size="29217.962930" lengthAdjust="spacingAndGlyphs" text-anchor="middle" opacity="0.01" style="font-family:monospace">R2</text>
<g class="stroked-text"><desc>R2</desc>
<path d="M1029814 795763 L1037119 785328 "/>
<path d="M1042336 795763 L1042336 773850 L1033988 773850 L1031901 774893 L1030858 775937 L1029814 778024 L1029814 781154 L1030858 783241 L1031901 784285 L1033988 785328 L1042336 785328 "/>
<path d="M1021466 775937 L1020423 774893 L1018336 773850 L1013118 773850 L1011031 774893 L1009988 775937 L1008944 778024 L1008944 780111 L1009988 783241 L1022510 795763 L1008944 795763 "/>
</g><text x="1031724.475361" y="766217.476334" transform="scale(-1 1) translate(-2063448.950721 0)" textLength="36565.360524" font-size="29217.962930" lengthAdjust="spacingAndGlyphs" text-anchor="middle" opacity="0.01" style="font-family:monospace">0R</text>
<g class="stroked-text"><desc>0R</desc>
<path d="M1043724 743260 L1041637 743260 L1039550 744303 L1038507 745347 L1037463 747434 L1036420 751608 L1036420 756825 L1037463 760999 L1038507 763086 L1039550 764130 L1041637 765173 L1043724 765173 L1045811 764130 L1046855 763086 L1047898 760999 L1048942 756825 L1048942 751608 L1047898 747434 L1046855 745347 L1045811 744303 L1043724 743260 "/>
<path d="M1014506 765173 L1021811 754738 "/>
<path d="M1027028 765173 L1027028 743260 L1018680 743260 L1016593 744303 L1015550 745347 L1014506 747434 L1014506 750564 L1015550 752651 L1016593 753695 L1018680 754738 L1027028 754738 "/>
</g><g transform="rotate(-45.000000 1450886.385031 530959.343537)">
<text x="1450886.385031" y="541916.085110" transform="scale(-1 1) translate(-2901772.770061 0)" textLength="36565.360524" font-size="29217.962930" lengthAdjust="spacingAndGlyphs" text-anchor="middle" opacity="0.01" style="font-family:monospace">R8</text>
</g>
<g class="stroked-text"><desc>R8</desc>
<path d="M1460478 535386 L1458265 522842 "/>
<path d="M1469332 526532 L1453837 511036 L1447934 516939 L1447197 519153 L1447197 520629 L1447934 522842 L1450148 525056 L1452362 525794 L1453837 525794 L1456051 525056 L1461954 519153 "/>
<path d="M1442769 535386 L1443507 533172 L1443507 531697 L1442769 529483 L1442031 528745 L1439818 528007 L1438342 528007 L1436129 528745 L1433177 531697 L1432439 533910 L1432439 535386 L1433177 537600 L1433915 538337 L1436129 539075 L1437604 539075 L1439818 538337 L1442769 535386 L1444983 534648 L1446459 534648 L1448672 535386 L1451624 538337 L1452362 540551 L1452362 542027 L1451624 544240 L1448672 547192 L1446459 547930 L1444983 547930 L1442769 547192 L1439818 544240 L1439080 542027 L1439080 540551 L1439818 538337 "/>
</g><g transform="rotate(-45.000000 1433188.875962 505396.270017)">
<text x="1433188.875962" y="516353.011590" transform="scale(-1 1) translate(-2866377.751924 0)" textLength="78305.338848" font-size="29217.962930" lengthAdjust="spacingAndGlyphs" text-anchor="middle" opacity="0.01" style="font-family:monospace">100R</text>
</g>
<g class="stroked-text"><desc>100R</desc>
<path d="M1458276 494328 L1467130 485473 "/>
<path d="M1462703 489901 L1447208 474405 L1450897 475143 L1453849 475143 L1456062 474405 "/>
<path d="M1433188 488425 L1431713 489901 L1430975 492114 L1430975 493590 L1431713 495804 L1433926 499493 L1437616 503182 L1441305 505396 L1443518 506134 L1444994 506134 L1447208 505396 L1448684 503920 L1449421 501706 L1449421 500231 L1448684 498017 L1446470 494328 L1442781 490638 L1439091 488425 L1436878 487687 L1435402 487687 L1433188 488425 "/>
<path d="M1418431 503182 L1416955 504658 L1416217 506871 L1416217 508347 L1416955 510561 L1419169 514250 L1422858 517939 L1426548 520153 L1428761 520891 L1430237 520891 L1432450 520153 L1433926 518677 L1434664 516464 L1434664 514988 L1433926 512774 L1431713 509085 L1428023 505396 L1424334 503182 L1422120 502444 L1420645 502444 L1418431 503182 "/>
<path d="M1413266 539338 L1411052 526794 "/>
<path d="M1422120 530483 L1406625 514988 L1400722 520891 L1399984 523105 L1399984 524580 L1400722 526794 L1402936 529007 L1405149 529745 L1406625 529745 L1408839 529007 L1414742 523105 "/>
</g><g transform="rotate(-90.000000 2433297.509068 671833.768469)">
<text x="2433297.509068" y="682790.510042" transform="scale(-1 1) translate(-4866595.018137 0)" textLength="57435.371583" font-size="29217.962930" lengthAdjust="spacingAndGlyphs" text-anchor="middle" opacity="0.01" style="font-family:monospace">R10</text>
</g>
<g class="stroked-text"><desc>R10</desc>
<path d="M2443210 657746 L2432775 650441 "/>
<path d="M2443210 645224 L2421297 645224 L2421297 653572 L2422340 655659 L2423384 656703 L2425471 657746 L2428601 657746 L2430688 656703 L2431732 655659 L2432775 653572 L2432775 645224 "/>
<path d="M2443210 678616 L2443210 666094 "/>
<path d="M2443210 672355 L2421297 672355 L2424427 670268 L2426514 668181 L2427558 666094 "/>
<path d="M2421297 692181 L2421297 694268 L2422340 696355 L2423384 697399 L2425471 698442 L2429645 699486 L2434862 699486 L2439036 698442 L2441123 697399 L2442167 696355 L2443210 694268 L2443210 692181 L2442167 690094 L2441123 689051 L2439036 688008 L2434862 686964 L2429645 686964 L2425471 688008 L2423384 689051 L2422340 690094 L2421297 692181 "/>
</g><g transform="rotate(-90.000000 2463887.396709 677395.566221)">
<text x="2463887.396709" y="688352.307794" transform="scale(-1 1) translate(-4927774.793418 0)" textLength="78305.338848" font-size="29217.962930" lengthAdjust="spacingAndGlyphs" text-anchor="middle" opacity="0.01" style="font-family:monospace">200R</text>
</g>
<g class="stroked-text"><desc>200R</desc>
<path d="M2453974 639307 L2452930 640351 L2451887 642438 L2451887 647655 L2452930 649742 L2453974 650786 L2456061 651829 L2458148 651829 L2461278 650786 L2473800 638264 L2473800 651829 "/>
<path d="M2451887 665395 L2451887 667482 L2452930 669569 L2453974 670612 L2456061 671656 L2460235 672699 L2465452 672699 L2469626 671656 L2471713 670612 L2472757 669569 L2473800 667482 L2473800 665395 L2472757 663308 L2471713 662264 L2469626 661221 L2465452 660177 L2460235 660177 L2456061 661221 L2453974 662264 L2452930 663308 L2451887 665395 "/>
<path d="M2451887 686265 L2451887 688352 L2452930 690439 L2453974 691482 L2456061 692526 L2460235 693569 L2465452 693569 L2469626 692526 L2471713 691482 L2472757 690439 L2473800 688352 L2473800 686265 L2472757 684178 L2471713 683134 L2469626 682091 L2465452 681047 L2460235 681047 L2456061 682091 L2453974 683134 L2452930 684178 L2451887 686265 "/>
<path d="M2473800 715483 L2463365 708178 "/>
<path d="M2473800 702961 L2451887 702961 L2451887 711309 L2452930 713396 L2453974 714439 L2456061 715483 L2459191 715483 L2461278 714439 L2462322 713396 L2463365 711309 L2463365 702961 "/>
</g><text x="1749196.385473" y="1441975.903300" transform="scale(-1 1) translate(-3498392.770946 0)" textLength="36565.360524" font-size="29217.962930" lengthAdjust="spacingAndGlyphs" text-anchor="middle" opacity="0.01" style="font-family:monospace">R9</text>
<g class="stroked-text"><desc>R9</desc>
<path d="M1752848 1440932 L1760153 1430497 "/>
<path d="M1765370 1440932 L1765370 1419018 L1757022 1419018 L1754935 1420062 L1753892 1421105 L1752848 1423192 L1752848 1426323 L1753892 1428410 L1754935 1429453 L1757022 1430497 L1765370 1430497 "/>
<path d="M1742413 1440932 L1738239 1440932 L1736152 1439888 L1735109 1438845 L1733022 1435714 L1731978 1431540 L1731978 1423192 L1733022 1421105 L1734065 1420062 L1736152 1419018 L1740326 1419018 L1742413 1420062 L1743457 1421105 L1744500 1423192 L1744500 1428410 L1743457 1430497 L1742413 1431540 L1740326 1432584 L1736152 1432584 L1734065 1431540 L1733022 1430497 L1731978 1428410 "/>
</g><text x="1754758.183226" y="1411386.015660" transform="scale(-1 1) translate(-3509516.366451 0)" textLength="78305.338848" font-size="29217.962930" lengthAdjust="spacingAndGlyphs" text-anchor="middle" opacity="0.01" style="font-family:monospace">200R</text>
<g class="stroked-text"><desc>200R</desc>
<path d="M1792845 1390516 L1791802 1389472 L1789715 1388429 L1784497 1388429 L1782410 1389472 L1781367 1390516 L1780323 1392602 L1780323 1394690 L1781367 1397820 L1793889 1410342 L1780323 1410342 "/>
<path d="M1766758 1388429 L1764671 1388429 L1762584 1389472 L1761540 1390516 L1760497 1392602 L1759453 1396777 L1759453 1401994 L1760497 1406168 L1761540 1408255 L1762584 1409298 L1764671 1410342 L1766758 1410342 L1768845 1409298 L1769888 1408255 L1770932 1406168 L1771975 1401994 L1771975 1396777 L1770932 1392602 L1769888 1390516 L1768845 1389472 L1766758 1388429 "/>
<path d="M1745888 1388429 L1743801 1388429 L1741714 1389472 L1740670 1390516 L1739627 1392602 L1738583 1396777 L1738583 1401994 L1739627 1406168 L1740670 1408255 L1741714 1409298 L1743801 1410342 L1745888 1410342 L1747975 1409298 L1749018 1408255 L1750062 1406168 L1751105 1401994 L1751105 1396777 L1750062 1392602 L1749018 1390516 L1747975 1389472 L1745888 1388429 "/>
<path d="M1716670 1410342 L1723974 1399907 "/>
<path d="M1729192 1410342 L1729192 1388429 L1720844 1388429 L1718757 1389472 L1717713 1390516 L1716670 1392602 L1716670 1395733 L1717713 1397820 L1718757 1398864 L1720844 1399907 L1729192 1399907 "/>
</g><g transform="rotate(-90.000000 698016.610192 1097311.296558)">
<text x="698016.610192" y="1108268.038131" transform="scale(-1 1) translate(-1396033.220384 0)" textLength="36565.360524" font-size="29217.962930" lengthAdjust="spacingAndGlyphs" text-anchor="middle" opacity="0.01" style="font-family:monospace">R5</text>
</g>
<g class="stroked-text"><desc>R5</desc>
<path d="M707929 1093659 L697494 1086354 "/>
<path d="M707929 1081137 L686016 1081137 L686016 1089485 L687059 1091572 L688103 1092615 L690190 1093659 L693320 1093659 L695407 1092615 L696451 1091572 L697494 1089485 L697494 1081137 "/>
<path d="M686016 1113485 L686016 1103050 L696451 1102007 L695407 1103050 L694364 1105137 L694364 1110355 L695407 1112442 L696451 1113485 L698538 1114529 L703755 1114529 L705842 1113485 L706886 1112442 L707929 1110355 L707929 1105137 L706886 1103050 L705842 1102007 "/>
</g><g transform="rotate(-90.000000 728606.497832 1102873.094311)">
<text x="728606.497832" y="1113829.835884" transform="scale(-1 1) translate(-1457212.995665 0)" textLength="53261.351853" font-size="29217.962930" lengthAdjust="spacingAndGlyphs" text-anchor="middle" opacity="0.01" style="font-family:monospace">10k</text>
</g>
<g class="stroked-text"><desc>10k</desc>
<path d="M738519 1089829 L738519 1077307 "/>
<path d="M738519 1083568 L716606 1083568 L719736 1081481 L721823 1079394 L722867 1077307 "/>
<path d="M716606 1103394 L716606 1105481 L717649 1107568 L718693 1108612 L720780 1109655 L724954 1110699 L730171 1110699 L734345 1109655 L736432 1108612 L737476 1107568 L738519 1105481 L738519 1103394 L737476 1101307 L736432 1100264 L734345 1099220 L730171 1098177 L724954 1098177 L720780 1099220 L718693 1100264 L717649 1101307 L716606 1103394 "/>
<path d="M738519 1120090 L716606 1120090 "/>
<path d="M730171 1122177 L738519 1128438 "/>
<path d="M723910 1128438 L732258 1120090 "/>
</g><g transform="rotate(-90.000000 2183016.610192 1538918.038131)">
<text x="2183016.610192" y="1549874.779705" transform="scale(-1 1) translate(-4366033.220384 0)" textLength="36565.360524" font-size="29217.962930" lengthAdjust="spacingAndGlyphs" text-anchor="middle" opacity="0.01" style="font-family:monospace">C1</text>
</g>
<g class="stroked-text"><desc>C1</desc>
<path d="M2190842 1535265 L2191886 1534222 L2192929 1531091 L2192929 1529004 L2191886 1525874 L2189799 1523787 L2187712 1522743 L2183538 1521700 L2180407 1521700 L2176233 1522743 L2174146 1523787 L2172059 1525874 L2171016 1529004 L2171016 1531091 L2172059 1534222 L2173103 1535265 "/>
<path d="M2192929 1556135 L2192929 1543613 "/>
<path d="M2192929 1549874 L2171016 1549874 L2174146 1547787 L2176233 1545700 L2177277 1543613 "/>
</g><g transform="rotate(-90.000000 2152426.722552 1533356.240379)">
<text x="2152426.722552" y="1544312.981952" transform="scale(-1 1) translate(-4304853.445103 0)" textLength="95001.330178" font-size="29217.962930" lengthAdjust="spacingAndGlyphs" text-anchor="middle" opacity="0.01" style="font-family:monospace">100nF</text>
</g>
<g class="stroked-text"><desc>100nF</desc>
<path d="M2162339 1499442 L2162339 1486920 "/>
<path d="M2162339 1493181 L2140426 1493181 L2143556 1491094 L2145643 1489007 L2146687 1486920 "/>
<path d="M2140426 1513007 L2140426 1515094 L2141469 1517181 L2142513 1518225 L2144600 1519268 L2148774 1520312 L2153991 1520312 L2158165 1519268 L2160252 1518225 L2161296 1517181 L2162339 1515094 L2162339 1513007 L2161296 1510920 L2160252 1509877 L2158165 1508833 L2153991 1507790 L2148774 1507790 L2144600 1508833 L2142513 1509877 L2141469 1510920 L2140426 1513007 "/>
<path d="M2140426 1533877 L2140426 1535964 L2141469 1538051 L2142513 1539095 L2144600 1540138 L2148774 1541182 L2153991 1541182 L2158165 1540138 L2160252 1539095 L2161296 1538051 L2162339 1535964 L2162339 1533877 L2161296 1531790 L2160252 1530747 L2158165 1529703 L2153991 1528660 L2148774 1528660 L2144600 1529703 L2142513 1530747 L2141469 1531790 L2140426 1533877 "/>
<path d="M2147730 1550573 L2162339 1550573 "/>
<path d="M2149817 1550573 L2148774 1551617 L2147730 1553704 L2147730 1556834 L2148774 1558921 L2150861 1559965 L2162339 1559965 "/>
<path d="M2150861 1577704 L2150861 1570400 "/>
<path d="M2162339 1570400 L2140426 1570400 L2140426 1580835 "/>
</g><g transform="rotate(-90.000000 575657.059630 897086.577457)">
<text x="575657.059630" y="908043.319030" transform="scale(-1 1) translate(-1151314.119260 0)" textLength="36565.360524" font-size="29217.962930" lengthAdjust="spacingAndGlyphs" text-anchor="middle" opacity="0.01" style="font-family:monospace">C2</text>
</g>
<g class="stroked-text"><desc>C2</desc>
<path d="M583483 893434 L584526 892390 L585570 889260 L585570 887173 L584526 884042 L582439 881955 L580352 880912 L576178 879868 L573048 879868 L568874 880912 L566787 881955 L564700 884042 L563656 887173 L563656 889260 L564700 892390 L565743 893434 "/>
<path d="M565743 901782 L564700 902825 L563656 904912 L563656 910130 L564700 912217 L565743 913260 L567830 914304 L569917 914304 L573048 913260 L585570 900738 L585570 914304 "/>
</g><g transform="rotate(-90.000000 606246.947271 902648.375210)">
<text x="606246.947271" y="913605.116783" transform="scale(-1 1) translate(-1212493.894541 0)" textLength="95001.330178" font-size="29217.962930" lengthAdjust="spacingAndGlyphs" text-anchor="middle" opacity="0.01" style="font-family:monospace">100nF</text>
</g>
<g class="stroked-text"><desc>100nF</desc>
<path d="M616160 868734 L616160 856212 "/>
<path d="M616160 862473 L594246 862473 L597377 860386 L599464 858299 L600507 856212 "/>
<path d="M594246 882300 L594246 884387 L595290 886474 L596333 887517 L598420 888561 L602594 889604 L607812 889604 L611986 888561 L614073 887517 L615116 886474 L616160 884387 L616160 882300 L615116 880213 L614073 879169 L611986 878126 L607812 877082 L602594 877082 L598420 878126 L596333 879169 L595290 880213 L594246 882300 "/>
<path d="M594246 903170 L594246 905257 L595290 907344 L596333 908387 L598420 909431 L602594 910474 L607812 910474 L611986 909431 L614073 908387 L615116 907344 L616160 905257 L616160 903170 L615116 901083 L614073 900039 L611986 898996 L607812 897952 L602594 897952 L598420 898996 L596333 900039 L595290 901083 L594246 903170 "/>
<path d="M601551 919866 L616160 919866 "/>
<path d="M603638 919866 L602594 920909 L601551 922996 L601551 926127 L602594 928214 L604681 929257 L616160 929257 "/>
<path d="M604681 946997 L604681 939692 "/>
<path d="M616160 939692 L594246 939692 L594246 950127 "/>
</g><g transform="rotate(-45.000000 1475358.295143 644420.017694)">
<text x="1475358.295143" y="655376.759267" transform="scale(-1 1) translate(-2950716.590286 0)" textLength="36565.360524" font-size="29217.962930" lengthAdjust="spacingAndGlyphs" text-anchor="middle" opacity="0.01" style="font-family:monospace">R7</text>
</g>
<g class="stroked-text"><desc>R7</desc>
<path d="M1484950 648847 L1482736 636303 "/>
<path d="M1493804 639992 L1478309 624497 L1472406 630400 L1471668 632614 L1471668 634089 L1472406 636303 L1474620 638517 L1476834 639254 L1478309 639254 L1480523 638517 L1486426 632614 "/>
<path d="M1464290 638517 L1453960 648847 L1476096 657701 "/>
</g><g transform="rotate(-45.000000 1457660.786074 618856.944174)">
<text x="1457660.786074" y="629813.685747" transform="scale(-1 1) translate(-2915321.572149 0)" textLength="78305.338848" font-size="29217.962930" lengthAdjust="spacingAndGlyphs" text-anchor="middle" opacity="0.01" style="font-family:monospace">100R</text>
</g>
<g class="stroked-text"><desc>100R</desc>
<path d="M1482748 607788 L1491602 598934 "/>
<path d="M1487175 603361 L1471680 587866 L1475369 588604 L1478320 588604 L1480534 587866 "/>
<path d="M1457660 601886 L1456185 603361 L1455447 605575 L1455447 607051 L1456185 609264 L1458398 612953 L1462087 616643 L1465777 618856 L1467990 619594 L1469466 619594 L1471680 618856 L1473155 617381 L1473893 615167 L1473893 613691 L1473155 611478 L1470942 607788 L1467253 604099 L1463563 601886 L1461350 601148 L1459874 601148 L1457660 601886 "/>
<path d="M1442903 616643 L1441427 618119 L1440689 620332 L1440689 621808 L1441427 624021 L1443641 627711 L1447330 631400 L1451019 633614 L1453233 634352 L1454709 634352 L1456922 633614 L1458398 632138 L1459136 629924 L1459136 628449 L1458398 626235 L1456185 622546 L1452495 618856 L1448806 616643 L1446592 615905 L1445117 615905 L1442903 616643 "/>
<path d="M1437738 652798 L1435524 640255 "/>
<path d="M1446592 643944 L1431097 628449 L1425194 634352 L1424456 636565 L1424456 638041 L1425194 640255 L1427408 642468 L1429621 643206 L1431097 643206 L1433311 642468 L1439214 636565 "/>
</g><g transform="rotate(-90.000000 817595.261877 1102873.094311)">
<text x="817595.261877" y="1113829.835884" transform="scale(-1 1) translate(-1635190.523755 0)" textLength="53261.351853" font-size="29217.962930" lengthAdjust="spacingAndGlyphs" text-anchor="middle" opacity="0.01" style="font-family:monospace">10k</text>
</g>
<g class="stroked-text"><desc>10k</desc>
<path d="M827508 1089829 L827508 1077307 "/>
<path d="M827508 1083568 L805595 1083568 L808725 1081481 L810812 1079394 L811856 1077307 "/>
<path d="M805595 1103394 L805595 1105481 L806638 1107568 L807681 1108612 L809768 1109655 L813943 1110699 L819160 1110699 L823334 1109655 L825421 1108612 L826464 1107568 L827508 1105481 L827508 1103394 L826464 1101307 L825421 1100264 L823334 1099220 L819160 1098177 L813943 1098177 L809768 1099220 L807681 1100264 L806638 1101307 L805595 1103394 "/>
<path d="M827508 1120090 L805595 1120090 "/>
<path d="M819160 1122177 L827508 1128438 "/>
<path d="M812899 1128438 L821247 1120090 "/>
</g></g>
<g style="fill:#000084; fill-opacity:0.0;  stroke:#000084; stroke-width:6569.052464; stroke-opacity:1;  stroke-linecap:round; stroke-linejoin:round;">
<g transform="rotate(-90.000000 1154640.205698 1691867.476334)">
<text x="1154640.205698" y="1719676.465098" transform="scale(-1 1) translate(-2309280.411395 0)" textLength="49399.887640" font-size="74157.288773" lengthAdjust="spacingAndGlyphs" text-anchor="middle" opacity="0.01" style="font-family:monospace">K</text>
</g>
<g class="stroked-text"><desc>K</desc>
<path d="M1179800 1677300 L1124182 1677300 "/>
<path d="M1179800 1709082 L1148018 1685246 "/>
<path d="M1124182 1709082 L1155964 1677300 "/>
</g><g transform="rotate(-90.000000 1156864.924799 1773069.723525)">
<text x="1156864.924799" y="1800878.712289" transform="scale(-1 1) translate(-2313729.849597 0)" textLength="100047.720074" font-size="74157.288773" lengthAdjust="spacingAndGlyphs" text-anchor="middle" opacity="0.01" style="font-family:monospace">D3</text>
</g>
<g class="stroked-text"><desc>D3</desc>
<path d="M1182025 1732018 L1126407 1732018 L1126407 1745260 L1129055 1753206 L1134352 1758503 L1139649 1761151 L1150243 1763800 L1158189 1763800 L1168783 1761151 L1174080 1758503 L1179376 1753206 L1182025 1745260 L1182025 1732018 "/>
<path d="M1126407 1782339 L1126407 1816769 L1147595 1798230 L1147595 1806175 L1150243 1811472 L1152892 1814121 L1158189 1816769 L1171431 1816769 L1176728 1814121 L1179376 1811472 L1182025 1806175 L1182025 1790284 L1179376 1784987 L1176728 1782339 "/>
</g><g transform="rotate(-90.000000 1332617.733787 1691867.476334)">
<text x="1332617.733787" y="1719676.465098" transform="scale(-1 1) translate(-2665235.467575 0)" textLength="47078.209325" font-size="74157.288773" lengthAdjust="spacingAndGlyphs" text-anchor="middle" opacity="0.01" style="font-family:monospace">K</text>
</g>
<g class="stroked-text"><desc>K</desc>
<path d="M1357778 1677300 L1302160 1677300 "/>
<path d="M1357778 1709082 L1325996 1685246 "/>
<path d="M1302160 1709082 L1333941 1677300 "/>
</g><g transform="rotate(-90.000000 1334842.452889 1773069.723525)">
<text x="1334842.452889" y="1800878.712289" transform="scale(-1 1) translate(-2669684.905777 0)" textLength="100047.720074" font-size="74157.288773" lengthAdjust="spacingAndGlyphs" text-anchor="middle" opacity="0.01" style="font-family:monospace">D2</text>
</g>
<g class="stroked-text"><desc>D2</desc>
<path d="M1360002 1732018 L1304384 1732018 L1304384 1745260 L1307033 1753206 L1312330 1758503 L1317627 1761151 L1328221 1763800 L1336166 1763800 L1346760 1761151 L1352057 1758503 L1357354 1753206 L1360002 1745260 L1360002 1732018 "/>
<path d="M1309681 1784987 L1307033 1787636 L1304384 1792933 L1304384 1806175 L1307033 1811472 L1309681 1814121 L1314978 1816769 L1320275 1816769 L1328221 1814121 L1360002 1782339 L1360002 1816769 "/>
</g><g transform="rotate(-90.000000 599283.751659 684183.587101)">
<text x="599283.751659" y="706080.428647" transform="scale(-1 1) translate(-1198567.503318 0)" textLength="76962.186588" font-size="58391.562859" lengthAdjust="spacingAndGlyphs" text-anchor="middle" opacity="0.01" style="font-family:monospace">D1</text>
</g>
<g class="stroked-text"><desc>D1</desc>
<path d="M619095 651859 L575301 651859 L575301 662286 L577386 668542 L581557 672713 L585728 674799 L594070 676884 L600326 676884 L608668 674799 L612838 672713 L617009 668542 L619095 662286 L619095 651859 "/>
<path d="M619095 718592 L619095 693567 "/>
<path d="M619095 706080 L575301 706080 L581557 701909 L585728 697738 L587813 693567 "/>
</g></g>
<g style="fill:#000084; fill-opacity:0.0;  stroke:#000084; stroke-width:4783.146067; stroke-opacity:1;  stroke-linecap:round; stroke-linejoin:round;">
<g transform="rotate(-90.000000 1854870.542776 682957.363974)">
<text x="1854870.542776" y="693914.105547" transform="scale(-1 1) translate(-3709741.085553 0)" textLength="34243.682208" font-size="29217.962930" lengthAdjust="spacingAndGlyphs" text-anchor="middle" opacity="0.01" style="font-family:monospace">C6</text>
</g>
<g class="stroked-text"><desc>C6</desc>
<path d="M1862696 679305 L1863740 678261 L1864783 675131 L1864783 673044 L1863740 669913 L1861653 667826 L1859566 666783 L1855392 665739 L1852261 665739 L1848087 666783 L1846000 667826 L1843913 669913 L1842870 673044 L1842870 675131 L1843913 678261 L1844957 679305 "/>
<path d="M1842870 698088 L1842870 693914 L1843913 691827 L1844957 690783 L1848087 688696 L1852261 687653 L1860609 687653 L1862696 688696 L1863740 689740 L1864783 691827 L1864783 696001 L1863740 698088 L1862696 699131 L1860609 700175 L1855392 700175 L1853305 699131 L1852261 698088 L1851218 696001 L1851218 691827 L1852261 689740 L1853305 688696 L1855392 687653 "/>
</g><g transform="rotate(-90.000000 1824280.655136 677395.566221)">
<text x="1824280.655136" y="688352.307794" transform="scale(-1 1) translate(-3648561.310272 0)" textLength="95001.330178" font-size="29217.962930" lengthAdjust="spacingAndGlyphs" text-anchor="middle" opacity="0.01" style="font-family:monospace">100nF</text>
</g>
<g class="stroked-text"><desc>100nF</desc>
<path d="M1834193 643481 L1834193 630959 "/>
<path d="M1834193 637220 L1812280 637220 L1815410 635133 L1817497 633046 L1818541 630959 "/>
<path d="M1812280 657047 L1812280 659134 L1813323 661221 L1814367 662264 L1816454 663308 L1820628 664351 L1825845 664351 L1830019 663308 L1832106 662264 L1833150 661221 L1834193 659134 L1834193 657047 L1833150 654960 L1832106 653916 L1830019 652873 L1825845 651829 L1820628 651829 L1816454 652873 L1814367 653916 L1813323 654960 L1812280 657047 "/>
<path d="M1812280 677917 L1812280 680004 L1813323 682091 L1814367 683134 L1816454 684178 L1820628 685221 L1825845 685221 L1830019 684178 L1832106 683134 L1833150 682091 L1834193 680004 L1834193 677917 L1833150 675830 L1832106 674786 L1830019 673743 L1825845 672699 L1820628 672699 L1816454 673743 L1814367 674786 L1813323 675830 L1812280 677917 "/>
<path d="M1819584 694613 L1834193 694613 "/>
<path d="M1821671 694613 L1820628 695656 L1819584 697743 L1819584 700874 L1820628 702961 L1822715 704004 L1834193 704004 "/>
<path d="M1822715 721744 L1822715 714439 "/>
<path d="M1834193 714439 L1812280 714439 L1812280 724874 "/>
</g><g transform="rotate(-90.000000 1765881.778731 626783.206671)">
<text x="1765881.778731" y="637739.948244" transform="scale(-1 1) translate(-3531763.557463 0)" textLength="36565.360524" font-size="29217.962930" lengthAdjust="spacingAndGlyphs" text-anchor="middle" opacity="0.01" style="font-family:monospace">C5</text>
</g>
<g class="stroked-text"><desc>C5</desc>
<path d="M1773708 623130 L1774751 622087 L1775795 618956 L1775795 616869 L1774751 613739 L1772664 611652 L1770577 610608 L1766403 609565 L1763272 609565 L1759099 610608 L1757012 611652 L1754925 613739 L1753881 616869 L1753881 618956 L1754925 622087 L1755968 623130 "/>
<path d="M1753881 642957 L1753881 632522 L1764316 631478 L1763272 632522 L1762229 634609 L1762229 639826 L1763272 641913 L1764316 642957 L1766403 644000 L1771620 644000 L1773708 642957 L1774751 641913 L1775795 639826 L1775795 634609 L1774751 632522 L1773708 631478 "/>
</g><g transform="rotate(-90.000000 1735291.891091 621221.408918)">
<text x="1735291.891091" y="632178.150491" transform="scale(-1 1) translate(-3470583.782182 0)" textLength="74131.362913" font-size="29217.962930" lengthAdjust="spacingAndGlyphs" text-anchor="middle" opacity="0.01" style="font-family:monospace">10uF</text>
</g>
<g class="stroked-text"><desc>10uF</desc>
<path d="M1745205 597742 L1745205 585220 "/>
<path d="M1745205 591481 L1723291 591481 L1726422 589394 L1728509 587307 L1729552 585220 "/>
<path d="M1723291 611308 L1723291 613395 L1724335 615482 L1725378 616525 L1727465 617569 L1731639 618612 L1736857 618612 L1741031 617569 L1743118 616525 L1744161 615482 L1745205 613395 L1745205 611308 L1744161 609221 L1743118 608177 L1741031 607134 L1736857 606090 L1731639 606090 L1727465 607134 L1725378 608177 L1724335 609221 L1723291 611308 "/>
<path d="M1730596 637395 L1745205 637395 "/>
<path d="M1730596 628004 L1742074 628004 L1744161 629047 L1745205 631134 L1745205 634265 L1744161 636352 L1743118 637395 "/>
<path d="M1733726 655135 L1733726 647830 "/>
<path d="M1745205 647830 L1723291 647830 L1723291 658265 "/>
</g><g transform="rotate(-45.000000 1369146.307617 904137.623197)">
<text x="1369146.307617" y="915094.364770" transform="scale(-1 1) translate(-2738292.615235 0)" textLength="36565.360524" font-size="29217.962930" lengthAdjust="spacingAndGlyphs" text-anchor="middle" opacity="0.01" style="font-family:monospace">C9</text>
</g>
<g class="stroked-text"><desc>C9</desc>
<path d="M1377262 907089 L1378738 907089 L1381690 905613 L1383165 904137 L1384641 901186 L1384641 898234 L1383903 896021 L1381690 892331 L1379476 890118 L1375787 887904 L1373573 887166 L1370622 887166 L1367670 888642 L1366194 890118 L1364719 893069 L1364719 894545 "/>
<path d="M1371359 915943 L1368408 918894 L1366194 919632 L1364719 919632 L1361029 918894 L1357340 916681 L1351437 910778 L1350699 908564 L1350699 907089 L1351437 904875 L1354388 901923 L1356602 901186 L1358078 901186 L1360291 901923 L1363981 905613 L1364719 907826 L1364719 909302 L1363981 911516 L1361029 914467 L1358816 915205 L1357340 915205 L1355126 914467 "/>
</g><g transform="rotate(-45.000000 1351448.798549 878574.549677)">
<text x="1351448.798549" y="889531.291250" transform="scale(-1 1) translate(-2702897.597098 0)" textLength="95001.330178" font-size="29217.962930" lengthAdjust="spacingAndGlyphs" text-anchor="middle" opacity="0.01" style="font-family:monospace">100nF</text>
</g>
<g class="stroked-text"><desc>100nF</desc>
<path d="M1382439 861603 L1391293 852749 "/>
<path d="M1386866 857176 L1371371 841681 L1375060 842419 L1378011 842419 L1380225 841681 "/>
<path d="M1357351 855700 L1355875 857176 L1355138 859390 L1355138 860865 L1355875 863079 L1358089 866768 L1361778 870458 L1365468 872671 L1367681 873409 L1369157 873409 L1371371 872671 L1372846 871195 L1373584 868982 L1373584 867506 L1372846 865292 L1370633 861603 L1366943 857914 L1363254 855700 L1361041 854962 L1359565 854962 L1357351 855700 "/>
<path d="M1342594 870458 L1341118 871933 L1340380 874147 L1340380 875623 L1341118 877836 L1343332 881525 L1347021 885215 L1350710 887428 L1352924 888166 L1354400 888166 L1356613 887428 L1358089 885953 L1358827 883739 L1358827 882263 L1358089 880050 L1355875 876360 L1352186 872671 L1348497 870458 L1346283 869720 L1344807 869720 L1342594 870458 "/>
<path d="M1335953 887428 L1346283 897759 "/>
<path d="M1337429 888904 L1335953 888904 L1333739 889642 L1331526 891856 L1330788 894069 L1331526 896283 L1339642 904399 "/>
<path d="M1318982 908827 L1324147 903661 "/>
<path d="M1332264 911778 L1316769 896283 L1309390 903661 "/>
</g></g>
<g style="fill:#000084; fill-opacity:0.01;  stroke:#000084; stroke-width:6569.052464; stroke-opacity:1;  stroke-linecap:round; stroke-linejoin:round;">
<text x="765759.306821" y="1352803.643723" transform="scale(-1 1) translate(-1531518.613642 0)" textLength="81369.276298" font-size="58391.562859" lengthAdjust="spacingAndGlyphs" text-anchor="middle" opacity="0.01" style="font-family:monospace">U3</text>
<g class="stroked-text"><desc>U3</desc>
<path d="M799125 1306924 L799125 1342376 L797040 1346547 L794955 1348632 L790784 1350718 L782442 1350718 L778271 1348632 L776186 1346547 L774100 1342376 L774100 1306924 "/>
<path d="M757417 1306924 L730307 1306924 L744905 1323607 L738648 1323607 L734478 1325693 L732392 1327778 L730307 1331949 L730307 1342376 L732392 1346547 L734478 1348632 L738648 1350718 L751161 1350718 L755332 1348632 L757417 1346547 "/>
</g></g>
<g style="fill:#000084; fill-opacity:0.01;  stroke:#000084; stroke-width:4783.146067; stroke-opacity:1;  stroke-linecap:round; stroke-linejoin:round;">
<text x="998353.688844" y="1136077.026896" transform="scale(-1 1) translate(-1996707.377687 0)" textLength="34243.682208" font-size="29217.962930" lengthAdjust="spacingAndGlyphs" text-anchor="middle" opacity="0.01" style="font-family:monospace">R1</text>
<g class="stroked-text"><desc>R1</desc>
<path d="M1002005 1135033 L1009310 1124598 "/>
<path d="M1014527 1135033 L1014527 1113120 L1006179 1113120 L1004092 1114163 L1003049 1115207 L1002005 1117294 L1002005 1120424 L1003049 1122511 L1004092 1123555 L1006179 1124598 L1014527 1124598 "/>
<path d="M981135 1135033 L993657 1135033 "/>
<path d="M987396 1135033 L987396 1113120 L989483 1116250 L991570 1118337 L993657 1119381 "/>
</g><text x="995572.789967" y="1166666.914536" transform="scale(-1 1) translate(-1991145.579935 0)" textLength="53261.351853" font-size="29217.962930" lengthAdjust="spacingAndGlyphs" text-anchor="middle" opacity="0.01" style="font-family:monospace">10k</text>
<g class="stroked-text"><desc>10k</desc>
<path d="M1008616 1165623 L1021138 1165623 "/>
<path d="M1014877 1165623 L1014877 1143709 L1016964 1146840 L1019051 1148927 L1021138 1149970 "/>
<path d="M995051 1143709 L992964 1143709 L990877 1144753 L989833 1145796 L988790 1147883 L987746 1152057 L987746 1157275 L988790 1161449 L989833 1163536 L990877 1164579 L992964 1165623 L995051 1165623 L997138 1164579 L998181 1163536 L999225 1161449 L1000268 1157275 L1000268 1152057 L999225 1147883 L998181 1145796 L997138 1144753 L995051 1143709 "/>
<path d="M978355 1165623 L978355 1143709 "/>
<path d="M976268 1157275 L970007 1165623 "/>
<path d="M970007 1151014 L978355 1159362 "/>
</g><g transform="rotate(-135.000000 2346335.823233 1322168.867557)">
<text x="2346335.823233" y="1333125.609130" transform="scale(-1 1) translate(-4692671.646466 0)" textLength="57435.371583" font-size="29217.962930" lengthAdjust="spacingAndGlyphs" text-anchor="middle" opacity="0.01" style="font-family:monospace">C10</text>
</g>
<g class="stroked-text"><desc>C10</desc>
<path d="M2341908 1306673 L2341908 1305197 L2340432 1302246 L2338957 1300770 L2336005 1299295 L2333054 1299295 L2330840 1300032 L2327151 1302246 L2324937 1304460 L2322724 1308149 L2321986 1310363 L2321986 1313314 L2323461 1316265 L2324937 1317741 L2327889 1319217 L2329364 1319217 "/>
<path d="M2358141 1319955 L2349287 1311100 "/>
<path d="M2353714 1315528 L2338219 1331023 L2338957 1327333 L2338957 1324382 L2338219 1322168 "/>
<path d="M2352238 1345042 L2353714 1346518 L2355928 1347256 L2357403 1347256 L2359617 1346518 L2363306 1344304 L2366996 1340615 L2369209 1336926 L2369947 1334712 L2369947 1333236 L2369209 1331023 L2367733 1329547 L2365520 1328809 L2364044 1328809 L2361830 1329547 L2358141 1331761 L2354452 1335450 L2352238 1339139 L2351500 1341353 L2351500 1342829 L2352238 1345042 "/>
</g><g transform="rotate(-135.000000 2320772.749712 1339866.376626)">
<text x="2320772.749712" y="1350823.118199" transform="scale(-1 1) translate(-4641545.499425 0)" textLength="95001.330178" font-size="29217.962930" lengthAdjust="spacingAndGlyphs" text-anchor="middle" opacity="0.01" style="font-family:monospace">100nF</text>
</g>
<g class="stroked-text"><desc>100nF</desc>
<path d="M2303801 1308875 L2294947 1300021 "/>
<path d="M2299374 1304448 L2283879 1319943 L2284617 1316254 L2284617 1313303 L2283879 1311089 "/>
<path d="M2297898 1333963 L2299374 1335439 L2301588 1336177 L2303063 1336177 L2305277 1335439 L2308966 1333225 L2312656 1329536 L2314869 1325846 L2315607 1323633 L2315607 1322157 L2314869 1319943 L2313394 1318468 L2311180 1317730 L2309704 1317730 L2307491 1318468 L2303801 1320681 L2300112 1324371 L2297898 1328060 L2297161 1330274 L2297161 1331749 L2297898 1333963 "/>
<path d="M2312656 1348720 L2314131 1350196 L2316345 1350934 L2317821 1350934 L2320034 1350196 L2323724 1347982 L2327413 1344293 L2329627 1340604 L2330364 1338390 L2330364 1336914 L2329627 1334701 L2328151 1333225 L2325937 1332487 L2324462 1332487 L2322248 1333225 L2318559 1335439 L2314869 1339128 L2312656 1342817 L2311918 1345031 L2311918 1346507 L2312656 1348720 "/>
<path d="M2329627 1355361 L2339957 1345031 "/>
<path d="M2331102 1353885 L2331102 1355361 L2331840 1357575 L2334054 1359788 L2336267 1360526 L2338481 1359788 L2346598 1351672 "/>
<path d="M2351025 1372332 L2345860 1367167 "/>
<path d="M2353976 1359050 L2338481 1374546 L2345860 1381924 "/>
</g><g transform="rotate(-135.000000 1449254.544811 1180935.903742)">
<text x="1449254.544811" y="1191892.645315" transform="scale(-1 1) translate(-2898509.089622 0)" textLength="36565.360524" font-size="29217.962930" lengthAdjust="spacingAndGlyphs" text-anchor="middle" opacity="0.01" style="font-family:monospace">C7</text>
</g>
<g class="stroked-text"><desc>C7</desc>
<path d="M1452205 1172819 L1452205 1171343 L1450730 1168392 L1449254 1166916 L1446303 1165440 L1443351 1165440 L1441137 1166178 L1437448 1168392 L1435235 1170605 L1433021 1174295 L1432283 1176508 L1432283 1179460 L1433759 1182411 L1435235 1183887 L1438186 1185363 L1439662 1185363 "/>
<path d="M1443351 1192003 L1453681 1202333 L1462536 1180198 "/>
</g><g transform="rotate(-135.000000 1423691.471291 1198633.412811)">
<text x="1423691.471291" y="1209590.154384" transform="scale(-1 1) translate(-2847382.942582 0)" textLength="74131.362913" font-size="29217.962930" lengthAdjust="spacingAndGlyphs" text-anchor="middle" opacity="0.01" style="font-family:monospace">10nF</text>
</g>
<g class="stroked-text"><desc>10nF</desc>
<path d="M1414099 1175021 L1405244 1166167 "/>
<path d="M1409672 1170594 L1394176 1186089 L1394914 1182400 L1394914 1179448 L1394176 1177235 "/>
<path d="M1408196 1200109 L1409672 1201584 L1411885 1202322 L1413361 1202322 L1415574 1201584 L1419264 1199371 L1422953 1195681 L1425167 1191992 L1425905 1189778 L1425905 1188303 L1425167 1186089 L1423691 1184613 L1421477 1183876 L1420002 1183876 L1417788 1184613 L1414099 1186827 L1410409 1190516 L1408196 1194206 L1407458 1196419 L1407458 1197895 L1408196 1200109 "/>
<path d="M1425167 1206749 L1435497 1196419 "/>
<path d="M1426642 1205274 L1426642 1206749 L1427380 1208963 L1429594 1211177 L1431807 1211914 L1434021 1211177 L1442138 1203060 "/>
<path d="M1446565 1223720 L1441400 1218555 "/>
<path d="M1449516 1210439 L1434021 1225934 L1441400 1233313 "/>
</g><text x="1492241.329293" y="830178.150491" transform="scale(-1 1) translate(-2984482.658586 0)" textLength="36565.360524" font-size="29217.962930" lengthAdjust="spacingAndGlyphs" text-anchor="middle" opacity="0.01" style="font-family:monospace">C8</text>
<g class="stroked-text"><desc>C8</desc>
<path d="M1495893 827047 L1496937 828091 L1500067 829134 L1502154 829134 L1505285 828091 L1507372 826004 L1508415 823917 L1509459 819743 L1509459 816612 L1508415 812438 L1507372 810351 L1505285 808264 L1502154 807221 L1500067 807221 L1496937 808264 L1495893 809308 "/>
<path d="M1483371 816612 L1485458 815569 L1486502 814525 L1487545 812438 L1487545 811395 L1486502 809308 L1485458 808264 L1483371 807221 L1479197 807221 L1477110 808264 L1476067 809308 L1475023 811395 L1475023 812438 L1476067 814525 L1477110 815569 L1479197 816612 L1483371 816612 L1485458 817656 L1486502 818699 L1487545 820786 L1487545 824960 L1486502 827047 L1485458 828091 L1483371 829134 L1479197 829134 L1477110 828091 L1476067 827047 L1475023 824960 L1475023 820786 L1476067 818699 L1477110 817656 L1479197 816612 "/>
</g><text x="1497803.127046" y="799588.262851" transform="scale(-1 1) translate(-2995606.254092 0)" textLength="95001.330178" font-size="29217.962930" lengthAdjust="spacingAndGlyphs" text-anchor="middle" opacity="0.01" style="font-family:monospace">100nF</text>
<g class="stroked-text"><desc>100nF</desc>
<path d="M1531716 798544 L1544238 798544 "/>
<path d="M1537977 798544 L1537977 776631 L1540064 779761 L1542151 781848 L1544238 782892 "/>
<path d="M1518151 776631 L1516064 776631 L1513977 777674 L1512933 778718 L1511890 780805 L1510846 784979 L1510846 790196 L1511890 794370 L1512933 796457 L1513977 797501 L1516064 798544 L1518151 798544 L1520238 797501 L1521281 796457 L1522325 794370 L1523368 790196 L1523368 784979 L1522325 780805 L1521281 778718 L1520238 777674 L1518151 776631 "/>
<path d="M1497281 776631 L1495194 776631 L1493107 777674 L1492063 778718 L1491020 780805 L1489976 784979 L1489976 790196 L1491020 794370 L1492063 796457 L1493107 797501 L1495194 798544 L1497281 798544 L1499368 797501 L1500411 796457 L1501455 794370 L1502498 790196 L1502498 784979 L1501455 780805 L1500411 778718 L1499368 777674 L1497281 776631 "/>
<path d="M1480585 783935 L1480585 798544 "/>
<path d="M1480585 786022 L1479541 784979 L1477454 783935 L1474324 783935 L1472237 784979 L1471193 787066 L1471193 798544 "/>
<path d="M1453454 787066 L1460758 787066 "/>
<path d="M1460758 798544 L1460758 776631 L1450323 776631 "/>
</g><g transform="rotate(-90.000000 1938297.509068 682957.363974)">
<text x="1938297.509068" y="693914.105547" transform="scale(-1 1) translate(-3876595.018137 0)" textLength="36565.360524" font-size="29217.962930" lengthAdjust="spacingAndGlyphs" text-anchor="middle" opacity="0.01" style="font-family:monospace">R4</text>
</g>
<g class="stroked-text"><desc>R4</desc>
<path d="M1948210 679305 L1937775 672000 "/>
<path d="M1948210 666783 L1926297 666783 L1926297 675131 L1927340 677218 L1928384 678261 L1930471 679305 L1933601 679305 L1935688 678261 L1936732 677218 L1937775 675131 L1937775 666783 "/>
<path d="M1933601 698088 L1948210 698088 "/>
<path d="M1925253 692870 L1940906 687653 L1940906 701218 "/>
</g><g transform="rotate(-90.000000 1907707.621428 677395.566221)">
<text x="1907707.621428" y="688352.307794" transform="scale(-1 1) translate(-3815415.242856 0)" textLength="78305.338848" font-size="29217.962930" lengthAdjust="spacingAndGlyphs" text-anchor="middle" opacity="0.01" style="font-family:monospace">100R</text>
</g>
<g class="stroked-text"><desc>100R</desc>
<path d="M1917620 651829 L1917620 639307 "/>
<path d="M1917620 645568 L1895707 645568 L1898837 643481 L1900924 641394 L1901968 639307 "/>
<path d="M1895707 665395 L1895707 667482 L1896750 669569 L1897794 670612 L1899881 671656 L1904055 672699 L1909272 672699 L1913446 671656 L1915533 670612 L1916577 669569 L1917620 667482 L1917620 665395 L1916577 663308 L1915533 662264 L1913446 661221 L1909272 660177 L1904055 660177 L1899881 661221 L1897794 662264 L1896750 663308 L1895707 665395 "/>
<path d="M1895707 686265 L1895707 688352 L1896750 690439 L1897794 691482 L1899881 692526 L1904055 693569 L1909272 693569 L1913446 692526 L1915533 691482 L1916577 690439 L1917620 688352 L1917620 686265 L1916577 684178 L1915533 683134 L1913446 682091 L1909272 681047 L1904055 681047 L1899881 682091 L1897794 683134 L1896750 684178 L1895707 686265 "/>
<path d="M1917620 715483 L1907185 708178 "/>
<path d="M1917620 702961 L1895707 702961 L1895707 711309 L1896750 713396 L1897794 714439 L1899881 715483 L1903011 715483 L1905098 714439 L1906142 713396 L1907185 711309 L1907185 702961 "/>
</g></g>
<g style="fill:#000084; fill-opacity:0.0;  stroke:#000084; stroke-width:4379.368309; stroke-opacity:1;  stroke-linecap:round; stroke-linejoin:round;">
<path d="M2230064 900651 L1923508 900651 "/>
<path d="M2186270 1207207 L2230064 1163413 "/>
<path d="M1923508 1207207 L2186270 1207207 "/>
<path d="M2230064 1163413 L2230064 900651 "/>
<path d="M1923508 900651 L1923508 1207207 "/>
</g>
<g style="fill:#000084; fill-opacity:0.0;  stroke:#000084; stroke-width:6569.052464; stroke-opacity:1;  stroke-linecap:round; stroke-linejoin:round;">
<path d="M467202 916552 L467202 961047 "/>
<path d="M533943 827564 L467202 827564 "/>
<path d="M467202 827564 L467202 872058 "/>
<path d="M533943 961047 L533943 916552 "/>
<path d="M467202 961047 L533943 961047 "/>
<path d="M533943 872058 L533943 827564 "/>
</g>
<g style="fill:#000084; fill-opacity:0.0;  stroke:#000084; stroke-width:4379.368309; stroke-opacity:1;  stroke-linecap:round; stroke-linejoin:round;">
<path d="M669309 946113 L669309 908888 "/>
<path d="M669309 946113 L765655 946113 "/>
<path d="M765655 946113 L765655 886992 "/>
<path d="M669309 908888 L691206 886992 "/>
<path d="M691206 886992 L765655 886992 "/>
<path d="M729088 773084 L678725 773084 "/>
<path d="M729088 637324 L650259 637324 "/>
<path d="M729088 773084 L729088 637324 "/>
<path d="M650259 744618 L650259 637324 "/>
<path d="M650259 744618 L678725 773084 "/>
</g>
<g style="fill:#000084; fill-opacity:0.0;  stroke:#000084; stroke-width:6569.052464; stroke-opacity:1;  stroke-linecap:round; stroke-linejoin:round;">
<path d="M878775 685738 L878775 641243 "/>
<path d="M812033 730232 L812033 774727 "/>
<path d="M878775 774727 L878775 730232 "/>
<path d="M878775 641243 L812033 641243 "/>
<path d="M812033 641243 L812033 685738 "/>
<path d="M812033 774727 L878775 774727 "/>
<path d="M1048409 694080 L1092904 694080 "/>
<path d="M959421 694080 L1003915 694080 "/>
<path d="M1092904 627339 L1048409 627339 "/>
<path d="M1092904 694080 L1092904 627339 "/>
<path d="M959421 627339 L959421 694080 "/>
<path d="M1003915 627339 L959421 627339 "/>
<path d="M1092904 805316 L1092904 738575 "/>
<path d="M1048409 805316 L1092904 805316 "/>
<path d="M959421 738575 L959421 805316 "/>
<path d="M959421 805316 L1003915 805316 "/>
<path d="M1003915 738575 L959421 738575 "/>
<path d="M1092904 738575 L1048409 738575 "/>
<path d="M1511844 497530 L1464651 450337 "/>
<path d="M1401726 513261 L1370264 544724 "/>
<path d="M1464651 450337 L1433188 481799 "/>
<path d="M1480382 528992 L1511844 497530 "/>
<path d="M1417457 591917 L1448920 560455 "/>
<path d="M1370264 544724 L1417457 591917 "/>
<path d="M2480572 738575 L2480572 694080 "/>
<path d="M2413831 694080 L2413831 738575 "/>
<path d="M2480572 605092 L2413831 605092 "/>
<path d="M2480572 649586 L2480572 605092 "/>
<path d="M2413831 605092 L2413831 649586 "/>
<path d="M2413831 738575 L2480572 738575 "/>
<path d="M1815937 1450485 L1815937 1383743 "/>
<path d="M1815937 1383743 L1771443 1383743 "/>
<path d="M1682454 1450485 L1726949 1450485 "/>
<path d="M1771443 1450485 L1815937 1450485 "/>
<path d="M1726949 1383743 L1682454 1383743 "/>
<path d="M1682454 1383743 L1682454 1450485 "/>
<path d="M745291 1164052 L745291 1119558 "/>
<path d="M678550 1119558 L678550 1164052 "/>
<path d="M678550 1164052 L745291 1164052 "/>
<path d="M745291 1075064 L745291 1030569 "/>
<path d="M745291 1030569 L678550 1030569 "/>
<path d="M678550 1030569 L678550 1075064 "/>
<path d="M2202482 1516670 L2202482 1472176 "/>
<path d="M2135741 1472176 L2135741 1516670 "/>
<path d="M2202482 1605659 L2202482 1561165 "/>
<path d="M2202482 1472176 L2135741 1472176 "/>
<path d="M2135741 1605659 L2202482 1605659 "/>
<path d="M2135741 1561165 L2135741 1605659 "/>
<path d="M556190 830345 L556190 874839 "/>
<path d="M556190 963828 L622932 963828 "/>
<path d="M622932 830345 L556190 830345 "/>
<path d="M556190 919333 L556190 963828 "/>
<path d="M622932 963828 L622932 919333 "/>
<path d="M622932 874839 L622932 830345 "/>
<path d="M1426198 626722 L1394736 658184 "/>
<path d="M1441929 705378 L1473391 673915 "/>
<path d="M1504854 642453 L1536316 610991 "/>
<path d="M1394736 658184 L1441929 705378 "/>
<path d="M1489123 563797 L1457660 595260 "/>
<path d="M1536316 610991 L1489123 563797 "/>
<path d="M767539 1119558 L767539 1164052 "/>
<path d="M767539 1030569 L767539 1075064 "/>
<path d="M834280 1164052 L834280 1119558 "/>
<path d="M834280 1075064 L834280 1030569 "/>
<path d="M834280 1030569 L767539 1030569 "/>
<path d="M767539 1164052 L834280 1164052 "/>
<path d="M1094572 1666283 L1094572 1883193 "/>
<path d="M1219157 1662946 L1094572 1662946 "/>
<path d="M1219157 1880968 L1219157 1664058 "/>
<path d="M1094572 1883193 L1219157 1883193 "/>
<path d="M1272550 1883193 L1397134 1883193 "/>
<path d="M1272550 1666283 L1272550 1883193 "/>
<path d="M1397134 1880968 L1397134 1664058 "/>
<path d="M1397134 1662946 L1272550 1662946 "/>
</g>
<g style="fill:#000084; fill-opacity:0.0;  stroke:#000084; stroke-width:4379.368309; stroke-opacity:1;  stroke-linecap:round; stroke-linejoin:round;">
<path d="M494178 673235 L511696 699511 "/>
<path d="M511696 673235 L511696 651338 "/>
<path d="M546731 756443 L546731 611924 "/>
<path d="M511696 699511 L535782 699511 "/>
<path d="M511696 699511 L529213 673235 "/>
<path d="M546731 611924 L476661 611924 "/>
<path d="M476661 611924 L476661 756443 "/>
<path d="M511696 699511 L487609 699511 "/>
<path d="M476661 756443 L546731 756443 "/>
<path d="M511696 717028 L511696 699511 "/>
<path d="M529213 673235 L494178 673235 "/>
</g>
<g style="fill:#000084; fill-opacity:0.0;  stroke:#000084; stroke-width:6569.052464; stroke-opacity:1;  stroke-linecap:round; stroke-linejoin:round;">
<path d="M1874336 749698 L1874336 705204 "/>
<path d="M1807595 705204 L1807595 749698 "/>
<path d="M1874336 660710 L1874336 616215 "/>
<path d="M1874336 616215 L1807595 616215 "/>
<path d="M1807595 616215 L1807595 660710 "/>
<path d="M1807595 749698 L1874336 749698 "/>
<path d="M1785348 560041 L1718606 560041 "/>
<path d="M1785348 604536 L1785348 560041 "/>
<path d="M1785348 693524 L1785348 649030 "/>
<path d="M1718606 649030 L1718606 693524 "/>
<path d="M1718606 693524 L1785348 693524 "/>
<path d="M1718606 560041 L1718606 604536 "/>
<path d="M1319986 886440 L1288524 917902 "/>
<path d="M1288524 917902 L1335717 965095 "/>
<path d="M1398642 902171 L1430104 870708 "/>
<path d="M1335717 965095 L1367179 933633 "/>
<path d="M1430104 870708 L1382911 823515 "/>
<path d="M1382911 823515 L1351448 854977 "/>
<path d="M675999 1221475 L857743 1221475 "/>
<path d="M675999 1221475 L675999 1227825 "/>
<path d="M857743 1221475 L857743 1227825 "/>
<path d="M675999 1447012 L675999 1440662 "/>
<path d="M675658 1447012 L857401 1447012 "/>
<path d="M675999 1440662 L614688 1440662 "/>
<path d="M857743 1221475 L857743 1227825 "/>
<path d="M857743 1447012 L857743 1440662 "/>
<path d="M1020600 1172395 L1065095 1172395 "/>
<path d="M976106 1105653 L931612 1105653 "/>
<path d="M1065095 1105653 L1020600 1105653 "/>
<path d="M1065095 1172395 L1065095 1105653 "/>
<path d="M931612 1105653 L931612 1172395 "/>
<path d="M931612 1172395 L976106 1172395 "/>
<path d="M2265713 1308404 L2297176 1339866 "/>
<path d="M2328638 1371328 L2360100 1402790 "/>
<path d="M2344369 1292672 L2312907 1261210 "/>
<path d="M2360100 1402790 L2407294 1355597 "/>
<path d="M2312907 1261210 L2265713 1308404 "/>
<path d="M2407294 1355597 L2375831 1324135 "/>
<path d="M1463019 1261557 L1510212 1214364 "/>
<path d="M1447288 1151439 L1415825 1119977 "/>
<path d="M1368632 1167171 L1400094 1198633 "/>
<path d="M1510212 1214364 L1478750 1182902 "/>
<path d="M1431557 1230095 L1463019 1261557 "/>
<path d="M1415825 1119977 L1368632 1167171 "/>
<path d="M1558982 771946 L1514488 771946 "/>
<path d="M1558982 838687 L1558982 771946 "/>
<path d="M1425499 771946 L1425499 838687 "/>
<path d="M1469994 771946 L1425499 771946 "/>
<path d="M1514488 838687 L1558982 838687 "/>
<path d="M1425499 838687 L1469994 838687 "/>
<path d="M1957763 749698 L1957763 705204 "/>
<path d="M1891022 749698 L1957763 749698 "/>
<path d="M1957763 660710 L1957763 616215 "/>
<path d="M1891022 616215 L1891022 660710 "/>
<path d="M1891022 705204 L1891022 749698 "/>
<path d="M1957763 616215 L1891022 616215 "/>
<g>
</g>
<g>
</g>
<g>
</g>
<g>
</g>
<g>
</g>
<g>
</g>
<g>
</g>
<g>
</g>
<g>
</g>
<g>
</g>
<g>
</g>
<g>
</g>
<g>
</g>
<g>
</g>
<g>
</g>
<g>
</g>
<g>
</g>
<g>
</g>
<g>
</g>
<g>
</g>
<g>
</g>
<g>
</g>
<g>
</g>
<g>
</g>
<g>
</g>
<g>
</g>
<g>
</g>
<g>
</g>
<g>
</g>
<g>
</g>
<g>
</g>
<g>
</g>
<g>
</g>
<g>
</g>
<g>
</g>
<g>
</g>
<g>
</g>
<g>
</g>
<g>
</g>
<g>
</g>
<g>
</g>
<g>
</g>
<g>
</g>
<g>
</g>
<g>
</g>
<g>
</g>
<g>
</g>
<g>
</g>
<g>
</g>
<g>
</g>
<g>
</g>
<g>
</g>
<g>
</g>
<g>
</g>
<g>
</g>
<g>
</g>
<g>
</g>
<g>
</g>
<g>
</g>
<g>
</g>
<g>
</g>
<g>
</g>
<g>
</g>
<g>
</g>
<g>
</g>
<g>
</g>
<g>
</g>
<g>
</g>
<g>
</g>
</g> 
<svg:g><svg:g><svg:title>SVG Picture created as PROGLOG01-Edge_Cuts.svg date 2023/02/19 23:01:52 </svg:title>
  <svg:desc>Picture generated by PCBNEW </svg:desc>
<svg:g style="fill:#C2C200; fill-opacity:1.000000;stroke:#C2C200; stroke-opacity:1.000000; stroke-linecap:round; stroke-linejoin:round;" transform="translate(0 0) scale(1 1)">
</svg:g>
<svg:g style="fill:#C2C200; fill-opacity:0.0;  stroke:#C2C200; stroke-width:0.000000; stroke-opacity:1;  stroke-linecap:round; stroke-linejoin:round;">
</svg:g>
<svg:g style="fill:#C2C200; fill-opacity:0.0;  stroke:#C2C200; stroke-width:6569.052464; stroke-opacity:1;  stroke-linecap:round; stroke-linejoin:round;">
<svg:path d="M2814280 171271 L2814280 1928800 "/>
<svg:path d="M166864 1483856 L166864 1928800 "/>
<svg:path d="M2814280 1928800 L166864 1928800 "/>
<svg:path d="M166864 171271 L2369336 171271 "/>
<svg:path d="M166864 1483856 L166864 171271 "/>
<svg:path d="M2369336 171271 L2814280 171271 "/>
<svg:g>
</svg:g>
<svg:g>
</svg:g>
<svg:g>
</svg:g>
<svg:g>
</svg:g>
<svg:g>
</svg:g>
<svg:g>
</svg:g>
<svg:g>
</svg:g>
<svg:g>
</svg:g>
<svg:g>
</svg:g>
<svg:g>
</svg:g>
<svg:g>
</svg:g>
<svg:g>
</svg:g>
<svg:g>
</svg:g>
<svg:g>
</svg:g>
<svg:g>
</svg:g>
<svg:g>
</svg:g>
<svg:g>
</svg:g>
<svg:g>
</svg:g>
<svg:g>
</svg:g>
<svg:g>
</svg:g>
<svg:g>
</svg:g>
<svg:g>
</svg:g>
<svg:g>
</svg:g>
<svg:g>
</svg:g>
<svg:g>
</svg:g>
<svg:g>
</svg:g>
<svg:g>
</svg:g>
<svg:g>
</svg:g>
<svg:g>
</svg:g>
<svg:g>
</svg:g>
<svg:g>
</svg:g>
<svg:g>
</svg:g>
<svg:g>
</svg:g>
<svg:g>
</svg:g>
<svg:g>
</svg:g>
<svg:g>
</svg:g>
<svg:g>
</svg:g>
<svg:g>
</svg:g>
<svg:g>
</svg:g>
<svg:g>
</svg:g>
<svg:g>
</svg:g>
<svg:g>
</svg:g>
<svg:g>
</svg:g>
<svg:g>
</svg:g>
<svg:g>
</svg:g>
<svg:g>
</svg:g>
<svg:g>
</svg:g>
<svg:g>
</svg:g>
<svg:g>
</svg:g>
<svg:g>
</svg:g>
<svg:g>
</svg:g>
<svg:g>
</svg:g>
<svg:g>
</svg:g>
<svg:g>
</svg:g>
<svg:g>
</svg:g>
<svg:g>
</svg:g>
<svg:g>
</svg:g>
<svg:g>
</svg:g>
<svg:g>
</svg:g>
<svg:g>
</svg:g>
<svg:g>
</svg:g>
<svg:g>
</svg:g>
<svg:g>
</svg:g>
<svg:g>
</svg:g>
<svg:g>
</svg:g>
<svg:g>
</svg:g>
<svg:g>
</svg:g>
<svg:g>
</svg:g>
<svg:g>
</svg:g>
</svg:g> 
</svg:g></svg:g></svg>
