<?xml version='1.0' encoding='ASCII' standalone='yes'?>
<svg xmlns:svg="http://www.w3.org/2000/svg" xmlns="http://www.w3.org/2000/svg" xmlns:xlink="http://www.w3.org/1999/xlink" version="1.1" width="29.700220cm" height="21.000720cm" viewBox="0 0 2970022 2100072">
<title>SVG Picture created as PROGLOG01-F_Fab.svg date 2023/06/15 01:20:57 </title>
  <desc>Picture generated by PCBNEW </desc>
<g style="fill:#848484; fill-opacity:1.000000;stroke:#848484; stroke-opacity:1.000000; stroke-linecap:round; stroke-linejoin:round;" transform="translate(0 0) scale(1 1)">
</g>
<g style="fill:#848484; fill-opacity:0.0;  stroke:#848484; stroke-width:0.000000; stroke-opacity:1;  stroke-linecap:round; stroke-linejoin:round;">
</g>
<g style="fill:#848484; fill-opacity:0.01;  stroke:#848484; stroke-width:9958.483218; stroke-opacity:1;  stroke-linecap:round; stroke-linejoin:round;">
<text x="2251814.229959" y="1772026.030164" textLength="156845.179532" font-size="66389.855450" lengthAdjust="spacingAndGlyphs" text-anchor="middle" opacity="0.01" style="font-family:monospace">SW1</text>
<g class="stroked-text"><desc>SW1</desc>
<path d="M2318204 1767283 L2311090 1769654 L2299235 1769654 L2294493 1767283 L2292122 1764912 L2289751 1760170 L2289751 1755428 L2292122 1750686 L2294493 1748315 L2299235 1745944 L2308719 1743573 L2313461 1741202 L2315833 1738831 L2318204 1734088 L2318204 1729346 L2315833 1724604 L2313461 1722233 L2308719 1719862 L2296864 1719862 L2289751 1722233 "/>
<path d="M2273153 1719862 L2261298 1769654 L2251814 1734088 L2242329 1769654 L2230474 1719862 "/>
<path d="M2185424 1769654 L2213877 1769654 "/>
<path d="M2199650 1769654 L2199650 1719862 L2204392 1726975 L2209135 1731717 L2213877 1734088 "/>
</g></g>
<g style="fill:#848484; fill-opacity:0.01;  stroke:#848484; stroke-width:7351.242533; stroke-opacity:1;  stroke-linecap:round; stroke-linejoin:round;">
<text x="2070071.911224" y="333877.949243" textLength="143634.800667" font-size="65344.361737" lengthAdjust="spacingAndGlyphs" text-anchor="middle" opacity="0.01" style="font-family:monospace">J26</text>
<g class="stroked-text"><desc>J26</desc>
<path d="M2109745 282535 L2109745 317541 L2112079 324542 L2116746 329210 L2123747 331544 L2128415 331544 "/>
<path d="M2088741 287203 L2086408 284869 L2081740 282535 L2070071 282535 L2065404 284869 L2063070 287203 L2060737 291870 L2060737 296538 L2063070 303539 L2091075 331544 L2060737 331544 "/>
<path d="M2018729 282535 L2028064 282535 L2032732 284869 L2035066 287203 L2039733 294204 L2042067 303539 L2042067 322209 L2039733 326876 L2037399 329210 L2032732 331544 L2023397 331544 L2018729 329210 L2016396 326876 L2014062 322209 L2014062 310540 L2016396 305873 L2018729 303539 L2023397 301205 L2032732 301205 L2037399 303539 L2039733 305873 L2042067 310540 "/>
</g><g transform="rotate(-270.000000 1860943.763638 1759577.926141)">
<text x="1860943.763638" y="1784082.067919" textLength="58564.898848" font-size="65344.361737" lengthAdjust="spacingAndGlyphs" text-anchor="middle" opacity="0.01" style="font-family:monospace">K</text>
</g>
<g class="stroked-text"><desc>K</desc>
<path d="M1883114 1746742 L1834105 1746742 "/>
<path d="M1883114 1774747 L1855109 1753743 "/>
<path d="M1834105 1774747 L1862110 1746742 "/>
</g><g transform="rotate(-270.000000 1661774.099271 1759577.926141)">
<text x="1661774.099271" y="1784082.067919" textLength="58564.898848" font-size="65344.361737" lengthAdjust="spacingAndGlyphs" text-anchor="middle" opacity="0.01" style="font-family:monospace">K</text>
</g>
<g class="stroked-text"><desc>K</desc>
<path d="M1683944 1746742 L1634936 1746742 "/>
<path d="M1683944 1774747 L1655939 1753743 "/>
<path d="M1634936 1774747 L1662940 1746742 "/>
</g><path d="M725676 365390 L725676 116428 "/>
<path d="M725676 116428 L601195 116428 "/>
<path d="M601195 365390 L725676 365390 "/>
<path d="M601195 116428 L601195 365390 "/>
<path d="M974638 365390 L974638 116428 "/>
<path d="M974638 116428 L850157 116428 "/>
<path d="M850157 116428 L850157 365390 "/>
<path d="M850157 365390 L974638 365390 "/>
<path d="M2667580 539663 L2667580 913106 "/>
<path d="M2667580 913106 L2916542 913106 "/>
<path d="M2916542 913106 L2916542 539663 "/>
<path d="M2916542 539663 L2667580 539663 "/>
<path d="M1099119 365390 L1223600 365390 "/>
<path d="M1223600 365390 L1223600 116428 "/>
<path d="M1223600 116428 L1099119 116428 "/>
<path d="M1099119 116428 L1099119 365390 "/>
<path d="M476714 365390 L601195 365390 "/>
<path d="M601195 365390 L601195 116428 "/>
<path d="M601195 116428 L476714 116428 "/>
<path d="M476714 116428 L476714 365390 "/>
<path d="M53479 676592 L302441 676592 "/>
<path d="M302441 676592 L302441 552111 "/>
<path d="M302441 552111 L53479 552111 "/>
<path d="M53479 552111 L53479 676592 "/>
<path d="M1348081 365390 L1472562 365390 "/>
<path d="M1348081 116428 L1348081 365390 "/>
<path d="M1472562 116428 L1348081 116428 "/>
<path d="M1472562 365390 L1472562 116428 "/>
<path d="M974638 1983643 L974638 1734681 "/>
<path d="M850157 1734681 L850157 1983643 "/>
<path d="M974638 1734681 L850157 1734681 "/>
<path d="M850157 1983643 L974638 1983643 "/>
<path d="M974638 365390 L1099119 365390 "/>
<path d="M1099119 116428 L974638 116428 "/>
<path d="M1099119 365390 L1099119 116428 "/>
<path d="M974638 116428 L974638 365390 "/>
</g>
<g style="fill:#848484; fill-opacity:0.0;  stroke:#848484; stroke-width:18672.156034; stroke-opacity:1;  stroke-linecap:round; stroke-linejoin:round;">
<circle cx="2729821.424441" cy="1796922.238210" r="147012.108511"/> 
</g>
<g style="fill:#848484; fill-opacity:0.0;  stroke:#848484; stroke-width:7351.242533; stroke-opacity:1;  stroke-linecap:round; stroke-linejoin:round;">
<path d="M850157 1734681 L725676 1734681 "/>
<path d="M725676 1734681 L725676 1983643 "/>
<path d="M725676 1983643 L850157 1983643 "/>
<path d="M850157 1983643 L850157 1734681 "/>
</g>
<g style="fill:#848484; fill-opacity:0.0;  stroke:#848484; stroke-width:5880.994027; stroke-opacity:1;  stroke-linecap:round; stroke-linejoin:round;">
<path d="M2438045 1971195 L2065092 1971195 "/>
<path d="M2438045 1941300 L2438045 1971195 "/>
<path d="M2065582 1598242 L2065582 1622746 "/>
<path d="M2065092 1971195 L2065056 1941463 "/>
<path d="M2065582 1598242 L2065582 1622746 "/>
<path d="M2438045 1598242 L2065582 1598242 "/>
<path d="M2438045 1720763 L2438045 1848184 "/>
<path d="M2438045 1627647 L2438045 1598242 "/>
<path d="M2065582 1720763 L2065582 1848184 "/>
</g>
<g style="fill:#848484; fill-opacity:0.0;  stroke:#848484; stroke-width:6224.052011; stroke-opacity:1;  stroke-linecap:round; stroke-linejoin:round;">
<circle cx="2251814.229959" cy="1784474.134187" r="124481.040230"/> 
</g>
<g style="fill:#848484; fill-opacity:0.0;  stroke:#848484; stroke-width:7351.242533; stroke-opacity:1;  stroke-linecap:round; stroke-linejoin:round;">
<path d="M302441 1050035 L302441 925554 "/>
<path d="M53479 1050035 L302441 1050035 "/>
<path d="M53479 925554 L53479 1050035 "/>
<path d="M302441 925554 L53479 925554 "/>
<path d="M53479 801073 L53479 925554 "/>
<path d="M302441 801073 L53479 801073 "/>
<path d="M302441 925554 L302441 801073 "/>
<path d="M53479 925554 L302441 925554 "/>
<path d="M53479 1174517 L302441 1174517 "/>
<path d="M302441 1050035 L53479 1050035 "/>
<path d="M53479 1050035 L53479 1174517 "/>
<path d="M302441 1174517 L302441 1050035 "/>
<path d="M850157 365390 L850157 116428 "/>
<path d="M725676 116428 L725676 365390 "/>
<path d="M725676 365390 L850157 365390 "/>
<path d="M850157 116428 L725676 116428 "/>
<path d="M302441 1298998 L302441 1174517 "/>
<path d="M53479 1298998 L302441 1298998 "/>
<path d="M53479 1174517 L53479 1298998 "/>
<path d="M302441 1174517 L53479 1174517 "/>
<path d="M302441 1423479 L302441 1298998 "/>
<path d="M53479 1423479 L302441 1423479 "/>
<path d="M302441 1298998 L53479 1298998 "/>
<path d="M53479 1298998 L53479 1423479 "/>
<path d="M974638 1983643 L1099119 1983643 "/>
<path d="M974638 1734681 L974638 1983643 "/>
<path d="M1099119 1983643 L1099119 1734681 "/>
<path d="M1099119 1734681 L974638 1734681 "/>
</g>
<g style="fill:#848484; fill-opacity:0.0;  stroke:#848484; stroke-width:18672.156034; stroke-opacity:1;  stroke-linecap:round; stroke-linejoin:round;">
<circle cx="240200.619848" cy="303149.755454" r="147012.108511"/> 
<circle cx="240200.619848" cy="1796922.238210" r="147012.108511"/> 
</g>
<g style="fill:#848484; fill-opacity:0.0;  stroke:#848484; stroke-width:7351.242533; stroke-opacity:1;  stroke-linecap:round; stroke-linejoin:round;">
<path d="M2169656 1099828 L2169656 850866 "/>
<path d="M2169656 850866 L2045175 850866 "/>
<path d="M2045175 850866 L2045175 1099828 "/>
<path d="M2045175 1099828 L2169656 1099828 "/>
<path d="M476714 1734681 L476714 1983643 "/>
<path d="M476714 1983643 L601195 1983643 "/>
<path d="M601195 1734681 L476714 1734681 "/>
<path d="M601195 1983643 L601195 1734681 "/>
<path d="M302441 1423479 L53479 1423479 "/>
<path d="M53479 1547960 L302441 1547960 "/>
<path d="M53479 1423479 L53479 1547960 "/>
<path d="M302441 1547960 L302441 1423479 "/>
<path d="M1895798 1423479 L1895798 1298998 "/>
<path d="M1646836 1298998 L1646836 1423479 "/>
<path d="M1646836 1423479 L1895798 1423479 "/>
<path d="M1895798 1298998 L1646836 1298998 "/>
<path d="M1472562 1734681 L1348081 1734681 "/>
<path d="M1348081 1734681 L1348081 1983643 "/>
<path d="M1348081 1983643 L1472562 1983643 "/>
<path d="M1472562 1983643 L1472562 1734681 "/>
<path d="M1646836 1547960 L1895798 1547960 "/>
<path d="M1646836 1423479 L1646836 1547960 "/>
<path d="M1895798 1423479 L1646836 1423479 "/>
<path d="M1895798 1547960 L1895798 1423479 "/>
<path d="M1597043 365390 L1597043 116428 "/>
<path d="M1597043 116428 L1472562 116428 "/>
<path d="M1472562 116428 L1472562 365390 "/>
<path d="M1472562 365390 L1597043 365390 "/>
<path d="M53479 676592 L53479 801073 "/>
<path d="M302441 801073 L302441 676592 "/>
<path d="M302441 676592 L53479 676592 "/>
<path d="M53479 801073 L302441 801073 "/>
<path d="M601195 1983643 L725676 1983643 "/>
<path d="M725676 1983643 L725676 1734681 "/>
<path d="M601195 1734681 L601195 1983643 "/>
<path d="M725676 1734681 L601195 1734681 "/>
<path d="M1223600 365390 L1348081 365390 "/>
<path d="M1223600 116428 L1223600 365390 "/>
<path d="M1348081 365390 L1348081 116428 "/>
<path d="M1348081 116428 L1223600 116428 "/>
<path d="M1099119 1734681 L1099119 1983643 "/>
<path d="M1099119 1983643 L1223600 1983643 "/>
<path d="M1223600 1983643 L1223600 1734681 "/>
<path d="M1223600 1734681 L1099119 1734681 "/>
<path d="M1348081 1983643 L1348081 1734681 "/>
<path d="M1348081 1734681 L1223600 1734681 "/>
<path d="M1223600 1734681 L1223600 1983643 "/>
<path d="M1223600 1983643 L1348081 1983643 "/>
</g>
<g style="fill:#848484; fill-opacity:0.0;  stroke:#848484; stroke-width:4900.828355; stroke-opacity:1;  stroke-linecap:round; stroke-linejoin:round;">
<path d="M2480859 110204 L2480859 365390 "/>
<path d="M1659284 365390 L1659284 110204 "/>
<path d="M1659284 110204 L2480859 110204 "/>
<path d="M2480859 365390 L1659284 365390 "/>
</g>
<g style="fill:#848484; fill-opacity:0.0;  stroke:#848484; stroke-width:18672.156034; stroke-opacity:1;  stroke-linecap:round; stroke-linejoin:round;">
<circle cx="2729821.424441" cy="303149.755454" r="147012.108511"/> 
</g>
<g style="fill:#848484; fill-opacity:0.0;  stroke:#848484; stroke-width:7351.242533; stroke-opacity:1;  stroke-linecap:round; stroke-linejoin:round;">
<path d="M1895798 1298998 L1895798 1174517 "/>
<path d="M1895798 1174517 L1646836 1174517 "/>
<path d="M1646836 1174517 L1646836 1298998 "/>
<path d="M1646836 1298998 L1895798 1298998 "/>
<g>
</g>
<g>
</g>
<g>
</g>
<g>
</g>
<g>
</g>
<g>
</g>
<g>
</g>
<g>
</g>
<g>
</g>
<g>
</g>
<g>
</g>
<g>
</g>
<g>
</g>
<g>
</g>
<g>
</g>
<g>
</g>
<g>
</g>
<g>
</g>
<g>
</g>
<g>
</g>
<g>
</g>
<g>
</g>
<g>
</g>
<g>
</g>
<g>
</g>
<g>
</g>
<g>
</g>
<g>
</g>
<g>
</g>
<g>
</g>
<g>
</g>
<g>
</g>
<g>
</g>
<g>
</g>
<g>
</g>
<g>
</g>
<g>
</g>
<g>
</g>
<g>
</g>
<g>
</g>
<g>
</g>
<g>
</g>
<g>
</g>
<g>
</g>
<g>
</g>
<g>
</g>
<g>
</g>
<g>
</g>
<g>
</g>
<g>
</g>
<g>
</g>
<g>
</g>
<g>
</g>
<g>
</g>
<g>
</g>
<g>
</g>
<g>
</g>
<g>
</g>
<g>
</g>
<g>
</g>
<g>
</g>
<g>
</g>
<g>
</g>
<g>
</g>
<g>
</g>
<g>
</g>
<g>
</g>
<g>
</g>
<g>
</g>
</g> 
<svg:g><svg:g><svg:title>SVG Picture created as PROGLOG01-Edge_Cuts.svg date 2023/06/15 01:20:57 </svg:title>
  <svg:desc>Picture generated by PCBNEW </svg:desc>
<svg:g style="fill:#C2C200; fill-opacity:1.000000;stroke:#C2C200; stroke-opacity:1.000000; stroke-linecap:round; stroke-linejoin:round;" transform="translate(0 0) scale(1 1)">
</svg:g>
<svg:g style="fill:#C2C200; fill-opacity:0.0;  stroke:#C2C200; stroke-width:0.000000; stroke-opacity:1;  stroke-linecap:round; stroke-linejoin:round;">
</svg:g>
<svg:g style="fill:#C2C200; fill-opacity:0.0;  stroke:#C2C200; stroke-width:7351.242533; stroke-opacity:1;  stroke-linecap:round; stroke-linejoin:round;">
<svg:path d="M3686 66635 L3686 2033436 "/>
<svg:path d="M2966335 1535512 L2966335 2033436 "/>
<svg:path d="M3686 2033436 L2966335 2033436 "/>
<svg:path d="M2966335 66635 L501610 66635 "/>
<svg:path d="M2966335 1535512 L2966335 66635 "/>
<svg:path d="M501610 66635 L3686 66635 "/>
<svg:g>
</svg:g>
<svg:g>
</svg:g>
<svg:g>
</svg:g>
<svg:g>
</svg:g>
<svg:g>
</svg:g>
<svg:g>
</svg:g>
<svg:g>
</svg:g>
<svg:g>
</svg:g>
<svg:g>
</svg:g>
<svg:g>
</svg:g>
<svg:g>
</svg:g>
<svg:g>
</svg:g>
<svg:g>
</svg:g>
<svg:g>
</svg:g>
<svg:g>
</svg:g>
<svg:g>
</svg:g>
<svg:g>
</svg:g>
<svg:g>
</svg:g>
<svg:g>
</svg:g>
<svg:g>
</svg:g>
<svg:g>
</svg:g>
<svg:g>
</svg:g>
<svg:g>
</svg:g>
<svg:g>
</svg:g>
<svg:g>
</svg:g>
<svg:g>
</svg:g>
<svg:g>
</svg:g>
<svg:g>
</svg:g>
<svg:g>
</svg:g>
<svg:g>
</svg:g>
<svg:g>
</svg:g>
<svg:g>
</svg:g>
<svg:g>
</svg:g>
<svg:g>
</svg:g>
<svg:g>
</svg:g>
<svg:g>
</svg:g>
<svg:g>
</svg:g>
<svg:g>
</svg:g>
<svg:g>
</svg:g>
<svg:g>
</svg:g>
<svg:g>
</svg:g>
<svg:g>
</svg:g>
<svg:g>
</svg:g>
<svg:g>
</svg:g>
<svg:g>
</svg:g>
<svg:g>
</svg:g>
<svg:g>
</svg:g>
<svg:g>
</svg:g>
<svg:g>
</svg:g>
<svg:g>
</svg:g>
<svg:g>
</svg:g>
<svg:g>
</svg:g>
<svg:g>
</svg:g>
<svg:g>
</svg:g>
<svg:g>
</svg:g>
<svg:g>
</svg:g>
<svg:g>
</svg:g>
<svg:g>
</svg:g>
<svg:g>
</svg:g>
<svg:g>
</svg:g>
<svg:g>
</svg:g>
<svg:g>
</svg:g>
<svg:g>
</svg:g>
<svg:g>
</svg:g>
<svg:g>
</svg:g>
<svg:g>
</svg:g>
<svg:g>
</svg:g>
<svg:g>
</svg:g>
<svg:g>
</svg:g>
</svg:g> 
</svg:g></svg:g></svg>
