<?xml version='1.0' encoding='ASCII' standalone='yes'?>
<svg xmlns:svg="http://www.w3.org/2000/svg" xmlns="http://www.w3.org/2000/svg" xmlns:xlink="http://www.w3.org/1999/xlink" version="1.1" width="29.700220cm" height="21.000720cm" viewBox="0 0 2970022 2100072">
<title>SVG Picture created as PROGLOG01-B_Fab.svg date 2023/03/03 23:41:37 </title>
  <desc>Picture generated by PCBNEW </desc>
<g style="fill:#000084; fill-opacity:1.000000;stroke:#000084; stroke-opacity:1.000000; stroke-linecap:round; stroke-linejoin:round;" transform="translate(0 0) scale(1 1)">
</g>
<g style="fill:#000084; fill-opacity:0.0;  stroke:#000084; stroke-width:0.000000; stroke-opacity:1;  stroke-linecap:round; stroke-linejoin:round;">
</g>
<g style="fill:#000084; fill-opacity:0.01;  stroke:#000084; stroke-width:7351.242533; stroke-opacity:1;  stroke-linecap:round; stroke-linejoin:round;">
<text x="2157208.595096" y="1082009.001023" transform="scale(-1 1) translate(-4314417.190192 0)" textLength="679114.744398" font-size="65344.361737" lengthAdjust="spacingAndGlyphs" text-anchor="middle" opacity="0.01" style="font-family:monospace">ICE40UP5K-SG48I</text>
<g class="stroked-text"><desc>ICE40UP5K-SG48I</desc>
<path d="M2485097 1079675 L2485097 1030666 "/>
<path d="M2433755 1075007 L2436089 1077341 L2443090 1079675 L2447757 1079675 L2454758 1077341 L2459426 1072674 L2461760 1068006 L2464093 1058671 L2464093 1051670 L2461760 1042335 L2459426 1037668 L2454758 1033000 L2447757 1030666 L2443090 1030666 L2436089 1033000 L2433755 1035334 "/>
<path d="M2412751 1054004 L2396415 1054004 "/>
<path d="M2389414 1079675 L2412751 1079675 L2412751 1030666 L2389414 1030666 "/>
<path d="M2347407 1047003 L2347407 1079675 "/>
<path d="M2359076 1028333 L2370744 1063339 L2340406 1063339 "/>
<path d="M2312401 1030666 L2307734 1030666 L2303066 1033000 L2300732 1035334 L2298399 1040001 L2296065 1049336 L2296065 1061005 L2298399 1070340 L2300732 1075007 L2303066 1077341 L2307734 1079675 L2312401 1079675 L2317068 1077341 L2319402 1075007 L2321736 1070340 L2324070 1061005 L2324070 1049336 L2321736 1040001 L2319402 1035334 L2317068 1033000 L2312401 1030666 "/>
<path d="M2275061 1030666 L2275061 1070340 L2272728 1075007 L2270394 1077341 L2265726 1079675 L2256392 1079675 L2251724 1077341 L2249390 1075007 L2247057 1070340 L2247057 1030666 "/>
<path d="M2223719 1079675 L2223719 1030666 L2205049 1030666 L2200382 1033000 L2198048 1035334 L2195715 1040001 L2195715 1047003 L2198048 1051670 L2200382 1054004 L2205049 1056337 L2223719 1056337 "/>
<path d="M2151374 1030666 L2174711 1030666 L2177045 1054004 L2174711 1051670 L2170044 1049336 L2158375 1049336 L2153707 1051670 L2151374 1054004 L2149040 1058671 L2149040 1070340 L2151374 1075007 L2153707 1077341 L2158375 1079675 L2170044 1079675 L2174711 1077341 L2177045 1075007 "/>
<path d="M2128036 1079675 L2128036 1030666 "/>
<path d="M2100032 1079675 L2121035 1051670 "/>
<path d="M2100032 1030666 L2128036 1058671 "/>
<path d="M2079028 1061005 L2041689 1061005 "/>
<path d="M2020685 1077341 L2013684 1079675 L2002015 1079675 L1997348 1077341 L1995014 1075007 L1992680 1070340 L1992680 1065672 L1995014 1061005 L1997348 1058671 L2002015 1056337 L2011350 1054004 L2016018 1051670 L2018351 1049336 L2020685 1044669 L2020685 1040001 L2018351 1035334 L2016018 1033000 L2011350 1030666 L1999681 1030666 L1992680 1033000 "/>
<path d="M1946006 1033000 L1950673 1030666 L1957674 1030666 L1964676 1033000 L1969343 1037668 L1971677 1042335 L1974010 1051670 L1974010 1058671 L1971677 1068006 L1969343 1072674 L1964676 1077341 L1957674 1079675 L1953007 1079675 L1946006 1077341 L1943672 1075007 L1943672 1058671 L1953007 1058671 "/>
<path d="M1901665 1047003 L1901665 1079675 "/>
<path d="M1913334 1028333 L1925002 1063339 L1894664 1063339 "/>
<path d="M1868993 1051670 L1873660 1049336 L1875994 1047003 L1878328 1042335 L1878328 1040001 L1875994 1035334 L1873660 1033000 L1868993 1030666 L1859658 1030666 L1854990 1033000 L1852657 1035334 L1850323 1040001 L1850323 1042335 L1852657 1047003 L1854990 1049336 L1859658 1051670 L1868993 1051670 L1873660 1054004 L1875994 1056337 L1878328 1061005 L1878328 1070340 L1875994 1075007 L1873660 1077341 L1868993 1079675 L1859658 1079675 L1854990 1077341 L1852657 1075007 L1850323 1070340 L1850323 1061005 L1852657 1056337 L1854990 1054004 L1859658 1051670 "/>
<path d="M1829319 1079675 L1829319 1030666 "/>
</g><g transform="rotate(-90.000000 2141026.059866 1054392.833240)">
<text x="2141026.059866" y="1078896.975017" transform="scale(-1 1) translate(-4282052.119732 0)" textLength="88459.951817" font-size="65344.361737" lengthAdjust="spacingAndGlyphs" text-anchor="middle" opacity="0.01" style="font-family:monospace">U4</text>
</g>
<g class="stroked-text"><desc>U4</desc>
<path d="M2114188 1017053 L2153861 1017053 L2158528 1019386 L2160862 1021720 L2163196 1026388 L2163196 1035722 L2160862 1040390 L2158528 1042724 L2153861 1045057 L2114188 1045057 "/>
<path d="M2130524 1089398 L2163196 1089398 "/>
<path d="M2111854 1077730 L2146860 1066061 L2146860 1096399 "/>
</g><g transform="rotate(-90.000000 374640.099007 1043811.944820)">
<text x="374640.099007" y="1068316.086598" transform="scale(-1 1) translate(-749280.198013 0)" textLength="170140.440745" font-size="65344.361737" lengthAdjust="spacingAndGlyphs" text-anchor="middle" opacity="0.01" style="font-family:monospace">10uF</text>
</g>
<g class="stroked-text"><desc>10uF</desc>
<path d="M396810 991303 L396810 963298 "/>
<path d="M396810 977300 L347802 977300 L354803 972633 L359470 967965 L361804 963298 "/>
<path d="M347802 1021641 L347802 1026308 L350135 1030976 L352469 1033310 L357137 1035643 L366472 1037977 L378140 1037977 L387475 1035643 L392143 1033310 L394476 1030976 L396810 1026308 L396810 1021641 L394476 1016974 L392143 1014640 L387475 1012306 L378140 1009972 L366472 1009972 L357137 1012306 L352469 1014640 L350135 1016974 L347802 1021641 "/>
<path d="M364138 1079984 L396810 1079984 "/>
<path d="M364138 1058981 L389809 1058981 L394476 1061314 L396810 1065982 L396810 1072983 L394476 1077650 L392143 1079984 "/>
<path d="M371139 1119658 L371139 1103321 "/>
<path d="M396810 1103321 L347802 1103321 L347802 1126659 "/>
</g></g>
<g style="fill:#000084; fill-opacity:0.0;  stroke:#000084; stroke-width:3920.662684; stroke-opacity:1;  stroke-linecap:round; stroke-linejoin:round;">
<g transform="rotate(-90.000000 377129.719811 875762.540510)">
<text x="377129.719811" y="888014.611399" transform="scale(-1 1) translate(-754259.439622 0)" textLength="38284.781030" font-size="32672.156364" lengthAdjust="spacingAndGlyphs" text-anchor="middle" opacity="0.01" style="font-family:monospace">C3</text>
</g>
<g class="stroked-text"><desc>C3</desc>
<path d="M385881 871678 L387048 870511 L388214 867011 L388214 864677 L387048 861176 L384714 858842 L382380 857676 L377713 856509 L374212 856509 L369545 857676 L367211 858842 L364877 861176 L363710 864677 L363710 867011 L364877 870511 L366044 871678 "/>
<path d="M363710 879846 L363710 895015 L373045 886847 L373045 890348 L374212 892682 L375379 893848 L377713 895015 L383547 895015 L385881 893848 L387048 892682 L388214 890348 L388214 883347 L387048 881013 L385881 879846 "/>
</g></g>
<g style="fill:#000084; fill-opacity:0.01;  stroke:#000084; stroke-width:3675.621267; stroke-opacity:1;  stroke-linecap:round; stroke-linejoin:round;">
<text x="619867.748259" y="912910.819445" transform="scale(-1 1) translate(-1239735.496518 0)" textLength="43911.422065" font-size="32672.156364" lengthAdjust="spacingAndGlyphs" text-anchor="middle" opacity="0.01" style="font-family:monospace">U1</text>
<g class="stroked-text"><desc>U1</desc>
<path d="M638537 887239 L638537 907076 L637370 909410 L636203 910577 L633870 911743 L629202 911743 L626868 910577 L625702 909410 L624535 907076 L624535 887239 "/>
<path d="M600031 911743 L614033 911743 "/>
<path d="M607032 911743 L607032 887239 L609365 890740 L611699 893074 L614033 894240 "/>
</g></g>
<g style="fill:#000084; fill-opacity:0.01;  stroke:#000084; stroke-width:7351.242533; stroke-opacity:1;  stroke-linecap:round; stroke-linejoin:round;">
<text x="588747.488202" y="546524.891588" transform="scale(-1 1) translate(-1177494.976403 0)" textLength="632329.378568" font-size="65344.361737" lengthAdjust="spacingAndGlyphs" text-anchor="middle" opacity="0.01" style="font-family:monospace">MIC5504-1.2YM5</text>
<g class="stroked-text"><desc>MIC5504-1.2YM5</desc>
<path d="M895632 544191 L895632 495182 L879296 530188 L862960 495182 L862960 544191 "/>
<path d="M839623 544191 L839623 495182 "/>
<path d="M788281 539523 L790614 541857 L797616 544191 L802283 544191 L809284 541857 L813952 537189 L816285 532522 L818619 523187 L818619 516186 L816285 506851 L813952 502184 L809284 497516 L802283 495182 L797616 495182 L790614 497516 L788281 499850 "/>
<path d="M743940 495182 L767277 495182 L769611 518520 L767277 516186 L762610 513852 L750941 513852 L746274 516186 L743940 518520 L741606 523187 L741606 534856 L743940 539523 L746274 541857 L750941 544191 L762610 544191 L767277 541857 L769611 539523 "/>
<path d="M697265 495182 L720603 495182 L722936 518520 L720603 516186 L715935 513852 L704266 513852 L699599 516186 L697265 518520 L694932 523187 L694932 534856 L697265 539523 L699599 541857 L704266 544191 L715935 544191 L720603 541857 L722936 539523 "/>
<path d="M664593 495182 L659926 495182 L655258 497516 L652924 499850 L650591 504517 L648257 513852 L648257 525521 L650591 534856 L652924 539523 L655258 541857 L659926 544191 L664593 544191 L669261 541857 L671594 539523 L673928 534856 L676262 525521 L676262 513852 L673928 504517 L671594 499850 L669261 497516 L664593 495182 "/>
<path d="M606250 511518 L606250 544191 "/>
<path d="M617919 492849 L629587 527855 L599249 527855 "/>
<path d="M580579 525521 L543239 525521 "/>
<path d="M494231 544191 L522236 544191 "/>
<path d="M508233 544191 L508233 495182 L512901 502184 L517568 506851 L522236 509185 "/>
<path d="M473227 539523 L470894 541857 L473227 544191 L475561 541857 L473227 539523 L473227 544191 "/>
<path d="M452224 499850 L449890 497516 L445223 495182 L433554 495182 L428887 497516 L426553 499850 L424219 504517 L424219 509185 L426553 516186 L454558 544191 L424219 544191 "/>
<path d="M393881 520853 L393881 544191 "/>
<path d="M410217 495182 L393881 520853 L377545 495182 "/>
<path d="M361208 544191 L361208 495182 L344872 530188 L328536 495182 L328536 544191 "/>
<path d="M281862 495182 L305199 495182 L307533 518520 L305199 516186 L300532 513852 L288863 513852 L284195 516186 L281862 518520 L279528 523187 L279528 534856 L281862 539523 L284195 541857 L288863 544191 L300532 544191 L305199 541857 L307533 539523 "/>
</g></g>
<g style="fill:#000084; fill-opacity:0.0;  stroke:#000084; stroke-width:3675.621267; stroke-opacity:1;  stroke-linecap:round; stroke-linejoin:round;">
<g transform="rotate(-90.000000 588747.488202 664144.772120)">
<text x="588747.488202" y="676396.843008" transform="scale(-1 1) translate(-1177494.976403 0)" textLength="39451.668262" font-size="32672.156364" lengthAdjust="spacingAndGlyphs" text-anchor="middle" opacity="0.01" style="font-family:monospace">U2</text>
</g>
<g class="stroked-text"><desc>U2</desc>
<path d="M575328 645474 L595165 645474 L597498 646641 L598665 647808 L599832 650142 L599832 654809 L598665 657143 L597498 658310 L595165 659477 L575328 659477 "/>
<path d="M577662 669979 L576495 671145 L575328 673479 L575328 679313 L576495 681647 L577662 682814 L579995 683981 L582329 683981 L585830 682814 L599832 668812 L599832 683981 "/>
</g></g>
<g style="fill:#000084; fill-opacity:0.0;  stroke:#000084; stroke-width:7351.242533; stroke-opacity:1;  stroke-linecap:round; stroke-linejoin:round;">
<g transform="rotate(-90.000000 765510.565328 806053.157982)">
<text x="765510.565328" y="830557.299759" transform="scale(-1 1) translate(-1531021.130656 0)" textLength="128244.190291" font-size="65344.361737" lengthAdjust="spacingAndGlyphs" text-anchor="middle" opacity="0.01" style="font-family:monospace">1uF</text>
</g>
<g class="stroked-text"><desc>1uF</desc>
<path d="M787680 776881 L787680 748876 "/>
<path d="M787680 762879 L738672 762879 L745673 758211 L750341 753544 L752675 748876 "/>
<path d="M755008 818888 L787680 818888 "/>
<path d="M755008 797885 L780679 797885 L785347 800218 L787680 804886 L787680 811887 L785347 816554 L783013 818888 "/>
<path d="M762009 858562 L762009 842225 "/>
<path d="M787680 842225 L738672 842225 L738672 865563 "/>
</g></g>
<g style="fill:#000084; fill-opacity:0.0;  stroke:#000084; stroke-width:3920.662684; stroke-opacity:1;  stroke-linecap:round; stroke-linejoin:round;">
<g transform="rotate(-90.000000 763020.944523 667256.798125)">
<text x="763020.944523" y="679508.869014" transform="scale(-1 1) translate(-1526041.889047 0)" textLength="38284.781030" font-size="32672.156364" lengthAdjust="spacingAndGlyphs" text-anchor="middle" opacity="0.01" style="font-family:monospace">C4</text>
</g>
<g class="stroked-text"><desc>C4</desc>
<path d="M771772 663172 L772939 662005 L774106 658505 L774106 656171 L772939 652670 L770605 650337 L768271 649170 L763604 648003 L760103 648003 L755436 649170 L753102 650337 L750768 652670 L749601 656171 L749601 658505 L750768 662005 L751935 663172 "/>
<path d="M757770 684176 L774106 684176 "/>
<path d="M748435 678341 L765938 672507 L765938 687676 "/>
</g></g>
<g style="fill:#000084; fill-opacity:0.01;  stroke:#000084; stroke-width:7351.242533; stroke-opacity:1;  stroke-linecap:round; stroke-linejoin:round;">
<text x="965302.634897" y="557992.829940" transform="scale(-1 1) translate(-1930605.269793 0)" textLength="90585.980166" font-size="65344.361737" lengthAdjust="spacingAndGlyphs" text-anchor="middle" opacity="0.01" style="font-family:monospace">0R</text>
<g class="stroked-text"><desc>0R</desc>
<path d="M992140 506650 L987473 506650 L982805 508984 L980471 511318 L978138 515985 L975804 525320 L975804 536989 L978138 546324 L980471 550991 L982805 553325 L987473 555659 L992140 555659 L996807 553325 L999141 550991 L1001475 546324 L1003809 536989 L1003809 525320 L1001475 515985 L999141 511318 L996807 508984 L992140 506650 "/>
<path d="M926796 555659 L943132 532321 "/>
<path d="M954800 555659 L954800 506650 L936130 506650 L931463 508984 L929129 511318 L926796 515985 L926796 522986 L929129 527654 L931463 529988 L936130 532321 L954800 532321 "/>
</g></g>
<g style="fill:#000084; fill-opacity:0.01;  stroke:#000084; stroke-width:3920.662684; stroke-opacity:1;  stroke-linecap:round; stroke-linejoin:round;">
<text x="965302.634897" y="626604.426917" transform="scale(-1 1) translate(-1930605.269793 0)" textLength="38284.781030" font-size="32672.156364" lengthAdjust="spacingAndGlyphs" text-anchor="middle" opacity="0.01" style="font-family:monospace">R3</text>
<g class="stroked-text"><desc>R3</desc>
<path d="M969386 625437 L977554 613768 "/>
<path d="M983388 625437 L983388 600933 L974054 600933 L971720 602100 L970553 603267 L969386 605600 L969386 609101 L970553 611435 L971720 612602 L974054 613768 L983388 613768 "/>
<path d="M961218 600933 L946049 600933 L954217 610268 L950716 610268 L948383 611435 L947216 612602 L946049 614935 L946049 620770 L947216 623103 L948383 624270 L950716 625437 L957718 625437 L960051 624270 L961218 623103 "/>
</g></g>
<g style="fill:#000084; fill-opacity:0.01;  stroke:#000084; stroke-width:7351.242533; stroke-opacity:1;  stroke-linecap:round; stroke-linejoin:round;">
<text x="964680.229695" y="846739.834989" transform="scale(-1 1) translate(-1929360.459391 0)" textLength="90585.980166" font-size="65344.361737" lengthAdjust="spacingAndGlyphs" text-anchor="middle" opacity="0.01" style="font-family:monospace">0R</text>
<g class="stroked-text"><desc>0R</desc>
<path d="M991518 795397 L986850 795397 L982183 797731 L979849 800065 L977515 804732 L975181 814067 L975181 825736 L977515 835071 L979849 839738 L982183 842072 L986850 844406 L991518 844406 L996185 842072 L998519 839738 L1000852 835071 L1003186 825736 L1003186 814067 L1000852 804732 L998519 800065 L996185 797731 L991518 795397 "/>
<path d="M926173 844406 L942509 821068 "/>
<path d="M954178 844406 L954178 795397 L935508 795397 L930841 797731 L928507 800065 L926173 804732 L926173 811733 L928507 816401 L930841 818735 L935508 821068 L954178 821068 "/>
</g></g>
<g style="fill:#000084; fill-opacity:0.01;  stroke:#000084; stroke-width:3920.662684; stroke-opacity:1;  stroke-linecap:round; stroke-linejoin:round;">
<text x="965302.634897" y="751085.467146" transform="scale(-1 1) translate(-1930605.269793 0)" textLength="38284.781030" font-size="32672.156364" lengthAdjust="spacingAndGlyphs" text-anchor="middle" opacity="0.01" style="font-family:monospace">R2</text>
<g class="stroked-text"><desc>R2</desc>
<path d="M969386 749918 L977554 738249 "/>
<path d="M983388 749918 L983388 725414 L974054 725414 L971720 726581 L970553 727748 L969386 730081 L969386 733582 L970553 735916 L971720 737083 L974054 738249 L983388 738249 "/>
<path d="M960051 727748 L958884 726581 L956551 725414 L950716 725414 L948383 726581 L947216 727748 L946049 730081 L946049 732415 L947216 735916 L961218 749918 L946049 749918 "/>
</g></g>
<g style="fill:#000084; fill-opacity:0.0;  stroke:#000084; stroke-width:7351.242533; stroke-opacity:1;  stroke-linecap:round; stroke-linejoin:round;">
<g transform="rotate(-45.000000 1344347.402396 440078.899706)">
<text x="1344347.402396" y="464583.041484" transform="scale(-1 1) translate(-2688694.804792 0)" textLength="183935.096366" font-size="65344.361737" lengthAdjust="spacingAndGlyphs" text-anchor="middle" opacity="0.01" style="font-family:monospace">100R</text>
</g>
<g class="stroked-text"><desc>100R</desc>
<path d="M1400453 415325 L1420256 395523 "/>
<path d="M1410355 405424 L1375701 370770 L1383952 372420 L1390552 372420 L1395503 370770 "/>
<path d="M1344347 402124 L1341046 405424 L1339396 410375 L1339396 413675 L1341046 418626 L1345997 426877 L1354248 435128 L1362499 440078 L1367450 441729 L1370750 441729 L1375701 440078 L1379001 436778 L1380651 431827 L1380651 428527 L1379001 423576 L1374050 415325 L1365799 407074 L1357548 402124 L1352598 400474 L1349297 400474 L1344347 402124 "/>
<path d="M1311343 435128 L1308043 438428 L1306392 443379 L1306392 446679 L1308043 451630 L1312993 459881 L1321244 468132 L1329495 473082 L1334446 474732 L1337746 474732 L1342697 473082 L1345997 469782 L1347647 464831 L1347647 461531 L1345997 456580 L1341046 448329 L1332796 440078 L1324545 435128 L1319594 433478 L1316294 433478 L1311343 435128 "/>
<path d="M1299792 515987 L1294841 487934 "/>
<path d="M1319594 496185 L1284940 461531 L1271738 474732 L1270088 479683 L1270088 482983 L1271738 487934 L1276689 492885 L1281639 494535 L1284940 494535 L1289890 492885 L1303092 479683 "/>
</g></g>
<g style="fill:#000084; fill-opacity:0.0;  stroke:#000084; stroke-width:3920.662684; stroke-opacity:1;  stroke-linecap:round; stroke-linejoin:round;">
<g transform="rotate(-45.000000 1429596.380482 458149.185010)">
<text x="1429596.380482" y="470401.255899" transform="scale(-1 1) translate(-2859192.760965 0)" textLength="38284.781030" font-size="32672.156364" lengthAdjust="spacingAndGlyphs" text-anchor="middle" opacity="0.01" style="font-family:monospace">R8</text>
</g>
<g class="stroked-text"><desc>R8</desc>
<path d="M1440322 463099 L1437847 449073 "/>
<path d="M1450223 453198 L1432896 435871 L1426295 442472 L1425470 444947 L1425470 446597 L1426295 449073 L1428771 451548 L1431246 452373 L1432896 452373 L1435372 451548 L1441972 444947 "/>
<path d="M1420520 463099 L1421345 460624 L1421345 458974 L1420520 456498 L1419695 455673 L1417219 454848 L1415569 454848 L1413094 455673 L1409793 458974 L1408968 461449 L1408968 463099 L1409793 465575 L1410619 466400 L1413094 467225 L1414744 467225 L1417219 466400 L1420520 463099 L1422995 462274 L1424645 462274 L1427121 463099 L1430421 466400 L1431246 468875 L1431246 470525 L1430421 473000 L1427121 476301 L1424645 477126 L1422995 477126 L1420520 476301 L1417219 473000 L1416394 470525 L1416394 468875 L1417219 466400 "/>
</g></g>
<g style="fill:#000084; fill-opacity:0.0;  stroke:#000084; stroke-width:7351.242533; stroke-opacity:1;  stroke-linecap:round; stroke-linejoin:round;">
<g transform="rotate(-90.000000 2636411.591697 626800.460051)">
<text x="2636411.591697" y="651304.601828" transform="scale(-1 1) translate(-5272823.183393 0)" textLength="183935.096366" font-size="65344.361737" lengthAdjust="spacingAndGlyphs" text-anchor="middle" opacity="0.01" style="font-family:monospace">200R</text>
</g>
<g class="stroked-text"><desc>200R</desc>
<path d="M2614241 541619 L2611907 543953 L2609573 548620 L2609573 560289 L2611907 564956 L2614241 567290 L2618908 569624 L2623576 569624 L2630577 567290 L2658581 539285 L2658581 569624 "/>
<path d="M2609573 599962 L2609573 604630 L2611907 609297 L2614241 611631 L2618908 613964 L2628243 616298 L2639912 616298 L2649247 613964 L2653914 611631 L2656248 609297 L2658581 604630 L2658581 599962 L2656248 595295 L2653914 592961 L2649247 590627 L2639912 588293 L2628243 588293 L2618908 590627 L2614241 592961 L2611907 595295 L2609573 599962 "/>
<path d="M2609573 646637 L2609573 651304 L2611907 655972 L2614241 658305 L2618908 660639 L2628243 662973 L2639912 662973 L2649247 660639 L2653914 658305 L2656248 655972 L2658581 651304 L2658581 646637 L2656248 641969 L2653914 639635 L2649247 637302 L2639912 634968 L2628243 634968 L2618908 637302 L2614241 639635 L2611907 641969 L2609573 646637 "/>
<path d="M2658581 711981 L2635244 695645 "/>
<path d="M2658581 683976 L2609573 683976 L2609573 702646 L2611907 707314 L2614241 709647 L2618908 711981 L2625909 711981 L2630577 709647 L2632910 707314 L2635244 702646 L2635244 683976 "/>
</g></g>
<g style="fill:#000084; fill-opacity:0.0;  stroke:#000084; stroke-width:3920.662684; stroke-opacity:1;  stroke-linecap:round; stroke-linejoin:round;">
<g transform="rotate(-90.000000 2555547.923831 626800.460051)">
<text x="2555547.923831" y="639052.530940" transform="scale(-1 1) translate(-5111095.847662 0)" textLength="61622.084585" font-size="32672.156364" lengthAdjust="spacingAndGlyphs" text-anchor="middle" opacity="0.01" style="font-family:monospace">R10</text>
</g>
<g class="stroked-text"><desc>R10</desc>
<path d="M2566633 611047 L2554964 602879 "/>
<path d="M2566633 597045 L2542128 597045 L2542128 606380 L2543295 608714 L2544462 609880 L2546796 611047 L2550297 611047 L2552630 609880 L2553797 608714 L2554964 606380 L2554964 597045 "/>
<path d="M2566633 634385 L2566633 620382 "/>
<path d="M2566633 627383 L2542128 627383 L2545629 625050 L2547963 622716 L2549130 620382 "/>
<path d="M2542128 649554 L2542128 651887 L2543295 654221 L2544462 655388 L2546796 656555 L2551463 657722 L2557298 657722 L2561965 656555 L2564299 655388 L2565466 654221 L2566633 651887 L2566633 649554 L2565466 647220 L2564299 646053 L2561965 644886 L2557298 643719 L2551463 643719 L2546796 644886 L2544462 646053 L2543295 647220 L2542128 649554 "/>
</g></g>
<g style="fill:#000084; fill-opacity:0.01;  stroke:#000084; stroke-width:7351.242533; stroke-opacity:1;  stroke-linecap:round; stroke-linejoin:round;">
<text x="1774429.396390" y="1404463.903502" transform="scale(-1 1) translate(-3548858.792779 0)" textLength="183935.096366" font-size="65344.361737" lengthAdjust="spacingAndGlyphs" text-anchor="middle" opacity="0.01" style="font-family:monospace">200R</text>
<g class="stroked-text"><desc>200R</desc>
<path d="M1859610 1357789 L1857276 1355455 L1852609 1353121 L1840940 1353121 L1836273 1355455 L1833939 1357789 L1831605 1362456 L1831605 1367124 L1833939 1374125 L1861944 1402130 L1831605 1402130 "/>
<path d="M1801267 1353121 L1796599 1353121 L1791932 1355455 L1789598 1357789 L1787264 1362456 L1784931 1371791 L1784931 1383460 L1787264 1392795 L1789598 1397462 L1791932 1399796 L1796599 1402130 L1801267 1402130 L1805934 1399796 L1808268 1397462 L1810602 1392795 L1812935 1383460 L1812935 1371791 L1810602 1362456 L1808268 1357789 L1805934 1355455 L1801267 1353121 "/>
<path d="M1754592 1353121 L1749925 1353121 L1745257 1355455 L1742924 1357789 L1740590 1362456 L1738256 1371791 L1738256 1383460 L1740590 1392795 L1742924 1397462 L1745257 1399796 L1749925 1402130 L1754592 1402130 L1759260 1399796 L1761593 1397462 L1763927 1392795 L1766261 1383460 L1766261 1371791 L1763927 1362456 L1761593 1357789 L1759260 1355455 L1754592 1353121 "/>
<path d="M1689248 1402130 L1705584 1378792 "/>
<path d="M1717253 1402130 L1717253 1353121 L1698583 1353121 L1693915 1355455 L1691582 1357789 L1689248 1362456 L1689248 1369457 L1691582 1374125 L1693915 1376459 L1698583 1378792 L1717253 1378792 "/>
</g></g>
<g style="fill:#000084; fill-opacity:0.01;  stroke:#000084; stroke-width:3920.662684; stroke-opacity:1;  stroke-linecap:round; stroke-linejoin:round;">
<text x="1774429.396390" y="1473075.500479" transform="scale(-1 1) translate(-3548858.792779 0)" textLength="38284.781030" font-size="32672.156364" lengthAdjust="spacingAndGlyphs" text-anchor="middle" opacity="0.01" style="font-family:monospace">R9</text>
<g class="stroked-text"><desc>R9</desc>
<path d="M1778513 1471908 L1786681 1460239 "/>
<path d="M1792515 1471908 L1792515 1447404 L1783180 1447404 L1780847 1448571 L1779680 1449738 L1778513 1452071 L1778513 1455572 L1779680 1457906 L1780847 1459073 L1783180 1460239 L1792515 1460239 "/>
<path d="M1766844 1471908 L1762177 1471908 L1759843 1470741 L1758676 1469574 L1756342 1466074 L1755176 1461406 L1755176 1452071 L1756342 1449738 L1757509 1448571 L1759843 1447404 L1764511 1447404 L1766844 1448571 L1768011 1449738 L1769178 1452071 L1769178 1457906 L1768011 1460239 L1766844 1461406 L1764511 1462573 L1759843 1462573 L1757509 1461406 L1756342 1460239 L1755176 1457906 "/>
</g></g>
<g style="fill:#000084; fill-opacity:0.0;  stroke:#000084; stroke-width:7351.242533; stroke-opacity:1;  stroke-linecap:round; stroke-linejoin:round;">
<g transform="rotate(-90.000000 547668.744926 1112276.516947)">
<text x="547668.744926" y="1136780.658724" transform="scale(-1 1) translate(-1095337.489852 0)" textLength="127925.636448" font-size="65344.361737" lengthAdjust="spacingAndGlyphs" text-anchor="middle" opacity="0.01" style="font-family:monospace">10k</text>
</g>
<g class="stroked-text"><desc>10k</desc>
<path d="M569839 1083104 L569839 1055100 "/>
<path d="M569839 1069102 L520830 1069102 L527832 1064435 L532499 1059767 L534833 1055100 "/>
<path d="M520830 1113443 L520830 1118110 L523164 1122778 L525498 1125111 L530165 1127445 L539500 1129779 L551169 1129779 L560504 1127445 L565171 1125111 L567505 1122778 L569839 1118110 L569839 1113443 L567505 1108775 L565171 1106442 L560504 1104108 L551169 1101774 L539500 1101774 L530165 1104108 L525498 1106442 L523164 1108775 L520830 1113443 "/>
<path d="M569839 1150783 L520830 1150783 "/>
<path d="M551169 1155450 L569839 1169452 "/>
<path d="M537166 1169452 L555836 1150783 "/>
</g></g>
<g style="fill:#000084; fill-opacity:0.0;  stroke:#000084; stroke-width:3920.662684; stroke-opacity:1;  stroke-linecap:round; stroke-linejoin:round;">
<g transform="rotate(-90.000000 613643.696248 1102940.438929)">
<text x="613643.696248" y="1115192.509818" transform="scale(-1 1) translate(-1227287.392495 0)" textLength="38284.781030" font-size="32672.156364" lengthAdjust="spacingAndGlyphs" text-anchor="middle" opacity="0.01" style="font-family:monospace">R5</text>
</g>
<g class="stroked-text"><desc>R5</desc>
<path d="M624728 1098856 L613060 1090688 "/>
<path d="M624728 1084854 L600224 1084854 L600224 1094188 L601391 1096522 L602558 1097689 L604892 1098856 L608392 1098856 L610726 1097689 L611893 1096522 L613060 1094188 L613060 1084854 "/>
<path d="M600224 1121026 L600224 1109358 L611893 1108191 L610726 1109358 L609559 1111691 L609559 1117526 L610726 1119859 L611893 1121026 L614227 1122193 L620061 1122193 L622395 1121026 L623561 1119859 L624728 1117526 L624728 1111691 L623561 1109358 L622395 1108191 "/>
</g></g>
<g style="fill:#000084; fill-opacity:0.0;  stroke:#000084; stroke-width:7351.242533; stroke-opacity:1;  stroke-linecap:round; stroke-linejoin:round;">
<g transform="rotate(-90.000000 2162011.406884 1597130.168641)">
<text x="2162011.406884" y="1621634.310419" transform="scale(-1 1) translate(-4324022.813769 0)" textLength="221274.752648" font-size="65344.361737" lengthAdjust="spacingAndGlyphs" text-anchor="middle" opacity="0.01" style="font-family:monospace">100nF</text>
</g>
<g class="stroked-text"><desc>100nF</desc>
<path d="M2184181 1521283 L2184181 1493279 "/>
<path d="M2184181 1507281 L2135173 1507281 L2142174 1502614 L2146842 1497946 L2149175 1493279 "/>
<path d="M2135173 1551622 L2135173 1556289 L2137507 1560957 L2139840 1563291 L2144508 1565624 L2153843 1567958 L2165511 1567958 L2174846 1565624 L2179514 1563291 L2181848 1560957 L2184181 1556289 L2184181 1551622 L2181848 1546954 L2179514 1544621 L2174846 1542287 L2165511 1539953 L2153843 1539953 L2144508 1542287 L2139840 1544621 L2137507 1546954 L2135173 1551622 "/>
<path d="M2135173 1598297 L2135173 1602964 L2137507 1607631 L2139840 1609965 L2144508 1612299 L2153843 1614633 L2165511 1614633 L2174846 1612299 L2179514 1609965 L2181848 1607631 L2184181 1602964 L2184181 1598297 L2181848 1593629 L2179514 1591295 L2174846 1588962 L2165511 1586628 L2153843 1586628 L2144508 1588962 L2139840 1591295 L2137507 1593629 L2135173 1598297 "/>
<path d="M2151509 1635636 L2184181 1635636 "/>
<path d="M2156177 1635636 L2153843 1637970 L2151509 1642637 L2151509 1649639 L2153843 1654306 L2158510 1656640 L2184181 1656640 "/>
<path d="M2158510 1696313 L2158510 1679977 "/>
<path d="M2184181 1679977 L2135173 1679977 L2135173 1703314 "/>
</g></g>
<g style="fill:#000084; fill-opacity:0.0;  stroke:#000084; stroke-width:3920.662684; stroke-opacity:1;  stroke-linecap:round; stroke-linejoin:round;">
<g transform="rotate(-90.000000 2244345.323257 1597130.168641)">
<text x="2244345.323257" y="1609382.239530" transform="scale(-1 1) translate(-4488690.646513 0)" textLength="38284.781030" font-size="32672.156364" lengthAdjust="spacingAndGlyphs" text-anchor="middle" opacity="0.01" style="font-family:monospace">C1</text>
</g>
<g class="stroked-text"><desc>C1</desc>
<path d="M2253096 1593046 L2254263 1591879 L2255430 1588378 L2255430 1586044 L2254263 1582544 L2251929 1580210 L2249596 1579043 L2244928 1577876 L2241428 1577876 L2236760 1579043 L2234426 1580210 L2232093 1582544 L2230926 1586044 L2230926 1588378 L2232093 1591879 L2233260 1593046 "/>
<path d="M2255430 1616383 L2255430 1602381 "/>
<path d="M2255430 1609382 L2230926 1609382 L2234426 1607048 L2236760 1604714 L2237927 1602381 "/>
</g></g>
<g style="fill:#000084; fill-opacity:0.0;  stroke:#000084; stroke-width:7351.242533; stroke-opacity:1;  stroke-linecap:round; stroke-linejoin:round;">
<g transform="rotate(-90.000000 472980.120788 1066218.532062)">
<text x="472980.120788" y="1090722.673839" transform="scale(-1 1) translate(-945960.241576 0)" textLength="221274.752648" font-size="65344.361737" lengthAdjust="spacingAndGlyphs" text-anchor="middle" opacity="0.01" style="font-family:monospace">100nF</text>
</g>
<g class="stroked-text"><desc>100nF</desc>
<path d="M495150 990372 L495150 962367 "/>
<path d="M495150 976369 L446142 976369 L453143 971702 L457810 967035 L460144 962367 "/>
<path d="M446142 1020710 L446142 1025378 L448475 1030045 L450809 1032379 L455477 1034713 L464812 1037046 L476480 1037046 L485815 1034713 L490483 1032379 L492816 1030045 L495150 1025378 L495150 1020710 L492816 1016043 L490483 1013709 L485815 1011375 L476480 1009042 L464812 1009042 L455477 1011375 L450809 1013709 L448475 1016043 L446142 1020710 "/>
<path d="M446142 1067385 L446142 1072052 L448475 1076720 L450809 1079053 L455477 1081387 L464812 1083721 L476480 1083721 L485815 1081387 L490483 1079053 L492816 1076720 L495150 1072052 L495150 1067385 L492816 1062717 L490483 1060384 L485815 1058050 L476480 1055716 L464812 1055716 L455477 1058050 L450809 1060384 L448475 1062717 L446142 1067385 "/>
<path d="M462478 1104725 L495150 1104725 "/>
<path d="M467145 1104725 L464812 1107058 L462478 1111726 L462478 1118727 L464812 1123394 L469479 1125728 L495150 1125728 "/>
<path d="M469479 1165401 L469479 1149065 "/>
<path d="M495150 1149065 L446142 1149065 L446142 1172403 "/>
</g></g>
<g style="fill:#000084; fill-opacity:0.0;  stroke:#000084; stroke-width:3920.662684; stroke-opacity:1;  stroke-linecap:round; stroke-linejoin:round;">
<g transform="rotate(-90.000000 476714.551995 878874.566516)">
<text x="476714.551995" y="891126.637405" transform="scale(-1 1) translate(-953429.103990 0)" textLength="38284.781030" font-size="32672.156364" lengthAdjust="spacingAndGlyphs" text-anchor="middle" opacity="0.01" style="font-family:monospace">C2</text>
</g>
<g class="stroked-text"><desc>C2</desc>
<path d="M485466 874790 L486632 873623 L487799 870123 L487799 867789 L486632 864288 L484299 861954 L481965 860788 L477297 859621 L473797 859621 L469129 860788 L466796 861954 L464462 864288 L463295 867789 L463295 870123 L464462 873623 L465629 874790 "/>
<path d="M465629 884125 L464462 885292 L463295 887626 L463295 893460 L464462 895794 L465629 896960 L467963 898127 L470296 898127 L473797 896960 L487799 882958 L487799 898127 "/>
</g></g>
<g style="fill:#000084; fill-opacity:0.0;  stroke:#000084; stroke-width:7351.242533; stroke-opacity:1;  stroke-linecap:round; stroke-linejoin:round;">
<g transform="rotate(-45.000000 1578371.758028 458751.055741)">
<text x="1578371.758028" y="483255.197518" transform="scale(-1 1) translate(-3156743.516056 0)" textLength="183935.096366" font-size="65344.361737" lengthAdjust="spacingAndGlyphs" text-anchor="middle" opacity="0.01" style="font-family:monospace">100R</text>
</g>
<g class="stroked-text"><desc>100R</desc>
<path d="M1634478 433998 L1654280 414195 "/>
<path d="M1644379 424096 L1609725 389442 L1617976 391093 L1624577 391093 L1629527 389442 "/>
<path d="M1578371 420796 L1575071 424096 L1573421 429047 L1573421 432347 L1575071 437298 L1580021 445549 L1588272 453800 L1596523 458751 L1601474 460401 L1604774 460401 L1609725 458751 L1613025 455450 L1614676 450500 L1614676 447199 L1613025 442249 L1608075 433998 L1599824 425747 L1591573 420796 L1586622 419146 L1583322 419146 L1578371 420796 "/>
<path d="M1545367 453800 L1542067 457100 L1540417 462051 L1540417 465351 L1542067 470302 L1547018 478553 L1555269 486804 L1563519 491754 L1568470 493405 L1571770 493405 L1576721 491754 L1580021 488454 L1581672 483503 L1581672 480203 L1580021 475252 L1575071 467001 L1566820 458751 L1558569 453800 L1553618 452150 L1550318 452150 L1545367 453800 "/>
<path d="M1533816 534659 L1528865 506606 "/>
<path d="M1553618 514857 L1518964 480203 L1505763 493405 L1504112 498355 L1504112 501656 L1505763 506606 L1510713 511557 L1515664 513207 L1518964 513207 L1523915 511557 L1537116 498355 "/>
</g></g>
<g style="fill:#000084; fill-opacity:0.0;  stroke:#000084; stroke-width:3920.662684; stroke-opacity:1;  stroke-linecap:round; stroke-linejoin:round;">
<g transform="rotate(-45.000000 1456982.209333 585119.846045)">
<text x="1456982.209333" y="597371.916933" transform="scale(-1 1) translate(-2913964.418666 0)" textLength="38284.781030" font-size="32672.156364" lengthAdjust="spacingAndGlyphs" text-anchor="middle" opacity="0.01" style="font-family:monospace">R7</text>
</g>
<g class="stroked-text"><desc>R7</desc>
<path d="M1467708 590070 L1465233 576043 "/>
<path d="M1477609 580169 L1460282 562842 L1453681 569442 L1452856 571918 L1452856 573568 L1453681 576043 L1456157 578519 L1458632 579344 L1460282 579344 L1462757 578519 L1469358 571918 "/>
<path d="M1444605 578519 L1433054 590070 L1457807 599971 "/>
</g></g>
<g style="fill:#000084; fill-opacity:0.0;  stroke:#000084; stroke-width:7351.242533; stroke-opacity:1;  stroke-linecap:round; stroke-linejoin:round;">
<g transform="rotate(-90.000000 794092.196297 1102940.438929)">
<text x="794092.196297" y="1127444.580707" transform="scale(-1 1) translate(-1588184.392594 0)" textLength="127925.636448" font-size="65344.361737" lengthAdjust="spacingAndGlyphs" text-anchor="middle" opacity="0.01" style="font-family:monospace">10k</text>
</g>
<g class="stroked-text"><desc>10k</desc>
<path d="M816262 1073768 L816262 1045764 "/>
<path d="M816262 1059766 L767254 1059766 L774255 1055098 L778922 1050431 L781256 1045764 "/>
<path d="M767254 1104107 L767254 1108774 L769588 1113442 L771921 1115775 L776589 1118109 L785924 1120443 L797592 1120443 L806927 1118109 L811595 1115775 L813928 1113442 L816262 1108774 L816262 1104107 L813928 1099439 L811595 1097106 L806927 1094772 L797592 1092438 L785924 1092438 L776589 1094772 L771921 1097106 L769588 1099439 L767254 1104107 "/>
<path d="M816262 1141446 L767254 1141446 "/>
<path d="M797592 1146114 L816262 1160116 "/>
<path d="M783590 1160116 L802260 1141446 "/>
</g></g>
<g style="fill:#000084; fill-opacity:0.0;  stroke:#000084; stroke-width:3920.662684; stroke-opacity:1;  stroke-linecap:round; stroke-linejoin:round;">
<g transform="rotate(-90.000000 713228.528431 1102940.438929)">
<text x="713228.528431" y="1115192.509818" transform="scale(-1 1) translate(-1426457.056863 0)" textLength="38284.781030" font-size="32672.156364" lengthAdjust="spacingAndGlyphs" text-anchor="middle" opacity="0.01" style="font-family:monospace">R6</text>
</g>
<g class="stroked-text"><desc>R6</desc>
<path d="M724313 1098856 L712645 1090688 "/>
<path d="M724313 1084854 L699809 1084854 L699809 1094188 L700976 1096522 L702143 1097689 L704477 1098856 L707977 1098856 L710311 1097689 L711478 1096522 L712645 1094188 L712645 1084854 "/>
<path d="M699809 1119859 L699809 1115192 L700976 1112858 L702143 1111691 L705643 1109358 L710311 1108191 L719646 1108191 L721979 1109358 L723146 1110525 L724313 1112858 L724313 1117526 L723146 1119859 L721979 1121026 L719646 1122193 L713811 1122193 L711478 1121026 L710311 1119859 L709144 1117526 L709144 1112858 L710311 1110525 L711478 1109358 L713811 1108191 "/>
</g></g>
<g style="fill:#000084; fill-opacity:0.01;  stroke:#000084; stroke-width:7351.242533; stroke-opacity:1;  stroke-linecap:round; stroke-linejoin:round;">
<g transform="rotate(-90.000000 1111567.857166 1859162.758325)">
<text x="1111567.857166" y="1890283.018382" transform="scale(-1 1) translate(-2223135.714333 0)" textLength="116420.353784" font-size="82987.343817" lengthAdjust="spacingAndGlyphs" text-anchor="middle" opacity="0.01" style="font-family:monospace">D3</text>
</g>
<g class="stroked-text"><desc>D3</desc>
<path d="M1139724 1813223 L1077483 1813223 L1077483 1828042 L1080447 1836933 L1086375 1842861 L1092302 1845825 L1104158 1848789 L1113049 1848789 L1124905 1845825 L1130832 1842861 L1136760 1836933 L1139724 1828042 L1139724 1813223 "/>
<path d="M1077483 1869536 L1077483 1908066 L1101194 1887319 L1101194 1896210 L1104158 1902138 L1107122 1905102 L1113049 1908066 L1127868 1908066 L1133796 1905102 L1136760 1902138 L1139724 1896210 L1139724 1878427 L1136760 1872499 L1133796 1869536 "/>
</g><g transform="rotate(-90.000000 1109078.236362 1768291.598957)">
<text x="1109078.236362" y="1799411.859015" transform="scale(-1 1) translate(-2218156.472724 0)" textLength="52683.904822" font-size="82987.343817" lengthAdjust="spacingAndGlyphs" text-anchor="middle" opacity="0.01" style="font-family:monospace">K</text>
</g>
<g class="stroked-text"><desc>K</desc>
<path d="M1137234 1751990 L1074994 1751990 "/>
<path d="M1137234 1787556 L1101668 1760881 "/>
<path d="M1074994 1787556 L1110560 1751990 "/>
</g><g transform="rotate(-90.000000 1310737.521534 1859162.758325)">
<text x="1310737.521534" y="1890283.018382" transform="scale(-1 1) translate(-2621475.043068 0)" textLength="111960.599980" font-size="82987.343817" lengthAdjust="spacingAndGlyphs" text-anchor="middle" opacity="0.01" style="font-family:monospace">D2</text>
</g>
<g class="stroked-text"><desc>D2</desc>
<path d="M1338893 1813223 L1276653 1813223 L1276653 1828042 L1279617 1836933 L1285544 1842861 L1291472 1845825 L1303327 1848789 L1312219 1848789 L1324074 1845825 L1330002 1842861 L1335930 1836933 L1338893 1828042 L1338893 1813223 "/>
<path d="M1282581 1872499 L1279617 1875463 L1276653 1881391 L1276653 1896210 L1279617 1902138 L1282581 1905102 L1288508 1908066 L1294436 1908066 L1303327 1905102 L1338893 1869536 L1338893 1908066 "/>
</g><g transform="rotate(-90.000000 1308247.900729 1768291.598957)">
<text x="1308247.900729" y="1799411.859015" transform="scale(-1 1) translate(-2616495.801459 0)" textLength="52683.904822" font-size="82987.343817" lengthAdjust="spacingAndGlyphs" text-anchor="middle" opacity="0.01" style="font-family:monospace">K</text>
</g>
<g class="stroked-text"><desc>K</desc>
<path d="M1336404 1751990 L1274163 1751990 "/>
<path d="M1336404 1787556 L1300838 1760881 "/>
<path d="M1274163 1787556 L1309729 1751990 "/>
</g><g transform="rotate(-90.000000 308665.147685 812277.209993)">
<text x="308665.147685" y="836781.351771" transform="scale(-1 1) translate(-617330.295370 0)" textLength="489861.122075" font-size="65344.361737" lengthAdjust="spacingAndGlyphs" text-anchor="middle" opacity="0.01" style="font-family:monospace">BZV55C-5,6V</text>
</g>
<g class="stroked-text"><desc>BZV55C-5,6V</desc>
<path d="M305164 590573 L307498 597574 L309831 599907 L314499 602241 L321500 602241 L326168 599907 L328501 597574 L330835 592906 L330835 574236 L281827 574236 L281827 590573 L284161 595240 L286494 597574 L291162 599907 L295829 599907 L300497 597574 L302830 595240 L305164 590573 L305164 574236 "/>
<path d="M281827 618577 L281827 651249 L330835 618577 L330835 651249 "/>
<path d="M281827 662918 L330835 679254 L281827 695590 "/>
<path d="M281827 735264 L281827 711926 L305164 709593 L302830 711926 L300497 716594 L300497 728262 L302830 732930 L305164 735264 L309831 737597 L321500 737597 L326168 735264 L328501 732930 L330835 728262 L330835 716594 L328501 711926 L326168 709593 "/>
<path d="M281827 781938 L281827 758601 L305164 756267 L302830 758601 L300497 763268 L300497 774937 L302830 779605 L305164 781938 L309831 784272 L321500 784272 L326168 781938 L328501 779605 L330835 774937 L330835 763268 L328501 758601 L326168 756267 "/>
<path d="M326168 833280 L328501 830947 L330835 823945 L330835 819278 L328501 812277 L323834 807609 L319166 805275 L309831 802942 L302830 802942 L293495 805275 L288828 807609 L284161 812277 L281827 819278 L281827 823945 L284161 830947 L286494 833280 "/>
<path d="M312165 854284 L312165 891623 "/>
<path d="M281827 938298 L281827 914961 L305164 912627 L302830 914961 L300497 919628 L300497 931297 L302830 935964 L305164 938298 L309831 940632 L321500 940632 L326168 938298 L328501 935964 L330835 931297 L330835 919628 L328501 914961 L326168 912627 "/>
<path d="M328501 963969 L330835 963969 L335503 961635 L337836 959302 "/>
<path d="M281827 1005976 L281827 996641 L284161 991974 L286494 989640 L293495 984973 L302830 982639 L321500 982639 L326168 984973 L328501 987306 L330835 991974 L330835 1001309 L328501 1005976 L326168 1008310 L321500 1010644 L309831 1010644 L305164 1008310 L302830 1005976 L300497 1001309 L300497 991974 L302830 987306 L305164 984973 L309831 982639 "/>
<path d="M281827 1024646 L330835 1040982 L281827 1057318 "/>
</g><text x="388333.013432" y="514375.457576" transform="scale(-1 1) translate(-776666.026864 0)" textLength="86126.226362" font-size="65344.361737" lengthAdjust="spacingAndGlyphs" text-anchor="middle" opacity="0.01" style="font-family:monospace">D1</text>
<g class="stroked-text"><desc>D1</desc>
<path d="M424505 512041 L424505 463033 L412837 463033 L405835 465367 L401168 470034 L398834 474702 L396501 484036 L396501 491038 L398834 500373 L401168 505040 L405835 509707 L412837 512041 L424505 512041 "/>
<path d="M349826 512041 L377831 512041 "/>
<path d="M363828 512041 L363828 463033 L368496 470034 L373163 474702 L377831 477035 "/>
</g><g transform="rotate(-90.000000 1877126.254579 843397.470050)">
<text x="1877126.254579" y="867901.611828" transform="scale(-1 1) translate(-3754252.509158 0)" textLength="216814.998845" font-size="65344.361737" lengthAdjust="spacingAndGlyphs" text-anchor="middle" opacity="0.01" style="font-family:monospace">100nF</text>
</g>
<g class="stroked-text"><desc>100nF</desc>
<path d="M1899296 767551 L1899296 739546 "/>
<path d="M1899296 753548 L1850288 753548 L1857289 748881 L1861957 744214 L1864290 739546 "/>
<path d="M1850288 797889 L1850288 802557 L1852622 807224 L1854955 809558 L1859623 811892 L1868958 814225 L1880626 814225 L1889961 811892 L1894629 809558 L1896962 807224 L1899296 802557 L1899296 797889 L1896962 793222 L1894629 790888 L1889961 788554 L1880626 786221 L1868958 786221 L1859623 788554 L1854955 790888 L1852622 793222 L1850288 797889 "/>
<path d="M1850288 844564 L1850288 849231 L1852622 853899 L1854955 856232 L1859623 858566 L1868958 860900 L1880626 860900 L1889961 858566 L1894629 856232 L1896962 853899 L1899296 849231 L1899296 844564 L1896962 839896 L1894629 837563 L1889961 835229 L1880626 832895 L1868958 832895 L1859623 835229 L1854955 837563 L1852622 839896 L1850288 844564 "/>
<path d="M1866624 881903 L1899296 881903 "/>
<path d="M1871291 881903 L1868958 884237 L1866624 888905 L1866624 895906 L1868958 900573 L1873625 902907 L1899296 902907 "/>
<path d="M1873625 942580 L1873625 926244 "/>
<path d="M1899296 926244 L1850288 926244 L1850288 949582 "/>
</g></g>
<g style="fill:#000084; fill-opacity:0.0;  stroke:#000084; stroke-width:3920.662684; stroke-opacity:1;  stroke-linecap:round; stroke-linejoin:round;">
<g transform="rotate(-90.000000 1877126.254579 639248.564074)">
<text x="1877126.254579" y="651500.634963" transform="scale(-1 1) translate(-3754252.509158 0)" textLength="38284.781030" font-size="32672.156364" lengthAdjust="spacingAndGlyphs" text-anchor="middle" opacity="0.01" style="font-family:monospace">C6</text>
</g>
<g class="stroked-text"><desc>C6</desc>
<path d="M1885877 635164 L1887044 633997 L1888211 630497 L1888211 628163 L1887044 624662 L1884710 622328 L1882377 621162 L1877709 619995 L1874209 619995 L1869541 621162 L1867207 622328 L1864874 624662 L1863707 628163 L1863707 630497 L1864874 633997 L1866041 635164 "/>
<path d="M1863707 656168 L1863707 651500 L1864874 649166 L1866041 648000 L1869541 645666 L1874209 644499 L1883543 644499 L1885877 645666 L1887044 646833 L1888211 649166 L1888211 653834 L1887044 656168 L1885877 657334 L1883543 658501 L1877709 658501 L1875375 657334 L1874209 656168 L1873042 653834 L1873042 649166 L1874209 646833 L1875375 645666 L1877709 644499 "/>
</g></g>
<g style="fill:#000084; fill-opacity:0.0;  stroke:#000084; stroke-width:7351.242533; stroke-opacity:1;  stroke-linecap:round; stroke-linejoin:round;">
<g transform="rotate(-90.000000 1776296.611993 748791.879476)">
<text x="1776296.611993" y="773296.021253" transform="scale(-1 1) translate(-3552593.223986 0)" textLength="174600.194548" font-size="65344.361737" lengthAdjust="spacingAndGlyphs" text-anchor="middle" opacity="0.01" style="font-family:monospace">10uF</text>
</g>
<g class="stroked-text"><desc>10uF</desc>
<path d="M1798466 696282 L1798466 668278 "/>
<path d="M1798466 682280 L1749458 682280 L1756459 677613 L1761127 672945 L1763461 668278 "/>
<path d="M1749458 726621 L1749458 731288 L1751792 735956 L1754126 738290 L1758793 740623 L1768128 742957 L1779797 742957 L1789132 740623 L1793799 738290 L1796133 735956 L1798466 731288 L1798466 726621 L1796133 721953 L1793799 719620 L1789132 717286 L1779797 714952 L1768128 714952 L1758793 717286 L1754126 719620 L1751792 721953 L1749458 726621 "/>
<path d="M1765794 784964 L1798466 784964 "/>
<path d="M1765794 763961 L1791465 763961 L1796133 766294 L1798466 770962 L1798466 777963 L1796133 782630 L1793799 784964 "/>
<path d="M1772795 824638 L1772795 808301 "/>
<path d="M1798466 808301 L1749458 808301 L1749458 831639 "/>
</g></g>
<g style="fill:#000084; fill-opacity:0.0;  stroke:#000084; stroke-width:3920.662684; stroke-opacity:1;  stroke-linecap:round; stroke-linejoin:round;">
<g transform="rotate(-90.000000 1777541.422395 576385.638758)">
<text x="1777541.422395" y="588637.709647" transform="scale(-1 1) translate(-3555082.844791 0)" textLength="38284.781030" font-size="32672.156364" lengthAdjust="spacingAndGlyphs" text-anchor="middle" opacity="0.01" style="font-family:monospace">C5</text>
</g>
<g class="stroked-text"><desc>C5</desc>
<path d="M1786292 572301 L1787459 571134 L1788626 567634 L1788626 565300 L1787459 561799 L1785125 559466 L1782792 558299 L1778124 557132 L1774624 557132 L1769956 558299 L1767623 559466 L1765289 561799 L1764122 565300 L1764122 567634 L1765289 571134 L1766456 572301 "/>
<path d="M1764122 594471 L1764122 582803 L1775791 581636 L1774624 582803 L1773457 585137 L1773457 590971 L1774624 593305 L1775791 594471 L1778124 595638 L1783959 595638 L1786292 594471 L1787459 593305 L1788626 590971 L1788626 585137 L1787459 582803 L1786292 581636 "/>
</g></g>
<g style="fill:#000084; fill-opacity:0.0;  stroke:#000084; stroke-width:7351.242533; stroke-opacity:1;  stroke-linecap:round; stroke-linejoin:round;">
<g transform="rotate(-45.000000 1199949.444738 1020160.547177)">
<text x="1199949.444738" y="1044664.688954" transform="scale(-1 1) translate(-2399898.889476 0)" textLength="221274.752648" font-size="65344.361737" lengthAdjust="spacingAndGlyphs" text-anchor="middle" opacity="0.01" style="font-family:monospace">100nF</text>
</g>
<g class="stroked-text"><desc>100nF</desc>
<path d="M1269257 982206 L1289059 962403 "/>
<path d="M1279158 972304 L1244504 937650 L1252755 939300 L1259356 939300 L1264307 937650 "/>
<path d="M1213151 969004 L1209850 972304 L1208200 977255 L1208200 980555 L1209850 985506 L1214801 993757 L1223052 1002008 L1231303 1006958 L1236253 1008609 L1239554 1008609 L1244504 1006958 L1247805 1003658 L1249455 998708 L1249455 995407 L1247805 990457 L1242854 982206 L1234603 973955 L1226352 969004 L1221401 967354 L1218101 967354 L1213151 969004 "/>
<path d="M1180147 1002008 L1176846 1005308 L1175196 1010259 L1175196 1013559 L1176846 1018510 L1181797 1026761 L1190048 1035012 L1198299 1039962 L1203249 1041613 L1206550 1041613 L1211500 1039962 L1214801 1036662 L1216451 1031711 L1216451 1028411 L1214801 1023460 L1209850 1015209 L1201599 1006958 L1193348 1002008 L1188398 1000358 L1185097 1000358 L1180147 1002008 "/>
<path d="M1165295 1039962 L1188398 1063065 "/>
<path d="M1168595 1043263 L1165295 1043263 L1160344 1044913 L1155394 1049864 L1153743 1054814 L1155394 1059765 L1173546 1077917 "/>
<path d="M1127340 1087818 L1138892 1076267 "/>
<path d="M1157044 1094419 L1122390 1059765 L1105888 1076267 "/>
</g></g>
<g style="fill:#000084; fill-opacity:0.0;  stroke:#000084; stroke-width:3920.662684; stroke-opacity:1;  stroke-linecap:round; stroke-linejoin:round;">
<g transform="rotate(-45.000000 1338123.350384 875762.540510)">
<text x="1338123.350384" y="888014.611399" transform="scale(-1 1) translate(-2676246.700769 0)" textLength="38284.781030" font-size="32672.156364" lengthAdjust="spacingAndGlyphs" text-anchor="middle" opacity="0.01" style="font-family:monospace">C9</text>
</g>
<g class="stroked-text"><desc>C9</desc>
<path d="M1347199 879062 L1348849 879062 L1352149 877412 L1353800 875762 L1355450 872462 L1355450 869161 L1354625 866686 L1352149 862560 L1349674 860085 L1345549 857610 L1343073 856785 L1339773 856785 L1336473 858435 L1334822 860085 L1333172 863386 L1333172 865036 "/>
<path d="M1340598 888964 L1337298 892264 L1334822 893089 L1333172 893089 L1329047 892264 L1324921 889789 L1318320 883188 L1317495 880713 L1317495 879062 L1318320 876587 L1321621 873287 L1324096 872462 L1325746 872462 L1328222 873287 L1332347 877412 L1333172 879888 L1333172 881538 L1332347 884013 L1329047 887313 L1326571 888138 L1324921 888138 L1322446 887313 "/>
</g></g>
<g style="fill:#000084; fill-opacity:0.01;  stroke:#000084; stroke-width:7351.242533; stroke-opacity:1;  stroke-linecap:round; stroke-linejoin:round;">
<text x="673892.519719" y="1388854.765189" transform="scale(-1 1) translate(-1347785.039438 0)" textLength="92919.705620" font-size="65344.361737" lengthAdjust="spacingAndGlyphs" text-anchor="middle" opacity="0.01" style="font-family:monospace">U3</text>
<g class="stroked-text"><desc>U3</desc>
<path d="M711232 1337512 L711232 1377186 L708898 1381853 L706564 1384187 L701897 1386520 L692562 1386520 L687894 1384187 L685561 1381853 L683227 1377186 L683227 1337512 "/>
<path d="M664557 1337512 L634219 1337512 L650555 1356182 L643554 1356182 L638886 1358516 L636552 1360850 L634219 1365517 L634219 1377186 L636552 1381853 L638886 1384187 L643554 1386520 L657556 1386520 L662223 1384187 L664557 1381853 "/>
</g><text x="934182.374839" y="1254988.638659" transform="scale(-1 1) translate(-1868364.749678 0)" textLength="123465.882644" font-size="65344.361737" lengthAdjust="spacingAndGlyphs" text-anchor="middle" opacity="0.01" style="font-family:monospace">10k</text>
<g class="stroked-text"><desc>10k</desc>
<path d="M963353 1252654 L991358 1252654 "/>
<path d="M977356 1252654 L977356 1203646 L982023 1210647 L986691 1215315 L991358 1217648 "/>
<path d="M933015 1203646 L928348 1203646 L923680 1205980 L921346 1208314 L919013 1212981 L916679 1222316 L916679 1233985 L919013 1243319 L921346 1247987 L923680 1250321 L928348 1252654 L933015 1252654 L937682 1250321 L940016 1247987 L942350 1243319 L944684 1233985 L944684 1222316 L942350 1212981 L940016 1208314 L937682 1205980 L933015 1203646 "/>
<path d="M895675 1252654 L895675 1203646 "/>
<path d="M891008 1233985 L877006 1252654 "/>
<path d="M877006 1219982 L895675 1238652 "/>
</g></g>
<g style="fill:#000084; fill-opacity:0.01;  stroke:#000084; stroke-width:3920.662684; stroke-opacity:1;  stroke-linecap:round; stroke-linejoin:round;">
<text x="934182.374839" y="1161872.899904" transform="scale(-1 1) translate(-1868364.749678 0)" textLength="38284.781030" font-size="32672.156364" lengthAdjust="spacingAndGlyphs" text-anchor="middle" opacity="0.01" style="font-family:monospace">R1</text>
<g class="stroked-text"><desc>R1</desc>
<path d="M938266 1160706 L946434 1149037 "/>
<path d="M952268 1160706 L952268 1136201 L942933 1136201 L940600 1137368 L939433 1138535 L938266 1140869 L938266 1144369 L939433 1146703 L940600 1147870 L942933 1149037 L952268 1149037 "/>
<path d="M914929 1160706 L928931 1160706 "/>
<path d="M921930 1160706 L921930 1136201 L924264 1139702 L926597 1142036 L928931 1143203 "/>
</g></g>
<g style="fill:#000084; fill-opacity:0.0;  stroke:#000084; stroke-width:7351.242533; stroke-opacity:1;  stroke-linecap:round; stroke-linejoin:round;">
<g transform="rotate(-135.000000 2373449.902973 1423793.750701)">
<text x="2373449.902973" y="1448297.892479" transform="scale(-1 1) translate(-4746899.805947 0)" textLength="221274.752648" font-size="65344.361737" lengthAdjust="spacingAndGlyphs" text-anchor="middle" opacity="0.01" style="font-family:monospace">100nF</text>
</g>
<g class="stroked-text"><desc>100nF</desc>
<path d="M2335495 1354485 L2315693 1334683 "/>
<path d="M2325594 1344584 L2290940 1379238 L2292590 1370987 L2292590 1364386 L2290940 1359436 "/>
<path d="M2322293 1410592 L2325594 1413892 L2330544 1415542 L2333845 1415542 L2338795 1413892 L2347046 1408941 L2355297 1400691 L2360248 1392440 L2361898 1387489 L2361898 1384189 L2360248 1379238 L2356947 1375938 L2351997 1374287 L2348696 1374287 L2343746 1375938 L2335495 1380888 L2327244 1389139 L2322293 1397390 L2320643 1402341 L2320643 1405641 L2322293 1410592 "/>
<path d="M2355297 1443596 L2358598 1446896 L2363548 1448546 L2366849 1448546 L2371799 1446896 L2380050 1441945 L2388301 1433694 L2393252 1425443 L2394902 1420493 L2394902 1417192 L2393252 1412242 L2389951 1408941 L2385001 1407291 L2381700 1407291 L2376750 1408941 L2368499 1413892 L2360248 1422143 L2355297 1430394 L2353647 1435345 L2353647 1438645 L2355297 1443596 "/>
<path d="M2393252 1458447 L2416354 1435345 "/>
<path d="M2396552 1455147 L2396552 1458447 L2398202 1463398 L2403153 1468348 L2408103 1469999 L2413054 1468348 L2431206 1450196 "/>
<path d="M2441107 1496402 L2429556 1484850 "/>
<path d="M2447708 1466698 L2413054 1501352 L2429556 1517854 "/>
</g></g>
<g style="fill:#000084; fill-opacity:0.0;  stroke:#000084; stroke-width:3920.662684; stroke-opacity:1;  stroke-linecap:round; stroke-linejoin:round;">
<g transform="rotate(-135.000000 2431668.754332 1365574.899343)">
<text x="2431668.754332" y="1377826.970232" transform="scale(-1 1) translate(-4863337.508663 0)" textLength="61622.084585" font-size="32672.156364" lengthAdjust="spacingAndGlyphs" text-anchor="middle" opacity="0.01" style="font-family:monospace">C10</text>
</g>
<g class="stroked-text"><desc>C10</desc>
<path d="M2426718 1348247 L2426718 1346597 L2425067 1343297 L2423417 1341647 L2420117 1339996 L2416816 1339996 L2414341 1340821 L2410216 1343297 L2407740 1345772 L2405265 1349898 L2404440 1352373 L2404440 1355673 L2406090 1358974 L2407740 1360624 L2411041 1362274 L2412691 1362274 "/>
<path d="M2444870 1363099 L2434969 1353198 "/>
<path d="M2439919 1358149 L2422592 1375476 L2423417 1371350 L2423417 1368050 L2422592 1365574 "/>
<path d="M2438269 1391152 L2439919 1392803 L2442395 1393628 L2444045 1393628 L2446520 1392803 L2450645 1390327 L2454771 1386202 L2457246 1382076 L2458071 1379601 L2458071 1377951 L2457246 1375476 L2455596 1373825 L2453121 1373000 L2451471 1373000 L2448995 1373825 L2444870 1376301 L2440744 1380426 L2438269 1384552 L2437444 1387027 L2437444 1388677 L2438269 1391152 "/>
</g></g>
<g style="fill:#000084; fill-opacity:0.01;  stroke:#000084; stroke-width:7351.242533; stroke-opacity:1;  stroke-linecap:round; stroke-linejoin:round;">
<text x="1475052.494637" y="1338439.943896" transform="scale(-1 1) translate(-2950104.989274 0)" textLength="174600.194548" font-size="65344.361737" lengthAdjust="spacingAndGlyphs" text-anchor="middle" opacity="0.01" style="font-family:monospace">10nF</text>
<g class="stroked-text"><desc>10nF</desc>
<path d="M1527561 1336106 L1555566 1336106 "/>
<path d="M1541563 1336106 L1541563 1287097 L1546231 1294099 L1550898 1298766 L1555566 1301100 "/>
<path d="M1497222 1287097 L1492555 1287097 L1487887 1289431 L1485554 1291765 L1483220 1296432 L1480886 1305767 L1480886 1317436 L1483220 1326771 L1485554 1331438 L1487887 1333772 L1492555 1336106 L1497222 1336106 L1501890 1333772 L1504224 1331438 L1506557 1326771 L1508891 1317436 L1508891 1305767 L1506557 1296432 L1504224 1291765 L1501890 1289431 L1497222 1287097 "/>
<path d="M1459883 1303434 L1459883 1336106 "/>
<path d="M1459883 1308101 L1457549 1305767 L1452882 1303434 L1445880 1303434 L1441213 1305767 L1438879 1310435 L1438879 1336106 "/>
<path d="M1399206 1310435 L1415542 1310435 "/>
<path d="M1415542 1336106 L1415542 1287097 L1392205 1287097 "/>
</g></g>
<g style="fill:#000084; fill-opacity:0.0;  stroke:#000084; stroke-width:3920.662684; stroke-opacity:1;  stroke-linecap:round; stroke-linejoin:round;">
<g transform="rotate(-135.000000 1427770.233821 1207525.047193)">
<text x="1427770.233821" y="1219777.118082" transform="scale(-1 1) translate(-2855540.467641 0)" textLength="38284.781030" font-size="32672.156364" lengthAdjust="spacingAndGlyphs" text-anchor="middle" opacity="0.01" style="font-family:monospace">C7</text>
</g>
<g class="stroked-text"><desc>C7</desc>
<path d="M1431070 1198448 L1431070 1196798 L1429420 1193498 L1427770 1191848 L1424469 1190197 L1421169 1190197 L1418694 1191023 L1414568 1193498 L1412093 1195973 L1409618 1200099 L1408792 1202574 L1408792 1205874 L1410443 1209175 L1412093 1210825 L1415393 1212475 L1417043 1212475 "/>
<path d="M1421169 1219901 L1432720 1231452 L1442621 1206699 "/>
</g></g>
<g style="fill:#000084; fill-opacity:0.0;  stroke:#000084; stroke-width:7351.242533; stroke-opacity:1;  stroke-linecap:round; stroke-linejoin:round;">
<g transform="rotate(-45.000000 1597043.914062 811032.399591)">
<text x="1597043.914062" y="835536.541368" transform="scale(-1 1) translate(-3194087.828124 0)" textLength="221274.752648" font-size="65344.361737" lengthAdjust="spacingAndGlyphs" text-anchor="middle" opacity="0.01" style="font-family:monospace">100nF</text>
</g>
<g class="stroked-text"><desc>100nF</desc>
<path d="M1666352 773077 L1686154 753275 "/>
<path d="M1676253 763176 L1641599 728522 L1649850 730172 L1656450 730172 L1661401 728522 "/>
<path d="M1610245 759876 L1606945 763176 L1605294 768127 L1605294 771427 L1606945 776378 L1611895 784629 L1620146 792880 L1628397 797830 L1633348 799481 L1636648 799481 L1641599 797830 L1644899 794530 L1646549 789579 L1646549 786279 L1644899 781328 L1639948 773077 L1631697 764826 L1623447 759876 L1618496 758226 L1615196 758226 L1610245 759876 "/>
<path d="M1577241 792880 L1573941 796180 L1572290 801131 L1572290 804431 L1573941 809382 L1578891 817633 L1587142 825884 L1595393 830834 L1600344 832484 L1603644 832484 L1608595 830834 L1611895 827534 L1613545 822583 L1613545 819283 L1611895 814332 L1606945 806081 L1598694 797830 L1590443 792880 L1585492 791230 L1582192 791230 L1577241 792880 "/>
<path d="M1562389 830834 L1585492 853937 "/>
<path d="M1565690 834135 L1562389 834135 L1557439 835785 L1552488 840735 L1550838 845686 L1552488 850637 L1570640 868789 "/>
<path d="M1524435 878690 L1535986 867138 "/>
<path d="M1554138 885291 L1519484 850637 L1502982 867138 "/>
</g></g>
<g style="fill:#000084; fill-opacity:0.0;  stroke:#000084; stroke-width:3920.662684; stroke-opacity:1;  stroke-linecap:round; stroke-linejoin:round;">
<g transform="rotate(-135.000000 1506172.754695 741323.017062)">
<text x="1506172.754695" y="753575.087951" transform="scale(-1 1) translate(-3012345.509389 0)" textLength="38284.781030" font-size="32672.156364" lengthAdjust="spacingAndGlyphs" text-anchor="middle" opacity="0.01" style="font-family:monospace">C8</text>
</g>
<g class="stroked-text"><desc>C8</desc>
<path d="M1509473 732246 L1509473 730596 L1507822 727296 L1506172 725646 L1502872 723995 L1499571 723995 L1497096 724821 L1492971 727296 L1490495 729771 L1488020 733897 L1487195 736372 L1487195 739672 L1488845 742973 L1490495 744623 L1493796 746273 L1495446 746273 "/>
<path d="M1511123 750399 L1508648 749573 L1506997 749573 L1504522 750399 L1503697 751224 L1502872 753699 L1502872 755349 L1503697 757824 L1506997 761125 L1509473 761950 L1511123 761950 L1513598 761125 L1514423 760300 L1515248 757824 L1515248 756174 L1514423 753699 L1511123 750399 L1510298 747923 L1510298 746273 L1511123 743798 L1514423 740497 L1516899 739672 L1518549 739672 L1521024 740497 L1524324 743798 L1525149 746273 L1525149 747923 L1524324 750399 L1521024 753699 L1518549 754524 L1516899 754524 L1514423 753699 "/>
</g></g>
<g style="fill:#000084; fill-opacity:0.0;  stroke:#000084; stroke-width:7351.242533; stroke-opacity:1;  stroke-linecap:round; stroke-linejoin:round;">
<g transform="rotate(-90.000000 1979200.707567 463730.297350)">
<text x="1979200.707567" y="488234.439127" transform="scale(-1 1) translate(-3958401.415135 0)" textLength="183935.096366" font-size="65344.361737" lengthAdjust="spacingAndGlyphs" text-anchor="middle" opacity="0.01" style="font-family:monospace">100R</text>
</g>
<g class="stroked-text"><desc>100R</desc>
<path d="M2001371 406553 L2001371 378549 "/>
<path d="M2001371 392551 L1952362 392551 L1959364 387884 L1964031 383216 L1966365 378549 "/>
<path d="M1952362 436892 L1952362 441559 L1954696 446227 L1957030 448561 L1961697 450894 L1971032 453228 L1982701 453228 L1992036 450894 L1996703 448561 L1999037 446227 L2001371 441559 L2001371 436892 L1999037 432224 L1996703 429891 L1992036 427557 L1982701 425223 L1971032 425223 L1961697 427557 L1957030 429891 L1954696 432224 L1952362 436892 "/>
<path d="M1952362 483566 L1952362 488234 L1954696 492901 L1957030 495235 L1961697 497569 L1971032 499903 L1982701 499903 L1992036 497569 L1996703 495235 L1999037 492901 L2001371 488234 L2001371 483566 L1999037 478899 L1996703 476565 L1992036 474232 L1982701 471898 L1971032 471898 L1961697 474232 L1957030 476565 L1954696 478899 L1952362 483566 "/>
<path d="M2001371 548911 L1978033 532575 "/>
<path d="M2001371 520906 L1952362 520906 L1952362 539576 L1954696 544243 L1957030 546577 L1961697 548911 L1968698 548911 L1973366 546577 L1975700 544243 L1978033 539576 L1978033 520906 "/>
</g></g>
<g style="fill:#000084; fill-opacity:0.0;  stroke:#000084; stroke-width:3920.662684; stroke-opacity:1;  stroke-linecap:round; stroke-linejoin:round;">
<g transform="rotate(-90.000000 1977955.897165 639248.564074)">
<text x="1977955.897165" y="651500.634963" transform="scale(-1 1) translate(-3955911.794330 0)" textLength="38284.781030" font-size="32672.156364" lengthAdjust="spacingAndGlyphs" text-anchor="middle" opacity="0.01" style="font-family:monospace">R4</text>
</g>
<g class="stroked-text"><desc>R4</desc>
<path d="M1989041 635164 L1977372 626996 "/>
<path d="M1989041 621162 L1964536 621162 L1964536 630497 L1965703 632830 L1966870 633997 L1969204 635164 L1972705 635164 L1975038 633997 L1976205 632830 L1977372 630497 L1977372 621162 "/>
<path d="M1972705 656168 L1989041 656168 "/>
<path d="M1963370 650333 L1980873 644499 L1980873 659668 "/>
</g></g>
<g style="fill:#000084; fill-opacity:0.0;  stroke:#000084; stroke-width:4900.828355; stroke-opacity:1;  stroke-linecap:round; stroke-linejoin:round;">
<path d="M1969497 882863 L1969497 1225921 "/>
<path d="M2263546 1225921 L2312555 1176913 "/>
<path d="M2312555 882863 L1969497 882863 "/>
<path d="M1969497 1225921 L2263546 1225921 "/>
<path d="M2312555 1176913 L2312555 882863 "/>
<path d="M407759 826754 L346499 826754 "/>
<path d="M346499 826754 L346499 924770 "/>
<path d="M407759 924770 L407759 826754 "/>
<path d="M346499 924770 L407759 924770 "/>
<path d="M565958 933739 L565958 892082 "/>
<path d="M673776 933739 L673776 867578 "/>
<path d="M590462 867578 L673776 867578 "/>
<path d="M565958 933739 L673776 933739 "/>
<path d="M565958 892082 L590462 867578 "/>
<path d="M632854 740107 L576495 740107 "/>
<path d="M632854 588181 L544640 588181 "/>
<path d="M632854 740107 L632854 588181 "/>
<path d="M544640 708252 L544640 588181 "/>
<path d="M544640 708252 L576495 740107 "/>
<path d="M793651 716265 L793651 618248 "/>
<path d="M732390 716265 L793651 716265 "/>
<path d="M732390 618248 L732390 716265 "/>
<path d="M793651 618248 L732390 618248 "/>
<path d="M1014310 583722 L916294 583722 "/>
<path d="M916294 583722 L916294 644982 "/>
<path d="M916294 644982 L1014310 644982 "/>
<path d="M1014310 644982 L1014310 583722 "/>
<path d="M916294 769463 L1014310 769463 "/>
<path d="M1014310 708203 L916294 708203 "/>
<path d="M916294 708203 L916294 769463 "/>
<path d="M1014310 769463 L1014310 708203 "/>
<path d="M1373283 471144 L1416601 514462 "/>
<path d="M1442591 401836 L1373283 471144 "/>
<path d="M1485909 445153 L1442591 401836 "/>
<path d="M1416601 514462 L1485909 445153 "/>
<path d="M2524917 577792 L2524917 675808 "/>
<path d="M2586178 577792 L2524917 577792 "/>
<path d="M2586178 675808 L2586178 577792 "/>
<path d="M2524917 675808 L2586178 675808 "/>
<path d="M1823437 1430193 L1725421 1430193 "/>
<path d="M1725421 1430193 L1725421 1491453 "/>
<path d="M1823437 1491453 L1823437 1430193 "/>
<path d="M1725421 1491453 L1823437 1491453 "/>
<path d="M583013 1151948 L644273 1151948 "/>
<path d="M644273 1151948 L644273 1053932 "/>
<path d="M583013 1053932 L583013 1151948 "/>
<path d="M644273 1053932 L583013 1053932 "/>
<path d="M2274975 1548121 L2213715 1548121 "/>
<path d="M2274975 1646138 L2274975 1548121 "/>
<path d="M2213715 1646138 L2274975 1646138 "/>
<path d="M2213715 1548121 L2213715 1646138 "/>
<path d="M446084 829866 L446084 927882 "/>
<path d="M446084 927882 L507344 927882 "/>
<path d="M507344 927882 L507344 829866 "/>
<path d="M507344 829866 L446084 829866 "/>
<path d="M1469977 528806 L1400669 598115 "/>
<path d="M1443986 641432 L1513295 572124 "/>
<path d="M1400669 598115 L1443986 641432 "/>
<path d="M1513295 572124 L1469977 528806 "/>
<path d="M743858 1151948 L743858 1053932 "/>
<path d="M682598 1053932 L682598 1151948 "/>
<path d="M743858 1053932 L682598 1053932 "/>
<path d="M682598 1151948 L743858 1151948 "/>
</g>
<g style="fill:#000084; fill-opacity:0.0;  stroke:#000084; stroke-width:7351.242533; stroke-opacity:1;  stroke-linecap:round; stroke-linejoin:round;">
<path d="M1041858 1982398 L1181277 1982398 "/>
<path d="M1181277 1979909 L1181277 1737171 "/>
<path d="M1181277 1735926 L1041858 1735926 "/>
<path d="M1041858 1739660 L1041858 1982398 "/>
<path d="M1241028 1982398 L1380446 1982398 "/>
<path d="M1241028 1739660 L1241028 1982398 "/>
<path d="M1380446 1979909 L1380446 1737171 "/>
<path d="M1380446 1735926 L1241028 1735926 "/>
</g>
<g style="fill:#000084; fill-opacity:0.0;  stroke:#000084; stroke-width:4900.828355; stroke-opacity:1;  stroke-linecap:round; stroke-linejoin:round;">
<path d="M428784 559757 L350371 559757 "/>
<path d="M389577 657773 L409181 628368 "/>
<path d="M428784 721484 L428784 559757 "/>
<path d="M409181 628368 L369974 628368 "/>
<path d="M389577 657773 L416532 657773 "/>
<path d="M350371 721484 L428784 721484 "/>
<path d="M389577 628368 L389577 603864 "/>
<path d="M350371 559757 L350371 721484 "/>
<path d="M389577 657773 L362623 657773 "/>
<path d="M369974 628368 L389577 657773 "/>
<path d="M389577 677377 L389577 657773 "/>
<path d="M1846496 590240 L1846496 688256 "/>
<path d="M1846496 688256 L1907756 688256 "/>
<path d="M1907756 688256 L1907756 590240 "/>
<path d="M1907756 590240 L1846496 590240 "/>
<path d="M1746911 625393 L1808171 625393 "/>
<path d="M1808171 527377 L1746911 527377 "/>
<path d="M1746911 527377 L1746911 625393 "/>
<path d="M1808171 625393 L1808171 527377 "/>
<path d="M1351118 819449 L1281810 888757 "/>
<path d="M1281810 888757 L1325128 932075 "/>
<path d="M1325128 932075 L1394436 862767 "/>
<path d="M1394436 862767 L1351118 819449 "/>
</g>
<g style="fill:#000084; fill-opacity:0.0;  stroke:#000084; stroke-width:7351.242533; stroke-opacity:1;  stroke-linecap:round; stroke-linejoin:round;">
<path d="M776829 1241888 L776829 1248994 "/>
<path d="M573445 1241888 L776829 1241888 "/>
<path d="M573445 1494281 L573445 1487175 "/>
<path d="M776829 1494281 L776829 1487175 "/>
<path d="M776829 1241888 L776829 1248994 "/>
<path d="M573445 1487175 L504833 1487175 "/>
<path d="M573062 1494281 L776447 1494281 "/>
<path d="M573445 1241888 L573445 1248994 "/>
</g>
<g style="fill:#000084; fill-opacity:0.0;  stroke:#000084; stroke-width:4900.828355; stroke-opacity:1;  stroke-linecap:round; stroke-linejoin:round;">
<path d="M885174 1180251 L983190 1180251 "/>
<path d="M983190 1118990 L885174 1118990 "/>
<path d="M983190 1180251 L983190 1118990 "/>
<path d="M885174 1118990 L885174 1180251 "/>
<path d="M2418673 1309261 L2375355 1352579 "/>
<path d="M2375355 1352579 L2444664 1421887 "/>
<path d="M2444664 1421887 L2487981 1378570 "/>
<path d="M2487981 1378570 L2418673 1309261 "/>
<path d="M1414774 1151212 L1371457 1194529 "/>
<path d="M1371457 1194529 L1440765 1263837 "/>
<path d="M1484083 1220520 L1414774 1151212 "/>
<path d="M1440765 1263837 L1484083 1220520 "/>
<path d="M1449859 728327 L1519168 797635 "/>
<path d="M1493177 685010 L1449859 728327 "/>
<path d="M1562485 754318 L1493177 685010 "/>
<path d="M1519168 797635 L1562485 754318 "/>
<path d="M2008586 688256 L2008586 590240 "/>
<path d="M1947325 688256 L2008586 688256 "/>
<path d="M2008586 590240 L1947325 590240 "/>
<path d="M1947325 590240 L1947325 688256 "/>
<g>
</g>
<g>
</g>
<g>
</g>
<g>
</g>
<g>
</g>
<g>
</g>
<g>
</g>
<g>
</g>
<g>
</g>
<g>
</g>
<g>
</g>
<g>
</g>
<g>
</g>
<g>
</g>
<g>
</g>
<g>
</g>
<g>
</g>
<g>
</g>
<g>
</g>
<g>
</g>
<g>
</g>
<g>
</g>
<g>
</g>
<g>
</g>
<g>
</g>
<g>
</g>
<g>
</g>
<g>
</g>
<g>
</g>
<g>
</g>
<g>
</g>
<g>
</g>
<g>
</g>
<g>
</g>
<g>
</g>
<g>
</g>
<g>
</g>
<g>
</g>
<g>
</g>
<g>
</g>
<g>
</g>
<g>
</g>
<g>
</g>
<g>
</g>
<g>
</g>
<g>
</g>
<g>
</g>
<g>
</g>
<g>
</g>
<g>
</g>
<g>
</g>
<g>
</g>
<g>
</g>
<g>
</g>
<g>
</g>
<g>
</g>
<g>
</g>
<g>
</g>
<g>
</g>
<g>
</g>
<g>
</g>
<g>
</g>
<g>
</g>
<g>
</g>
<g>
</g>
<g>
</g>
<g>
</g>
<g>
</g>
<g>
</g>
</g> 
<svg:g><svg:g><svg:title>SVG Picture created as PROGLOG01-Edge_Cuts.svg date 2023/03/03 23:41:37 </svg:title>
  <svg:desc>Picture generated by PCBNEW </svg:desc>
<svg:g style="fill:#C2C200; fill-opacity:1.000000;stroke:#C2C200; stroke-opacity:1.000000; stroke-linecap:round; stroke-linejoin:round;" transform="translate(0 0) scale(1 1)">
</svg:g>
<svg:g style="fill:#C2C200; fill-opacity:0.0;  stroke:#C2C200; stroke-width:0.000000; stroke-opacity:1;  stroke-linecap:round; stroke-linejoin:round;">
</svg:g>
<svg:g style="fill:#C2C200; fill-opacity:0.0;  stroke:#C2C200; stroke-width:7351.242533; stroke-opacity:1;  stroke-linecap:round; stroke-linejoin:round;">
<svg:path d="M2966335 66635 L2966335 2033436 "/>
<svg:path d="M3686 1535512 L3686 2033436 "/>
<svg:path d="M2966335 2033436 L3686 2033436 "/>
<svg:path d="M3686 66635 L2468411 66635 "/>
<svg:path d="M3686 1535512 L3686 66635 "/>
<svg:path d="M2468411 66635 L2966335 66635 "/>
<svg:g>
</svg:g>
<svg:g>
</svg:g>
<svg:g>
</svg:g>
<svg:g>
</svg:g>
<svg:g>
</svg:g>
<svg:g>
</svg:g>
<svg:g>
</svg:g>
<svg:g>
</svg:g>
<svg:g>
</svg:g>
<svg:g>
</svg:g>
<svg:g>
</svg:g>
<svg:g>
</svg:g>
<svg:g>
</svg:g>
<svg:g>
</svg:g>
<svg:g>
</svg:g>
<svg:g>
</svg:g>
<svg:g>
</svg:g>
<svg:g>
</svg:g>
<svg:g>
</svg:g>
<svg:g>
</svg:g>
<svg:g>
</svg:g>
<svg:g>
</svg:g>
<svg:g>
</svg:g>
<svg:g>
</svg:g>
<svg:g>
</svg:g>
<svg:g>
</svg:g>
<svg:g>
</svg:g>
<svg:g>
</svg:g>
<svg:g>
</svg:g>
<svg:g>
</svg:g>
<svg:g>
</svg:g>
<svg:g>
</svg:g>
<svg:g>
</svg:g>
<svg:g>
</svg:g>
<svg:g>
</svg:g>
<svg:g>
</svg:g>
<svg:g>
</svg:g>
<svg:g>
</svg:g>
<svg:g>
</svg:g>
<svg:g>
</svg:g>
<svg:g>
</svg:g>
<svg:g>
</svg:g>
<svg:g>
</svg:g>
<svg:g>
</svg:g>
<svg:g>
</svg:g>
<svg:g>
</svg:g>
<svg:g>
</svg:g>
<svg:g>
</svg:g>
<svg:g>
</svg:g>
<svg:g>
</svg:g>
<svg:g>
</svg:g>
<svg:g>
</svg:g>
<svg:g>
</svg:g>
<svg:g>
</svg:g>
<svg:g>
</svg:g>
<svg:g>
</svg:g>
<svg:g>
</svg:g>
<svg:g>
</svg:g>
<svg:g>
</svg:g>
<svg:g>
</svg:g>
<svg:g>
</svg:g>
<svg:g>
</svg:g>
<svg:g>
</svg:g>
<svg:g>
</svg:g>
<svg:g>
</svg:g>
<svg:g>
</svg:g>
<svg:g>
</svg:g>
<svg:g>
</svg:g>
<svg:g>
</svg:g>
</svg:g> 
</svg:g></svg:g></svg>
