<?xml version='1.0' encoding='ASCII' standalone='yes'?>
<svg xmlns:svg="http://www.w3.org/2000/svg" xmlns="http://www.w3.org/2000/svg" xmlns:xlink="http://www.w3.org/1999/xlink" version="1.1" width="297.0022mm" height="210.0072mm" viewBox="0.0000 0.0000 297.0022 210.0072">
<title>SVG Image created as PROGLOG01-F_Fab.svg date 2023/07/05 14:48:21 </title>
  <desc>Image generated by PCBNEW </desc>
<g style="fill:#848484; fill-opacity:1.0000;stroke:#848484; stroke-opacity:1.0000; stroke-linecap:round; stroke-linejoin:round;" transform="translate(0 0) scale(1 1)">
</g>
<g style="fill:#848484; fill-opacity:0.0;  stroke:#848484; stroke-width:0.0000; stroke-opacity:1;  stroke-linecap:round; stroke-linejoin:round;">
</g>
<g style="fill:#848484; fill-opacity:0.01;  stroke:#848484; stroke-width:0.9958; stroke-opacity:1;  stroke-linecap:round; stroke-linejoin:round;">
<text x="225.1814" y="177.2026" textLength="16.6686" font-size="6.6390" lengthAdjust="spacingAndGlyphs" text-anchor="middle" opacity="0.01" style="font-family:monospace">SW1</text>
<g class="stroked-text"><desc>SW1</desc>
<path d="M231.8204 176.7276 L231.1091 176.9647 "/>
<path d="M231.1091 176.9647 L229.9236 176.9647 "/>
<path d="M229.9236 176.9647 L229.4493 176.7276 "/>
<path d="M229.4493 176.7276 L229.2122 176.4905 "/>
<path d="M229.2122 176.4905 L228.9751 176.0163 "/>
<path d="M228.9751 176.0163 L228.9751 175.5420 "/>
<path d="M228.9751 175.5420 L229.2122 175.0678 "/>
<path d="M229.2122 175.0678 L229.4493 174.8307 "/>
<path d="M229.4493 174.8307 L229.9236 174.5936 "/>
<path d="M229.9236 174.5936 L230.8720 174.3565 "/>
<path d="M230.8720 174.3565 L231.3462 174.1194 "/>
<path d="M231.3462 174.1194 L231.5833 173.8823 "/>
<path d="M231.5833 173.8823 L231.8204 173.4081 "/>
<path d="M231.8204 173.4081 L231.8204 172.9339 "/>
<path d="M231.8204 172.9339 L231.5833 172.4597 "/>
<path d="M231.5833 172.4597 L231.3462 172.2225 "/>
<path d="M231.3462 172.2225 L230.8720 171.9854 "/>
<path d="M230.8720 171.9854 L229.6865 171.9854 "/>
<path d="M229.6865 171.9854 L228.9751 172.2225 "/>
<path d="M227.3154 171.9854 L226.1299 176.9647 "/>
<path d="M226.1299 176.9647 L225.1814 173.4081 "/>
<path d="M225.1814 173.4081 L224.2330 176.9647 "/>
<path d="M224.2330 176.9647 L223.0475 171.9854 "/>
<path d="M218.5424 176.9647 L221.3877 176.9647 "/>
<path d="M219.9651 176.9647 L219.9651 171.9854 "/>
<path d="M219.9651 171.9854 L220.4393 172.6968 "/>
<path d="M220.4393 172.6968 L220.9135 173.1710 "/>
<path d="M220.9135 173.1710 L221.3877 173.4081 "/>
</g></g>
<g style="fill:#848484; fill-opacity:0.01;  stroke:#848484; stroke-width:0.7351; stroke-opacity:1;  stroke-linecap:round; stroke-linejoin:round;">
<text x="207.0072" y="33.3878" textLength="13.9265" font-size="6.5344" lengthAdjust="spacingAndGlyphs" text-anchor="middle" opacity="0.01" style="font-family:monospace">J26</text>
<g class="stroked-text"><desc>J26</desc>
<path d="M210.9745 28.2655 L210.9745 31.7661 "/>
<path d="M210.9745 31.7661 L211.2079 32.4662 "/>
<path d="M211.2079 32.4662 L211.6746 32.9330 "/>
<path d="M211.6746 32.9330 L212.3748 33.1664 "/>
<path d="M212.3748 33.1664 L212.8415 33.1664 "/>
<path d="M208.8742 28.7323 L208.6408 28.4989 "/>
<path d="M208.6408 28.4989 L208.1741 28.2655 "/>
<path d="M208.1741 28.2655 L207.0072 28.2655 "/>
<path d="M207.0072 28.2655 L206.5404 28.4989 "/>
<path d="M206.5404 28.4989 L206.3071 28.7323 "/>
<path d="M206.3071 28.7323 L206.0737 29.1990 "/>
<path d="M206.0737 29.1990 L206.0737 29.6658 "/>
<path d="M206.0737 29.6658 L206.3071 30.3659 "/>
<path d="M206.3071 30.3659 L209.1075 33.1664 "/>
<path d="M209.1075 33.1664 L206.0737 33.1664 "/>
<path d="M201.8730 28.2655 L202.8065 28.2655 "/>
<path d="M202.8065 28.2655 L203.2732 28.4989 "/>
<path d="M203.2732 28.4989 L203.5066 28.7323 "/>
<path d="M203.5066 28.7323 L203.9733 29.4324 "/>
<path d="M203.9733 29.4324 L204.2067 30.3659 "/>
<path d="M204.2067 30.3659 L204.2067 32.2329 "/>
<path d="M204.2067 32.2329 L203.9733 32.6996 "/>
<path d="M203.9733 32.6996 L203.7400 32.9330 "/>
<path d="M203.7400 32.9330 L203.2732 33.1664 "/>
<path d="M203.2732 33.1664 L202.3397 33.1664 "/>
<path d="M202.3397 33.1664 L201.8730 32.9330 "/>
<path d="M201.8730 32.9330 L201.6396 32.6996 "/>
<path d="M201.6396 32.6996 L201.4062 32.2329 "/>
<path d="M201.4062 32.2329 L201.4062 31.0660 "/>
<path d="M201.4062 31.0660 L201.6396 30.5993 "/>
<path d="M201.6396 30.5993 L201.8730 30.3659 "/>
<path d="M201.8730 30.3659 L202.3397 30.1325 "/>
<path d="M202.3397 30.1325 L203.2732 30.1325 "/>
<path d="M203.2732 30.1325 L203.7400 30.3659 "/>
<path d="M203.7400 30.3659 L203.9733 30.5993 "/>
<path d="M203.9733 30.5993 L204.2067 31.0660 "/>
</g><g transform="rotate(-270.000000 186.0944 175.9578)">
<text x="186.0944" y="178.4082" textLength="5.7585" font-size="6.5344" lengthAdjust="spacingAndGlyphs" text-anchor="middle" opacity="0.01" style="font-family:monospace">K</text>
</g>
<g class="stroked-text"><desc>K</desc>
<path d="M188.3234 174.6742 L183.4225 174.6742 "/>
<path d="M188.3234 177.4747 L185.5229 175.3744 "/>
<path d="M183.4225 177.4747 L186.2230 174.6742 "/>
</g><g transform="rotate(-270.000000 166.1774 175.9578)">
<text x="166.1774" y="178.4082" textLength="5.7585" font-size="6.5344" lengthAdjust="spacingAndGlyphs" text-anchor="middle" opacity="0.01" style="font-family:monospace">K</text>
</g>
<g class="stroked-text"><desc>K</desc>
<path d="M168.4064 174.6742 L163.5056 174.6742 "/>
<path d="M168.4064 177.4747 L165.6059 175.3744 "/>
<path d="M163.5056 177.4747 L166.3060 174.6742 "/>
</g><path d="M72.5677 36.5390 L72.5677 11.6428 "/>
<path d="M72.5677 11.6428 L60.1196 11.6428 "/>
<path d="M60.1196 36.5390 L72.5677 36.5390 "/>
<path d="M60.1196 11.6428 L60.1196 36.5390 "/>
<path d="M97.4639 36.5390 L97.4639 11.6428 "/>
<path d="M97.4639 11.6428 L85.0158 11.6428 "/>
<path d="M85.0158 11.6428 L85.0158 36.5390 "/>
<path d="M85.0158 36.5390 L97.4639 36.5390 "/>
<path d="M266.7581 53.9664 L266.7581 91.3107 "/>
<path d="M266.7581 91.3107 L291.6543 91.3107 "/>
<path d="M291.6543 91.3107 L291.6543 53.9664 "/>
<path d="M291.6543 53.9664 L266.7581 53.9664 "/>
<path d="M109.9120 36.5390 L122.3601 36.5390 "/>
<path d="M122.3601 36.5390 L122.3601 11.6428 "/>
<path d="M122.3601 11.6428 L109.9120 11.6428 "/>
<path d="M109.9120 11.6428 L109.9120 36.5390 "/>
<path d="M47.6715 36.5390 L60.1196 36.5390 "/>
<path d="M60.1196 36.5390 L60.1196 11.6428 "/>
<path d="M60.1196 11.6428 L47.6715 11.6428 "/>
<path d="M47.6715 11.6428 L47.6715 36.5390 "/>
<path d="M5.3479 67.6593 L30.2441 67.6593 "/>
<path d="M30.2441 67.6593 L30.2441 55.2112 "/>
<path d="M30.2441 55.2112 L5.3479 55.2112 "/>
<path d="M5.3479 55.2112 L5.3479 67.6593 "/>
<path d="M134.8082 36.5390 L147.2563 36.5390 "/>
<path d="M134.8082 11.6428 L134.8082 36.5390 "/>
<path d="M147.2563 11.6428 L134.8082 11.6428 "/>
<path d="M147.2563 36.5390 L147.2563 11.6428 "/>
<path d="M97.4639 198.3644 L97.4639 173.4682 "/>
<path d="M85.0158 173.4682 L85.0158 198.3644 "/>
<path d="M97.4639 173.4682 L85.0158 173.4682 "/>
<path d="M85.0158 198.3644 L97.4639 198.3644 "/>
<path d="M97.4639 36.5390 L109.9120 36.5390 "/>
<path d="M109.9120 11.6428 L97.4639 11.6428 "/>
<path d="M109.9120 36.5390 L109.9120 11.6428 "/>
<path d="M97.4639 11.6428 L97.4639 36.5390 "/>
</g>
<g style="fill:#848484; fill-opacity:0.0;  stroke:#848484; stroke-width:1.8672; stroke-opacity:1;  stroke-linecap:round; stroke-linejoin:round;">
<circle cx="272.9821" cy="179.6922" r="14.7012"/> 
</g>
<g style="fill:#848484; fill-opacity:0.0;  stroke:#848484; stroke-width:0.7351; stroke-opacity:1;  stroke-linecap:round; stroke-linejoin:round;">
<path d="M85.0158 173.4682 L72.5677 173.4682 "/>
<path d="M72.5677 173.4682 L72.5677 198.3644 "/>
<path d="M72.5677 198.3644 L85.0158 198.3644 "/>
<path d="M85.0158 198.3644 L85.0158 173.4682 "/>
</g>
<g style="fill:#848484; fill-opacity:0.0;  stroke:#848484; stroke-width:0.5881; stroke-opacity:1;  stroke-linecap:round; stroke-linejoin:round;">
<path d="M243.8046 197.1196 L206.5093 197.1196 "/>
<path d="M243.8046 194.1301 L243.8046 197.1196 "/>
<path d="M206.5583 159.8243 L206.5583 162.2747 "/>
<path d="M206.5093 197.1196 L206.5056 194.1464 "/>
<path d="M206.5583 159.8243 L206.5583 162.2747 "/>
<path d="M243.8046 159.8243 L206.5583 159.8243 "/>
<path d="M243.8046 172.0763 L243.8046 184.8185 "/>
<path d="M243.8046 162.7648 L243.8046 159.8243 "/>
<path d="M206.5583 172.0763 L206.5583 184.8185 "/>
</g>
<g style="fill:#848484; fill-opacity:0.0;  stroke:#848484; stroke-width:0.6224; stroke-opacity:1;  stroke-linecap:round; stroke-linejoin:round;">
<circle cx="225.1814" cy="178.4474" r="12.4481"/> 
</g>
<g style="fill:#848484; fill-opacity:0.0;  stroke:#848484; stroke-width:0.7351; stroke-opacity:1;  stroke-linecap:round; stroke-linejoin:round;">
<path d="M30.2441 105.0036 L30.2441 92.5555 "/>
<path d="M5.3479 105.0036 L30.2441 105.0036 "/>
<path d="M5.3479 92.5555 L5.3479 105.0036 "/>
<path d="M30.2441 92.5555 L5.3479 92.5555 "/>
<path d="M5.3479 80.1074 L5.3479 92.5555 "/>
<path d="M30.2441 80.1074 L5.3479 80.1074 "/>
<path d="M30.2441 92.5555 L30.2441 80.1074 "/>
<path d="M5.3479 92.5555 L30.2441 92.5555 "/>
<path d="M5.3479 117.4517 L30.2441 117.4517 "/>
<path d="M30.2441 105.0036 L5.3479 105.0036 "/>
<path d="M5.3479 105.0036 L5.3479 117.4517 "/>
<path d="M30.2441 117.4517 L30.2441 105.0036 "/>
<path d="M85.0158 36.5390 L85.0158 11.6428 "/>
<path d="M72.5677 11.6428 L72.5677 36.5390 "/>
<path d="M72.5677 36.5390 L85.0158 36.5390 "/>
<path d="M85.0158 11.6428 L72.5677 11.6428 "/>
<path d="M30.2441 129.8998 L30.2441 117.4517 "/>
<path d="M5.3479 129.8998 L30.2441 129.8998 "/>
<path d="M5.3479 117.4517 L5.3479 129.8998 "/>
<path d="M30.2441 117.4517 L5.3479 117.4517 "/>
<path d="M30.2441 142.3479 L30.2441 129.8998 "/>
<path d="M5.3479 142.3479 L30.2441 142.3479 "/>
<path d="M30.2441 129.8998 L5.3479 129.8998 "/>
<path d="M5.3479 129.8998 L5.3479 142.3479 "/>
<path d="M97.4639 198.3644 L109.9120 198.3644 "/>
<path d="M97.4639 173.4682 L97.4639 198.3644 "/>
<path d="M109.9120 198.3644 L109.9120 173.4682 "/>
<path d="M109.9120 173.4682 L97.4639 173.4682 "/>
</g>
<g style="fill:#848484; fill-opacity:0.0;  stroke:#848484; stroke-width:1.8672; stroke-opacity:1;  stroke-linecap:round; stroke-linejoin:round;">
<circle cx="24.0201" cy="30.3150" r="14.7012"/> 
<circle cx="24.0201" cy="179.6922" r="14.7012"/> 
</g>
<g style="fill:#848484; fill-opacity:0.0;  stroke:#848484; stroke-width:0.7351; stroke-opacity:1;  stroke-linecap:round; stroke-linejoin:round;">
<path d="M216.9657 109.9828 L216.9657 85.0866 "/>
<path d="M216.9657 85.0866 L204.5176 85.0866 "/>
<path d="M204.5176 85.0866 L204.5176 109.9828 "/>
<path d="M204.5176 109.9828 L216.9657 109.9828 "/>
<path d="M47.6715 173.4682 L47.6715 198.3644 "/>
<path d="M47.6715 198.3644 L60.1196 198.3644 "/>
<path d="M60.1196 173.4682 L47.6715 173.4682 "/>
<path d="M60.1196 198.3644 L60.1196 173.4682 "/>
<path d="M30.2441 142.3479 L5.3479 142.3479 "/>
<path d="M5.3479 154.7960 L30.2441 154.7960 "/>
<path d="M5.3479 142.3479 L5.3479 154.7960 "/>
<path d="M30.2441 154.7960 L30.2441 142.3479 "/>
<path d="M189.5798 142.3479 L189.5798 129.8998 "/>
<path d="M164.6836 129.8998 L164.6836 142.3479 "/>
<path d="M164.6836 142.3479 L189.5798 142.3479 "/>
<path d="M189.5798 129.8998 L164.6836 129.8998 "/>
<path d="M147.2563 173.4682 L134.8082 173.4682 "/>
<path d="M134.8082 173.4682 L134.8082 198.3644 "/>
<path d="M134.8082 198.3644 L147.2563 198.3644 "/>
<path d="M147.2563 198.3644 L147.2563 173.4682 "/>
<path d="M164.6836 154.7960 L189.5798 154.7960 "/>
<path d="M164.6836 142.3479 L164.6836 154.7960 "/>
<path d="M189.5798 142.3479 L164.6836 142.3479 "/>
<path d="M189.5798 154.7960 L189.5798 142.3479 "/>
<path d="M159.7044 36.5390 L159.7044 11.6428 "/>
<path d="M159.7044 11.6428 L147.2563 11.6428 "/>
<path d="M147.2563 11.6428 L147.2563 36.5390 "/>
<path d="M147.2563 36.5390 L159.7044 36.5390 "/>
<path d="M5.3479 67.6593 L5.3479 80.1074 "/>
<path d="M30.2441 80.1074 L30.2441 67.6593 "/>
<path d="M30.2441 67.6593 L5.3479 67.6593 "/>
<path d="M5.3479 80.1074 L30.2441 80.1074 "/>
<path d="M60.1196 198.3644 L72.5677 198.3644 "/>
<path d="M72.5677 198.3644 L72.5677 173.4682 "/>
<path d="M60.1196 173.4682 L60.1196 198.3644 "/>
<path d="M72.5677 173.4682 L60.1196 173.4682 "/>
<path d="M122.3601 36.5390 L134.8082 36.5390 "/>
<path d="M122.3601 11.6428 L122.3601 36.5390 "/>
<path d="M134.8082 36.5390 L134.8082 11.6428 "/>
<path d="M134.8082 11.6428 L122.3601 11.6428 "/>
<path d="M109.9120 173.4682 L109.9120 198.3644 "/>
<path d="M109.9120 198.3644 L122.3601 198.3644 "/>
<path d="M122.3601 198.3644 L122.3601 173.4682 "/>
<path d="M122.3601 173.4682 L109.9120 173.4682 "/>
<path d="M134.8082 198.3644 L134.8082 173.4682 "/>
<path d="M134.8082 173.4682 L122.3601 173.4682 "/>
<path d="M122.3601 173.4682 L122.3601 198.3644 "/>
<path d="M122.3601 198.3644 L134.8082 198.3644 "/>
</g>
<g style="fill:#848484; fill-opacity:0.0;  stroke:#848484; stroke-width:0.4901; stroke-opacity:1;  stroke-linecap:round; stroke-linejoin:round;">
<path d="M248.0859 11.0204 L248.0859 36.5390 "/>
<path d="M165.9284 36.5390 L165.9284 11.0204 "/>
<path d="M165.9284 11.0204 L248.0859 11.0204 "/>
<path d="M248.0859 36.5390 L165.9284 36.5390 "/>
</g>
<g style="fill:#848484; fill-opacity:0.0;  stroke:#848484; stroke-width:1.8672; stroke-opacity:1;  stroke-linecap:round; stroke-linejoin:round;">
<circle cx="272.9821" cy="30.3150" r="14.7012"/> 
</g>
<g style="fill:#848484; fill-opacity:0.0;  stroke:#848484; stroke-width:0.7351; stroke-opacity:1;  stroke-linecap:round; stroke-linejoin:round;">
<path d="M189.5798 129.8998 L189.5798 117.4517 "/>
<path d="M189.5798 117.4517 L164.6836 117.4517 "/>
<path d="M164.6836 117.4517 L164.6836 129.8998 "/>
<path d="M164.6836 129.8998 L189.5798 129.8998 "/>
<g>
</g>
<g>
</g>
<g>
</g>
<g>
</g>
<g>
</g>
<g>
</g>
<g>
</g>
<g>
</g>
<g>
</g>
<g>
</g>
<g>
</g>
<g>
</g>
<g>
</g>
<g>
</g>
<g>
</g>
<g>
</g>
<g>
</g>
<g>
</g>
<g>
</g>
<g>
</g>
<g>
</g>
<g>
</g>
<g>
</g>
<g>
</g>
<g>
</g>
<g>
</g>
<g>
</g>
<g>
</g>
<g>
</g>
<g>
</g>
<g>
</g>
<g>
</g>
<g>
</g>
<g>
</g>
<g>
</g>
<g>
</g>
<g>
</g>
<g>
</g>
<g>
</g>
<g>
</g>
<g>
</g>
<g>
</g>
<g>
</g>
<g>
</g>
<g>
</g>
<g>
</g>
<g>
</g>
<g>
</g>
<g>
</g>
<g>
</g>
<g>
</g>
<g>
</g>
<g>
</g>
<g>
</g>
<g>
</g>
<g>
</g>
<g>
</g>
<g>
</g>
<g>
</g>
<g>
</g>
<g>
</g>
<g>
</g>
<g>
</g>
<g>
</g>
<g>
</g>
<g>
</g>
<g>
</g>
<g>
</g>
<g>
</g>
</g> 
<svg:g><svg:g><svg:title>SVG Image created as PROGLOG01-Edge_Cuts.svg date 2023/07/05 14:48:21 </svg:title>
  <svg:desc>Image generated by PCBNEW </svg:desc>
<svg:g style="fill:#C2C200; fill-opacity:1.0000;stroke:#C2C200; stroke-opacity:1.0000; stroke-linecap:round; stroke-linejoin:round;" transform="translate(0 0) scale(1 1)">
</svg:g>
<svg:g style="fill:#C2C200; fill-opacity:0.0;  stroke:#C2C200; stroke-width:0.0000; stroke-opacity:1;  stroke-linecap:round; stroke-linejoin:round;">
</svg:g>
<svg:g style="fill:#C2C200; fill-opacity:0.0;  stroke:#C2C200; stroke-width:0.7351; stroke-opacity:1;  stroke-linecap:round; stroke-linejoin:round;">
<svg:path d="M0.3687 6.6636 L0.3687 203.3436 "/>
<svg:path d="M296.6335 153.5512 L296.6335 203.3436 "/>
<svg:path d="M0.3687 203.3436 L296.6335 203.3436 "/>
<svg:path d="M296.6335 6.6636 L50.1611 6.6636 "/>
<svg:path d="M296.6335 153.5512 L296.6335 6.6636 "/>
<svg:path d="M50.1611 6.6636 L0.3687 6.6636 "/>
<svg:g>
</svg:g>
<svg:g>
</svg:g>
<svg:g>
</svg:g>
<svg:g>
</svg:g>
<svg:g>
</svg:g>
<svg:g>
</svg:g>
<svg:g>
</svg:g>
<svg:g>
</svg:g>
<svg:g>
</svg:g>
<svg:g>
</svg:g>
<svg:g>
</svg:g>
<svg:g>
</svg:g>
<svg:g>
</svg:g>
<svg:g>
</svg:g>
<svg:g>
</svg:g>
<svg:g>
</svg:g>
<svg:g>
</svg:g>
<svg:g>
</svg:g>
<svg:g>
</svg:g>
<svg:g>
</svg:g>
<svg:g>
</svg:g>
<svg:g>
</svg:g>
<svg:g>
</svg:g>
<svg:g>
</svg:g>
<svg:g>
</svg:g>
<svg:g>
</svg:g>
<svg:g>
</svg:g>
<svg:g>
</svg:g>
<svg:g>
</svg:g>
<svg:g>
</svg:g>
<svg:g>
</svg:g>
<svg:g>
</svg:g>
<svg:g>
</svg:g>
<svg:g>
</svg:g>
<svg:g>
</svg:g>
<svg:g>
</svg:g>
<svg:g>
</svg:g>
<svg:g>
</svg:g>
<svg:g>
</svg:g>
<svg:g>
</svg:g>
<svg:g>
</svg:g>
<svg:g>
</svg:g>
<svg:g>
</svg:g>
<svg:g>
</svg:g>
<svg:g>
</svg:g>
<svg:g>
</svg:g>
<svg:g>
</svg:g>
<svg:g>
</svg:g>
<svg:g>
</svg:g>
<svg:g>
</svg:g>
<svg:g>
</svg:g>
<svg:g>
</svg:g>
<svg:g>
</svg:g>
<svg:g>
</svg:g>
<svg:g>
</svg:g>
<svg:g>
</svg:g>
<svg:g>
</svg:g>
<svg:g>
</svg:g>
<svg:g>
</svg:g>
<svg:g>
</svg:g>
<svg:g>
</svg:g>
<svg:g>
</svg:g>
<svg:g>
</svg:g>
<svg:g>
</svg:g>
<svg:g>
</svg:g>
<svg:g>
</svg:g>
<svg:g>
</svg:g>
<svg:g>
</svg:g>
<svg:g>
</svg:g>
</svg:g> 
</svg:g></svg:g></svg>
