%TF.GenerationSoftware,KiCad,Pcbnew,7.0.5.1-1-g8f565ef7f0-dirty-deb11*%
%TF.CreationDate,2023-07-05T14:47:30+00:00*%
%TF.ProjectId,PROGLOG01,50524f47-4c4f-4473-9031-2e6b69636164,B*%
%TF.SameCoordinates,Original*%
%TF.FileFunction,Legend,Bot*%
%TF.FilePolarity,Positive*%
%FSLAX46Y46*%
G04 Gerber Fmt 4.6, Leading zero omitted, Abs format (unit mm)*
G04 Created by KiCad (PCBNEW 7.0.5.1-1-g8f565ef7f0-dirty-deb11) date 2023-07-05 14:47:30*
%MOMM*%
%LPD*%
G01*
G04 APERTURE LIST*
%ADD10C,0.150000*%
%ADD11C,0.099060*%
%ADD12C,0.120000*%
G04 APERTURE END LIST*
D10*
%TO.C,U4*%
X204825504Y-126226219D02*
X204825504Y-127035742D01*
X204825504Y-127035742D02*
X204777885Y-127130980D01*
X204777885Y-127130980D02*
X204730266Y-127178600D01*
X204730266Y-127178600D02*
X204635028Y-127226219D01*
X204635028Y-127226219D02*
X204444552Y-127226219D01*
X204444552Y-127226219D02*
X204349314Y-127178600D01*
X204349314Y-127178600D02*
X204301695Y-127130980D01*
X204301695Y-127130980D02*
X204254076Y-127035742D01*
X204254076Y-127035742D02*
X204254076Y-126226219D01*
X203349314Y-126559552D02*
X203349314Y-127226219D01*
X203587409Y-126178600D02*
X203825504Y-126892885D01*
X203825504Y-126892885D02*
X203206457Y-126892885D01*
%TO.C,C3*%
X164765819Y-121019866D02*
X164718200Y-121067485D01*
X164718200Y-121067485D02*
X164670580Y-121210342D01*
X164670580Y-121210342D02*
X164670580Y-121305580D01*
X164670580Y-121305580D02*
X164718200Y-121448437D01*
X164718200Y-121448437D02*
X164813438Y-121543675D01*
X164813438Y-121543675D02*
X164908676Y-121591294D01*
X164908676Y-121591294D02*
X165099152Y-121638913D01*
X165099152Y-121638913D02*
X165242009Y-121638913D01*
X165242009Y-121638913D02*
X165432485Y-121591294D01*
X165432485Y-121591294D02*
X165527723Y-121543675D01*
X165527723Y-121543675D02*
X165622961Y-121448437D01*
X165622961Y-121448437D02*
X165670580Y-121305580D01*
X165670580Y-121305580D02*
X165670580Y-121210342D01*
X165670580Y-121210342D02*
X165622961Y-121067485D01*
X165622961Y-121067485D02*
X165575342Y-121019866D01*
X165670580Y-120686532D02*
X165670580Y-120067485D01*
X165670580Y-120067485D02*
X165289628Y-120400818D01*
X165289628Y-120400818D02*
X165289628Y-120257961D01*
X165289628Y-120257961D02*
X165242009Y-120162723D01*
X165242009Y-120162723D02*
X165194390Y-120115104D01*
X165194390Y-120115104D02*
X165099152Y-120067485D01*
X165099152Y-120067485D02*
X164861057Y-120067485D01*
X164861057Y-120067485D02*
X164765819Y-120115104D01*
X164765819Y-120115104D02*
X164718200Y-120162723D01*
X164718200Y-120162723D02*
X164670580Y-120257961D01*
X164670580Y-120257961D02*
X164670580Y-120543675D01*
X164670580Y-120543675D02*
X164718200Y-120638913D01*
X164718200Y-120638913D02*
X164765819Y-120686532D01*
%TO.C,U1*%
X172782580Y-119405304D02*
X171973057Y-119405304D01*
X171973057Y-119405304D02*
X171877819Y-119357685D01*
X171877819Y-119357685D02*
X171830200Y-119310066D01*
X171830200Y-119310066D02*
X171782580Y-119214828D01*
X171782580Y-119214828D02*
X171782580Y-119024352D01*
X171782580Y-119024352D02*
X171830200Y-118929114D01*
X171830200Y-118929114D02*
X171877819Y-118881495D01*
X171877819Y-118881495D02*
X171973057Y-118833876D01*
X171973057Y-118833876D02*
X172782580Y-118833876D01*
X171782580Y-117833876D02*
X171782580Y-118405304D01*
X171782580Y-118119590D02*
X172782580Y-118119590D01*
X172782580Y-118119590D02*
X172639723Y-118214828D01*
X172639723Y-118214828D02*
X172544485Y-118310066D01*
X172544485Y-118310066D02*
X172496866Y-118405304D01*
%TO.C,U2*%
X171551504Y-110732219D02*
X171551504Y-111541742D01*
X171551504Y-111541742D02*
X171503885Y-111636980D01*
X171503885Y-111636980D02*
X171456266Y-111684600D01*
X171456266Y-111684600D02*
X171361028Y-111732219D01*
X171361028Y-111732219D02*
X171170552Y-111732219D01*
X171170552Y-111732219D02*
X171075314Y-111684600D01*
X171075314Y-111684600D02*
X171027695Y-111636980D01*
X171027695Y-111636980D02*
X170980076Y-111541742D01*
X170980076Y-111541742D02*
X170980076Y-110732219D01*
X170551504Y-110827457D02*
X170503885Y-110779838D01*
X170503885Y-110779838D02*
X170408647Y-110732219D01*
X170408647Y-110732219D02*
X170170552Y-110732219D01*
X170170552Y-110732219D02*
X170075314Y-110779838D01*
X170075314Y-110779838D02*
X170027695Y-110827457D01*
X170027695Y-110827457D02*
X169980076Y-110922695D01*
X169980076Y-110922695D02*
X169980076Y-111017933D01*
X169980076Y-111017933D02*
X170027695Y-111160790D01*
X170027695Y-111160790D02*
X170599123Y-111732219D01*
X170599123Y-111732219D02*
X169980076Y-111732219D01*
%TO.C,C4*%
X174294419Y-114022166D02*
X174246800Y-114069785D01*
X174246800Y-114069785D02*
X174199180Y-114212642D01*
X174199180Y-114212642D02*
X174199180Y-114307880D01*
X174199180Y-114307880D02*
X174246800Y-114450737D01*
X174246800Y-114450737D02*
X174342038Y-114545975D01*
X174342038Y-114545975D02*
X174437276Y-114593594D01*
X174437276Y-114593594D02*
X174627752Y-114641213D01*
X174627752Y-114641213D02*
X174770609Y-114641213D01*
X174770609Y-114641213D02*
X174961085Y-114593594D01*
X174961085Y-114593594D02*
X175056323Y-114545975D01*
X175056323Y-114545975D02*
X175151561Y-114450737D01*
X175151561Y-114450737D02*
X175199180Y-114307880D01*
X175199180Y-114307880D02*
X175199180Y-114212642D01*
X175199180Y-114212642D02*
X175151561Y-114069785D01*
X175151561Y-114069785D02*
X175103942Y-114022166D01*
X174865847Y-113165023D02*
X174199180Y-113165023D01*
X175246800Y-113403118D02*
X174532514Y-113641213D01*
X174532514Y-113641213D02*
X174532514Y-113022166D01*
%TO.C,R3*%
X177331666Y-111579819D02*
X177664999Y-111103628D01*
X177903094Y-111579819D02*
X177903094Y-110579819D01*
X177903094Y-110579819D02*
X177522142Y-110579819D01*
X177522142Y-110579819D02*
X177426904Y-110627438D01*
X177426904Y-110627438D02*
X177379285Y-110675057D01*
X177379285Y-110675057D02*
X177331666Y-110770295D01*
X177331666Y-110770295D02*
X177331666Y-110913152D01*
X177331666Y-110913152D02*
X177379285Y-111008390D01*
X177379285Y-111008390D02*
X177426904Y-111056009D01*
X177426904Y-111056009D02*
X177522142Y-111103628D01*
X177522142Y-111103628D02*
X177903094Y-111103628D01*
X176998332Y-110579819D02*
X176379285Y-110579819D01*
X176379285Y-110579819D02*
X176712618Y-110960771D01*
X176712618Y-110960771D02*
X176569761Y-110960771D01*
X176569761Y-110960771D02*
X176474523Y-111008390D01*
X176474523Y-111008390D02*
X176426904Y-111056009D01*
X176426904Y-111056009D02*
X176379285Y-111151247D01*
X176379285Y-111151247D02*
X176379285Y-111389342D01*
X176379285Y-111389342D02*
X176426904Y-111484580D01*
X176426904Y-111484580D02*
X176474523Y-111532200D01*
X176474523Y-111532200D02*
X176569761Y-111579819D01*
X176569761Y-111579819D02*
X176855475Y-111579819D01*
X176855475Y-111579819D02*
X176950713Y-111532200D01*
X176950713Y-111532200D02*
X176998332Y-111484580D01*
%TO.C,R2*%
X177331666Y-117599619D02*
X177664999Y-117123428D01*
X177903094Y-117599619D02*
X177903094Y-116599619D01*
X177903094Y-116599619D02*
X177522142Y-116599619D01*
X177522142Y-116599619D02*
X177426904Y-116647238D01*
X177426904Y-116647238D02*
X177379285Y-116694857D01*
X177379285Y-116694857D02*
X177331666Y-116790095D01*
X177331666Y-116790095D02*
X177331666Y-116932952D01*
X177331666Y-116932952D02*
X177379285Y-117028190D01*
X177379285Y-117028190D02*
X177426904Y-117075809D01*
X177426904Y-117075809D02*
X177522142Y-117123428D01*
X177522142Y-117123428D02*
X177903094Y-117123428D01*
X176950713Y-116694857D02*
X176903094Y-116647238D01*
X176903094Y-116647238D02*
X176807856Y-116599619D01*
X176807856Y-116599619D02*
X176569761Y-116599619D01*
X176569761Y-116599619D02*
X176474523Y-116647238D01*
X176474523Y-116647238D02*
X176426904Y-116694857D01*
X176426904Y-116694857D02*
X176379285Y-116790095D01*
X176379285Y-116790095D02*
X176379285Y-116885333D01*
X176379285Y-116885333D02*
X176426904Y-117028190D01*
X176426904Y-117028190D02*
X176998332Y-117599619D01*
X176998332Y-117599619D02*
X176379285Y-117599619D01*
%TO.C,R8*%
X183859466Y-110513019D02*
X184192799Y-110036828D01*
X184430894Y-110513019D02*
X184430894Y-109513019D01*
X184430894Y-109513019D02*
X184049942Y-109513019D01*
X184049942Y-109513019D02*
X183954704Y-109560638D01*
X183954704Y-109560638D02*
X183907085Y-109608257D01*
X183907085Y-109608257D02*
X183859466Y-109703495D01*
X183859466Y-109703495D02*
X183859466Y-109846352D01*
X183859466Y-109846352D02*
X183907085Y-109941590D01*
X183907085Y-109941590D02*
X183954704Y-109989209D01*
X183954704Y-109989209D02*
X184049942Y-110036828D01*
X184049942Y-110036828D02*
X184430894Y-110036828D01*
X183288037Y-109941590D02*
X183383275Y-109893971D01*
X183383275Y-109893971D02*
X183430894Y-109846352D01*
X183430894Y-109846352D02*
X183478513Y-109751114D01*
X183478513Y-109751114D02*
X183478513Y-109703495D01*
X183478513Y-109703495D02*
X183430894Y-109608257D01*
X183430894Y-109608257D02*
X183383275Y-109560638D01*
X183383275Y-109560638D02*
X183288037Y-109513019D01*
X183288037Y-109513019D02*
X183097561Y-109513019D01*
X183097561Y-109513019D02*
X183002323Y-109560638D01*
X183002323Y-109560638D02*
X182954704Y-109608257D01*
X182954704Y-109608257D02*
X182907085Y-109703495D01*
X182907085Y-109703495D02*
X182907085Y-109751114D01*
X182907085Y-109751114D02*
X182954704Y-109846352D01*
X182954704Y-109846352D02*
X183002323Y-109893971D01*
X183002323Y-109893971D02*
X183097561Y-109941590D01*
X183097561Y-109941590D02*
X183288037Y-109941590D01*
X183288037Y-109941590D02*
X183383275Y-109989209D01*
X183383275Y-109989209D02*
X183430894Y-110036828D01*
X183430894Y-110036828D02*
X183478513Y-110132066D01*
X183478513Y-110132066D02*
X183478513Y-110322542D01*
X183478513Y-110322542D02*
X183430894Y-110417780D01*
X183430894Y-110417780D02*
X183383275Y-110465400D01*
X183383275Y-110465400D02*
X183288037Y-110513019D01*
X183288037Y-110513019D02*
X183097561Y-110513019D01*
X183097561Y-110513019D02*
X183002323Y-110465400D01*
X183002323Y-110465400D02*
X182954704Y-110417780D01*
X182954704Y-110417780D02*
X182907085Y-110322542D01*
X182907085Y-110322542D02*
X182907085Y-110132066D01*
X182907085Y-110132066D02*
X182954704Y-110036828D01*
X182954704Y-110036828D02*
X183002323Y-109989209D01*
X183002323Y-109989209D02*
X183097561Y-109941590D01*
%TO.C,R10*%
X207445180Y-113672857D02*
X207921371Y-114006190D01*
X207445180Y-114244285D02*
X208445180Y-114244285D01*
X208445180Y-114244285D02*
X208445180Y-113863333D01*
X208445180Y-113863333D02*
X208397561Y-113768095D01*
X208397561Y-113768095D02*
X208349942Y-113720476D01*
X208349942Y-113720476D02*
X208254704Y-113672857D01*
X208254704Y-113672857D02*
X208111847Y-113672857D01*
X208111847Y-113672857D02*
X208016609Y-113720476D01*
X208016609Y-113720476D02*
X207968990Y-113768095D01*
X207968990Y-113768095D02*
X207921371Y-113863333D01*
X207921371Y-113863333D02*
X207921371Y-114244285D01*
X207445180Y-112720476D02*
X207445180Y-113291904D01*
X207445180Y-113006190D02*
X208445180Y-113006190D01*
X208445180Y-113006190D02*
X208302323Y-113101428D01*
X208302323Y-113101428D02*
X208207085Y-113196666D01*
X208207085Y-113196666D02*
X208159466Y-113291904D01*
X208445180Y-112101428D02*
X208445180Y-112006190D01*
X208445180Y-112006190D02*
X208397561Y-111910952D01*
X208397561Y-111910952D02*
X208349942Y-111863333D01*
X208349942Y-111863333D02*
X208254704Y-111815714D01*
X208254704Y-111815714D02*
X208064228Y-111768095D01*
X208064228Y-111768095D02*
X207826133Y-111768095D01*
X207826133Y-111768095D02*
X207635657Y-111815714D01*
X207635657Y-111815714D02*
X207540419Y-111863333D01*
X207540419Y-111863333D02*
X207492800Y-111910952D01*
X207492800Y-111910952D02*
X207445180Y-112006190D01*
X207445180Y-112006190D02*
X207445180Y-112101428D01*
X207445180Y-112101428D02*
X207492800Y-112196666D01*
X207492800Y-112196666D02*
X207540419Y-112244285D01*
X207540419Y-112244285D02*
X207635657Y-112291904D01*
X207635657Y-112291904D02*
X207826133Y-112339523D01*
X207826133Y-112339523D02*
X208064228Y-112339523D01*
X208064228Y-112339523D02*
X208254704Y-112291904D01*
X208254704Y-112291904D02*
X208349942Y-112244285D01*
X208349942Y-112244285D02*
X208397561Y-112196666D01*
X208397561Y-112196666D02*
X208445180Y-112101428D01*
%TO.C,R9*%
X193778166Y-132152819D02*
X194111499Y-131676628D01*
X194349594Y-132152819D02*
X194349594Y-131152819D01*
X194349594Y-131152819D02*
X193968642Y-131152819D01*
X193968642Y-131152819D02*
X193873404Y-131200438D01*
X193873404Y-131200438D02*
X193825785Y-131248057D01*
X193825785Y-131248057D02*
X193778166Y-131343295D01*
X193778166Y-131343295D02*
X193778166Y-131486152D01*
X193778166Y-131486152D02*
X193825785Y-131581390D01*
X193825785Y-131581390D02*
X193873404Y-131629009D01*
X193873404Y-131629009D02*
X193968642Y-131676628D01*
X193968642Y-131676628D02*
X194349594Y-131676628D01*
X193301975Y-132152819D02*
X193111499Y-132152819D01*
X193111499Y-132152819D02*
X193016261Y-132105200D01*
X193016261Y-132105200D02*
X192968642Y-132057580D01*
X192968642Y-132057580D02*
X192873404Y-131914723D01*
X192873404Y-131914723D02*
X192825785Y-131724247D01*
X192825785Y-131724247D02*
X192825785Y-131343295D01*
X192825785Y-131343295D02*
X192873404Y-131248057D01*
X192873404Y-131248057D02*
X192921023Y-131200438D01*
X192921023Y-131200438D02*
X193016261Y-131152819D01*
X193016261Y-131152819D02*
X193206737Y-131152819D01*
X193206737Y-131152819D02*
X193301975Y-131200438D01*
X193301975Y-131200438D02*
X193349594Y-131248057D01*
X193349594Y-131248057D02*
X193397213Y-131343295D01*
X193397213Y-131343295D02*
X193397213Y-131581390D01*
X193397213Y-131581390D02*
X193349594Y-131676628D01*
X193349594Y-131676628D02*
X193301975Y-131724247D01*
X193301975Y-131724247D02*
X193206737Y-131771866D01*
X193206737Y-131771866D02*
X193016261Y-131771866D01*
X193016261Y-131771866D02*
X192921023Y-131724247D01*
X192921023Y-131724247D02*
X192873404Y-131676628D01*
X192873404Y-131676628D02*
X192825785Y-131581390D01*
%TO.C,R5*%
X167769380Y-123026466D02*
X168245571Y-123359799D01*
X167769380Y-123597894D02*
X168769380Y-123597894D01*
X168769380Y-123597894D02*
X168769380Y-123216942D01*
X168769380Y-123216942D02*
X168721761Y-123121704D01*
X168721761Y-123121704D02*
X168674142Y-123074085D01*
X168674142Y-123074085D02*
X168578904Y-123026466D01*
X168578904Y-123026466D02*
X168436047Y-123026466D01*
X168436047Y-123026466D02*
X168340809Y-123074085D01*
X168340809Y-123074085D02*
X168293190Y-123121704D01*
X168293190Y-123121704D02*
X168245571Y-123216942D01*
X168245571Y-123216942D02*
X168245571Y-123597894D01*
X168769380Y-122121704D02*
X168769380Y-122597894D01*
X168769380Y-122597894D02*
X168293190Y-122645513D01*
X168293190Y-122645513D02*
X168340809Y-122597894D01*
X168340809Y-122597894D02*
X168388428Y-122502656D01*
X168388428Y-122502656D02*
X168388428Y-122264561D01*
X168388428Y-122264561D02*
X168340809Y-122169323D01*
X168340809Y-122169323D02*
X168293190Y-122121704D01*
X168293190Y-122121704D02*
X168197952Y-122074085D01*
X168197952Y-122074085D02*
X167959857Y-122074085D01*
X167959857Y-122074085D02*
X167864619Y-122121704D01*
X167864619Y-122121704D02*
X167817000Y-122169323D01*
X167817000Y-122169323D02*
X167769380Y-122264561D01*
X167769380Y-122264561D02*
X167769380Y-122502656D01*
X167769380Y-122502656D02*
X167817000Y-122597894D01*
X167817000Y-122597894D02*
X167864619Y-122645513D01*
%TO.C,X1*%
X191513169Y-120604617D02*
X190334658Y-120840319D01*
X191041765Y-120133213D02*
X190806063Y-121311724D01*
X189694895Y-120200556D02*
X190098956Y-120604617D01*
X189896925Y-120402587D02*
X190604032Y-119695480D01*
X190604032Y-119695480D02*
X190570360Y-119863839D01*
X190570360Y-119863839D02*
X190570360Y-119998526D01*
X190570360Y-119998526D02*
X190604032Y-120099541D01*
X189691700Y-125776298D02*
X189523342Y-125944657D01*
X189759044Y-126045672D02*
X189523342Y-125944657D01*
X189523342Y-125944657D02*
X189422326Y-125708955D01*
X189489670Y-126180359D02*
X189523342Y-125944657D01*
X189523342Y-125944657D02*
X189287639Y-125978329D01*
%TO.C,C1*%
X204520419Y-132995966D02*
X204472800Y-133043585D01*
X204472800Y-133043585D02*
X204425180Y-133186442D01*
X204425180Y-133186442D02*
X204425180Y-133281680D01*
X204425180Y-133281680D02*
X204472800Y-133424537D01*
X204472800Y-133424537D02*
X204568038Y-133519775D01*
X204568038Y-133519775D02*
X204663276Y-133567394D01*
X204663276Y-133567394D02*
X204853752Y-133615013D01*
X204853752Y-133615013D02*
X204996609Y-133615013D01*
X204996609Y-133615013D02*
X205187085Y-133567394D01*
X205187085Y-133567394D02*
X205282323Y-133519775D01*
X205282323Y-133519775D02*
X205377561Y-133424537D01*
X205377561Y-133424537D02*
X205425180Y-133281680D01*
X205425180Y-133281680D02*
X205425180Y-133186442D01*
X205425180Y-133186442D02*
X205377561Y-133043585D01*
X205377561Y-133043585D02*
X205329942Y-132995966D01*
X204425180Y-132043585D02*
X204425180Y-132615013D01*
X204425180Y-132329299D02*
X205425180Y-132329299D01*
X205425180Y-132329299D02*
X205282323Y-132424537D01*
X205282323Y-132424537D02*
X205187085Y-132519775D01*
X205187085Y-132519775D02*
X205139466Y-132615013D01*
%TO.C,C2*%
X166797819Y-121096066D02*
X166750200Y-121143685D01*
X166750200Y-121143685D02*
X166702580Y-121286542D01*
X166702580Y-121286542D02*
X166702580Y-121381780D01*
X166702580Y-121381780D02*
X166750200Y-121524637D01*
X166750200Y-121524637D02*
X166845438Y-121619875D01*
X166845438Y-121619875D02*
X166940676Y-121667494D01*
X166940676Y-121667494D02*
X167131152Y-121715113D01*
X167131152Y-121715113D02*
X167274009Y-121715113D01*
X167274009Y-121715113D02*
X167464485Y-121667494D01*
X167464485Y-121667494D02*
X167559723Y-121619875D01*
X167559723Y-121619875D02*
X167654961Y-121524637D01*
X167654961Y-121524637D02*
X167702580Y-121381780D01*
X167702580Y-121381780D02*
X167702580Y-121286542D01*
X167702580Y-121286542D02*
X167654961Y-121143685D01*
X167654961Y-121143685D02*
X167607342Y-121096066D01*
X167607342Y-120715113D02*
X167654961Y-120667494D01*
X167654961Y-120667494D02*
X167702580Y-120572256D01*
X167702580Y-120572256D02*
X167702580Y-120334161D01*
X167702580Y-120334161D02*
X167654961Y-120238923D01*
X167654961Y-120238923D02*
X167607342Y-120191304D01*
X167607342Y-120191304D02*
X167512104Y-120143685D01*
X167512104Y-120143685D02*
X167416866Y-120143685D01*
X167416866Y-120143685D02*
X167274009Y-120191304D01*
X167274009Y-120191304D02*
X166702580Y-120762732D01*
X166702580Y-120762732D02*
X166702580Y-120143685D01*
%TO.C,R7*%
X190184066Y-112062419D02*
X190517399Y-111586228D01*
X190755494Y-112062419D02*
X190755494Y-111062419D01*
X190755494Y-111062419D02*
X190374542Y-111062419D01*
X190374542Y-111062419D02*
X190279304Y-111110038D01*
X190279304Y-111110038D02*
X190231685Y-111157657D01*
X190231685Y-111157657D02*
X190184066Y-111252895D01*
X190184066Y-111252895D02*
X190184066Y-111395752D01*
X190184066Y-111395752D02*
X190231685Y-111490990D01*
X190231685Y-111490990D02*
X190279304Y-111538609D01*
X190279304Y-111538609D02*
X190374542Y-111586228D01*
X190374542Y-111586228D02*
X190755494Y-111586228D01*
X189850732Y-111062419D02*
X189184066Y-111062419D01*
X189184066Y-111062419D02*
X189612637Y-112062419D01*
%TO.C,R6*%
X173204980Y-123788466D02*
X173681171Y-124121799D01*
X173204980Y-124359894D02*
X174204980Y-124359894D01*
X174204980Y-124359894D02*
X174204980Y-123978942D01*
X174204980Y-123978942D02*
X174157361Y-123883704D01*
X174157361Y-123883704D02*
X174109742Y-123836085D01*
X174109742Y-123836085D02*
X174014504Y-123788466D01*
X174014504Y-123788466D02*
X173871647Y-123788466D01*
X173871647Y-123788466D02*
X173776409Y-123836085D01*
X173776409Y-123836085D02*
X173728790Y-123883704D01*
X173728790Y-123883704D02*
X173681171Y-123978942D01*
X173681171Y-123978942D02*
X173681171Y-124359894D01*
X174204980Y-122931323D02*
X174204980Y-123121799D01*
X174204980Y-123121799D02*
X174157361Y-123217037D01*
X174157361Y-123217037D02*
X174109742Y-123264656D01*
X174109742Y-123264656D02*
X173966885Y-123359894D01*
X173966885Y-123359894D02*
X173776409Y-123407513D01*
X173776409Y-123407513D02*
X173395457Y-123407513D01*
X173395457Y-123407513D02*
X173300219Y-123359894D01*
X173300219Y-123359894D02*
X173252600Y-123312275D01*
X173252600Y-123312275D02*
X173204980Y-123217037D01*
X173204980Y-123217037D02*
X173204980Y-123026561D01*
X173204980Y-123026561D02*
X173252600Y-122931323D01*
X173252600Y-122931323D02*
X173300219Y-122883704D01*
X173300219Y-122883704D02*
X173395457Y-122836085D01*
X173395457Y-122836085D02*
X173633552Y-122836085D01*
X173633552Y-122836085D02*
X173728790Y-122883704D01*
X173728790Y-122883704D02*
X173776409Y-122931323D01*
X173776409Y-122931323D02*
X173824028Y-123026561D01*
X173824028Y-123026561D02*
X173824028Y-123217037D01*
X173824028Y-123217037D02*
X173776409Y-123312275D01*
X173776409Y-123312275D02*
X173728790Y-123359894D01*
X173728790Y-123359894D02*
X173633552Y-123407513D01*
D11*
%TO.C,D3*%
X178453232Y-140095997D02*
X178453232Y-139857721D01*
X178310266Y-140143652D02*
X178810646Y-139976859D01*
X178810646Y-139976859D02*
X178310266Y-139810066D01*
%TO.C,D2*%
X182517232Y-140095997D02*
X182517232Y-139857721D01*
X182374266Y-140143652D02*
X182874646Y-139976859D01*
X182874646Y-139976859D02*
X182374266Y-139810066D01*
D10*
%TO.C,D1*%
X166320694Y-110436819D02*
X166320694Y-109436819D01*
X166320694Y-109436819D02*
X166082599Y-109436819D01*
X166082599Y-109436819D02*
X165939742Y-109484438D01*
X165939742Y-109484438D02*
X165844504Y-109579676D01*
X165844504Y-109579676D02*
X165796885Y-109674914D01*
X165796885Y-109674914D02*
X165749266Y-109865390D01*
X165749266Y-109865390D02*
X165749266Y-110008247D01*
X165749266Y-110008247D02*
X165796885Y-110198723D01*
X165796885Y-110198723D02*
X165844504Y-110293961D01*
X165844504Y-110293961D02*
X165939742Y-110389200D01*
X165939742Y-110389200D02*
X166082599Y-110436819D01*
X166082599Y-110436819D02*
X166320694Y-110436819D01*
X164796885Y-110436819D02*
X165368313Y-110436819D01*
X165082599Y-110436819D02*
X165082599Y-109436819D01*
X165082599Y-109436819D02*
X165177837Y-109579676D01*
X165177837Y-109579676D02*
X165273075Y-109674914D01*
X165273075Y-109674914D02*
X165368313Y-109722533D01*
%TO.C,C6*%
X195372819Y-110656666D02*
X195325200Y-110704285D01*
X195325200Y-110704285D02*
X195277580Y-110847142D01*
X195277580Y-110847142D02*
X195277580Y-110942380D01*
X195277580Y-110942380D02*
X195325200Y-111085237D01*
X195325200Y-111085237D02*
X195420438Y-111180475D01*
X195420438Y-111180475D02*
X195515676Y-111228094D01*
X195515676Y-111228094D02*
X195706152Y-111275713D01*
X195706152Y-111275713D02*
X195849009Y-111275713D01*
X195849009Y-111275713D02*
X196039485Y-111228094D01*
X196039485Y-111228094D02*
X196134723Y-111180475D01*
X196134723Y-111180475D02*
X196229961Y-111085237D01*
X196229961Y-111085237D02*
X196277580Y-110942380D01*
X196277580Y-110942380D02*
X196277580Y-110847142D01*
X196277580Y-110847142D02*
X196229961Y-110704285D01*
X196229961Y-110704285D02*
X196182342Y-110656666D01*
X196277580Y-109799523D02*
X196277580Y-109989999D01*
X196277580Y-109989999D02*
X196229961Y-110085237D01*
X196229961Y-110085237D02*
X196182342Y-110132856D01*
X196182342Y-110132856D02*
X196039485Y-110228094D01*
X196039485Y-110228094D02*
X195849009Y-110275713D01*
X195849009Y-110275713D02*
X195468057Y-110275713D01*
X195468057Y-110275713D02*
X195372819Y-110228094D01*
X195372819Y-110228094D02*
X195325200Y-110180475D01*
X195325200Y-110180475D02*
X195277580Y-110085237D01*
X195277580Y-110085237D02*
X195277580Y-109894761D01*
X195277580Y-109894761D02*
X195325200Y-109799523D01*
X195325200Y-109799523D02*
X195372819Y-109751904D01*
X195372819Y-109751904D02*
X195468057Y-109704285D01*
X195468057Y-109704285D02*
X195706152Y-109704285D01*
X195706152Y-109704285D02*
X195801390Y-109751904D01*
X195801390Y-109751904D02*
X195849009Y-109799523D01*
X195849009Y-109799523D02*
X195896628Y-109894761D01*
X195896628Y-109894761D02*
X195896628Y-110085237D01*
X195896628Y-110085237D02*
X195849009Y-110180475D01*
X195849009Y-110180475D02*
X195801390Y-110228094D01*
X195801390Y-110228094D02*
X195706152Y-110275713D01*
%TO.C,C5*%
X193366219Y-109437466D02*
X193318600Y-109485085D01*
X193318600Y-109485085D02*
X193270980Y-109627942D01*
X193270980Y-109627942D02*
X193270980Y-109723180D01*
X193270980Y-109723180D02*
X193318600Y-109866037D01*
X193318600Y-109866037D02*
X193413838Y-109961275D01*
X193413838Y-109961275D02*
X193509076Y-110008894D01*
X193509076Y-110008894D02*
X193699552Y-110056513D01*
X193699552Y-110056513D02*
X193842409Y-110056513D01*
X193842409Y-110056513D02*
X194032885Y-110008894D01*
X194032885Y-110008894D02*
X194128123Y-109961275D01*
X194128123Y-109961275D02*
X194223361Y-109866037D01*
X194223361Y-109866037D02*
X194270980Y-109723180D01*
X194270980Y-109723180D02*
X194270980Y-109627942D01*
X194270980Y-109627942D02*
X194223361Y-109485085D01*
X194223361Y-109485085D02*
X194175742Y-109437466D01*
X194270980Y-108532704D02*
X194270980Y-109008894D01*
X194270980Y-109008894D02*
X193794790Y-109056513D01*
X193794790Y-109056513D02*
X193842409Y-109008894D01*
X193842409Y-109008894D02*
X193890028Y-108913656D01*
X193890028Y-108913656D02*
X193890028Y-108675561D01*
X193890028Y-108675561D02*
X193842409Y-108580323D01*
X193842409Y-108580323D02*
X193794790Y-108532704D01*
X193794790Y-108532704D02*
X193699552Y-108485085D01*
X193699552Y-108485085D02*
X193461457Y-108485085D01*
X193461457Y-108485085D02*
X193366219Y-108532704D01*
X193366219Y-108532704D02*
X193318600Y-108580323D01*
X193318600Y-108580323D02*
X193270980Y-108675561D01*
X193270980Y-108675561D02*
X193270980Y-108913656D01*
X193270980Y-108913656D02*
X193318600Y-109008894D01*
X193318600Y-109008894D02*
X193366219Y-109056513D01*
%TO.C,C9*%
X186268851Y-119567211D02*
X186336195Y-119567211D01*
X186336195Y-119567211D02*
X186470882Y-119499867D01*
X186470882Y-119499867D02*
X186538225Y-119432524D01*
X186538225Y-119432524D02*
X186605569Y-119297837D01*
X186605569Y-119297837D02*
X186605569Y-119163150D01*
X186605569Y-119163150D02*
X186571897Y-119062135D01*
X186571897Y-119062135D02*
X186470882Y-118893776D01*
X186470882Y-118893776D02*
X186369867Y-118792761D01*
X186369867Y-118792761D02*
X186201508Y-118691745D01*
X186201508Y-118691745D02*
X186100493Y-118658074D01*
X186100493Y-118658074D02*
X185965806Y-118658074D01*
X185965806Y-118658074D02*
X185831119Y-118725417D01*
X185831119Y-118725417D02*
X185763775Y-118792761D01*
X185763775Y-118792761D02*
X185696432Y-118927448D01*
X185696432Y-118927448D02*
X185696432Y-118994791D01*
X185999477Y-119971272D02*
X185864790Y-120105959D01*
X185864790Y-120105959D02*
X185763775Y-120139631D01*
X185763775Y-120139631D02*
X185696432Y-120139631D01*
X185696432Y-120139631D02*
X185528073Y-120105959D01*
X185528073Y-120105959D02*
X185359714Y-120004944D01*
X185359714Y-120004944D02*
X185090340Y-119735570D01*
X185090340Y-119735570D02*
X185056668Y-119634554D01*
X185056668Y-119634554D02*
X185056668Y-119567211D01*
X185056668Y-119567211D02*
X185090340Y-119466196D01*
X185090340Y-119466196D02*
X185225027Y-119331509D01*
X185225027Y-119331509D02*
X185326042Y-119297837D01*
X185326042Y-119297837D02*
X185393386Y-119297837D01*
X185393386Y-119297837D02*
X185494401Y-119331509D01*
X185494401Y-119331509D02*
X185662760Y-119499867D01*
X185662760Y-119499867D02*
X185696432Y-119600883D01*
X185696432Y-119600883D02*
X185696432Y-119668226D01*
X185696432Y-119668226D02*
X185662760Y-119769241D01*
X185662760Y-119769241D02*
X185528073Y-119903928D01*
X185528073Y-119903928D02*
X185427058Y-119937600D01*
X185427058Y-119937600D02*
X185359714Y-119937600D01*
X185359714Y-119937600D02*
X185258699Y-119903928D01*
%TO.C,U3*%
X172110304Y-131204619D02*
X172110304Y-132014142D01*
X172110304Y-132014142D02*
X172062685Y-132109380D01*
X172062685Y-132109380D02*
X172015066Y-132157000D01*
X172015066Y-132157000D02*
X171919828Y-132204619D01*
X171919828Y-132204619D02*
X171729352Y-132204619D01*
X171729352Y-132204619D02*
X171634114Y-132157000D01*
X171634114Y-132157000D02*
X171586495Y-132109380D01*
X171586495Y-132109380D02*
X171538876Y-132014142D01*
X171538876Y-132014142D02*
X171538876Y-131204619D01*
X171157923Y-131204619D02*
X170538876Y-131204619D01*
X170538876Y-131204619D02*
X170872209Y-131585571D01*
X170872209Y-131585571D02*
X170729352Y-131585571D01*
X170729352Y-131585571D02*
X170634114Y-131633190D01*
X170634114Y-131633190D02*
X170586495Y-131680809D01*
X170586495Y-131680809D02*
X170538876Y-131776047D01*
X170538876Y-131776047D02*
X170538876Y-132014142D01*
X170538876Y-132014142D02*
X170586495Y-132109380D01*
X170586495Y-132109380D02*
X170634114Y-132157000D01*
X170634114Y-132157000D02*
X170729352Y-132204619D01*
X170729352Y-132204619D02*
X171015066Y-132204619D01*
X171015066Y-132204619D02*
X171110304Y-132157000D01*
X171110304Y-132157000D02*
X171157923Y-132109380D01*
%TO.C,R1*%
X177560266Y-122527219D02*
X177893599Y-122051028D01*
X178131694Y-122527219D02*
X178131694Y-121527219D01*
X178131694Y-121527219D02*
X177750742Y-121527219D01*
X177750742Y-121527219D02*
X177655504Y-121574838D01*
X177655504Y-121574838D02*
X177607885Y-121622457D01*
X177607885Y-121622457D02*
X177560266Y-121717695D01*
X177560266Y-121717695D02*
X177560266Y-121860552D01*
X177560266Y-121860552D02*
X177607885Y-121955790D01*
X177607885Y-121955790D02*
X177655504Y-122003409D01*
X177655504Y-122003409D02*
X177750742Y-122051028D01*
X177750742Y-122051028D02*
X178131694Y-122051028D01*
X176607885Y-122527219D02*
X177179313Y-122527219D01*
X176893599Y-122527219D02*
X176893599Y-121527219D01*
X176893599Y-121527219D02*
X176988837Y-121670076D01*
X176988837Y-121670076D02*
X177084075Y-121765314D01*
X177084075Y-121765314D02*
X177179313Y-121812933D01*
%TO.C,C10*%
X208410526Y-127625372D02*
X208410526Y-127692716D01*
X208410526Y-127692716D02*
X208477870Y-127827403D01*
X208477870Y-127827403D02*
X208545213Y-127894746D01*
X208545213Y-127894746D02*
X208679900Y-127962090D01*
X208679900Y-127962090D02*
X208814587Y-127962090D01*
X208814587Y-127962090D02*
X208915602Y-127928418D01*
X208915602Y-127928418D02*
X209083961Y-127827403D01*
X209083961Y-127827403D02*
X209184976Y-127726388D01*
X209184976Y-127726388D02*
X209285992Y-127558029D01*
X209285992Y-127558029D02*
X209319663Y-127457014D01*
X209319663Y-127457014D02*
X209319663Y-127322327D01*
X209319663Y-127322327D02*
X209252320Y-127187640D01*
X209252320Y-127187640D02*
X209184976Y-127120296D01*
X209184976Y-127120296D02*
X209050289Y-127052953D01*
X209050289Y-127052953D02*
X208982946Y-127052953D01*
X207669748Y-127019281D02*
X208073809Y-127423342D01*
X207871778Y-127221311D02*
X208578885Y-126514205D01*
X208578885Y-126514205D02*
X208545213Y-126682563D01*
X208545213Y-126682563D02*
X208545213Y-126817250D01*
X208545213Y-126817250D02*
X208578885Y-126918266D01*
X207939121Y-125874441D02*
X207871778Y-125807098D01*
X207871778Y-125807098D02*
X207770763Y-125773426D01*
X207770763Y-125773426D02*
X207703419Y-125773426D01*
X207703419Y-125773426D02*
X207602404Y-125807098D01*
X207602404Y-125807098D02*
X207434045Y-125908113D01*
X207434045Y-125908113D02*
X207265686Y-126076472D01*
X207265686Y-126076472D02*
X207164671Y-126244830D01*
X207164671Y-126244830D02*
X207130999Y-126345846D01*
X207130999Y-126345846D02*
X207130999Y-126413189D01*
X207130999Y-126413189D02*
X207164671Y-126514204D01*
X207164671Y-126514204D02*
X207232015Y-126581548D01*
X207232015Y-126581548D02*
X207333030Y-126615220D01*
X207333030Y-126615220D02*
X207400373Y-126615220D01*
X207400373Y-126615220D02*
X207501389Y-126581548D01*
X207501389Y-126581548D02*
X207669747Y-126480533D01*
X207669747Y-126480533D02*
X207838106Y-126312174D01*
X207838106Y-126312174D02*
X207939121Y-126143815D01*
X207939121Y-126143815D02*
X207972793Y-126042800D01*
X207972793Y-126042800D02*
X207972793Y-125975456D01*
X207972793Y-125975456D02*
X207939121Y-125874441D01*
%TO.C,C7*%
X184419988Y-123003312D02*
X184419988Y-123070656D01*
X184419988Y-123070656D02*
X184487332Y-123205343D01*
X184487332Y-123205343D02*
X184554675Y-123272686D01*
X184554675Y-123272686D02*
X184689362Y-123340030D01*
X184689362Y-123340030D02*
X184824049Y-123340030D01*
X184824049Y-123340030D02*
X184925064Y-123306358D01*
X184925064Y-123306358D02*
X185093423Y-123205343D01*
X185093423Y-123205343D02*
X185194438Y-123104328D01*
X185194438Y-123104328D02*
X185295454Y-122935969D01*
X185295454Y-122935969D02*
X185329125Y-122834954D01*
X185329125Y-122834954D02*
X185329125Y-122700267D01*
X185329125Y-122700267D02*
X185261782Y-122565580D01*
X185261782Y-122565580D02*
X185194438Y-122498236D01*
X185194438Y-122498236D02*
X185059751Y-122430893D01*
X185059751Y-122430893D02*
X184992408Y-122430893D01*
X184824049Y-122127847D02*
X184352645Y-121656442D01*
X184352645Y-121656442D02*
X183948584Y-122666595D01*
%TO.C,C8*%
X189245988Y-114392712D02*
X189245988Y-114460056D01*
X189245988Y-114460056D02*
X189313332Y-114594743D01*
X189313332Y-114594743D02*
X189380675Y-114662086D01*
X189380675Y-114662086D02*
X189515362Y-114729430D01*
X189515362Y-114729430D02*
X189650049Y-114729430D01*
X189650049Y-114729430D02*
X189751064Y-114695758D01*
X189751064Y-114695758D02*
X189919423Y-114594743D01*
X189919423Y-114594743D02*
X190020438Y-114493728D01*
X190020438Y-114493728D02*
X190121454Y-114325369D01*
X190121454Y-114325369D02*
X190155125Y-114224354D01*
X190155125Y-114224354D02*
X190155125Y-114089667D01*
X190155125Y-114089667D02*
X190087782Y-113954980D01*
X190087782Y-113954980D02*
X190020438Y-113887636D01*
X190020438Y-113887636D02*
X189885751Y-113820293D01*
X189885751Y-113820293D02*
X189818408Y-113820293D01*
X189178645Y-113651934D02*
X189279660Y-113685606D01*
X189279660Y-113685606D02*
X189347003Y-113685606D01*
X189347003Y-113685606D02*
X189448019Y-113651934D01*
X189448019Y-113651934D02*
X189481690Y-113618262D01*
X189481690Y-113618262D02*
X189515362Y-113517247D01*
X189515362Y-113517247D02*
X189515362Y-113449903D01*
X189515362Y-113449903D02*
X189481690Y-113348888D01*
X189481690Y-113348888D02*
X189347003Y-113214201D01*
X189347003Y-113214201D02*
X189245988Y-113180529D01*
X189245988Y-113180529D02*
X189178645Y-113180529D01*
X189178645Y-113180529D02*
X189077629Y-113214201D01*
X189077629Y-113214201D02*
X189043958Y-113247873D01*
X189043958Y-113247873D02*
X189010286Y-113348888D01*
X189010286Y-113348888D02*
X189010286Y-113416232D01*
X189010286Y-113416232D02*
X189043958Y-113517247D01*
X189043958Y-113517247D02*
X189178645Y-113651934D01*
X189178645Y-113651934D02*
X189212316Y-113752949D01*
X189212316Y-113752949D02*
X189212316Y-113820293D01*
X189212316Y-113820293D02*
X189178645Y-113921308D01*
X189178645Y-113921308D02*
X189043958Y-114055995D01*
X189043958Y-114055995D02*
X188942942Y-114089667D01*
X188942942Y-114089667D02*
X188875599Y-114089667D01*
X188875599Y-114089667D02*
X188774584Y-114055995D01*
X188774584Y-114055995D02*
X188639897Y-113921308D01*
X188639897Y-113921308D02*
X188606225Y-113820293D01*
X188606225Y-113820293D02*
X188606225Y-113752949D01*
X188606225Y-113752949D02*
X188639897Y-113651934D01*
X188639897Y-113651934D02*
X188774584Y-113517247D01*
X188774584Y-113517247D02*
X188875599Y-113483575D01*
X188875599Y-113483575D02*
X188942942Y-113483575D01*
X188942942Y-113483575D02*
X189043958Y-113517247D01*
%TO.C,R4*%
X197284180Y-110631266D02*
X197760371Y-110964599D01*
X197284180Y-111202694D02*
X198284180Y-111202694D01*
X198284180Y-111202694D02*
X198284180Y-110821742D01*
X198284180Y-110821742D02*
X198236561Y-110726504D01*
X198236561Y-110726504D02*
X198188942Y-110678885D01*
X198188942Y-110678885D02*
X198093704Y-110631266D01*
X198093704Y-110631266D02*
X197950847Y-110631266D01*
X197950847Y-110631266D02*
X197855609Y-110678885D01*
X197855609Y-110678885D02*
X197807990Y-110726504D01*
X197807990Y-110726504D02*
X197760371Y-110821742D01*
X197760371Y-110821742D02*
X197760371Y-111202694D01*
X197950847Y-109774123D02*
X197284180Y-109774123D01*
X198331800Y-110012218D02*
X197617514Y-110250313D01*
X197617514Y-110250313D02*
X197617514Y-109631266D01*
D12*
%TO.C,U4*%
X204701800Y-118144900D02*
X204226800Y-118144900D01*
X197481800Y-118144900D02*
X197956800Y-118144900D01*
X197481800Y-118619900D02*
X197481800Y-118144900D01*
X197481800Y-125364900D02*
X197956800Y-125364900D01*
X204701800Y-118619900D02*
X204701800Y-118144900D01*
X204701800Y-124889900D02*
X204701800Y-125364900D01*
X197481800Y-124889900D02*
X197481800Y-125364900D01*
%TO.C,C3*%
X164365000Y-117848748D02*
X164365000Y-118371252D01*
X165835000Y-117848748D02*
X165835000Y-118371252D01*
%TO.C,U1*%
X171213000Y-117918000D02*
X171213000Y-119318000D01*
X168893000Y-119318000D02*
X168893000Y-117418000D01*
%TO.C,U2*%
X168518000Y-112182000D02*
X170318000Y-112182000D01*
X170318000Y-115402000D02*
X167868000Y-115402000D01*
%TO.C,C4*%
X172239000Y-114116752D02*
X172239000Y-113594248D01*
X173709000Y-114116752D02*
X173709000Y-113594248D01*
%TO.C,R3*%
X176874436Y-112041000D02*
X177328564Y-112041000D01*
X176874436Y-113511000D02*
X177328564Y-113511000D01*
%TO.C,R2*%
X176874436Y-116051000D02*
X177328564Y-116051000D01*
X176874436Y-114581000D02*
X177328564Y-114581000D01*
%TO.C,R8*%
X186934446Y-110269001D02*
X187255563Y-109947884D01*
X185894999Y-109229554D02*
X186216116Y-108908437D01*
%TO.C,R10*%
X208815000Y-112802936D02*
X208815000Y-113257064D01*
X210285000Y-112802936D02*
X210285000Y-113257064D01*
%TO.C,R9*%
X193384436Y-129313000D02*
X193838564Y-129313000D01*
X193384436Y-130783000D02*
X193838564Y-130783000D01*
%TO.C,R5*%
X169191000Y-122518436D02*
X169191000Y-122972564D01*
X170661000Y-122518436D02*
X170661000Y-122972564D01*
D10*
%TO.C,X1*%
X189485396Y-125454138D02*
X191748138Y-123191396D01*
X185949862Y-121918604D02*
X189485396Y-125454138D01*
X191748138Y-123191396D02*
X188212604Y-119655862D01*
X188212604Y-119655862D02*
X185949862Y-121918604D01*
D12*
%TO.C,C1*%
X202465000Y-133090552D02*
X202465000Y-132568048D01*
X203935000Y-133090552D02*
X203935000Y-132568048D01*
%TO.C,C2*%
X166397000Y-117912248D02*
X166397000Y-118434752D01*
X167867000Y-117912248D02*
X167867000Y-118434752D01*
%TO.C,R7*%
X186453799Y-111820354D02*
X186774916Y-111499237D01*
X187493246Y-112859801D02*
X187814363Y-112538684D01*
%TO.C,R6*%
X172693000Y-122518436D02*
X172693000Y-122972564D01*
X171223000Y-122518436D02*
X171223000Y-122972564D01*
%TO.C,D1*%
X166354000Y-111562000D02*
X166354000Y-115862000D01*
X166354000Y-115862000D02*
X164354000Y-115862000D01*
X164354000Y-115862000D02*
X164354000Y-111562000D01*
%TO.C,C6*%
X194972000Y-113545252D02*
X194972000Y-113022748D01*
X196442000Y-113545252D02*
X196442000Y-113022748D01*
%TO.C,C5*%
X194410000Y-112262552D02*
X194410000Y-111740048D01*
X192940000Y-112262552D02*
X192940000Y-111740048D01*
%TO.C,C9*%
X184004343Y-117775010D02*
X184373810Y-117405543D01*
X185043790Y-118814457D02*
X185413257Y-118444990D01*
D10*
%TO.C,U3*%
X169105760Y-130730700D02*
X169105760Y-130585700D01*
X173255760Y-130730700D02*
X173255760Y-130585700D01*
X169105760Y-130730700D02*
X173255760Y-130730700D01*
X169105760Y-125580700D02*
X173255760Y-125580700D01*
X169105760Y-125580700D02*
X169105760Y-125725700D01*
X169105760Y-130585700D02*
X167705760Y-130585700D01*
D12*
%TO.C,R1*%
X176693564Y-124433000D02*
X176239436Y-124433000D01*
X176693564Y-122963000D02*
X176239436Y-122963000D01*
%TO.C,C10*%
X206687291Y-128808938D02*
X206317824Y-128439471D01*
X207726738Y-127769491D02*
X207357271Y-127400024D01*
%TO.C,C7*%
X187242476Y-124544529D02*
X186873009Y-124175062D01*
X186203029Y-125583976D02*
X185833562Y-125214509D01*
%TO.C,C8*%
X187433343Y-115701790D02*
X187802810Y-116071257D01*
X188472790Y-114662343D02*
X188842257Y-115031810D01*
%TO.C,R4*%
X197029400Y-113511064D02*
X197029400Y-113056936D01*
X198499400Y-113511064D02*
X198499400Y-113056936D01*
%TD*%
M02*
