%TF.GenerationSoftware,KiCad,Pcbnew,6.0.11+dfsg-1~bpo11+1*%
%TF.CreationDate,2023-05-28T09:08:19+00:00*%
%TF.ProjectId,PROGLOG01,50524f47-4c4f-4473-9031-2e6b69636164,B*%
%TF.SameCoordinates,Original*%
%TF.FileFunction,Paste,Bot*%
%TF.FilePolarity,Positive*%
%FSLAX46Y46*%
G04 Gerber Fmt 4.6, Leading zero omitted, Abs format (unit mm)*
G04 Created by KiCad (PCBNEW 6.0.11+dfsg-1~bpo11+1) date 2023-05-28 09:08:19*
%MOMM*%
%LPD*%
G01*
G04 APERTURE LIST*
G04 Aperture macros list*
%AMRoundRect*
0 Rectangle with rounded corners*
0 $1 Rounding radius*
0 $2 $3 $4 $5 $6 $7 $8 $9 X,Y pos of 4 corners*
0 Add a 4 corners polygon primitive as box body*
4,1,4,$2,$3,$4,$5,$6,$7,$8,$9,$2,$3,0*
0 Add four circle primitives for the rounded corners*
1,1,$1+$1,$2,$3*
1,1,$1+$1,$4,$5*
1,1,$1+$1,$6,$7*
1,1,$1+$1,$8,$9*
0 Add four rect primitives between the rounded corners*
20,1,$1+$1,$2,$3,$4,$5,0*
20,1,$1+$1,$4,$5,$6,$7,0*
20,1,$1+$1,$6,$7,$8,$9,0*
20,1,$1+$1,$8,$9,$2,$3,0*%
%AMRotRect*
0 Rectangle, with rotation*
0 The origin of the aperture is its center*
0 $1 length*
0 $2 width*
0 $3 Rotation angle, in degrees counterclockwise*
0 Add horizontal line*
21,1,$1,$2,0,0,$3*%
%AMFreePoly0*
4,1,23,0.405000,0.745865,0.430885,0.748318,0.514326,0.717475,0.576139,0.653497,0.604092,0.569043,0.592655,0.480821,0.586333,0.471118,0.535041,0.293601,0.507443,0.099107,0.507318,-0.097336,0.534670,-0.291865,0.585847,-0.469827,0.592286,-0.479814,0.603303,-0.568089,0.574948,-0.652409,0.512833,-0.716092,0.429245,-0.746538,0.405000,-0.744124,0.405000,-0.750000,-0.645000,-0.750000,
-0.645000,0.750000,0.405000,0.750000,0.405000,0.745865,0.405000,0.745865,$1*%
G04 Aperture macros list end*
%ADD10RoundRect,0.250000X0.315000X-0.315000X0.315000X0.315000X-0.315000X0.315000X-0.315000X-0.315000X0*%
%ADD11RoundRect,0.062500X0.062500X-0.375000X0.062500X0.375000X-0.062500X0.375000X-0.062500X-0.375000X0*%
%ADD12RoundRect,0.062500X0.375000X-0.062500X0.375000X0.062500X-0.375000X0.062500X-0.375000X-0.062500X0*%
%ADD13RoundRect,0.250000X-0.475000X0.250000X-0.475000X-0.250000X0.475000X-0.250000X0.475000X0.250000X0*%
%ADD14R,0.400000X1.500000*%
%ADD15R,1.560000X0.650000*%
%ADD16RoundRect,0.250000X0.475000X-0.250000X0.475000X0.250000X-0.475000X0.250000X-0.475000X-0.250000X0*%
%ADD17RoundRect,0.250000X-0.262500X-0.450000X0.262500X-0.450000X0.262500X0.450000X-0.262500X0.450000X0*%
%ADD18RoundRect,0.250000X0.132583X-0.503814X0.503814X-0.132583X-0.132583X0.503814X-0.503814X0.132583X0*%
%ADD19RoundRect,0.250000X-0.450000X0.262500X-0.450000X-0.262500X0.450000X-0.262500X0.450000X0.262500X0*%
%ADD20RotRect,1.600000X1.350000X135.000000*%
%ADD21FreePoly0,270.000000*%
%ADD22FreePoly0,90.000000*%
%ADD23R,1.700000X1.300000*%
%ADD24RoundRect,0.250000X0.159099X-0.512652X0.512652X-0.159099X-0.159099X0.512652X-0.512652X0.159099X0*%
%ADD25R,1.550000X0.600000*%
%ADD26RoundRect,0.250000X0.262500X0.450000X-0.262500X0.450000X-0.262500X-0.450000X0.262500X-0.450000X0*%
%ADD27RoundRect,0.250000X0.512652X0.159099X0.159099X0.512652X-0.512652X-0.159099X-0.159099X-0.512652X0*%
%ADD28RoundRect,0.250000X-0.512652X-0.159099X-0.159099X-0.512652X0.512652X0.159099X0.159099X0.512652X0*%
%ADD29RoundRect,0.250000X0.450000X-0.262500X0.450000X0.262500X-0.450000X0.262500X-0.450000X-0.262500X0*%
G04 APERTURE END LIST*
D10*
%TO.C,U4*%
X203191800Y-119654900D03*
X203191800Y-121054900D03*
X201791800Y-122454900D03*
X198991800Y-121054900D03*
X201791800Y-123854900D03*
X201791800Y-121054900D03*
X203191800Y-122454900D03*
X200391800Y-119654900D03*
X200391800Y-121054900D03*
X200391800Y-123854900D03*
X198991800Y-119654900D03*
X198991800Y-122454900D03*
X201791800Y-119654900D03*
X198991800Y-123854900D03*
X203191800Y-123854900D03*
X200391800Y-122454900D03*
D11*
X203841800Y-125192400D03*
X203341800Y-125192400D03*
X202841800Y-125192400D03*
X202341800Y-125192400D03*
X201841800Y-125192400D03*
X201341800Y-125192400D03*
X200841800Y-125192400D03*
X200341800Y-125192400D03*
X199841800Y-125192400D03*
X199341800Y-125192400D03*
X198841800Y-125192400D03*
X198341800Y-125192400D03*
D12*
X197654300Y-124504900D03*
X197654300Y-124004900D03*
X197654300Y-123504900D03*
X197654300Y-123004900D03*
X197654300Y-122504900D03*
X197654300Y-122004900D03*
X197654300Y-121504900D03*
X197654300Y-121004900D03*
X197654300Y-120504900D03*
X197654300Y-120004900D03*
X197654300Y-119504900D03*
X197654300Y-119004900D03*
D11*
X198341800Y-118317400D03*
X198841800Y-118317400D03*
X199341800Y-118317400D03*
X199841800Y-118317400D03*
X200341800Y-118317400D03*
X200841800Y-118317400D03*
X201341800Y-118317400D03*
X201841800Y-118317400D03*
X202341800Y-118317400D03*
X202841800Y-118317400D03*
X203341800Y-118317400D03*
X203841800Y-118317400D03*
D12*
X204529300Y-119004900D03*
X204529300Y-119504900D03*
X204529300Y-120004900D03*
X204529300Y-120504900D03*
X204529300Y-121004900D03*
X204529300Y-121504900D03*
X204529300Y-122004900D03*
X204529300Y-122504900D03*
X204529300Y-123004900D03*
X204529300Y-123504900D03*
X204529300Y-124004900D03*
X204529300Y-124504900D03*
%TD*%
D13*
%TO.C,C3*%
X165100000Y-117160000D03*
X165100000Y-119060000D03*
%TD*%
D14*
%TO.C,U1*%
X169403000Y-117288000D03*
X170053000Y-117288000D03*
X170703000Y-117288000D03*
X170703000Y-119948000D03*
X170053000Y-119948000D03*
X169403000Y-119948000D03*
%TD*%
D15*
%TO.C,U2*%
X168068000Y-114742000D03*
X168068000Y-113792000D03*
X168068000Y-112842000D03*
X170768000Y-112842000D03*
X170768000Y-114742000D03*
%TD*%
D16*
%TO.C,C4*%
X172974000Y-114805500D03*
X172974000Y-112905500D03*
%TD*%
D17*
%TO.C,R3*%
X176189000Y-112776000D03*
X178014000Y-112776000D03*
%TD*%
%TO.C,R2*%
X176189000Y-115316000D03*
X178014000Y-115316000D03*
%TD*%
D18*
%TO.C,R8*%
X185930046Y-110233954D03*
X187220516Y-108943484D03*
%TD*%
D19*
%TO.C,R10*%
X209550000Y-112117500D03*
X209550000Y-113942500D03*
%TD*%
D17*
%TO.C,R9*%
X192699000Y-130048000D03*
X194524000Y-130048000D03*
%TD*%
D19*
%TO.C,R5*%
X169926000Y-121833000D03*
X169926000Y-123658000D03*
%TD*%
D20*
%TO.C,X1*%
X188990421Y-124464188D03*
X186939812Y-122413579D03*
X188707579Y-120645812D03*
X190758188Y-122696421D03*
%TD*%
D16*
%TO.C,C1*%
X203200000Y-133779300D03*
X203200000Y-131879300D03*
%TD*%
D13*
%TO.C,C2*%
X167132000Y-117223500D03*
X167132000Y-119123500D03*
%TD*%
D18*
%TO.C,R7*%
X186488846Y-112824754D03*
X187779316Y-111534284D03*
%TD*%
D19*
%TO.C,R6*%
X171958000Y-121833000D03*
X171958000Y-123658000D03*
%TD*%
D21*
%TO.C,D3*%
X180086000Y-136271000D03*
D22*
X180086000Y-140081000D03*
%TD*%
D21*
%TO.C,D2*%
X184150000Y-136271000D03*
D22*
X184150000Y-140081000D03*
%TD*%
D23*
%TO.C,D1*%
X165354000Y-115062000D03*
X165354000Y-111562000D03*
%TD*%
D16*
%TO.C,C6*%
X195707000Y-114234000D03*
X195707000Y-112334000D03*
%TD*%
%TO.C,C5*%
X193675000Y-112951300D03*
X193675000Y-111051300D03*
%TD*%
D24*
%TO.C,C9*%
X184037049Y-118781751D03*
X185380551Y-117438249D03*
%TD*%
D25*
%TO.C,U3*%
X168480760Y-130060700D03*
X168480760Y-128790700D03*
X168480760Y-127520700D03*
X168480760Y-126250700D03*
X173880760Y-126250700D03*
X173880760Y-127520700D03*
X173880760Y-128790700D03*
X173880760Y-130060700D03*
%TD*%
D26*
%TO.C,R1*%
X177379000Y-123698000D03*
X175554000Y-123698000D03*
%TD*%
D27*
%TO.C,C10*%
X207694032Y-128776232D03*
X206350530Y-127432730D03*
%TD*%
%TO.C,C7*%
X187209770Y-125551270D03*
X185866268Y-124207768D03*
%TD*%
D28*
%TO.C,C8*%
X187466049Y-114695049D03*
X188809551Y-116038551D03*
%TD*%
D29*
%TO.C,R4*%
X197764400Y-114196500D03*
X197764400Y-112371500D03*
%TD*%
M02*
