%TF.GenerationSoftware,KiCad,Pcbnew,6.0.11+dfsg-1~bpo11+1*%
%TF.CreationDate,2023-07-05T12:18:38+00:00*%
%TF.ProjectId,PROGLOG01,50524f47-4c4f-4473-9031-2e6b69636164,B*%
%TF.SameCoordinates,Original*%
%TF.FileFunction,Soldermask,Top*%
%TF.FilePolarity,Negative*%
%FSLAX46Y46*%
G04 Gerber Fmt 4.6, Leading zero omitted, Abs format (unit mm)*
G04 Created by KiCad (PCBNEW 6.0.11+dfsg-1~bpo11+1) date 2023-07-05 12:18:38*
%MOMM*%
%LPD*%
G01*
G04 APERTURE LIST*
G04 Aperture macros list*
%AMRoundRect*
0 Rectangle with rounded corners*
0 $1 Rounding radius*
0 $2 $3 $4 $5 $6 $7 $8 $9 X,Y pos of 4 corners*
0 Add a 4 corners polygon primitive as box body*
4,1,4,$2,$3,$4,$5,$6,$7,$8,$9,$2,$3,0*
0 Add four circle primitives for the rounded corners*
1,1,$1+$1,$2,$3*
1,1,$1+$1,$4,$5*
1,1,$1+$1,$6,$7*
1,1,$1+$1,$8,$9*
0 Add four rect primitives between the rounded corners*
20,1,$1+$1,$2,$3,$4,$5,0*
20,1,$1+$1,$4,$5,$6,$7,0*
20,1,$1+$1,$6,$7,$8,$9,0*
20,1,$1+$1,$8,$9,$2,$3,0*%
G04 Aperture macros list end*
%ADD10RoundRect,0.200000X-0.762000X0.762000X-0.762000X-0.762000X0.762000X-0.762000X0.762000X0.762000X0*%
%ADD11RoundRect,0.200000X-0.762000X-0.762000X0.762000X-0.762000X0.762000X0.762000X-0.762000X0.762000X0*%
%ADD12C,6.400000*%
%ADD13RoundRect,0.200000X-0.838200X-0.838200X0.838200X-0.838200X0.838200X0.838200X-0.838200X0.838200X0*%
%ADD14RoundRect,0.200000X0.762000X-0.762000X0.762000X0.762000X-0.762000X0.762000X-0.762000X-0.762000X0*%
%ADD15O,1.500000X1.700000*%
%ADD16C,2.900000*%
%ADD17C,2.700000*%
G04 APERTURE END LIST*
D10*
%TO.C,J23*%
X204470000Y-103886000D03*
X204470000Y-106426000D03*
%TD*%
%TO.C,J21*%
X199390000Y-103886000D03*
X199390000Y-106426000D03*
%TD*%
D11*
%TO.C,J1*%
X159766000Y-112522000D03*
X162306000Y-112522000D03*
X159766000Y-115062000D03*
X162306000Y-115062000D03*
X159766000Y-117602000D03*
X162306000Y-117602000D03*
%TD*%
D10*
%TO.C,J18*%
X194310000Y-103886000D03*
X194310000Y-106426000D03*
%TD*%
%TO.C,J25*%
X207010000Y-103886000D03*
X207010000Y-106426000D03*
%TD*%
D11*
%TO.C,J24*%
X213106000Y-112776000D03*
X215646000Y-112776000D03*
%TD*%
D10*
%TO.C,J16*%
X189230000Y-103886000D03*
X189230000Y-106426000D03*
%TD*%
%TO.C,J6*%
X199390000Y-136906000D03*
X199390000Y-139446000D03*
%TD*%
%TO.C,J20*%
X196850000Y-103886000D03*
X196850000Y-106426000D03*
%TD*%
D12*
%TO.C,M4*%
X162306000Y-136906000D03*
%TD*%
D11*
%TO.C,J4*%
X159766000Y-123190000D03*
X162306000Y-123190000D03*
X159766000Y-125730000D03*
X162306000Y-125730000D03*
X159766000Y-128270000D03*
X162306000Y-128270000D03*
X159766000Y-130810000D03*
X162306000Y-130810000D03*
%TD*%
D10*
%TO.C,J5*%
X201930000Y-136906000D03*
X201930000Y-139446000D03*
%TD*%
D13*
%TO.C,SW1*%
X168909600Y-134402000D03*
X175209600Y-134402000D03*
X168909600Y-138902000D03*
X175209600Y-138902000D03*
%TD*%
D11*
%TO.C,J31*%
X213106000Y-120396000D03*
X215646000Y-120396000D03*
%TD*%
%TO.C,J29*%
X213106000Y-117856000D03*
X215646000Y-117856000D03*
%TD*%
%TO.C,J27*%
X213106000Y-122936000D03*
X215646000Y-122936000D03*
%TD*%
D10*
%TO.C,J19*%
X201930000Y-103886000D03*
X201930000Y-106426000D03*
%TD*%
D11*
%TO.C,J28*%
X213106000Y-125476000D03*
X215646000Y-125476000D03*
%TD*%
%TO.C,J30*%
X213106000Y-128016000D03*
X215646000Y-128016000D03*
%TD*%
D10*
%TO.C,J7*%
X196850000Y-136906000D03*
X196850000Y-139446000D03*
%TD*%
D12*
%TO.C,M2*%
X213106000Y-106426000D03*
%TD*%
%TO.C,M1*%
X213106000Y-136906000D03*
%TD*%
D14*
%TO.C,J2*%
X175006000Y-121412000D03*
X175006000Y-118872000D03*
%TD*%
D10*
%TO.C,J34*%
X207010000Y-136906000D03*
X207010000Y-139446000D03*
%TD*%
D11*
%TO.C,J32*%
X213106000Y-130556000D03*
X215646000Y-130556000D03*
%TD*%
%TO.C,J13*%
X180594000Y-128016000D03*
X183134000Y-128016000D03*
%TD*%
D10*
%TO.C,J11*%
X189230000Y-136906000D03*
X189230000Y-139446000D03*
%TD*%
D11*
%TO.C,J14*%
X180594000Y-130556000D03*
X183134000Y-130556000D03*
%TD*%
D10*
%TO.C,J15*%
X186690000Y-103886000D03*
X186690000Y-106426000D03*
%TD*%
D11*
%TO.C,J22*%
X213106000Y-115316000D03*
X215646000Y-115316000D03*
%TD*%
D10*
%TO.C,J33*%
X204470000Y-136906000D03*
X204470000Y-139446000D03*
%TD*%
%TO.C,J17*%
X191770000Y-103886000D03*
X191770000Y-106426000D03*
%TD*%
%TO.C,J8*%
X194310000Y-136906000D03*
X194310000Y-139446000D03*
%TD*%
%TO.C,J9*%
X191770000Y-136906000D03*
X191770000Y-139446000D03*
%TD*%
D15*
%TO.C,J26*%
X171958000Y-103632000D03*
X173228000Y-105132000D03*
X174498000Y-105132000D03*
X175768000Y-103632000D03*
X177038000Y-105132000D03*
X178308000Y-105132000D03*
X179578000Y-103632000D03*
D16*
X182328000Y-106132000D03*
X169498000Y-105132000D03*
%TD*%
D12*
%TO.C,M3*%
X162306000Y-106426000D03*
%TD*%
D11*
%TO.C,J10*%
X180594000Y-125476000D03*
X183134000Y-125476000D03*
%TD*%
%TO.C,J3*%
X180594000Y-112776000D03*
X183134000Y-112776000D03*
X180594000Y-115316000D03*
X183134000Y-115316000D03*
%TD*%
D17*
%TO.C,D3*%
X180086000Y-138176000D03*
%TD*%
%TO.C,D2*%
X184150000Y-138176000D03*
%TD*%
M02*
