%TF.GenerationSoftware,KiCad,Pcbnew,6.0.11+dfsg-1~bpo11+1*%
%TF.CreationDate,2023-07-05T00:35:24+00:00*%
%TF.ProjectId,PROGLOG01,50524f47-4c4f-4473-9031-2e6b69636164,B*%
%TF.SameCoordinates,Original*%
%TF.FileFunction,Copper,L1,Top*%
%TF.FilePolarity,Positive*%
%FSLAX46Y46*%
G04 Gerber Fmt 4.6, Leading zero omitted, Abs format (unit mm)*
G04 Created by KiCad (PCBNEW 6.0.11+dfsg-1~bpo11+1) date 2023-07-05 00:35:24*
%MOMM*%
%LPD*%
G01*
G04 APERTURE LIST*
%TA.AperFunction,ComponentPad*%
%ADD10R,1.524000X1.524000*%
%TD*%
%TA.AperFunction,ComponentPad*%
%ADD11C,6.000000*%
%TD*%
%TA.AperFunction,ComponentPad*%
%ADD12R,1.676400X1.676400*%
%TD*%
%TA.AperFunction,ComponentPad*%
%ADD13O,1.100000X1.300000*%
%TD*%
%TA.AperFunction,ComponentPad*%
%ADD14C,2.500000*%
%TD*%
%TA.AperFunction,ViaPad*%
%ADD15C,0.800000*%
%TD*%
%TA.AperFunction,Conductor*%
%ADD16C,0.500000*%
%TD*%
%TA.AperFunction,Conductor*%
%ADD17C,0.250000*%
%TD*%
G04 APERTURE END LIST*
D10*
%TO.P,J23,1*%
%TO.N,/IOT_50b*%
X204470000Y-103886000D03*
%TO.P,J23,2*%
X204470000Y-106426000D03*
%TD*%
%TO.P,J21,1*%
%TO.N,/IOT_48b*%
X199390000Y-103886000D03*
%TO.P,J21,2*%
X199390000Y-106426000D03*
%TD*%
%TO.P,J1,1,2*%
%TO.N,GND*%
X159766000Y-112522000D03*
%TO.P,J1,2,2*%
X162306000Y-112522000D03*
%TO.P,J1,3,4*%
%TO.N,+3V3*%
X159766000Y-115062000D03*
%TO.P,J1,4,4*%
X162306000Y-115062000D03*
%TO.P,J1,5,6*%
%TO.N,GND*%
X159766000Y-117602000D03*
%TO.P,J1,6,6*%
X162306000Y-117602000D03*
%TD*%
%TO.P,J18,1*%
%TO.N,/IOT_44b*%
X194310000Y-103886000D03*
%TO.P,J18,2*%
X194310000Y-106426000D03*
%TD*%
%TO.P,J25,1*%
%TO.N,/RGB0*%
X207010000Y-103886000D03*
%TO.P,J25,2*%
X207010000Y-106426000D03*
%TD*%
%TO.P,J24,1*%
%TO.N,/IOT_51a*%
X213106000Y-112776000D03*
%TO.P,J24,2*%
X215646000Y-112776000D03*
%TD*%
%TO.P,J16,1*%
%TO.N,/IOT_42b*%
X189230000Y-103886000D03*
%TO.P,J16,2*%
X189230000Y-106426000D03*
%TD*%
%TO.P,J6,1*%
%TO.N,/IOB_16a*%
X199390000Y-136906000D03*
%TO.P,J6,2*%
X199390000Y-139446000D03*
%TD*%
%TO.P,J20,1*%
%TO.N,/IOT_46b_G0*%
X196850000Y-103886000D03*
%TO.P,J20,2*%
X196850000Y-106426000D03*
%TD*%
D11*
%TO.P,M4,1*%
%TO.N,GND*%
X162306000Y-136906000D03*
%TD*%
D10*
%TO.P,J4,1*%
%TO.N,GND*%
X159766000Y-123190000D03*
%TO.P,J4,2*%
%TO.N,/SPI_SS*%
X162306000Y-123190000D03*
%TO.P,J4,3*%
%TO.N,GND*%
X159766000Y-125730000D03*
%TO.P,J4,4*%
%TO.N,/SPI_SI*%
X162306000Y-125730000D03*
%TO.P,J4,5*%
%TO.N,/SPI_SCK*%
X159766000Y-128270000D03*
%TO.P,J4,6*%
%TO.N,/SPI_SO*%
X162306000Y-128270000D03*
%TO.P,J4,7*%
%TO.N,/NRESET*%
X159766000Y-130810000D03*
%TO.P,J4,8*%
%TO.N,GND*%
X162306000Y-130810000D03*
%TD*%
%TO.P,J5,1*%
%TO.N,/IOB_13b*%
X201930000Y-136906000D03*
%TO.P,J5,2*%
X201930000Y-139446000D03*
%TD*%
D12*
%TO.P,SW1,1,1*%
%TO.N,/NRESET*%
X168909600Y-134402000D03*
X175209600Y-134402000D03*
%TO.P,SW1,2,2*%
%TO.N,GND*%
X168909600Y-138902000D03*
X175209600Y-138902000D03*
%TD*%
D10*
%TO.P,J31,1*%
%TO.N,/IOB_5b*%
X213106000Y-120396000D03*
%TO.P,J31,2*%
X215646000Y-120396000D03*
%TD*%
%TO.P,J29,1*%
%TO.N,/IOB_3b_G6*%
X213106000Y-117856000D03*
%TO.P,J29,2*%
X215646000Y-117856000D03*
%TD*%
%TO.P,J27,1*%
%TO.N,/IOB_0a*%
X213106000Y-122936000D03*
%TO.P,J27,2*%
X215646000Y-122936000D03*
%TD*%
%TO.P,J19,1*%
%TO.N,/IOT_45a_G1*%
X201930000Y-103886000D03*
%TO.P,J19,2*%
X201930000Y-106426000D03*
%TD*%
%TO.P,J28,1*%
%TO.N,/IOB_2a*%
X213106000Y-125476000D03*
%TO.P,J28,2*%
X215646000Y-125476000D03*
%TD*%
%TO.P,J30,1*%
%TO.N,/IOB_4a*%
X213106000Y-128016000D03*
%TO.P,J30,2*%
X215646000Y-128016000D03*
%TD*%
%TO.P,J7,1*%
%TO.N,/IOB_18a*%
X196850000Y-136906000D03*
%TO.P,J7,2*%
X196850000Y-139446000D03*
%TD*%
D11*
%TO.P,M2,1*%
%TO.N,GND*%
X213106000Y-106426000D03*
%TD*%
%TO.P,M1,1*%
%TO.N,GND*%
X213106000Y-136906000D03*
%TD*%
D10*
%TO.P,J2,1*%
%TO.N,Net-(J2-Pad1)*%
X175006000Y-121412000D03*
%TO.P,J2,2*%
%TO.N,GND*%
X175006000Y-118872000D03*
%TD*%
%TO.P,J34,1*%
%TO.N,/IOB_9b*%
X207010000Y-136906000D03*
%TO.P,J34,2*%
X207010000Y-139446000D03*
%TD*%
%TO.P,J32,1*%
%TO.N,/IOB_6a*%
X213106000Y-130556000D03*
%TO.P,J32,2*%
X215646000Y-130556000D03*
%TD*%
%TO.P,J13,1*%
%TO.N,/IOB_29b*%
X180594000Y-128016000D03*
%TO.P,J13,2*%
X183134000Y-128016000D03*
%TD*%
%TO.P,J11,1*%
%TO.N,/IOB_24a*%
X189230000Y-136906000D03*
%TO.P,J11,2*%
X189230000Y-139446000D03*
%TD*%
%TO.P,J14,1*%
%TO.N,/IOB_31b*%
X180594000Y-130556000D03*
%TO.P,J14,2*%
X183134000Y-130556000D03*
%TD*%
%TO.P,J15,1*%
%TO.N,/IOT_41a*%
X186690000Y-103886000D03*
%TO.P,J15,2*%
X186690000Y-106426000D03*
%TD*%
%TO.P,J22,1*%
%TO.N,/IOT_49a*%
X213106000Y-115316000D03*
%TO.P,J22,2*%
X215646000Y-115316000D03*
%TD*%
%TO.P,J33,1*%
%TO.N,/IOB_8a*%
X204470000Y-136906000D03*
%TO.P,J33,2*%
X204470000Y-139446000D03*
%TD*%
%TO.P,J17,1*%
%TO.N,/IOT_43a*%
X191770000Y-103886000D03*
%TO.P,J17,2*%
X191770000Y-106426000D03*
%TD*%
%TO.P,J8,1*%
%TO.N,/IOB_20a*%
X194310000Y-136906000D03*
%TO.P,J8,2*%
X194310000Y-139446000D03*
%TD*%
%TO.P,J9,1*%
%TO.N,/IOB_22b*%
X191770000Y-136906000D03*
%TO.P,J9,2*%
X191770000Y-139446000D03*
%TD*%
D13*
%TO.P,J26,1,1*%
%TO.N,GND*%
X171958000Y-103632000D03*
%TO.P,J26,2,2*%
%TO.N,/IOT_37a*%
X173228000Y-105132000D03*
%TO.P,J26,3,3*%
%TO.N,/IOT_36b*%
X174498000Y-105132000D03*
%TO.P,J26,4,4*%
%TO.N,GND*%
X175768000Y-103632000D03*
%TO.P,J26,5,5*%
%TO.N,/IOT_39a*%
X177038000Y-105132000D03*
%TO.P,J26,6,6*%
%TO.N,/IOT_38b*%
X178308000Y-105132000D03*
%TO.P,J26,7,7*%
%TO.N,GND*%
X179578000Y-103632000D03*
D14*
%TO.P,J26,8*%
%TO.N,N/C*%
X182328000Y-106132000D03*
%TO.P,J26,9*%
X169498000Y-105132000D03*
%TD*%
D11*
%TO.P,M3,1*%
%TO.N,GND*%
X162306000Y-106426000D03*
%TD*%
D10*
%TO.P,J10,1*%
%TO.N,/IOB_23b*%
X180594000Y-125476000D03*
%TO.P,J10,2*%
X183134000Y-125476000D03*
%TD*%
%TO.P,J3,1*%
%TO.N,/VCCIO_0*%
X180594000Y-112776000D03*
%TO.P,J3,2*%
X183134000Y-112776000D03*
%TO.P,J3,3*%
%TO.N,/VCCIO_2*%
X180594000Y-115316000D03*
%TO.P,J3,4*%
X183134000Y-115316000D03*
%TD*%
D15*
%TO.N,+3V3*%
X175728510Y-130060699D03*
X169392601Y-111734601D03*
X187960000Y-126746000D03*
X177546000Y-135636000D03*
X177038000Y-125984000D03*
%TO.N,GND*%
X167132000Y-109220000D03*
X166573200Y-121361200D03*
X199136000Y-122936000D03*
X199136000Y-121412000D03*
X184759600Y-106781600D03*
X182626000Y-120269000D03*
X199136000Y-119888000D03*
X192595500Y-121285000D03*
X164058600Y-127685800D03*
X178206400Y-108127800D03*
X209503219Y-129163019D03*
X159004000Y-120396000D03*
X203200000Y-119888000D03*
X203200000Y-135001000D03*
X162560000Y-120396000D03*
X190347600Y-116357400D03*
X184912000Y-121666000D03*
X167589200Y-111480600D03*
X181356000Y-118872000D03*
X203200000Y-122936000D03*
X192278000Y-111760000D03*
X203200000Y-121412000D03*
X185064400Y-126644400D03*
X160528000Y-120396000D03*
X178308000Y-126619000D03*
X173101000Y-120167400D03*
X168656000Y-109220000D03*
X170180000Y-109220000D03*
%TO.N,+1V2*%
X201841800Y-127012000D03*
X200152000Y-114046000D03*
X174498000Y-111506000D03*
%TO.N,/VCCIO_1*%
X196342000Y-118364000D03*
X195467103Y-119765797D03*
%TO.N,/VCCIO_2*%
X184861200Y-115316000D03*
X205486000Y-126238000D03*
%TO.N,/NRESET*%
X179980358Y-134620000D03*
X178964357Y-130709185D03*
X201015600Y-131902200D03*
%TO.N,/SPI_SO*%
X166865300Y-128790700D03*
X177342800Y-131495800D03*
%TO.N,/SPI_SS*%
X166624000Y-123190000D03*
X168480760Y-131853960D03*
X177234664Y-132514836D03*
%TO.N,/SPI_SI*%
X170434000Y-130048000D03*
X171765530Y-125160470D03*
%TO.N,/VCCIO_0*%
X202566801Y-116433600D03*
X188925200Y-114517000D03*
%TO.N,/RGB1*%
X194564000Y-128778000D03*
X207968010Y-116847190D03*
%TO.N,Net-(J2-Pad1)*%
X176276000Y-125222000D03*
X175526699Y-128790699D03*
%TO.N,Net-(D3-Pad1)*%
X191034036Y-130810000D03*
X209550000Y-110744000D03*
%TD*%
D16*
%TO.N,+3V3*%
X178192300Y-134989700D02*
X178192300Y-131143925D01*
X179984400Y-123037600D02*
X184251600Y-123037600D01*
X177038000Y-125984000D02*
X177038000Y-130022600D01*
X178192300Y-131143925D02*
X177109075Y-130060700D01*
X179933600Y-120497600D02*
X171170601Y-111734601D01*
X177038000Y-130022600D02*
X177088800Y-130073400D01*
X177038000Y-125984000D02*
X178816000Y-124206000D01*
X179933600Y-123088400D02*
X179933600Y-120497600D01*
X177109075Y-130060700D02*
X175728510Y-130060699D01*
X177546000Y-135636000D02*
X178192300Y-134989700D01*
X178816000Y-124206000D02*
X179933600Y-123088400D01*
X184251600Y-123037600D02*
X187960000Y-126746000D01*
X171170601Y-111734601D02*
X169392601Y-111734601D01*
X178816000Y-124206000D02*
X179984400Y-123037600D01*
%TO.N,+1V2*%
X183995798Y-110845600D02*
X175158400Y-110845600D01*
X175158400Y-110845600D02*
X174498000Y-111506000D01*
X201841800Y-127012000D02*
X200990900Y-126161100D01*
X200990900Y-126161100D02*
X200990900Y-114884900D01*
X190654202Y-114046000D02*
X189333201Y-115367001D01*
X200990900Y-114884900D02*
X200152000Y-114046000D01*
X189333201Y-115367001D02*
X188517199Y-115367001D01*
X200152000Y-114046000D02*
X190654202Y-114046000D01*
X188517199Y-115367001D02*
X183995798Y-110845600D01*
%TO.N,/VCCIO_1*%
X195467103Y-119765797D02*
X195467103Y-119238897D01*
X195467103Y-119238897D02*
X196342000Y-118364000D01*
X195467103Y-119765797D02*
X195467103Y-119619897D01*
%TO.N,/VCCIO_2*%
X205486000Y-126238000D02*
X202641200Y-129082800D01*
X198628000Y-129082800D02*
X184861200Y-115316000D01*
X202641200Y-129082800D02*
X198628000Y-129082800D01*
%TO.N,/NRESET*%
X179980358Y-134620000D02*
X199619210Y-134620000D01*
X178964358Y-133604000D02*
X178964358Y-131259699D01*
X179980358Y-134620000D02*
X178964358Y-133604000D01*
X178961999Y-131257340D02*
X178964358Y-131259699D01*
X178964358Y-131259699D02*
X178964357Y-130709185D01*
X201015600Y-133223610D02*
X201015600Y-131902200D01*
X199619210Y-134620000D02*
X201015600Y-133223610D01*
D17*
%TO.N,/SPI_SO*%
X166865300Y-128790700D02*
X166891390Y-128790700D01*
X169596490Y-131495800D02*
X177342800Y-131495800D01*
X166891390Y-128790700D02*
X169596490Y-131495800D01*
%TO.N,/SPI_SS*%
X176665129Y-131945301D02*
X169410301Y-131945301D01*
X166140800Y-123673200D02*
X166140800Y-129514000D01*
X169316400Y-131851400D02*
X168483320Y-131851400D01*
X177234664Y-132514836D02*
X176665129Y-131945301D01*
X166140800Y-129514000D02*
X168480760Y-131853960D01*
X166624000Y-123190000D02*
X166140800Y-123673200D01*
X168483320Y-131851400D02*
X168480760Y-131853960D01*
X169410301Y-131945301D02*
X169316400Y-131851400D01*
%TO.N,/SPI_SI*%
X170434000Y-126492000D02*
X171765530Y-125160470D01*
X170434000Y-130048000D02*
X170434000Y-126492000D01*
D16*
%TO.N,/VCCIO_0*%
X200560001Y-113195999D02*
X190246201Y-113195999D01*
X202566801Y-116433600D02*
X202566801Y-115202799D01*
X190246201Y-113195999D02*
X188925200Y-114517000D01*
X202566801Y-115202799D02*
X200560001Y-113195999D01*
%TO.N,/RGB1*%
X203313299Y-129909301D02*
X207968010Y-125254590D01*
X194564000Y-128778000D02*
X195695301Y-129909301D01*
X195695301Y-129909301D02*
X203313299Y-129909301D01*
X207968010Y-125254590D02*
X207968010Y-116847190D01*
%TO.N,Net-(J2-Pad1)*%
X176276000Y-125222000D02*
X175526699Y-125971301D01*
X175526699Y-125971301D02*
X175526699Y-128790699D01*
%TO.N,Net-(D3-Pad1)*%
X203885800Y-130810000D02*
X191034036Y-130810000D01*
X209550000Y-110744000D02*
X209550000Y-125145800D01*
X209550000Y-125145800D02*
X203885800Y-130810000D01*
%TD*%
%TA.AperFunction,Conductor*%
%TO.N,GND*%
G36*
X217365621Y-102128502D02*
G01*
X217412114Y-102182158D01*
X217423500Y-102234500D01*
X217423500Y-141097500D01*
X217403498Y-141165621D01*
X217349842Y-141212114D01*
X217297500Y-141223500D01*
X158114500Y-141223500D01*
X158046379Y-141203498D01*
X157999886Y-141149842D01*
X157988500Y-141097500D01*
X157988500Y-140256134D01*
X187959500Y-140256134D01*
X187966255Y-140318316D01*
X188017385Y-140454705D01*
X188104739Y-140571261D01*
X188221295Y-140658615D01*
X188357684Y-140709745D01*
X188419866Y-140716500D01*
X190040134Y-140716500D01*
X190102316Y-140709745D01*
X190238705Y-140658615D01*
X190355261Y-140571261D01*
X190399174Y-140512668D01*
X190456033Y-140470153D01*
X190526852Y-140465127D01*
X190589145Y-140499187D01*
X190600825Y-140512667D01*
X190644739Y-140571261D01*
X190761295Y-140658615D01*
X190897684Y-140709745D01*
X190959866Y-140716500D01*
X192580134Y-140716500D01*
X192642316Y-140709745D01*
X192778705Y-140658615D01*
X192895261Y-140571261D01*
X192939174Y-140512668D01*
X192996033Y-140470153D01*
X193066852Y-140465127D01*
X193129145Y-140499187D01*
X193140825Y-140512667D01*
X193184739Y-140571261D01*
X193301295Y-140658615D01*
X193437684Y-140709745D01*
X193499866Y-140716500D01*
X195120134Y-140716500D01*
X195182316Y-140709745D01*
X195318705Y-140658615D01*
X195435261Y-140571261D01*
X195479174Y-140512668D01*
X195536033Y-140470153D01*
X195606852Y-140465127D01*
X195669145Y-140499187D01*
X195680825Y-140512667D01*
X195724739Y-140571261D01*
X195841295Y-140658615D01*
X195977684Y-140709745D01*
X196039866Y-140716500D01*
X197660134Y-140716500D01*
X197722316Y-140709745D01*
X197858705Y-140658615D01*
X197975261Y-140571261D01*
X198019174Y-140512668D01*
X198076033Y-140470153D01*
X198146852Y-140465127D01*
X198209145Y-140499187D01*
X198220825Y-140512667D01*
X198264739Y-140571261D01*
X198381295Y-140658615D01*
X198517684Y-140709745D01*
X198579866Y-140716500D01*
X200200134Y-140716500D01*
X200262316Y-140709745D01*
X200398705Y-140658615D01*
X200515261Y-140571261D01*
X200559174Y-140512668D01*
X200616033Y-140470153D01*
X200686852Y-140465127D01*
X200749145Y-140499187D01*
X200760825Y-140512667D01*
X200804739Y-140571261D01*
X200921295Y-140658615D01*
X201057684Y-140709745D01*
X201119866Y-140716500D01*
X202740134Y-140716500D01*
X202802316Y-140709745D01*
X202938705Y-140658615D01*
X203055261Y-140571261D01*
X203099174Y-140512668D01*
X203156033Y-140470153D01*
X203226852Y-140465127D01*
X203289145Y-140499187D01*
X203300825Y-140512667D01*
X203344739Y-140571261D01*
X203461295Y-140658615D01*
X203597684Y-140709745D01*
X203659866Y-140716500D01*
X205280134Y-140716500D01*
X205342316Y-140709745D01*
X205478705Y-140658615D01*
X205595261Y-140571261D01*
X205639174Y-140512668D01*
X205696033Y-140470153D01*
X205766852Y-140465127D01*
X205829145Y-140499187D01*
X205840825Y-140512667D01*
X205884739Y-140571261D01*
X206001295Y-140658615D01*
X206137684Y-140709745D01*
X206199866Y-140716500D01*
X207820134Y-140716500D01*
X207882316Y-140709745D01*
X208018705Y-140658615D01*
X208135261Y-140571261D01*
X208222615Y-140454705D01*
X208273745Y-140318316D01*
X208280500Y-140256134D01*
X208280500Y-138635866D01*
X208273745Y-138573684D01*
X208222615Y-138437295D01*
X208135261Y-138320739D01*
X208076668Y-138276826D01*
X208034153Y-138219967D01*
X208029127Y-138149148D01*
X208063187Y-138086855D01*
X208076668Y-138075174D01*
X208128081Y-138036642D01*
X208135261Y-138031261D01*
X208222615Y-137914705D01*
X208273745Y-137778316D01*
X208280500Y-137716134D01*
X208280500Y-136095866D01*
X208273745Y-136033684D01*
X208222615Y-135897295D01*
X208135261Y-135780739D01*
X208018705Y-135693385D01*
X207882316Y-135642255D01*
X207820134Y-135635500D01*
X206199866Y-135635500D01*
X206137684Y-135642255D01*
X206001295Y-135693385D01*
X205884739Y-135780739D01*
X205859907Y-135813872D01*
X205840826Y-135839332D01*
X205783967Y-135881847D01*
X205713148Y-135886873D01*
X205650855Y-135852813D01*
X205639174Y-135839332D01*
X205620093Y-135813872D01*
X205595261Y-135780739D01*
X205478705Y-135693385D01*
X205342316Y-135642255D01*
X205280134Y-135635500D01*
X203659866Y-135635500D01*
X203597684Y-135642255D01*
X203461295Y-135693385D01*
X203344739Y-135780739D01*
X203319907Y-135813872D01*
X203300826Y-135839332D01*
X203243967Y-135881847D01*
X203173148Y-135886873D01*
X203110855Y-135852813D01*
X203099174Y-135839332D01*
X203080093Y-135813872D01*
X203055261Y-135780739D01*
X202938705Y-135693385D01*
X202802316Y-135642255D01*
X202740134Y-135635500D01*
X201119866Y-135635500D01*
X201057684Y-135642255D01*
X200921295Y-135693385D01*
X200804739Y-135780739D01*
X200779907Y-135813872D01*
X200760826Y-135839332D01*
X200703967Y-135881847D01*
X200633148Y-135886873D01*
X200570855Y-135852813D01*
X200559174Y-135839332D01*
X200540093Y-135813872D01*
X200515261Y-135780739D01*
X200398705Y-135693385D01*
X200262316Y-135642255D01*
X200200134Y-135635500D01*
X198579866Y-135635500D01*
X198517684Y-135642255D01*
X198381295Y-135693385D01*
X198264739Y-135780739D01*
X198239907Y-135813872D01*
X198220826Y-135839332D01*
X198163967Y-135881847D01*
X198093148Y-135886873D01*
X198030855Y-135852813D01*
X198019174Y-135839332D01*
X198000093Y-135813872D01*
X197975261Y-135780739D01*
X197858705Y-135693385D01*
X197722316Y-135642255D01*
X197660134Y-135635500D01*
X196039866Y-135635500D01*
X195977684Y-135642255D01*
X195841295Y-135693385D01*
X195724739Y-135780739D01*
X195699907Y-135813872D01*
X195680826Y-135839332D01*
X195623967Y-135881847D01*
X195553148Y-135886873D01*
X195490855Y-135852813D01*
X195479174Y-135839332D01*
X195460093Y-135813872D01*
X195435261Y-135780739D01*
X195318705Y-135693385D01*
X195182316Y-135642255D01*
X195120134Y-135635500D01*
X193499866Y-135635500D01*
X193437684Y-135642255D01*
X193301295Y-135693385D01*
X193184739Y-135780739D01*
X193159907Y-135813872D01*
X193140826Y-135839332D01*
X193083967Y-135881847D01*
X193013148Y-135886873D01*
X192950855Y-135852813D01*
X192939174Y-135839332D01*
X192920093Y-135813872D01*
X192895261Y-135780739D01*
X192778705Y-135693385D01*
X192642316Y-135642255D01*
X192580134Y-135635500D01*
X190959866Y-135635500D01*
X190897684Y-135642255D01*
X190761295Y-135693385D01*
X190644739Y-135780739D01*
X190619907Y-135813872D01*
X190600826Y-135839332D01*
X190543967Y-135881847D01*
X190473148Y-135886873D01*
X190410855Y-135852813D01*
X190399174Y-135839332D01*
X190380093Y-135813872D01*
X190355261Y-135780739D01*
X190238705Y-135693385D01*
X190102316Y-135642255D01*
X190040134Y-135635500D01*
X188419866Y-135635500D01*
X188357684Y-135642255D01*
X188221295Y-135693385D01*
X188104739Y-135780739D01*
X188017385Y-135897295D01*
X187966255Y-136033684D01*
X187959500Y-136095866D01*
X187959500Y-137716134D01*
X187966255Y-137778316D01*
X188017385Y-137914705D01*
X188104739Y-138031261D01*
X188111919Y-138036642D01*
X188163332Y-138075174D01*
X188205847Y-138132033D01*
X188210873Y-138202852D01*
X188176813Y-138265145D01*
X188163333Y-138276825D01*
X188104739Y-138320739D01*
X188017385Y-138437295D01*
X187966255Y-138573684D01*
X187959500Y-138635866D01*
X187959500Y-140256134D01*
X157988500Y-140256134D01*
X157988500Y-139784869D01*
X167563401Y-139784869D01*
X167563771Y-139791690D01*
X167569295Y-139842552D01*
X167572921Y-139857804D01*
X167618076Y-139978254D01*
X167626614Y-139993849D01*
X167703115Y-140095924D01*
X167715676Y-140108485D01*
X167817751Y-140184986D01*
X167833346Y-140193524D01*
X167953794Y-140238678D01*
X167969049Y-140242305D01*
X168019914Y-140247831D01*
X168026728Y-140248200D01*
X168637485Y-140248200D01*
X168652724Y-140243725D01*
X168653929Y-140242335D01*
X168655600Y-140234652D01*
X168655600Y-140230084D01*
X169163600Y-140230084D01*
X169168075Y-140245323D01*
X169169465Y-140246528D01*
X169177148Y-140248199D01*
X169792469Y-140248199D01*
X169799290Y-140247829D01*
X169850152Y-140242305D01*
X169865404Y-140238679D01*
X169985854Y-140193524D01*
X170001449Y-140184986D01*
X170103524Y-140108485D01*
X170116085Y-140095924D01*
X170192586Y-139993849D01*
X170201124Y-139978254D01*
X170246278Y-139857806D01*
X170249905Y-139842551D01*
X170255431Y-139791686D01*
X170255800Y-139784872D01*
X170255800Y-139784869D01*
X173863401Y-139784869D01*
X173863771Y-139791690D01*
X173869295Y-139842552D01*
X173872921Y-139857804D01*
X173918076Y-139978254D01*
X173926614Y-139993849D01*
X174003115Y-140095924D01*
X174015676Y-140108485D01*
X174117751Y-140184986D01*
X174133346Y-140193524D01*
X174253794Y-140238678D01*
X174269049Y-140242305D01*
X174319914Y-140247831D01*
X174326728Y-140248200D01*
X174937485Y-140248200D01*
X174952724Y-140243725D01*
X174953929Y-140242335D01*
X174955600Y-140234652D01*
X174955600Y-140230084D01*
X175463600Y-140230084D01*
X175468075Y-140245323D01*
X175469465Y-140246528D01*
X175477148Y-140248199D01*
X176092469Y-140248199D01*
X176099290Y-140247829D01*
X176150152Y-140242305D01*
X176165404Y-140238679D01*
X176285854Y-140193524D01*
X176301449Y-140184986D01*
X176403524Y-140108485D01*
X176416085Y-140095924D01*
X176492586Y-139993849D01*
X176501124Y-139978254D01*
X176546278Y-139857806D01*
X176549905Y-139842551D01*
X176555431Y-139791686D01*
X176555800Y-139784872D01*
X176555800Y-139174115D01*
X176551325Y-139158876D01*
X176549935Y-139157671D01*
X176542252Y-139156000D01*
X175481715Y-139156000D01*
X175466476Y-139160475D01*
X175465271Y-139161865D01*
X175463600Y-139169548D01*
X175463600Y-140230084D01*
X174955600Y-140230084D01*
X174955600Y-139174115D01*
X174951125Y-139158876D01*
X174949735Y-139157671D01*
X174942052Y-139156000D01*
X173881516Y-139156000D01*
X173866277Y-139160475D01*
X173865072Y-139161865D01*
X173863401Y-139169548D01*
X173863401Y-139784869D01*
X170255800Y-139784869D01*
X170255800Y-139174115D01*
X170251325Y-139158876D01*
X170249935Y-139157671D01*
X170242252Y-139156000D01*
X169181715Y-139156000D01*
X169166476Y-139160475D01*
X169165271Y-139161865D01*
X169163600Y-139169548D01*
X169163600Y-140230084D01*
X168655600Y-140230084D01*
X168655600Y-139174115D01*
X168651125Y-139158876D01*
X168649735Y-139157671D01*
X168642052Y-139156000D01*
X167581516Y-139156000D01*
X167566277Y-139160475D01*
X167565072Y-139161865D01*
X167563401Y-139169548D01*
X167563401Y-139784869D01*
X157988500Y-139784869D01*
X157988500Y-138629885D01*
X167563400Y-138629885D01*
X167567875Y-138645124D01*
X167569265Y-138646329D01*
X167576948Y-138648000D01*
X168637485Y-138648000D01*
X168652724Y-138643525D01*
X168653929Y-138642135D01*
X168655600Y-138634452D01*
X168655600Y-138629885D01*
X169163600Y-138629885D01*
X169168075Y-138645124D01*
X169169465Y-138646329D01*
X169177148Y-138648000D01*
X170237684Y-138648000D01*
X170252923Y-138643525D01*
X170254128Y-138642135D01*
X170255799Y-138634452D01*
X170255799Y-138629885D01*
X173863400Y-138629885D01*
X173867875Y-138645124D01*
X173869265Y-138646329D01*
X173876948Y-138648000D01*
X174937485Y-138648000D01*
X174952724Y-138643525D01*
X174953929Y-138642135D01*
X174955600Y-138634452D01*
X174955600Y-138629885D01*
X175463600Y-138629885D01*
X175468075Y-138645124D01*
X175469465Y-138646329D01*
X175477148Y-138648000D01*
X176537684Y-138648000D01*
X176552923Y-138643525D01*
X176554128Y-138642135D01*
X176555799Y-138634452D01*
X176555799Y-138218277D01*
X178223009Y-138218277D01*
X178248625Y-138486769D01*
X178249710Y-138491203D01*
X178249711Y-138491209D01*
X178311645Y-138744312D01*
X178312731Y-138748750D01*
X178413985Y-138998733D01*
X178550265Y-139231482D01*
X178553118Y-139235049D01*
X178670686Y-139382060D01*
X178718716Y-139442119D01*
X178915809Y-139626234D01*
X179137416Y-139779968D01*
X179141499Y-139781999D01*
X179141502Y-139782001D01*
X179147267Y-139784869D01*
X179378894Y-139900101D01*
X179383228Y-139901522D01*
X179383231Y-139901523D01*
X179630853Y-139982698D01*
X179630859Y-139982699D01*
X179635186Y-139984118D01*
X179639677Y-139984898D01*
X179639678Y-139984898D01*
X179897140Y-140029601D01*
X179897148Y-140029602D01*
X179900921Y-140030257D01*
X179904758Y-140030448D01*
X179984578Y-140034422D01*
X179984586Y-140034422D01*
X179986149Y-140034500D01*
X180154512Y-140034500D01*
X180156780Y-140034335D01*
X180156792Y-140034335D01*
X180287884Y-140024823D01*
X180355004Y-140019953D01*
X180359459Y-140018969D01*
X180359462Y-140018969D01*
X180613912Y-139962791D01*
X180613916Y-139962790D01*
X180618372Y-139961806D01*
X180744480Y-139914028D01*
X180866318Y-139867868D01*
X180866321Y-139867867D01*
X180870588Y-139866250D01*
X181106368Y-139735286D01*
X181320773Y-139571657D01*
X181509312Y-139378792D01*
X181668034Y-139160730D01*
X181751190Y-139002676D01*
X181791490Y-138926079D01*
X181791493Y-138926073D01*
X181793615Y-138922039D01*
X181856378Y-138744312D01*
X181881902Y-138672033D01*
X181881902Y-138672032D01*
X181883425Y-138667720D01*
X181927184Y-138445703D01*
X181934700Y-138407572D01*
X181934701Y-138407566D01*
X181935581Y-138403100D01*
X181944782Y-138218277D01*
X182287009Y-138218277D01*
X182312625Y-138486769D01*
X182313710Y-138491203D01*
X182313711Y-138491209D01*
X182375645Y-138744312D01*
X182376731Y-138748750D01*
X182477985Y-138998733D01*
X182614265Y-139231482D01*
X182617118Y-139235049D01*
X182734686Y-139382060D01*
X182782716Y-139442119D01*
X182979809Y-139626234D01*
X183201416Y-139779968D01*
X183205499Y-139781999D01*
X183205502Y-139782001D01*
X183211267Y-139784869D01*
X183442894Y-139900101D01*
X183447228Y-139901522D01*
X183447231Y-139901523D01*
X183694853Y-139982698D01*
X183694859Y-139982699D01*
X183699186Y-139984118D01*
X183703677Y-139984898D01*
X183703678Y-139984898D01*
X183961140Y-140029601D01*
X183961148Y-140029602D01*
X183964921Y-140030257D01*
X183968758Y-140030448D01*
X184048578Y-140034422D01*
X184048586Y-140034422D01*
X184050149Y-140034500D01*
X184218512Y-140034500D01*
X184220780Y-140034335D01*
X184220792Y-140034335D01*
X184351884Y-140024823D01*
X184419004Y-140019953D01*
X184423459Y-140018969D01*
X184423462Y-140018969D01*
X184677912Y-139962791D01*
X184677916Y-139962790D01*
X184682372Y-139961806D01*
X184808480Y-139914028D01*
X184930318Y-139867868D01*
X184930321Y-139867867D01*
X184934588Y-139866250D01*
X185170368Y-139735286D01*
X185384773Y-139571657D01*
X185573312Y-139378792D01*
X185732034Y-139160730D01*
X185815190Y-139002676D01*
X185855490Y-138926079D01*
X185855493Y-138926073D01*
X185857615Y-138922039D01*
X185920378Y-138744312D01*
X185945902Y-138672033D01*
X185945902Y-138672032D01*
X185947425Y-138667720D01*
X185991184Y-138445703D01*
X185998700Y-138407572D01*
X185998701Y-138407566D01*
X185999581Y-138403100D01*
X186008782Y-138218277D01*
X186012764Y-138138292D01*
X186012764Y-138138286D01*
X186012991Y-138133723D01*
X185987375Y-137865231D01*
X185977714Y-137825746D01*
X185924355Y-137607688D01*
X185923269Y-137603250D01*
X185822015Y-137353267D01*
X185685735Y-137120518D01*
X185567928Y-136973208D01*
X185520136Y-136913447D01*
X185520135Y-136913445D01*
X185517284Y-136909881D01*
X185320191Y-136725766D01*
X185098584Y-136572032D01*
X185094501Y-136570001D01*
X185094498Y-136569999D01*
X184963430Y-136504794D01*
X184857106Y-136451899D01*
X184852772Y-136450478D01*
X184852769Y-136450477D01*
X184605147Y-136369302D01*
X184605141Y-136369301D01*
X184600814Y-136367882D01*
X184596322Y-136367102D01*
X184338860Y-136322399D01*
X184338852Y-136322398D01*
X184335079Y-136321743D01*
X184323817Y-136321182D01*
X184251422Y-136317578D01*
X184251414Y-136317578D01*
X184249851Y-136317500D01*
X184081488Y-136317500D01*
X184079220Y-136317665D01*
X184079208Y-136317665D01*
X183948116Y-136327177D01*
X183880996Y-136332047D01*
X183876541Y-136333031D01*
X183876538Y-136333031D01*
X183622088Y-136389209D01*
X183622084Y-136389210D01*
X183617628Y-136390194D01*
X183520169Y-136427118D01*
X183369682Y-136484132D01*
X183369679Y-136484133D01*
X183365412Y-136485750D01*
X183129632Y-136616714D01*
X182915227Y-136780343D01*
X182726688Y-136973208D01*
X182567966Y-137191270D01*
X182565844Y-137195304D01*
X182444510Y-137425921D01*
X182444507Y-137425927D01*
X182442385Y-137429961D01*
X182440865Y-137434266D01*
X182440863Y-137434270D01*
X182378638Y-137610476D01*
X182352575Y-137684280D01*
X182335589Y-137770460D01*
X182305105Y-137925127D01*
X182300419Y-137948900D01*
X182300192Y-137953453D01*
X182300192Y-137953456D01*
X182287777Y-138202852D01*
X182287009Y-138218277D01*
X181944782Y-138218277D01*
X181948764Y-138138292D01*
X181948764Y-138138286D01*
X181948991Y-138133723D01*
X181923375Y-137865231D01*
X181913714Y-137825746D01*
X181860355Y-137607688D01*
X181859269Y-137603250D01*
X181758015Y-137353267D01*
X181621735Y-137120518D01*
X181503928Y-136973208D01*
X181456136Y-136913447D01*
X181456135Y-136913445D01*
X181453284Y-136909881D01*
X181256191Y-136725766D01*
X181034584Y-136572032D01*
X181030501Y-136570001D01*
X181030498Y-136569999D01*
X180899430Y-136504794D01*
X180793106Y-136451899D01*
X180788772Y-136450478D01*
X180788769Y-136450477D01*
X180541147Y-136369302D01*
X180541141Y-136369301D01*
X180536814Y-136367882D01*
X180532322Y-136367102D01*
X180274860Y-136322399D01*
X180274852Y-136322398D01*
X180271079Y-136321743D01*
X180259817Y-136321182D01*
X180187422Y-136317578D01*
X180187414Y-136317578D01*
X180185851Y-136317500D01*
X180017488Y-136317500D01*
X180015220Y-136317665D01*
X180015208Y-136317665D01*
X179884116Y-136327177D01*
X179816996Y-136332047D01*
X179812541Y-136333031D01*
X179812538Y-136333031D01*
X179558088Y-136389209D01*
X179558084Y-136389210D01*
X179553628Y-136390194D01*
X179456169Y-136427118D01*
X179305682Y-136484132D01*
X179305679Y-136484133D01*
X179301412Y-136485750D01*
X179065632Y-136616714D01*
X178851227Y-136780343D01*
X178662688Y-136973208D01*
X178503966Y-137191270D01*
X178501844Y-137195304D01*
X178380510Y-137425921D01*
X178380507Y-137425927D01*
X178378385Y-137429961D01*
X178376865Y-137434266D01*
X178376863Y-137434270D01*
X178314638Y-137610476D01*
X178288575Y-137684280D01*
X178271589Y-137770460D01*
X178241105Y-137925127D01*
X178236419Y-137948900D01*
X178236192Y-137953453D01*
X178236192Y-137953456D01*
X178223777Y-138202852D01*
X178223009Y-138218277D01*
X176555799Y-138218277D01*
X176555799Y-138019131D01*
X176555429Y-138012310D01*
X176549905Y-137961448D01*
X176546279Y-137946196D01*
X176501124Y-137825746D01*
X176492586Y-137810151D01*
X176416085Y-137708076D01*
X176403524Y-137695515D01*
X176301449Y-137619014D01*
X176285854Y-137610476D01*
X176165406Y-137565322D01*
X176150151Y-137561695D01*
X176099286Y-137556169D01*
X176092472Y-137555800D01*
X175481715Y-137555800D01*
X175466476Y-137560275D01*
X175465271Y-137561665D01*
X175463600Y-137569348D01*
X175463600Y-138629885D01*
X174955600Y-138629885D01*
X174955600Y-137573916D01*
X174951125Y-137558677D01*
X174949735Y-137557472D01*
X174942052Y-137555801D01*
X174326731Y-137555801D01*
X174319910Y-137556171D01*
X174269048Y-137561695D01*
X174253796Y-137565321D01*
X174133346Y-137610476D01*
X174117751Y-137619014D01*
X174015676Y-137695515D01*
X174003115Y-137708076D01*
X173926614Y-137810151D01*
X173918076Y-137825746D01*
X173872922Y-137946194D01*
X173869295Y-137961449D01*
X173863769Y-138012314D01*
X173863400Y-138019128D01*
X173863400Y-138629885D01*
X170255799Y-138629885D01*
X170255799Y-138019131D01*
X170255429Y-138012310D01*
X170249905Y-137961448D01*
X170246279Y-137946196D01*
X170201124Y-137825746D01*
X170192586Y-137810151D01*
X170116085Y-137708076D01*
X170103524Y-137695515D01*
X170001449Y-137619014D01*
X169985854Y-137610476D01*
X169865406Y-137565322D01*
X169850151Y-137561695D01*
X169799286Y-137556169D01*
X169792472Y-137555800D01*
X169181715Y-137555800D01*
X169166476Y-137560275D01*
X169165271Y-137561665D01*
X169163600Y-137569348D01*
X169163600Y-138629885D01*
X168655600Y-138629885D01*
X168655600Y-137573916D01*
X168651125Y-137558677D01*
X168649735Y-137557472D01*
X168642052Y-137555801D01*
X168026731Y-137555801D01*
X168019910Y-137556171D01*
X167969048Y-137561695D01*
X167953796Y-137565321D01*
X167833346Y-137610476D01*
X167817751Y-137619014D01*
X167715676Y-137695515D01*
X167703115Y-137708076D01*
X167626614Y-137810151D01*
X167618076Y-137825746D01*
X167572922Y-137946194D01*
X167569295Y-137961449D01*
X167563769Y-138012314D01*
X167563400Y-138019128D01*
X167563400Y-138629885D01*
X157988500Y-138629885D01*
X157988500Y-135288334D01*
X167562900Y-135288334D01*
X167569655Y-135350516D01*
X167620785Y-135486905D01*
X167708139Y-135603461D01*
X167824695Y-135690815D01*
X167961084Y-135741945D01*
X168023266Y-135748700D01*
X169795934Y-135748700D01*
X169858116Y-135741945D01*
X169994505Y-135690815D01*
X170111061Y-135603461D01*
X170198415Y-135486905D01*
X170249545Y-135350516D01*
X170256300Y-135288334D01*
X170256300Y-133515666D01*
X170249545Y-133453484D01*
X170198415Y-133317095D01*
X170111061Y-133200539D01*
X169994505Y-133113185D01*
X169858116Y-133062055D01*
X169795934Y-133055300D01*
X168023266Y-133055300D01*
X167961084Y-133062055D01*
X167824695Y-133113185D01*
X167708139Y-133200539D01*
X167620785Y-133317095D01*
X167569655Y-133453484D01*
X167562900Y-133515666D01*
X167562900Y-135288334D01*
X157988500Y-135288334D01*
X157988500Y-131620134D01*
X158495500Y-131620134D01*
X158502255Y-131682316D01*
X158553385Y-131818705D01*
X158640739Y-131935261D01*
X158757295Y-132022615D01*
X158893684Y-132073745D01*
X158955866Y-132080500D01*
X160576134Y-132080500D01*
X160638316Y-132073745D01*
X160774705Y-132022615D01*
X160891261Y-131935261D01*
X160935487Y-131876251D01*
X160992344Y-131833736D01*
X161063163Y-131828710D01*
X161125456Y-131862770D01*
X161137138Y-131876251D01*
X161175715Y-131927724D01*
X161188276Y-131940285D01*
X161290351Y-132016786D01*
X161305946Y-132025324D01*
X161426394Y-132070478D01*
X161441649Y-132074105D01*
X161492514Y-132079631D01*
X161499328Y-132080000D01*
X162033885Y-132080000D01*
X162049124Y-132075525D01*
X162050329Y-132074135D01*
X162052000Y-132066452D01*
X162052000Y-132061884D01*
X162560000Y-132061884D01*
X162564475Y-132077123D01*
X162565865Y-132078328D01*
X162573548Y-132079999D01*
X163112669Y-132079999D01*
X163119490Y-132079629D01*
X163170352Y-132074105D01*
X163185604Y-132070479D01*
X163306054Y-132025324D01*
X163321649Y-132016786D01*
X163423724Y-131940285D01*
X163436285Y-131927724D01*
X163512786Y-131825649D01*
X163521324Y-131810054D01*
X163566478Y-131689606D01*
X163570105Y-131674351D01*
X163575631Y-131623486D01*
X163576000Y-131616672D01*
X163576000Y-131082115D01*
X163571525Y-131066876D01*
X163570135Y-131065671D01*
X163562452Y-131064000D01*
X162578115Y-131064000D01*
X162562876Y-131068475D01*
X162561671Y-131069865D01*
X162560000Y-131077548D01*
X162560000Y-132061884D01*
X162052000Y-132061884D01*
X162052000Y-130682000D01*
X162072002Y-130613879D01*
X162125658Y-130567386D01*
X162178000Y-130556000D01*
X163557884Y-130556000D01*
X163573123Y-130551525D01*
X163574328Y-130550135D01*
X163575999Y-130542452D01*
X163575999Y-130003331D01*
X163575629Y-129996510D01*
X163570105Y-129945648D01*
X163566479Y-129930396D01*
X163521324Y-129809946D01*
X163512786Y-129794351D01*
X163436285Y-129692276D01*
X163423724Y-129679715D01*
X163372251Y-129641138D01*
X163329736Y-129584279D01*
X163324710Y-129513460D01*
X163358770Y-129451167D01*
X163372245Y-129439491D01*
X163431261Y-129395261D01*
X163518615Y-129278705D01*
X163569745Y-129142316D01*
X163576500Y-129080134D01*
X163576500Y-127459866D01*
X163569745Y-127397684D01*
X163518615Y-127261295D01*
X163431261Y-127144739D01*
X163372668Y-127100826D01*
X163330153Y-127043967D01*
X163325127Y-126973148D01*
X163359187Y-126910855D01*
X163372668Y-126899174D01*
X163424081Y-126860642D01*
X163431261Y-126855261D01*
X163518615Y-126738705D01*
X163569745Y-126602316D01*
X163576500Y-126540134D01*
X163576500Y-124919866D01*
X163569745Y-124857684D01*
X163518615Y-124721295D01*
X163431261Y-124604739D01*
X163372668Y-124560826D01*
X163330153Y-124503967D01*
X163325127Y-124433148D01*
X163359187Y-124370855D01*
X163372668Y-124359174D01*
X163374343Y-124357919D01*
X163431261Y-124315261D01*
X163518615Y-124198705D01*
X163569745Y-124062316D01*
X163576500Y-124000134D01*
X163576500Y-123653143D01*
X165502580Y-123653143D01*
X165503326Y-123661035D01*
X165506741Y-123697161D01*
X165507300Y-123709019D01*
X165507300Y-129435233D01*
X165506773Y-129446416D01*
X165505098Y-129453909D01*
X165505347Y-129461835D01*
X165505347Y-129461836D01*
X165507238Y-129521986D01*
X165507300Y-129525945D01*
X165507300Y-129553856D01*
X165507797Y-129557790D01*
X165507797Y-129557791D01*
X165507805Y-129557856D01*
X165508738Y-129569693D01*
X165510127Y-129613889D01*
X165514650Y-129629456D01*
X165515778Y-129633339D01*
X165519787Y-129652700D01*
X165522326Y-129672797D01*
X165525245Y-129680168D01*
X165525245Y-129680170D01*
X165538604Y-129713912D01*
X165542449Y-129725142D01*
X165551771Y-129757230D01*
X165554782Y-129767593D01*
X165558815Y-129774412D01*
X165558817Y-129774417D01*
X165565093Y-129785028D01*
X165573788Y-129802776D01*
X165581248Y-129821617D01*
X165585910Y-129828033D01*
X165585910Y-129828034D01*
X165607236Y-129857387D01*
X165613752Y-129867307D01*
X165636258Y-129905362D01*
X165650579Y-129919683D01*
X165663419Y-129934716D01*
X165675328Y-129951107D01*
X165681434Y-129956158D01*
X165709405Y-129979298D01*
X165718184Y-129987288D01*
X167533638Y-131802742D01*
X167567664Y-131865054D01*
X167569852Y-131878663D01*
X167587218Y-132043888D01*
X167646233Y-132225516D01*
X167741720Y-132390904D01*
X167869507Y-132532826D01*
X168024008Y-132645078D01*
X168030036Y-132647762D01*
X168030038Y-132647763D01*
X168172166Y-132711042D01*
X168198472Y-132722754D01*
X168291873Y-132742607D01*
X168378816Y-132761088D01*
X168378821Y-132761088D01*
X168385273Y-132762460D01*
X168576247Y-132762460D01*
X168582699Y-132761088D01*
X168582704Y-132761088D01*
X168669647Y-132742607D01*
X168763048Y-132722754D01*
X168789354Y-132711042D01*
X168931482Y-132647763D01*
X168931484Y-132647762D01*
X168937512Y-132645078D01*
X169060787Y-132555513D01*
X169127652Y-132531656D01*
X169175159Y-132539319D01*
X169175242Y-132538996D01*
X169182916Y-132540967D01*
X169182917Y-132540967D01*
X169194863Y-132544034D01*
X169213568Y-132550438D01*
X169232156Y-132558482D01*
X169239979Y-132559721D01*
X169239989Y-132559724D01*
X169275825Y-132565400D01*
X169287445Y-132567806D01*
X169322590Y-132576829D01*
X169330271Y-132578801D01*
X169350525Y-132578801D01*
X169370235Y-132580352D01*
X169390244Y-132583521D01*
X169398136Y-132582775D01*
X169434262Y-132579360D01*
X169446120Y-132578801D01*
X176214432Y-132578801D01*
X176282553Y-132598803D01*
X176329046Y-132652459D01*
X176339742Y-132691634D01*
X176341122Y-132704764D01*
X176400137Y-132886392D01*
X176418681Y-132918510D01*
X176420712Y-132922029D01*
X176437449Y-132991025D01*
X176414228Y-133058116D01*
X176358420Y-133102003D01*
X176287745Y-133108751D01*
X176267367Y-133103011D01*
X176158116Y-133062055D01*
X176095934Y-133055300D01*
X174323266Y-133055300D01*
X174261084Y-133062055D01*
X174124695Y-133113185D01*
X174008139Y-133200539D01*
X173920785Y-133317095D01*
X173869655Y-133453484D01*
X173862900Y-133515666D01*
X173862900Y-135288334D01*
X173869655Y-135350516D01*
X173920785Y-135486905D01*
X174008139Y-135603461D01*
X174124695Y-135690815D01*
X174261084Y-135741945D01*
X174323266Y-135748700D01*
X176095934Y-135748700D01*
X176158116Y-135741945D01*
X176294505Y-135690815D01*
X176411061Y-135603461D01*
X176416442Y-135596281D01*
X176421378Y-135591345D01*
X176483690Y-135557319D01*
X176554505Y-135562384D01*
X176611341Y-135604931D01*
X176635782Y-135667269D01*
X176643340Y-135739171D01*
X176647709Y-135780739D01*
X176652458Y-135825928D01*
X176711473Y-136007556D01*
X176806960Y-136172944D01*
X176934747Y-136314866D01*
X177089248Y-136427118D01*
X177095276Y-136429802D01*
X177095278Y-136429803D01*
X177257681Y-136502109D01*
X177263712Y-136504794D01*
X177357112Y-136524647D01*
X177444056Y-136543128D01*
X177444061Y-136543128D01*
X177450513Y-136544500D01*
X177641487Y-136544500D01*
X177647939Y-136543128D01*
X177647944Y-136543128D01*
X177734888Y-136524647D01*
X177828288Y-136504794D01*
X177834319Y-136502109D01*
X177996722Y-136429803D01*
X177996724Y-136429802D01*
X178002752Y-136427118D01*
X178157253Y-136314866D01*
X178285040Y-136172944D01*
X178380527Y-136007556D01*
X178435387Y-135838714D01*
X178466125Y-135788556D01*
X178681211Y-135573470D01*
X178695623Y-135561084D01*
X178707218Y-135552551D01*
X178707223Y-135552546D01*
X178713118Y-135548208D01*
X178717857Y-135542630D01*
X178717860Y-135542627D01*
X178747335Y-135507932D01*
X178754265Y-135500416D01*
X178759960Y-135494721D01*
X178777581Y-135472449D01*
X178780372Y-135469045D01*
X178822891Y-135418997D01*
X178822892Y-135418995D01*
X178827633Y-135413415D01*
X178830961Y-135406899D01*
X178834328Y-135401850D01*
X178837495Y-135396721D01*
X178842034Y-135390984D01*
X178872955Y-135324825D01*
X178874861Y-135320925D01*
X178886125Y-135298866D01*
X178908069Y-135255892D01*
X178909808Y-135248784D01*
X178911907Y-135243141D01*
X178913824Y-135237378D01*
X178916922Y-135230750D01*
X178931787Y-135159283D01*
X178932757Y-135155000D01*
X178949678Y-135085846D01*
X178985297Y-135024431D01*
X179048465Y-134992023D01*
X179119127Y-134998911D01*
X179174847Y-135042908D01*
X179181186Y-135052793D01*
X179241318Y-135156944D01*
X179245736Y-135161851D01*
X179245737Y-135161852D01*
X179336280Y-135262410D01*
X179369105Y-135298866D01*
X179402138Y-135322866D01*
X179518262Y-135407235D01*
X179523606Y-135411118D01*
X179529634Y-135413802D01*
X179529636Y-135413803D01*
X179657470Y-135470718D01*
X179698070Y-135488794D01*
X179788107Y-135507932D01*
X179878414Y-135527128D01*
X179878419Y-135527128D01*
X179884871Y-135528500D01*
X180075845Y-135528500D01*
X180082297Y-135527128D01*
X180082302Y-135527128D01*
X180172609Y-135507932D01*
X180262646Y-135488794D01*
X180303246Y-135470718D01*
X180431080Y-135413803D01*
X180431082Y-135413802D01*
X180437110Y-135411118D01*
X180442449Y-135407239D01*
X180442456Y-135407235D01*
X180448886Y-135402563D01*
X180522945Y-135378500D01*
X199552140Y-135378500D01*
X199571090Y-135379933D01*
X199585325Y-135382099D01*
X199585329Y-135382099D01*
X199592559Y-135383199D01*
X199599851Y-135382606D01*
X199599854Y-135382606D01*
X199645228Y-135378915D01*
X199655443Y-135378500D01*
X199663503Y-135378500D01*
X199676793Y-135376951D01*
X199691717Y-135375211D01*
X199696092Y-135374778D01*
X199761549Y-135369454D01*
X199761552Y-135369453D01*
X199768847Y-135368860D01*
X199775811Y-135366604D01*
X199781770Y-135365413D01*
X199787625Y-135364029D01*
X199794891Y-135363182D01*
X199863537Y-135338265D01*
X199867665Y-135336848D01*
X199930146Y-135316607D01*
X199930148Y-135316606D01*
X199937109Y-135314351D01*
X199943364Y-135310555D01*
X199948838Y-135308049D01*
X199954268Y-135305330D01*
X199961147Y-135302833D01*
X199978080Y-135291731D01*
X200022186Y-135262814D01*
X200025890Y-135260477D01*
X200088317Y-135222595D01*
X200096694Y-135215197D01*
X200096718Y-135215224D01*
X200099710Y-135212571D01*
X200102943Y-135209868D01*
X200109062Y-135205856D01*
X200162338Y-135149617D01*
X200164716Y-135147175D01*
X201504511Y-133807380D01*
X201518923Y-133794994D01*
X201530518Y-133786461D01*
X201530523Y-133786456D01*
X201536418Y-133782118D01*
X201541157Y-133776540D01*
X201541160Y-133776537D01*
X201570635Y-133741842D01*
X201577565Y-133734326D01*
X201583261Y-133728630D01*
X201585524Y-133725769D01*
X201585529Y-133725764D01*
X201600893Y-133706344D01*
X201603682Y-133702943D01*
X201605343Y-133700988D01*
X201650933Y-133647325D01*
X201654259Y-133640812D01*
X201657620Y-133635773D01*
X201660796Y-133630631D01*
X201665334Y-133624894D01*
X201696255Y-133558735D01*
X201698161Y-133554835D01*
X201718162Y-133515666D01*
X201731369Y-133489802D01*
X201733108Y-133482693D01*
X201735204Y-133477059D01*
X201737123Y-133471289D01*
X201740222Y-133464660D01*
X201755091Y-133393175D01*
X201756061Y-133388892D01*
X201772073Y-133323454D01*
X201773408Y-133318000D01*
X201774100Y-133306846D01*
X201774135Y-133306848D01*
X201774375Y-133302876D01*
X201774752Y-133298655D01*
X201776241Y-133291495D01*
X201774146Y-133214068D01*
X201774100Y-133210660D01*
X201774100Y-132439199D01*
X201790981Y-132376199D01*
X201846823Y-132279479D01*
X201846824Y-132279478D01*
X201850127Y-132273756D01*
X201909142Y-132092128D01*
X201910456Y-132079631D01*
X201928414Y-131908765D01*
X201929104Y-131902200D01*
X201909142Y-131712272D01*
X201910883Y-131712089D01*
X201915631Y-131649902D01*
X201958450Y-131593271D01*
X202025088Y-131568779D01*
X202033474Y-131568500D01*
X203818730Y-131568500D01*
X203837680Y-131569933D01*
X203851915Y-131572099D01*
X203851919Y-131572099D01*
X203859149Y-131573199D01*
X203866441Y-131572606D01*
X203866444Y-131572606D01*
X203911818Y-131568915D01*
X203922033Y-131568500D01*
X203930093Y-131568500D01*
X203943383Y-131566951D01*
X203958307Y-131565211D01*
X203962682Y-131564778D01*
X204028139Y-131559454D01*
X204028142Y-131559453D01*
X204035437Y-131558860D01*
X204042401Y-131556604D01*
X204048360Y-131555413D01*
X204054215Y-131554029D01*
X204061481Y-131553182D01*
X204130127Y-131528265D01*
X204134255Y-131526848D01*
X204196736Y-131506607D01*
X204196738Y-131506606D01*
X204203699Y-131504351D01*
X204209954Y-131500555D01*
X204215428Y-131498049D01*
X204220858Y-131495330D01*
X204227737Y-131492833D01*
X204288776Y-131452814D01*
X204292480Y-131450477D01*
X204354907Y-131412595D01*
X204363284Y-131405197D01*
X204363308Y-131405224D01*
X204366300Y-131402571D01*
X204369533Y-131399868D01*
X204375652Y-131395856D01*
X204403808Y-131366134D01*
X211835500Y-131366134D01*
X211842255Y-131428316D01*
X211893385Y-131564705D01*
X211980739Y-131681261D01*
X212097295Y-131768615D01*
X212233684Y-131819745D01*
X212295866Y-131826500D01*
X213916134Y-131826500D01*
X213978316Y-131819745D01*
X214114705Y-131768615D01*
X214231261Y-131681261D01*
X214275174Y-131622668D01*
X214332033Y-131580153D01*
X214402852Y-131575127D01*
X214465145Y-131609187D01*
X214476825Y-131622667D01*
X214520739Y-131681261D01*
X214637295Y-131768615D01*
X214773684Y-131819745D01*
X214835866Y-131826500D01*
X216456134Y-131826500D01*
X216518316Y-131819745D01*
X216654705Y-131768615D01*
X216771261Y-131681261D01*
X216858615Y-131564705D01*
X216909745Y-131428316D01*
X216916500Y-131366134D01*
X216916500Y-129745866D01*
X216909745Y-129683684D01*
X216858615Y-129547295D01*
X216771261Y-129430739D01*
X216712668Y-129386826D01*
X216670153Y-129329967D01*
X216665127Y-129259148D01*
X216699187Y-129196855D01*
X216712668Y-129185174D01*
X216764081Y-129146642D01*
X216771261Y-129141261D01*
X216858615Y-129024705D01*
X216909745Y-128888316D01*
X216916500Y-128826134D01*
X216916500Y-127205866D01*
X216909745Y-127143684D01*
X216858615Y-127007295D01*
X216771261Y-126890739D01*
X216712668Y-126846826D01*
X216670153Y-126789967D01*
X216665127Y-126719148D01*
X216699187Y-126656855D01*
X216712668Y-126645174D01*
X216764081Y-126606642D01*
X216771261Y-126601261D01*
X216858615Y-126484705D01*
X216909745Y-126348316D01*
X216916500Y-126286134D01*
X216916500Y-124665866D01*
X216909745Y-124603684D01*
X216858615Y-124467295D01*
X216771261Y-124350739D01*
X216712668Y-124306826D01*
X216670153Y-124249967D01*
X216665127Y-124179148D01*
X216699187Y-124116855D01*
X216712668Y-124105174D01*
X216764081Y-124066642D01*
X216771261Y-124061261D01*
X216858615Y-123944705D01*
X216909745Y-123808316D01*
X216916500Y-123746134D01*
X216916500Y-122125866D01*
X216909745Y-122063684D01*
X216858615Y-121927295D01*
X216771261Y-121810739D01*
X216712668Y-121766826D01*
X216670153Y-121709967D01*
X216665127Y-121639148D01*
X216699187Y-121576855D01*
X216712668Y-121565174D01*
X216764081Y-121526642D01*
X216771261Y-121521261D01*
X216858615Y-121404705D01*
X216909745Y-121268316D01*
X216916500Y-121206134D01*
X216916500Y-119585866D01*
X216909745Y-119523684D01*
X216858615Y-119387295D01*
X216771261Y-119270739D01*
X216712668Y-119226826D01*
X216670153Y-119169967D01*
X216665127Y-119099148D01*
X216699187Y-119036855D01*
X216712668Y-119025174D01*
X216764081Y-118986642D01*
X216771261Y-118981261D01*
X216858615Y-118864705D01*
X216909745Y-118728316D01*
X216916500Y-118666134D01*
X216916500Y-117045866D01*
X216909745Y-116983684D01*
X216858615Y-116847295D01*
X216771261Y-116730739D01*
X216712668Y-116686826D01*
X216670153Y-116629967D01*
X216665127Y-116559148D01*
X216699187Y-116496855D01*
X216712668Y-116485174D01*
X216764081Y-116446642D01*
X216771261Y-116441261D01*
X216858615Y-116324705D01*
X216909745Y-116188316D01*
X216916500Y-116126134D01*
X216916500Y-114505866D01*
X216909745Y-114443684D01*
X216858615Y-114307295D01*
X216771261Y-114190739D01*
X216712668Y-114146826D01*
X216670153Y-114089967D01*
X216665127Y-114019148D01*
X216699187Y-113956855D01*
X216712668Y-113945174D01*
X216764081Y-113906642D01*
X216771261Y-113901261D01*
X216858615Y-113784705D01*
X216909745Y-113648316D01*
X216916500Y-113586134D01*
X216916500Y-111965866D01*
X216909745Y-111903684D01*
X216858615Y-111767295D01*
X216771261Y-111650739D01*
X216654705Y-111563385D01*
X216518316Y-111512255D01*
X216456134Y-111505500D01*
X214835866Y-111505500D01*
X214773684Y-111512255D01*
X214637295Y-111563385D01*
X214520739Y-111650739D01*
X214500489Y-111677758D01*
X214476826Y-111709332D01*
X214419967Y-111751847D01*
X214349148Y-111756873D01*
X214286855Y-111722813D01*
X214275174Y-111709332D01*
X214251511Y-111677758D01*
X214231261Y-111650739D01*
X214114705Y-111563385D01*
X213978316Y-111512255D01*
X213916134Y-111505500D01*
X212295866Y-111505500D01*
X212233684Y-111512255D01*
X212097295Y-111563385D01*
X211980739Y-111650739D01*
X211893385Y-111767295D01*
X211842255Y-111903684D01*
X211835500Y-111965866D01*
X211835500Y-113586134D01*
X211842255Y-113648316D01*
X211893385Y-113784705D01*
X211980739Y-113901261D01*
X211987919Y-113906642D01*
X212039332Y-113945174D01*
X212081847Y-114002033D01*
X212086873Y-114072852D01*
X212052813Y-114135145D01*
X212039333Y-114146825D01*
X211980739Y-114190739D01*
X211893385Y-114307295D01*
X211842255Y-114443684D01*
X211835500Y-114505866D01*
X211835500Y-116126134D01*
X211842255Y-116188316D01*
X211893385Y-116324705D01*
X211980739Y-116441261D01*
X211987919Y-116446642D01*
X212039332Y-116485174D01*
X212081847Y-116542033D01*
X212086873Y-116612852D01*
X212052813Y-116675145D01*
X212039333Y-116686825D01*
X211980739Y-116730739D01*
X211893385Y-116847295D01*
X211842255Y-116983684D01*
X211835500Y-117045866D01*
X211835500Y-118666134D01*
X211842255Y-118728316D01*
X211893385Y-118864705D01*
X211980739Y-118981261D01*
X211987919Y-118986642D01*
X212039332Y-119025174D01*
X212081847Y-119082033D01*
X212086873Y-119152852D01*
X212052813Y-119215145D01*
X212039333Y-119226825D01*
X211980739Y-119270739D01*
X211893385Y-119387295D01*
X211842255Y-119523684D01*
X211835500Y-119585866D01*
X211835500Y-121206134D01*
X211842255Y-121268316D01*
X211893385Y-121404705D01*
X211980739Y-121521261D01*
X211987919Y-121526642D01*
X212039332Y-121565174D01*
X212081847Y-121622033D01*
X212086873Y-121692852D01*
X212052813Y-121755145D01*
X212039333Y-121766825D01*
X211980739Y-121810739D01*
X211893385Y-121927295D01*
X211842255Y-122063684D01*
X211835500Y-122125866D01*
X211835500Y-123746134D01*
X211842255Y-123808316D01*
X211893385Y-123944705D01*
X211980739Y-124061261D01*
X211987919Y-124066642D01*
X212039332Y-124105174D01*
X212081847Y-124162033D01*
X212086873Y-124232852D01*
X212052813Y-124295145D01*
X212039333Y-124306825D01*
X211980739Y-124350739D01*
X211893385Y-124467295D01*
X211842255Y-124603684D01*
X211835500Y-124665866D01*
X211835500Y-126286134D01*
X211842255Y-126348316D01*
X211893385Y-126484705D01*
X211980739Y-126601261D01*
X211987919Y-126606642D01*
X212039332Y-126645174D01*
X212081847Y-126702033D01*
X212086873Y-126772852D01*
X212052813Y-126835145D01*
X212039333Y-126846825D01*
X211980739Y-126890739D01*
X211893385Y-127007295D01*
X211842255Y-127143684D01*
X211835500Y-127205866D01*
X211835500Y-128826134D01*
X211842255Y-128888316D01*
X211893385Y-129024705D01*
X211980739Y-129141261D01*
X211987919Y-129146642D01*
X212039332Y-129185174D01*
X212081847Y-129242033D01*
X212086873Y-129312852D01*
X212052813Y-129375145D01*
X212039333Y-129386825D01*
X211980739Y-129430739D01*
X211893385Y-129547295D01*
X211842255Y-129683684D01*
X211835500Y-129745866D01*
X211835500Y-131366134D01*
X204403808Y-131366134D01*
X204428928Y-131339617D01*
X204431306Y-131337175D01*
X210038911Y-125729570D01*
X210053323Y-125717184D01*
X210064918Y-125708651D01*
X210064923Y-125708646D01*
X210070818Y-125704308D01*
X210075557Y-125698730D01*
X210075560Y-125698727D01*
X210105035Y-125664032D01*
X210111965Y-125656516D01*
X210117660Y-125650821D01*
X210135281Y-125628549D01*
X210138072Y-125625145D01*
X210180591Y-125575097D01*
X210180592Y-125575095D01*
X210185333Y-125569515D01*
X210188661Y-125562999D01*
X210192020Y-125557962D01*
X210195194Y-125552823D01*
X210199734Y-125547084D01*
X210230636Y-125480963D01*
X210232569Y-125477009D01*
X210236576Y-125469162D01*
X210265769Y-125411992D01*
X210267510Y-125404876D01*
X210269604Y-125399246D01*
X210271523Y-125393479D01*
X210274621Y-125386850D01*
X210278577Y-125367834D01*
X210289482Y-125315404D01*
X210290453Y-125311115D01*
X210306473Y-125245644D01*
X210307808Y-125240190D01*
X210308500Y-125229036D01*
X210308536Y-125229038D01*
X210308775Y-125225048D01*
X210309150Y-125220850D01*
X210310640Y-125213685D01*
X210308546Y-125136279D01*
X210308500Y-125132872D01*
X210308500Y-111280999D01*
X210325381Y-111217999D01*
X210381223Y-111121279D01*
X210381224Y-111121278D01*
X210384527Y-111115556D01*
X210443542Y-110933928D01*
X210455175Y-110823251D01*
X210462814Y-110750565D01*
X210463504Y-110744000D01*
X210452280Y-110637206D01*
X210444232Y-110560635D01*
X210444232Y-110560633D01*
X210443542Y-110554072D01*
X210384527Y-110372444D01*
X210354272Y-110320040D01*
X210309795Y-110243005D01*
X210289040Y-110207056D01*
X210278965Y-110195866D01*
X210165675Y-110070045D01*
X210165674Y-110070044D01*
X210161253Y-110065134D01*
X210006752Y-109952882D01*
X210000724Y-109950198D01*
X210000722Y-109950197D01*
X209838319Y-109877891D01*
X209838318Y-109877891D01*
X209832288Y-109875206D01*
X209738887Y-109855353D01*
X209651944Y-109836872D01*
X209651939Y-109836872D01*
X209645487Y-109835500D01*
X209454513Y-109835500D01*
X209448061Y-109836872D01*
X209448056Y-109836872D01*
X209361113Y-109855353D01*
X209267712Y-109875206D01*
X209261682Y-109877891D01*
X209261681Y-109877891D01*
X209099278Y-109950197D01*
X209099276Y-109950198D01*
X209093248Y-109952882D01*
X208938747Y-110065134D01*
X208934326Y-110070044D01*
X208934325Y-110070045D01*
X208821036Y-110195866D01*
X208810960Y-110207056D01*
X208790205Y-110243005D01*
X208745729Y-110320040D01*
X208715473Y-110372444D01*
X208656458Y-110554072D01*
X208655768Y-110560633D01*
X208655768Y-110560635D01*
X208647720Y-110637206D01*
X208636496Y-110744000D01*
X208637186Y-110750565D01*
X208644826Y-110823251D01*
X208656458Y-110933928D01*
X208715473Y-111115556D01*
X208718776Y-111121278D01*
X208718777Y-111121279D01*
X208774619Y-111217999D01*
X208791500Y-111280999D01*
X208791500Y-116077352D01*
X208771498Y-116145473D01*
X208717842Y-116191966D01*
X208647568Y-116202070D01*
X208582005Y-116171369D01*
X208579263Y-116168324D01*
X208462994Y-116083849D01*
X208430104Y-116059953D01*
X208430103Y-116059952D01*
X208424762Y-116056072D01*
X208418734Y-116053388D01*
X208418732Y-116053387D01*
X208256329Y-115981081D01*
X208256328Y-115981081D01*
X208250298Y-115978396D01*
X208133911Y-115953657D01*
X208069954Y-115940062D01*
X208069949Y-115940062D01*
X208063497Y-115938690D01*
X207872523Y-115938690D01*
X207866071Y-115940062D01*
X207866066Y-115940062D01*
X207802109Y-115953657D01*
X207685722Y-115978396D01*
X207679692Y-115981081D01*
X207679691Y-115981081D01*
X207517288Y-116053387D01*
X207517286Y-116053388D01*
X207511258Y-116056072D01*
X207505917Y-116059952D01*
X207505916Y-116059953D01*
X207473026Y-116083849D01*
X207356757Y-116168324D01*
X207352336Y-116173234D01*
X207352335Y-116173235D01*
X207248691Y-116288344D01*
X207228970Y-116310246D01*
X207220622Y-116324705D01*
X207150222Y-116446642D01*
X207133483Y-116475634D01*
X207074468Y-116657262D01*
X207073778Y-116663823D01*
X207073778Y-116663825D01*
X207059584Y-116798871D01*
X207054506Y-116847190D01*
X207055196Y-116853755D01*
X207069678Y-116991540D01*
X207074468Y-117037118D01*
X207133483Y-117218746D01*
X207181778Y-117302394D01*
X207192629Y-117321189D01*
X207209510Y-117384189D01*
X207209510Y-124888219D01*
X207189508Y-124956340D01*
X207172605Y-124977314D01*
X206423049Y-125726870D01*
X206360737Y-125760896D01*
X206289922Y-125755831D01*
X206232017Y-125711834D01*
X206228341Y-125706774D01*
X206225040Y-125701056D01*
X206191704Y-125664032D01*
X206101675Y-125564045D01*
X206101674Y-125564044D01*
X206097253Y-125559134D01*
X205982829Y-125476000D01*
X205948094Y-125450763D01*
X205948093Y-125450762D01*
X205942752Y-125446882D01*
X205936724Y-125444198D01*
X205936722Y-125444197D01*
X205774319Y-125371891D01*
X205774318Y-125371891D01*
X205768288Y-125369206D01*
X205674887Y-125349353D01*
X205587944Y-125330872D01*
X205587939Y-125330872D01*
X205581487Y-125329500D01*
X205390513Y-125329500D01*
X205384061Y-125330872D01*
X205384056Y-125330872D01*
X205297113Y-125349353D01*
X205203712Y-125369206D01*
X205197682Y-125371891D01*
X205197681Y-125371891D01*
X205035278Y-125444197D01*
X205035276Y-125444198D01*
X205029248Y-125446882D01*
X205023907Y-125450762D01*
X205023906Y-125450763D01*
X204989171Y-125476000D01*
X204874747Y-125559134D01*
X204870326Y-125564044D01*
X204870325Y-125564045D01*
X204780297Y-125664032D01*
X204746960Y-125701056D01*
X204730104Y-125730251D01*
X204677415Y-125821512D01*
X204651473Y-125866444D01*
X204598124Y-126030636D01*
X204596613Y-126035285D01*
X204565875Y-126085444D01*
X202363924Y-128287395D01*
X202301612Y-128321421D01*
X202274829Y-128324300D01*
X198994371Y-128324300D01*
X198926250Y-128304298D01*
X198905276Y-128287395D01*
X190383678Y-119765797D01*
X194553599Y-119765797D01*
X194573561Y-119955725D01*
X194632576Y-120137353D01*
X194728063Y-120302741D01*
X194855850Y-120444663D01*
X194892901Y-120471582D01*
X194986635Y-120539684D01*
X195010351Y-120556915D01*
X195016379Y-120559599D01*
X195016381Y-120559600D01*
X195178784Y-120631906D01*
X195184815Y-120634591D01*
X195278215Y-120654444D01*
X195365159Y-120672925D01*
X195365164Y-120672925D01*
X195371616Y-120674297D01*
X195562590Y-120674297D01*
X195569042Y-120672925D01*
X195569047Y-120672925D01*
X195655991Y-120654444D01*
X195749391Y-120634591D01*
X195755422Y-120631906D01*
X195917825Y-120559600D01*
X195917827Y-120559599D01*
X195923855Y-120556915D01*
X195947572Y-120539684D01*
X196041305Y-120471582D01*
X196078356Y-120444663D01*
X196206143Y-120302741D01*
X196301630Y-120137353D01*
X196360645Y-119955725D01*
X196380607Y-119765797D01*
X196379917Y-119759232D01*
X196361336Y-119582439D01*
X196361335Y-119582432D01*
X196360645Y-119575869D01*
X196345798Y-119530175D01*
X196343770Y-119459210D01*
X196376536Y-119402145D01*
X196498331Y-119280350D01*
X196561228Y-119246199D01*
X196617824Y-119234169D01*
X196617833Y-119234166D01*
X196624288Y-119232794D01*
X196630319Y-119230109D01*
X196792722Y-119157803D01*
X196792724Y-119157802D01*
X196798752Y-119155118D01*
X196836530Y-119127671D01*
X196916857Y-119069309D01*
X196953253Y-119042866D01*
X197081040Y-118900944D01*
X197176527Y-118735556D01*
X197235542Y-118553928D01*
X197243144Y-118481604D01*
X197254814Y-118370565D01*
X197255504Y-118364000D01*
X197235542Y-118174072D01*
X197176527Y-117992444D01*
X197081040Y-117827056D01*
X196953253Y-117685134D01*
X196838388Y-117601679D01*
X196804094Y-117576763D01*
X196804093Y-117576762D01*
X196798752Y-117572882D01*
X196792724Y-117570198D01*
X196792722Y-117570197D01*
X196630319Y-117497891D01*
X196630318Y-117497891D01*
X196624288Y-117495206D01*
X196530887Y-117475353D01*
X196443944Y-117456872D01*
X196443939Y-117456872D01*
X196437487Y-117455500D01*
X196246513Y-117455500D01*
X196240061Y-117456872D01*
X196240056Y-117456872D01*
X196153113Y-117475353D01*
X196059712Y-117495206D01*
X196053682Y-117497891D01*
X196053681Y-117497891D01*
X195891278Y-117570197D01*
X195891276Y-117570198D01*
X195885248Y-117572882D01*
X195879907Y-117576762D01*
X195879906Y-117576763D01*
X195845612Y-117601679D01*
X195730747Y-117685134D01*
X195602960Y-117827056D01*
X195507473Y-117992444D01*
X195465493Y-118121646D01*
X195452613Y-118161285D01*
X195421875Y-118211444D01*
X194978192Y-118655127D01*
X194963780Y-118667513D01*
X194952185Y-118676046D01*
X194952180Y-118676051D01*
X194946285Y-118680389D01*
X194941546Y-118685967D01*
X194941543Y-118685970D01*
X194912068Y-118720665D01*
X194905138Y-118728181D01*
X194899443Y-118733876D01*
X194897163Y-118736758D01*
X194881822Y-118756148D01*
X194879031Y-118759552D01*
X194837204Y-118808786D01*
X194831770Y-118815182D01*
X194828442Y-118821698D01*
X194825075Y-118826747D01*
X194821908Y-118831876D01*
X194817369Y-118837613D01*
X194786448Y-118903772D01*
X194784545Y-118907666D01*
X194751334Y-118972705D01*
X194749595Y-118979813D01*
X194747496Y-118985456D01*
X194745579Y-118991219D01*
X194742481Y-118997847D01*
X194740991Y-119005009D01*
X194740991Y-119005010D01*
X194727617Y-119069309D01*
X194726647Y-119073593D01*
X194709295Y-119144507D01*
X194708603Y-119155661D01*
X194708567Y-119155659D01*
X194708328Y-119159652D01*
X194707954Y-119163844D01*
X194706463Y-119171012D01*
X194706661Y-119178328D01*
X194707962Y-119226421D01*
X194691127Y-119292828D01*
X194632576Y-119394241D01*
X194573561Y-119575869D01*
X194572871Y-119582430D01*
X194572871Y-119582432D01*
X194556694Y-119736351D01*
X194553599Y-119765797D01*
X190383678Y-119765797D01*
X185781325Y-115163444D01*
X185750587Y-115113285D01*
X185722590Y-115027118D01*
X185695727Y-114944444D01*
X185679403Y-114916169D01*
X185611170Y-114797987D01*
X185600240Y-114779056D01*
X185563714Y-114738489D01*
X185476875Y-114642045D01*
X185476874Y-114642044D01*
X185472453Y-114637134D01*
X185317952Y-114524882D01*
X185311924Y-114522198D01*
X185311922Y-114522197D01*
X185149519Y-114449891D01*
X185149518Y-114449891D01*
X185143488Y-114447206D01*
X185050087Y-114427353D01*
X184963144Y-114408872D01*
X184963139Y-114408872D01*
X184956687Y-114407500D01*
X184765713Y-114407500D01*
X184759261Y-114408872D01*
X184759256Y-114408872D01*
X184672313Y-114427353D01*
X184578912Y-114447206D01*
X184572882Y-114449891D01*
X184572881Y-114449891D01*
X184547045Y-114461394D01*
X184476678Y-114470828D01*
X184412381Y-114440721D01*
X184377814Y-114390517D01*
X184349767Y-114315703D01*
X184346615Y-114307295D01*
X184259261Y-114190739D01*
X184200668Y-114146826D01*
X184158153Y-114089967D01*
X184153127Y-114019148D01*
X184187187Y-113956855D01*
X184200668Y-113945174D01*
X184252081Y-113906642D01*
X184259261Y-113901261D01*
X184346615Y-113784705D01*
X184397745Y-113648316D01*
X184404500Y-113586134D01*
X184404500Y-112631173D01*
X184424502Y-112563052D01*
X184478158Y-112516559D01*
X184548432Y-112506455D01*
X184613012Y-112535949D01*
X184619595Y-112542078D01*
X187933429Y-115855912D01*
X187945815Y-115870324D01*
X187954348Y-115881919D01*
X187954353Y-115881924D01*
X187958691Y-115887819D01*
X187964269Y-115892558D01*
X187964272Y-115892561D01*
X187998967Y-115922036D01*
X188006483Y-115928966D01*
X188012179Y-115934662D01*
X188015040Y-115936925D01*
X188015045Y-115936930D01*
X188034455Y-115952286D01*
X188037857Y-115955075D01*
X188058375Y-115972506D01*
X188093484Y-116002334D01*
X188100001Y-116005662D01*
X188105049Y-116009028D01*
X188110171Y-116012191D01*
X188115915Y-116016736D01*
X188182094Y-116047665D01*
X188185978Y-116049564D01*
X188251007Y-116082770D01*
X188258122Y-116084511D01*
X188263777Y-116086614D01*
X188269516Y-116088523D01*
X188276149Y-116091623D01*
X188347634Y-116106492D01*
X188351900Y-116107458D01*
X188422809Y-116124809D01*
X188428411Y-116125157D01*
X188428414Y-116125157D01*
X188433963Y-116125501D01*
X188433961Y-116125536D01*
X188437933Y-116125776D01*
X188442154Y-116126153D01*
X188449314Y-116127642D01*
X188526741Y-116125547D01*
X188530149Y-116125501D01*
X189266131Y-116125501D01*
X189285081Y-116126934D01*
X189299316Y-116129100D01*
X189299320Y-116129100D01*
X189306550Y-116130200D01*
X189313842Y-116129607D01*
X189313845Y-116129607D01*
X189359219Y-116125916D01*
X189369434Y-116125501D01*
X189377494Y-116125501D01*
X189394881Y-116123474D01*
X189405708Y-116122212D01*
X189410083Y-116121779D01*
X189475540Y-116116455D01*
X189475543Y-116116454D01*
X189482838Y-116115861D01*
X189489802Y-116113605D01*
X189495761Y-116112414D01*
X189501616Y-116111030D01*
X189508882Y-116110183D01*
X189577528Y-116085266D01*
X189581656Y-116083849D01*
X189644137Y-116063608D01*
X189644139Y-116063607D01*
X189651100Y-116061352D01*
X189657355Y-116057556D01*
X189662829Y-116055050D01*
X189668259Y-116052331D01*
X189675138Y-116049834D01*
X189720891Y-116019837D01*
X189736177Y-116009815D01*
X189739881Y-116007478D01*
X189802308Y-115969596D01*
X189810685Y-115962198D01*
X189810709Y-115962225D01*
X189813701Y-115959572D01*
X189816934Y-115956869D01*
X189823053Y-115952857D01*
X189876329Y-115896618D01*
X189878707Y-115894176D01*
X190931478Y-114841405D01*
X190993790Y-114807379D01*
X191020573Y-114804500D01*
X199609413Y-114804500D01*
X199683472Y-114828563D01*
X199689902Y-114833235D01*
X199689909Y-114833239D01*
X199695248Y-114837118D01*
X199701276Y-114839802D01*
X199701278Y-114839803D01*
X199863681Y-114912109D01*
X199869712Y-114914794D01*
X199876167Y-114916166D01*
X199876176Y-114916169D01*
X199932772Y-114928199D01*
X199995669Y-114962350D01*
X200195495Y-115162176D01*
X200229521Y-115224488D01*
X200232400Y-115251271D01*
X200232400Y-126094030D01*
X200230967Y-126112980D01*
X200227701Y-126134449D01*
X200228294Y-126141741D01*
X200228294Y-126141744D01*
X200231985Y-126187118D01*
X200232400Y-126197333D01*
X200232400Y-126205393D01*
X200232825Y-126209037D01*
X200235689Y-126233607D01*
X200236122Y-126237982D01*
X200240782Y-126295266D01*
X200242040Y-126310737D01*
X200244296Y-126317701D01*
X200245487Y-126323660D01*
X200246871Y-126329515D01*
X200247718Y-126336781D01*
X200272635Y-126405427D01*
X200274052Y-126409555D01*
X200293682Y-126470148D01*
X200296549Y-126478999D01*
X200300345Y-126485254D01*
X200302851Y-126490728D01*
X200305570Y-126496158D01*
X200308067Y-126503037D01*
X200312080Y-126509157D01*
X200312080Y-126509158D01*
X200348086Y-126564076D01*
X200350423Y-126567780D01*
X200388305Y-126630207D01*
X200392021Y-126634415D01*
X200392022Y-126634416D01*
X200395703Y-126638584D01*
X200395676Y-126638608D01*
X200398329Y-126641600D01*
X200401032Y-126644833D01*
X200405044Y-126650952D01*
X200410356Y-126655984D01*
X200461283Y-126704228D01*
X200463725Y-126706606D01*
X200921675Y-127164556D01*
X200952413Y-127214714D01*
X201007273Y-127383556D01*
X201102760Y-127548944D01*
X201107178Y-127553851D01*
X201107179Y-127553852D01*
X201197803Y-127654500D01*
X201230547Y-127690866D01*
X201385048Y-127803118D01*
X201391076Y-127805802D01*
X201391078Y-127805803D01*
X201553481Y-127878109D01*
X201559512Y-127880794D01*
X201652913Y-127900647D01*
X201739856Y-127919128D01*
X201739861Y-127919128D01*
X201746313Y-127920500D01*
X201937287Y-127920500D01*
X201943739Y-127919128D01*
X201943744Y-127919128D01*
X202030687Y-127900647D01*
X202124088Y-127880794D01*
X202130119Y-127878109D01*
X202292522Y-127805803D01*
X202292524Y-127805802D01*
X202298552Y-127803118D01*
X202453053Y-127690866D01*
X202485797Y-127654500D01*
X202576421Y-127553852D01*
X202576422Y-127553851D01*
X202580840Y-127548944D01*
X202676327Y-127383556D01*
X202735342Y-127201928D01*
X202755304Y-127012000D01*
X202748653Y-126948715D01*
X202736032Y-126828635D01*
X202736032Y-126828633D01*
X202735342Y-126822072D01*
X202676327Y-126640444D01*
X202658522Y-126609604D01*
X202616412Y-126536669D01*
X202580840Y-126475056D01*
X202531177Y-126419899D01*
X202457475Y-126338045D01*
X202457474Y-126338044D01*
X202453053Y-126333134D01*
X202319074Y-126235792D01*
X202303894Y-126224763D01*
X202303893Y-126224762D01*
X202298552Y-126220882D01*
X202292524Y-126218198D01*
X202292522Y-126218197D01*
X202130119Y-126145891D01*
X202130118Y-126145891D01*
X202124088Y-126143206D01*
X202117633Y-126141834D01*
X202117624Y-126141831D01*
X202061028Y-126129801D01*
X201998131Y-126095650D01*
X201786305Y-125883824D01*
X201752279Y-125821512D01*
X201749400Y-125794729D01*
X201749400Y-117208921D01*
X201769402Y-117140800D01*
X201823058Y-117094307D01*
X201893332Y-117084203D01*
X201955076Y-117113116D01*
X201955548Y-117112466D01*
X201960890Y-117116347D01*
X201960892Y-117116349D01*
X202101829Y-117218746D01*
X202110049Y-117224718D01*
X202116077Y-117227402D01*
X202116079Y-117227403D01*
X202139573Y-117237863D01*
X202284513Y-117302394D01*
X202372936Y-117321189D01*
X202464857Y-117340728D01*
X202464862Y-117340728D01*
X202471314Y-117342100D01*
X202662288Y-117342100D01*
X202668740Y-117340728D01*
X202668745Y-117340728D01*
X202760666Y-117321189D01*
X202849089Y-117302394D01*
X202994029Y-117237863D01*
X203017523Y-117227403D01*
X203017525Y-117227402D01*
X203023553Y-117224718D01*
X203178054Y-117112466D01*
X203182476Y-117107555D01*
X203301422Y-116975452D01*
X203301423Y-116975451D01*
X203305841Y-116970544D01*
X203401328Y-116805156D01*
X203460343Y-116623528D01*
X203462612Y-116601946D01*
X203479615Y-116440165D01*
X203480305Y-116433600D01*
X203473535Y-116369187D01*
X203461033Y-116250235D01*
X203461033Y-116250233D01*
X203460343Y-116243672D01*
X203401328Y-116062044D01*
X203393554Y-116048578D01*
X203354584Y-115981081D01*
X203342182Y-115959600D01*
X203325301Y-115896601D01*
X203325301Y-115269869D01*
X203326734Y-115250919D01*
X203328900Y-115236684D01*
X203328900Y-115236680D01*
X203330000Y-115229450D01*
X203325716Y-115176781D01*
X203325301Y-115166566D01*
X203325301Y-115158506D01*
X203322010Y-115130279D01*
X203321579Y-115125920D01*
X203316254Y-115060459D01*
X203315661Y-115053163D01*
X203313406Y-115046202D01*
X203312219Y-115040262D01*
X203310830Y-115034387D01*
X203309983Y-115027118D01*
X203285065Y-114958469D01*
X203283648Y-114954341D01*
X203263408Y-114891863D01*
X203263407Y-114891861D01*
X203261152Y-114884900D01*
X203257356Y-114878645D01*
X203254850Y-114873171D01*
X203252131Y-114867741D01*
X203249634Y-114860862D01*
X203209615Y-114799823D01*
X203207268Y-114796104D01*
X203193945Y-114774148D01*
X203169396Y-114733692D01*
X203161998Y-114725315D01*
X203162025Y-114725291D01*
X203159372Y-114722299D01*
X203156669Y-114719066D01*
X203152657Y-114712947D01*
X203096418Y-114659671D01*
X203093976Y-114657293D01*
X201143771Y-112707088D01*
X201131385Y-112692676D01*
X201122852Y-112681081D01*
X201122847Y-112681076D01*
X201118509Y-112675181D01*
X201112931Y-112670442D01*
X201112928Y-112670439D01*
X201078233Y-112640964D01*
X201070717Y-112634034D01*
X201065022Y-112628339D01*
X201048737Y-112615455D01*
X201042750Y-112610718D01*
X201039346Y-112607927D01*
X200989298Y-112565408D01*
X200989296Y-112565407D01*
X200983716Y-112560666D01*
X200977200Y-112557338D01*
X200972151Y-112553971D01*
X200967022Y-112550804D01*
X200961285Y-112546265D01*
X200895126Y-112515344D01*
X200891226Y-112513438D01*
X200826193Y-112480230D01*
X200819085Y-112478491D01*
X200813442Y-112476392D01*
X200807679Y-112474475D01*
X200801051Y-112471377D01*
X200729584Y-112456512D01*
X200725300Y-112455542D01*
X200654391Y-112438191D01*
X200648789Y-112437843D01*
X200648786Y-112437843D01*
X200643237Y-112437499D01*
X200643239Y-112437463D01*
X200639246Y-112437224D01*
X200635054Y-112436850D01*
X200627886Y-112435359D01*
X200564121Y-112437084D01*
X200550480Y-112437453D01*
X200547073Y-112437499D01*
X190313271Y-112437499D01*
X190294321Y-112436066D01*
X190280086Y-112433900D01*
X190280082Y-112433900D01*
X190272852Y-112432800D01*
X190265560Y-112433393D01*
X190265557Y-112433393D01*
X190220183Y-112437084D01*
X190209968Y-112437499D01*
X190201908Y-112437499D01*
X190198274Y-112437923D01*
X190198268Y-112437923D01*
X190185243Y-112439442D01*
X190173681Y-112440790D01*
X190169333Y-112441220D01*
X190147260Y-112443015D01*
X190103863Y-112446545D01*
X190103860Y-112446546D01*
X190096565Y-112447139D01*
X190089601Y-112449395D01*
X190083662Y-112450582D01*
X190077791Y-112451969D01*
X190070520Y-112452817D01*
X190063644Y-112455313D01*
X190063635Y-112455315D01*
X190001903Y-112477724D01*
X189997799Y-112479134D01*
X189928302Y-112501647D01*
X189922047Y-112505443D01*
X189916588Y-112507942D01*
X189911140Y-112510670D01*
X189904264Y-112513166D01*
X189843211Y-112553194D01*
X189839538Y-112555512D01*
X189777094Y-112593404D01*
X189768718Y-112600801D01*
X189768694Y-112600774D01*
X189765700Y-112603429D01*
X189762469Y-112606131D01*
X189756349Y-112610143D01*
X189727152Y-112640964D01*
X189703073Y-112666382D01*
X189700695Y-112668824D01*
X188768869Y-113600650D01*
X188705972Y-113634801D01*
X188649376Y-113646831D01*
X188649367Y-113646834D01*
X188642912Y-113648206D01*
X188636882Y-113650891D01*
X188636881Y-113650891D01*
X188474478Y-113723197D01*
X188474476Y-113723198D01*
X188468448Y-113725882D01*
X188313947Y-113838134D01*
X188282952Y-113872558D01*
X188222505Y-113909797D01*
X188151522Y-113908445D01*
X188100221Y-113877342D01*
X184579568Y-110356689D01*
X184567182Y-110342277D01*
X184558649Y-110330682D01*
X184558644Y-110330677D01*
X184554306Y-110324782D01*
X184548728Y-110320043D01*
X184548725Y-110320040D01*
X184514030Y-110290565D01*
X184506514Y-110283635D01*
X184500819Y-110277940D01*
X184494678Y-110273082D01*
X184478547Y-110260319D01*
X184475143Y-110257528D01*
X184425095Y-110215009D01*
X184425093Y-110215008D01*
X184419513Y-110210267D01*
X184412997Y-110206939D01*
X184407948Y-110203572D01*
X184402819Y-110200405D01*
X184397082Y-110195866D01*
X184330923Y-110164945D01*
X184327023Y-110163039D01*
X184261990Y-110129831D01*
X184254882Y-110128092D01*
X184249239Y-110125993D01*
X184243476Y-110124076D01*
X184236848Y-110120978D01*
X184165381Y-110106113D01*
X184161097Y-110105143D01*
X184090188Y-110087792D01*
X184084586Y-110087444D01*
X184084583Y-110087444D01*
X184079034Y-110087100D01*
X184079036Y-110087064D01*
X184075043Y-110086825D01*
X184070851Y-110086451D01*
X184063683Y-110084960D01*
X183999918Y-110086685D01*
X183986277Y-110087054D01*
X183982870Y-110087100D01*
X175225470Y-110087100D01*
X175206520Y-110085667D01*
X175192285Y-110083501D01*
X175192281Y-110083501D01*
X175185051Y-110082401D01*
X175177759Y-110082994D01*
X175177756Y-110082994D01*
X175132382Y-110086685D01*
X175122167Y-110087100D01*
X175114107Y-110087100D01*
X175110473Y-110087524D01*
X175110467Y-110087524D01*
X175097442Y-110089043D01*
X175085880Y-110090391D01*
X175081532Y-110090821D01*
X175059459Y-110092616D01*
X175016062Y-110096146D01*
X175016059Y-110096147D01*
X175008764Y-110096740D01*
X175001800Y-110098996D01*
X174995861Y-110100183D01*
X174989990Y-110101570D01*
X174982719Y-110102418D01*
X174975843Y-110104914D01*
X174975834Y-110104916D01*
X174914102Y-110127325D01*
X174909998Y-110128735D01*
X174840501Y-110151248D01*
X174834246Y-110155044D01*
X174828787Y-110157543D01*
X174823339Y-110160271D01*
X174816463Y-110162767D01*
X174755410Y-110202795D01*
X174751727Y-110205119D01*
X174694086Y-110240096D01*
X174694082Y-110240099D01*
X174689293Y-110243005D01*
X174680917Y-110250403D01*
X174680893Y-110250376D01*
X174677911Y-110253021D01*
X174674674Y-110255728D01*
X174668548Y-110259744D01*
X174663512Y-110265060D01*
X174663511Y-110265061D01*
X174615256Y-110316000D01*
X174612878Y-110318442D01*
X174341670Y-110589650D01*
X174278772Y-110623802D01*
X174256305Y-110628578D01*
X174215712Y-110637206D01*
X174209682Y-110639891D01*
X174209681Y-110639891D01*
X174047278Y-110712197D01*
X174047276Y-110712198D01*
X174041248Y-110714882D01*
X174035907Y-110718762D01*
X174035906Y-110718763D01*
X174001171Y-110744000D01*
X173886747Y-110827134D01*
X173882326Y-110832044D01*
X173882325Y-110832045D01*
X173778492Y-110947364D01*
X173758960Y-110969056D01*
X173663473Y-111134444D01*
X173604458Y-111316072D01*
X173603768Y-111322633D01*
X173603768Y-111322635D01*
X173595187Y-111404276D01*
X173584496Y-111506000D01*
X173585186Y-111512565D01*
X173600435Y-111657648D01*
X173604458Y-111695928D01*
X173663473Y-111877556D01*
X173758960Y-112042944D01*
X173886747Y-112184866D01*
X174041248Y-112297118D01*
X174047276Y-112299802D01*
X174047278Y-112299803D01*
X174108326Y-112326983D01*
X174215712Y-112374794D01*
X174309112Y-112394647D01*
X174396056Y-112413128D01*
X174396061Y-112413128D01*
X174402513Y-112414500D01*
X174593487Y-112414500D01*
X174599939Y-112413128D01*
X174599944Y-112413128D01*
X174686888Y-112394647D01*
X174780288Y-112374794D01*
X174887674Y-112326983D01*
X174948722Y-112299803D01*
X174948724Y-112299802D01*
X174954752Y-112297118D01*
X175109253Y-112184866D01*
X175237040Y-112042944D01*
X175332527Y-111877556D01*
X175387387Y-111708714D01*
X175418125Y-111658556D01*
X175435676Y-111641005D01*
X175497988Y-111606979D01*
X175524771Y-111604100D01*
X179260766Y-111604100D01*
X179328887Y-111624102D01*
X179375380Y-111677758D01*
X179385484Y-111748032D01*
X179378749Y-111774327D01*
X179330255Y-111903684D01*
X179323500Y-111965866D01*
X179323500Y-113586134D01*
X179330255Y-113648316D01*
X179381385Y-113784705D01*
X179468739Y-113901261D01*
X179475919Y-113906642D01*
X179527332Y-113945174D01*
X179569847Y-114002033D01*
X179574873Y-114072852D01*
X179540813Y-114135145D01*
X179527333Y-114146825D01*
X179468739Y-114190739D01*
X179381385Y-114307295D01*
X179330255Y-114443684D01*
X179323500Y-114505866D01*
X179323500Y-116126134D01*
X179330255Y-116188316D01*
X179381385Y-116324705D01*
X179468739Y-116441261D01*
X179585295Y-116528615D01*
X179721684Y-116579745D01*
X179783866Y-116586500D01*
X181404134Y-116586500D01*
X181466316Y-116579745D01*
X181602705Y-116528615D01*
X181719261Y-116441261D01*
X181763174Y-116382668D01*
X181820033Y-116340153D01*
X181890852Y-116335127D01*
X181953145Y-116369187D01*
X181964825Y-116382667D01*
X182008739Y-116441261D01*
X182125295Y-116528615D01*
X182261684Y-116579745D01*
X182323866Y-116586500D01*
X183944134Y-116586500D01*
X184006316Y-116579745D01*
X184142705Y-116528615D01*
X184259261Y-116441261D01*
X184346615Y-116324705D01*
X184376993Y-116243672D01*
X184377814Y-116241483D01*
X184420456Y-116184719D01*
X184487018Y-116160019D01*
X184547045Y-116170606D01*
X184569178Y-116180460D01*
X184578912Y-116184794D01*
X184585367Y-116186166D01*
X184585376Y-116186169D01*
X184641972Y-116198199D01*
X184704869Y-116232350D01*
X197408225Y-128935706D01*
X197442251Y-128998018D01*
X197437186Y-129068833D01*
X197394639Y-129125669D01*
X197328119Y-129150480D01*
X197319130Y-129150801D01*
X196061672Y-129150801D01*
X195993551Y-129130799D01*
X195972577Y-129113896D01*
X195484125Y-128625444D01*
X195453387Y-128575285D01*
X195402654Y-128419144D01*
X195398527Y-128406444D01*
X195303040Y-128241056D01*
X195175253Y-128099134D01*
X195038232Y-127999582D01*
X195026094Y-127990763D01*
X195026093Y-127990762D01*
X195020752Y-127986882D01*
X195014724Y-127984198D01*
X195014722Y-127984197D01*
X194852319Y-127911891D01*
X194852318Y-127911891D01*
X194846288Y-127909206D01*
X194752888Y-127889353D01*
X194665944Y-127870872D01*
X194665939Y-127870872D01*
X194659487Y-127869500D01*
X194468513Y-127869500D01*
X194462061Y-127870872D01*
X194462056Y-127870872D01*
X194375112Y-127889353D01*
X194281712Y-127909206D01*
X194275682Y-127911891D01*
X194275681Y-127911891D01*
X194113278Y-127984197D01*
X194113276Y-127984198D01*
X194107248Y-127986882D01*
X194101907Y-127990762D01*
X194101906Y-127990763D01*
X194089768Y-127999582D01*
X193952747Y-128099134D01*
X193824960Y-128241056D01*
X193729473Y-128406444D01*
X193670458Y-128588072D01*
X193669768Y-128594633D01*
X193669768Y-128594635D01*
X193668433Y-128607337D01*
X193650496Y-128778000D01*
X193651186Y-128784565D01*
X193662091Y-128888316D01*
X193670458Y-128967928D01*
X193729473Y-129149556D01*
X193824960Y-129314944D01*
X193829378Y-129319851D01*
X193829379Y-129319852D01*
X193948325Y-129451955D01*
X193952747Y-129456866D01*
X194107248Y-129569118D01*
X194113276Y-129571802D01*
X194113278Y-129571803D01*
X194269008Y-129641138D01*
X194281712Y-129646794D01*
X194288167Y-129648166D01*
X194288176Y-129648169D01*
X194344772Y-129660199D01*
X194407669Y-129694350D01*
X194549724Y-129836405D01*
X194583750Y-129898717D01*
X194578685Y-129969532D01*
X194536138Y-130026368D01*
X194469618Y-130051179D01*
X194460629Y-130051500D01*
X191576623Y-130051500D01*
X191502564Y-130027437D01*
X191496134Y-130022765D01*
X191496127Y-130022761D01*
X191490788Y-130018882D01*
X191484760Y-130016198D01*
X191484758Y-130016197D01*
X191322355Y-129943891D01*
X191322354Y-129943891D01*
X191316324Y-129941206D01*
X191215067Y-129919683D01*
X191135980Y-129902872D01*
X191135975Y-129902872D01*
X191129523Y-129901500D01*
X190938549Y-129901500D01*
X190932097Y-129902872D01*
X190932092Y-129902872D01*
X190853005Y-129919683D01*
X190751748Y-129941206D01*
X190745718Y-129943891D01*
X190745717Y-129943891D01*
X190583314Y-130016197D01*
X190583312Y-130016198D01*
X190577284Y-130018882D01*
X190571943Y-130022762D01*
X190571942Y-130022763D01*
X190544664Y-130042582D01*
X190422783Y-130131134D01*
X190418362Y-130136044D01*
X190418361Y-130136045D01*
X190320973Y-130244206D01*
X190294996Y-130273056D01*
X190199509Y-130438444D01*
X190140494Y-130620072D01*
X190120532Y-130810000D01*
X190140494Y-130999928D01*
X190199509Y-131181556D01*
X190294996Y-131346944D01*
X190299414Y-131351851D01*
X190299415Y-131351852D01*
X190390322Y-131452814D01*
X190422783Y-131488866D01*
X190475061Y-131526848D01*
X190571940Y-131597235D01*
X190577284Y-131601118D01*
X190583312Y-131603802D01*
X190583314Y-131603803D01*
X190745717Y-131676109D01*
X190751748Y-131678794D01*
X190845149Y-131698647D01*
X190932092Y-131717128D01*
X190932097Y-131717128D01*
X190938549Y-131718500D01*
X191129523Y-131718500D01*
X191135975Y-131717128D01*
X191135980Y-131717128D01*
X191222923Y-131698647D01*
X191316324Y-131678794D01*
X191322355Y-131676109D01*
X191484758Y-131603803D01*
X191484760Y-131603802D01*
X191490788Y-131601118D01*
X191496127Y-131597239D01*
X191496134Y-131597235D01*
X191502564Y-131592563D01*
X191576623Y-131568500D01*
X199997726Y-131568500D01*
X200065847Y-131588502D01*
X200112340Y-131642158D01*
X200122310Y-131711498D01*
X200122058Y-131712272D01*
X200121460Y-131717958D01*
X200121460Y-131717960D01*
X200110762Y-131819745D01*
X200102096Y-131902200D01*
X200102786Y-131908765D01*
X200120745Y-132079631D01*
X200122058Y-132092128D01*
X200181073Y-132273756D01*
X200184376Y-132279478D01*
X200184377Y-132279479D01*
X200240219Y-132376199D01*
X200257100Y-132439199D01*
X200257100Y-132857239D01*
X200237098Y-132925360D01*
X200220195Y-132946334D01*
X199341934Y-133824595D01*
X199279622Y-133858621D01*
X199252839Y-133861500D01*
X180522945Y-133861500D01*
X180448886Y-133837437D01*
X180442456Y-133832765D01*
X180442449Y-133832761D01*
X180437110Y-133828882D01*
X180431082Y-133826198D01*
X180431080Y-133826197D01*
X180268677Y-133753891D01*
X180268676Y-133753891D01*
X180262646Y-133751206D01*
X180256191Y-133749834D01*
X180256182Y-133749831D01*
X180199586Y-133737801D01*
X180136689Y-133703650D01*
X179759763Y-133326724D01*
X179725737Y-133264412D01*
X179722858Y-133237629D01*
X179722858Y-131952500D01*
X179742860Y-131884379D01*
X179796516Y-131837886D01*
X179848858Y-131826500D01*
X181404134Y-131826500D01*
X181466316Y-131819745D01*
X181602705Y-131768615D01*
X181719261Y-131681261D01*
X181763174Y-131622668D01*
X181820033Y-131580153D01*
X181890852Y-131575127D01*
X181953145Y-131609187D01*
X181964825Y-131622667D01*
X182008739Y-131681261D01*
X182125295Y-131768615D01*
X182261684Y-131819745D01*
X182323866Y-131826500D01*
X183944134Y-131826500D01*
X184006316Y-131819745D01*
X184142705Y-131768615D01*
X184259261Y-131681261D01*
X184346615Y-131564705D01*
X184397745Y-131428316D01*
X184404500Y-131366134D01*
X184404500Y-129745866D01*
X184397745Y-129683684D01*
X184346615Y-129547295D01*
X184259261Y-129430739D01*
X184200668Y-129386826D01*
X184158153Y-129329967D01*
X184153127Y-129259148D01*
X184187187Y-129196855D01*
X184200668Y-129185174D01*
X184252081Y-129146642D01*
X184259261Y-129141261D01*
X184346615Y-129024705D01*
X184397745Y-128888316D01*
X184404500Y-128826134D01*
X184404500Y-127205866D01*
X184397745Y-127143684D01*
X184346615Y-127007295D01*
X184259261Y-126890739D01*
X184200668Y-126846826D01*
X184158153Y-126789967D01*
X184153127Y-126719148D01*
X184187187Y-126656855D01*
X184200668Y-126645174D01*
X184252081Y-126606642D01*
X184259261Y-126601261D01*
X184346615Y-126484705D01*
X184397745Y-126348316D01*
X184404500Y-126286134D01*
X184404500Y-124665866D01*
X184397745Y-124603684D01*
X184393634Y-124592718D01*
X184393416Y-124589745D01*
X184393144Y-124588600D01*
X184393329Y-124588556D01*
X184388449Y-124521911D01*
X184422369Y-124459541D01*
X184484624Y-124425411D01*
X184555448Y-124430356D01*
X184600710Y-124459391D01*
X187039875Y-126898556D01*
X187070613Y-126948714D01*
X187125473Y-127117556D01*
X187128776Y-127123278D01*
X187128777Y-127123279D01*
X187162686Y-127182010D01*
X187220960Y-127282944D01*
X187348747Y-127424866D01*
X187503248Y-127537118D01*
X187509276Y-127539802D01*
X187509278Y-127539803D01*
X187540833Y-127553852D01*
X187677712Y-127614794D01*
X187771113Y-127634647D01*
X187858056Y-127653128D01*
X187858061Y-127653128D01*
X187864513Y-127654500D01*
X188055487Y-127654500D01*
X188061939Y-127653128D01*
X188061944Y-127653128D01*
X188148887Y-127634647D01*
X188242288Y-127614794D01*
X188379167Y-127553852D01*
X188410722Y-127539803D01*
X188410724Y-127539802D01*
X188416752Y-127537118D01*
X188571253Y-127424866D01*
X188699040Y-127282944D01*
X188757314Y-127182010D01*
X188791223Y-127123279D01*
X188791224Y-127123278D01*
X188794527Y-127117556D01*
X188853542Y-126935928D01*
X188858292Y-126890739D01*
X188872814Y-126752565D01*
X188873504Y-126746000D01*
X188859180Y-126609715D01*
X188854232Y-126562635D01*
X188854232Y-126562633D01*
X188853542Y-126556072D01*
X188794527Y-126374444D01*
X188788145Y-126363389D01*
X188745502Y-126289531D01*
X188699040Y-126209056D01*
X188667685Y-126174232D01*
X188575675Y-126072045D01*
X188575674Y-126072044D01*
X188571253Y-126067134D01*
X188416752Y-125954882D01*
X188410724Y-125952198D01*
X188410722Y-125952197D01*
X188248319Y-125879891D01*
X188248318Y-125879891D01*
X188242288Y-125877206D01*
X188235833Y-125875834D01*
X188235824Y-125875831D01*
X188179228Y-125863801D01*
X188116331Y-125829650D01*
X184835370Y-122548689D01*
X184822984Y-122534277D01*
X184814451Y-122522682D01*
X184814446Y-122522677D01*
X184810108Y-122516782D01*
X184804530Y-122512043D01*
X184804527Y-122512040D01*
X184769832Y-122482565D01*
X184762316Y-122475635D01*
X184756621Y-122469940D01*
X184750480Y-122465082D01*
X184734349Y-122452319D01*
X184730945Y-122449528D01*
X184680897Y-122407009D01*
X184680895Y-122407008D01*
X184675315Y-122402267D01*
X184668799Y-122398939D01*
X184663750Y-122395572D01*
X184658621Y-122392405D01*
X184652884Y-122387866D01*
X184586725Y-122356945D01*
X184582825Y-122355039D01*
X184517792Y-122321831D01*
X184510684Y-122320092D01*
X184505041Y-122317993D01*
X184499278Y-122316076D01*
X184492650Y-122312978D01*
X184421183Y-122298113D01*
X184416899Y-122297143D01*
X184394716Y-122291715D01*
X184345990Y-122279792D01*
X184340388Y-122279444D01*
X184340385Y-122279444D01*
X184334836Y-122279100D01*
X184334838Y-122279064D01*
X184330845Y-122278825D01*
X184326653Y-122278451D01*
X184319485Y-122276960D01*
X184253275Y-122278751D01*
X184242079Y-122279054D01*
X184238672Y-122279100D01*
X180818100Y-122279100D01*
X180749979Y-122259098D01*
X180703486Y-122205442D01*
X180692100Y-122153100D01*
X180692100Y-120564670D01*
X180693533Y-120545720D01*
X180695699Y-120531485D01*
X180695699Y-120531481D01*
X180696799Y-120524251D01*
X180692515Y-120471582D01*
X180692100Y-120461367D01*
X180692100Y-120453307D01*
X180688811Y-120425093D01*
X180688378Y-120420718D01*
X180683054Y-120355261D01*
X180683053Y-120355258D01*
X180682460Y-120347963D01*
X180680204Y-120340999D01*
X180679013Y-120335040D01*
X180677629Y-120329185D01*
X180676782Y-120321919D01*
X180651865Y-120253273D01*
X180650448Y-120249145D01*
X180630207Y-120186664D01*
X180630206Y-120186662D01*
X180627951Y-120179701D01*
X180624155Y-120173446D01*
X180621649Y-120167972D01*
X180618930Y-120162542D01*
X180616433Y-120155663D01*
X180607147Y-120141500D01*
X180576414Y-120094624D01*
X180574067Y-120090905D01*
X180550789Y-120052544D01*
X180536195Y-120028493D01*
X180528797Y-120020116D01*
X180528824Y-120020092D01*
X180526171Y-120017100D01*
X180523468Y-120013867D01*
X180519456Y-120007748D01*
X180463217Y-119954472D01*
X180460775Y-119952094D01*
X171754371Y-111245690D01*
X171741985Y-111231278D01*
X171733452Y-111219683D01*
X171733447Y-111219678D01*
X171729109Y-111213783D01*
X171723531Y-111209044D01*
X171723528Y-111209041D01*
X171688833Y-111179566D01*
X171681317Y-111172636D01*
X171675622Y-111166941D01*
X171669481Y-111162083D01*
X171653350Y-111149320D01*
X171649946Y-111146529D01*
X171599898Y-111104010D01*
X171599896Y-111104009D01*
X171594316Y-111099268D01*
X171587800Y-111095940D01*
X171582751Y-111092573D01*
X171577622Y-111089406D01*
X171571885Y-111084867D01*
X171505726Y-111053946D01*
X171501826Y-111052040D01*
X171501458Y-111051852D01*
X171436793Y-111018832D01*
X171429685Y-111017093D01*
X171424042Y-111014994D01*
X171418279Y-111013077D01*
X171411651Y-111009979D01*
X171340184Y-110995114D01*
X171335900Y-110994144D01*
X171264991Y-110976793D01*
X171259389Y-110976445D01*
X171259386Y-110976445D01*
X171253837Y-110976101D01*
X171253839Y-110976065D01*
X171249846Y-110975826D01*
X171245654Y-110975452D01*
X171238486Y-110973961D01*
X171172276Y-110975752D01*
X171161080Y-110976055D01*
X171157673Y-110976101D01*
X169935188Y-110976101D01*
X169861129Y-110952038D01*
X169854699Y-110947366D01*
X169854692Y-110947362D01*
X169849353Y-110943483D01*
X169843325Y-110940799D01*
X169843323Y-110940798D01*
X169680920Y-110868492D01*
X169680919Y-110868492D01*
X169674889Y-110865807D01*
X169581489Y-110845954D01*
X169494545Y-110827473D01*
X169494540Y-110827473D01*
X169488088Y-110826101D01*
X169297114Y-110826101D01*
X169290662Y-110827473D01*
X169290657Y-110827473D01*
X169203713Y-110845954D01*
X169110313Y-110865807D01*
X169104283Y-110868492D01*
X169104282Y-110868492D01*
X168941879Y-110940798D01*
X168941877Y-110940799D01*
X168935849Y-110943483D01*
X168930508Y-110947363D01*
X168930507Y-110947364D01*
X168924074Y-110952038D01*
X168781348Y-111055735D01*
X168776927Y-111060645D01*
X168776926Y-111060646D01*
X168672830Y-111176257D01*
X168653561Y-111197657D01*
X168558074Y-111363045D01*
X168499059Y-111544673D01*
X168498369Y-111551234D01*
X168498369Y-111551236D01*
X168485071Y-111677758D01*
X168479097Y-111734601D01*
X168479787Y-111741166D01*
X168494724Y-111883279D01*
X168499059Y-111924529D01*
X168558074Y-112106157D01*
X168653561Y-112271545D01*
X168657979Y-112276452D01*
X168657980Y-112276453D01*
X168744109Y-112372109D01*
X168781348Y-112413467D01*
X168868857Y-112477046D01*
X168930505Y-112521836D01*
X168935849Y-112525719D01*
X168941877Y-112528403D01*
X168941879Y-112528404D01*
X169104282Y-112600710D01*
X169110313Y-112603395D01*
X169167051Y-112615455D01*
X169290657Y-112641729D01*
X169290662Y-112641729D01*
X169297114Y-112643101D01*
X169488088Y-112643101D01*
X169494540Y-112641729D01*
X169494545Y-112641729D01*
X169618151Y-112615455D01*
X169674889Y-112603395D01*
X169680920Y-112600710D01*
X169843323Y-112528404D01*
X169843325Y-112528403D01*
X169849353Y-112525719D01*
X169854692Y-112521840D01*
X169854699Y-112521836D01*
X169861129Y-112517164D01*
X169935188Y-112493101D01*
X170804230Y-112493101D01*
X170872351Y-112513103D01*
X170893325Y-112530006D01*
X175750224Y-117386905D01*
X175784250Y-117449217D01*
X175779185Y-117520032D01*
X175736638Y-117576868D01*
X175670118Y-117601679D01*
X175661129Y-117602000D01*
X175278115Y-117602000D01*
X175262876Y-117606475D01*
X175261671Y-117607865D01*
X175260000Y-117615548D01*
X175260000Y-118599885D01*
X175264475Y-118615124D01*
X175265865Y-118616329D01*
X175273548Y-118618000D01*
X176257884Y-118618000D01*
X176273123Y-118613525D01*
X176274328Y-118612135D01*
X176275999Y-118604452D01*
X176275999Y-118216870D01*
X176296001Y-118148749D01*
X176349657Y-118102256D01*
X176419931Y-118092152D01*
X176484511Y-118121646D01*
X176491094Y-118127775D01*
X179138195Y-120774876D01*
X179172221Y-120837188D01*
X179175100Y-120863971D01*
X179175100Y-122722029D01*
X179155098Y-122790150D01*
X179138195Y-122811124D01*
X177222373Y-124726946D01*
X177160061Y-124760972D01*
X177089246Y-124755907D01*
X177032410Y-124713360D01*
X177024163Y-124700858D01*
X177015040Y-124685056D01*
X177007994Y-124677230D01*
X176891675Y-124548045D01*
X176891674Y-124548044D01*
X176887253Y-124543134D01*
X176771991Y-124459391D01*
X176738094Y-124434763D01*
X176738093Y-124434762D01*
X176732752Y-124430882D01*
X176726724Y-124428198D01*
X176726722Y-124428197D01*
X176564319Y-124355891D01*
X176564318Y-124355891D01*
X176558288Y-124353206D01*
X176464887Y-124333353D01*
X176377944Y-124314872D01*
X176377939Y-124314872D01*
X176371487Y-124313500D01*
X176180513Y-124313500D01*
X176174061Y-124314872D01*
X176174056Y-124314872D01*
X176087113Y-124333353D01*
X175993712Y-124353206D01*
X175987682Y-124355891D01*
X175987681Y-124355891D01*
X175825278Y-124428197D01*
X175825276Y-124428198D01*
X175819248Y-124430882D01*
X175813907Y-124434762D01*
X175813906Y-124434763D01*
X175780009Y-124459391D01*
X175664747Y-124543134D01*
X175660326Y-124548044D01*
X175660325Y-124548045D01*
X175544007Y-124677230D01*
X175536960Y-124685056D01*
X175512775Y-124726946D01*
X175452342Y-124831619D01*
X175441473Y-124850444D01*
X175402451Y-124970542D01*
X175386613Y-125019285D01*
X175355875Y-125069445D01*
X175196283Y-125229036D01*
X175037784Y-125387535D01*
X175023372Y-125399921D01*
X175005881Y-125412793D01*
X175001142Y-125418371D01*
X175001139Y-125418374D01*
X174971664Y-125453069D01*
X174964734Y-125460585D01*
X174959039Y-125466280D01*
X174956759Y-125469162D01*
X174941418Y-125488552D01*
X174938627Y-125491956D01*
X174896108Y-125542004D01*
X174891366Y-125547586D01*
X174888038Y-125554102D01*
X174884671Y-125559151D01*
X174881504Y-125564280D01*
X174876965Y-125570017D01*
X174846044Y-125636176D01*
X174844141Y-125640070D01*
X174810930Y-125705109D01*
X174809191Y-125712217D01*
X174807092Y-125717860D01*
X174805175Y-125723623D01*
X174802077Y-125730251D01*
X174800587Y-125737413D01*
X174800587Y-125737414D01*
X174787213Y-125801713D01*
X174786243Y-125805997D01*
X174768891Y-125876911D01*
X174768199Y-125888065D01*
X174768163Y-125888063D01*
X174767924Y-125892056D01*
X174767550Y-125896248D01*
X174766059Y-125903416D01*
X174766257Y-125910733D01*
X174768153Y-125980822D01*
X174768199Y-125984229D01*
X174768199Y-128253700D01*
X174751318Y-128316699D01*
X174692172Y-128419143D01*
X174633157Y-128600771D01*
X174613195Y-128790699D01*
X174613885Y-128797264D01*
X174631133Y-128961365D01*
X174633157Y-128980627D01*
X174692172Y-129162255D01*
X174787659Y-129327643D01*
X174792077Y-129332550D01*
X174792078Y-129332551D01*
X174915446Y-129469565D01*
X174914044Y-129470827D01*
X174946505Y-129523519D01*
X174945151Y-129594502D01*
X174934076Y-129619700D01*
X174893983Y-129689143D01*
X174834968Y-129870771D01*
X174834278Y-129877332D01*
X174834278Y-129877334D01*
X174819683Y-130016197D01*
X174815006Y-130060699D01*
X174815696Y-130067264D01*
X174832944Y-130231365D01*
X174834968Y-130250627D01*
X174893983Y-130432255D01*
X174989470Y-130597643D01*
X174993888Y-130602550D01*
X174993889Y-130602551D01*
X175038404Y-130651990D01*
X175069122Y-130715997D01*
X175060357Y-130786451D01*
X175014894Y-130840982D01*
X174944768Y-130862300D01*
X171206308Y-130862300D01*
X171138187Y-130842298D01*
X171091694Y-130788642D01*
X171081590Y-130718368D01*
X171112670Y-130651991D01*
X171173040Y-130584944D01*
X171268527Y-130419556D01*
X171327542Y-130237928D01*
X171339175Y-130127251D01*
X171346814Y-130054565D01*
X171347504Y-130048000D01*
X171337320Y-129951107D01*
X171328232Y-129864635D01*
X171328232Y-129864633D01*
X171327542Y-129858072D01*
X171268527Y-129676444D01*
X171261880Y-129664930D01*
X171208112Y-129571803D01*
X171173040Y-129511056D01*
X171099863Y-129429785D01*
X171069147Y-129365779D01*
X171067500Y-129345476D01*
X171067500Y-126806595D01*
X171087502Y-126738474D01*
X171104405Y-126717499D01*
X171716031Y-126105874D01*
X171778343Y-126071849D01*
X171805126Y-126068970D01*
X171861017Y-126068970D01*
X171867469Y-126067598D01*
X171867474Y-126067598D01*
X171959334Y-126048072D01*
X172047818Y-126029264D01*
X172100562Y-126005781D01*
X172216252Y-125954273D01*
X172216254Y-125954272D01*
X172222282Y-125951588D01*
X172376783Y-125839336D01*
X172468554Y-125737414D01*
X172500151Y-125702322D01*
X172500152Y-125702321D01*
X172504570Y-125697414D01*
X172586648Y-125555251D01*
X172596753Y-125537749D01*
X172596754Y-125537748D01*
X172600057Y-125532026D01*
X172659072Y-125350398D01*
X172661269Y-125329500D01*
X172678344Y-125167035D01*
X172679034Y-125160470D01*
X172659072Y-124970542D01*
X172600057Y-124788914D01*
X172504570Y-124623526D01*
X172494441Y-124612276D01*
X172381205Y-124486515D01*
X172381204Y-124486514D01*
X172376783Y-124481604D01*
X172222282Y-124369352D01*
X172216254Y-124366668D01*
X172216252Y-124366667D01*
X172053849Y-124294361D01*
X172053848Y-124294361D01*
X172047818Y-124291676D01*
X171940059Y-124268771D01*
X171867474Y-124253342D01*
X171867469Y-124253342D01*
X171861017Y-124251970D01*
X171670043Y-124251970D01*
X171663591Y-124253342D01*
X171663586Y-124253342D01*
X171591001Y-124268771D01*
X171483242Y-124291676D01*
X171477212Y-124294361D01*
X171477211Y-124294361D01*
X171314808Y-124366667D01*
X171314806Y-124366668D01*
X171308778Y-124369352D01*
X171154277Y-124481604D01*
X171149856Y-124486514D01*
X171149855Y-124486515D01*
X171036620Y-124612276D01*
X171026490Y-124623526D01*
X170931003Y-124788914D01*
X170871988Y-124970542D01*
X170871298Y-124977103D01*
X170871298Y-124977105D01*
X170854623Y-125135762D01*
X170827610Y-125201419D01*
X170818408Y-125211688D01*
X170041742Y-125988353D01*
X170033463Y-125995887D01*
X170026982Y-126000000D01*
X169981840Y-126048072D01*
X169980357Y-126049651D01*
X169977602Y-126052493D01*
X169957865Y-126072230D01*
X169955385Y-126075427D01*
X169947682Y-126084447D01*
X169917414Y-126116679D01*
X169913595Y-126123625D01*
X169913593Y-126123628D01*
X169907652Y-126134434D01*
X169896801Y-126150953D01*
X169884386Y-126166959D01*
X169881241Y-126174228D01*
X169881238Y-126174232D01*
X169866826Y-126207537D01*
X169861609Y-126218187D01*
X169840305Y-126256940D01*
X169838334Y-126264615D01*
X169838334Y-126264616D01*
X169835267Y-126276562D01*
X169828863Y-126295266D01*
X169820819Y-126313855D01*
X169819580Y-126321678D01*
X169819577Y-126321688D01*
X169813901Y-126357524D01*
X169811495Y-126369144D01*
X169808521Y-126380729D01*
X169800500Y-126411970D01*
X169800500Y-126432224D01*
X169798949Y-126451934D01*
X169795780Y-126471943D01*
X169796526Y-126479835D01*
X169799941Y-126515961D01*
X169800500Y-126527819D01*
X169800500Y-129345476D01*
X169780498Y-129413597D01*
X169768142Y-129429779D01*
X169694960Y-129511056D01*
X169659888Y-129571803D01*
X169606121Y-129664930D01*
X169599473Y-129676444D01*
X169540458Y-129858072D01*
X169539768Y-129864633D01*
X169539768Y-129864635D01*
X169530680Y-129951107D01*
X169520496Y-130048000D01*
X169521186Y-130054565D01*
X169539197Y-130225933D01*
X169526425Y-130295771D01*
X169477923Y-130347618D01*
X169409090Y-130365012D01*
X169341780Y-130342430D01*
X169324792Y-130328198D01*
X168818212Y-129821617D01*
X167809358Y-128812763D01*
X167775332Y-128750451D01*
X167773143Y-128736838D01*
X167759532Y-128607337D01*
X167758842Y-128600772D01*
X167754716Y-128588072D01*
X167701869Y-128425429D01*
X167701869Y-128425428D01*
X167699827Y-128419144D01*
X167689191Y-128400721D01*
X167633520Y-128304298D01*
X167604340Y-128253756D01*
X167598054Y-128246774D01*
X167480975Y-128116745D01*
X167480974Y-128116744D01*
X167476553Y-128111834D01*
X167322052Y-127999582D01*
X167316024Y-127996898D01*
X167316022Y-127996897D01*
X167153619Y-127924591D01*
X167153618Y-127924591D01*
X167147588Y-127921906D01*
X167054187Y-127902053D01*
X166967244Y-127883572D01*
X166967239Y-127883572D01*
X166960787Y-127882200D01*
X166900300Y-127882200D01*
X166832179Y-127862198D01*
X166785686Y-127808542D01*
X166774300Y-127756200D01*
X166774300Y-124188882D01*
X166794302Y-124120761D01*
X166847958Y-124074268D01*
X166874104Y-124065635D01*
X166899830Y-124060167D01*
X166899833Y-124060166D01*
X166906288Y-124058794D01*
X166912319Y-124056109D01*
X167074722Y-123983803D01*
X167074724Y-123983802D01*
X167080752Y-123981118D01*
X167116526Y-123955127D01*
X167142443Y-123936297D01*
X167235253Y-123868866D01*
X167283110Y-123815715D01*
X167358621Y-123731852D01*
X167358622Y-123731851D01*
X167363040Y-123726944D01*
X167458527Y-123561556D01*
X167517542Y-123379928D01*
X167524300Y-123315634D01*
X167536814Y-123196565D01*
X167537504Y-123190000D01*
X167517542Y-123000072D01*
X167458527Y-122818444D01*
X167442192Y-122790150D01*
X167402862Y-122722029D01*
X167363040Y-122653056D01*
X167240339Y-122516782D01*
X167239675Y-122516045D01*
X167239674Y-122516044D01*
X167235253Y-122511134D01*
X167080752Y-122398882D01*
X167074724Y-122396198D01*
X167074722Y-122396197D01*
X166912319Y-122323891D01*
X166912318Y-122323891D01*
X166906288Y-122321206D01*
X166812887Y-122301353D01*
X166725944Y-122282872D01*
X166725939Y-122282872D01*
X166719487Y-122281500D01*
X166528513Y-122281500D01*
X166522061Y-122282872D01*
X166522056Y-122282872D01*
X166435113Y-122301353D01*
X166341712Y-122321206D01*
X166335682Y-122323891D01*
X166335681Y-122323891D01*
X166173278Y-122396197D01*
X166173276Y-122396198D01*
X166167248Y-122398882D01*
X166012747Y-122511134D01*
X166008326Y-122516044D01*
X166008325Y-122516045D01*
X166007662Y-122516782D01*
X165884960Y-122653056D01*
X165845138Y-122722029D01*
X165805809Y-122790150D01*
X165789473Y-122818444D01*
X165730458Y-123000072D01*
X165729768Y-123006633D01*
X165729768Y-123006635D01*
X165713093Y-123165292D01*
X165686080Y-123230949D01*
X165676878Y-123241217D01*
X165664665Y-123253430D01*
X165662185Y-123256627D01*
X165654482Y-123265647D01*
X165624214Y-123297879D01*
X165620395Y-123304825D01*
X165620393Y-123304828D01*
X165614452Y-123315634D01*
X165603601Y-123332153D01*
X165591186Y-123348159D01*
X165588041Y-123355428D01*
X165588038Y-123355432D01*
X165573626Y-123388737D01*
X165568409Y-123399387D01*
X165547105Y-123438140D01*
X165545134Y-123445815D01*
X165545134Y-123445816D01*
X165542067Y-123457762D01*
X165535663Y-123476466D01*
X165527619Y-123495055D01*
X165526380Y-123502878D01*
X165526377Y-123502888D01*
X165520701Y-123538724D01*
X165518295Y-123550344D01*
X165513947Y-123567279D01*
X165507300Y-123593170D01*
X165507300Y-123613424D01*
X165505749Y-123633134D01*
X165502580Y-123653143D01*
X163576500Y-123653143D01*
X163576500Y-122379866D01*
X163569745Y-122317684D01*
X163533925Y-122222134D01*
X173735500Y-122222134D01*
X173742255Y-122284316D01*
X173793385Y-122420705D01*
X173880739Y-122537261D01*
X173997295Y-122624615D01*
X174133684Y-122675745D01*
X174195866Y-122682500D01*
X175816134Y-122682500D01*
X175878316Y-122675745D01*
X176014705Y-122624615D01*
X176131261Y-122537261D01*
X176218615Y-122420705D01*
X176269745Y-122284316D01*
X176276500Y-122222134D01*
X176276500Y-120601866D01*
X176269745Y-120539684D01*
X176218615Y-120403295D01*
X176131261Y-120286739D01*
X176072251Y-120242513D01*
X176029736Y-120185656D01*
X176024710Y-120114837D01*
X176058770Y-120052544D01*
X176072251Y-120040862D01*
X176123724Y-120002285D01*
X176136285Y-119989724D01*
X176212786Y-119887649D01*
X176221324Y-119872054D01*
X176266478Y-119751606D01*
X176270105Y-119736351D01*
X176275631Y-119685486D01*
X176276000Y-119678672D01*
X176276000Y-119144115D01*
X176271525Y-119128876D01*
X176270135Y-119127671D01*
X176262452Y-119126000D01*
X173754116Y-119126000D01*
X173738877Y-119130475D01*
X173737672Y-119131865D01*
X173736001Y-119139548D01*
X173736001Y-119678669D01*
X173736371Y-119685490D01*
X173741895Y-119736352D01*
X173745521Y-119751604D01*
X173790676Y-119872054D01*
X173799214Y-119887649D01*
X173875715Y-119989724D01*
X173888276Y-120002285D01*
X173939749Y-120040862D01*
X173982264Y-120097721D01*
X173987290Y-120168540D01*
X173953230Y-120230833D01*
X173939755Y-120242509D01*
X173880739Y-120286739D01*
X173793385Y-120403295D01*
X173742255Y-120539684D01*
X173735500Y-120601866D01*
X173735500Y-122222134D01*
X163533925Y-122222134D01*
X163518615Y-122181295D01*
X163431261Y-122064739D01*
X163314705Y-121977385D01*
X163178316Y-121926255D01*
X163116134Y-121919500D01*
X161495866Y-121919500D01*
X161433684Y-121926255D01*
X161297295Y-121977385D01*
X161180739Y-122064739D01*
X161136513Y-122123749D01*
X161079656Y-122166264D01*
X161008837Y-122171290D01*
X160946544Y-122137230D01*
X160934862Y-122123749D01*
X160896285Y-122072276D01*
X160883724Y-122059715D01*
X160781649Y-121983214D01*
X160766054Y-121974676D01*
X160645606Y-121929522D01*
X160630351Y-121925895D01*
X160579486Y-121920369D01*
X160572672Y-121920000D01*
X160038115Y-121920000D01*
X160022876Y-121924475D01*
X160021671Y-121925865D01*
X160020000Y-121933548D01*
X160020000Y-125858000D01*
X159999998Y-125926121D01*
X159946342Y-125972614D01*
X159894000Y-125984000D01*
X158514116Y-125984000D01*
X158498877Y-125988475D01*
X158497672Y-125989865D01*
X158496001Y-125997548D01*
X158496001Y-126536669D01*
X158496371Y-126543490D01*
X158501895Y-126594352D01*
X158505521Y-126609604D01*
X158550676Y-126730054D01*
X158559214Y-126745649D01*
X158635715Y-126847724D01*
X158648276Y-126860285D01*
X158699749Y-126898862D01*
X158742264Y-126955721D01*
X158747290Y-127026540D01*
X158713230Y-127088833D01*
X158699755Y-127100509D01*
X158640739Y-127144739D01*
X158553385Y-127261295D01*
X158502255Y-127397684D01*
X158495500Y-127459866D01*
X158495500Y-129080134D01*
X158502255Y-129142316D01*
X158553385Y-129278705D01*
X158640739Y-129395261D01*
X158697657Y-129437919D01*
X158699332Y-129439174D01*
X158741847Y-129496033D01*
X158746873Y-129566852D01*
X158712813Y-129629145D01*
X158699333Y-129640825D01*
X158640739Y-129684739D01*
X158553385Y-129801295D01*
X158502255Y-129937684D01*
X158495500Y-129999866D01*
X158495500Y-131620134D01*
X157988500Y-131620134D01*
X157988500Y-125457885D01*
X158496000Y-125457885D01*
X158500475Y-125473124D01*
X158501865Y-125474329D01*
X158509548Y-125476000D01*
X159493885Y-125476000D01*
X159509124Y-125471525D01*
X159510329Y-125470135D01*
X159512000Y-125462452D01*
X159512000Y-123462115D01*
X159507525Y-123446876D01*
X159506135Y-123445671D01*
X159498452Y-123444000D01*
X158514116Y-123444000D01*
X158498877Y-123448475D01*
X158497672Y-123449865D01*
X158496001Y-123457548D01*
X158496001Y-123996669D01*
X158496371Y-124003490D01*
X158501895Y-124054352D01*
X158505521Y-124069604D01*
X158550676Y-124190054D01*
X158559214Y-124205649D01*
X158635715Y-124307724D01*
X158648275Y-124320284D01*
X158700165Y-124359173D01*
X158742681Y-124416032D01*
X158747707Y-124486851D01*
X158713647Y-124549144D01*
X158700165Y-124560827D01*
X158648275Y-124599716D01*
X158635715Y-124612276D01*
X158559214Y-124714351D01*
X158550676Y-124729946D01*
X158505522Y-124850394D01*
X158501895Y-124865649D01*
X158496369Y-124916514D01*
X158496000Y-124923328D01*
X158496000Y-125457885D01*
X157988500Y-125457885D01*
X157988500Y-122917885D01*
X158496000Y-122917885D01*
X158500475Y-122933124D01*
X158501865Y-122934329D01*
X158509548Y-122936000D01*
X159493885Y-122936000D01*
X159509124Y-122931525D01*
X159510329Y-122930135D01*
X159512000Y-122922452D01*
X159512000Y-121938116D01*
X159507525Y-121922877D01*
X159506135Y-121921672D01*
X159498452Y-121920001D01*
X158959331Y-121920001D01*
X158952510Y-121920371D01*
X158901648Y-121925895D01*
X158886396Y-121929521D01*
X158765946Y-121974676D01*
X158750351Y-121983214D01*
X158648276Y-122059715D01*
X158635715Y-122072276D01*
X158559214Y-122174351D01*
X158550676Y-122189946D01*
X158505522Y-122310394D01*
X158501895Y-122325649D01*
X158496369Y-122376514D01*
X158496000Y-122383328D01*
X158496000Y-122917885D01*
X157988500Y-122917885D01*
X157988500Y-118408669D01*
X158496001Y-118408669D01*
X158496371Y-118415490D01*
X158501895Y-118466352D01*
X158505521Y-118481604D01*
X158550676Y-118602054D01*
X158559214Y-118617649D01*
X158635715Y-118719724D01*
X158648276Y-118732285D01*
X158750351Y-118808786D01*
X158765946Y-118817324D01*
X158886394Y-118862478D01*
X158901649Y-118866105D01*
X158952514Y-118871631D01*
X158959328Y-118872000D01*
X159493885Y-118872000D01*
X159509124Y-118867525D01*
X159510329Y-118866135D01*
X159512000Y-118858452D01*
X159512000Y-118853884D01*
X160020000Y-118853884D01*
X160024475Y-118869123D01*
X160025865Y-118870328D01*
X160033548Y-118871999D01*
X160572669Y-118871999D01*
X160579490Y-118871629D01*
X160630352Y-118866105D01*
X160645604Y-118862479D01*
X160766054Y-118817324D01*
X160781649Y-118808786D01*
X160883724Y-118732285D01*
X160896284Y-118719725D01*
X160935173Y-118667835D01*
X160992032Y-118625319D01*
X161062851Y-118620293D01*
X161125144Y-118654353D01*
X161136827Y-118667835D01*
X161175716Y-118719725D01*
X161188276Y-118732285D01*
X161290351Y-118808786D01*
X161305946Y-118817324D01*
X161426394Y-118862478D01*
X161441649Y-118866105D01*
X161492514Y-118871631D01*
X161499328Y-118872000D01*
X162033885Y-118872000D01*
X162049124Y-118867525D01*
X162050329Y-118866135D01*
X162052000Y-118858452D01*
X162052000Y-118853884D01*
X162560000Y-118853884D01*
X162564475Y-118869123D01*
X162565865Y-118870328D01*
X162573548Y-118871999D01*
X163112669Y-118871999D01*
X163119490Y-118871629D01*
X163170352Y-118866105D01*
X163185604Y-118862479D01*
X163306054Y-118817324D01*
X163321649Y-118808786D01*
X163423724Y-118732285D01*
X163436285Y-118719724D01*
X163512786Y-118617649D01*
X163521324Y-118602054D01*
X163522137Y-118599885D01*
X173736000Y-118599885D01*
X173740475Y-118615124D01*
X173741865Y-118616329D01*
X173749548Y-118618000D01*
X174733885Y-118618000D01*
X174749124Y-118613525D01*
X174750329Y-118612135D01*
X174752000Y-118604452D01*
X174752000Y-117620116D01*
X174747525Y-117604877D01*
X174746135Y-117603672D01*
X174738452Y-117602001D01*
X174199331Y-117602001D01*
X174192510Y-117602371D01*
X174141648Y-117607895D01*
X174126396Y-117611521D01*
X174005946Y-117656676D01*
X173990351Y-117665214D01*
X173888276Y-117741715D01*
X173875715Y-117754276D01*
X173799214Y-117856351D01*
X173790676Y-117871946D01*
X173745522Y-117992394D01*
X173741895Y-118007649D01*
X173736369Y-118058514D01*
X173736000Y-118065328D01*
X173736000Y-118599885D01*
X163522137Y-118599885D01*
X163566478Y-118481606D01*
X163570105Y-118466351D01*
X163575631Y-118415486D01*
X163576000Y-118408672D01*
X163576000Y-117874115D01*
X163571525Y-117858876D01*
X163570135Y-117857671D01*
X163562452Y-117856000D01*
X162578115Y-117856000D01*
X162562876Y-117860475D01*
X162561671Y-117861865D01*
X162560000Y-117869548D01*
X162560000Y-118853884D01*
X162052000Y-118853884D01*
X162052000Y-117874115D01*
X162047525Y-117858876D01*
X162046135Y-117857671D01*
X162038452Y-117856000D01*
X160038115Y-117856000D01*
X160022876Y-117860475D01*
X160021671Y-117861865D01*
X160020000Y-117869548D01*
X160020000Y-118853884D01*
X159512000Y-118853884D01*
X159512000Y-117874115D01*
X159507525Y-117858876D01*
X159506135Y-117857671D01*
X159498452Y-117856000D01*
X158514116Y-117856000D01*
X158498877Y-117860475D01*
X158497672Y-117861865D01*
X158496001Y-117869548D01*
X158496001Y-118408669D01*
X157988500Y-118408669D01*
X157988500Y-115872134D01*
X158495500Y-115872134D01*
X158502255Y-115934316D01*
X158553385Y-116070705D01*
X158640739Y-116187261D01*
X158699749Y-116231487D01*
X158742264Y-116288344D01*
X158747290Y-116359163D01*
X158713230Y-116421456D01*
X158699749Y-116433138D01*
X158648276Y-116471715D01*
X158635715Y-116484276D01*
X158559214Y-116586351D01*
X158550676Y-116601946D01*
X158505522Y-116722394D01*
X158501895Y-116737649D01*
X158496369Y-116788514D01*
X158496000Y-116795328D01*
X158496000Y-117329885D01*
X158500475Y-117345124D01*
X158501865Y-117346329D01*
X158509548Y-117348000D01*
X163557884Y-117348000D01*
X163573123Y-117343525D01*
X163574328Y-117342135D01*
X163575999Y-117334452D01*
X163575999Y-116795331D01*
X163575629Y-116788510D01*
X163570105Y-116737648D01*
X163566479Y-116722396D01*
X163521324Y-116601946D01*
X163512786Y-116586351D01*
X163436285Y-116484276D01*
X163423724Y-116471715D01*
X163372251Y-116433138D01*
X163329736Y-116376279D01*
X163324710Y-116305460D01*
X163358770Y-116243167D01*
X163372245Y-116231491D01*
X163431261Y-116187261D01*
X163518615Y-116070705D01*
X163569745Y-115934316D01*
X163576500Y-115872134D01*
X163576500Y-114251866D01*
X163569745Y-114189684D01*
X163518615Y-114053295D01*
X163431261Y-113936739D01*
X163372251Y-113892513D01*
X163329736Y-113835656D01*
X163324710Y-113764837D01*
X163358770Y-113702544D01*
X163372251Y-113690862D01*
X163423724Y-113652285D01*
X163436285Y-113639724D01*
X163512786Y-113537649D01*
X163521324Y-113522054D01*
X163566478Y-113401606D01*
X163570105Y-113386351D01*
X163575631Y-113335486D01*
X163576000Y-113328672D01*
X163576000Y-112794115D01*
X163571525Y-112778876D01*
X163570135Y-112777671D01*
X163562452Y-112776000D01*
X158514116Y-112776000D01*
X158498877Y-112780475D01*
X158497672Y-112781865D01*
X158496001Y-112789548D01*
X158496001Y-113328669D01*
X158496371Y-113335490D01*
X158501895Y-113386352D01*
X158505521Y-113401604D01*
X158550676Y-113522054D01*
X158559214Y-113537649D01*
X158635715Y-113639724D01*
X158648276Y-113652285D01*
X158699749Y-113690862D01*
X158742264Y-113747721D01*
X158747290Y-113818540D01*
X158713230Y-113880833D01*
X158699755Y-113892509D01*
X158640739Y-113936739D01*
X158553385Y-114053295D01*
X158502255Y-114189684D01*
X158495500Y-114251866D01*
X158495500Y-115872134D01*
X157988500Y-115872134D01*
X157988500Y-112249885D01*
X158496000Y-112249885D01*
X158500475Y-112265124D01*
X158501865Y-112266329D01*
X158509548Y-112268000D01*
X159493885Y-112268000D01*
X159509124Y-112263525D01*
X159510329Y-112262135D01*
X159512000Y-112254452D01*
X159512000Y-112249885D01*
X160020000Y-112249885D01*
X160024475Y-112265124D01*
X160025865Y-112266329D01*
X160033548Y-112268000D01*
X162033885Y-112268000D01*
X162049124Y-112263525D01*
X162050329Y-112262135D01*
X162052000Y-112254452D01*
X162052000Y-112249885D01*
X162560000Y-112249885D01*
X162564475Y-112265124D01*
X162565865Y-112266329D01*
X162573548Y-112268000D01*
X163557884Y-112268000D01*
X163573123Y-112263525D01*
X163574328Y-112262135D01*
X163575999Y-112254452D01*
X163575999Y-111715331D01*
X163575629Y-111708510D01*
X163570105Y-111657648D01*
X163566479Y-111642396D01*
X163521324Y-111521946D01*
X163512786Y-111506351D01*
X163436285Y-111404276D01*
X163423724Y-111391715D01*
X163321649Y-111315214D01*
X163306054Y-111306676D01*
X163185606Y-111261522D01*
X163170351Y-111257895D01*
X163119486Y-111252369D01*
X163112672Y-111252000D01*
X162578115Y-111252000D01*
X162562876Y-111256475D01*
X162561671Y-111257865D01*
X162560000Y-111265548D01*
X162560000Y-112249885D01*
X162052000Y-112249885D01*
X162052000Y-111270116D01*
X162047525Y-111254877D01*
X162046135Y-111253672D01*
X162038452Y-111252001D01*
X161499331Y-111252001D01*
X161492510Y-111252371D01*
X161441648Y-111257895D01*
X161426396Y-111261521D01*
X161305946Y-111306676D01*
X161290351Y-111315214D01*
X161188276Y-111391715D01*
X161175716Y-111404275D01*
X161136827Y-111456165D01*
X161079968Y-111498681D01*
X161009149Y-111503707D01*
X160946856Y-111469647D01*
X160935173Y-111456165D01*
X160896284Y-111404275D01*
X160883724Y-111391715D01*
X160781649Y-111315214D01*
X160766054Y-111306676D01*
X160645606Y-111261522D01*
X160630351Y-111257895D01*
X160579486Y-111252369D01*
X160572672Y-111252000D01*
X160038115Y-111252000D01*
X160022876Y-111256475D01*
X160021671Y-111257865D01*
X160020000Y-111265548D01*
X160020000Y-112249885D01*
X159512000Y-112249885D01*
X159512000Y-111270116D01*
X159507525Y-111254877D01*
X159506135Y-111253672D01*
X159498452Y-111252001D01*
X158959331Y-111252001D01*
X158952510Y-111252371D01*
X158901648Y-111257895D01*
X158886396Y-111261521D01*
X158765946Y-111306676D01*
X158750351Y-111315214D01*
X158648276Y-111391715D01*
X158635715Y-111404276D01*
X158559214Y-111506351D01*
X158550676Y-111521946D01*
X158505522Y-111642394D01*
X158501895Y-111657649D01*
X158496369Y-111708514D01*
X158496000Y-111715328D01*
X158496000Y-112249885D01*
X157988500Y-112249885D01*
X157988500Y-105085839D01*
X167735173Y-105085839D01*
X167735397Y-105090505D01*
X167735397Y-105090511D01*
X167739833Y-105182852D01*
X167747713Y-105346908D01*
X167798704Y-105603256D01*
X167887026Y-105849252D01*
X167889242Y-105853376D01*
X167953753Y-105973437D01*
X168010737Y-106079491D01*
X168013532Y-106083234D01*
X168013534Y-106083237D01*
X168164330Y-106285177D01*
X168164335Y-106285183D01*
X168167122Y-106288915D01*
X168170431Y-106292195D01*
X168170436Y-106292201D01*
X168349426Y-106469635D01*
X168352743Y-106472923D01*
X168356505Y-106475681D01*
X168356508Y-106475684D01*
X168536489Y-106607651D01*
X168563524Y-106627474D01*
X168567667Y-106629654D01*
X168567669Y-106629655D01*
X168790684Y-106746989D01*
X168790689Y-106746991D01*
X168794834Y-106749172D01*
X169041590Y-106835344D01*
X169046183Y-106836216D01*
X169293785Y-106883224D01*
X169293788Y-106883224D01*
X169298374Y-106884095D01*
X169428959Y-106889226D01*
X169554875Y-106894174D01*
X169554881Y-106894174D01*
X169559543Y-106894357D01*
X169638977Y-106885657D01*
X169814707Y-106866412D01*
X169814712Y-106866411D01*
X169819360Y-106865902D01*
X169823884Y-106864711D01*
X170067594Y-106800548D01*
X170067596Y-106800547D01*
X170072117Y-106799357D01*
X170312262Y-106696182D01*
X170534519Y-106558646D01*
X170538082Y-106555629D01*
X170538087Y-106555626D01*
X170730439Y-106392787D01*
X170730440Y-106392786D01*
X170734005Y-106389768D01*
X170879125Y-106224291D01*
X170903257Y-106196774D01*
X170903261Y-106196769D01*
X170906339Y-106193259D01*
X170943710Y-106135160D01*
X170975434Y-106085839D01*
X180565173Y-106085839D01*
X180577713Y-106346908D01*
X180628704Y-106603256D01*
X180717026Y-106849252D01*
X180719242Y-106853376D01*
X180783753Y-106973437D01*
X180840737Y-107079491D01*
X180843532Y-107083234D01*
X180843534Y-107083237D01*
X180994330Y-107285177D01*
X180994335Y-107285183D01*
X180997122Y-107288915D01*
X181000431Y-107292195D01*
X181000436Y-107292201D01*
X181135708Y-107426297D01*
X181182743Y-107472923D01*
X181186505Y-107475681D01*
X181186508Y-107475684D01*
X181389750Y-107624707D01*
X181393524Y-107627474D01*
X181397667Y-107629654D01*
X181397669Y-107629655D01*
X181620684Y-107746989D01*
X181620689Y-107746991D01*
X181624834Y-107749172D01*
X181871590Y-107835344D01*
X181876183Y-107836216D01*
X182123785Y-107883224D01*
X182123788Y-107883224D01*
X182128374Y-107884095D01*
X182258959Y-107889226D01*
X182384875Y-107894174D01*
X182384881Y-107894174D01*
X182389543Y-107894357D01*
X182468977Y-107885657D01*
X182644707Y-107866412D01*
X182644712Y-107866411D01*
X182649360Y-107865902D01*
X182762116Y-107836216D01*
X182897594Y-107800548D01*
X182897596Y-107800547D01*
X182902117Y-107799357D01*
X183142262Y-107696182D01*
X183364519Y-107558646D01*
X183368082Y-107555629D01*
X183368087Y-107555626D01*
X183560439Y-107392787D01*
X183560440Y-107392786D01*
X183564005Y-107389768D01*
X183637718Y-107305715D01*
X183698739Y-107236134D01*
X185419500Y-107236134D01*
X185426255Y-107298316D01*
X185477385Y-107434705D01*
X185564739Y-107551261D01*
X185681295Y-107638615D01*
X185817684Y-107689745D01*
X185879866Y-107696500D01*
X187500134Y-107696500D01*
X187562316Y-107689745D01*
X187698705Y-107638615D01*
X187815261Y-107551261D01*
X187859174Y-107492668D01*
X187916033Y-107450153D01*
X187986852Y-107445127D01*
X188049145Y-107479187D01*
X188060825Y-107492667D01*
X188104739Y-107551261D01*
X188221295Y-107638615D01*
X188357684Y-107689745D01*
X188419866Y-107696500D01*
X190040134Y-107696500D01*
X190102316Y-107689745D01*
X190238705Y-107638615D01*
X190355261Y-107551261D01*
X190399174Y-107492668D01*
X190456033Y-107450153D01*
X190526852Y-107445127D01*
X190589145Y-107479187D01*
X190600825Y-107492667D01*
X190644739Y-107551261D01*
X190761295Y-107638615D01*
X190897684Y-107689745D01*
X190959866Y-107696500D01*
X192580134Y-107696500D01*
X192642316Y-107689745D01*
X192778705Y-107638615D01*
X192895261Y-107551261D01*
X192939174Y-107492668D01*
X192996033Y-107450153D01*
X193066852Y-107445127D01*
X193129145Y-107479187D01*
X193140825Y-107492667D01*
X193184739Y-107551261D01*
X193301295Y-107638615D01*
X193437684Y-107689745D01*
X193499866Y-107696500D01*
X195120134Y-107696500D01*
X195182316Y-107689745D01*
X195318705Y-107638615D01*
X195435261Y-107551261D01*
X195479174Y-107492668D01*
X195536033Y-107450153D01*
X195606852Y-107445127D01*
X195669145Y-107479187D01*
X195680825Y-107492667D01*
X195724739Y-107551261D01*
X195841295Y-107638615D01*
X195977684Y-107689745D01*
X196039866Y-107696500D01*
X197660134Y-107696500D01*
X197722316Y-107689745D01*
X197858705Y-107638615D01*
X197975261Y-107551261D01*
X198019174Y-107492668D01*
X198076033Y-107450153D01*
X198146852Y-107445127D01*
X198209145Y-107479187D01*
X198220825Y-107492667D01*
X198264739Y-107551261D01*
X198381295Y-107638615D01*
X198517684Y-107689745D01*
X198579866Y-107696500D01*
X200200134Y-107696500D01*
X200262316Y-107689745D01*
X200398705Y-107638615D01*
X200515261Y-107551261D01*
X200559174Y-107492668D01*
X200616033Y-107450153D01*
X200686852Y-107445127D01*
X200749145Y-107479187D01*
X200760825Y-107492667D01*
X200804739Y-107551261D01*
X200921295Y-107638615D01*
X201057684Y-107689745D01*
X201119866Y-107696500D01*
X202740134Y-107696500D01*
X202802316Y-107689745D01*
X202938705Y-107638615D01*
X203055261Y-107551261D01*
X203099174Y-107492668D01*
X203156033Y-107450153D01*
X203226852Y-107445127D01*
X203289145Y-107479187D01*
X203300825Y-107492667D01*
X203344739Y-107551261D01*
X203461295Y-107638615D01*
X203597684Y-107689745D01*
X203659866Y-107696500D01*
X205280134Y-107696500D01*
X205342316Y-107689745D01*
X205478705Y-107638615D01*
X205595261Y-107551261D01*
X205639174Y-107492668D01*
X205696033Y-107450153D01*
X205766852Y-107445127D01*
X205829145Y-107479187D01*
X205840825Y-107492667D01*
X205884739Y-107551261D01*
X206001295Y-107638615D01*
X206137684Y-107689745D01*
X206199866Y-107696500D01*
X207820134Y-107696500D01*
X207882316Y-107689745D01*
X208018705Y-107638615D01*
X208135261Y-107551261D01*
X208222615Y-107434705D01*
X208273745Y-107298316D01*
X208280500Y-107236134D01*
X208280500Y-105615866D01*
X208273745Y-105553684D01*
X208222615Y-105417295D01*
X208135261Y-105300739D01*
X208076668Y-105256826D01*
X208034153Y-105199967D01*
X208029127Y-105129148D01*
X208063187Y-105066855D01*
X208076668Y-105055174D01*
X208128081Y-105016642D01*
X208135261Y-105011261D01*
X208222615Y-104894705D01*
X208273745Y-104758316D01*
X208280500Y-104696134D01*
X208280500Y-103075866D01*
X208273745Y-103013684D01*
X208222615Y-102877295D01*
X208135261Y-102760739D01*
X208018705Y-102673385D01*
X207882316Y-102622255D01*
X207820134Y-102615500D01*
X206199866Y-102615500D01*
X206137684Y-102622255D01*
X206001295Y-102673385D01*
X205884739Y-102760739D01*
X205872438Y-102777152D01*
X205840826Y-102819332D01*
X205783967Y-102861847D01*
X205713148Y-102866873D01*
X205650855Y-102832813D01*
X205639174Y-102819332D01*
X205607562Y-102777152D01*
X205595261Y-102760739D01*
X205478705Y-102673385D01*
X205342316Y-102622255D01*
X205280134Y-102615500D01*
X203659866Y-102615500D01*
X203597684Y-102622255D01*
X203461295Y-102673385D01*
X203344739Y-102760739D01*
X203332438Y-102777152D01*
X203300826Y-102819332D01*
X203243967Y-102861847D01*
X203173148Y-102866873D01*
X203110855Y-102832813D01*
X203099174Y-102819332D01*
X203067562Y-102777152D01*
X203055261Y-102760739D01*
X202938705Y-102673385D01*
X202802316Y-102622255D01*
X202740134Y-102615500D01*
X201119866Y-102615500D01*
X201057684Y-102622255D01*
X200921295Y-102673385D01*
X200804739Y-102760739D01*
X200792438Y-102777152D01*
X200760826Y-102819332D01*
X200703967Y-102861847D01*
X200633148Y-102866873D01*
X200570855Y-102832813D01*
X200559174Y-102819332D01*
X200527562Y-102777152D01*
X200515261Y-102760739D01*
X200398705Y-102673385D01*
X200262316Y-102622255D01*
X200200134Y-102615500D01*
X198579866Y-102615500D01*
X198517684Y-102622255D01*
X198381295Y-102673385D01*
X198264739Y-102760739D01*
X198252438Y-102777152D01*
X198220826Y-102819332D01*
X198163967Y-102861847D01*
X198093148Y-102866873D01*
X198030855Y-102832813D01*
X198019174Y-102819332D01*
X197987562Y-102777152D01*
X197975261Y-102760739D01*
X197858705Y-102673385D01*
X197722316Y-102622255D01*
X197660134Y-102615500D01*
X196039866Y-102615500D01*
X195977684Y-102622255D01*
X195841295Y-102673385D01*
X195724739Y-102760739D01*
X195712438Y-102777152D01*
X195680826Y-102819332D01*
X195623967Y-102861847D01*
X195553148Y-102866873D01*
X195490855Y-102832813D01*
X195479174Y-102819332D01*
X195447562Y-102777152D01*
X195435261Y-102760739D01*
X195318705Y-102673385D01*
X195182316Y-102622255D01*
X195120134Y-102615500D01*
X193499866Y-102615500D01*
X193437684Y-102622255D01*
X193301295Y-102673385D01*
X193184739Y-102760739D01*
X193172438Y-102777152D01*
X193140826Y-102819332D01*
X193083967Y-102861847D01*
X193013148Y-102866873D01*
X192950855Y-102832813D01*
X192939174Y-102819332D01*
X192907562Y-102777152D01*
X192895261Y-102760739D01*
X192778705Y-102673385D01*
X192642316Y-102622255D01*
X192580134Y-102615500D01*
X190959866Y-102615500D01*
X190897684Y-102622255D01*
X190761295Y-102673385D01*
X190644739Y-102760739D01*
X190632438Y-102777152D01*
X190600826Y-102819332D01*
X190543967Y-102861847D01*
X190473148Y-102866873D01*
X190410855Y-102832813D01*
X190399174Y-102819332D01*
X190367562Y-102777152D01*
X190355261Y-102760739D01*
X190238705Y-102673385D01*
X190102316Y-102622255D01*
X190040134Y-102615500D01*
X188419866Y-102615500D01*
X188357684Y-102622255D01*
X188221295Y-102673385D01*
X188104739Y-102760739D01*
X188092438Y-102777152D01*
X188060826Y-102819332D01*
X188003967Y-102861847D01*
X187933148Y-102866873D01*
X187870855Y-102832813D01*
X187859174Y-102819332D01*
X187827562Y-102777152D01*
X187815261Y-102760739D01*
X187698705Y-102673385D01*
X187562316Y-102622255D01*
X187500134Y-102615500D01*
X185879866Y-102615500D01*
X185817684Y-102622255D01*
X185681295Y-102673385D01*
X185564739Y-102760739D01*
X185477385Y-102877295D01*
X185426255Y-103013684D01*
X185419500Y-103075866D01*
X185419500Y-104696134D01*
X185426255Y-104758316D01*
X185477385Y-104894705D01*
X185564739Y-105011261D01*
X185571919Y-105016642D01*
X185623332Y-105055174D01*
X185665847Y-105112033D01*
X185670873Y-105182852D01*
X185636813Y-105245145D01*
X185623333Y-105256825D01*
X185564739Y-105300739D01*
X185477385Y-105417295D01*
X185426255Y-105553684D01*
X185419500Y-105615866D01*
X185419500Y-107236134D01*
X183698739Y-107236134D01*
X183733257Y-107196774D01*
X183733261Y-107196769D01*
X183736339Y-107193259D01*
X183877733Y-106973437D01*
X183985083Y-106735129D01*
X183986353Y-106730626D01*
X184054760Y-106488076D01*
X184054761Y-106488073D01*
X184056030Y-106483572D01*
X184072832Y-106351496D01*
X184088616Y-106227421D01*
X184088616Y-106227417D01*
X184089014Y-106224291D01*
X184091431Y-106132000D01*
X184072061Y-105871348D01*
X184069630Y-105860601D01*
X184015408Y-105620980D01*
X184014377Y-105616423D01*
X184012684Y-105612069D01*
X183921340Y-105377176D01*
X183921339Y-105377173D01*
X183919647Y-105372823D01*
X183904836Y-105346908D01*
X183828521Y-105213385D01*
X183789951Y-105145902D01*
X183628138Y-104940643D01*
X183437763Y-104761557D01*
X183269950Y-104645140D01*
X183226851Y-104615241D01*
X183226848Y-104615239D01*
X183223009Y-104612576D01*
X183218816Y-104610508D01*
X182992781Y-104499040D01*
X182992778Y-104499039D01*
X182988593Y-104496975D01*
X182942449Y-104482204D01*
X182744123Y-104418720D01*
X182739665Y-104417293D01*
X182481693Y-104375279D01*
X182367942Y-104373790D01*
X182225022Y-104371919D01*
X182225019Y-104371919D01*
X182220345Y-104371858D01*
X181961362Y-104407104D01*
X181956876Y-104408412D01*
X181956874Y-104408412D01*
X181928988Y-104416540D01*
X181710433Y-104480243D01*
X181706180Y-104482203D01*
X181706179Y-104482204D01*
X181669659Y-104499040D01*
X181473072Y-104589668D01*
X181434067Y-104615241D01*
X181258404Y-104730410D01*
X181258399Y-104730414D01*
X181254491Y-104732976D01*
X181094247Y-104876000D01*
X181073290Y-104894705D01*
X181059494Y-104907018D01*
X180892363Y-105107970D01*
X180889934Y-105111973D01*
X180763070Y-105321039D01*
X180756771Y-105331419D01*
X180655697Y-105572455D01*
X180591359Y-105825783D01*
X180590891Y-105830434D01*
X180590890Y-105830438D01*
X180588578Y-105853400D01*
X180565173Y-106085839D01*
X170975434Y-106085839D01*
X171045205Y-105977367D01*
X171047733Y-105973437D01*
X171155083Y-105735129D01*
X171168386Y-105687962D01*
X171224760Y-105488076D01*
X171224761Y-105488073D01*
X171226030Y-105483572D01*
X171234461Y-105417295D01*
X171258616Y-105227421D01*
X171258616Y-105227417D01*
X171259014Y-105224291D01*
X171261431Y-105132000D01*
X171252858Y-105016642D01*
X171242407Y-104876000D01*
X171242406Y-104875996D01*
X171242061Y-104871348D01*
X171219848Y-104773182D01*
X171224322Y-104702328D01*
X171266394Y-104645140D01*
X171332705Y-104619775D01*
X171402669Y-104634539D01*
X171540607Y-104709121D01*
X171551907Y-104713871D01*
X171686693Y-104755595D01*
X171700795Y-104755801D01*
X171704000Y-104749045D01*
X171704000Y-104742047D01*
X172212000Y-104742047D01*
X172215973Y-104755578D01*
X172223768Y-104756698D01*
X172350342Y-104719446D01*
X172363658Y-104714066D01*
X172434311Y-104707093D01*
X172497518Y-104739424D01*
X172533212Y-104800796D01*
X172533248Y-104860839D01*
X172513153Y-104942961D01*
X172512500Y-104953486D01*
X172512500Y-105273780D01*
X172526950Y-105397721D01*
X172529446Y-105404599D01*
X172529447Y-105404601D01*
X172534055Y-105417295D01*
X172583877Y-105554553D01*
X172675356Y-105694082D01*
X172796481Y-105808824D01*
X172833693Y-105830438D01*
X172934420Y-105888945D01*
X172934423Y-105888946D01*
X172940753Y-105892623D01*
X172947761Y-105894745D01*
X172947762Y-105894746D01*
X172979545Y-105904372D01*
X173100433Y-105940986D01*
X173107742Y-105941439D01*
X173107745Y-105941440D01*
X173177821Y-105945787D01*
X173266957Y-105951317D01*
X173274173Y-105950077D01*
X173274175Y-105950077D01*
X173424175Y-105924302D01*
X173424176Y-105924302D01*
X173431391Y-105923062D01*
X173584914Y-105857737D01*
X173719292Y-105758846D01*
X173764470Y-105705669D01*
X173823815Y-105666706D01*
X173894808Y-105666013D01*
X173947145Y-105695777D01*
X174007829Y-105753263D01*
X174066481Y-105808824D01*
X174103693Y-105830438D01*
X174204420Y-105888945D01*
X174204423Y-105888946D01*
X174210753Y-105892623D01*
X174217761Y-105894745D01*
X174217762Y-105894746D01*
X174249545Y-105904372D01*
X174370433Y-105940986D01*
X174377742Y-105941439D01*
X174377745Y-105941440D01*
X174447821Y-105945787D01*
X174536957Y-105951317D01*
X174544173Y-105950077D01*
X174544175Y-105950077D01*
X174694175Y-105924302D01*
X174694176Y-105924302D01*
X174701391Y-105923062D01*
X174854914Y-105857737D01*
X174989292Y-105758846D01*
X175034468Y-105705671D01*
X175092577Y-105637273D01*
X175092580Y-105637269D01*
X175097316Y-105631694D01*
X175103654Y-105619283D01*
X175169863Y-105489618D01*
X175173191Y-105483101D01*
X175189294Y-105417295D01*
X175199110Y-105377176D01*
X175212847Y-105321039D01*
X175213500Y-105310514D01*
X175213500Y-104990220D01*
X175201384Y-104886297D01*
X175199898Y-104873551D01*
X175199898Y-104873550D01*
X175199050Y-104866279D01*
X175197132Y-104860996D01*
X175200891Y-104790797D01*
X175242413Y-104733209D01*
X175308478Y-104707211D01*
X175356976Y-104712344D01*
X175496693Y-104755595D01*
X175510795Y-104755801D01*
X175514000Y-104749045D01*
X175514000Y-104742047D01*
X176022000Y-104742047D01*
X176025973Y-104755578D01*
X176033768Y-104756698D01*
X176160342Y-104719446D01*
X176173658Y-104714066D01*
X176244311Y-104707093D01*
X176307518Y-104739424D01*
X176343212Y-104800796D01*
X176343248Y-104860839D01*
X176323153Y-104942961D01*
X176322500Y-104953486D01*
X176322500Y-105273780D01*
X176336950Y-105397721D01*
X176339446Y-105404599D01*
X176339447Y-105404601D01*
X176344055Y-105417295D01*
X176393877Y-105554553D01*
X176485356Y-105694082D01*
X176606481Y-105808824D01*
X176643693Y-105830438D01*
X176744420Y-105888945D01*
X176744423Y-105888946D01*
X176750753Y-105892623D01*
X176757761Y-105894745D01*
X176757762Y-105894746D01*
X176789545Y-105904372D01*
X176910433Y-105940986D01*
X176917742Y-105941439D01*
X176917745Y-105941440D01*
X176987821Y-105945787D01*
X177076957Y-105951317D01*
X177084173Y-105950077D01*
X177084175Y-105950077D01*
X177234175Y-105924302D01*
X177234176Y-105924302D01*
X177241391Y-105923062D01*
X177394914Y-105857737D01*
X177529292Y-105758846D01*
X177574470Y-105705669D01*
X177633815Y-105666706D01*
X177704808Y-105666013D01*
X177757145Y-105695777D01*
X177817829Y-105753263D01*
X177876481Y-105808824D01*
X177913693Y-105830438D01*
X178014420Y-105888945D01*
X178014423Y-105888946D01*
X178020753Y-105892623D01*
X178027761Y-105894745D01*
X178027762Y-105894746D01*
X178059545Y-105904372D01*
X178180433Y-105940986D01*
X178187742Y-105941439D01*
X178187745Y-105941440D01*
X178257821Y-105945787D01*
X178346957Y-105951317D01*
X178354173Y-105950077D01*
X178354175Y-105950077D01*
X178504175Y-105924302D01*
X178504176Y-105924302D01*
X178511391Y-105923062D01*
X178664914Y-105857737D01*
X178799292Y-105758846D01*
X178844468Y-105705671D01*
X178902577Y-105637273D01*
X178902580Y-105637269D01*
X178907316Y-105631694D01*
X178913654Y-105619283D01*
X178979863Y-105489618D01*
X178983191Y-105483101D01*
X178999294Y-105417295D01*
X179009110Y-105377176D01*
X179022847Y-105321039D01*
X179023500Y-105310514D01*
X179023500Y-104990220D01*
X179011384Y-104886297D01*
X179009898Y-104873551D01*
X179009898Y-104873550D01*
X179009050Y-104866279D01*
X179007132Y-104860996D01*
X179010891Y-104790797D01*
X179052413Y-104733209D01*
X179118478Y-104707211D01*
X179166976Y-104712344D01*
X179306693Y-104755595D01*
X179320795Y-104755801D01*
X179324000Y-104749045D01*
X179324000Y-104742047D01*
X179832000Y-104742047D01*
X179835973Y-104755578D01*
X179843768Y-104756698D01*
X179970342Y-104719446D01*
X179981710Y-104714853D01*
X180154666Y-104624434D01*
X180164928Y-104617718D01*
X180317020Y-104495432D01*
X180325786Y-104486848D01*
X180451236Y-104337344D01*
X180458160Y-104327233D01*
X180552184Y-104156202D01*
X180557012Y-104144938D01*
X180616025Y-103958905D01*
X180618573Y-103946917D01*
X180623387Y-103904004D01*
X180620834Y-103889473D01*
X180608287Y-103886000D01*
X179850115Y-103886000D01*
X179834876Y-103890475D01*
X179833671Y-103891865D01*
X179832000Y-103899548D01*
X179832000Y-104742047D01*
X179324000Y-104742047D01*
X179324000Y-103904115D01*
X179319525Y-103888876D01*
X179318135Y-103887671D01*
X179310452Y-103886000D01*
X178548096Y-103886000D01*
X178533669Y-103890236D01*
X178531608Y-103902589D01*
X178534527Y-103932361D01*
X178536910Y-103944396D01*
X178593317Y-104131223D01*
X178597990Y-104142561D01*
X178601251Y-104148694D01*
X178615571Y-104218232D01*
X178590024Y-104284472D01*
X178532719Y-104326385D01*
X178461851Y-104330664D01*
X178453491Y-104328443D01*
X178435567Y-104323014D01*
X178428258Y-104322561D01*
X178428255Y-104322560D01*
X178358179Y-104318213D01*
X178269043Y-104312683D01*
X178261827Y-104313923D01*
X178261825Y-104313923D01*
X178111825Y-104339698D01*
X178104609Y-104340938D01*
X177951086Y-104406263D01*
X177816708Y-104505154D01*
X177771530Y-104558331D01*
X177712185Y-104597294D01*
X177641192Y-104597987D01*
X177588855Y-104568223D01*
X177474833Y-104460210D01*
X177469519Y-104455176D01*
X177385672Y-104406474D01*
X177331580Y-104375055D01*
X177331577Y-104375054D01*
X177325247Y-104371377D01*
X177318239Y-104369255D01*
X177318238Y-104369254D01*
X177286455Y-104359628D01*
X177165567Y-104323014D01*
X177158258Y-104322561D01*
X177158255Y-104322560D01*
X177088179Y-104318213D01*
X176999043Y-104312683D01*
X176991827Y-104313923D01*
X176991825Y-104313923D01*
X176877836Y-104333510D01*
X176807312Y-104325333D01*
X176752404Y-104280326D01*
X176730545Y-104212778D01*
X176740687Y-104159692D01*
X176747015Y-104144929D01*
X176806025Y-103958905D01*
X176808573Y-103946917D01*
X176813387Y-103904004D01*
X176810834Y-103889473D01*
X176798287Y-103886000D01*
X176040115Y-103886000D01*
X176024876Y-103890475D01*
X176023671Y-103891865D01*
X176022000Y-103899548D01*
X176022000Y-104742047D01*
X175514000Y-104742047D01*
X175514000Y-103904115D01*
X175509525Y-103888876D01*
X175508135Y-103887671D01*
X175500452Y-103886000D01*
X174738096Y-103886000D01*
X174723669Y-103890236D01*
X174721608Y-103902589D01*
X174724527Y-103932361D01*
X174726910Y-103944396D01*
X174783317Y-104131223D01*
X174787990Y-104142561D01*
X174791251Y-104148694D01*
X174805571Y-104218232D01*
X174780024Y-104284472D01*
X174722719Y-104326385D01*
X174651851Y-104330664D01*
X174643491Y-104328443D01*
X174625567Y-104323014D01*
X174618258Y-104322561D01*
X174618255Y-104322560D01*
X174548179Y-104318213D01*
X174459043Y-104312683D01*
X174451827Y-104313923D01*
X174451825Y-104313923D01*
X174301825Y-104339698D01*
X174294609Y-104340938D01*
X174141086Y-104406263D01*
X174006708Y-104505154D01*
X173961530Y-104558331D01*
X173902185Y-104597294D01*
X173831192Y-104597987D01*
X173778855Y-104568223D01*
X173664833Y-104460210D01*
X173659519Y-104455176D01*
X173575672Y-104406474D01*
X173521580Y-104375055D01*
X173521577Y-104375054D01*
X173515247Y-104371377D01*
X173508239Y-104369255D01*
X173508238Y-104369254D01*
X173476455Y-104359628D01*
X173355567Y-104323014D01*
X173348258Y-104322561D01*
X173348255Y-104322560D01*
X173278179Y-104318213D01*
X173189043Y-104312683D01*
X173181827Y-104313923D01*
X173181825Y-104313923D01*
X173067836Y-104333510D01*
X172997312Y-104325333D01*
X172942404Y-104280326D01*
X172920545Y-104212778D01*
X172930687Y-104159692D01*
X172937015Y-104144929D01*
X172996025Y-103958905D01*
X172998573Y-103946917D01*
X173003387Y-103904004D01*
X173000834Y-103889473D01*
X172988287Y-103886000D01*
X172230115Y-103886000D01*
X172214876Y-103890475D01*
X172213671Y-103891865D01*
X172212000Y-103899548D01*
X172212000Y-104742047D01*
X171704000Y-104742047D01*
X171704000Y-103904115D01*
X171699525Y-103888876D01*
X171698135Y-103887671D01*
X171690452Y-103886000D01*
X170928096Y-103886000D01*
X170897491Y-103894986D01*
X170863619Y-103916755D01*
X170792622Y-103916755D01*
X170741787Y-103887634D01*
X170611171Y-103764763D01*
X170607763Y-103761557D01*
X170393009Y-103612576D01*
X170388816Y-103610508D01*
X170162781Y-103499040D01*
X170162778Y-103499039D01*
X170158593Y-103496975D01*
X170112449Y-103482204D01*
X169914123Y-103418720D01*
X169909665Y-103417293D01*
X169651693Y-103375279D01*
X169535954Y-103373764D01*
X169395022Y-103371919D01*
X169395019Y-103371919D01*
X169390345Y-103371858D01*
X169131362Y-103407104D01*
X168880433Y-103480243D01*
X168876180Y-103482203D01*
X168876179Y-103482204D01*
X168839659Y-103499040D01*
X168643072Y-103589668D01*
X168604067Y-103615241D01*
X168428404Y-103730410D01*
X168428399Y-103730414D01*
X168424491Y-103732976D01*
X168229494Y-103907018D01*
X168062363Y-104107970D01*
X168059934Y-104111973D01*
X167929826Y-104326385D01*
X167926771Y-104331419D01*
X167825697Y-104572455D01*
X167761359Y-104825783D01*
X167760891Y-104830434D01*
X167760890Y-104830438D01*
X167753179Y-104907018D01*
X167735173Y-105085839D01*
X157988500Y-105085839D01*
X157988500Y-103359996D01*
X170912613Y-103359996D01*
X170915166Y-103374527D01*
X170927713Y-103378000D01*
X171685885Y-103378000D01*
X171701124Y-103373525D01*
X171702329Y-103372135D01*
X171704000Y-103364452D01*
X171704000Y-103359885D01*
X172212000Y-103359885D01*
X172216475Y-103375124D01*
X172217865Y-103376329D01*
X172225548Y-103378000D01*
X172987904Y-103378000D01*
X173002331Y-103373764D01*
X173004392Y-103361411D01*
X173004253Y-103359996D01*
X174722613Y-103359996D01*
X174725166Y-103374527D01*
X174737713Y-103378000D01*
X175495885Y-103378000D01*
X175511124Y-103373525D01*
X175512329Y-103372135D01*
X175514000Y-103364452D01*
X175514000Y-103359885D01*
X176022000Y-103359885D01*
X176026475Y-103375124D01*
X176027865Y-103376329D01*
X176035548Y-103378000D01*
X176797904Y-103378000D01*
X176812331Y-103373764D01*
X176814392Y-103361411D01*
X176814253Y-103359996D01*
X178532613Y-103359996D01*
X178535166Y-103374527D01*
X178547713Y-103378000D01*
X179305885Y-103378000D01*
X179321124Y-103373525D01*
X179322329Y-103372135D01*
X179324000Y-103364452D01*
X179324000Y-103359885D01*
X179832000Y-103359885D01*
X179836475Y-103375124D01*
X179837865Y-103376329D01*
X179845548Y-103378000D01*
X180607904Y-103378000D01*
X180622331Y-103373764D01*
X180624392Y-103361411D01*
X180621473Y-103331639D01*
X180619090Y-103319604D01*
X180562683Y-103132777D01*
X180558008Y-103121435D01*
X180466388Y-102949121D01*
X180459601Y-102938905D01*
X180336253Y-102787665D01*
X180327609Y-102778961D01*
X180177237Y-102654562D01*
X180167069Y-102647703D01*
X179995393Y-102554879D01*
X179984093Y-102550129D01*
X179849307Y-102508405D01*
X179835205Y-102508199D01*
X179832000Y-102514955D01*
X179832000Y-103359885D01*
X179324000Y-103359885D01*
X179324000Y-102521953D01*
X179320027Y-102508422D01*
X179312232Y-102507302D01*
X179185658Y-102544554D01*
X179174290Y-102549147D01*
X179001334Y-102639566D01*
X178991072Y-102646282D01*
X178838980Y-102768568D01*
X178830214Y-102777152D01*
X178704764Y-102926656D01*
X178697840Y-102936767D01*
X178603816Y-103107798D01*
X178598988Y-103119062D01*
X178539975Y-103305095D01*
X178537427Y-103317083D01*
X178532613Y-103359996D01*
X176814253Y-103359996D01*
X176811473Y-103331639D01*
X176809090Y-103319604D01*
X176752683Y-103132777D01*
X176748008Y-103121435D01*
X176656388Y-102949121D01*
X176649601Y-102938905D01*
X176526253Y-102787665D01*
X176517609Y-102778961D01*
X176367237Y-102654562D01*
X176357069Y-102647703D01*
X176185393Y-102554879D01*
X176174093Y-102550129D01*
X176039307Y-102508405D01*
X176025205Y-102508199D01*
X176022000Y-102514955D01*
X176022000Y-103359885D01*
X175514000Y-103359885D01*
X175514000Y-102521953D01*
X175510027Y-102508422D01*
X175502232Y-102507302D01*
X175375658Y-102544554D01*
X175364290Y-102549147D01*
X175191334Y-102639566D01*
X175181072Y-102646282D01*
X175028980Y-102768568D01*
X175020214Y-102777152D01*
X174894764Y-102926656D01*
X174887840Y-102936767D01*
X174793816Y-103107798D01*
X174788988Y-103119062D01*
X174729975Y-103305095D01*
X174727427Y-103317083D01*
X174722613Y-103359996D01*
X173004253Y-103359996D01*
X173001473Y-103331639D01*
X172999090Y-103319604D01*
X172942683Y-103132777D01*
X172938008Y-103121435D01*
X172846388Y-102949121D01*
X172839601Y-102938905D01*
X172716253Y-102787665D01*
X172707609Y-102778961D01*
X172557237Y-102654562D01*
X172547069Y-102647703D01*
X172375393Y-102554879D01*
X172364093Y-102550129D01*
X172229307Y-102508405D01*
X172215205Y-102508199D01*
X172212000Y-102514955D01*
X172212000Y-103359885D01*
X171704000Y-103359885D01*
X171704000Y-102521953D01*
X171700027Y-102508422D01*
X171692232Y-102507302D01*
X171565658Y-102544554D01*
X171554290Y-102549147D01*
X171381334Y-102639566D01*
X171371072Y-102646282D01*
X171218980Y-102768568D01*
X171210214Y-102777152D01*
X171084764Y-102926656D01*
X171077840Y-102936767D01*
X170983816Y-103107798D01*
X170978988Y-103119062D01*
X170919975Y-103305095D01*
X170917427Y-103317083D01*
X170912613Y-103359996D01*
X157988500Y-103359996D01*
X157988500Y-102234500D01*
X158008502Y-102166379D01*
X158062158Y-102119886D01*
X158114500Y-102108500D01*
X217297500Y-102108500D01*
X217365621Y-102128502D01*
G37*
%TD.AperFunction*%
%TA.AperFunction,Conductor*%
G36*
X179241532Y-124957315D02*
G01*
X179298368Y-124999862D01*
X179323179Y-125066382D01*
X179323500Y-125075371D01*
X179323500Y-126286134D01*
X179330255Y-126348316D01*
X179381385Y-126484705D01*
X179468739Y-126601261D01*
X179475919Y-126606642D01*
X179527332Y-126645174D01*
X179569847Y-126702033D01*
X179574873Y-126772852D01*
X179540813Y-126835145D01*
X179527333Y-126846825D01*
X179468739Y-126890739D01*
X179381385Y-127007295D01*
X179330255Y-127143684D01*
X179323500Y-127205866D01*
X179323500Y-128826134D01*
X179330255Y-128888316D01*
X179381385Y-129024705D01*
X179468739Y-129141261D01*
X179475919Y-129146642D01*
X179527332Y-129185174D01*
X179569847Y-129242033D01*
X179574873Y-129312852D01*
X179540813Y-129375145D01*
X179527333Y-129386825D01*
X179468739Y-129430739D01*
X179381385Y-129547295D01*
X179330255Y-129683684D01*
X179329402Y-129691537D01*
X179329401Y-129691541D01*
X179326789Y-129715591D01*
X179299548Y-129781154D01*
X179241186Y-129821581D01*
X179175329Y-129825232D01*
X179066301Y-129802057D01*
X179066296Y-129802057D01*
X179059844Y-129800685D01*
X178868870Y-129800685D01*
X178862418Y-129802057D01*
X178862413Y-129802057D01*
X178775470Y-129820538D01*
X178682069Y-129840391D01*
X178676039Y-129843076D01*
X178676038Y-129843076D01*
X178513635Y-129915382D01*
X178513633Y-129915383D01*
X178507605Y-129918067D01*
X178502264Y-129921947D01*
X178502263Y-129921948D01*
X178363504Y-130022763D01*
X178353104Y-130030319D01*
X178348681Y-130035231D01*
X178348679Y-130035233D01*
X178346364Y-130037803D01*
X178344654Y-130038856D01*
X178343777Y-130039646D01*
X178343633Y-130039486D01*
X178285916Y-130075039D01*
X178214933Y-130073683D01*
X178163638Y-130042582D01*
X177833405Y-129712349D01*
X177799379Y-129650037D01*
X177796500Y-129623254D01*
X177796500Y-126520999D01*
X177813381Y-126457999D01*
X177841351Y-126409555D01*
X177872527Y-126355556D01*
X177927387Y-126186714D01*
X177958125Y-126136556D01*
X179108405Y-124986276D01*
X179170717Y-124952250D01*
X179241532Y-124957315D01*
G37*
%TD.AperFunction*%
%TD*%
M02*
