%TF.GenerationSoftware,KiCad,Pcbnew,6.0.11+dfsg-1~bpo11+1*%
%TF.CreationDate,2023-06-15T01:19:56+00:00*%
%TF.ProjectId,PROGLOG01,50524f47-4c4f-4473-9031-2e6b69636164,B*%
%TF.SameCoordinates,Original*%
%TF.FileFunction,Copper,L2,Bot*%
%TF.FilePolarity,Positive*%
%FSLAX46Y46*%
G04 Gerber Fmt 4.6, Leading zero omitted, Abs format (unit mm)*
G04 Created by KiCad (PCBNEW 6.0.11+dfsg-1~bpo11+1) date 2023-06-15 01:19:56*
%MOMM*%
%LPD*%
G01*
G04 APERTURE LIST*
G04 Aperture macros list*
%AMRoundRect*
0 Rectangle with rounded corners*
0 $1 Rounding radius*
0 $2 $3 $4 $5 $6 $7 $8 $9 X,Y pos of 4 corners*
0 Add a 4 corners polygon primitive as box body*
4,1,4,$2,$3,$4,$5,$6,$7,$8,$9,$2,$3,0*
0 Add four circle primitives for the rounded corners*
1,1,$1+$1,$2,$3*
1,1,$1+$1,$4,$5*
1,1,$1+$1,$6,$7*
1,1,$1+$1,$8,$9*
0 Add four rect primitives between the rounded corners*
20,1,$1+$1,$2,$3,$4,$5,0*
20,1,$1+$1,$4,$5,$6,$7,0*
20,1,$1+$1,$6,$7,$8,$9,0*
20,1,$1+$1,$8,$9,$2,$3,0*%
%AMRotRect*
0 Rectangle, with rotation*
0 The origin of the aperture is its center*
0 $1 length*
0 $2 width*
0 $3 Rotation angle, in degrees counterclockwise*
0 Add horizontal line*
21,1,$1,$2,0,0,$3*%
%AMFreePoly0*
4,1,23,0.405000,0.745865,0.430885,0.748318,0.514326,0.717475,0.576139,0.653497,0.604092,0.569043,0.592655,0.480821,0.586333,0.471118,0.535041,0.293601,0.507443,0.099107,0.507318,-0.097336,0.534670,-0.291865,0.585847,-0.469827,0.592286,-0.479814,0.603303,-0.568089,0.574948,-0.652409,0.512833,-0.716092,0.429245,-0.746538,0.405000,-0.744124,0.405000,-0.750000,-0.645000,-0.750000,
-0.645000,0.750000,0.405000,0.750000,0.405000,0.745865,0.405000,0.745865,$1*%
G04 Aperture macros list end*
%TA.AperFunction,ComponentPad*%
%ADD10R,1.524000X1.524000*%
%TD*%
%TA.AperFunction,ComponentPad*%
%ADD11C,6.000000*%
%TD*%
%TA.AperFunction,ComponentPad*%
%ADD12R,1.676400X1.676400*%
%TD*%
%TA.AperFunction,ComponentPad*%
%ADD13O,1.100000X1.300000*%
%TD*%
%TA.AperFunction,ComponentPad*%
%ADD14C,2.500000*%
%TD*%
%TA.AperFunction,SMDPad,CuDef*%
%ADD15RoundRect,0.062500X0.062500X-0.375000X0.062500X0.375000X-0.062500X0.375000X-0.062500X-0.375000X0*%
%TD*%
%TA.AperFunction,SMDPad,CuDef*%
%ADD16RoundRect,0.062500X0.375000X-0.062500X0.375000X0.062500X-0.375000X0.062500X-0.375000X-0.062500X0*%
%TD*%
%TA.AperFunction,SMDPad,CuDef*%
%ADD17R,5.600000X5.600000*%
%TD*%
%TA.AperFunction,SMDPad,CuDef*%
%ADD18RoundRect,0.250000X-0.475000X0.250000X-0.475000X-0.250000X0.475000X-0.250000X0.475000X0.250000X0*%
%TD*%
%TA.AperFunction,SMDPad,CuDef*%
%ADD19R,0.400000X1.500000*%
%TD*%
%TA.AperFunction,SMDPad,CuDef*%
%ADD20R,1.560000X0.650000*%
%TD*%
%TA.AperFunction,SMDPad,CuDef*%
%ADD21RoundRect,0.250000X0.475000X-0.250000X0.475000X0.250000X-0.475000X0.250000X-0.475000X-0.250000X0*%
%TD*%
%TA.AperFunction,SMDPad,CuDef*%
%ADD22RoundRect,0.250000X-0.262500X-0.450000X0.262500X-0.450000X0.262500X0.450000X-0.262500X0.450000X0*%
%TD*%
%TA.AperFunction,SMDPad,CuDef*%
%ADD23RoundRect,0.250000X0.132583X-0.503814X0.503814X-0.132583X-0.132583X0.503814X-0.503814X0.132583X0*%
%TD*%
%TA.AperFunction,SMDPad,CuDef*%
%ADD24RoundRect,0.250000X-0.450000X0.262500X-0.450000X-0.262500X0.450000X-0.262500X0.450000X0.262500X0*%
%TD*%
%TA.AperFunction,SMDPad,CuDef*%
%ADD25RotRect,1.600000X1.350000X135.000000*%
%TD*%
%TA.AperFunction,SMDPad,CuDef*%
%ADD26FreePoly0,270.000000*%
%TD*%
%TA.AperFunction,SMDPad,CuDef*%
%ADD27FreePoly0,90.000000*%
%TD*%
%TA.AperFunction,SMDPad,CuDef*%
%ADD28R,1.700000X1.300000*%
%TD*%
%TA.AperFunction,SMDPad,CuDef*%
%ADD29RoundRect,0.250000X0.159099X-0.512652X0.512652X-0.159099X-0.159099X0.512652X-0.512652X0.159099X0*%
%TD*%
%TA.AperFunction,SMDPad,CuDef*%
%ADD30R,1.550000X0.600000*%
%TD*%
%TA.AperFunction,SMDPad,CuDef*%
%ADD31RoundRect,0.250000X0.262500X0.450000X-0.262500X0.450000X-0.262500X-0.450000X0.262500X-0.450000X0*%
%TD*%
%TA.AperFunction,SMDPad,CuDef*%
%ADD32RoundRect,0.250000X0.512652X0.159099X0.159099X0.512652X-0.512652X-0.159099X-0.159099X-0.512652X0*%
%TD*%
%TA.AperFunction,SMDPad,CuDef*%
%ADD33RoundRect,0.250000X-0.512652X-0.159099X-0.159099X-0.512652X0.512652X0.159099X0.159099X0.512652X0*%
%TD*%
%TA.AperFunction,SMDPad,CuDef*%
%ADD34RoundRect,0.250000X0.450000X-0.262500X0.450000X0.262500X-0.450000X0.262500X-0.450000X-0.262500X0*%
%TD*%
%TA.AperFunction,ViaPad*%
%ADD35C,0.800000*%
%TD*%
%TA.AperFunction,Conductor*%
%ADD36C,0.500000*%
%TD*%
%TA.AperFunction,Conductor*%
%ADD37C,0.250000*%
%TD*%
%TA.AperFunction,Conductor*%
%ADD38C,0.400000*%
%TD*%
G04 APERTURE END LIST*
D10*
%TO.P,J23,1*%
%TO.N,/IOT_50b*%
X204470000Y-103886000D03*
%TO.P,J23,2*%
X204470000Y-106426000D03*
%TD*%
%TO.P,J21,1*%
%TO.N,/IOT_48b*%
X199390000Y-103886000D03*
%TO.P,J21,2*%
X199390000Y-106426000D03*
%TD*%
%TO.P,J1,1,2*%
%TO.N,GND*%
X159766000Y-112522000D03*
%TO.P,J1,2,2*%
X162306000Y-112522000D03*
%TO.P,J1,3,4*%
%TO.N,+3V3*%
X159766000Y-115062000D03*
%TO.P,J1,4,4*%
X162306000Y-115062000D03*
%TO.P,J1,5,6*%
%TO.N,GND*%
X159766000Y-117602000D03*
%TO.P,J1,6,6*%
X162306000Y-117602000D03*
%TD*%
%TO.P,J18,1*%
%TO.N,/IOT_44b*%
X194310000Y-103886000D03*
%TO.P,J18,2*%
X194310000Y-106426000D03*
%TD*%
%TO.P,J25,1*%
%TO.N,/RGB0*%
X207010000Y-103886000D03*
%TO.P,J25,2*%
X207010000Y-106426000D03*
%TD*%
%TO.P,J24,1*%
%TO.N,/IOT_51a*%
X213106000Y-112776000D03*
%TO.P,J24,2*%
X215646000Y-112776000D03*
%TD*%
%TO.P,J16,1*%
%TO.N,/IOT_42b*%
X189230000Y-103886000D03*
%TO.P,J16,2*%
X189230000Y-106426000D03*
%TD*%
%TO.P,J6,1*%
%TO.N,/IOB_16a*%
X199390000Y-136906000D03*
%TO.P,J6,2*%
X199390000Y-139446000D03*
%TD*%
%TO.P,J20,1*%
%TO.N,/IOT_46b_G0*%
X196850000Y-103886000D03*
%TO.P,J20,2*%
X196850000Y-106426000D03*
%TD*%
D11*
%TO.P,M4,1*%
%TO.N,GND*%
X162306000Y-136906000D03*
%TD*%
D10*
%TO.P,J4,1*%
%TO.N,GND*%
X159766000Y-123190000D03*
%TO.P,J4,2*%
%TO.N,/SPI_SS*%
X162306000Y-123190000D03*
%TO.P,J4,3*%
%TO.N,GND*%
X159766000Y-125730000D03*
%TO.P,J4,4*%
%TO.N,/SPI_SI*%
X162306000Y-125730000D03*
%TO.P,J4,5*%
%TO.N,/SPI_SCK*%
X159766000Y-128270000D03*
%TO.P,J4,6*%
%TO.N,/SPI_SO*%
X162306000Y-128270000D03*
%TO.P,J4,7*%
%TO.N,/NRESET*%
X159766000Y-130810000D03*
%TO.P,J4,8*%
%TO.N,GND*%
X162306000Y-130810000D03*
%TD*%
%TO.P,J5,1*%
%TO.N,/IOB_13b*%
X201930000Y-136906000D03*
%TO.P,J5,2*%
X201930000Y-139446000D03*
%TD*%
D12*
%TO.P,SW1,1,1*%
%TO.N,/NRESET*%
X168909600Y-134402000D03*
X175209600Y-134402000D03*
%TO.P,SW1,2,2*%
%TO.N,GND*%
X168909600Y-138902000D03*
X175209600Y-138902000D03*
%TD*%
D10*
%TO.P,J31,1*%
%TO.N,/IOB_5b*%
X213106000Y-120396000D03*
%TO.P,J31,2*%
X215646000Y-120396000D03*
%TD*%
%TO.P,J29,1*%
%TO.N,/IOB_3b_G6*%
X213106000Y-117856000D03*
%TO.P,J29,2*%
X215646000Y-117856000D03*
%TD*%
%TO.P,J27,1*%
%TO.N,/IOB_0a*%
X213106000Y-122936000D03*
%TO.P,J27,2*%
X215646000Y-122936000D03*
%TD*%
%TO.P,J19,1*%
%TO.N,/IOT_45a_G1*%
X201930000Y-103886000D03*
%TO.P,J19,2*%
X201930000Y-106426000D03*
%TD*%
%TO.P,J28,1*%
%TO.N,/IOB_2a*%
X213106000Y-125476000D03*
%TO.P,J28,2*%
X215646000Y-125476000D03*
%TD*%
%TO.P,J30,1*%
%TO.N,/IOB_4a*%
X213106000Y-128016000D03*
%TO.P,J30,2*%
X215646000Y-128016000D03*
%TD*%
%TO.P,J7,1*%
%TO.N,/IOB_18a*%
X196850000Y-136906000D03*
%TO.P,J7,2*%
X196850000Y-139446000D03*
%TD*%
D11*
%TO.P,M2,1*%
%TO.N,GND*%
X213106000Y-106426000D03*
%TD*%
%TO.P,M1,1*%
%TO.N,GND*%
X213106000Y-136906000D03*
%TD*%
D10*
%TO.P,J2,1*%
%TO.N,Net-(J2-Pad1)*%
X175006000Y-121412000D03*
%TO.P,J2,2*%
%TO.N,GND*%
X175006000Y-118872000D03*
%TD*%
%TO.P,J34,1*%
%TO.N,/IOB_9b*%
X207010000Y-136906000D03*
%TO.P,J34,2*%
X207010000Y-139446000D03*
%TD*%
%TO.P,J32,1*%
%TO.N,/IOB_6a*%
X213106000Y-130556000D03*
%TO.P,J32,2*%
X215646000Y-130556000D03*
%TD*%
%TO.P,J13,1*%
%TO.N,/IOB_29b*%
X180594000Y-128016000D03*
%TO.P,J13,2*%
X183134000Y-128016000D03*
%TD*%
%TO.P,J11,1*%
%TO.N,/IOB_24a*%
X189230000Y-136906000D03*
%TO.P,J11,2*%
X189230000Y-139446000D03*
%TD*%
%TO.P,J14,1*%
%TO.N,/IOB_31b*%
X180594000Y-130556000D03*
%TO.P,J14,2*%
X183134000Y-130556000D03*
%TD*%
%TO.P,J15,1*%
%TO.N,/IOT_41a*%
X186690000Y-103886000D03*
%TO.P,J15,2*%
X186690000Y-106426000D03*
%TD*%
%TO.P,J22,1*%
%TO.N,/IOT_49a*%
X213106000Y-115316000D03*
%TO.P,J22,2*%
X215646000Y-115316000D03*
%TD*%
%TO.P,J33,1*%
%TO.N,/IOB_8a*%
X204470000Y-136906000D03*
%TO.P,J33,2*%
X204470000Y-139446000D03*
%TD*%
%TO.P,J17,1*%
%TO.N,/IOT_43a*%
X191770000Y-103886000D03*
%TO.P,J17,2*%
X191770000Y-106426000D03*
%TD*%
%TO.P,J8,1*%
%TO.N,/IOB_20a*%
X194310000Y-136906000D03*
%TO.P,J8,2*%
X194310000Y-139446000D03*
%TD*%
%TO.P,J9,1*%
%TO.N,/IOB_22b*%
X191770000Y-136906000D03*
%TO.P,J9,2*%
X191770000Y-139446000D03*
%TD*%
D13*
%TO.P,J26,1,1*%
%TO.N,GND*%
X171958000Y-103632000D03*
%TO.P,J26,2,2*%
%TO.N,/IOT_37a*%
X173228000Y-105132000D03*
%TO.P,J26,3,3*%
%TO.N,/IOT_36b*%
X174498000Y-105132000D03*
%TO.P,J26,4,4*%
%TO.N,GND*%
X175768000Y-103632000D03*
%TO.P,J26,5,5*%
%TO.N,/IOT_39a*%
X177038000Y-105132000D03*
%TO.P,J26,6,6*%
%TO.N,/IOT_38b*%
X178308000Y-105132000D03*
%TO.P,J26,7,7*%
%TO.N,GND*%
X179578000Y-103632000D03*
D14*
%TO.P,J26,8*%
%TO.N,N/C*%
X182328000Y-106132000D03*
%TO.P,J26,9*%
X169498000Y-105132000D03*
%TD*%
D11*
%TO.P,M3,1*%
%TO.N,GND*%
X162306000Y-106426000D03*
%TD*%
D10*
%TO.P,J10,1*%
%TO.N,/IOB_23b*%
X180594000Y-125476000D03*
%TO.P,J10,2*%
X183134000Y-125476000D03*
%TD*%
%TO.P,J3,1*%
%TO.N,/VCCIO_0*%
X180594000Y-112776000D03*
%TO.P,J3,2*%
X183134000Y-112776000D03*
%TO.P,J3,3*%
%TO.N,/VCCIO_2*%
X180594000Y-115316000D03*
%TO.P,J3,4*%
X183134000Y-115316000D03*
%TD*%
D15*
%TO.P,U4,1,VCCIO_2*%
%TO.N,/VCCIO_2*%
X203841800Y-125192400D03*
%TO.P,U4,2,IOB_6a*%
%TO.N,/IOB_6a*%
X203341800Y-125192400D03*
%TO.P,U4,3,IOB_9b*%
%TO.N,/IOB_9b*%
X202841800Y-125192400D03*
%TO.P,U4,4,IOB_8a*%
%TO.N,/IOB_8a*%
X202341800Y-125192400D03*
%TO.P,U4,5,VCC*%
%TO.N,+1V2*%
X201841800Y-125192400D03*
%TO.P,U4,6,IOB_13b*%
%TO.N,/IOB_13b*%
X201341800Y-125192400D03*
%TO.P,U4,7,CDONE*%
%TO.N,unconnected-(U4-Pad7)*%
X200841800Y-125192400D03*
%TO.P,U4,8,~{CRESET}*%
%TO.N,/NRESET*%
X200341800Y-125192400D03*
%TO.P,U4,9,IOB_16a*%
%TO.N,/IOB_16a*%
X199841800Y-125192400D03*
%TO.P,U4,10,IOB_18a*%
%TO.N,/IOB_18a*%
X199341800Y-125192400D03*
%TO.P,U4,11,IOB_20a*%
%TO.N,/IOB_20a*%
X198841800Y-125192400D03*
%TO.P,U4,12,IOB_22b*%
%TO.N,/IOB_22b*%
X198341800Y-125192400D03*
D16*
%TO.P,U4,13,IOB_24a*%
%TO.N,/IOB_24a*%
X197654300Y-124504900D03*
%TO.P,U4,14,IOB_32a_SPI_SO*%
%TO.N,/SPI_SI*%
X197654300Y-124004900D03*
%TO.P,U4,15,IOB_34a_SPI_SCK*%
%TO.N,/SPI_SCK*%
X197654300Y-123504900D03*
%TO.P,U4,16,IOB_35b_SPI_SS*%
%TO.N,/SPI_SS*%
X197654300Y-123004900D03*
%TO.P,U4,17,IOB_33b_SPI_SI*%
%TO.N,/SPI_SO*%
X197654300Y-122504900D03*
%TO.P,U4,18,IOB_31b*%
%TO.N,/IOB_31b*%
X197654300Y-122004900D03*
%TO.P,U4,19,IOB_29b*%
%TO.N,/IOB_29b*%
X197654300Y-121504900D03*
%TO.P,U4,20,IOB_25b_G3*%
%TO.N,/IOB_25b*%
X197654300Y-121004900D03*
%TO.P,U4,21,IOB_23b*%
%TO.N,/IOB_23b*%
X197654300Y-120504900D03*
%TO.P,U4,22,SPI_VCCIO1*%
%TO.N,/VCCIO_1*%
X197654300Y-120004900D03*
%TO.P,U4,23,IOT_37a*%
%TO.N,/IOT_37a*%
X197654300Y-119504900D03*
%TO.P,U4,24,VPP_2V5*%
%TO.N,/VCCIO_1*%
X197654300Y-119004900D03*
D15*
%TO.P,U4,25,IOT_36b*%
%TO.N,/IOT_36b*%
X198341800Y-118317400D03*
%TO.P,U4,26,IOT_39a*%
%TO.N,/IOT_39a*%
X198841800Y-118317400D03*
%TO.P,U4,27,IOT_38b*%
%TO.N,/IOT_38b*%
X199341800Y-118317400D03*
%TO.P,U4,28,IOT_41a*%
%TO.N,/IOT_41a*%
X199841800Y-118317400D03*
%TO.P,U4,29,VCCPLL*%
%TO.N,Net-(C5-Pad1)*%
X200341800Y-118317400D03*
%TO.P,U4,30,VCC*%
%TO.N,+1V2*%
X200841800Y-118317400D03*
%TO.P,U4,31,IOT_42b*%
%TO.N,/IOT_42b*%
X201341800Y-118317400D03*
%TO.P,U4,32,IOT_43a*%
%TO.N,/IOT_43a*%
X201841800Y-118317400D03*
%TO.P,U4,33,VCCIO_0*%
%TO.N,/VCCIO_0*%
X202341800Y-118317400D03*
%TO.P,U4,34,IOT_44b*%
%TO.N,/IOT_44b*%
X202841800Y-118317400D03*
%TO.P,U4,35,IOT_46b_G0*%
%TO.N,/IOT_46b_G0*%
X203341800Y-118317400D03*
%TO.P,U4,36,IOT_48b*%
%TO.N,/IOT_48b*%
X203841800Y-118317400D03*
D16*
%TO.P,U4,37,IOT_45a_G1*%
%TO.N,/IOT_45a_G1*%
X204529300Y-119004900D03*
%TO.P,U4,38,IOT_50b*%
%TO.N,/IOT_50b*%
X204529300Y-119504900D03*
%TO.P,U4,39,RGB0*%
%TO.N,/RGB0*%
X204529300Y-120004900D03*
%TO.P,U4,40,RGB1*%
%TO.N,/RGB1*%
X204529300Y-120504900D03*
%TO.P,U4,41,RGB2*%
%TO.N,/RGB2*%
X204529300Y-121004900D03*
%TO.P,U4,42,IOT_51a*%
%TO.N,/IOT_51a*%
X204529300Y-121504900D03*
%TO.P,U4,43,IOT_49a*%
%TO.N,/IOT_49a*%
X204529300Y-122004900D03*
%TO.P,U4,44,IOB_3b_G6*%
%TO.N,/IOB_3b_G6*%
X204529300Y-122504900D03*
%TO.P,U4,45,IOB_5b*%
%TO.N,/IOB_5b*%
X204529300Y-123004900D03*
%TO.P,U4,46,IOB_0a*%
%TO.N,/IOB_0a*%
X204529300Y-123504900D03*
%TO.P,U4,47,IOB_2a*%
%TO.N,/IOB_2a*%
X204529300Y-124004900D03*
%TO.P,U4,48,IOB_4a*%
%TO.N,/IOB_4a*%
X204529300Y-124504900D03*
D17*
%TO.P,U4,49,GND*%
%TO.N,GND*%
X201091800Y-121754900D03*
%TD*%
D18*
%TO.P,C3,1*%
%TO.N,+3V3*%
X165100000Y-117160000D03*
%TO.P,C3,2*%
%TO.N,GND*%
X165100000Y-119060000D03*
%TD*%
D19*
%TO.P,U1,1,IN*%
%TO.N,+3V3*%
X169403000Y-117288000D03*
%TO.P,U1,2,GND*%
%TO.N,GND*%
X170053000Y-117288000D03*
%TO.P,U1,3,ON*%
%TO.N,+1V2*%
X170703000Y-117288000D03*
%TO.P,U1,4*%
%TO.N,N/C*%
X170703000Y-119948000D03*
%TO.P,U1,5,QOD*%
%TO.N,/VCCIO_1*%
X170053000Y-119948000D03*
%TO.P,U1,6,OUT*%
X169403000Y-119948000D03*
%TD*%
D20*
%TO.P,U2,1,VIN*%
%TO.N,+3V3*%
X168068000Y-114742000D03*
%TO.P,U2,2,GND*%
%TO.N,GND*%
X168068000Y-113792000D03*
%TO.P,U2,3,EN*%
%TO.N,+3V3*%
X168068000Y-112842000D03*
%TO.P,U2,4,NC*%
%TO.N,unconnected-(U2-Pad4)*%
X170768000Y-112842000D03*
%TO.P,U2,5,VOUT*%
%TO.N,+1V2*%
X170768000Y-114742000D03*
%TD*%
D21*
%TO.P,C4,1*%
%TO.N,+1V2*%
X172974000Y-114805500D03*
%TO.P,C4,2*%
%TO.N,GND*%
X172974000Y-112905500D03*
%TD*%
D22*
%TO.P,R3,1*%
%TO.N,/VCCIO_1*%
X176189000Y-112776000D03*
%TO.P,R3,2*%
%TO.N,/VCCIO_0*%
X178014000Y-112776000D03*
%TD*%
%TO.P,R2,1*%
%TO.N,/VCCIO_1*%
X176189000Y-115316000D03*
%TO.P,R2,2*%
%TO.N,/VCCIO_2*%
X178014000Y-115316000D03*
%TD*%
D23*
%TO.P,R8,1*%
%TO.N,/IOT_39a*%
X185930046Y-110233954D03*
%TO.P,R8,2*%
%TO.N,/IOT_38b*%
X187220516Y-108943484D03*
%TD*%
D24*
%TO.P,R10,1*%
%TO.N,Net-(D3-Pad1)*%
X209550000Y-112117500D03*
%TO.P,R10,2*%
%TO.N,/RGB2*%
X209550000Y-113942500D03*
%TD*%
D22*
%TO.P,R9,1*%
%TO.N,Net-(D2-Pad1)*%
X192699000Y-130048000D03*
%TO.P,R9,2*%
%TO.N,/RGB1*%
X194524000Y-130048000D03*
%TD*%
D24*
%TO.P,R5,1*%
%TO.N,/VCCIO_1*%
X169926000Y-121833000D03*
%TO.P,R5,2*%
%TO.N,/SPI_SS*%
X169926000Y-123658000D03*
%TD*%
D25*
%TO.P,X1,1,EN*%
%TO.N,+3V3*%
X188990421Y-124464188D03*
%TO.P,X1,2,GND*%
%TO.N,GND*%
X186939812Y-122413579D03*
%TO.P,X1,3,OUT*%
%TO.N,/IOB_25b*%
X188707579Y-120645812D03*
%TO.P,X1,4,V+*%
%TO.N,+3V3*%
X190758188Y-122696421D03*
%TD*%
D21*
%TO.P,C1,1*%
%TO.N,GND*%
X203200000Y-133779300D03*
%TO.P,C1,2*%
%TO.N,+1V2*%
X203200000Y-131879300D03*
%TD*%
D18*
%TO.P,C2,1*%
%TO.N,+3V3*%
X167132000Y-117223500D03*
%TO.P,C2,2*%
%TO.N,GND*%
X167132000Y-119123500D03*
%TD*%
D23*
%TO.P,R7,1*%
%TO.N,/IOT_37a*%
X186488846Y-112824754D03*
%TO.P,R7,2*%
%TO.N,/IOT_36b*%
X187779316Y-111534284D03*
%TD*%
D24*
%TO.P,R6,1*%
%TO.N,/VCCIO_1*%
X171958000Y-121833000D03*
%TO.P,R6,2*%
%TO.N,/NRESET*%
X171958000Y-123658000D03*
%TD*%
D26*
%TO.P,D3,1,K*%
%TO.N,Net-(D3-Pad1)*%
X180086000Y-136271000D03*
D27*
%TO.P,D3,2,A*%
%TO.N,+3V3*%
X180086000Y-140081000D03*
%TD*%
D26*
%TO.P,D2,1,K*%
%TO.N,Net-(D2-Pad1)*%
X184150000Y-136271000D03*
D27*
%TO.P,D2,2,A*%
%TO.N,+3V3*%
X184150000Y-140081000D03*
%TD*%
D28*
%TO.P,D1,1,K*%
%TO.N,+3V3*%
X165354000Y-115062000D03*
%TO.P,D1,2,A*%
%TO.N,GND*%
X165354000Y-111562000D03*
%TD*%
D21*
%TO.P,C6,1*%
%TO.N,Net-(C5-Pad1)*%
X195707000Y-114234000D03*
%TO.P,C6,2*%
%TO.N,GND*%
X195707000Y-112334000D03*
%TD*%
%TO.P,C5,1*%
%TO.N,Net-(C5-Pad1)*%
X193675000Y-112951300D03*
%TO.P,C5,2*%
%TO.N,GND*%
X193675000Y-111051300D03*
%TD*%
D29*
%TO.P,C9,1*%
%TO.N,GND*%
X184037049Y-118781751D03*
%TO.P,C9,2*%
%TO.N,/VCCIO_1*%
X185380551Y-117438249D03*
%TD*%
D30*
%TO.P,U3,1,~{CS}*%
%TO.N,/SPI_SS*%
X168480760Y-130060700D03*
%TO.P,U3,2,SO/IO1*%
%TO.N,/SPI_SO*%
X168480760Y-128790700D03*
%TO.P,U3,3,~{WP}/IO2*%
%TO.N,+3V3*%
X168480760Y-127520700D03*
%TO.P,U3,4,GND*%
%TO.N,GND*%
X168480760Y-126250700D03*
%TO.P,U3,5,SI/IO0*%
%TO.N,/SPI_SI*%
X173880760Y-126250700D03*
%TO.P,U3,6,SCK*%
%TO.N,/SPI_SCK*%
X173880760Y-127520700D03*
%TO.P,U3,7,~{HOLD}/IO3*%
%TO.N,Net-(J2-Pad1)*%
X173880760Y-128790700D03*
%TO.P,U3,8,VCC*%
%TO.N,+3V3*%
X173880760Y-130060700D03*
%TD*%
D31*
%TO.P,R1,1*%
%TO.N,+3V3*%
X177379000Y-123698000D03*
%TO.P,R1,2*%
%TO.N,Net-(J2-Pad1)*%
X175554000Y-123698000D03*
%TD*%
D32*
%TO.P,C10,1*%
%TO.N,GND*%
X207694032Y-128776232D03*
%TO.P,C10,2*%
%TO.N,/VCCIO_2*%
X206350530Y-127432730D03*
%TD*%
%TO.P,C7,1*%
%TO.N,+3V3*%
X187209770Y-125551270D03*
%TO.P,C7,2*%
%TO.N,GND*%
X185866268Y-124207768D03*
%TD*%
D33*
%TO.P,C8,1*%
%TO.N,/VCCIO_0*%
X187466049Y-114695049D03*
%TO.P,C8,2*%
%TO.N,GND*%
X188809551Y-116038551D03*
%TD*%
D34*
%TO.P,R4,1*%
%TO.N,Net-(C5-Pad1)*%
X197764400Y-114196500D03*
%TO.P,R4,2*%
%TO.N,+1V2*%
X197764400Y-112371500D03*
%TD*%
D35*
%TO.N,+3V3*%
X175728510Y-130060699D03*
X169392601Y-111734601D03*
X187960000Y-126746000D03*
X177546000Y-135636000D03*
X177038000Y-125984000D03*
%TO.N,GND*%
X167132000Y-109220000D03*
X166573200Y-121361200D03*
X199136000Y-122936000D03*
X199136000Y-121412000D03*
X184759600Y-106781600D03*
X182626000Y-120269000D03*
X199136000Y-119888000D03*
X192595500Y-121285000D03*
X164058600Y-127685800D03*
X178206400Y-108127800D03*
X209503219Y-129163019D03*
X159004000Y-120396000D03*
X203200000Y-119888000D03*
X203200000Y-135001000D03*
X162560000Y-120396000D03*
X190347600Y-116357400D03*
X184912000Y-121666000D03*
X167589200Y-111480600D03*
X181356000Y-118872000D03*
X203200000Y-122936000D03*
X192278000Y-111760000D03*
X203200000Y-121412000D03*
X185064400Y-126644400D03*
X160528000Y-120396000D03*
X178308000Y-126619000D03*
X173101000Y-120167400D03*
X168656000Y-109220000D03*
X170180000Y-109220000D03*
%TO.N,+1V2*%
X201841800Y-127012000D03*
X200152000Y-114046000D03*
X174498000Y-111506000D03*
%TO.N,/VCCIO_1*%
X196342000Y-118364000D03*
X195467103Y-119765797D03*
%TO.N,/VCCIO_2*%
X184861200Y-115316000D03*
X205486000Y-126238000D03*
%TO.N,/NRESET*%
X179980358Y-134620000D03*
X178964357Y-130709185D03*
X201015600Y-131902200D03*
%TO.N,/SPI_SO*%
X166865300Y-128790700D03*
X177342800Y-131495800D03*
%TO.N,/SPI_SS*%
X166624000Y-123190000D03*
X168480760Y-131853960D03*
X177234664Y-132514836D03*
%TO.N,/SPI_SI*%
X170434000Y-130048000D03*
X171765530Y-125160470D03*
%TO.N,/VCCIO_0*%
X202566801Y-116433600D03*
X188925200Y-114517000D03*
%TO.N,/RGB1*%
X194564000Y-128778000D03*
X207968010Y-116847190D03*
%TO.N,Net-(J2-Pad1)*%
X176276000Y-125222000D03*
X175526699Y-128790699D03*
%TO.N,Net-(D3-Pad1)*%
X191034036Y-130810000D03*
X209550000Y-110744000D03*
%TD*%
D36*
%TO.N,+3V3*%
X169755760Y-127520700D02*
X168480760Y-127520700D01*
X188990421Y-124464188D02*
X190758188Y-122696421D01*
X187211538Y-125997538D02*
X187960000Y-126746000D01*
X173880760Y-130060700D02*
X172605760Y-130060700D01*
X167132000Y-115417600D02*
X167807600Y-114742000D01*
X167132000Y-117221000D02*
X167132000Y-115417600D01*
X178836000Y-140176000D02*
X177546000Y-138886000D01*
X169357000Y-114742000D02*
X169392600Y-114706400D01*
X187211538Y-125553038D02*
X187211538Y-125997538D01*
X162306000Y-115062000D02*
X165354000Y-115062000D01*
X170065760Y-127520700D02*
X169755760Y-127520700D01*
X169392600Y-112826800D02*
X169377400Y-112842000D01*
X188990421Y-124464188D02*
X188300388Y-124464188D01*
X177419000Y-123698000D02*
X177419000Y-125603000D01*
X165354000Y-116903500D02*
X165100000Y-117157500D01*
X172605760Y-130060700D02*
X170065760Y-127520700D01*
X177546000Y-138886000D02*
X177546000Y-135636000D01*
X169377400Y-112842000D02*
X168068000Y-112842000D01*
X165354000Y-115062000D02*
X165354000Y-116903500D01*
X165100000Y-117157500D02*
X167068500Y-117157500D01*
X169392600Y-114884200D02*
X169392601Y-111734601D01*
X168068000Y-114742000D02*
X169357000Y-114742000D01*
X184150000Y-140176000D02*
X180086000Y-140176000D01*
X188300388Y-124464188D02*
X187211538Y-125553038D01*
X173880760Y-130060700D02*
X175728510Y-130060699D01*
X177419000Y-125603000D02*
X177038000Y-125984000D01*
X167807600Y-114742000D02*
X168068000Y-114742000D01*
X180086000Y-140176000D02*
X178836000Y-140176000D01*
X159766000Y-115062000D02*
X162306000Y-115062000D01*
X169403000Y-114582000D02*
X169403000Y-117288000D01*
X167068500Y-117157500D02*
X167132000Y-117221000D01*
%TO.N,GND*%
X188809551Y-116038551D02*
X189444551Y-116038551D01*
X189763400Y-116357400D02*
X190347600Y-116357400D01*
D37*
X170053000Y-117288000D02*
X170053000Y-118288000D01*
D36*
X195592700Y-112331500D02*
X194310000Y-111048800D01*
X207695800Y-128778000D02*
X208080819Y-129163019D01*
X168068000Y-113792000D02*
X166878000Y-113792000D01*
X185864500Y-124206000D02*
X186939812Y-123130688D01*
X188696600Y-116078000D02*
X188976000Y-116357400D01*
X189444551Y-116038551D02*
X189763400Y-116357400D01*
X194310000Y-111048800D02*
X193675000Y-111048800D01*
D37*
X170053000Y-118288000D02*
X169723000Y-118618000D01*
D36*
X195707000Y-112331500D02*
X195592700Y-112331500D01*
X208080819Y-129163019D02*
X209503219Y-129163019D01*
X188976000Y-116357400D02*
X189763400Y-116357400D01*
X203200000Y-133781800D02*
X203200000Y-135001000D01*
X186939812Y-123130688D02*
X186939812Y-122413579D01*
D37*
X169723000Y-118618000D02*
X168656000Y-118618000D01*
D36*
%TO.N,+1V2*%
X170768000Y-114742000D02*
X172908000Y-114742000D01*
X202561490Y-131238290D02*
X202561490Y-127731690D01*
X199644000Y-113538000D02*
X198930900Y-113538000D01*
D37*
X200841800Y-118317400D02*
X200841800Y-114735800D01*
X201841800Y-125192400D02*
X201841800Y-127012000D01*
D36*
X202561490Y-127731690D02*
X201841800Y-127012000D01*
X203200000Y-131876800D02*
X202561490Y-131238290D01*
X174172500Y-114808000D02*
X172974000Y-114808000D01*
D37*
X200841800Y-114735800D02*
X200152000Y-114046000D01*
D36*
X174498000Y-114482500D02*
X174498000Y-111506000D01*
X174172500Y-114808000D02*
X174498000Y-114482500D01*
X198930900Y-113538000D02*
X197764400Y-112371500D01*
X170703000Y-114807000D02*
X170768000Y-114742000D01*
X170703000Y-117288000D02*
X170703000Y-114807000D01*
X200152000Y-114046000D02*
X199644000Y-113538000D01*
X172908000Y-114742000D02*
X172974000Y-114808000D01*
%TO.N,/VCCIO_1*%
X184653701Y-117436481D02*
X184311220Y-117094000D01*
X175204500Y-115316000D02*
X171958000Y-118562500D01*
X170053000Y-121706000D02*
X169926000Y-121833000D01*
X195467103Y-119765797D02*
X195067104Y-119365798D01*
X193991384Y-119365798D02*
X192125986Y-117500400D01*
D37*
X195467103Y-119765797D02*
X195706206Y-120004900D01*
D36*
X184311220Y-117094000D02*
X177673000Y-117094000D01*
X177673000Y-117094000D02*
X176149000Y-115570000D01*
X170053000Y-120777000D02*
X170053000Y-121706000D01*
X176149000Y-115316000D02*
X176149000Y-112776000D01*
X170053000Y-121148000D02*
X170053000Y-120777000D01*
X195067104Y-119365798D02*
X193991384Y-119365798D01*
X186829281Y-117436481D02*
X185382319Y-117436481D01*
X171958000Y-121793000D02*
X170698000Y-121793000D01*
X185382319Y-117436481D02*
X184653701Y-117436481D01*
X195467103Y-119765797D02*
X195467103Y-119619897D01*
D37*
X196982900Y-119004900D02*
X196342000Y-118364000D01*
D36*
X169403000Y-119948000D02*
X170053000Y-119948000D01*
X170053000Y-120777000D02*
X170053000Y-119948000D01*
X171958000Y-118562500D02*
X171958000Y-121793000D01*
D37*
X195706206Y-120004900D02*
X197654300Y-120004900D01*
D36*
X176149000Y-115570000D02*
X176149000Y-115316000D01*
X186893200Y-117500400D02*
X186829281Y-117436481D01*
X169926000Y-121833000D02*
X171958000Y-121833000D01*
X176149000Y-115316000D02*
X175204500Y-115316000D01*
X192125986Y-117500400D02*
X186893200Y-117500400D01*
D37*
X197654300Y-119004900D02*
X196982900Y-119004900D01*
%TO.N,/IOT_37a*%
X197654300Y-119504900D02*
X196409898Y-119504900D01*
D38*
X185628878Y-112105500D02*
X186376416Y-112853038D01*
D37*
X195695786Y-118790788D02*
X194229560Y-118790788D01*
D38*
X185400279Y-112105501D02*
X185628878Y-112105500D01*
X184516178Y-111221400D02*
X185400279Y-112105501D01*
D37*
X186662924Y-113055400D02*
X186460562Y-112853038D01*
X194229560Y-118790788D02*
X188494172Y-113055400D01*
D38*
X178198780Y-111221400D02*
X184516178Y-111221400D01*
X173228000Y-105132000D02*
X173228000Y-106250620D01*
D37*
X196409898Y-119504900D02*
X195695786Y-118790788D01*
D38*
X186376416Y-112853038D02*
X186460562Y-112853038D01*
D37*
X188494172Y-113055400D02*
X186662924Y-113055400D01*
D38*
X173228000Y-106250620D02*
X178198780Y-111221400D01*
D36*
%TO.N,/VCCIO_2*%
X183134000Y-115316000D02*
X180594000Y-115316000D01*
X205486000Y-126238000D02*
X205486000Y-126568200D01*
D37*
X203841800Y-125192400D02*
X204440400Y-125192400D01*
D36*
X178054000Y-115316000D02*
X180594000Y-115316000D01*
X183134000Y-115316000D02*
X184861200Y-115316000D01*
X205486000Y-126568200D02*
X206348762Y-127430962D01*
D37*
X204440400Y-125192400D02*
X205486000Y-126238000D01*
%TO.N,/IOB_6a*%
X204774800Y-127736600D02*
X207594200Y-130556000D01*
X203341800Y-125729900D02*
X204774800Y-127162900D01*
X207594200Y-130556000D02*
X213106000Y-130556000D01*
X203341800Y-125192400D02*
X203341800Y-125729900D01*
D36*
X213106000Y-130556000D02*
X215646000Y-130556000D01*
D37*
X204774800Y-127162900D02*
X204774800Y-127736600D01*
D36*
%TO.N,/IOB_9b*%
X207010000Y-136906000D02*
X207010000Y-139446000D01*
D37*
X202841800Y-126351712D02*
X203962000Y-127471912D01*
X203962000Y-127471912D02*
X203962000Y-129286000D01*
X203962000Y-129286000D02*
X207010000Y-132334000D01*
X202841800Y-125192400D02*
X202841800Y-126351712D01*
X207010000Y-132334000D02*
X207010000Y-136906000D01*
%TO.N,/IOB_8a*%
X203136500Y-129857500D02*
X204470000Y-131191000D01*
D36*
X204470000Y-136906000D02*
X204470000Y-139446000D01*
D37*
X202341800Y-126487402D02*
X203136500Y-127282102D01*
X202341800Y-125192400D02*
X202341800Y-126487402D01*
X204470000Y-131191000D02*
X204470000Y-136906000D01*
X203136500Y-127282102D02*
X203136500Y-129857500D01*
%TO.N,/IOT_36b*%
X188442600Y-112367418D02*
X188442600Y-112141000D01*
X188442600Y-112141000D02*
X187807600Y-111506000D01*
D38*
X174188000Y-106291380D02*
X178468020Y-110571400D01*
D37*
X194337582Y-118262400D02*
X188442600Y-112367418D01*
X195370598Y-118262400D02*
X194337582Y-118262400D01*
D38*
X174498000Y-105782000D02*
X174188000Y-106092000D01*
D37*
X195993999Y-117638999D02*
X195370598Y-118262400D01*
X198341800Y-118317400D02*
X197590800Y-118317400D01*
D38*
X178468020Y-110571400D02*
X184714000Y-110571400D01*
D37*
X196912399Y-117638999D02*
X195993999Y-117638999D01*
D38*
X174188000Y-106092000D02*
X174188000Y-106291380D01*
X184714000Y-110571400D02*
X185648600Y-111506000D01*
X185648600Y-111506000D02*
X187807600Y-111506000D01*
X174498000Y-105132000D02*
X174498000Y-105782000D01*
D37*
X197590800Y-118317400D02*
X196912399Y-117638999D01*
D36*
%TO.N,/NRESET*%
X165503400Y-132334000D02*
X167571400Y-134402000D01*
X159766000Y-132072000D02*
X160028000Y-132334000D01*
X176859466Y-134620000D02*
X176641466Y-134402000D01*
X175209600Y-134402000D02*
X168909600Y-134402000D01*
X160028000Y-132334000D02*
X165503400Y-132334000D01*
X171958000Y-123698000D02*
X173482000Y-123698000D01*
X176859466Y-134620000D02*
X179980358Y-134620000D01*
X173482000Y-123698000D02*
X178964357Y-129180357D01*
D37*
X200341800Y-125192400D02*
X200341800Y-131228400D01*
D36*
X178964357Y-129180357D02*
X178964357Y-130709185D01*
X176641466Y-134402000D02*
X175209600Y-134402000D01*
D37*
X200341800Y-131228400D02*
X201015600Y-131902200D01*
D36*
X167571400Y-134402000D02*
X168909600Y-134402000D01*
X159766000Y-130810000D02*
X159766000Y-132072000D01*
D37*
%TO.N,/SPI_SO*%
X178181000Y-132334000D02*
X177342800Y-131495800D01*
X186182000Y-132334000D02*
X178181000Y-132334000D01*
X196011100Y-122504900D02*
X186182000Y-132334000D01*
X162826700Y-128790700D02*
X162306000Y-128270000D01*
X197654300Y-122504900D02*
X196011100Y-122504900D01*
X168480760Y-128790700D02*
X162826700Y-128790700D01*
%TO.N,/SPI_SCK*%
X172855760Y-127520700D02*
X170557060Y-125222000D01*
X196283920Y-123504900D02*
X186438820Y-133350000D01*
X164923002Y-125222000D02*
X163145002Y-127000000D01*
X175282005Y-127520700D02*
X173880760Y-127520700D01*
X186438820Y-133350000D02*
X177045230Y-133350000D01*
X161036000Y-127000000D02*
X159766000Y-128270000D01*
X173880760Y-127520700D02*
X172855760Y-127520700D01*
X177045230Y-133350000D02*
X176510164Y-132814934D01*
X176510164Y-128748859D02*
X175282005Y-127520700D01*
X176510164Y-132814934D02*
X176510164Y-128748859D01*
X197654300Y-123504900D02*
X196283920Y-123504900D01*
X170557060Y-125222000D02*
X164923002Y-125222000D01*
X163145002Y-127000000D02*
X161036000Y-127000000D01*
%TO.N,/SPI_SS*%
X168480760Y-130731240D02*
X168480760Y-131853960D01*
D36*
X168910000Y-123698000D02*
X168402000Y-123190000D01*
X162306000Y-123190000D02*
X163568000Y-123190000D01*
D37*
X186310410Y-132842000D02*
X177561828Y-132842000D01*
D36*
X169926000Y-123698000D02*
X168910000Y-123698000D01*
D37*
X168480760Y-130731240D02*
X168480760Y-130060700D01*
X177561828Y-132842000D02*
X177234664Y-132514836D01*
D36*
X166624000Y-123190000D02*
X168402000Y-123190000D01*
D37*
X197654300Y-123004900D02*
X196147510Y-123004900D01*
X168480760Y-130731240D02*
X168480760Y-130380760D01*
D36*
X163568000Y-123190000D02*
X166624000Y-123190000D01*
D37*
X196147510Y-123004900D02*
X186310410Y-132842000D01*
%TO.N,/SPI_SI*%
X163318000Y-125730000D02*
X164334000Y-124714000D01*
X171319060Y-124714000D02*
X172855760Y-126250700D01*
X186567230Y-133858000D02*
X176885600Y-133858000D01*
X197654300Y-124004900D02*
X196420330Y-124004900D01*
X172855760Y-126250700D02*
X173880760Y-126250700D01*
X176885600Y-133858000D02*
X174853600Y-131826000D01*
X174853600Y-131826000D02*
X172212000Y-131826000D01*
X162306000Y-125730000D02*
X163318000Y-125730000D01*
X172855760Y-126250700D02*
X171765530Y-125160470D01*
X164334000Y-124714000D02*
X171319060Y-124714000D01*
X172212000Y-131826000D02*
X170434000Y-130048000D01*
X196420330Y-124004900D02*
X186567230Y-133858000D01*
D36*
%TO.N,/IOT_41a*%
X186690000Y-103886000D02*
X186690000Y-106426000D01*
D37*
X198882000Y-115265200D02*
X194157600Y-115265200D01*
X194157600Y-115265200D02*
X191516000Y-112623600D01*
X191516000Y-112623600D02*
X191516000Y-111252000D01*
X199841800Y-116225000D02*
X198882000Y-115265200D01*
X199841800Y-118317400D02*
X199841800Y-116225000D01*
X191516000Y-111252000D02*
X186690000Y-106426000D01*
%TO.N,Net-(C5-Pad1)*%
X200341800Y-115607400D02*
X198970900Y-114236500D01*
X198970900Y-114236500D02*
X197612000Y-114236500D01*
D36*
X194957700Y-114236500D02*
X193675000Y-112953800D01*
X195707000Y-114236500D02*
X197612000Y-114236500D01*
X195707000Y-114236500D02*
X194957700Y-114236500D01*
D37*
X200341800Y-118317400D02*
X200341800Y-115607400D01*
D36*
%TO.N,/IOT_42b*%
X189230000Y-103886000D02*
X189230000Y-106426000D01*
D37*
X189230000Y-107438000D02*
X189230000Y-106426000D01*
X201341800Y-118317400D02*
X201341800Y-113965800D01*
X191266000Y-109474000D02*
X189230000Y-107438000D01*
X198628000Y-111252000D02*
X195834000Y-111252000D01*
X194056000Y-109474000D02*
X191266000Y-109474000D01*
X201341800Y-113965800D02*
X198628000Y-111252000D01*
X195834000Y-111252000D02*
X194056000Y-109474000D01*
%TO.N,/IOT_43a*%
X201841800Y-118317400D02*
X201841800Y-115729998D01*
X194437000Y-108077000D02*
X192409000Y-108077000D01*
X199009000Y-110363000D02*
X196723000Y-110363000D01*
X202361800Y-115209998D02*
X202361800Y-113715800D01*
X201841800Y-115729998D02*
X202361800Y-115209998D01*
X191770000Y-107438000D02*
X191770000Y-106426000D01*
X192409000Y-108077000D02*
X191770000Y-107438000D01*
D36*
X191770000Y-103886000D02*
X191770000Y-106426000D01*
D37*
X196723000Y-110363000D02*
X194437000Y-108077000D01*
X202361800Y-113715800D02*
X199009000Y-110363000D01*
D36*
%TO.N,/VCCIO_0*%
X178054000Y-112776000D02*
X180594000Y-112776000D01*
D37*
X202341800Y-116658601D02*
X202566801Y-116433600D01*
D36*
X187644098Y-114517000D02*
X187466049Y-114695049D01*
X183134000Y-112776000D02*
X180594000Y-112776000D01*
X187466049Y-114695049D02*
X186297649Y-114695049D01*
D37*
X202341800Y-118317400D02*
X202341800Y-116658601D01*
D36*
X184378600Y-112776000D02*
X183134000Y-112776000D01*
X186297649Y-114695049D02*
X184378600Y-112776000D01*
X188925200Y-114517000D02*
X187644098Y-114517000D01*
D37*
%TO.N,/IOT_44b*%
X202841800Y-117198200D02*
X203291801Y-116748199D01*
X203291801Y-113121801D02*
X199644000Y-109474000D01*
X199644000Y-109474000D02*
X197358000Y-109474000D01*
X195707000Y-107823000D02*
X194310000Y-106426000D01*
X197358000Y-109474000D02*
X195707000Y-107823000D01*
D36*
X194310000Y-103886000D02*
X194310000Y-106426000D01*
D37*
X203291801Y-116748199D02*
X203291801Y-113121801D01*
X202841800Y-118317400D02*
X202841800Y-117198200D01*
%TO.N,/IOT_46b_G0*%
X203842699Y-117034811D02*
X203842699Y-112275699D01*
D36*
X196850000Y-103886000D02*
X196850000Y-106426000D01*
D37*
X203341800Y-117535710D02*
X203842699Y-117034811D01*
X203341800Y-118317400D02*
X203341800Y-117535710D01*
X196850000Y-107438000D02*
X196850000Y-106426000D01*
X200152000Y-108585000D02*
X197997000Y-108585000D01*
X197997000Y-108585000D02*
X196850000Y-107438000D01*
X203842699Y-112275699D02*
X200152000Y-108585000D01*
D36*
%TO.N,/IOT_48b*%
X199390000Y-103886000D02*
X199390000Y-106426000D01*
D37*
X204084800Y-118317400D02*
X204978000Y-117424200D01*
X204978000Y-112014000D02*
X200660000Y-107696000D01*
X199648000Y-107696000D02*
X199390000Y-107438000D01*
X199390000Y-107438000D02*
X199390000Y-106426000D01*
X204978000Y-117424200D02*
X204978000Y-112014000D01*
X200660000Y-107696000D02*
X199648000Y-107696000D01*
X203841800Y-118317400D02*
X204084800Y-118317400D01*
D36*
%TO.N,/IOT_45a_G1*%
X201930000Y-103886000D02*
X201930000Y-106426000D01*
D37*
X205638400Y-111146400D02*
X201930000Y-107438000D01*
X205638400Y-117500400D02*
X205638400Y-111146400D01*
X204529300Y-119004900D02*
X204520800Y-118996400D01*
X201930000Y-107438000D02*
X201930000Y-106426000D01*
X204520800Y-118618000D02*
X205638400Y-117500400D01*
X204520800Y-118996400D02*
X204520800Y-118618000D01*
%TO.N,/IOT_50b*%
X204470000Y-106426000D02*
X204470000Y-107438000D01*
X206349600Y-109317600D02*
X206349600Y-118222100D01*
X205066800Y-119504900D02*
X204529300Y-119504900D01*
D36*
X204470000Y-103886000D02*
X204470000Y-106426000D01*
D37*
X204470000Y-107438000D02*
X206349600Y-109317600D01*
X206349600Y-118222100D02*
X205066800Y-119504900D01*
D36*
%TO.N,/RGB0*%
X207010000Y-103886000D02*
X207010000Y-106426000D01*
D37*
X205369100Y-120004900D02*
X204529300Y-120004900D01*
X207010000Y-118364000D02*
X205369100Y-120004900D01*
X207010000Y-106426000D02*
X207010000Y-118364000D01*
D36*
%TO.N,/RGB1*%
X194564000Y-130048000D02*
X194564000Y-128778000D01*
D37*
X204529300Y-120504900D02*
X205505510Y-120504900D01*
X205505510Y-120504900D02*
X207968010Y-118042400D01*
X207968010Y-118042400D02*
X207968010Y-116847190D01*
%TO.N,/RGB2*%
X209550000Y-117096820D02*
X209550000Y-113982500D01*
X204529300Y-121004900D02*
X205641920Y-121004900D01*
X205641920Y-121004900D02*
X209550000Y-117096820D01*
%TO.N,/IOT_51a*%
X210312000Y-117348000D02*
X210312000Y-115570000D01*
X204529300Y-121504900D02*
X206155100Y-121504900D01*
X210312000Y-115570000D02*
X213106000Y-112776000D01*
X206155100Y-121504900D02*
X210312000Y-117348000D01*
D36*
X213106000Y-112776000D02*
X215646000Y-112776000D01*
D37*
%TO.N,/IOT_49a*%
X204529300Y-122004900D02*
X206391700Y-122004900D01*
X213080600Y-115316000D02*
X213106000Y-115316000D01*
X206391700Y-122004900D02*
X213080600Y-115316000D01*
D36*
X213106000Y-115316000D02*
X215646000Y-115316000D01*
D37*
%TO.N,/IOB_3b_G6*%
X207237090Y-122454910D02*
X211836000Y-117856000D01*
X204529300Y-122504900D02*
X205066800Y-122504900D01*
X205066800Y-122504900D02*
X205116790Y-122454910D01*
X205116790Y-122454910D02*
X207237090Y-122454910D01*
X211836000Y-117856000D02*
X213106000Y-117856000D01*
D36*
X213106000Y-117856000D02*
X215646000Y-117856000D01*
D37*
%TO.N,/IOB_5b*%
X207957100Y-123004900D02*
X204529300Y-123004900D01*
X210566000Y-120396000D02*
X207957100Y-123004900D01*
D36*
X213106000Y-120396000D02*
X215646000Y-120396000D01*
D37*
X210566000Y-120396000D02*
X213106000Y-120396000D01*
%TO.N,/IOB_0a*%
X204529300Y-123504900D02*
X212537100Y-123504900D01*
D36*
X213106000Y-122936000D02*
X215646000Y-122936000D01*
D37*
X212537100Y-123504900D02*
X213106000Y-122936000D01*
D36*
%TO.N,/IOB_2a*%
X213106000Y-125476000D02*
X215646000Y-125476000D01*
D37*
X207518000Y-125476000D02*
X213106000Y-125476000D01*
X204529300Y-124004900D02*
X206046900Y-124004900D01*
X206046900Y-124004900D02*
X207518000Y-125476000D01*
%TO.N,/IOB_4a*%
X208788000Y-128016000D02*
X213106000Y-128016000D01*
X204529300Y-124504900D02*
X205276900Y-124504900D01*
X205276900Y-124504900D02*
X208788000Y-128016000D01*
D36*
X213106000Y-128016000D02*
X215646000Y-128016000D01*
%TO.N,Net-(J2-Pad1)*%
X176276000Y-124460000D02*
X175514000Y-123698000D01*
X176276000Y-125222000D02*
X176276000Y-124460000D01*
X175006000Y-123190000D02*
X175514000Y-123698000D01*
X173880760Y-128790700D02*
X175526699Y-128790699D01*
X175006000Y-121412000D02*
X175006000Y-123190000D01*
%TO.N,Net-(D3-Pad1)*%
X181800181Y-134683819D02*
X187160219Y-134683819D01*
X180308000Y-136176000D02*
X181800181Y-134683819D01*
X209550000Y-112077500D02*
X209550000Y-110744000D01*
X187160219Y-134683819D02*
X191034036Y-130810000D01*
X180086000Y-136176000D02*
X180308000Y-136176000D01*
%TO.N,Net-(D2-Pad1)*%
X192659000Y-130403600D02*
X186886600Y-136176000D01*
X192659000Y-130048000D02*
X192659000Y-130403600D01*
X186886600Y-136176000D02*
X184150000Y-136176000D01*
%TO.N,/IOB_13b*%
X201930000Y-136906000D02*
X201930000Y-139446000D01*
D37*
X201341800Y-126487402D02*
X201066400Y-126762802D01*
X201930000Y-129343002D02*
X201930000Y-136906000D01*
X201341800Y-125192400D02*
X201341800Y-126487402D01*
X201066400Y-126762802D02*
X201066400Y-128479402D01*
X201066400Y-128479402D02*
X201930000Y-129343002D01*
%TO.N,/IOB_16a*%
X199390000Y-136906000D02*
X199390000Y-134670800D01*
D36*
X199390000Y-136906000D02*
X199390000Y-139446000D01*
D37*
X199390000Y-134670800D02*
X199841800Y-134219000D01*
X199841800Y-134219000D02*
X199841800Y-125192400D01*
D36*
%TO.N,/IOB_18a*%
X196850000Y-136906000D02*
X196850000Y-139446000D01*
D37*
X196850000Y-135382000D02*
X196850000Y-136906000D01*
X199341800Y-132890200D02*
X196850000Y-135382000D01*
X199341800Y-125192400D02*
X199341800Y-132890200D01*
%TO.N,/IOB_20a*%
X198841800Y-125192400D02*
X198841800Y-131358200D01*
X194820000Y-135380000D02*
X194820000Y-135384000D01*
X194310000Y-135894000D02*
X194310000Y-136906000D01*
D36*
X194310000Y-136906000D02*
X194310000Y-139446000D01*
D37*
X198841800Y-131358200D02*
X194820000Y-135380000D01*
X194820000Y-135384000D02*
X194310000Y-135894000D01*
%TO.N,/IOB_22b*%
X197362200Y-125192400D02*
X198341800Y-125192400D01*
X191770000Y-135894000D02*
X196850000Y-130814000D01*
X196850000Y-125704600D02*
X197362200Y-125192400D01*
X191770000Y-136906000D02*
X191770000Y-135894000D01*
D36*
X191770000Y-136906000D02*
X191770000Y-139446000D01*
D37*
X196850000Y-130814000D02*
X196850000Y-125704600D01*
%TO.N,/IOB_24a*%
X196830500Y-124504900D02*
X197654300Y-124504900D01*
X194945000Y-131572000D02*
X195834000Y-130683000D01*
X189230000Y-136906000D02*
X189230000Y-135894000D01*
X193552000Y-131572000D02*
X194945000Y-131572000D01*
D36*
X189230000Y-136906000D02*
X189230000Y-139446000D01*
D37*
X195834000Y-130683000D02*
X195834000Y-125501400D01*
X189230000Y-135894000D02*
X193552000Y-131572000D01*
X195834000Y-125501400D02*
X196830500Y-124504900D01*
%TO.N,/IOB_31b*%
X197654300Y-122004900D02*
X195241100Y-122004900D01*
D36*
X180594000Y-130556000D02*
X183134000Y-130556000D01*
D37*
X186690000Y-130556000D02*
X183134000Y-130556000D01*
X195241100Y-122004900D02*
X186690000Y-130556000D01*
D36*
%TO.N,/IOB_29b*%
X180594000Y-128016000D02*
X183134000Y-128016000D01*
D37*
X187960000Y-128016000D02*
X194471100Y-121504900D01*
X194471100Y-121504900D02*
X197654300Y-121504900D01*
X183134000Y-128016000D02*
X187960000Y-128016000D01*
%TO.N,/IOB_25b*%
X193059305Y-120097805D02*
X193966400Y-121004900D01*
X188707579Y-120645812D02*
X189255586Y-120097805D01*
X193966400Y-121004900D02*
X197654300Y-121004900D01*
X189255586Y-120097805D02*
X193059305Y-120097805D01*
%TO.N,/IOB_23b*%
X186690000Y-118110000D02*
X183134000Y-121666000D01*
X191922400Y-118110000D02*
X186690000Y-118110000D01*
X197654300Y-120504900D02*
X194317300Y-120504900D01*
X183134000Y-121666000D02*
X183134000Y-125476000D01*
X194317300Y-120504900D02*
X191922400Y-118110000D01*
D36*
X180594000Y-125476000D02*
X183134000Y-125476000D01*
%TO.N,/IOT_39a*%
X177038000Y-105132000D02*
X177307990Y-105401990D01*
D37*
X188037038Y-110262238D02*
X185901762Y-110262238D01*
X190093600Y-112318800D02*
X188037038Y-110262238D01*
X193852800Y-116789200D02*
X190093600Y-113030000D01*
D36*
X177307990Y-105646217D02*
X177893783Y-106232010D01*
D37*
X198841800Y-118317400D02*
X198841800Y-117831878D01*
X198841800Y-117831878D02*
X197799122Y-116789200D01*
D36*
X178138010Y-106232010D02*
X181044200Y-109138200D01*
X177893783Y-106232010D02*
X178138010Y-106232010D01*
X185629787Y-109138200D02*
X185901762Y-109410175D01*
X181044200Y-109138200D02*
X185629787Y-109138200D01*
X177307990Y-105401990D02*
X177307990Y-105646217D01*
D37*
X197799122Y-116789200D02*
X193852800Y-116789200D01*
X190093600Y-113030000D02*
X190093600Y-112318800D01*
D36*
X185901762Y-109410175D02*
X185901762Y-110262238D01*
%TO.N,/IOT_38b*%
X185919737Y-108438200D02*
X186396737Y-108915200D01*
X178308000Y-105132000D02*
X178308000Y-105412050D01*
D37*
X187813424Y-109479824D02*
X187891034Y-109479824D01*
X190543610Y-112132400D02*
X190543610Y-112843600D01*
X197978332Y-116332000D02*
X199341800Y-117695468D01*
X187891034Y-109479824D02*
X190543610Y-112132400D01*
X194032010Y-116332000D02*
X197978332Y-116332000D01*
X190543610Y-112843600D02*
X194032010Y-116332000D01*
X199341800Y-117779900D02*
X199341800Y-118317400D01*
X199341800Y-117695468D02*
X199341800Y-117779900D01*
X187248800Y-108915200D02*
X187813424Y-109479824D01*
D36*
X178308000Y-105412050D02*
X181334150Y-108438200D01*
X186396737Y-108915200D02*
X187248800Y-108915200D01*
X181334150Y-108438200D02*
X185919737Y-108438200D01*
%TD*%
%TA.AperFunction,Conductor*%
%TO.N,GND*%
G36*
X217365621Y-102128502D02*
G01*
X217412114Y-102182158D01*
X217423500Y-102234500D01*
X217423500Y-141097500D01*
X217403498Y-141165621D01*
X217349842Y-141212114D01*
X217297500Y-141223500D01*
X185417657Y-141223500D01*
X185349536Y-141203498D01*
X185303043Y-141149842D01*
X185292939Y-141079568D01*
X185322433Y-141014987D01*
X185326274Y-141010555D01*
X185326276Y-141010552D01*
X185332176Y-141003743D01*
X185392919Y-140870734D01*
X185413729Y-140726000D01*
X185413729Y-139676000D01*
X185413568Y-139673753D01*
X185413538Y-139672906D01*
X185413478Y-139666170D01*
X185414201Y-139625488D01*
X185414327Y-139618414D01*
X185412877Y-139611491D01*
X185412464Y-139607129D01*
X185425960Y-139537427D01*
X185447804Y-139507180D01*
X185544577Y-139408186D01*
X185573312Y-139378792D01*
X185732034Y-139160730D01*
X185815190Y-139002676D01*
X185855490Y-138926079D01*
X185855493Y-138926073D01*
X185857615Y-138922039D01*
X185879754Y-138859349D01*
X185945902Y-138672033D01*
X185945902Y-138672032D01*
X185947425Y-138667720D01*
X185991184Y-138445703D01*
X185998700Y-138407572D01*
X185998701Y-138407566D01*
X185999581Y-138403100D01*
X186008782Y-138218277D01*
X186012764Y-138138292D01*
X186012764Y-138138286D01*
X186012991Y-138133723D01*
X185987375Y-137865231D01*
X185977714Y-137825746D01*
X185924355Y-137607688D01*
X185923269Y-137603250D01*
X185822015Y-137353267D01*
X185687870Y-137124164D01*
X185670710Y-137055274D01*
X185693521Y-136988041D01*
X185749059Y-136943814D01*
X185796602Y-136934500D01*
X186819530Y-136934500D01*
X186838480Y-136935933D01*
X186852715Y-136938099D01*
X186852719Y-136938099D01*
X186859949Y-136939199D01*
X186867241Y-136938606D01*
X186867244Y-136938606D01*
X186912618Y-136934915D01*
X186922833Y-136934500D01*
X186930893Y-136934500D01*
X186944183Y-136932951D01*
X186959107Y-136931211D01*
X186963482Y-136930778D01*
X187028939Y-136925454D01*
X187028942Y-136925453D01*
X187036237Y-136924860D01*
X187043201Y-136922604D01*
X187049160Y-136921413D01*
X187055015Y-136920029D01*
X187062281Y-136919182D01*
X187130927Y-136894265D01*
X187135055Y-136892848D01*
X187197536Y-136872607D01*
X187197538Y-136872606D01*
X187204499Y-136870351D01*
X187210754Y-136866555D01*
X187216228Y-136864049D01*
X187221658Y-136861330D01*
X187228537Y-136858833D01*
X187289576Y-136818814D01*
X187293280Y-136816477D01*
X187355707Y-136778595D01*
X187364084Y-136771197D01*
X187364108Y-136771224D01*
X187367100Y-136768571D01*
X187370333Y-136765868D01*
X187376452Y-136761856D01*
X187429728Y-136705617D01*
X187432106Y-136703175D01*
X187744405Y-136390876D01*
X187806717Y-136356850D01*
X187877532Y-136361915D01*
X187934368Y-136404462D01*
X187959179Y-136470982D01*
X187959500Y-136479971D01*
X187959500Y-137716134D01*
X187966255Y-137778316D01*
X188017385Y-137914705D01*
X188104739Y-138031261D01*
X188111919Y-138036642D01*
X188163332Y-138075174D01*
X188205847Y-138132033D01*
X188210873Y-138202852D01*
X188176813Y-138265145D01*
X188163333Y-138276825D01*
X188104739Y-138320739D01*
X188017385Y-138437295D01*
X187966255Y-138573684D01*
X187959500Y-138635866D01*
X187959500Y-140256134D01*
X187966255Y-140318316D01*
X188017385Y-140454705D01*
X188104739Y-140571261D01*
X188221295Y-140658615D01*
X188357684Y-140709745D01*
X188419866Y-140716500D01*
X190040134Y-140716500D01*
X190102316Y-140709745D01*
X190238705Y-140658615D01*
X190355261Y-140571261D01*
X190399174Y-140512668D01*
X190456033Y-140470153D01*
X190526852Y-140465127D01*
X190589145Y-140499187D01*
X190600825Y-140512667D01*
X190644739Y-140571261D01*
X190761295Y-140658615D01*
X190897684Y-140709745D01*
X190959866Y-140716500D01*
X192580134Y-140716500D01*
X192642316Y-140709745D01*
X192778705Y-140658615D01*
X192895261Y-140571261D01*
X192939174Y-140512668D01*
X192996033Y-140470153D01*
X193066852Y-140465127D01*
X193129145Y-140499187D01*
X193140825Y-140512667D01*
X193184739Y-140571261D01*
X193301295Y-140658615D01*
X193437684Y-140709745D01*
X193499866Y-140716500D01*
X195120134Y-140716500D01*
X195182316Y-140709745D01*
X195318705Y-140658615D01*
X195435261Y-140571261D01*
X195479174Y-140512668D01*
X195536033Y-140470153D01*
X195606852Y-140465127D01*
X195669145Y-140499187D01*
X195680825Y-140512667D01*
X195724739Y-140571261D01*
X195841295Y-140658615D01*
X195977684Y-140709745D01*
X196039866Y-140716500D01*
X197660134Y-140716500D01*
X197722316Y-140709745D01*
X197858705Y-140658615D01*
X197975261Y-140571261D01*
X198019174Y-140512668D01*
X198076033Y-140470153D01*
X198146852Y-140465127D01*
X198209145Y-140499187D01*
X198220825Y-140512667D01*
X198264739Y-140571261D01*
X198381295Y-140658615D01*
X198517684Y-140709745D01*
X198579866Y-140716500D01*
X200200134Y-140716500D01*
X200262316Y-140709745D01*
X200398705Y-140658615D01*
X200515261Y-140571261D01*
X200559174Y-140512668D01*
X200616033Y-140470153D01*
X200686852Y-140465127D01*
X200749145Y-140499187D01*
X200760825Y-140512667D01*
X200804739Y-140571261D01*
X200921295Y-140658615D01*
X201057684Y-140709745D01*
X201119866Y-140716500D01*
X202740134Y-140716500D01*
X202802316Y-140709745D01*
X202938705Y-140658615D01*
X203055261Y-140571261D01*
X203099174Y-140512668D01*
X203156033Y-140470153D01*
X203226852Y-140465127D01*
X203289145Y-140499187D01*
X203300825Y-140512667D01*
X203344739Y-140571261D01*
X203461295Y-140658615D01*
X203597684Y-140709745D01*
X203659866Y-140716500D01*
X205280134Y-140716500D01*
X205342316Y-140709745D01*
X205478705Y-140658615D01*
X205595261Y-140571261D01*
X205639174Y-140512668D01*
X205696033Y-140470153D01*
X205766852Y-140465127D01*
X205829145Y-140499187D01*
X205840825Y-140512667D01*
X205884739Y-140571261D01*
X206001295Y-140658615D01*
X206137684Y-140709745D01*
X206199866Y-140716500D01*
X207820134Y-140716500D01*
X207882316Y-140709745D01*
X208018705Y-140658615D01*
X208135261Y-140571261D01*
X208222615Y-140454705D01*
X208273745Y-140318316D01*
X208280500Y-140256134D01*
X208280500Y-138635866D01*
X208273745Y-138573684D01*
X208222615Y-138437295D01*
X208135261Y-138320739D01*
X208076668Y-138276826D01*
X208034153Y-138219967D01*
X208029127Y-138149148D01*
X208063187Y-138086855D01*
X208076668Y-138075174D01*
X208128081Y-138036642D01*
X208135261Y-138031261D01*
X208222615Y-137914705D01*
X208273745Y-137778316D01*
X208280500Y-137716134D01*
X208280500Y-136095866D01*
X208273745Y-136033684D01*
X208222615Y-135897295D01*
X208135261Y-135780739D01*
X208018705Y-135693385D01*
X207882316Y-135642255D01*
X207820134Y-135635500D01*
X207769500Y-135635500D01*
X207701379Y-135615498D01*
X207654886Y-135561842D01*
X207643500Y-135509500D01*
X207643500Y-132412767D01*
X207644027Y-132401584D01*
X207645702Y-132394091D01*
X207645352Y-132382936D01*
X207643562Y-132326001D01*
X207643500Y-132322043D01*
X207643500Y-132294144D01*
X207642996Y-132290153D01*
X207642063Y-132278311D01*
X207641317Y-132254553D01*
X207640674Y-132234111D01*
X207638462Y-132226497D01*
X207638461Y-132226492D01*
X207635023Y-132214659D01*
X207631012Y-132195295D01*
X207629467Y-132183064D01*
X207628474Y-132175203D01*
X207625557Y-132167836D01*
X207625556Y-132167831D01*
X207612198Y-132134092D01*
X207608354Y-132122865D01*
X207598230Y-132088022D01*
X207596018Y-132080407D01*
X207585707Y-132062972D01*
X207577012Y-132045224D01*
X207569552Y-132026383D01*
X207543564Y-131990613D01*
X207537048Y-131980693D01*
X207518580Y-131949465D01*
X207518578Y-131949462D01*
X207514542Y-131942638D01*
X207500221Y-131928317D01*
X207487380Y-131913283D01*
X207480131Y-131903306D01*
X207475472Y-131896893D01*
X207441395Y-131868702D01*
X207432616Y-131860712D01*
X204632405Y-129060500D01*
X204598379Y-128998188D01*
X204595500Y-128971405D01*
X204595500Y-128757394D01*
X204615502Y-128689273D01*
X204669158Y-128642780D01*
X204739432Y-128632676D01*
X204804012Y-128662170D01*
X204810595Y-128668299D01*
X207090543Y-130948247D01*
X207098087Y-130956537D01*
X207102200Y-130963018D01*
X207107977Y-130968443D01*
X207134318Y-130993179D01*
X207147528Y-131005583D01*
X207151867Y-131009658D01*
X207154709Y-131012413D01*
X207174431Y-131032135D01*
X207177573Y-131034572D01*
X207177633Y-131034619D01*
X207186645Y-131042317D01*
X207209736Y-131064000D01*
X207218879Y-131072586D01*
X207236213Y-131082115D01*
X207236631Y-131082345D01*
X207253153Y-131093198D01*
X207269159Y-131105614D01*
X207276437Y-131108764D01*
X207276438Y-131108764D01*
X207309737Y-131123174D01*
X207320387Y-131128391D01*
X207359140Y-131149695D01*
X207366815Y-131151666D01*
X207366816Y-131151666D01*
X207378762Y-131154733D01*
X207397467Y-131161137D01*
X207416055Y-131169181D01*
X207423878Y-131170420D01*
X207423888Y-131170423D01*
X207459724Y-131176099D01*
X207471344Y-131178505D01*
X207506489Y-131187528D01*
X207514170Y-131189500D01*
X207534424Y-131189500D01*
X207554134Y-131191051D01*
X207574143Y-131194220D01*
X207582035Y-131193474D01*
X207618161Y-131190059D01*
X207630019Y-131189500D01*
X211709500Y-131189500D01*
X211777621Y-131209502D01*
X211824114Y-131263158D01*
X211835500Y-131315500D01*
X211835500Y-131366134D01*
X211842255Y-131428316D01*
X211893385Y-131564705D01*
X211980739Y-131681261D01*
X212097295Y-131768615D01*
X212233684Y-131819745D01*
X212295866Y-131826500D01*
X213916134Y-131826500D01*
X213978316Y-131819745D01*
X214114705Y-131768615D01*
X214231261Y-131681261D01*
X214275174Y-131622668D01*
X214332033Y-131580153D01*
X214402852Y-131575127D01*
X214465145Y-131609187D01*
X214476825Y-131622667D01*
X214520739Y-131681261D01*
X214637295Y-131768615D01*
X214773684Y-131819745D01*
X214835866Y-131826500D01*
X216456134Y-131826500D01*
X216518316Y-131819745D01*
X216654705Y-131768615D01*
X216771261Y-131681261D01*
X216858615Y-131564705D01*
X216909745Y-131428316D01*
X216916500Y-131366134D01*
X216916500Y-129745866D01*
X216909745Y-129683684D01*
X216858615Y-129547295D01*
X216771261Y-129430739D01*
X216712668Y-129386826D01*
X216670153Y-129329967D01*
X216665127Y-129259148D01*
X216699187Y-129196855D01*
X216712668Y-129185174D01*
X216771261Y-129141261D01*
X216858615Y-129024705D01*
X216909745Y-128888316D01*
X216916500Y-128826134D01*
X216916500Y-127205866D01*
X216909745Y-127143684D01*
X216858615Y-127007295D01*
X216771261Y-126890739D01*
X216712668Y-126846826D01*
X216670153Y-126789967D01*
X216665127Y-126719148D01*
X216699187Y-126656855D01*
X216712668Y-126645174D01*
X216764081Y-126606642D01*
X216771261Y-126601261D01*
X216858615Y-126484705D01*
X216909745Y-126348316D01*
X216916500Y-126286134D01*
X216916500Y-124665866D01*
X216909745Y-124603684D01*
X216858615Y-124467295D01*
X216771261Y-124350739D01*
X216712668Y-124306826D01*
X216670153Y-124249967D01*
X216665127Y-124179148D01*
X216699187Y-124116855D01*
X216712668Y-124105174D01*
X216713135Y-124104824D01*
X216771261Y-124061261D01*
X216858615Y-123944705D01*
X216909745Y-123808316D01*
X216916500Y-123746134D01*
X216916500Y-122125866D01*
X216909745Y-122063684D01*
X216858615Y-121927295D01*
X216771261Y-121810739D01*
X216712668Y-121766826D01*
X216670153Y-121709967D01*
X216665127Y-121639148D01*
X216699187Y-121576855D01*
X216712668Y-121565174D01*
X216734388Y-121548896D01*
X216771261Y-121521261D01*
X216858615Y-121404705D01*
X216909745Y-121268316D01*
X216916500Y-121206134D01*
X216916500Y-119585866D01*
X216909745Y-119523684D01*
X216858615Y-119387295D01*
X216771261Y-119270739D01*
X216712668Y-119226826D01*
X216670153Y-119169967D01*
X216665127Y-119099148D01*
X216699187Y-119036855D01*
X216712668Y-119025174D01*
X216764081Y-118986642D01*
X216771261Y-118981261D01*
X216858615Y-118864705D01*
X216909745Y-118728316D01*
X216916500Y-118666134D01*
X216916500Y-117045866D01*
X216909745Y-116983684D01*
X216858615Y-116847295D01*
X216771261Y-116730739D01*
X216712668Y-116686826D01*
X216670153Y-116629967D01*
X216665127Y-116559148D01*
X216699187Y-116496855D01*
X216712668Y-116485174D01*
X216739313Y-116465205D01*
X216771261Y-116441261D01*
X216858615Y-116324705D01*
X216909745Y-116188316D01*
X216916500Y-116126134D01*
X216916500Y-114505866D01*
X216909745Y-114443684D01*
X216858615Y-114307295D01*
X216771261Y-114190739D01*
X216712668Y-114146826D01*
X216670153Y-114089967D01*
X216665127Y-114019148D01*
X216699187Y-113956855D01*
X216712668Y-113945174D01*
X216748773Y-113918115D01*
X216771261Y-113901261D01*
X216858615Y-113784705D01*
X216909745Y-113648316D01*
X216916500Y-113586134D01*
X216916500Y-111965866D01*
X216909745Y-111903684D01*
X216858615Y-111767295D01*
X216771261Y-111650739D01*
X216654705Y-111563385D01*
X216518316Y-111512255D01*
X216456134Y-111505500D01*
X214835866Y-111505500D01*
X214773684Y-111512255D01*
X214637295Y-111563385D01*
X214520739Y-111650739D01*
X214515358Y-111657919D01*
X214476826Y-111709332D01*
X214419967Y-111751847D01*
X214349148Y-111756873D01*
X214286855Y-111722813D01*
X214275174Y-111709332D01*
X214236642Y-111657919D01*
X214231261Y-111650739D01*
X214114705Y-111563385D01*
X213978316Y-111512255D01*
X213916134Y-111505500D01*
X212295866Y-111505500D01*
X212233684Y-111512255D01*
X212097295Y-111563385D01*
X211980739Y-111650739D01*
X211893385Y-111767295D01*
X211842255Y-111903684D01*
X211835500Y-111965866D01*
X211835500Y-113098406D01*
X211815498Y-113166527D01*
X211798599Y-113187497D01*
X210973593Y-114012502D01*
X210911283Y-114046526D01*
X210840467Y-114041461D01*
X210783632Y-113998914D01*
X210758821Y-113932394D01*
X210758500Y-113923405D01*
X210758500Y-113629600D01*
X210757543Y-113620372D01*
X210748238Y-113530692D01*
X210748237Y-113530688D01*
X210747526Y-113523834D01*
X210711388Y-113415514D01*
X210701105Y-113384695D01*
X210691550Y-113356054D01*
X210598478Y-113205652D01*
X210511891Y-113119216D01*
X210477812Y-113056934D01*
X210482815Y-112986114D01*
X210511736Y-112941025D01*
X210594134Y-112858483D01*
X210599305Y-112853303D01*
X210635789Y-112794115D01*
X210688275Y-112708968D01*
X210688276Y-112708966D01*
X210692115Y-112702738D01*
X210747797Y-112534861D01*
X210758500Y-112430400D01*
X210758500Y-111804600D01*
X210758163Y-111801350D01*
X210748238Y-111705692D01*
X210748237Y-111705688D01*
X210747526Y-111698834D01*
X210727139Y-111637725D01*
X210693868Y-111538002D01*
X210691550Y-111531054D01*
X210598478Y-111380652D01*
X210473303Y-111255695D01*
X210467075Y-111251856D01*
X210467070Y-111251852D01*
X210445733Y-111238700D01*
X210398240Y-111185928D01*
X210386818Y-111115856D01*
X210392017Y-111092505D01*
X210441502Y-110940206D01*
X210443542Y-110933928D01*
X210446708Y-110903810D01*
X210462814Y-110750565D01*
X210463504Y-110744000D01*
X210452280Y-110637206D01*
X210444232Y-110560635D01*
X210444232Y-110560633D01*
X210443542Y-110554072D01*
X210384527Y-110372444D01*
X210289040Y-110207056D01*
X210265722Y-110181158D01*
X210165675Y-110070045D01*
X210165674Y-110070044D01*
X210161253Y-110065134D01*
X210006752Y-109952882D01*
X210000724Y-109950198D01*
X210000722Y-109950197D01*
X209838319Y-109877891D01*
X209838318Y-109877891D01*
X209832288Y-109875206D01*
X209732376Y-109853969D01*
X209651944Y-109836872D01*
X209651939Y-109836872D01*
X209645487Y-109835500D01*
X209454513Y-109835500D01*
X209448061Y-109836872D01*
X209448056Y-109836872D01*
X209367624Y-109853969D01*
X209267712Y-109875206D01*
X209261682Y-109877891D01*
X209261681Y-109877891D01*
X209099278Y-109950197D01*
X209099276Y-109950198D01*
X209093248Y-109952882D01*
X208938747Y-110065134D01*
X208934326Y-110070044D01*
X208934325Y-110070045D01*
X208834279Y-110181158D01*
X208810960Y-110207056D01*
X208715473Y-110372444D01*
X208656458Y-110554072D01*
X208655768Y-110560633D01*
X208655768Y-110560635D01*
X208647720Y-110637206D01*
X208636496Y-110744000D01*
X208637186Y-110750565D01*
X208653293Y-110903810D01*
X208656458Y-110933928D01*
X208658498Y-110940206D01*
X208708014Y-111092600D01*
X208710042Y-111163567D01*
X208673379Y-111224365D01*
X208654489Y-111238677D01*
X208625652Y-111256522D01*
X208500695Y-111381697D01*
X208496855Y-111387927D01*
X208496854Y-111387928D01*
X208418508Y-111515029D01*
X208407885Y-111532262D01*
X208392761Y-111577860D01*
X208355777Y-111689365D01*
X208352203Y-111700139D01*
X208351503Y-111706975D01*
X208351502Y-111706978D01*
X208348952Y-111731866D01*
X208341500Y-111804600D01*
X208341500Y-112430400D01*
X208341837Y-112433646D01*
X208341837Y-112433650D01*
X208350162Y-112513880D01*
X208352474Y-112536166D01*
X208354655Y-112542702D01*
X208354655Y-112542704D01*
X208367193Y-112580285D01*
X208408450Y-112703946D01*
X208501522Y-112854348D01*
X208506704Y-112859521D01*
X208588109Y-112940784D01*
X208622188Y-113003066D01*
X208617185Y-113073886D01*
X208588264Y-113118975D01*
X208567777Y-113139498D01*
X208500695Y-113206697D01*
X208496855Y-113212927D01*
X208496854Y-113212928D01*
X208421306Y-113335490D01*
X208407885Y-113357262D01*
X208393177Y-113401606D01*
X208376288Y-113452526D01*
X208352203Y-113525139D01*
X208341500Y-113629600D01*
X208341500Y-114255400D01*
X208341837Y-114258646D01*
X208341837Y-114258650D01*
X208351758Y-114354264D01*
X208352474Y-114361166D01*
X208354655Y-114367702D01*
X208354655Y-114367704D01*
X208381179Y-114447206D01*
X208408450Y-114528946D01*
X208501522Y-114679348D01*
X208626697Y-114804305D01*
X208777262Y-114897115D01*
X208830168Y-114914663D01*
X208888527Y-114955094D01*
X208915764Y-115020658D01*
X208916500Y-115034256D01*
X208916500Y-116214623D01*
X208896498Y-116282744D01*
X208842842Y-116329237D01*
X208772568Y-116339341D01*
X208707988Y-116309847D01*
X208696869Y-116298939D01*
X208579263Y-116168324D01*
X208424762Y-116056072D01*
X208418734Y-116053388D01*
X208418732Y-116053387D01*
X208256329Y-115981081D01*
X208256328Y-115981081D01*
X208250298Y-115978396D01*
X208154023Y-115957932D01*
X208069954Y-115940062D01*
X208069949Y-115940062D01*
X208063497Y-115938690D01*
X207872523Y-115938690D01*
X207866071Y-115940062D01*
X207866066Y-115940062D01*
X207795697Y-115955020D01*
X207724906Y-115949618D01*
X207668274Y-115906801D01*
X207643780Y-115840164D01*
X207643500Y-115831773D01*
X207643500Y-107822500D01*
X207663502Y-107754379D01*
X207717158Y-107707886D01*
X207769500Y-107696500D01*
X207820134Y-107696500D01*
X207882316Y-107689745D01*
X208018705Y-107638615D01*
X208135261Y-107551261D01*
X208222615Y-107434705D01*
X208273745Y-107298316D01*
X208280500Y-107236134D01*
X208280500Y-105615866D01*
X208273745Y-105553684D01*
X208222615Y-105417295D01*
X208135261Y-105300739D01*
X208076668Y-105256826D01*
X208034153Y-105199967D01*
X208029127Y-105129148D01*
X208063187Y-105066855D01*
X208076668Y-105055174D01*
X208128081Y-105016642D01*
X208135261Y-105011261D01*
X208222615Y-104894705D01*
X208273745Y-104758316D01*
X208280500Y-104696134D01*
X208280500Y-103075866D01*
X208273745Y-103013684D01*
X208222615Y-102877295D01*
X208135261Y-102760739D01*
X208018705Y-102673385D01*
X207882316Y-102622255D01*
X207820134Y-102615500D01*
X206199866Y-102615500D01*
X206137684Y-102622255D01*
X206001295Y-102673385D01*
X205884739Y-102760739D01*
X205872438Y-102777152D01*
X205840826Y-102819332D01*
X205783967Y-102861847D01*
X205713148Y-102866873D01*
X205650855Y-102832813D01*
X205639174Y-102819332D01*
X205607562Y-102777152D01*
X205595261Y-102760739D01*
X205478705Y-102673385D01*
X205342316Y-102622255D01*
X205280134Y-102615500D01*
X203659866Y-102615500D01*
X203597684Y-102622255D01*
X203461295Y-102673385D01*
X203344739Y-102760739D01*
X203332438Y-102777152D01*
X203300826Y-102819332D01*
X203243967Y-102861847D01*
X203173148Y-102866873D01*
X203110855Y-102832813D01*
X203099174Y-102819332D01*
X203067562Y-102777152D01*
X203055261Y-102760739D01*
X202938705Y-102673385D01*
X202802316Y-102622255D01*
X202740134Y-102615500D01*
X201119866Y-102615500D01*
X201057684Y-102622255D01*
X200921295Y-102673385D01*
X200804739Y-102760739D01*
X200792438Y-102777152D01*
X200760826Y-102819332D01*
X200703967Y-102861847D01*
X200633148Y-102866873D01*
X200570855Y-102832813D01*
X200559174Y-102819332D01*
X200527562Y-102777152D01*
X200515261Y-102760739D01*
X200398705Y-102673385D01*
X200262316Y-102622255D01*
X200200134Y-102615500D01*
X198579866Y-102615500D01*
X198517684Y-102622255D01*
X198381295Y-102673385D01*
X198264739Y-102760739D01*
X198252438Y-102777152D01*
X198220826Y-102819332D01*
X198163967Y-102861847D01*
X198093148Y-102866873D01*
X198030855Y-102832813D01*
X198019174Y-102819332D01*
X197987562Y-102777152D01*
X197975261Y-102760739D01*
X197858705Y-102673385D01*
X197722316Y-102622255D01*
X197660134Y-102615500D01*
X196039866Y-102615500D01*
X195977684Y-102622255D01*
X195841295Y-102673385D01*
X195724739Y-102760739D01*
X195712438Y-102777152D01*
X195680826Y-102819332D01*
X195623967Y-102861847D01*
X195553148Y-102866873D01*
X195490855Y-102832813D01*
X195479174Y-102819332D01*
X195447562Y-102777152D01*
X195435261Y-102760739D01*
X195318705Y-102673385D01*
X195182316Y-102622255D01*
X195120134Y-102615500D01*
X193499866Y-102615500D01*
X193437684Y-102622255D01*
X193301295Y-102673385D01*
X193184739Y-102760739D01*
X193172438Y-102777152D01*
X193140826Y-102819332D01*
X193083967Y-102861847D01*
X193013148Y-102866873D01*
X192950855Y-102832813D01*
X192939174Y-102819332D01*
X192907562Y-102777152D01*
X192895261Y-102760739D01*
X192778705Y-102673385D01*
X192642316Y-102622255D01*
X192580134Y-102615500D01*
X190959866Y-102615500D01*
X190897684Y-102622255D01*
X190761295Y-102673385D01*
X190644739Y-102760739D01*
X190632438Y-102777152D01*
X190600826Y-102819332D01*
X190543967Y-102861847D01*
X190473148Y-102866873D01*
X190410855Y-102832813D01*
X190399174Y-102819332D01*
X190367562Y-102777152D01*
X190355261Y-102760739D01*
X190238705Y-102673385D01*
X190102316Y-102622255D01*
X190040134Y-102615500D01*
X188419866Y-102615500D01*
X188357684Y-102622255D01*
X188221295Y-102673385D01*
X188104739Y-102760739D01*
X188092438Y-102777152D01*
X188060826Y-102819332D01*
X188003967Y-102861847D01*
X187933148Y-102866873D01*
X187870855Y-102832813D01*
X187859174Y-102819332D01*
X187827562Y-102777152D01*
X187815261Y-102760739D01*
X187698705Y-102673385D01*
X187562316Y-102622255D01*
X187500134Y-102615500D01*
X185879866Y-102615500D01*
X185817684Y-102622255D01*
X185681295Y-102673385D01*
X185564739Y-102760739D01*
X185477385Y-102877295D01*
X185426255Y-103013684D01*
X185419500Y-103075866D01*
X185419500Y-104696134D01*
X185426255Y-104758316D01*
X185477385Y-104894705D01*
X185564739Y-105011261D01*
X185571919Y-105016642D01*
X185623332Y-105055174D01*
X185665847Y-105112033D01*
X185670873Y-105182852D01*
X185636813Y-105245145D01*
X185623333Y-105256825D01*
X185564739Y-105300739D01*
X185477385Y-105417295D01*
X185426255Y-105553684D01*
X185419500Y-105615866D01*
X185419500Y-107236134D01*
X185426255Y-107298316D01*
X185477385Y-107434705D01*
X185485196Y-107445127D01*
X185509934Y-107478135D01*
X185534782Y-107544641D01*
X185519729Y-107614024D01*
X185469555Y-107664254D01*
X185409108Y-107679700D01*
X183565370Y-107679700D01*
X183497249Y-107659698D01*
X183450756Y-107606042D01*
X183440652Y-107535768D01*
X183470146Y-107471188D01*
X183483958Y-107457533D01*
X183560439Y-107392787D01*
X183560440Y-107392786D01*
X183564005Y-107389768D01*
X183637718Y-107305715D01*
X183733257Y-107196774D01*
X183733261Y-107196769D01*
X183736339Y-107193259D01*
X183877733Y-106973437D01*
X183985083Y-106735129D01*
X183990382Y-106716340D01*
X184054760Y-106488076D01*
X184054761Y-106488073D01*
X184056030Y-106483572D01*
X184072905Y-106350919D01*
X184088616Y-106227421D01*
X184088616Y-106227417D01*
X184089014Y-106224291D01*
X184091431Y-106132000D01*
X184085277Y-106049193D01*
X184072407Y-105876000D01*
X184072406Y-105875996D01*
X184072061Y-105871348D01*
X184067995Y-105853376D01*
X184015408Y-105620980D01*
X184014377Y-105616423D01*
X184012684Y-105612069D01*
X183921340Y-105377176D01*
X183921339Y-105377173D01*
X183919647Y-105372823D01*
X183904836Y-105346908D01*
X183828521Y-105213385D01*
X183789951Y-105145902D01*
X183628138Y-104940643D01*
X183437763Y-104761557D01*
X183269950Y-104645140D01*
X183226851Y-104615241D01*
X183226848Y-104615239D01*
X183223009Y-104612576D01*
X183218816Y-104610508D01*
X182992781Y-104499040D01*
X182992778Y-104499039D01*
X182988593Y-104496975D01*
X182942449Y-104482204D01*
X182744123Y-104418720D01*
X182739665Y-104417293D01*
X182481693Y-104375279D01*
X182367942Y-104373790D01*
X182225022Y-104371919D01*
X182225019Y-104371919D01*
X182220345Y-104371858D01*
X181961362Y-104407104D01*
X181956876Y-104408412D01*
X181956874Y-104408412D01*
X181928988Y-104416540D01*
X181710433Y-104480243D01*
X181706180Y-104482203D01*
X181706179Y-104482204D01*
X181669659Y-104499040D01*
X181473072Y-104589668D01*
X181434067Y-104615241D01*
X181258404Y-104730410D01*
X181258399Y-104730414D01*
X181254491Y-104732976D01*
X181094247Y-104876000D01*
X181073290Y-104894705D01*
X181059494Y-104907018D01*
X180892363Y-105107970D01*
X180889934Y-105111973D01*
X180763070Y-105321039D01*
X180756771Y-105331419D01*
X180655697Y-105572455D01*
X180591359Y-105825783D01*
X180590891Y-105830434D01*
X180590890Y-105830438D01*
X180580245Y-105936159D01*
X180565173Y-106085839D01*
X180565397Y-106090505D01*
X180565397Y-106090511D01*
X180575295Y-106296574D01*
X180558584Y-106365576D01*
X180507221Y-106414589D01*
X180437512Y-106428053D01*
X180371591Y-106401692D01*
X180360345Y-106391714D01*
X179098824Y-105130193D01*
X179064798Y-105067881D01*
X179062767Y-105055689D01*
X179052030Y-104963589D01*
X179052029Y-104963585D01*
X179051182Y-104956319D01*
X179044964Y-104939187D01*
X179023266Y-104879413D01*
X179018825Y-104808555D01*
X179053397Y-104746545D01*
X179116006Y-104713070D01*
X179178964Y-104716056D01*
X179306692Y-104755595D01*
X179320795Y-104755801D01*
X179324000Y-104749045D01*
X179324000Y-104742047D01*
X179832000Y-104742047D01*
X179835973Y-104755578D01*
X179843768Y-104756698D01*
X179970342Y-104719446D01*
X179981710Y-104714853D01*
X180154666Y-104624434D01*
X180164928Y-104617718D01*
X180317020Y-104495432D01*
X180325786Y-104486848D01*
X180451236Y-104337344D01*
X180458160Y-104327233D01*
X180552184Y-104156202D01*
X180557012Y-104144938D01*
X180616025Y-103958905D01*
X180618573Y-103946917D01*
X180623387Y-103904004D01*
X180620834Y-103889473D01*
X180608287Y-103886000D01*
X179850115Y-103886000D01*
X179834876Y-103890475D01*
X179833671Y-103891865D01*
X179832000Y-103899548D01*
X179832000Y-104742047D01*
X179324000Y-104742047D01*
X179324000Y-103904115D01*
X179319525Y-103888876D01*
X179318135Y-103887671D01*
X179310452Y-103886000D01*
X178548096Y-103886000D01*
X178533669Y-103890236D01*
X178531608Y-103902589D01*
X178534527Y-103932361D01*
X178536910Y-103944396D01*
X178593317Y-104131223D01*
X178597990Y-104142561D01*
X178601251Y-104148694D01*
X178615571Y-104218232D01*
X178590024Y-104284472D01*
X178532719Y-104326385D01*
X178461851Y-104330664D01*
X178453491Y-104328443D01*
X178435567Y-104323014D01*
X178428258Y-104322561D01*
X178428255Y-104322560D01*
X178358179Y-104318213D01*
X178269043Y-104312683D01*
X178261827Y-104313923D01*
X178261825Y-104313923D01*
X178111825Y-104339698D01*
X178104609Y-104340938D01*
X177951086Y-104406263D01*
X177816708Y-104505154D01*
X177771530Y-104558331D01*
X177712185Y-104597294D01*
X177641192Y-104597987D01*
X177588855Y-104568223D01*
X177474833Y-104460210D01*
X177469519Y-104455176D01*
X177385672Y-104406474D01*
X177331580Y-104375055D01*
X177331577Y-104375054D01*
X177325247Y-104371377D01*
X177318239Y-104369255D01*
X177318238Y-104369254D01*
X177286455Y-104359628D01*
X177165567Y-104323014D01*
X177158258Y-104322561D01*
X177158255Y-104322560D01*
X177088179Y-104318213D01*
X176999043Y-104312683D01*
X176991827Y-104313923D01*
X176991825Y-104313923D01*
X176877836Y-104333510D01*
X176807312Y-104325333D01*
X176752404Y-104280326D01*
X176730545Y-104212778D01*
X176740687Y-104159692D01*
X176747015Y-104144929D01*
X176806025Y-103958905D01*
X176808573Y-103946917D01*
X176813387Y-103904004D01*
X176810834Y-103889473D01*
X176798287Y-103886000D01*
X176040115Y-103886000D01*
X176024876Y-103890475D01*
X176023671Y-103891865D01*
X176022000Y-103899548D01*
X176022000Y-104742047D01*
X176025973Y-104755578D01*
X176033768Y-104756698D01*
X176166251Y-104717707D01*
X176167001Y-104720256D01*
X176226185Y-104714410D01*
X176289395Y-104746736D01*
X176325094Y-104808104D01*
X176319610Y-104885308D01*
X176309413Y-104910611D01*
X176301402Y-104930489D01*
X176300301Y-104937726D01*
X176275939Y-105097869D01*
X176274801Y-105105349D01*
X176275394Y-105112641D01*
X176275394Y-105112644D01*
X176281105Y-105182852D01*
X176289140Y-105281637D01*
X176291394Y-105288596D01*
X176291395Y-105288599D01*
X176341392Y-105442933D01*
X176343649Y-105449899D01*
X176347448Y-105456159D01*
X176367643Y-105489440D01*
X176378363Y-105511813D01*
X176393877Y-105554553D01*
X176485356Y-105694082D01*
X176523277Y-105730004D01*
X176559038Y-105794718D01*
X176559130Y-105795854D01*
X176561385Y-105802813D01*
X176562575Y-105808771D01*
X176563961Y-105814635D01*
X176564808Y-105821898D01*
X176589725Y-105890544D01*
X176591142Y-105894672D01*
X176609700Y-105951956D01*
X176613639Y-105964116D01*
X176617435Y-105970371D01*
X176619941Y-105975845D01*
X176622660Y-105981275D01*
X176625157Y-105988154D01*
X176629170Y-105994274D01*
X176629170Y-105994275D01*
X176665176Y-106049193D01*
X176667513Y-106052897D01*
X176705395Y-106115324D01*
X176709111Y-106119532D01*
X176709112Y-106119533D01*
X176712793Y-106123701D01*
X176712766Y-106123725D01*
X176715419Y-106126717D01*
X176718122Y-106129950D01*
X176722134Y-106136069D01*
X176727446Y-106141101D01*
X176778373Y-106189345D01*
X176780815Y-106191723D01*
X177310013Y-106720921D01*
X177322399Y-106735333D01*
X177330932Y-106746928D01*
X177330937Y-106746933D01*
X177335275Y-106752828D01*
X177340853Y-106757567D01*
X177340856Y-106757570D01*
X177375551Y-106787045D01*
X177383067Y-106793975D01*
X177388762Y-106799670D01*
X177391644Y-106801950D01*
X177411034Y-106817291D01*
X177414438Y-106820082D01*
X177464486Y-106862601D01*
X177470068Y-106867343D01*
X177476584Y-106870671D01*
X177481633Y-106874038D01*
X177486762Y-106877205D01*
X177492499Y-106881744D01*
X177558658Y-106912665D01*
X177562552Y-106914568D01*
X177627591Y-106947779D01*
X177634699Y-106949518D01*
X177640342Y-106951617D01*
X177646105Y-106953534D01*
X177652733Y-106956632D01*
X177659895Y-106958122D01*
X177659896Y-106958122D01*
X177724195Y-106971496D01*
X177728484Y-106972467D01*
X177796601Y-106989135D01*
X177855748Y-107022429D01*
X180460430Y-109627111D01*
X180472816Y-109641523D01*
X180485691Y-109659018D01*
X180484004Y-109660259D01*
X180511174Y-109714432D01*
X180503639Y-109785028D01*
X180459134Y-109840343D01*
X180387193Y-109862900D01*
X178813680Y-109862900D01*
X178745559Y-109842898D01*
X178724585Y-109825995D01*
X175154390Y-106255800D01*
X175120364Y-106193488D01*
X175125429Y-106122673D01*
X175126941Y-106119331D01*
X175126990Y-106119261D01*
X175127099Y-106118982D01*
X175127106Y-106118966D01*
X175150202Y-106059725D01*
X175152759Y-106053642D01*
X175175918Y-106002352D01*
X175179045Y-105995427D01*
X175180430Y-105987954D01*
X175181234Y-105985388D01*
X175185855Y-105969165D01*
X175186520Y-105966573D01*
X175189282Y-105959491D01*
X175197622Y-105896139D01*
X175198654Y-105889623D01*
X175208911Y-105834281D01*
X175210295Y-105826814D01*
X175206709Y-105764620D01*
X175206500Y-105757367D01*
X175206500Y-105362168D01*
X175210111Y-105332219D01*
X175211513Y-105326490D01*
X175212847Y-105321039D01*
X175213500Y-105310514D01*
X175213500Y-104990220D01*
X175200581Y-104879413D01*
X175199898Y-104873551D01*
X175199898Y-104873550D01*
X175199050Y-104866279D01*
X175197132Y-104860996D01*
X175200891Y-104790797D01*
X175242413Y-104733209D01*
X175308478Y-104707211D01*
X175356976Y-104712344D01*
X175496693Y-104755595D01*
X175510795Y-104755801D01*
X175514000Y-104749045D01*
X175514000Y-103904115D01*
X175509525Y-103888876D01*
X175508135Y-103887671D01*
X175500452Y-103886000D01*
X174738096Y-103886000D01*
X174723669Y-103890236D01*
X174721608Y-103902589D01*
X174724527Y-103932361D01*
X174726910Y-103944396D01*
X174783317Y-104131223D01*
X174787990Y-104142561D01*
X174791251Y-104148694D01*
X174805571Y-104218232D01*
X174780024Y-104284472D01*
X174722719Y-104326385D01*
X174651851Y-104330664D01*
X174643491Y-104328443D01*
X174625567Y-104323014D01*
X174618258Y-104322561D01*
X174618255Y-104322560D01*
X174548179Y-104318213D01*
X174459043Y-104312683D01*
X174451827Y-104313923D01*
X174451825Y-104313923D01*
X174301825Y-104339698D01*
X174294609Y-104340938D01*
X174141086Y-104406263D01*
X174006708Y-104505154D01*
X173961530Y-104558331D01*
X173902185Y-104597294D01*
X173831192Y-104597987D01*
X173778855Y-104568223D01*
X173664833Y-104460210D01*
X173659519Y-104455176D01*
X173575672Y-104406474D01*
X173521580Y-104375055D01*
X173521577Y-104375054D01*
X173515247Y-104371377D01*
X173508239Y-104369255D01*
X173508238Y-104369254D01*
X173476455Y-104359628D01*
X173355567Y-104323014D01*
X173348258Y-104322561D01*
X173348255Y-104322560D01*
X173278179Y-104318213D01*
X173189043Y-104312683D01*
X173181827Y-104313923D01*
X173181825Y-104313923D01*
X173067836Y-104333510D01*
X172997312Y-104325333D01*
X172942404Y-104280326D01*
X172920545Y-104212778D01*
X172930687Y-104159692D01*
X172937015Y-104144929D01*
X172996025Y-103958905D01*
X172998573Y-103946917D01*
X173003387Y-103904004D01*
X173000834Y-103889473D01*
X172988287Y-103886000D01*
X172230115Y-103886000D01*
X172214876Y-103890475D01*
X172213671Y-103891865D01*
X172212000Y-103899548D01*
X172212000Y-104742047D01*
X172215973Y-104755578D01*
X172223768Y-104756698D01*
X172350342Y-104719446D01*
X172363658Y-104714066D01*
X172434311Y-104707093D01*
X172497518Y-104739424D01*
X172533212Y-104800796D01*
X172533248Y-104860839D01*
X172513153Y-104942961D01*
X172512500Y-104953486D01*
X172512500Y-105273780D01*
X172513416Y-105281637D01*
X172518652Y-105326547D01*
X172519500Y-105341138D01*
X172519500Y-106221708D01*
X172519208Y-106230278D01*
X172515275Y-106287972D01*
X172516580Y-106295449D01*
X172516580Y-106295450D01*
X172526261Y-106350919D01*
X172527223Y-106357441D01*
X172534898Y-106420862D01*
X172537581Y-106427963D01*
X172538222Y-106430572D01*
X172542685Y-106446882D01*
X172543450Y-106449418D01*
X172544757Y-106456904D01*
X172547811Y-106463861D01*
X172570442Y-106515415D01*
X172572933Y-106521519D01*
X172595513Y-106581276D01*
X172599817Y-106587539D01*
X172601054Y-106589905D01*
X172609299Y-106604717D01*
X172610632Y-106606971D01*
X172613685Y-106613925D01*
X172625756Y-106629655D01*
X172652579Y-106664611D01*
X172656459Y-106669952D01*
X172688339Y-106716340D01*
X172688344Y-106716345D01*
X172692643Y-106722601D01*
X172698313Y-106727652D01*
X172698314Y-106727654D01*
X172739170Y-106764055D01*
X172744446Y-106769036D01*
X177427659Y-111452250D01*
X177461685Y-111514562D01*
X177456620Y-111585377D01*
X177414073Y-111642213D01*
X177404867Y-111648489D01*
X177338813Y-111689365D01*
X177277152Y-111727522D01*
X177201276Y-111803531D01*
X177190716Y-111814109D01*
X177128434Y-111848188D01*
X177057614Y-111843185D01*
X177012525Y-111814264D01*
X176929983Y-111731866D01*
X176924803Y-111726695D01*
X176918505Y-111722813D01*
X176780468Y-111637725D01*
X176780466Y-111637724D01*
X176774238Y-111633885D01*
X176638443Y-111588844D01*
X176612889Y-111580368D01*
X176612887Y-111580368D01*
X176606361Y-111578203D01*
X176599525Y-111577503D01*
X176599522Y-111577502D01*
X176556469Y-111573091D01*
X176501900Y-111567500D01*
X175876100Y-111567500D01*
X175872854Y-111567837D01*
X175872850Y-111567837D01*
X175777192Y-111577762D01*
X175777188Y-111577763D01*
X175770334Y-111578474D01*
X175763798Y-111580655D01*
X175763796Y-111580655D01*
X175749643Y-111585377D01*
X175602554Y-111634450D01*
X175596323Y-111638306D01*
X175589703Y-111641407D01*
X175588330Y-111638475D01*
X175533769Y-111653480D01*
X175466003Y-111632308D01*
X175420441Y-111577860D01*
X175411376Y-111519170D01*
X175410814Y-111519170D01*
X175410814Y-111515533D01*
X175410629Y-111514335D01*
X175410814Y-111512574D01*
X175410814Y-111512565D01*
X175411504Y-111506000D01*
X175400813Y-111404276D01*
X175392232Y-111322635D01*
X175392232Y-111322633D01*
X175391542Y-111316072D01*
X175332527Y-111134444D01*
X175320316Y-111113293D01*
X175253986Y-110998407D01*
X175237040Y-110969056D01*
X175217509Y-110947364D01*
X175113675Y-110832045D01*
X175113674Y-110832044D01*
X175109253Y-110827134D01*
X174994829Y-110744000D01*
X174960094Y-110718763D01*
X174960093Y-110718762D01*
X174954752Y-110714882D01*
X174948724Y-110712198D01*
X174948722Y-110712197D01*
X174786319Y-110639891D01*
X174786318Y-110639891D01*
X174780288Y-110637206D01*
X174686888Y-110617353D01*
X174599944Y-110598872D01*
X174599939Y-110598872D01*
X174593487Y-110597500D01*
X174402513Y-110597500D01*
X174396061Y-110598872D01*
X174396056Y-110598872D01*
X174309112Y-110617353D01*
X174215712Y-110637206D01*
X174209682Y-110639891D01*
X174209681Y-110639891D01*
X174047278Y-110712197D01*
X174047276Y-110712198D01*
X174041248Y-110714882D01*
X174035907Y-110718762D01*
X174035906Y-110718763D01*
X174001171Y-110744000D01*
X173886747Y-110827134D01*
X173882326Y-110832044D01*
X173882325Y-110832045D01*
X173778492Y-110947364D01*
X173758960Y-110969056D01*
X173742014Y-110998407D01*
X173675685Y-111113293D01*
X173663473Y-111134444D01*
X173604458Y-111316072D01*
X173603768Y-111322633D01*
X173603768Y-111322635D01*
X173595187Y-111404276D01*
X173584496Y-111506000D01*
X173585186Y-111512565D01*
X173600579Y-111659018D01*
X173604458Y-111695928D01*
X173616136Y-111731866D01*
X173616362Y-111732563D01*
X173618390Y-111803531D01*
X173581728Y-111864329D01*
X173518016Y-111895654D01*
X173496529Y-111897500D01*
X173246115Y-111897500D01*
X173230876Y-111901975D01*
X173229671Y-111903365D01*
X173228000Y-111911048D01*
X173228000Y-113033500D01*
X173207998Y-113101621D01*
X173154342Y-113148114D01*
X173102000Y-113159500D01*
X172846000Y-113159500D01*
X172777879Y-113139498D01*
X172731386Y-113085842D01*
X172720000Y-113033500D01*
X172720000Y-111915616D01*
X172715525Y-111900377D01*
X172714135Y-111899172D01*
X172706452Y-111897501D01*
X172451905Y-111897501D01*
X172445386Y-111897838D01*
X172349794Y-111907757D01*
X172336400Y-111910649D01*
X172182216Y-111962088D01*
X172169038Y-111968261D01*
X172031193Y-112053563D01*
X172019792Y-112062599D01*
X171998545Y-112083883D01*
X171936262Y-112117962D01*
X171865442Y-112112959D01*
X171833808Y-112095691D01*
X171794705Y-112066385D01*
X171658316Y-112015255D01*
X171596134Y-112008500D01*
X170417255Y-112008500D01*
X170349134Y-111988498D01*
X170302641Y-111934842D01*
X170291945Y-111869330D01*
X170305415Y-111741166D01*
X170306105Y-111734601D01*
X170298161Y-111659018D01*
X170286833Y-111551236D01*
X170286833Y-111551234D01*
X170286143Y-111544673D01*
X170227128Y-111363045D01*
X170201646Y-111318908D01*
X170168619Y-111261704D01*
X170131641Y-111197657D01*
X170064540Y-111123133D01*
X170008276Y-111060646D01*
X170008275Y-111060645D01*
X170003854Y-111055735D01*
X169849353Y-110943483D01*
X169843325Y-110940799D01*
X169843323Y-110940798D01*
X169680920Y-110868492D01*
X169680919Y-110868492D01*
X169674889Y-110865807D01*
X169581489Y-110845954D01*
X169494545Y-110827473D01*
X169494540Y-110827473D01*
X169488088Y-110826101D01*
X169297114Y-110826101D01*
X169290662Y-110827473D01*
X169290657Y-110827473D01*
X169203713Y-110845954D01*
X169110313Y-110865807D01*
X169104283Y-110868492D01*
X169104282Y-110868492D01*
X168941879Y-110940798D01*
X168941877Y-110940799D01*
X168935849Y-110943483D01*
X168781348Y-111055735D01*
X168776927Y-111060645D01*
X168776926Y-111060646D01*
X168720663Y-111123133D01*
X168653561Y-111197657D01*
X168616583Y-111261704D01*
X168583557Y-111318908D01*
X168558074Y-111363045D01*
X168499059Y-111544673D01*
X168498369Y-111551234D01*
X168498369Y-111551236D01*
X168487041Y-111659018D01*
X168479097Y-111734601D01*
X168479787Y-111741166D01*
X168493257Y-111869330D01*
X168480485Y-111939168D01*
X168431982Y-111991015D01*
X168367947Y-112008500D01*
X167239866Y-112008500D01*
X167177684Y-112015255D01*
X167041295Y-112066385D01*
X166924739Y-112153739D01*
X166923813Y-112154974D01*
X166864783Y-112187208D01*
X166793968Y-112182143D01*
X166737132Y-112139596D01*
X166712321Y-112073076D01*
X166712000Y-112064087D01*
X166712000Y-111834115D01*
X166707525Y-111818876D01*
X166706135Y-111817671D01*
X166698452Y-111816000D01*
X165626115Y-111816000D01*
X165610876Y-111820475D01*
X165609671Y-111821865D01*
X165608000Y-111829548D01*
X165608000Y-112701884D01*
X165612475Y-112717123D01*
X165613865Y-112718328D01*
X165621548Y-112719999D01*
X166248669Y-112719999D01*
X166255490Y-112719629D01*
X166306352Y-112714105D01*
X166321604Y-112710479D01*
X166442054Y-112665324D01*
X166457649Y-112656786D01*
X166559724Y-112580285D01*
X166564405Y-112575604D01*
X166626717Y-112541578D01*
X166697532Y-112546643D01*
X166754368Y-112589190D01*
X166779179Y-112655710D01*
X166779500Y-112664699D01*
X166779500Y-113215134D01*
X166786255Y-113277316D01*
X166789029Y-113284716D01*
X166790034Y-113288942D01*
X166790034Y-113347239D01*
X166785895Y-113364646D01*
X166780369Y-113415514D01*
X166780000Y-113422328D01*
X166780000Y-113519885D01*
X166784475Y-113535124D01*
X166785865Y-113536329D01*
X166793548Y-113538000D01*
X166893090Y-113538000D01*
X166961211Y-113558002D01*
X166968650Y-113563171D01*
X167041295Y-113617615D01*
X167177684Y-113668745D01*
X167184990Y-113669539D01*
X167246424Y-113704635D01*
X167279244Y-113767590D01*
X167272818Y-113838295D01*
X167229186Y-113894302D01*
X167185060Y-113914454D01*
X167177684Y-113915255D01*
X167041295Y-113966385D01*
X166997892Y-113998914D01*
X166968655Y-114020826D01*
X166902149Y-114045674D01*
X166893090Y-114046000D01*
X166798116Y-114046000D01*
X166782877Y-114050475D01*
X166770292Y-114064999D01*
X166710566Y-114103383D01*
X166639569Y-114103383D01*
X166579843Y-114065000D01*
X166574242Y-114058054D01*
X166572641Y-114055918D01*
X166567261Y-114048739D01*
X166450705Y-113961385D01*
X166314316Y-113910255D01*
X166252134Y-113903500D01*
X164455866Y-113903500D01*
X164393684Y-113910255D01*
X164257295Y-113961385D01*
X164140739Y-114048739D01*
X164053385Y-114165295D01*
X164050233Y-114173703D01*
X164032228Y-114221730D01*
X163989586Y-114278495D01*
X163923024Y-114303194D01*
X163914246Y-114303500D01*
X163695163Y-114303500D01*
X163627042Y-114283498D01*
X163580549Y-114229842D01*
X163573695Y-114204920D01*
X163572425Y-114205222D01*
X163570598Y-114197540D01*
X163569745Y-114189684D01*
X163518615Y-114053295D01*
X163431261Y-113936739D01*
X163372251Y-113892513D01*
X163329736Y-113835656D01*
X163324710Y-113764837D01*
X163358770Y-113702544D01*
X163372251Y-113690862D01*
X163423724Y-113652285D01*
X163436285Y-113639724D01*
X163512786Y-113537649D01*
X163521324Y-113522054D01*
X163566478Y-113401606D01*
X163570105Y-113386351D01*
X163575631Y-113335486D01*
X163576000Y-113328672D01*
X163576000Y-112794115D01*
X163571525Y-112778876D01*
X163570135Y-112777671D01*
X163562452Y-112776000D01*
X158514116Y-112776000D01*
X158498877Y-112780475D01*
X158497672Y-112781865D01*
X158496001Y-112789548D01*
X158496001Y-113328669D01*
X158496371Y-113335490D01*
X158501895Y-113386352D01*
X158505521Y-113401604D01*
X158550676Y-113522054D01*
X158559214Y-113537649D01*
X158635715Y-113639724D01*
X158648276Y-113652285D01*
X158699749Y-113690862D01*
X158742264Y-113747721D01*
X158747290Y-113818540D01*
X158713230Y-113880833D01*
X158699755Y-113892509D01*
X158640739Y-113936739D01*
X158553385Y-114053295D01*
X158502255Y-114189684D01*
X158495500Y-114251866D01*
X158495500Y-115872134D01*
X158502255Y-115934316D01*
X158553385Y-116070705D01*
X158640739Y-116187261D01*
X158699749Y-116231487D01*
X158742264Y-116288344D01*
X158747290Y-116359163D01*
X158713230Y-116421456D01*
X158699749Y-116433138D01*
X158648276Y-116471715D01*
X158635715Y-116484276D01*
X158559214Y-116586351D01*
X158550676Y-116601946D01*
X158505522Y-116722394D01*
X158501895Y-116737649D01*
X158496369Y-116788514D01*
X158496000Y-116795328D01*
X158496000Y-117329885D01*
X158500475Y-117345124D01*
X158501865Y-117346329D01*
X158509548Y-117348000D01*
X163557884Y-117348000D01*
X163573123Y-117343525D01*
X163574328Y-117342135D01*
X163575999Y-117334452D01*
X163575999Y-116795331D01*
X163575629Y-116788510D01*
X163570105Y-116737648D01*
X163566479Y-116722396D01*
X163521324Y-116601946D01*
X163512786Y-116586351D01*
X163436285Y-116484276D01*
X163423724Y-116471715D01*
X163372251Y-116433138D01*
X163329736Y-116376279D01*
X163324710Y-116305460D01*
X163358770Y-116243167D01*
X163372245Y-116231491D01*
X163431261Y-116187261D01*
X163518615Y-116070705D01*
X163569745Y-115934316D01*
X163570598Y-115926460D01*
X163572425Y-115918778D01*
X163575460Y-115919500D01*
X163597159Y-115867309D01*
X163655530Y-115826895D01*
X163695163Y-115820500D01*
X163914246Y-115820500D01*
X163982367Y-115840502D01*
X164028860Y-115894158D01*
X164032228Y-115902270D01*
X164041297Y-115926460D01*
X164053385Y-115958705D01*
X164140739Y-116075261D01*
X164147919Y-116080642D01*
X164170087Y-116097256D01*
X164212602Y-116154115D01*
X164217628Y-116224933D01*
X164183568Y-116287227D01*
X164160831Y-116305223D01*
X164150652Y-116311522D01*
X164025695Y-116436697D01*
X164021855Y-116442927D01*
X164021854Y-116442928D01*
X163937519Y-116579745D01*
X163932885Y-116587262D01*
X163915036Y-116641076D01*
X163881701Y-116741579D01*
X163877203Y-116755139D01*
X163866500Y-116859600D01*
X163866500Y-117460400D01*
X163866837Y-117463646D01*
X163866837Y-117463650D01*
X163876232Y-117554192D01*
X163877474Y-117566166D01*
X163879655Y-117572702D01*
X163879655Y-117572704D01*
X163893949Y-117615548D01*
X163933450Y-117733946D01*
X164026522Y-117884348D01*
X164151697Y-118009305D01*
X164156235Y-118012102D01*
X164196824Y-118069353D01*
X164200054Y-118140276D01*
X164164428Y-118201687D01*
X164155932Y-118209062D01*
X164145793Y-118217098D01*
X164031261Y-118331829D01*
X164022249Y-118343240D01*
X163937184Y-118481243D01*
X163931037Y-118494424D01*
X163879862Y-118648710D01*
X163876995Y-118662086D01*
X163867328Y-118756438D01*
X163867000Y-118762855D01*
X163867000Y-118787885D01*
X163871475Y-118803124D01*
X163872865Y-118804329D01*
X163880548Y-118806000D01*
X166265352Y-118806000D01*
X166333473Y-118826002D01*
X166348596Y-118843455D01*
X166349514Y-118842396D01*
X166378865Y-118867829D01*
X166386548Y-118869500D01*
X168346884Y-118869500D01*
X168362123Y-118865025D01*
X168363328Y-118863635D01*
X168364999Y-118855952D01*
X168364999Y-118826405D01*
X168364662Y-118819886D01*
X168354743Y-118724294D01*
X168351851Y-118710900D01*
X168300412Y-118556716D01*
X168294239Y-118543538D01*
X168208937Y-118405693D01*
X168199901Y-118394292D01*
X168085172Y-118279762D01*
X168076238Y-118272706D01*
X168035177Y-118214788D01*
X168031947Y-118143865D01*
X168067574Y-118082454D01*
X168075407Y-118075654D01*
X168081348Y-118071978D01*
X168206305Y-117946803D01*
X168262277Y-117856000D01*
X168295275Y-117802468D01*
X168295276Y-117802466D01*
X168299115Y-117796238D01*
X168337908Y-117679281D01*
X168352632Y-117634889D01*
X168352632Y-117634887D01*
X168354797Y-117628361D01*
X168356523Y-117611522D01*
X168362820Y-117550056D01*
X168365500Y-117523900D01*
X168365500Y-116923100D01*
X168360199Y-116872011D01*
X168355238Y-116824192D01*
X168355237Y-116824188D01*
X168354526Y-116817334D01*
X168349682Y-116802813D01*
X168300868Y-116656502D01*
X168298550Y-116649554D01*
X168205478Y-116499152D01*
X168080303Y-116374195D01*
X168074072Y-116370354D01*
X167950384Y-116294111D01*
X167902890Y-116241338D01*
X167890500Y-116186851D01*
X167890500Y-115783971D01*
X167910502Y-115715850D01*
X167927405Y-115694876D01*
X168009876Y-115612405D01*
X168072188Y-115578379D01*
X168098971Y-115575500D01*
X168518500Y-115575500D01*
X168586621Y-115595502D01*
X168633114Y-115649158D01*
X168644500Y-115701500D01*
X168644500Y-117332293D01*
X168659818Y-117463681D01*
X168662314Y-117470556D01*
X168662314Y-117470558D01*
X168686939Y-117538397D01*
X168694500Y-117581389D01*
X168694500Y-118086134D01*
X168701255Y-118148316D01*
X168752385Y-118284705D01*
X168839739Y-118401261D01*
X168956295Y-118488615D01*
X168964703Y-118491767D01*
X168986712Y-118500018D01*
X169043476Y-118542660D01*
X169068176Y-118609222D01*
X169052968Y-118678570D01*
X169002682Y-118728688D01*
X168986712Y-118735982D01*
X168956295Y-118747385D01*
X168839739Y-118834739D01*
X168752385Y-118951295D01*
X168701255Y-119087684D01*
X168694500Y-119149866D01*
X168694500Y-119651817D01*
X168689090Y-119688340D01*
X168651405Y-119812767D01*
X168640453Y-119989298D01*
X168641693Y-119996514D01*
X168641693Y-119996516D01*
X168667767Y-120148255D01*
X168670406Y-120163614D01*
X168684441Y-120196597D01*
X168694500Y-120245930D01*
X168694500Y-120746134D01*
X168701255Y-120808316D01*
X168752385Y-120944705D01*
X168818093Y-121032379D01*
X168820721Y-121035885D01*
X168845569Y-121102391D01*
X168827154Y-121177567D01*
X168788470Y-121240324D01*
X168783885Y-121247762D01*
X168771567Y-121284900D01*
X168731830Y-121404705D01*
X168728203Y-121415639D01*
X168727503Y-121422475D01*
X168727502Y-121422478D01*
X168727346Y-121423999D01*
X168717500Y-121520100D01*
X168717500Y-122145900D01*
X168717837Y-122149146D01*
X168717837Y-122149150D01*
X168725410Y-122222134D01*
X168728474Y-122251666D01*
X168730654Y-122258201D01*
X168730656Y-122258209D01*
X168742113Y-122292548D01*
X168744699Y-122363497D01*
X168708515Y-122424582D01*
X168645051Y-122456407D01*
X168596933Y-122455785D01*
X168571590Y-122450514D01*
X168567299Y-122449543D01*
X168512847Y-122436219D01*
X168496390Y-122432192D01*
X168490788Y-122431844D01*
X168490785Y-122431844D01*
X168485236Y-122431500D01*
X168485238Y-122431464D01*
X168481245Y-122431225D01*
X168477053Y-122430851D01*
X168469885Y-122429360D01*
X168403675Y-122431151D01*
X168392479Y-122431454D01*
X168389072Y-122431500D01*
X167166587Y-122431500D01*
X167092528Y-122407437D01*
X167086098Y-122402765D01*
X167086091Y-122402761D01*
X167080752Y-122398882D01*
X167074724Y-122396198D01*
X167074722Y-122396197D01*
X166912319Y-122323891D01*
X166912318Y-122323891D01*
X166906288Y-122321206D01*
X166812887Y-122301353D01*
X166725944Y-122282872D01*
X166725939Y-122282872D01*
X166719487Y-122281500D01*
X166528513Y-122281500D01*
X166522061Y-122282872D01*
X166522056Y-122282872D01*
X166435113Y-122301353D01*
X166341712Y-122321206D01*
X166335682Y-122323891D01*
X166335681Y-122323891D01*
X166173278Y-122396197D01*
X166173276Y-122396198D01*
X166167248Y-122398882D01*
X166161909Y-122402761D01*
X166161902Y-122402765D01*
X166155472Y-122407437D01*
X166081413Y-122431500D01*
X163695163Y-122431500D01*
X163627042Y-122411498D01*
X163580549Y-122357842D01*
X163573695Y-122332920D01*
X163572425Y-122333222D01*
X163570598Y-122325540D01*
X163569745Y-122317684D01*
X163518615Y-122181295D01*
X163431261Y-122064739D01*
X163314705Y-121977385D01*
X163178316Y-121926255D01*
X163116134Y-121919500D01*
X161495866Y-121919500D01*
X161433684Y-121926255D01*
X161297295Y-121977385D01*
X161180739Y-122064739D01*
X161136513Y-122123749D01*
X161079656Y-122166264D01*
X161008837Y-122171290D01*
X160946544Y-122137230D01*
X160934862Y-122123749D01*
X160896285Y-122072276D01*
X160883724Y-122059715D01*
X160781649Y-121983214D01*
X160766054Y-121974676D01*
X160645606Y-121929522D01*
X160630351Y-121925895D01*
X160579486Y-121920369D01*
X160572672Y-121920000D01*
X160038115Y-121920000D01*
X160022876Y-121924475D01*
X160021671Y-121925865D01*
X160020000Y-121933548D01*
X160020000Y-125858000D01*
X159999998Y-125926121D01*
X159946342Y-125972614D01*
X159894000Y-125984000D01*
X158514116Y-125984000D01*
X158498877Y-125988475D01*
X158497672Y-125989865D01*
X158496001Y-125997548D01*
X158496001Y-126536669D01*
X158496371Y-126543490D01*
X158501895Y-126594352D01*
X158505521Y-126609604D01*
X158550676Y-126730054D01*
X158559214Y-126745649D01*
X158635715Y-126847724D01*
X158648276Y-126860285D01*
X158699749Y-126898862D01*
X158742264Y-126955721D01*
X158747290Y-127026540D01*
X158713230Y-127088833D01*
X158699755Y-127100509D01*
X158640739Y-127144739D01*
X158553385Y-127261295D01*
X158502255Y-127397684D01*
X158495500Y-127459866D01*
X158495500Y-129080134D01*
X158502255Y-129142316D01*
X158553385Y-129278705D01*
X158640739Y-129395261D01*
X158647918Y-129400641D01*
X158647919Y-129400642D01*
X158699332Y-129439174D01*
X158741847Y-129496033D01*
X158746873Y-129566852D01*
X158712813Y-129629145D01*
X158699333Y-129640825D01*
X158640739Y-129684739D01*
X158553385Y-129801295D01*
X158502255Y-129937684D01*
X158495500Y-129999866D01*
X158495500Y-131620134D01*
X158502255Y-131682316D01*
X158553385Y-131818705D01*
X158640739Y-131935261D01*
X158757295Y-132022615D01*
X158893684Y-132073745D01*
X158902568Y-132074710D01*
X158903314Y-132075020D01*
X158909222Y-132076425D01*
X158908995Y-132077380D01*
X158968128Y-132101949D01*
X159008557Y-132160311D01*
X159014547Y-132189758D01*
X159016062Y-132208379D01*
X159017140Y-132221637D01*
X159019396Y-132228601D01*
X159020587Y-132234560D01*
X159021971Y-132240415D01*
X159022818Y-132247681D01*
X159047735Y-132316327D01*
X159049152Y-132320455D01*
X159068042Y-132378764D01*
X159071649Y-132389899D01*
X159075445Y-132396154D01*
X159077951Y-132401628D01*
X159080670Y-132407058D01*
X159083167Y-132413937D01*
X159087180Y-132420057D01*
X159087180Y-132420058D01*
X159123186Y-132474976D01*
X159125523Y-132478680D01*
X159163405Y-132541107D01*
X159167121Y-132545315D01*
X159167122Y-132545316D01*
X159170803Y-132549484D01*
X159170776Y-132549508D01*
X159173429Y-132552500D01*
X159176132Y-132555733D01*
X159180144Y-132561852D01*
X159185456Y-132566884D01*
X159236383Y-132615128D01*
X159238825Y-132617506D01*
X159444230Y-132822911D01*
X159456616Y-132837323D01*
X159465149Y-132848918D01*
X159465154Y-132848923D01*
X159469492Y-132854818D01*
X159475070Y-132859557D01*
X159475073Y-132859560D01*
X159509768Y-132889035D01*
X159517284Y-132895965D01*
X159522979Y-132901660D01*
X159525861Y-132903940D01*
X159545251Y-132919281D01*
X159548655Y-132922072D01*
X159554323Y-132926887D01*
X159604285Y-132969333D01*
X159610801Y-132972661D01*
X159615850Y-132976028D01*
X159620979Y-132979195D01*
X159626716Y-132983734D01*
X159692875Y-133014655D01*
X159696769Y-133016558D01*
X159761808Y-133049769D01*
X159768916Y-133051508D01*
X159774559Y-133053607D01*
X159780322Y-133055524D01*
X159786950Y-133058622D01*
X159794112Y-133060112D01*
X159794113Y-133060112D01*
X159858412Y-133073486D01*
X159862696Y-133074456D01*
X159933610Y-133091808D01*
X159939212Y-133092156D01*
X159939215Y-133092156D01*
X159944764Y-133092500D01*
X159944762Y-133092536D01*
X159948755Y-133092775D01*
X159952947Y-133093149D01*
X159960115Y-133094640D01*
X160037520Y-133092546D01*
X160040928Y-133092500D01*
X165137029Y-133092500D01*
X165205150Y-133112502D01*
X165226124Y-133129405D01*
X166987630Y-134890911D01*
X167000016Y-134905323D01*
X167008549Y-134916918D01*
X167008554Y-134916923D01*
X167012892Y-134922818D01*
X167018470Y-134927557D01*
X167018473Y-134927560D01*
X167053168Y-134957035D01*
X167060684Y-134963965D01*
X167066380Y-134969661D01*
X167069241Y-134971924D01*
X167069246Y-134971929D01*
X167088656Y-134987285D01*
X167092058Y-134990074D01*
X167110954Y-135006127D01*
X167147685Y-135037333D01*
X167154202Y-135040661D01*
X167159250Y-135044027D01*
X167164372Y-135047190D01*
X167170116Y-135051735D01*
X167236295Y-135082664D01*
X167240179Y-135084563D01*
X167305208Y-135117769D01*
X167312323Y-135119510D01*
X167317978Y-135121613D01*
X167323717Y-135123522D01*
X167330350Y-135126622D01*
X167401835Y-135141491D01*
X167406113Y-135142460D01*
X167466848Y-135157321D01*
X167528262Y-135192940D01*
X167560670Y-135256109D01*
X167562900Y-135279710D01*
X167562900Y-135288334D01*
X167569655Y-135350516D01*
X167620785Y-135486905D01*
X167708139Y-135603461D01*
X167824695Y-135690815D01*
X167961084Y-135741945D01*
X168023266Y-135748700D01*
X169795934Y-135748700D01*
X169858116Y-135741945D01*
X169994505Y-135690815D01*
X170111061Y-135603461D01*
X170198415Y-135486905D01*
X170249545Y-135350516D01*
X170256300Y-135288334D01*
X170256300Y-135284917D01*
X170256484Y-135281520D01*
X170257742Y-135281588D01*
X170276302Y-135218379D01*
X170329958Y-135171886D01*
X170382300Y-135160500D01*
X173736900Y-135160500D01*
X173805021Y-135180502D01*
X173851514Y-135234158D01*
X173861827Y-135281568D01*
X173862716Y-135281520D01*
X173862900Y-135284917D01*
X173862900Y-135288334D01*
X173869655Y-135350516D01*
X173920785Y-135486905D01*
X174008139Y-135603461D01*
X174124695Y-135690815D01*
X174261084Y-135741945D01*
X174323266Y-135748700D01*
X176095934Y-135748700D01*
X176158116Y-135741945D01*
X176294505Y-135690815D01*
X176411061Y-135603461D01*
X176416442Y-135596281D01*
X176421378Y-135591345D01*
X176483690Y-135557319D01*
X176554505Y-135562384D01*
X176611341Y-135604931D01*
X176635782Y-135667269D01*
X176643340Y-135739171D01*
X176647709Y-135780739D01*
X176652458Y-135825928D01*
X176711473Y-136007556D01*
X176759802Y-136091263D01*
X176770619Y-136109999D01*
X176787500Y-136172999D01*
X176787500Y-137894601D01*
X176767498Y-137962722D01*
X176713842Y-138009215D01*
X176643568Y-138019319D01*
X176578988Y-137989825D01*
X176543518Y-137938831D01*
X176501124Y-137825746D01*
X176492586Y-137810151D01*
X176416085Y-137708076D01*
X176403524Y-137695515D01*
X176301449Y-137619014D01*
X176285854Y-137610476D01*
X176165406Y-137565322D01*
X176150151Y-137561695D01*
X176099286Y-137556169D01*
X176092472Y-137555800D01*
X175481715Y-137555800D01*
X175466476Y-137560275D01*
X175465271Y-137561665D01*
X175463600Y-137569348D01*
X175463600Y-140230084D01*
X175468075Y-140245323D01*
X175469465Y-140246528D01*
X175477148Y-140248199D01*
X176092469Y-140248199D01*
X176099290Y-140247829D01*
X176150152Y-140242305D01*
X176165404Y-140238679D01*
X176285854Y-140193524D01*
X176301449Y-140184986D01*
X176403524Y-140108485D01*
X176416085Y-140095924D01*
X176492586Y-139993849D01*
X176501124Y-139978254D01*
X176546278Y-139857806D01*
X176549905Y-139842551D01*
X176555431Y-139791686D01*
X176555800Y-139784872D01*
X176555800Y-139093760D01*
X176575802Y-139025639D01*
X176629458Y-138979146D01*
X176699732Y-138969042D01*
X176764312Y-138998536D01*
X176802595Y-139061761D01*
X176802818Y-139061680D01*
X176802818Y-139061681D01*
X176827735Y-139130327D01*
X176829152Y-139134455D01*
X176838858Y-139164414D01*
X176851649Y-139203899D01*
X176855445Y-139210154D01*
X176857951Y-139215628D01*
X176860670Y-139221058D01*
X176863167Y-139227937D01*
X176867180Y-139234057D01*
X176867180Y-139234058D01*
X176903186Y-139288976D01*
X176905523Y-139292680D01*
X176943405Y-139355107D01*
X176947121Y-139359315D01*
X176947122Y-139359316D01*
X176950803Y-139363484D01*
X176950776Y-139363508D01*
X176953429Y-139366500D01*
X176956132Y-139369733D01*
X176960144Y-139375852D01*
X176965456Y-139380884D01*
X177016383Y-139429128D01*
X177018825Y-139431506D01*
X178252230Y-140664911D01*
X178264616Y-140679323D01*
X178273149Y-140690918D01*
X178273154Y-140690923D01*
X178277492Y-140696818D01*
X178283070Y-140701557D01*
X178283073Y-140701560D01*
X178317768Y-140731035D01*
X178325284Y-140737965D01*
X178330979Y-140743660D01*
X178333861Y-140745940D01*
X178353251Y-140761281D01*
X178356655Y-140764072D01*
X178406703Y-140806591D01*
X178412285Y-140811333D01*
X178418801Y-140814661D01*
X178423838Y-140818020D01*
X178428977Y-140821194D01*
X178434716Y-140825734D01*
X178441349Y-140828834D01*
X178500837Y-140856636D01*
X178504791Y-140858569D01*
X178569808Y-140891769D01*
X178576924Y-140893510D01*
X178582554Y-140895604D01*
X178588321Y-140897523D01*
X178594950Y-140900621D01*
X178602110Y-140902110D01*
X178602112Y-140902111D01*
X178666396Y-140915482D01*
X178670680Y-140916452D01*
X178741610Y-140933808D01*
X178747212Y-140934156D01*
X178747215Y-140934156D01*
X178752764Y-140934500D01*
X178752762Y-140934536D01*
X178756752Y-140934775D01*
X178760950Y-140935150D01*
X178768115Y-140936640D01*
X178776052Y-140936425D01*
X178794224Y-140935934D01*
X178862860Y-140954087D01*
X178903627Y-140993766D01*
X178926514Y-141029378D01*
X178946517Y-141097499D01*
X178926516Y-141165620D01*
X178872861Y-141212113D01*
X178820517Y-141223500D01*
X158114500Y-141223500D01*
X158046379Y-141203498D01*
X157999886Y-141149842D01*
X157988500Y-141097500D01*
X157988500Y-139784869D01*
X167563401Y-139784869D01*
X167563771Y-139791690D01*
X167569295Y-139842552D01*
X167572921Y-139857804D01*
X167618076Y-139978254D01*
X167626614Y-139993849D01*
X167703115Y-140095924D01*
X167715676Y-140108485D01*
X167817751Y-140184986D01*
X167833346Y-140193524D01*
X167953794Y-140238678D01*
X167969049Y-140242305D01*
X168019914Y-140247831D01*
X168026728Y-140248200D01*
X168637485Y-140248200D01*
X168652724Y-140243725D01*
X168653929Y-140242335D01*
X168655600Y-140234652D01*
X168655600Y-140230084D01*
X169163600Y-140230084D01*
X169168075Y-140245323D01*
X169169465Y-140246528D01*
X169177148Y-140248199D01*
X169792469Y-140248199D01*
X169799290Y-140247829D01*
X169850152Y-140242305D01*
X169865404Y-140238679D01*
X169985854Y-140193524D01*
X170001449Y-140184986D01*
X170103524Y-140108485D01*
X170116085Y-140095924D01*
X170192586Y-139993849D01*
X170201124Y-139978254D01*
X170246278Y-139857806D01*
X170249905Y-139842551D01*
X170255431Y-139791686D01*
X170255800Y-139784872D01*
X170255800Y-139784869D01*
X173863401Y-139784869D01*
X173863771Y-139791690D01*
X173869295Y-139842552D01*
X173872921Y-139857804D01*
X173918076Y-139978254D01*
X173926614Y-139993849D01*
X174003115Y-140095924D01*
X174015676Y-140108485D01*
X174117751Y-140184986D01*
X174133346Y-140193524D01*
X174253794Y-140238678D01*
X174269049Y-140242305D01*
X174319914Y-140247831D01*
X174326728Y-140248200D01*
X174937485Y-140248200D01*
X174952724Y-140243725D01*
X174953929Y-140242335D01*
X174955600Y-140234652D01*
X174955600Y-139174115D01*
X174951125Y-139158876D01*
X174949735Y-139157671D01*
X174942052Y-139156000D01*
X173881516Y-139156000D01*
X173866277Y-139160475D01*
X173865072Y-139161865D01*
X173863401Y-139169548D01*
X173863401Y-139784869D01*
X170255800Y-139784869D01*
X170255800Y-139174115D01*
X170251325Y-139158876D01*
X170249935Y-139157671D01*
X170242252Y-139156000D01*
X169181715Y-139156000D01*
X169166476Y-139160475D01*
X169165271Y-139161865D01*
X169163600Y-139169548D01*
X169163600Y-140230084D01*
X168655600Y-140230084D01*
X168655600Y-139174115D01*
X168651125Y-139158876D01*
X168649735Y-139157671D01*
X168642052Y-139156000D01*
X167581516Y-139156000D01*
X167566277Y-139160475D01*
X167565072Y-139161865D01*
X167563401Y-139169548D01*
X167563401Y-139784869D01*
X157988500Y-139784869D01*
X157988500Y-138629885D01*
X167563400Y-138629885D01*
X167567875Y-138645124D01*
X167569265Y-138646329D01*
X167576948Y-138648000D01*
X168637485Y-138648000D01*
X168652724Y-138643525D01*
X168653929Y-138642135D01*
X168655600Y-138634452D01*
X168655600Y-138629885D01*
X169163600Y-138629885D01*
X169168075Y-138645124D01*
X169169465Y-138646329D01*
X169177148Y-138648000D01*
X170237684Y-138648000D01*
X170252923Y-138643525D01*
X170254128Y-138642135D01*
X170255799Y-138634452D01*
X170255799Y-138629885D01*
X173863400Y-138629885D01*
X173867875Y-138645124D01*
X173869265Y-138646329D01*
X173876948Y-138648000D01*
X174937485Y-138648000D01*
X174952724Y-138643525D01*
X174953929Y-138642135D01*
X174955600Y-138634452D01*
X174955600Y-137573916D01*
X174951125Y-137558677D01*
X174949735Y-137557472D01*
X174942052Y-137555801D01*
X174326731Y-137555801D01*
X174319910Y-137556171D01*
X174269048Y-137561695D01*
X174253796Y-137565321D01*
X174133346Y-137610476D01*
X174117751Y-137619014D01*
X174015676Y-137695515D01*
X174003115Y-137708076D01*
X173926614Y-137810151D01*
X173918076Y-137825746D01*
X173872922Y-137946194D01*
X173869295Y-137961449D01*
X173863769Y-138012314D01*
X173863400Y-138019128D01*
X173863400Y-138629885D01*
X170255799Y-138629885D01*
X170255799Y-138019131D01*
X170255429Y-138012310D01*
X170249905Y-137961448D01*
X170246279Y-137946196D01*
X170201124Y-137825746D01*
X170192586Y-137810151D01*
X170116085Y-137708076D01*
X170103524Y-137695515D01*
X170001449Y-137619014D01*
X169985854Y-137610476D01*
X169865406Y-137565322D01*
X169850151Y-137561695D01*
X169799286Y-137556169D01*
X169792472Y-137555800D01*
X169181715Y-137555800D01*
X169166476Y-137560275D01*
X169165271Y-137561665D01*
X169163600Y-137569348D01*
X169163600Y-138629885D01*
X168655600Y-138629885D01*
X168655600Y-137573916D01*
X168651125Y-137558677D01*
X168649735Y-137557472D01*
X168642052Y-137555801D01*
X168026731Y-137555801D01*
X168019910Y-137556171D01*
X167969048Y-137561695D01*
X167953796Y-137565321D01*
X167833346Y-137610476D01*
X167817751Y-137619014D01*
X167715676Y-137695515D01*
X167703115Y-137708076D01*
X167626614Y-137810151D01*
X167618076Y-137825746D01*
X167572922Y-137946194D01*
X167569295Y-137961449D01*
X167563769Y-138012314D01*
X167563400Y-138019128D01*
X167563400Y-138629885D01*
X157988500Y-138629885D01*
X157988500Y-125457885D01*
X158496000Y-125457885D01*
X158500475Y-125473124D01*
X158501865Y-125474329D01*
X158509548Y-125476000D01*
X159493885Y-125476000D01*
X159509124Y-125471525D01*
X159510329Y-125470135D01*
X159512000Y-125462452D01*
X159512000Y-123462115D01*
X159507525Y-123446876D01*
X159506135Y-123445671D01*
X159498452Y-123444000D01*
X158514116Y-123444000D01*
X158498877Y-123448475D01*
X158497672Y-123449865D01*
X158496001Y-123457548D01*
X158496001Y-123996669D01*
X158496371Y-124003490D01*
X158501895Y-124054352D01*
X158505521Y-124069604D01*
X158550676Y-124190054D01*
X158559214Y-124205649D01*
X158635715Y-124307724D01*
X158648275Y-124320284D01*
X158700165Y-124359173D01*
X158742681Y-124416032D01*
X158747707Y-124486851D01*
X158713647Y-124549144D01*
X158700165Y-124560827D01*
X158648275Y-124599716D01*
X158635715Y-124612276D01*
X158559214Y-124714351D01*
X158550676Y-124729946D01*
X158505522Y-124850394D01*
X158501895Y-124865649D01*
X158496369Y-124916514D01*
X158496000Y-124923328D01*
X158496000Y-125457885D01*
X157988500Y-125457885D01*
X157988500Y-122917885D01*
X158496000Y-122917885D01*
X158500475Y-122933124D01*
X158501865Y-122934329D01*
X158509548Y-122936000D01*
X159493885Y-122936000D01*
X159509124Y-122931525D01*
X159510329Y-122930135D01*
X159512000Y-122922452D01*
X159512000Y-121938116D01*
X159507525Y-121922877D01*
X159506135Y-121921672D01*
X159498452Y-121920001D01*
X158959331Y-121920001D01*
X158952510Y-121920371D01*
X158901648Y-121925895D01*
X158886396Y-121929521D01*
X158765946Y-121974676D01*
X158750351Y-121983214D01*
X158648276Y-122059715D01*
X158635715Y-122072276D01*
X158559214Y-122174351D01*
X158550676Y-122189946D01*
X158505522Y-122310394D01*
X158501895Y-122325649D01*
X158496369Y-122376514D01*
X158496000Y-122383328D01*
X158496000Y-122917885D01*
X157988500Y-122917885D01*
X157988500Y-119357095D01*
X163867001Y-119357095D01*
X163867338Y-119363614D01*
X163877257Y-119459206D01*
X163880149Y-119472600D01*
X163931588Y-119626784D01*
X163937761Y-119639962D01*
X164023063Y-119777807D01*
X164032099Y-119789208D01*
X164146829Y-119903739D01*
X164158240Y-119912751D01*
X164296243Y-119997816D01*
X164309424Y-120003963D01*
X164463710Y-120055138D01*
X164477086Y-120058005D01*
X164571438Y-120067672D01*
X164577854Y-120068000D01*
X164827885Y-120068000D01*
X164843124Y-120063525D01*
X164844329Y-120062135D01*
X164846000Y-120054452D01*
X164846000Y-120049884D01*
X165354000Y-120049884D01*
X165358475Y-120065123D01*
X165359865Y-120066328D01*
X165367548Y-120067999D01*
X165622095Y-120067999D01*
X165628614Y-120067662D01*
X165724206Y-120057743D01*
X165737600Y-120054851D01*
X165891784Y-120003412D01*
X165904962Y-119997239D01*
X166007808Y-119933595D01*
X166076259Y-119914757D01*
X166144029Y-119935918D01*
X166163130Y-119951567D01*
X166178829Y-119967239D01*
X166190240Y-119976251D01*
X166328243Y-120061316D01*
X166341424Y-120067463D01*
X166495710Y-120118638D01*
X166509086Y-120121505D01*
X166603438Y-120131172D01*
X166609854Y-120131500D01*
X166859885Y-120131500D01*
X166875124Y-120127025D01*
X166876329Y-120125635D01*
X166878000Y-120117952D01*
X166878000Y-120113384D01*
X167386000Y-120113384D01*
X167390475Y-120128623D01*
X167391865Y-120129828D01*
X167399548Y-120131499D01*
X167654095Y-120131499D01*
X167660614Y-120131162D01*
X167756206Y-120121243D01*
X167769600Y-120118351D01*
X167923784Y-120066912D01*
X167936962Y-120060739D01*
X168074807Y-119975437D01*
X168086208Y-119966401D01*
X168200739Y-119851671D01*
X168209751Y-119840260D01*
X168294816Y-119702257D01*
X168300963Y-119689076D01*
X168352138Y-119534790D01*
X168355005Y-119521414D01*
X168364672Y-119427062D01*
X168365000Y-119420646D01*
X168365000Y-119395615D01*
X168360525Y-119380376D01*
X168359135Y-119379171D01*
X168351452Y-119377500D01*
X167404115Y-119377500D01*
X167388876Y-119381975D01*
X167387671Y-119383365D01*
X167386000Y-119391048D01*
X167386000Y-120113384D01*
X166878000Y-120113384D01*
X166878000Y-119395615D01*
X166873525Y-119380376D01*
X166872135Y-119379171D01*
X166864452Y-119377500D01*
X165966648Y-119377500D01*
X165898527Y-119357498D01*
X165883404Y-119340045D01*
X165882486Y-119341104D01*
X165853135Y-119315671D01*
X165845452Y-119314000D01*
X165372115Y-119314000D01*
X165356876Y-119318475D01*
X165355671Y-119319865D01*
X165354000Y-119327548D01*
X165354000Y-120049884D01*
X164846000Y-120049884D01*
X164846000Y-119332115D01*
X164841525Y-119316876D01*
X164840135Y-119315671D01*
X164832452Y-119314000D01*
X163885116Y-119314000D01*
X163869877Y-119318475D01*
X163868672Y-119319865D01*
X163867001Y-119327548D01*
X163867001Y-119357095D01*
X157988500Y-119357095D01*
X157988500Y-118408669D01*
X158496001Y-118408669D01*
X158496371Y-118415490D01*
X158501895Y-118466352D01*
X158505521Y-118481604D01*
X158550676Y-118602054D01*
X158559214Y-118617649D01*
X158635715Y-118719724D01*
X158648276Y-118732285D01*
X158750351Y-118808786D01*
X158765946Y-118817324D01*
X158886394Y-118862478D01*
X158901649Y-118866105D01*
X158952514Y-118871631D01*
X158959328Y-118872000D01*
X159493885Y-118872000D01*
X159509124Y-118867525D01*
X159510329Y-118866135D01*
X159512000Y-118858452D01*
X159512000Y-118853884D01*
X160020000Y-118853884D01*
X160024475Y-118869123D01*
X160025865Y-118870328D01*
X160033548Y-118871999D01*
X160572669Y-118871999D01*
X160579490Y-118871629D01*
X160630352Y-118866105D01*
X160645604Y-118862479D01*
X160766054Y-118817324D01*
X160781649Y-118808786D01*
X160883724Y-118732285D01*
X160896284Y-118719725D01*
X160935173Y-118667835D01*
X160992032Y-118625319D01*
X161062851Y-118620293D01*
X161125144Y-118654353D01*
X161136827Y-118667835D01*
X161175716Y-118719725D01*
X161188276Y-118732285D01*
X161290351Y-118808786D01*
X161305946Y-118817324D01*
X161426394Y-118862478D01*
X161441649Y-118866105D01*
X161492514Y-118871631D01*
X161499328Y-118872000D01*
X162033885Y-118872000D01*
X162049124Y-118867525D01*
X162050329Y-118866135D01*
X162052000Y-118858452D01*
X162052000Y-118853884D01*
X162560000Y-118853884D01*
X162564475Y-118869123D01*
X162565865Y-118870328D01*
X162573548Y-118871999D01*
X163112669Y-118871999D01*
X163119490Y-118871629D01*
X163170352Y-118866105D01*
X163185604Y-118862479D01*
X163306054Y-118817324D01*
X163321649Y-118808786D01*
X163423724Y-118732285D01*
X163436285Y-118719724D01*
X163512786Y-118617649D01*
X163521324Y-118602054D01*
X163566478Y-118481606D01*
X163570105Y-118466351D01*
X163575631Y-118415486D01*
X163576000Y-118408672D01*
X163576000Y-117874115D01*
X163571525Y-117858876D01*
X163570135Y-117857671D01*
X163562452Y-117856000D01*
X162578115Y-117856000D01*
X162562876Y-117860475D01*
X162561671Y-117861865D01*
X162560000Y-117869548D01*
X162560000Y-118853884D01*
X162052000Y-118853884D01*
X162052000Y-117874115D01*
X162047525Y-117858876D01*
X162046135Y-117857671D01*
X162038452Y-117856000D01*
X160038115Y-117856000D01*
X160022876Y-117860475D01*
X160021671Y-117861865D01*
X160020000Y-117869548D01*
X160020000Y-118853884D01*
X159512000Y-118853884D01*
X159512000Y-117874115D01*
X159507525Y-117858876D01*
X159506135Y-117857671D01*
X159498452Y-117856000D01*
X158514116Y-117856000D01*
X158498877Y-117860475D01*
X158497672Y-117861865D01*
X158496001Y-117869548D01*
X158496001Y-118408669D01*
X157988500Y-118408669D01*
X157988500Y-112249885D01*
X158496000Y-112249885D01*
X158500475Y-112265124D01*
X158501865Y-112266329D01*
X158509548Y-112268000D01*
X159493885Y-112268000D01*
X159509124Y-112263525D01*
X159510329Y-112262135D01*
X159512000Y-112254452D01*
X159512000Y-112249885D01*
X160020000Y-112249885D01*
X160024475Y-112265124D01*
X160025865Y-112266329D01*
X160033548Y-112268000D01*
X162033885Y-112268000D01*
X162049124Y-112263525D01*
X162050329Y-112262135D01*
X162052000Y-112254452D01*
X162052000Y-112249885D01*
X162560000Y-112249885D01*
X162564475Y-112265124D01*
X162565865Y-112266329D01*
X162573548Y-112268000D01*
X163557884Y-112268000D01*
X163573123Y-112263525D01*
X163574328Y-112262135D01*
X163575517Y-112256669D01*
X163996001Y-112256669D01*
X163996371Y-112263490D01*
X164001895Y-112314352D01*
X164005521Y-112329604D01*
X164050676Y-112450054D01*
X164059214Y-112465649D01*
X164135715Y-112567724D01*
X164148276Y-112580285D01*
X164250351Y-112656786D01*
X164265946Y-112665324D01*
X164386394Y-112710478D01*
X164401649Y-112714105D01*
X164452514Y-112719631D01*
X164459328Y-112720000D01*
X165081885Y-112720000D01*
X165097124Y-112715525D01*
X165098329Y-112714135D01*
X165100000Y-112706452D01*
X165100000Y-111834115D01*
X165095525Y-111818876D01*
X165094135Y-111817671D01*
X165086452Y-111816000D01*
X164014116Y-111816000D01*
X163998877Y-111820475D01*
X163997672Y-111821865D01*
X163996001Y-111829548D01*
X163996001Y-112256669D01*
X163575517Y-112256669D01*
X163575999Y-112254452D01*
X163575999Y-111715331D01*
X163575629Y-111708510D01*
X163570105Y-111657648D01*
X163566479Y-111642396D01*
X163521324Y-111521946D01*
X163512786Y-111506351D01*
X163436285Y-111404276D01*
X163423724Y-111391715D01*
X163321649Y-111315214D01*
X163306054Y-111306676D01*
X163261264Y-111289885D01*
X163996000Y-111289885D01*
X164000475Y-111305124D01*
X164001865Y-111306329D01*
X164009548Y-111308000D01*
X165081885Y-111308000D01*
X165097124Y-111303525D01*
X165098329Y-111302135D01*
X165100000Y-111294452D01*
X165100000Y-111289885D01*
X165608000Y-111289885D01*
X165612475Y-111305124D01*
X165613865Y-111306329D01*
X165621548Y-111308000D01*
X166693884Y-111308000D01*
X166709123Y-111303525D01*
X166710328Y-111302135D01*
X166711999Y-111294452D01*
X166711999Y-110867331D01*
X166711629Y-110860510D01*
X166706105Y-110809648D01*
X166702479Y-110794396D01*
X166657324Y-110673946D01*
X166648786Y-110658351D01*
X166572285Y-110556276D01*
X166559724Y-110543715D01*
X166457649Y-110467214D01*
X166442054Y-110458676D01*
X166321606Y-110413522D01*
X166306351Y-110409895D01*
X166255486Y-110404369D01*
X166248672Y-110404000D01*
X165626115Y-110404000D01*
X165610876Y-110408475D01*
X165609671Y-110409865D01*
X165608000Y-110417548D01*
X165608000Y-111289885D01*
X165100000Y-111289885D01*
X165100000Y-110422116D01*
X165095525Y-110406877D01*
X165094135Y-110405672D01*
X165086452Y-110404001D01*
X164459331Y-110404001D01*
X164452510Y-110404371D01*
X164401648Y-110409895D01*
X164386396Y-110413521D01*
X164265946Y-110458676D01*
X164250351Y-110467214D01*
X164148276Y-110543715D01*
X164135715Y-110556276D01*
X164059214Y-110658351D01*
X164050676Y-110673946D01*
X164005522Y-110794394D01*
X164001895Y-110809649D01*
X163996369Y-110860514D01*
X163996000Y-110867328D01*
X163996000Y-111289885D01*
X163261264Y-111289885D01*
X163185606Y-111261522D01*
X163170351Y-111257895D01*
X163119486Y-111252369D01*
X163112672Y-111252000D01*
X162578115Y-111252000D01*
X162562876Y-111256475D01*
X162561671Y-111257865D01*
X162560000Y-111265548D01*
X162560000Y-112249885D01*
X162052000Y-112249885D01*
X162052000Y-111270116D01*
X162047525Y-111254877D01*
X162046135Y-111253672D01*
X162038452Y-111252001D01*
X161499331Y-111252001D01*
X161492510Y-111252371D01*
X161441648Y-111257895D01*
X161426396Y-111261521D01*
X161305946Y-111306676D01*
X161290351Y-111315214D01*
X161188276Y-111391715D01*
X161175716Y-111404275D01*
X161136827Y-111456165D01*
X161079968Y-111498681D01*
X161009149Y-111503707D01*
X160946856Y-111469647D01*
X160935173Y-111456165D01*
X160896284Y-111404275D01*
X160883724Y-111391715D01*
X160781649Y-111315214D01*
X160766054Y-111306676D01*
X160645606Y-111261522D01*
X160630351Y-111257895D01*
X160579486Y-111252369D01*
X160572672Y-111252000D01*
X160038115Y-111252000D01*
X160022876Y-111256475D01*
X160021671Y-111257865D01*
X160020000Y-111265548D01*
X160020000Y-112249885D01*
X159512000Y-112249885D01*
X159512000Y-111270116D01*
X159507525Y-111254877D01*
X159506135Y-111253672D01*
X159498452Y-111252001D01*
X158959331Y-111252001D01*
X158952510Y-111252371D01*
X158901648Y-111257895D01*
X158886396Y-111261521D01*
X158765946Y-111306676D01*
X158750351Y-111315214D01*
X158648276Y-111391715D01*
X158635715Y-111404276D01*
X158559214Y-111506351D01*
X158550676Y-111521946D01*
X158505522Y-111642394D01*
X158501895Y-111657649D01*
X158496369Y-111708514D01*
X158496000Y-111715328D01*
X158496000Y-112249885D01*
X157988500Y-112249885D01*
X157988500Y-105085839D01*
X167735173Y-105085839D01*
X167735397Y-105090505D01*
X167735397Y-105090511D01*
X167739833Y-105182852D01*
X167747713Y-105346908D01*
X167798704Y-105603256D01*
X167887026Y-105849252D01*
X167889242Y-105853376D01*
X167996456Y-106052912D01*
X168010737Y-106079491D01*
X168013532Y-106083234D01*
X168013534Y-106083237D01*
X168164330Y-106285177D01*
X168164335Y-106285183D01*
X168167122Y-106288915D01*
X168170431Y-106292195D01*
X168170436Y-106292201D01*
X168349426Y-106469635D01*
X168352743Y-106472923D01*
X168356505Y-106475681D01*
X168356508Y-106475684D01*
X168532487Y-106604717D01*
X168563524Y-106627474D01*
X168567667Y-106629654D01*
X168567669Y-106629655D01*
X168790684Y-106746989D01*
X168790689Y-106746991D01*
X168794834Y-106749172D01*
X169041590Y-106835344D01*
X169046183Y-106836216D01*
X169293785Y-106883224D01*
X169293788Y-106883224D01*
X169298374Y-106884095D01*
X169428959Y-106889226D01*
X169554875Y-106894174D01*
X169554881Y-106894174D01*
X169559543Y-106894357D01*
X169646450Y-106884839D01*
X169814707Y-106866412D01*
X169814712Y-106866411D01*
X169819360Y-106865902D01*
X169932116Y-106836216D01*
X170067594Y-106800548D01*
X170067596Y-106800547D01*
X170072117Y-106799357D01*
X170148673Y-106766466D01*
X170307972Y-106698025D01*
X170312262Y-106696182D01*
X170354650Y-106669952D01*
X170530547Y-106561104D01*
X170530548Y-106561104D01*
X170534519Y-106558646D01*
X170538082Y-106555629D01*
X170538087Y-106555626D01*
X170730439Y-106392787D01*
X170730440Y-106392786D01*
X170734005Y-106389768D01*
X170851492Y-106255800D01*
X170903257Y-106196774D01*
X170903261Y-106196769D01*
X170906339Y-106193259D01*
X170912088Y-106184322D01*
X170994205Y-106056655D01*
X171047733Y-105973437D01*
X171155083Y-105735129D01*
X171200962Y-105572455D01*
X171224760Y-105488076D01*
X171224761Y-105488073D01*
X171226030Y-105483572D01*
X171234461Y-105417295D01*
X171258616Y-105227421D01*
X171258616Y-105227417D01*
X171259014Y-105224291D01*
X171261431Y-105132000D01*
X171259645Y-105107970D01*
X171242407Y-104876000D01*
X171242406Y-104875996D01*
X171242061Y-104871348D01*
X171219848Y-104773182D01*
X171224322Y-104702328D01*
X171266394Y-104645140D01*
X171332705Y-104619775D01*
X171402669Y-104634539D01*
X171540607Y-104709121D01*
X171551907Y-104713871D01*
X171686693Y-104755595D01*
X171700795Y-104755801D01*
X171704000Y-104749045D01*
X171704000Y-103904115D01*
X171699525Y-103888876D01*
X171698135Y-103887671D01*
X171690452Y-103886000D01*
X170928096Y-103886000D01*
X170897491Y-103894986D01*
X170863619Y-103916755D01*
X170792622Y-103916755D01*
X170741787Y-103887634D01*
X170611171Y-103764763D01*
X170607763Y-103761557D01*
X170393009Y-103612576D01*
X170388816Y-103610508D01*
X170162781Y-103499040D01*
X170162778Y-103499039D01*
X170158593Y-103496975D01*
X170112449Y-103482204D01*
X169914123Y-103418720D01*
X169909665Y-103417293D01*
X169651693Y-103375279D01*
X169535954Y-103373764D01*
X169395022Y-103371919D01*
X169395019Y-103371919D01*
X169390345Y-103371858D01*
X169131362Y-103407104D01*
X168880433Y-103480243D01*
X168876180Y-103482203D01*
X168876179Y-103482204D01*
X168839659Y-103499040D01*
X168643072Y-103589668D01*
X168604067Y-103615241D01*
X168428404Y-103730410D01*
X168428399Y-103730414D01*
X168424491Y-103732976D01*
X168229494Y-103907018D01*
X168062363Y-104107970D01*
X168059934Y-104111973D01*
X167929826Y-104326385D01*
X167926771Y-104331419D01*
X167825697Y-104572455D01*
X167761359Y-104825783D01*
X167760891Y-104830434D01*
X167760890Y-104830438D01*
X167753179Y-104907018D01*
X167735173Y-105085839D01*
X157988500Y-105085839D01*
X157988500Y-103359996D01*
X170912613Y-103359996D01*
X170915166Y-103374527D01*
X170927713Y-103378000D01*
X171685885Y-103378000D01*
X171701124Y-103373525D01*
X171702329Y-103372135D01*
X171704000Y-103364452D01*
X171704000Y-103359885D01*
X172212000Y-103359885D01*
X172216475Y-103375124D01*
X172217865Y-103376329D01*
X172225548Y-103378000D01*
X172987904Y-103378000D01*
X173002331Y-103373764D01*
X173004392Y-103361411D01*
X173004253Y-103359996D01*
X174722613Y-103359996D01*
X174725166Y-103374527D01*
X174737713Y-103378000D01*
X175495885Y-103378000D01*
X175511124Y-103373525D01*
X175512329Y-103372135D01*
X175514000Y-103364452D01*
X175514000Y-103359885D01*
X176022000Y-103359885D01*
X176026475Y-103375124D01*
X176027865Y-103376329D01*
X176035548Y-103378000D01*
X176797904Y-103378000D01*
X176812331Y-103373764D01*
X176814392Y-103361411D01*
X176814253Y-103359996D01*
X178532613Y-103359996D01*
X178535166Y-103374527D01*
X178547713Y-103378000D01*
X179305885Y-103378000D01*
X179321124Y-103373525D01*
X179322329Y-103372135D01*
X179324000Y-103364452D01*
X179324000Y-103359885D01*
X179832000Y-103359885D01*
X179836475Y-103375124D01*
X179837865Y-103376329D01*
X179845548Y-103378000D01*
X180607904Y-103378000D01*
X180622331Y-103373764D01*
X180624392Y-103361411D01*
X180621473Y-103331639D01*
X180619090Y-103319604D01*
X180562683Y-103132777D01*
X180558008Y-103121435D01*
X180466388Y-102949121D01*
X180459601Y-102938905D01*
X180336253Y-102787665D01*
X180327609Y-102778961D01*
X180177237Y-102654562D01*
X180167069Y-102647703D01*
X179995393Y-102554879D01*
X179984093Y-102550129D01*
X179849307Y-102508405D01*
X179835205Y-102508199D01*
X179832000Y-102514955D01*
X179832000Y-103359885D01*
X179324000Y-103359885D01*
X179324000Y-102521953D01*
X179320027Y-102508422D01*
X179312232Y-102507302D01*
X179185658Y-102544554D01*
X179174290Y-102549147D01*
X179001334Y-102639566D01*
X178991072Y-102646282D01*
X178838980Y-102768568D01*
X178830214Y-102777152D01*
X178704764Y-102926656D01*
X178697840Y-102936767D01*
X178603816Y-103107798D01*
X178598988Y-103119062D01*
X178539975Y-103305095D01*
X178537427Y-103317083D01*
X178532613Y-103359996D01*
X176814253Y-103359996D01*
X176811473Y-103331639D01*
X176809090Y-103319604D01*
X176752683Y-103132777D01*
X176748008Y-103121435D01*
X176656388Y-102949121D01*
X176649601Y-102938905D01*
X176526253Y-102787665D01*
X176517609Y-102778961D01*
X176367237Y-102654562D01*
X176357069Y-102647703D01*
X176185393Y-102554879D01*
X176174093Y-102550129D01*
X176039307Y-102508405D01*
X176025205Y-102508199D01*
X176022000Y-102514955D01*
X176022000Y-103359885D01*
X175514000Y-103359885D01*
X175514000Y-102521953D01*
X175510027Y-102508422D01*
X175502232Y-102507302D01*
X175375658Y-102544554D01*
X175364290Y-102549147D01*
X175191334Y-102639566D01*
X175181072Y-102646282D01*
X175028980Y-102768568D01*
X175020214Y-102777152D01*
X174894764Y-102926656D01*
X174887840Y-102936767D01*
X174793816Y-103107798D01*
X174788988Y-103119062D01*
X174729975Y-103305095D01*
X174727427Y-103317083D01*
X174722613Y-103359996D01*
X173004253Y-103359996D01*
X173001473Y-103331639D01*
X172999090Y-103319604D01*
X172942683Y-103132777D01*
X172938008Y-103121435D01*
X172846388Y-102949121D01*
X172839601Y-102938905D01*
X172716253Y-102787665D01*
X172707609Y-102778961D01*
X172557237Y-102654562D01*
X172547069Y-102647703D01*
X172375393Y-102554879D01*
X172364093Y-102550129D01*
X172229307Y-102508405D01*
X172215205Y-102508199D01*
X172212000Y-102514955D01*
X172212000Y-103359885D01*
X171704000Y-103359885D01*
X171704000Y-102521953D01*
X171700027Y-102508422D01*
X171692232Y-102507302D01*
X171565658Y-102544554D01*
X171554290Y-102549147D01*
X171381334Y-102639566D01*
X171371072Y-102646282D01*
X171218980Y-102768568D01*
X171210214Y-102777152D01*
X171084764Y-102926656D01*
X171077840Y-102936767D01*
X170983816Y-103107798D01*
X170978988Y-103119062D01*
X170919975Y-103305095D01*
X170917427Y-103317083D01*
X170912613Y-103359996D01*
X157988500Y-103359996D01*
X157988500Y-102234500D01*
X158008502Y-102166379D01*
X158062158Y-102119886D01*
X158114500Y-102108500D01*
X217297500Y-102108500D01*
X217365621Y-102128502D01*
G37*
%TD.AperFunction*%
%TA.AperFunction,Conductor*%
G36*
X203396121Y-133545302D02*
G01*
X203442614Y-133598958D01*
X203454000Y-133651300D01*
X203454000Y-134769184D01*
X203458475Y-134784423D01*
X203459865Y-134785628D01*
X203467548Y-134787299D01*
X203710500Y-134787299D01*
X203778621Y-134807301D01*
X203825114Y-134860957D01*
X203836500Y-134913299D01*
X203836500Y-135509500D01*
X203816498Y-135577621D01*
X203762842Y-135624114D01*
X203710500Y-135635500D01*
X203659866Y-135635500D01*
X203597684Y-135642255D01*
X203461295Y-135693385D01*
X203344739Y-135780739D01*
X203339358Y-135787919D01*
X203300826Y-135839332D01*
X203243967Y-135881847D01*
X203173148Y-135886873D01*
X203110855Y-135852813D01*
X203099174Y-135839332D01*
X203060642Y-135787919D01*
X203055261Y-135780739D01*
X202938705Y-135693385D01*
X202802316Y-135642255D01*
X202740134Y-135635500D01*
X202689500Y-135635500D01*
X202621379Y-135615498D01*
X202574886Y-135561842D01*
X202563500Y-135509500D01*
X202563500Y-134913300D01*
X202583502Y-134845179D01*
X202637158Y-134798686D01*
X202689500Y-134787300D01*
X202927885Y-134787300D01*
X202943124Y-134782825D01*
X202944329Y-134781435D01*
X202946000Y-134773752D01*
X202946000Y-133651300D01*
X202966002Y-133583179D01*
X203019658Y-133536686D01*
X203072000Y-133525300D01*
X203328000Y-133525300D01*
X203396121Y-133545302D01*
G37*
%TD.AperFunction*%
%TA.AperFunction,Conductor*%
G36*
X166225221Y-129444202D02*
G01*
X166244447Y-129460543D01*
X166244720Y-129460240D01*
X166249632Y-129464663D01*
X166254047Y-129469566D01*
X166259386Y-129473445D01*
X166390222Y-129568503D01*
X166408548Y-129581818D01*
X166414576Y-129584502D01*
X166414578Y-129584503D01*
X166576981Y-129656809D01*
X166583012Y-129659494D01*
X166662007Y-129676285D01*
X166763356Y-129697828D01*
X166763361Y-129697828D01*
X166769813Y-129699200D01*
X166960787Y-129699200D01*
X166967242Y-129697828D01*
X166967251Y-129697827D01*
X167045062Y-129681287D01*
X167115853Y-129686688D01*
X167172486Y-129729504D01*
X167196980Y-129796142D01*
X167197260Y-129804533D01*
X167197260Y-130408834D01*
X167204015Y-130471016D01*
X167255145Y-130607405D01*
X167342499Y-130723961D01*
X167459055Y-130811315D01*
X167595444Y-130862445D01*
X167657626Y-130869200D01*
X167721260Y-130869200D01*
X167789381Y-130889202D01*
X167835874Y-130942858D01*
X167847260Y-130995200D01*
X167847260Y-131151436D01*
X167827258Y-131219557D01*
X167814902Y-131235739D01*
X167741720Y-131317016D01*
X167646233Y-131482404D01*
X167587218Y-131664032D01*
X167586528Y-131670593D01*
X167586528Y-131670595D01*
X167575693Y-131773687D01*
X167567256Y-131853960D01*
X167567946Y-131860525D01*
X167581619Y-131990613D01*
X167587218Y-132043888D01*
X167646233Y-132225516D01*
X167649536Y-132231238D01*
X167649537Y-132231239D01*
X167676714Y-132278311D01*
X167741720Y-132390904D01*
X167746138Y-132395811D01*
X167746139Y-132395812D01*
X167806617Y-132462980D01*
X167869507Y-132532826D01*
X167909458Y-132561852D01*
X167986059Y-132617506D01*
X168024008Y-132645078D01*
X168030036Y-132647762D01*
X168030038Y-132647763D01*
X168031907Y-132648595D01*
X168198472Y-132722754D01*
X168291873Y-132742607D01*
X168378816Y-132761088D01*
X168378821Y-132761088D01*
X168385273Y-132762460D01*
X168576247Y-132762460D01*
X168582699Y-132761088D01*
X168582704Y-132761088D01*
X168669647Y-132742607D01*
X168763048Y-132722754D01*
X168929613Y-132648595D01*
X168931482Y-132647763D01*
X168931484Y-132647762D01*
X168937512Y-132645078D01*
X168975462Y-132617506D01*
X169052062Y-132561852D01*
X169092013Y-132532826D01*
X169154903Y-132462980D01*
X169215381Y-132395812D01*
X169215382Y-132395811D01*
X169219800Y-132390904D01*
X169284806Y-132278311D01*
X169311983Y-132231239D01*
X169311984Y-132231238D01*
X169315287Y-132225516D01*
X169374302Y-132043888D01*
X169379902Y-131990613D01*
X169393574Y-131860525D01*
X169394264Y-131853960D01*
X169385827Y-131773687D01*
X169374992Y-131670595D01*
X169374992Y-131670593D01*
X169374302Y-131664032D01*
X169315287Y-131482404D01*
X169219800Y-131317016D01*
X169146623Y-131235745D01*
X169115907Y-131171739D01*
X169114260Y-131151436D01*
X169114260Y-130995200D01*
X169134262Y-130927079D01*
X169187918Y-130880586D01*
X169240260Y-130869200D01*
X169303894Y-130869200D01*
X169366076Y-130862445D01*
X169502465Y-130811315D01*
X169619021Y-130723961D01*
X169624402Y-130716781D01*
X169630107Y-130711076D01*
X169692419Y-130677050D01*
X169763234Y-130682115D01*
X169812841Y-130715864D01*
X169822747Y-130726866D01*
X169828086Y-130730745D01*
X169960868Y-130827217D01*
X169977248Y-130839118D01*
X169983276Y-130841802D01*
X169983278Y-130841803D01*
X170145681Y-130914109D01*
X170151712Y-130916794D01*
X170243471Y-130936298D01*
X170332056Y-130955128D01*
X170332061Y-130955128D01*
X170338513Y-130956500D01*
X170394406Y-130956500D01*
X170462527Y-130976502D01*
X170483501Y-130993405D01*
X171708343Y-132218247D01*
X171715887Y-132226537D01*
X171720000Y-132233018D01*
X171725777Y-132238443D01*
X171769667Y-132279658D01*
X171772509Y-132282413D01*
X171792231Y-132302135D01*
X171795373Y-132304572D01*
X171795433Y-132304619D01*
X171804445Y-132312317D01*
X171830036Y-132336347D01*
X171836679Y-132342586D01*
X171843622Y-132346403D01*
X171854431Y-132352345D01*
X171870953Y-132363198D01*
X171886959Y-132375614D01*
X171894237Y-132378764D01*
X171894238Y-132378764D01*
X171927537Y-132393174D01*
X171938187Y-132398391D01*
X171976940Y-132419695D01*
X171984615Y-132421666D01*
X171984616Y-132421666D01*
X171996562Y-132424733D01*
X172015267Y-132431137D01*
X172033855Y-132439181D01*
X172041678Y-132440420D01*
X172041688Y-132440423D01*
X172077524Y-132446099D01*
X172089144Y-132448505D01*
X172124289Y-132457528D01*
X172131970Y-132459500D01*
X172152224Y-132459500D01*
X172171934Y-132461051D01*
X172191943Y-132464220D01*
X172199835Y-132463474D01*
X172235961Y-132460059D01*
X172247819Y-132459500D01*
X174539006Y-132459500D01*
X174607127Y-132479502D01*
X174628101Y-132496405D01*
X174971901Y-132840205D01*
X175005927Y-132902517D01*
X175000862Y-132973332D01*
X174958315Y-133030168D01*
X174891795Y-133054979D01*
X174882806Y-133055300D01*
X174323266Y-133055300D01*
X174261084Y-133062055D01*
X174124695Y-133113185D01*
X174008139Y-133200539D01*
X173920785Y-133317095D01*
X173869655Y-133453484D01*
X173862900Y-133515666D01*
X173862900Y-133519082D01*
X173862716Y-133522480D01*
X173861458Y-133522412D01*
X173842898Y-133585621D01*
X173789242Y-133632114D01*
X173736900Y-133643500D01*
X170382300Y-133643500D01*
X170314179Y-133623498D01*
X170267686Y-133569842D01*
X170257373Y-133522432D01*
X170256484Y-133522480D01*
X170256300Y-133519082D01*
X170256300Y-133515666D01*
X170249545Y-133453484D01*
X170198415Y-133317095D01*
X170111061Y-133200539D01*
X169994505Y-133113185D01*
X169858116Y-133062055D01*
X169795934Y-133055300D01*
X168023266Y-133055300D01*
X167961084Y-133062055D01*
X167824695Y-133113185D01*
X167708139Y-133200539D01*
X167702758Y-133207719D01*
X167702756Y-133207721D01*
X167681548Y-133236018D01*
X167624688Y-133278533D01*
X167553870Y-133283557D01*
X167491628Y-133249547D01*
X166087170Y-131845089D01*
X166074784Y-131830677D01*
X166066251Y-131819082D01*
X166066246Y-131819077D01*
X166061908Y-131813182D01*
X166056330Y-131808443D01*
X166056327Y-131808440D01*
X166021632Y-131778965D01*
X166014116Y-131772035D01*
X166008421Y-131766340D01*
X166002280Y-131761482D01*
X165986149Y-131748719D01*
X165982745Y-131745928D01*
X165932697Y-131703409D01*
X165932695Y-131703408D01*
X165927115Y-131698667D01*
X165920599Y-131695339D01*
X165915550Y-131691972D01*
X165910421Y-131688805D01*
X165904684Y-131684266D01*
X165838525Y-131653345D01*
X165834625Y-131651439D01*
X165829788Y-131648969D01*
X165769592Y-131618231D01*
X165762484Y-131616492D01*
X165756841Y-131614393D01*
X165751078Y-131612476D01*
X165744450Y-131609378D01*
X165672983Y-131594513D01*
X165668699Y-131593543D01*
X165597790Y-131576192D01*
X165592188Y-131575844D01*
X165592185Y-131575844D01*
X165586636Y-131575500D01*
X165586638Y-131575464D01*
X165582645Y-131575225D01*
X165578453Y-131574851D01*
X165571285Y-131573360D01*
X165505967Y-131575127D01*
X165493879Y-131575454D01*
X165490472Y-131575500D01*
X163702000Y-131575500D01*
X163633879Y-131555498D01*
X163587386Y-131501842D01*
X163576000Y-131449500D01*
X163576000Y-131082115D01*
X163571525Y-131066876D01*
X163570135Y-131065671D01*
X163562452Y-131064000D01*
X162178000Y-131064000D01*
X162109879Y-131043998D01*
X162063386Y-130990342D01*
X162052000Y-130938000D01*
X162052000Y-130682000D01*
X162072002Y-130613879D01*
X162125658Y-130567386D01*
X162178000Y-130556000D01*
X163557884Y-130556000D01*
X163573123Y-130551525D01*
X163574328Y-130550135D01*
X163575999Y-130542452D01*
X163575999Y-130003331D01*
X163575629Y-129996510D01*
X163570105Y-129945648D01*
X163566479Y-129930396D01*
X163521324Y-129809946D01*
X163512786Y-129794351D01*
X163436285Y-129692276D01*
X163423728Y-129679719D01*
X163385444Y-129651027D01*
X163342929Y-129594167D01*
X163337903Y-129523349D01*
X163371963Y-129461056D01*
X163434294Y-129427065D01*
X163461009Y-129424200D01*
X166157100Y-129424200D01*
X166225221Y-129444202D01*
G37*
%TD.AperFunction*%
%TA.AperFunction,Conductor*%
G36*
X207738064Y-128477156D02*
G01*
X207783127Y-128506117D01*
X208573588Y-129296578D01*
X208587532Y-129304192D01*
X208589365Y-129304061D01*
X208595980Y-129299810D01*
X208775979Y-129119811D01*
X208780328Y-129114988D01*
X208840927Y-129040358D01*
X208848349Y-129028847D01*
X208921003Y-128883446D01*
X208925952Y-128869773D01*
X208954950Y-128746621D01*
X208990033Y-128684898D01*
X209052916Y-128651941D01*
X209077596Y-128649500D01*
X211709500Y-128649500D01*
X211777621Y-128669502D01*
X211824114Y-128723158D01*
X211835500Y-128775500D01*
X211835500Y-128826134D01*
X211842255Y-128888316D01*
X211893385Y-129024705D01*
X211980739Y-129141261D01*
X212039332Y-129185174D01*
X212081847Y-129242033D01*
X212086873Y-129312852D01*
X212052813Y-129375145D01*
X212039333Y-129386825D01*
X211980739Y-129430739D01*
X211893385Y-129547295D01*
X211842255Y-129683684D01*
X211835500Y-129745866D01*
X211835500Y-129796500D01*
X211815498Y-129864621D01*
X211761842Y-129911114D01*
X211709500Y-129922500D01*
X208277481Y-129922500D01*
X208209360Y-129902498D01*
X208162867Y-129848842D01*
X208152763Y-129778568D01*
X208182257Y-129713988D01*
X208188386Y-129707405D01*
X208214381Y-129681410D01*
X208221993Y-129667470D01*
X208221861Y-129665634D01*
X208217612Y-129659022D01*
X207423917Y-128865327D01*
X207389891Y-128803015D01*
X207394956Y-128732200D01*
X207423917Y-128687137D01*
X207604937Y-128506117D01*
X207667249Y-128472091D01*
X207738064Y-128477156D01*
G37*
%TD.AperFunction*%
%TA.AperFunction,Conductor*%
G36*
X167139881Y-125875502D02*
G01*
X167186374Y-125929158D01*
X167195313Y-125970251D01*
X167202235Y-125993824D01*
X167203625Y-125995029D01*
X167211308Y-125996700D01*
X169745644Y-125996700D01*
X169760883Y-125992225D01*
X169762088Y-125990835D01*
X169763759Y-125983152D01*
X169763759Y-125981500D01*
X169765146Y-125976778D01*
X169766638Y-125969917D01*
X169767129Y-125970024D01*
X169783761Y-125913379D01*
X169837417Y-125866886D01*
X169889759Y-125855500D01*
X170242466Y-125855500D01*
X170310587Y-125875502D01*
X170331561Y-125892405D01*
X172352103Y-127912947D01*
X172359647Y-127921237D01*
X172363760Y-127927718D01*
X172369537Y-127933143D01*
X172413427Y-127974358D01*
X172416269Y-127977113D01*
X172435991Y-127996835D01*
X172439133Y-127999272D01*
X172439193Y-127999319D01*
X172448205Y-128007017D01*
X172473796Y-128031047D01*
X172480439Y-128037286D01*
X172487382Y-128041103D01*
X172498191Y-128047045D01*
X172514713Y-128057898D01*
X172530719Y-128070314D01*
X172537997Y-128073464D01*
X172537998Y-128073464D01*
X172571297Y-128087874D01*
X172581947Y-128093091D01*
X172593982Y-128099707D01*
X172644040Y-128150050D01*
X172658934Y-128219467D01*
X172651263Y-128254349D01*
X172604015Y-128380384D01*
X172597260Y-128442566D01*
X172597260Y-128675329D01*
X172577258Y-128743450D01*
X172523602Y-128789943D01*
X172453328Y-128800047D01*
X172388748Y-128770553D01*
X172382165Y-128764424D01*
X170649530Y-127031789D01*
X170637144Y-127017377D01*
X170628611Y-127005782D01*
X170628606Y-127005777D01*
X170624268Y-126999882D01*
X170618690Y-126995143D01*
X170618687Y-126995140D01*
X170583992Y-126965665D01*
X170576476Y-126958735D01*
X170570781Y-126953040D01*
X170549152Y-126935928D01*
X170548509Y-126935419D01*
X170545105Y-126932628D01*
X170495057Y-126890109D01*
X170495055Y-126890108D01*
X170489475Y-126885367D01*
X170482959Y-126882039D01*
X170477910Y-126878672D01*
X170472781Y-126875505D01*
X170467044Y-126870966D01*
X170400885Y-126840045D01*
X170396985Y-126838139D01*
X170366405Y-126822524D01*
X170331952Y-126804931D01*
X170324844Y-126803192D01*
X170319201Y-126801093D01*
X170313438Y-126799176D01*
X170306810Y-126796078D01*
X170271599Y-126788754D01*
X170247122Y-126783663D01*
X170235343Y-126781213D01*
X170231059Y-126780243D01*
X170200854Y-126772852D01*
X170160150Y-126762892D01*
X170154548Y-126762544D01*
X170154545Y-126762544D01*
X170148996Y-126762200D01*
X170148998Y-126762164D01*
X170145005Y-126761925D01*
X170140813Y-126761551D01*
X170133645Y-126760060D01*
X170067435Y-126761851D01*
X170056239Y-126762154D01*
X170052832Y-126762200D01*
X169886437Y-126762200D01*
X169818316Y-126742198D01*
X169771823Y-126688542D01*
X169761174Y-126622591D01*
X169763391Y-126602183D01*
X169763760Y-126595372D01*
X169763760Y-126522815D01*
X169759285Y-126507576D01*
X169757895Y-126506371D01*
X169750212Y-126504700D01*
X167215876Y-126504700D01*
X167200637Y-126509175D01*
X167199432Y-126510565D01*
X167197761Y-126518248D01*
X167197761Y-126595369D01*
X167198131Y-126602190D01*
X167203655Y-126653052D01*
X167207281Y-126668304D01*
X167252436Y-126788754D01*
X167260974Y-126804348D01*
X167264999Y-126809719D01*
X167289846Y-126876226D01*
X167274792Y-126945608D01*
X167264999Y-126960847D01*
X167260530Y-126966809D01*
X167260528Y-126966812D01*
X167255145Y-126973995D01*
X167204015Y-127110384D01*
X167197260Y-127172566D01*
X167197260Y-127776867D01*
X167177258Y-127844988D01*
X167123602Y-127891481D01*
X167053328Y-127901585D01*
X167045062Y-127900113D01*
X166967251Y-127883573D01*
X166967242Y-127883572D01*
X166960787Y-127882200D01*
X166769813Y-127882200D01*
X166763361Y-127883572D01*
X166763356Y-127883572D01*
X166685539Y-127900113D01*
X166583012Y-127921906D01*
X166576982Y-127924591D01*
X166576981Y-127924591D01*
X166414578Y-127996897D01*
X166414576Y-127996898D01*
X166408548Y-127999582D01*
X166403207Y-128003462D01*
X166403206Y-128003463D01*
X166292987Y-128083542D01*
X166254047Y-128111834D01*
X166249632Y-128116737D01*
X166244720Y-128121160D01*
X166243595Y-128119911D01*
X166190286Y-128152751D01*
X166157100Y-128157200D01*
X163702500Y-128157200D01*
X163634379Y-128137198D01*
X163587886Y-128083542D01*
X163576500Y-128031200D01*
X163576500Y-127517616D01*
X163596502Y-127449495D01*
X163605415Y-127437301D01*
X163610300Y-127431396D01*
X163618290Y-127422616D01*
X165148501Y-125892405D01*
X165210813Y-125858379D01*
X165237596Y-125855500D01*
X167071760Y-125855500D01*
X167139881Y-125875502D01*
G37*
%TD.AperFunction*%
%TA.AperFunction,Conductor*%
G36*
X175384547Y-116312800D02*
G01*
X175429531Y-116341681D01*
X175446661Y-116358781D01*
X175453197Y-116365305D01*
X175459427Y-116369145D01*
X175459428Y-116369146D01*
X175569016Y-116436697D01*
X175603762Y-116458115D01*
X175682632Y-116484275D01*
X175765111Y-116511632D01*
X175765113Y-116511632D01*
X175771639Y-116513797D01*
X175778475Y-116514497D01*
X175778478Y-116514498D01*
X175821531Y-116518909D01*
X175876100Y-116524500D01*
X175978629Y-116524500D01*
X176046750Y-116544502D01*
X176067724Y-116561405D01*
X177089230Y-117582911D01*
X177101616Y-117597323D01*
X177110149Y-117608918D01*
X177110154Y-117608923D01*
X177114492Y-117614818D01*
X177120070Y-117619557D01*
X177120073Y-117619560D01*
X177154768Y-117649035D01*
X177162284Y-117655965D01*
X177167979Y-117661660D01*
X177170861Y-117663940D01*
X177190251Y-117679281D01*
X177193655Y-117682072D01*
X177243703Y-117724591D01*
X177249285Y-117729333D01*
X177255801Y-117732661D01*
X177260838Y-117736020D01*
X177265977Y-117739194D01*
X177271716Y-117743734D01*
X177278349Y-117746834D01*
X177337837Y-117774636D01*
X177341791Y-117776569D01*
X177406808Y-117809769D01*
X177413924Y-117811510D01*
X177419554Y-117813604D01*
X177425321Y-117815523D01*
X177431950Y-117818621D01*
X177439110Y-117820110D01*
X177439112Y-117820111D01*
X177503396Y-117833482D01*
X177507680Y-117834452D01*
X177578610Y-117851808D01*
X177584212Y-117852156D01*
X177584215Y-117852156D01*
X177589764Y-117852500D01*
X177589762Y-117852536D01*
X177593752Y-117852775D01*
X177597950Y-117853150D01*
X177605115Y-117854640D01*
X177682520Y-117852546D01*
X177685928Y-117852500D01*
X182918385Y-117852500D01*
X182986506Y-117872502D01*
X183032999Y-117926158D01*
X183043103Y-117996432D01*
X183013609Y-118061012D01*
X183007480Y-118067595D01*
X182955108Y-118119967D01*
X182950751Y-118124800D01*
X182890154Y-118199427D01*
X182882732Y-118210938D01*
X182810078Y-118356339D01*
X182805128Y-118370013D01*
X182767973Y-118527812D01*
X182766301Y-118542257D01*
X182766442Y-118704373D01*
X182768138Y-118718809D01*
X182805571Y-118876546D01*
X182810544Y-118890211D01*
X182883456Y-119035497D01*
X182890885Y-119046980D01*
X182950765Y-119120530D01*
X182955075Y-119125304D01*
X183131873Y-119302101D01*
X183145811Y-119309712D01*
X183147647Y-119309580D01*
X183154259Y-119305331D01*
X183947954Y-118511636D01*
X184010266Y-118477610D01*
X184081081Y-118482675D01*
X184126144Y-118511636D01*
X184307164Y-118692656D01*
X184341190Y-118754968D01*
X184336125Y-118825783D01*
X184307164Y-118870846D01*
X183516703Y-119661307D01*
X183509089Y-119675251D01*
X183509220Y-119677084D01*
X183513471Y-119683699D01*
X183693470Y-119863698D01*
X183698304Y-119868057D01*
X183776204Y-119931312D01*
X183816478Y-119989780D01*
X183818748Y-120060740D01*
X183785874Y-120118221D01*
X182741747Y-121162348D01*
X182733461Y-121169888D01*
X182726982Y-121174000D01*
X182721557Y-121179777D01*
X182680357Y-121223651D01*
X182677602Y-121226493D01*
X182657865Y-121246230D01*
X182655385Y-121249427D01*
X182647682Y-121258447D01*
X182617414Y-121290679D01*
X182613595Y-121297625D01*
X182613593Y-121297628D01*
X182607652Y-121308434D01*
X182596801Y-121324953D01*
X182584386Y-121340959D01*
X182581241Y-121348228D01*
X182581238Y-121348232D01*
X182566826Y-121381537D01*
X182561609Y-121392187D01*
X182540305Y-121430940D01*
X182538334Y-121438615D01*
X182538334Y-121438616D01*
X182535267Y-121450562D01*
X182528863Y-121469266D01*
X182520819Y-121487855D01*
X182519580Y-121495678D01*
X182519577Y-121495688D01*
X182513901Y-121531524D01*
X182511495Y-121543144D01*
X182505839Y-121565174D01*
X182500500Y-121585970D01*
X182500500Y-121606224D01*
X182498949Y-121625934D01*
X182495780Y-121645943D01*
X182496526Y-121653835D01*
X182499941Y-121689961D01*
X182500500Y-121701819D01*
X182500500Y-124079500D01*
X182480498Y-124147621D01*
X182426842Y-124194114D01*
X182374500Y-124205500D01*
X182323866Y-124205500D01*
X182320469Y-124205869D01*
X182319263Y-124206000D01*
X182261684Y-124212255D01*
X182125295Y-124263385D01*
X182008739Y-124350739D01*
X182003358Y-124357919D01*
X181964826Y-124409332D01*
X181907967Y-124451847D01*
X181837148Y-124456873D01*
X181774855Y-124422813D01*
X181763174Y-124409332D01*
X181724642Y-124357919D01*
X181719261Y-124350739D01*
X181602705Y-124263385D01*
X181466316Y-124212255D01*
X181408737Y-124206000D01*
X181407531Y-124205869D01*
X181404134Y-124205500D01*
X179783866Y-124205500D01*
X179780469Y-124205869D01*
X179779263Y-124206000D01*
X179721684Y-124212255D01*
X179585295Y-124263385D01*
X179468739Y-124350739D01*
X179381385Y-124467295D01*
X179330255Y-124603684D01*
X179323500Y-124665866D01*
X179323500Y-126286134D01*
X179330255Y-126348316D01*
X179381385Y-126484705D01*
X179468739Y-126601261D01*
X179475919Y-126606642D01*
X179527332Y-126645174D01*
X179569847Y-126702033D01*
X179574873Y-126772852D01*
X179540813Y-126835145D01*
X179527333Y-126846825D01*
X179468739Y-126890739D01*
X179381385Y-127007295D01*
X179330255Y-127143684D01*
X179323500Y-127205866D01*
X179323500Y-128162629D01*
X179303498Y-128230750D01*
X179249842Y-128277243D01*
X179179568Y-128287347D01*
X179114988Y-128257853D01*
X179108405Y-128251724D01*
X177672347Y-126815666D01*
X177638321Y-126753354D01*
X177643386Y-126682539D01*
X177667806Y-126642261D01*
X177772621Y-126525852D01*
X177772622Y-126525851D01*
X177777040Y-126520944D01*
X177865486Y-126367751D01*
X177869223Y-126361279D01*
X177869224Y-126361278D01*
X177872527Y-126355556D01*
X177925260Y-126193263D01*
X177949065Y-126150624D01*
X177974045Y-126121220D01*
X177980965Y-126113716D01*
X177986660Y-126108021D01*
X178004281Y-126085749D01*
X178007072Y-126082345D01*
X178049591Y-126032297D01*
X178049592Y-126032295D01*
X178054333Y-126026715D01*
X178057661Y-126020199D01*
X178061028Y-126015150D01*
X178064195Y-126010021D01*
X178068734Y-126004284D01*
X178099655Y-125938125D01*
X178101561Y-125934225D01*
X178103668Y-125930099D01*
X178134769Y-125869192D01*
X178136508Y-125862084D01*
X178138607Y-125856441D01*
X178140524Y-125850678D01*
X178143622Y-125844050D01*
X178158487Y-125772583D01*
X178159457Y-125768299D01*
X178175473Y-125702845D01*
X178176808Y-125697390D01*
X178177500Y-125686236D01*
X178177536Y-125686238D01*
X178177775Y-125682245D01*
X178178149Y-125678053D01*
X178179640Y-125670885D01*
X178177546Y-125593479D01*
X178177500Y-125590072D01*
X178177500Y-124736845D01*
X178197502Y-124668724D01*
X178214327Y-124647827D01*
X178235634Y-124626483D01*
X178240805Y-124621303D01*
X178252461Y-124602394D01*
X178329775Y-124476968D01*
X178329776Y-124476966D01*
X178333615Y-124470738D01*
X178374686Y-124346912D01*
X178387132Y-124309389D01*
X178387132Y-124309387D01*
X178389297Y-124302861D01*
X178390905Y-124287173D01*
X178397065Y-124227048D01*
X178400000Y-124198400D01*
X178400000Y-123197600D01*
X178399663Y-123194350D01*
X178389738Y-123098692D01*
X178389737Y-123098688D01*
X178389026Y-123091834D01*
X178385298Y-123080658D01*
X178337489Y-122937360D01*
X178333050Y-122924054D01*
X178239978Y-122773652D01*
X178114803Y-122648695D01*
X178075738Y-122624615D01*
X177970468Y-122559725D01*
X177970466Y-122559724D01*
X177964238Y-122555885D01*
X177803754Y-122502655D01*
X177802889Y-122502368D01*
X177802887Y-122502368D01*
X177796361Y-122500203D01*
X177789525Y-122499503D01*
X177789522Y-122499502D01*
X177746469Y-122495091D01*
X177691900Y-122489500D01*
X177066100Y-122489500D01*
X177062854Y-122489837D01*
X177062850Y-122489837D01*
X176967192Y-122499762D01*
X176967188Y-122499763D01*
X176960334Y-122500474D01*
X176953798Y-122502655D01*
X176953796Y-122502655D01*
X176871591Y-122530081D01*
X176792554Y-122556450D01*
X176642152Y-122649522D01*
X176588609Y-122703159D01*
X176555716Y-122736109D01*
X176493434Y-122770188D01*
X176422614Y-122765185D01*
X176377525Y-122736264D01*
X176294983Y-122653866D01*
X176289803Y-122648695D01*
X176250738Y-122624615D01*
X176241699Y-122619043D01*
X176194205Y-122566270D01*
X176182782Y-122496199D01*
X176206988Y-122436219D01*
X176210267Y-122431844D01*
X176218615Y-122420705D01*
X176269745Y-122284316D01*
X176276500Y-122222134D01*
X176276500Y-120601866D01*
X176269745Y-120539684D01*
X176218615Y-120403295D01*
X176131261Y-120286739D01*
X176072251Y-120242513D01*
X176029736Y-120185656D01*
X176024710Y-120114837D01*
X176058770Y-120052544D01*
X176072251Y-120040862D01*
X176123724Y-120002285D01*
X176136285Y-119989724D01*
X176212786Y-119887649D01*
X176221324Y-119872054D01*
X176266478Y-119751606D01*
X176270105Y-119736351D01*
X176275631Y-119685486D01*
X176276000Y-119678672D01*
X176276000Y-119144115D01*
X176271525Y-119128876D01*
X176270135Y-119127671D01*
X176262452Y-119126000D01*
X173754116Y-119126000D01*
X173738877Y-119130475D01*
X173737672Y-119131865D01*
X173736001Y-119139548D01*
X173736001Y-119678669D01*
X173736371Y-119685490D01*
X173741895Y-119736352D01*
X173745521Y-119751604D01*
X173790676Y-119872054D01*
X173799214Y-119887649D01*
X173875715Y-119989724D01*
X173888276Y-120002285D01*
X173939749Y-120040862D01*
X173982264Y-120097721D01*
X173987290Y-120168540D01*
X173953230Y-120230833D01*
X173939755Y-120242509D01*
X173880739Y-120286739D01*
X173793385Y-120403295D01*
X173742255Y-120539684D01*
X173735500Y-120601866D01*
X173735500Y-122222134D01*
X173742255Y-122284316D01*
X173793385Y-122420705D01*
X173880739Y-122537261D01*
X173997295Y-122624615D01*
X174133684Y-122675745D01*
X174141540Y-122676598D01*
X174149222Y-122678425D01*
X174148500Y-122681460D01*
X174200691Y-122703159D01*
X174241105Y-122761530D01*
X174247500Y-122801163D01*
X174247500Y-123080658D01*
X174227498Y-123148779D01*
X174173842Y-123195272D01*
X174103568Y-123205376D01*
X174039921Y-123176683D01*
X174000232Y-123142965D01*
X173992716Y-123136035D01*
X173987021Y-123130340D01*
X173975827Y-123121484D01*
X173964749Y-123112719D01*
X173961345Y-123109928D01*
X173911297Y-123067409D01*
X173911295Y-123067408D01*
X173905715Y-123062667D01*
X173899199Y-123059339D01*
X173894150Y-123055972D01*
X173889021Y-123052805D01*
X173883284Y-123048266D01*
X173817125Y-123017345D01*
X173813225Y-123015439D01*
X173748192Y-122982231D01*
X173741084Y-122980492D01*
X173735441Y-122978393D01*
X173729678Y-122976476D01*
X173723050Y-122973378D01*
X173651583Y-122958513D01*
X173647299Y-122957543D01*
X173576390Y-122940192D01*
X173570788Y-122939844D01*
X173570785Y-122939844D01*
X173565236Y-122939500D01*
X173565238Y-122939464D01*
X173561245Y-122939225D01*
X173557053Y-122938851D01*
X173549885Y-122937360D01*
X173483675Y-122939151D01*
X173472479Y-122939454D01*
X173469072Y-122939500D01*
X173076985Y-122939500D01*
X173008864Y-122919498D01*
X172987968Y-122902673D01*
X172919892Y-122834716D01*
X172885812Y-122772434D01*
X172890815Y-122701614D01*
X172919736Y-122656525D01*
X173002134Y-122573983D01*
X173007305Y-122568803D01*
X173016019Y-122554667D01*
X173096275Y-122424468D01*
X173096276Y-122424466D01*
X173100115Y-122418238D01*
X173133467Y-122317684D01*
X173153632Y-122256889D01*
X173153632Y-122256887D01*
X173155797Y-122250361D01*
X173166500Y-122145900D01*
X173166500Y-121520100D01*
X173166163Y-121516850D01*
X173156238Y-121421192D01*
X173156237Y-121421188D01*
X173155526Y-121414334D01*
X173151878Y-121403398D01*
X173101868Y-121253502D01*
X173099550Y-121246554D01*
X173006478Y-121096152D01*
X172881303Y-120971195D01*
X172776383Y-120906521D01*
X172728891Y-120853750D01*
X172716500Y-120799262D01*
X172716500Y-118928871D01*
X172736502Y-118860750D01*
X172753405Y-118839776D01*
X173520905Y-118072276D01*
X173583217Y-118038250D01*
X173654032Y-118043315D01*
X173710868Y-118085862D01*
X173735679Y-118152382D01*
X173736000Y-118161371D01*
X173736000Y-118599885D01*
X173740475Y-118615124D01*
X173741865Y-118616329D01*
X173749548Y-118618000D01*
X174733885Y-118618000D01*
X174749124Y-118613525D01*
X174750329Y-118612135D01*
X174752000Y-118604452D01*
X174752000Y-118599885D01*
X175260000Y-118599885D01*
X175264475Y-118615124D01*
X175265865Y-118616329D01*
X175273548Y-118618000D01*
X176257884Y-118618000D01*
X176273123Y-118613525D01*
X176274328Y-118612135D01*
X176275999Y-118604452D01*
X176275999Y-118065331D01*
X176275629Y-118058510D01*
X176270105Y-118007648D01*
X176266479Y-117992396D01*
X176221324Y-117871946D01*
X176212786Y-117856351D01*
X176136285Y-117754276D01*
X176123724Y-117741715D01*
X176021649Y-117665214D01*
X176006054Y-117656676D01*
X175885606Y-117611522D01*
X175870351Y-117607895D01*
X175819486Y-117602369D01*
X175812672Y-117602000D01*
X175278115Y-117602000D01*
X175262876Y-117606475D01*
X175261671Y-117607865D01*
X175260000Y-117615548D01*
X175260000Y-118599885D01*
X174752000Y-118599885D01*
X174752000Y-117620116D01*
X174747525Y-117604877D01*
X174746135Y-117603672D01*
X174738452Y-117602001D01*
X174295370Y-117602001D01*
X174227249Y-117581999D01*
X174180756Y-117528343D01*
X174170652Y-117458069D01*
X174200146Y-117393489D01*
X174206275Y-117386906D01*
X175251420Y-116341761D01*
X175313732Y-116307735D01*
X175384547Y-116312800D01*
G37*
%TD.AperFunction*%
%TA.AperFunction,Conductor*%
G36*
X191675927Y-118763502D02*
G01*
X191696901Y-118780405D01*
X192165706Y-119249210D01*
X192199732Y-119311522D01*
X192194667Y-119382337D01*
X192152120Y-119439173D01*
X192085600Y-119463984D01*
X192076611Y-119464305D01*
X189334353Y-119464305D01*
X189323170Y-119463778D01*
X189315677Y-119462103D01*
X189307751Y-119462352D01*
X189307750Y-119462352D01*
X189255686Y-119463988D01*
X189186971Y-119446135D01*
X189162634Y-119427145D01*
X188944719Y-119209230D01*
X188927983Y-119195774D01*
X188902129Y-119174986D01*
X188902126Y-119174984D01*
X188895973Y-119170037D01*
X188802793Y-119127671D01*
X188771546Y-119113464D01*
X188771545Y-119113464D01*
X188763377Y-119109750D01*
X188754494Y-119108478D01*
X188754491Y-119108477D01*
X188628080Y-119090374D01*
X188619191Y-119089101D01*
X188610302Y-119090374D01*
X188483891Y-119108477D01*
X188483888Y-119108478D01*
X188475005Y-119109750D01*
X188466837Y-119113464D01*
X188466836Y-119113464D01*
X188435589Y-119127671D01*
X188342409Y-119170037D01*
X188336256Y-119174984D01*
X188336253Y-119174986D01*
X188310399Y-119195774D01*
X188293663Y-119209230D01*
X187270997Y-120231896D01*
X187268857Y-120234558D01*
X187236753Y-120274486D01*
X187236751Y-120274489D01*
X187231804Y-120280642D01*
X187171517Y-120413238D01*
X187150868Y-120557424D01*
X187152141Y-120566313D01*
X187157233Y-120601866D01*
X187171517Y-120701610D01*
X187175231Y-120709779D01*
X187175232Y-120709782D01*
X187179380Y-120718904D01*
X187189369Y-120789194D01*
X187159770Y-120853727D01*
X187099981Y-120892012D01*
X187028984Y-120891896D01*
X187012533Y-120885760D01*
X187003643Y-120881718D01*
X186986581Y-120876729D01*
X186860313Y-120858646D01*
X186842535Y-120858646D01*
X186716265Y-120876729D01*
X186699210Y-120881716D01*
X186582102Y-120934961D01*
X186568756Y-120943180D01*
X186528878Y-120975243D01*
X186523801Y-120979798D01*
X186207333Y-121296266D01*
X186199719Y-121310210D01*
X186199850Y-121312043D01*
X186204101Y-121318658D01*
X188031500Y-123146057D01*
X188045444Y-123153671D01*
X188047277Y-123153540D01*
X188053892Y-123149289D01*
X188373587Y-122829594D01*
X188378148Y-122824511D01*
X188410209Y-122784637D01*
X188418432Y-122771284D01*
X188471675Y-122654181D01*
X188476662Y-122637126D01*
X188494745Y-122510856D01*
X188494745Y-122493078D01*
X188476662Y-122366810D01*
X188471673Y-122349748D01*
X188467631Y-122340858D01*
X188457646Y-122270567D01*
X188487249Y-122206036D01*
X188547040Y-122167754D01*
X188618036Y-122167874D01*
X188634487Y-122174011D01*
X188643609Y-122178159D01*
X188643612Y-122178160D01*
X188651781Y-122181874D01*
X188660664Y-122183146D01*
X188660667Y-122183147D01*
X188787078Y-122201250D01*
X188795967Y-122202523D01*
X188804856Y-122201250D01*
X188931267Y-122183147D01*
X188931270Y-122183146D01*
X188940153Y-122181874D01*
X188956700Y-122174351D01*
X189026458Y-122142634D01*
X189072749Y-122121587D01*
X189078902Y-122116640D01*
X189078905Y-122116638D01*
X189118833Y-122084534D01*
X189121495Y-122082394D01*
X190144161Y-121059728D01*
X190157617Y-121042992D01*
X190178405Y-121017138D01*
X190178407Y-121017135D01*
X190183354Y-121010982D01*
X190217918Y-120934961D01*
X190239927Y-120886555D01*
X190239927Y-120886554D01*
X190243641Y-120878386D01*
X190247173Y-120853727D01*
X190249218Y-120839443D01*
X190278675Y-120774846D01*
X190338379Y-120736429D01*
X190373945Y-120731305D01*
X192744710Y-120731305D01*
X192812831Y-120751307D01*
X192833806Y-120768210D01*
X193462753Y-121397158D01*
X193470287Y-121405437D01*
X193474400Y-121411918D01*
X193480181Y-121417346D01*
X193485231Y-121423451D01*
X193484055Y-121424424D01*
X193515515Y-121477956D01*
X193512685Y-121548896D01*
X193482395Y-121597701D01*
X192468191Y-122611905D01*
X192405879Y-122645931D01*
X192335064Y-122640866D01*
X192278228Y-122598319D01*
X192264395Y-122574960D01*
X192257733Y-122560306D01*
X192233963Y-122508027D01*
X192229016Y-122501874D01*
X192229014Y-122501871D01*
X192196910Y-122461943D01*
X192194770Y-122459281D01*
X190995328Y-121259839D01*
X190978402Y-121246230D01*
X190952738Y-121225595D01*
X190952735Y-121225593D01*
X190946582Y-121220646D01*
X190856694Y-121179777D01*
X190822155Y-121164073D01*
X190822154Y-121164073D01*
X190813986Y-121160359D01*
X190805103Y-121159087D01*
X190805100Y-121159086D01*
X190678689Y-121140983D01*
X190669800Y-121139710D01*
X190660911Y-121140983D01*
X190534500Y-121159086D01*
X190534497Y-121159087D01*
X190525614Y-121160359D01*
X190517446Y-121164073D01*
X190517445Y-121164073D01*
X190482906Y-121179777D01*
X190393018Y-121220646D01*
X190386865Y-121225593D01*
X190386862Y-121225595D01*
X190361198Y-121246230D01*
X190344272Y-121259839D01*
X189321606Y-122282505D01*
X189319466Y-122285167D01*
X189287362Y-122325095D01*
X189287360Y-122325098D01*
X189282413Y-122331251D01*
X189279145Y-122338439D01*
X189228630Y-122449543D01*
X189222126Y-122463847D01*
X189220854Y-122472730D01*
X189220853Y-122472733D01*
X189206353Y-122573983D01*
X189201477Y-122608033D01*
X189202750Y-122616922D01*
X189219819Y-122736109D01*
X189222126Y-122752219D01*
X189225840Y-122760388D01*
X189225841Y-122760391D01*
X189229675Y-122768823D01*
X189239663Y-122839113D01*
X189210063Y-122903645D01*
X189150273Y-122941930D01*
X189079276Y-122941812D01*
X189062823Y-122935675D01*
X189054391Y-122931841D01*
X189054388Y-122931840D01*
X189046219Y-122928126D01*
X189037336Y-122926854D01*
X189037333Y-122926853D01*
X188910922Y-122908750D01*
X188902033Y-122907477D01*
X188893144Y-122908750D01*
X188766733Y-122926853D01*
X188766730Y-122926854D01*
X188757847Y-122928126D01*
X188749679Y-122931840D01*
X188749678Y-122931840D01*
X188727746Y-122941812D01*
X188625251Y-122988413D01*
X188619098Y-122993360D01*
X188619095Y-122993362D01*
X188614643Y-122996942D01*
X188576505Y-123027606D01*
X187553839Y-124050272D01*
X187550559Y-124054352D01*
X187519595Y-124092862D01*
X187519593Y-124092865D01*
X187514646Y-124099018D01*
X187511380Y-124106202D01*
X187511376Y-124106208D01*
X187465888Y-124206257D01*
X187419485Y-124259991D01*
X187351297Y-124280107D01*
X187279772Y-124280169D01*
X187274586Y-124281400D01*
X187205404Y-124269618D01*
X187152969Y-124221753D01*
X187134736Y-124153137D01*
X187135529Y-124141916D01*
X187137016Y-124129066D01*
X187136944Y-124046439D01*
X187156887Y-123978301D01*
X187210794Y-123931629D01*
X187297519Y-123892198D01*
X187310868Y-123883978D01*
X187350746Y-123851915D01*
X187355823Y-123847360D01*
X187672291Y-123530892D01*
X187679905Y-123516948D01*
X187679774Y-123515115D01*
X187675523Y-123508500D01*
X185848124Y-121681101D01*
X185834180Y-121673487D01*
X185832347Y-121673618D01*
X185825732Y-121677869D01*
X185506037Y-121997564D01*
X185501476Y-122002647D01*
X185469415Y-122042521D01*
X185461192Y-122055874D01*
X185407949Y-122172977D01*
X185402962Y-122190032D01*
X185384879Y-122316302D01*
X185384879Y-122334080D01*
X185402962Y-122460348D01*
X185407950Y-122477406D01*
X185461194Y-122594512D01*
X185469413Y-122607858D01*
X185501476Y-122647736D01*
X185506031Y-122652813D01*
X185685440Y-122832222D01*
X185719466Y-122894534D01*
X185714401Y-122965349D01*
X185671854Y-123022185D01*
X185652861Y-123033931D01*
X185612523Y-123054175D01*
X185601039Y-123061604D01*
X185527489Y-123121484D01*
X185522715Y-123125794D01*
X185345918Y-123302592D01*
X185338307Y-123316530D01*
X185338439Y-123318366D01*
X185342688Y-123324978D01*
X186136383Y-124118673D01*
X186170409Y-124180985D01*
X186165344Y-124251800D01*
X186136383Y-124296863D01*
X185186823Y-125246423D01*
X185179209Y-125260367D01*
X185179340Y-125262200D01*
X185183591Y-125268815D01*
X185204491Y-125289715D01*
X185209314Y-125294064D01*
X185283944Y-125354663D01*
X185295455Y-125362085D01*
X185440856Y-125434739D01*
X185454530Y-125439689D01*
X185612329Y-125476844D01*
X185626774Y-125478516D01*
X185788889Y-125478375D01*
X185800187Y-125477048D01*
X185870177Y-125488965D01*
X185922612Y-125536829D01*
X185940847Y-125605444D01*
X185940115Y-125615799D01*
X185938515Y-125622596D01*
X185938521Y-125629912D01*
X185938521Y-125629915D01*
X185938557Y-125670885D01*
X185938669Y-125799466D01*
X185940359Y-125806587D01*
X185970649Y-125934225D01*
X185979508Y-125971558D01*
X185982790Y-125978097D01*
X185982790Y-125978098D01*
X186048897Y-126109821D01*
X186058842Y-126129638D01*
X186063184Y-126134971D01*
X186063185Y-126134973D01*
X186123108Y-126208577D01*
X186123114Y-126208583D01*
X186125139Y-126211071D01*
X186549969Y-126635901D01*
X186552499Y-126637955D01*
X186552503Y-126637959D01*
X186627163Y-126698583D01*
X186627167Y-126698585D01*
X186632516Y-126702929D01*
X186790736Y-126781987D01*
X186881612Y-126803385D01*
X186929258Y-126814604D01*
X186989474Y-126848155D01*
X187039875Y-126898556D01*
X187070613Y-126948714D01*
X187125473Y-127117556D01*
X187128776Y-127123278D01*
X187128777Y-127123279D01*
X187169319Y-127193500D01*
X187186057Y-127262496D01*
X187162836Y-127329587D01*
X187107029Y-127373474D01*
X187060200Y-127382500D01*
X184530500Y-127382500D01*
X184462379Y-127362498D01*
X184415886Y-127308842D01*
X184404500Y-127256500D01*
X184404500Y-127205866D01*
X184397745Y-127143684D01*
X184346615Y-127007295D01*
X184259261Y-126890739D01*
X184200668Y-126846826D01*
X184158153Y-126789967D01*
X184153127Y-126719148D01*
X184187187Y-126656855D01*
X184200668Y-126645174D01*
X184252081Y-126606642D01*
X184259261Y-126601261D01*
X184346615Y-126484705D01*
X184397745Y-126348316D01*
X184404500Y-126286134D01*
X184404500Y-124697618D01*
X184424502Y-124629497D01*
X184478158Y-124583004D01*
X184548432Y-124572900D01*
X184613012Y-124602394D01*
X184643114Y-124641102D01*
X184712675Y-124779712D01*
X184720104Y-124791195D01*
X184779993Y-124864756D01*
X184784284Y-124869509D01*
X184801991Y-124887215D01*
X184815932Y-124894827D01*
X184817767Y-124894696D01*
X184824381Y-124890445D01*
X185494246Y-124220580D01*
X185501860Y-124206636D01*
X185501729Y-124204803D01*
X185497478Y-124198188D01*
X184986712Y-123687422D01*
X184972768Y-123679808D01*
X184970935Y-123679939D01*
X184964320Y-123684190D01*
X184784321Y-123864189D01*
X184779972Y-123869012D01*
X184719373Y-123943642D01*
X184711951Y-123955153D01*
X184639297Y-124100554D01*
X184634347Y-124114228D01*
X184597192Y-124272027D01*
X184595520Y-124286472D01*
X184595650Y-124436435D01*
X184575707Y-124504573D01*
X184522091Y-124551112D01*
X184451826Y-124561277D01*
X184387220Y-124531840D01*
X184351668Y-124480773D01*
X184349768Y-124475705D01*
X184349767Y-124475703D01*
X184346615Y-124467295D01*
X184259261Y-124350739D01*
X184142705Y-124263385D01*
X184006316Y-124212255D01*
X183948737Y-124206000D01*
X183947531Y-124205869D01*
X183944134Y-124205500D01*
X183893500Y-124205500D01*
X183825379Y-124185498D01*
X183778886Y-124131842D01*
X183767500Y-124079500D01*
X183767500Y-121980594D01*
X183787502Y-121912473D01*
X183804405Y-121891499D01*
X186915499Y-118780405D01*
X186977811Y-118746379D01*
X187004594Y-118743500D01*
X191607806Y-118743500D01*
X191675927Y-118763502D01*
G37*
%TD.AperFunction*%
%TA.AperFunction,Conductor*%
G36*
X190288626Y-115746222D02*
G01*
X190295291Y-115752423D01*
X191069673Y-116526805D01*
X191103699Y-116589117D01*
X191098634Y-116659932D01*
X191056087Y-116716768D01*
X190989567Y-116741579D01*
X190980578Y-116741900D01*
X189835918Y-116741900D01*
X189767797Y-116721898D01*
X189721304Y-116668242D01*
X189711200Y-116597968D01*
X189740694Y-116533388D01*
X189746823Y-116526805D01*
X189891498Y-116382130D01*
X189895847Y-116377307D01*
X189956446Y-116302677D01*
X189963868Y-116291166D01*
X190036522Y-116145765D01*
X190041472Y-116132091D01*
X190078627Y-115974292D01*
X190080299Y-115959847D01*
X190080196Y-115841627D01*
X190100139Y-115773489D01*
X190153754Y-115726950D01*
X190224019Y-115716785D01*
X190288626Y-115746222D01*
G37*
%TD.AperFunction*%
%TA.AperFunction,Conductor*%
G36*
X192585819Y-110127502D02*
G01*
X192632312Y-110181158D01*
X192642416Y-110251432D01*
X192612922Y-110316012D01*
X192606870Y-110322518D01*
X192606265Y-110323124D01*
X192597249Y-110334540D01*
X192512184Y-110472543D01*
X192506037Y-110485724D01*
X192454862Y-110640010D01*
X192451995Y-110653386D01*
X192442328Y-110747738D01*
X192442000Y-110754155D01*
X192442000Y-110779185D01*
X192446475Y-110794424D01*
X192447865Y-110795629D01*
X192455548Y-110797300D01*
X193803000Y-110797300D01*
X193871121Y-110817302D01*
X193917614Y-110870958D01*
X193929000Y-110923300D01*
X193929000Y-111179300D01*
X193908998Y-111247421D01*
X193855342Y-111293914D01*
X193803000Y-111305300D01*
X192460116Y-111305300D01*
X192444877Y-111309775D01*
X192443672Y-111311165D01*
X192442001Y-111318848D01*
X192442001Y-111348395D01*
X192442338Y-111354914D01*
X192452257Y-111450506D01*
X192455149Y-111463900D01*
X192506588Y-111618084D01*
X192512761Y-111631262D01*
X192598063Y-111769107D01*
X192607099Y-111780508D01*
X192721828Y-111895038D01*
X192730762Y-111902094D01*
X192771823Y-111960012D01*
X192775053Y-112030935D01*
X192739426Y-112092346D01*
X192731593Y-112099146D01*
X192725652Y-112102822D01*
X192600695Y-112227997D01*
X192507885Y-112378562D01*
X192487236Y-112440819D01*
X192446807Y-112499175D01*
X192381243Y-112526413D01*
X192311362Y-112513880D01*
X192278549Y-112490244D01*
X192186405Y-112398100D01*
X192152379Y-112335788D01*
X192149500Y-112309005D01*
X192149500Y-111330768D01*
X192150027Y-111319585D01*
X192151702Y-111312092D01*
X192149956Y-111256522D01*
X192149562Y-111244002D01*
X192149500Y-111240044D01*
X192149500Y-111212144D01*
X192148996Y-111208153D01*
X192148063Y-111196311D01*
X192147529Y-111179300D01*
X192146674Y-111152111D01*
X192143367Y-111140729D01*
X192141021Y-111132652D01*
X192137012Y-111113293D01*
X192136846Y-111111983D01*
X192134474Y-111093203D01*
X192131558Y-111085837D01*
X192131556Y-111085831D01*
X192118200Y-111052098D01*
X192114355Y-111040868D01*
X192104230Y-111006017D01*
X192104230Y-111006016D01*
X192102019Y-110998407D01*
X192091705Y-110980966D01*
X192083008Y-110963213D01*
X192078472Y-110951758D01*
X192075552Y-110944383D01*
X192049563Y-110908612D01*
X192043047Y-110898692D01*
X192024578Y-110867463D01*
X192020542Y-110860638D01*
X192006221Y-110846317D01*
X191993380Y-110831283D01*
X191990612Y-110827473D01*
X191981472Y-110814893D01*
X191947395Y-110786702D01*
X191938616Y-110778712D01*
X191482499Y-110322595D01*
X191448473Y-110260283D01*
X191453538Y-110189468D01*
X191496085Y-110132632D01*
X191562605Y-110107821D01*
X191571594Y-110107500D01*
X192517698Y-110107500D01*
X192585819Y-110127502D01*
G37*
%TD.AperFunction*%
%TD*%
M02*
